<svg version="1.1" viewBox="0.0 0.0 544.0472440944882 357.0314960629921" fill="none" stroke="none" stroke-linecap="square" stroke-miterlimit="10" xmlns:xlink="http://www.w3.org/1999/xlink" xmlns="http://www.w3.org/2000/svg"><clipPath id="p.0"><path d="m0 0l544.04724 0l0 357.0315l-544.04724 0l0 -357.0315z" clip-rule="nonzero"/></clipPath><g clip-path="url(#p.0)"><path fill="#000000" fill-opacity="0.0" d="m0 0l544.04724 0l0 357.0315l-544.04724 0z" fill-rule="evenodd"/><path fill="#6aa84f" d="m290.57086 130.10367l136.53543 0l0 61.196854l-136.53543 0z" fill-rule="evenodd"/><path stroke="#38761d" stroke-width="1.0" stroke-linejoin="round" stroke-linecap="butt" d="m290.57086 130.10367l136.53543 0l0 61.196854l-136.53543 0z" fill-rule="evenodd"/><path fill="#000000" d="m319.32877 167.91898q-1.875 0 -3.34375 -0.875q-1.453125 -0.875 -2.25 -2.390625q-0.796875 -1.53125 -0.796875 -3.375q0 -1.765625 0.75 -3.375q0.765625 -1.625 2.234375 -2.625q1.46875 -1.015625 3.546875 -1.015625q0.734375 0 1.59375 0.25q0.875 0.234375 1.609375 0.671875l0.015625 0l-0.078125 -0.796875l1.4375 0l0 4.359375l-1.203125 0q-0.5 -3.109375 -3.140625 -3.140625q-1.25 0 -2.125 0.734375q-0.859375 0.734375 -1.296875 1.953125q-0.421875 1.21875 -0.421875 2.609375q0 1.609375 0.46875 2.859375q0.46875 1.25 1.34375 1.953125q0.875 0.6875 2.109375 0.6875q1.1875 0 2.328125 -0.609375q1.15625 -0.609375 1.9375 -1.671875l0.90625 0.8125q-1.234375 1.703125 -2.71875 2.34375q-1.46875 0.640625 -2.90625 0.640625zm11.11676 0q-1.359375 0 -2.4375 -0.578125q-1.078125 -0.578125 -1.703125 -1.65625q-0.609375 -1.078125 -0.609375 -2.515625q0 -1.515625 0.625 -2.6875q0.640625 -1.1875 1.71875 -1.828125q1.078125 -0.65625 2.359375 -0.65625q1.34375 0 2.40625 0.578125q1.0625 0.578125 1.671875 1.671875q0.625 1.09375 0.625 2.546875q0 1.546875 -0.59375 2.703125q-0.578125 1.15625 -1.640625 1.796875q-1.046875 0.625 -2.421875 0.625zm0.046875 -1.328125q1.03125 0 1.4375 -0.9375q0.40625 -0.953125 0.40625 -2.390625q0 -1.609375 -0.46875 -2.78125q-0.46875 -1.1875 -1.46875 -1.1875q-1.03125 0 -1.5 0.984375q-0.453125 0.96875 -0.453125 2.375q0 1.625 0.5 2.78125q0.5 1.15625 1.546875 1.15625zm5.9500732 -0.1875q0.703125 0 0.890625 -0.390625q0.203125 -0.390625 0.203125 -1.265625l0 -3.125q0 -0.84375 0.078125 -1.59375l-1.296875 0.0625l0 -1.421875q1.171875 0 1.890625 -0.171875q0.734375 -0.171875 0.96875 -0.390625l0.921875 0q0 0.03125 0.078125 0.9375l0.03125 0q0.546875 -0.4375 1.328125 -0.734375q0.796875 -0.3125 1.359375 -0.3125q1.703125 0 2.421875 0.96875q0.734375 0.96875 0.734375 3.15625l0 2.5q0 0.890625 -0.078125 1.640625q0.609375 -0.0625 1.21875 -0.0625l0 1.421875l-4.890625 0l0 -1.21875q0.703125 0 0.90625 -0.390625q0.21875 -0.390625 0.21875 -1.265625l-0.03125 -2.640625q0 -1.234375 -0.34375 -1.8125q-0.34375 -0.578125 -1.15625 -0.578125q-0.453125 0 -0.921875 0.203125q-0.46875 0.1875 -0.78125 0.484375l0 4.21875q0 0.890625 -0.078125 1.640625q0.59375 -0.0625 1.21875 -0.0625l0 1.421875l-4.890625 0l0 -1.21875zm15.552856 1.515625q-2.90625 0 -2.90625 -3.578125l0.03125 -4.5l-1.265625 0l0 -1.546875q0.609375 0 1.140625 -0.375q0.53125 -0.375 0.890625 -0.90625q0.375 -0.546875 0.53125 -1.046875l1.375 0l-0.015625 2.328125l2.375 0l0 1.4375l-2.375 0.0625l-0.015625 4.578125q0 1.8125 1.109375 1.8125q0.90625 0 1.703125 -1.125l0.890625 0.84375q-0.875 1.296875 -1.75 1.65625q-0.875 0.359375 -1.71875 0.359375zm4.0175476 -1.515625q0.703125 0 0.890625 -0.390625q0.203125 -0.390625 0.203125 -1.265625l0 -3.125q0 -0.84375 0.078125 -1.59375l-1.296875 0.0625l0 -1.421875q1.171875 0 1.890625 -0.171875q0.734375 -0.171875 0.96875 -0.390625l0.921875 0q0.03125 0.28125 0.046875 0.734375q0.03125 0.4375 0.03125 0.875l0.03125 0q1.265625 -1.71875 2.6875 -1.71875q0.703125 0 1.15625 0.390625q0.46875 0.390625 0.46875 1.15625q0 0.484375 -0.328125 0.90625q-0.3125 0.40625 -0.9375 0.40625q-0.46875 0 -0.84375 -0.234375q-0.359375 -0.25 -0.40625 -0.859375q-0.53125 0 -1.078125 0.609375q-0.546875 0.609375 -0.734375 1.203125l0 3.046875q0 0.890625 -0.078125 1.640625q0.59375 -0.0625 1.21875 -0.0625l0 1.421875l-4.890625 0l0 -1.21875zm13.517487 1.515625q-1.359375 0 -2.4375 -0.578125q-1.078125 -0.578125 -1.703125 -1.65625q-0.609375 -1.078125 -0.609375 -2.515625q0 -1.515625 0.625 -2.6875q0.640625 -1.1875 1.71875 -1.828125q1.078125 -0.65625 2.359375 -0.65625q1.34375 0 2.40625 0.578125q1.0625 0.578125 1.671875 1.671875q0.625 1.09375 0.625 2.546875q0 1.546875 -0.59375 2.703125q-0.578125 1.15625 -1.640625 1.796875q-1.046875 0.625 -2.421875 0.625zm0.046875 -1.328125q1.03125 0 1.4375 -0.9375q0.40625 -0.953125 0.40625 -2.390625q0 -1.609375 -0.46875 -2.78125q-0.46875 -1.1875 -1.46875 -1.1875q-1.03125 0 -1.5 0.984375q-0.453125 0.96875 -0.453125 2.375q0 1.625 0.5 2.78125q0.5 1.15625 1.546875 1.15625zm5.6531982 -0.1875q0.5 0 0.734375 -0.1875q0.234375 -0.203125 0.296875 -0.53125q0.0625 -0.34375 0.0625 -0.9375l0 -7.671875q0 -0.890625 0.078125 -1.609375l-1.3125 0.046875l0 -1.421875q1.1875 0 1.90625 -0.15625q0.734375 -0.171875 0.96875 -0.390625l1.015625 0l0 11.078125q0 0.890625 -0.078125 1.640625q0.609375 -0.0625 1.21875 -0.0625l0 1.421875l-4.890625 0l0 -1.21875zm5.8207397 0q0.5 0 0.734375 -0.1875q0.234375 -0.203125 0.296875 -0.53125q0.0625 -0.34375 0.0625 -0.9375l0 -7.671875q0 -0.890625 0.078125 -1.609375l-1.3125 0.046875l0 -1.421875q1.1875 0 1.90625 -0.15625q0.734375 -0.171875 0.96875 -0.390625l1.015625 0l0 11.078125q0 0.890625 -0.078125 1.640625q0.609375 -0.0625 1.21875 -0.0625l0 1.421875l-4.890625 0l0 -1.21875zm10.53952 1.515625q-1.359375 0 -2.40625 -0.609375q-1.046875 -0.609375 -1.625 -1.71875q-0.578125 -1.125 -0.578125 -2.609375q0 -1.3125 0.578125 -2.453125q0.59375 -1.15625 1.65625 -1.84375q1.0625 -0.6875 2.4375 -0.6875q1.796875 0 3.0 1.0625q1.203125 1.0625 1.1875 3.546875l-6.109375 0.109375q0 1.640625 0.625 2.59375q0.625 0.953125 2.0 0.953125q0.65625 0 1.390625 -0.328125q0.75 -0.34375 1.34375 -1.078125l0.84375 0.78125q-1.578125 2.28125 -4.34375 2.28125zm1.671875 -6.515625q-0.046875 -2.109375 -1.53125 -2.109375q-0.796875 0 -1.28125 0.578125q-0.46875 0.5625 -0.609375 1.53125l3.421875 0zm3.9432983 5.0q0.703125 0 0.890625 -0.390625q0.203125 -0.390625 0.203125 -1.265625l0 -3.125q0 -0.84375 0.078125 -1.59375l-1.296875 0.0625l0 -1.421875q1.171875 0 1.890625 -0.171875q0.734375 -0.171875 0.96875 -0.390625l0.921875 0q0.03125 0.28125 0.046875 0.734375q0.03125 0.4375 0.03125 0.875l0.03125 0q1.265625 -1.71875 2.6875 -1.71875q0.703125 0 1.15625 0.390625q0.46875 0.390625 0.46875 1.15625q0 0.484375 -0.328125 0.90625q-0.3125 0.40625 -0.9375 0.40625q-0.46875 0 -0.84375 -0.234375q-0.359375 -0.25 -0.40625 -0.859375q-0.53125 0 -1.078125 0.609375q-0.546875 0.609375 -0.734375 1.203125l0 3.046875q0 0.890625 -0.078125 1.640625q0.59375 -0.0625 1.21875 -0.0625l0 1.421875l-4.890625 0l0 -1.21875z" fill-rule="nonzero"/><path fill="#b4a7d6" d="m386.28085 256.81628l146.69028 0l0 39.28189l-73.34515 9.820465l-73.34512 -9.820465z" fill-rule="evenodd"/><path stroke="#8e7cc3" stroke-width="1.0" stroke-linejoin="round" stroke-linecap="butt" d="m386.28085 256.81628l146.69028 0l0 39.28189l-73.34515 9.820465l-73.34512 -9.820465z" fill-rule="evenodd"/><path fill="#000000" d="m436.50336 283.6741q-1.828125 0 -3.28125 -0.875q-1.4375 -0.875 -2.25 -2.390625q-0.8125 -1.515625 -0.8125 -3.359375q0 -1.828125 0.734375 -3.421875q0.734375 -1.609375 2.203125 -2.609375q1.46875 -1.0 3.53125 -1.0q2.0625 0 3.765625 1.140625l-0.09375 -1.015625l1.015625 0l0 4.328125l-0.671875 0q-0.1875 -1.734375 -1.234375 -2.703125q-1.03125 -0.984375 -2.640625 -0.984375q-1.328125 0 -2.421875 0.734375q-1.09375 0.734375 -1.734375 2.109375q-0.625 1.359375 -0.625 3.140625q0 1.71875 0.671875 3.078125q0.671875 1.34375 1.8125 2.109375q1.140625 0.75 2.515625 0.75q1.25 0 2.40625 -0.5625q1.15625 -0.5625 1.90625 -1.578125l0.484375 0.390625q-1.078125 1.5 -2.484375 2.109375q-1.40625 0.609375 -2.796875 0.609375zm6.478241 -0.859375q0.53125 0 0.765625 -0.265625q0.234375 -0.265625 0.28125 -0.6875q0.046875 -0.421875 0.046875 -1.3125l0 -8.828125q0 -0.71875 0.0625 -1.21875l-1.328125 0.078125l0 -0.78125q1.109375 0 1.578125 -0.125q0.484375 -0.140625 0.75 -0.375l0.546875 0l0.015625 12.09375q0 0.734375 -0.09375 1.28125l1.171875 -0.0625l0 0.765625l-3.796875 0l0 -0.5625zm7.1057434 -10.796875q-0.390625 0 -0.703125 -0.328125q-0.296875 -0.328125 -0.296875 -0.78125q0 -0.4375 0.3125 -0.765625q0.3125 -0.34375 0.703125 -0.34375q0.421875 0 0.703125 0.328125q0.296875 0.328125 0.296875 0.78125q0 0.453125 -0.3125 0.78125q-0.296875 0.328125 -0.703125 0.328125zm-1.84375 10.796875q0.53125 0 0.765625 -0.265625q0.234375 -0.265625 0.28125 -0.6875q0.046875 -0.421875 0.046875 -1.3125l0 -4.265625q0 -0.53125 0.078125 -1.203125l-1.328125 0.0625l0 -0.78125q1.09375 0 1.5625 -0.125q0.484375 -0.125 0.75 -0.375l0.546875 0l0 7.53125q0 0.84375 -0.078125 1.28125l1.171875 -0.0625l0 0.765625l-3.796875 0l0 -0.5625zm9.742401 0.859375q-1.28125 0 -2.3125 -0.609375q-1.03125 -0.609375 -1.640625 -1.734375q-0.59375 -1.125 -0.59375 -2.59375q0 -1.3125 0.59375 -2.453125q0.609375 -1.15625 1.671875 -1.84375q1.078125 -0.6875 2.4375 -0.6875q1.0625 0 1.921875 0.46875q0.859375 0.46875 1.359375 1.390625q0.5 0.921875 0.5 2.265625l-6.5625 0.109375q-0.015625 2.234375 0.734375 3.484375q0.765625 1.25 2.34375 1.25q0.859375 0 1.765625 -0.4375q0.90625 -0.453125 1.390625 -1.109375l0.453125 0.375q-0.71875 1.078125 -1.84375 1.609375q-1.125 0.515625 -2.21875 0.515625zm2.1875 -6.46875q0 -1.125 -0.5 -1.921875q-0.5 -0.8125 -1.515625 -0.8125q-2.3125 0 -2.734375 2.734375l4.75 0zm3.4241943 5.609375q0.53125 0 0.765625 -0.265625q0.234375 -0.265625 0.265625 -0.671875q0.046875 -0.40625 0.0625 -1.328125l0.015625 -4.265625q0 -0.78125 0.078125 -1.203125l-1.328125 0.0625l0 -0.78125q1.109375 0 1.515625 -0.109375q0.40625 -0.125 0.6875 -0.390625l0.546875 0q0.03125 0.359375 0.0625 1.140625q0.640625 -0.5625 1.453125 -0.90625q0.8125 -0.34375 1.59375 -0.34375q1.625 0 2.359375 1.015625q0.75 1.015625 0.75 3.15625l0 3.46875q0 0.84375 -0.0625 1.28125l1.171875 -0.0625l0 0.765625l-3.8125 0l0 -0.5625q0.546875 0 0.78125 -0.265625q0.234375 -0.265625 0.28125 -0.6875q0.046875 -0.421875 0.046875 -1.3125l0 -2.625q-0.015625 -1.59375 -0.53125 -2.40625q-0.5 -0.8125 -1.578125 -0.8125q-0.671875 0 -1.34375 0.34375q-0.65625 0.328125 -1.078125 0.859375q0.015625 0.21875 0.015625 0.734375l-0.015625 4.75q0 0.84375 -0.078125 1.28125l1.171875 -0.0625l0 0.765625l-3.796875 0l0 -0.5625zm14.824341 0.859375q-2.5625 0 -2.53125 -3.4375l0.03125 -5.40625l-1.4375 0.015625l0 -0.796875q0.890625 -0.015625 1.515625 -0.8125q0.625 -0.796875 0.921875 -1.796875l0.640625 0l0 2.609375l3.140625 0l0 0.734375l-3.140625 0.03125q-0.015625 2.859375 -0.03125 3.96875q0 1.09375 0 1.21875q0 1.328125 0.3125 1.96875q0.3125 0.640625 1.09375 0.640625q0.484375 0 0.953125 -0.296875q0.484375 -0.296875 0.84375 -0.828125l0.5 0.421875q-0.71875 1.078125 -1.4375 1.421875q-0.703125 0.34375 -1.375 0.34375zm7.5324707 0q-0.875 0 -1.609375 -0.234375q-0.71875 -0.234375 -1.234375 -0.578125l0.0625 0.640625l-0.78125 0l-0.109375 -3.203125l0.578125 0q0.03125 0.765625 0.40625 1.359375q0.390625 0.59375 1.015625 0.953125q0.625 0.34375 1.34375 0.34375q0.796875 0 1.421875 -0.375q0.625 -0.390625 0.625 -1.109375q0 -0.515625 -0.3125 -0.875q-0.296875 -0.359375 -0.765625 -0.578125q-0.453125 -0.234375 -1.265625 -0.5625q-1.0 -0.375 -1.59375 -0.6875q-0.59375 -0.328125 -1.03125 -0.890625q-0.421875 -0.5625 -0.421875 -1.421875q0 -0.609375 0.296875 -1.21875q0.296875 -0.625 1.0 -1.046875q0.71875 -0.4375 1.890625 -0.4375q0.578125 0 1.1875 0.1875q0.609375 0.1875 1.125 0.609375l-0.03125 -0.703125l0.78125 0l0 3.265625l-0.59375 0q-0.0625 -1.078125 -0.671875 -1.875q-0.59375 -0.796875 -1.703125 -0.796875q-0.828125 0 -1.328125 0.421875q-0.5 0.421875 -0.5 1.0q0 0.53125 0.328125 0.90625q0.328125 0.375 0.8125 0.640625q0.484375 0.265625 1.3125 0.578125q0.96875 0.390625 1.5625 0.734375q0.59375 0.328125 1.015625 0.875q0.421875 0.546875 0.421875 1.34375q0 0.890625 -0.46875 1.515625q-0.453125 0.609375 -1.1875 0.921875q-0.734375 0.296875 -1.578125 0.296875z" fill-rule="nonzero"/><path fill="#cfe2f3" d="m4.7296586 8.388452l237.35432 0l0 337.5433l-237.35432 0z" fill-rule="evenodd"/><path stroke="#9fc5e8" stroke-width="1.0" stroke-linejoin="round" stroke-linecap="butt" d="m4.7296586 8.388452l237.35432 0l0 337.5433l-237.35432 0z" fill-rule="evenodd"/><path fill="#000000" fill-opacity="0.0" d="m4.729723 4.8700786l94.86614 0l0 36.22047l-94.86614 0z" fill-rule="evenodd"/><path fill="#000000" d="m19.120348 32.086952q-0.875 0 -1.765625 -0.25q-0.875 -0.234375 -1.546875 -0.703125l0.09375 0.8125l-0.984375 0l-0.109375 -3.984375l0.734375 0q0.09375 1.609375 1.09375 2.484375q1.015625 0.859375 2.5625 0.859375q1.140625 0 1.90625 -0.625q0.78125 -0.625 0.78125 -1.703125q0 -0.8125 -0.4375 -1.375q-0.4375 -0.5625 -1.09375 -0.9375q-0.640625 -0.390625 -1.734375 -0.90625q-1.25 -0.59375 -1.984375 -1.03125q-0.734375 -0.453125 -1.265625 -1.1875q-0.515625 -0.75 -0.515625 -1.828125q0 -0.75 0.34375 -1.484375q0.34375 -0.75 1.1875 -1.265625q0.84375 -0.53125 2.25 -0.53125q0.84375 0 1.6875 0.21875q0.84375 0.21875 1.5625 0.734375l-0.078125 -0.796875l0.953125 0l0 4.09375l-0.671875 0q-0.09375 -1.46875 -0.953125 -2.484375q-0.84375 -1.015625 -2.375 -1.015625q-1.109375 0 -1.75 0.625q-0.625 0.625 -0.625 1.5625q0 0.734375 0.421875 1.28125q0.421875 0.546875 1.03125 0.90625q0.625 0.34375 1.75 0.859375q1.265625 0.578125 2.03125 1.046875q0.78125 0.46875 1.3125 1.234375q0.546875 0.75 0.546875 1.84375q0 1.046875 -0.515625 1.859375q-0.5 0.796875 -1.5 1.25q-0.984375 0.4375 -2.34375 0.4375zm10.6405945 0q-1.296875 0 -2.375 -0.609375q-1.0625 -0.609375 -1.6875 -1.6875q-0.625 -1.078125 -0.625 -2.4375q0 -1.453125 0.609375 -2.640625q0.625 -1.1875 1.6875 -1.859375q1.078125 -0.6875 2.390625 -0.6875q1.28125 0 2.359373 0.625q1.09375 0.625 1.71875 1.703125q0.625 1.078125 0.625 2.40625q0 1.421875 -0.625 2.625q-0.625 1.1875 -1.703125 1.875q-1.0781231 0.6875 -2.374998 0.6875zm0.140625 -0.75q1.359375 0 2.0 -1.109375q0.6562481 -1.125 0.6562481 -2.78125q0 -1.890625 -0.7031231 -3.234375q-0.703125 -1.34375 -2.09375 -1.34375q-1.390625 0 -2.09375 1.140625q-0.6875 1.140625 -0.6875 2.796875q0 1.203125 0.328125 2.234375q0.328125 1.03125 0.984375 1.671875q0.65625 0.625 1.609375 0.625zm10.070158 0.75q-1.578125 0 -2.3125 -0.90625q-0.734375 -0.921875 -0.734375 -3.15625l0 -3.328125q0 -0.78125 0.0625 -1.203125l-1.28125 0.046875l0 -0.765625l0.578125 0q0.734375 0 1.09375 -0.125q0.375 -0.125 0.640625 -0.375l0.546875 0l0 5.6875q0 1.640625 0.453125 2.40625q0.453125 0.765625 1.515625 0.765625q0.6875 0 1.34375 -0.40625q0.671875 -0.40625 1.09375 -1.03125l0 -4.796875q0 -0.875 0.078125 -1.40625l-1.328125 0.046875l0 -0.765625l0.578125 0q0.71875 0 1.09375 -0.125q0.375 -0.125 0.640625 -0.375l0.53125 0l-0.015625 7.046875q0 1.09375 -0.078125 1.765625l1.34375 -0.078125l0 0.78125l-2.671875 0q-0.09375 -0.578125 -0.125 -1.125q-0.609375 0.625 -1.4375 1.03125q-0.8125 0.390625 -1.609375 0.390625zm7.044037 3.90625q0.53125 0 0.765625 -0.28125q0.234375 -0.265625 0.265625 -0.671875q0.046875 -0.390625 0.0625 -1.328125l0.046875 -9.015625q0 -0.78125 0.0625 -1.203125l-1.3125 0.0625l0 -0.78125q1.09375 0 1.5 -0.109375q0.421875 -0.125 0.671875 -0.390625l0.5625 0q0.078125 0.921875 0.078125 1.015625q0.5625 -0.515625 1.34375 -0.8125q0.78125 -0.3125 1.546875 -0.3125q1.09375 0 2.03125 0.578125q0.9375 0.5625 1.5 1.625q0.578125 1.046875 0.578125 2.421875q0 1.546875 -0.65625 2.75q-0.65625 1.203125 -1.75 1.875q-1.09375 0.671875 -2.359375 0.671875q-1.28125 0 -2.234375 -0.609375l0 3.09375q0 0.84375 -0.078125 1.265625l1.171875 -0.046875l0 0.75l-3.796875 0l0 -0.546875zm4.90625 -4.65625q0.875 0 1.515625 -0.53125q0.640625 -0.546875 1.0 -1.515625q0.359375 -0.96875 0.359375 -2.203125q0 -1.671875 -0.71875 -2.84375q-0.71875 -1.171875 -2.140625 -1.171875q-0.609375 0 -1.1875 0.3125q-0.578125 0.296875 -1.015625 0.734375q0.015625 0.140625 0.015625 1.140625l-0.015625 5.359375q0.953125 0.71875 2.1875 0.71875zm6.215912 -0.109375q0.53125 0 0.765625 -0.265625q0.234375 -0.265625 0.28125 -0.6875q0.046875 -0.421875 0.046875 -1.3125l0 -8.828125q0 -0.71875 0.0625 -1.21875l-1.328125 0.078125l0 -0.78125q1.109375 0 1.578125 -0.125q0.484375 -0.140625 0.75 -0.375l0.546875 0l0.015625 12.09375q0 0.734375 -0.09375 1.28125l1.171875 -0.0625l0 0.765625l-3.796875 0l0 -0.5625zm9.762009 0.859375q-1.28125 0 -2.3125 -0.609375q-1.03125 -0.609375 -1.640625 -1.734375q-0.59375 -1.125 -0.59375 -2.59375q0 -1.3125 0.59375 -2.453125q0.609375 -1.15625 1.671875 -1.84375q1.078125 -0.6875 2.4375 -0.6875q1.0625 0 1.921875 0.46875q0.859375 0.46875 1.359375 1.390625q0.5 0.921875 0.5 2.265625l-6.5625 0.109375q-0.015625 2.234375 0.734375 3.484375q0.765625 1.25 2.34375 1.25q0.859375 0 1.765625 -0.4375q0.90625 -0.453125 1.390625 -1.109375l0.453125 0.375q-0.71875 1.078125 -1.84375 1.609375q-1.125 0.515625 -2.21875 0.515625zm2.1875 -6.46875q0 -1.125 -0.5 -1.921875q-0.5 -0.8125 -1.515625 -0.8125q-2.3125 0 -2.734375 2.734375l4.75 0zm6.9241943 6.46875q-2.5625 0 -2.53125 -3.4375l0.03125 -5.40625l-1.4375 0.015625l0 -0.796875q0.890625 -0.015625 1.515625 -0.8125q0.625 -0.796875 0.921875 -1.796875l0.640625 0l0 2.609375l3.140625 0l0 0.734375l-3.140625 0.03125q-0.015625 2.859375 -0.03125 3.96875q0 1.09375 0 1.21875q0 1.328125 0.3125 1.96875q0.3125 0.640625 1.09375 0.640625q0.484375 0 0.953125 -0.296875q0.484375 -0.296875 0.84375 -0.828125l0.5 0.421875q-0.71875 1.078125 -1.4375 1.421875q-0.703125 0.34375 -1.375 0.34375z" fill-rule="nonzero"/><path fill="#6d9eeb" d="m59.03735 191.14003l0 0c0 -13.55925 10.99194 -24.551193 24.551182 -24.551193l0 0c6.5113754 0 12.756065 2.5866394 17.360306 7.1908875c4.6042404 4.604233 7.190872 10.848923 7.190872 17.360306l0 0c0 13.559235 -10.991936 24.551178 -24.551178 24.551178l0 0c-13.559242 0 -24.551182 -10.991943 -24.551182 -24.551178z" fill-rule="evenodd"/><path stroke="#3c78d8" stroke-width="1.0" stroke-linejoin="round" stroke-linecap="butt" d="m59.03735 191.14003l0 0c0 -13.55925 10.99194 -24.551193 24.551182 -24.551193l0 0c6.5113754 0 12.756065 2.5866394 17.360306 7.1908875c4.6042404 4.604233 7.190872 10.848923 7.190872 17.360306l0 0c0 13.559235 -10.991936 24.551178 -24.551178 24.551178l0 0c-13.559242 0 -24.551182 -10.991943 -24.551182 -24.551178z" fill-rule="evenodd"/><path fill="#76a5af" d="m136.11717 192.5773l0 0c0 -13.559235 10.991943 -24.551178 24.551178 -24.551178l0 0c6.511383 0 12.756073 2.5866394 17.360321 7.190872c4.604233 4.604248 7.190872 10.848938 7.190872 17.360306l0 0c0 13.55925 -10.991943 24.551193 -24.551193 24.551193l0 0c-13.559235 0 -24.551178 -10.991943 -24.551178 -24.551193z" fill-rule="evenodd"/><path stroke="#45818e" stroke-width="1.0" stroke-linejoin="round" stroke-linecap="butt" d="m136.11717 192.5773l0 0c0 -13.559235 10.991943 -24.551178 24.551178 -24.551178l0 0c6.511383 0 12.756073 2.5866394 17.360321 7.190872c4.604233 4.604248 7.190872 10.848938 7.190872 17.360306l0 0c0 13.55925 -10.991943 24.551193 -24.551193 24.551193l0 0c-13.559235 0 -24.551178 -10.991943 -24.551178 -24.551193z" fill-rule="evenodd"/><path fill="#d9ead3" d="m95.514404 111.83985l0 0c0 -13.559242 10.991936 -24.551186 24.551178 -24.551186l0 0c6.5113754 0 12.756073 2.5866394 17.360306 7.19088c4.604248 4.6042404 7.190872 10.848923 7.190872 17.360306l0 0c0 13.559242 -10.991928 24.551186 -24.551178 24.551186l0 0c-13.559242 0 -24.551178 -10.991943 -24.551178 -24.551186z" fill-rule="evenodd"/><path stroke="#b6d7a8" stroke-width="1.0" stroke-linejoin="round" stroke-linecap="butt" d="m95.514404 111.83985l0 0c0 -13.559242 10.991936 -24.551186 24.551178 -24.551186l0 0c6.5113754 0 12.756073 2.5866394 17.360306 7.19088c4.604248 4.6042404 7.190872 10.848923 7.190872 17.360306l0 0c0 13.559242 -10.991928 24.551186 -24.551178 24.551186l0 0c-13.559242 0 -24.551178 -10.991943 -24.551178 -24.551186z" fill-rule="evenodd"/><path fill="#ffe599" d="m17.774078 234.20467l209.95276 0l0 101.76378l-209.95276 0z" fill-rule="evenodd"/><path stroke="#f1c232" stroke-width="1.0" stroke-linejoin="round" stroke-linecap="butt" d="m17.774078 234.20467l209.95276 0l0 101.76378l-209.95276 0z" fill-rule="evenodd"/><path fill="#f6b26b" d="m36.091896 275.92786l0 0c0 -13.559235 10.991936 -24.551193 24.551178 -24.551193l0 0c6.511383 0 12.756065 2.5866394 17.360306 7.190872c4.6042404 4.604248 7.19088 10.848938 7.19088 17.360321l0 0c0 13.559235 -10.991943 24.551178 -24.551186 24.551178l0 0c-13.559242 0 -24.551178 -10.991943 -24.551178 -24.551178z" fill-rule="evenodd"/><path stroke="#e69138" stroke-width="1.0" stroke-linejoin="round" stroke-linecap="butt" d="m36.091896 275.92786l0 0c0 -13.559235 10.991936 -24.551193 24.551178 -24.551193l0 0c6.511383 0 12.756065 2.5866394 17.360306 7.190872c4.6042404 4.604248 7.19088 10.848938 7.19088 17.360321l0 0c0 13.559235 -10.991943 24.551178 -24.551186 24.551178l0 0c-13.559242 0 -24.551178 -10.991943 -24.551178 -24.551178z" fill-rule="evenodd"/><path fill="#c27ba0" d="m160.30746 275.92786l0 0c0 -13.559235 10.991943 -24.551193 24.551178 -24.551193l0 0c6.511383 0 12.756073 2.5866394 17.360306 7.190872c4.604248 4.604248 7.190872 10.848938 7.190872 17.360321l0 0c0 13.559235 -10.991928 24.551178 -24.551178 24.551178l0 0c-13.559235 0 -24.551178 -10.991943 -24.551178 -24.551178z" fill-rule="evenodd"/><path stroke="#a64d79" stroke-width="1.0" stroke-linejoin="round" stroke-linecap="butt" d="m160.30746 275.92786l0 0c0 -13.559235 10.991943 -24.551193 24.551178 -24.551193l0 0c6.511383 0 12.756073 2.5866394 17.360306 7.190872c4.604248 4.604248 7.190872 10.848938 7.190872 17.360321l0 0c0 13.559235 -10.991928 24.551178 -24.551178 24.551178l0 0c-13.559235 0 -24.551178 -10.991943 -24.551178 -24.551178z" fill-rule="evenodd"/><path fill="#000000" fill-opacity="0.0" d="m140.1103 299.7257l94.866135 0l0 36.22049l-94.866135 0z" fill-rule="evenodd"/><path fill="#000000" d="m150.14156 326.03635q0.640625 -0.03125 0.921875 -0.296875q0.28125 -0.28125 0.3125 -0.65625q0.046875 -0.390625 0.046875 -1.34375l0 -8.0625q0 -0.78125 0.0625 -1.34375l-1.34375 0.078125l0 -0.828125q1.9375 -0.03125 2.921875 -0.03125q0.890625 0 1.34375 0.015625q2.625 0.03125 3.84375 0.890625q1.234375 0.84375 1.234375 2.453125q0.015625 1.28125 -0.765625 2.3125q-0.78125 1.015625 -2.71875 1.421875q0.3125 0.234375 0.5625 0.578125q0.265625 0.328125 0.71875 1.03125l1.265625 2.0q0.40625 0.65625 0.671875 1.0q0.28125 0.34375 0.65625 0.5625q0.390625 0.21875 0.953125 0.21875l0 0.609375l-2.359375 0q-0.5 -0.421875 -0.84375 -0.875q-0.34375 -0.46875 -0.8125 -1.203125l-1.25 -1.984375l-0.234375 -0.390625q-0.3125 -0.515625 -0.53125 -0.828125q-0.21875 -0.3125 -0.484375 -0.5625q-0.171875 0.015625 -0.515625 0.015625q-0.515625 0 -0.75 -0.015625l0 3.625q0 0.984375 -0.0625 1.46875l1.34375 -0.078125l0 0.828125l-4.1875 0l0 -0.609375zm3.71875 -5.921875q3.8125 0 3.8125 -3.0q0 -1.421875 -0.828125 -2.125q-0.8125 -0.71875 -2.515625 -0.71875q-0.640625 0 -0.921875 0.265625q-0.28125 0.265625 -0.328125 0.640625q-0.03125 0.375 -0.03125 1.3125l0 3.59375q0.5625 0.03125 0.8125 0.03125zm12.2942505 6.828125q-1.28125 0 -2.3125 -0.609375q-1.03125 -0.609375 -1.640625 -1.734375q-0.59375 -1.125 -0.59375 -2.59375q0 -1.3125 0.59375 -2.453125q0.609375 -1.15625 1.671875 -1.84375q1.078125 -0.6875 2.4375 -0.6875q1.0625 0 1.921875 0.46875q0.859375 0.46875 1.359375 1.390625q0.5 0.921875 0.5 2.265625l-6.5625 0.109375q-0.015625 2.234375 0.734375 3.484375q0.765625 1.25 2.34375 1.25q0.859375 0 1.765625 -0.4375q0.90625 -0.453125 1.390625 -1.109375l0.453125 0.375q-0.71875 1.078125 -1.84375 1.609375q-1.125 0.515625 -2.21875 0.515625zm2.1875 -6.46875q0 -1.125 -0.5 -1.921875q-0.5 -0.8125 -1.515625 -0.8125q-2.3125 0 -2.734375 2.734375l4.75 0zm6.0335693 6.46875q-1.359375 0 -2.078125 -0.609375q-0.71875 -0.625 -0.71875 -1.609375q0 -1.078125 0.859375 -1.828125q0.875 -0.75 2.1875 -1.109375q1.3125 -0.359375 2.640625 -0.34375l0 -1.15625q0 -1.21875 -0.359375 -1.890625q-0.359375 -0.6875 -1.515625 -0.6875q-0.578125 0 -1.109375 0.25q-0.515625 0.234375 -0.75 0.71875q0.234375 0.265625 0.234375 0.71875q0 0.265625 -0.203125 0.53125q-0.203125 0.25 -0.59375 0.25q-0.390625 0 -0.625 -0.25q-0.21875 -0.265625 -0.21875 -0.671875q0 -0.609375 0.46875 -1.125q0.484375 -0.515625 1.328125 -0.8125q0.859375 -0.296875 1.90625 -0.296875q1.5625 0 2.3125 0.828125q0.75 0.828125 0.71875 2.625l-0.015625 4.1875q0 0.609375 -0.078125 1.28125l1.328125 -0.078125l0 0.78125l-2.65625 0q-0.0625 -0.28125 -0.140625 -1.0625q-1.359375 1.359375 -2.921875 1.359375zm0.421875 -1.0625q0.71875 0 1.296875 -0.265625q0.578125 -0.28125 1.171875 -0.828125q-0.015625 -0.28125 -0.015625 -0.953125l0.015625 -1.765625q-1.53125 0.0625 -2.734375 0.640625q-1.1875 0.5625 -1.1875 1.734375q0 0.6875 0.40625 1.0625q0.421875 0.375 1.046875 0.375zm10.579758 1.0625q-1.15625 0 -2.078125 -0.578125q-0.90625 -0.578125 -1.4375 -1.640625q-0.515625 -1.0625 -0.515625 -2.484375q0 -1.484375 0.609375 -2.671875q0.625 -1.203125 1.71875 -1.875q1.09375 -0.671875 2.46875 -0.671875q0.578125 0 1.1875 0.15625q0.609375 0.15625 1.0 0.359375l0 -2.546875q0 -0.71875 0.046875 -1.21875l-1.3125 0.078125l0 -0.78125q1.09375 0 1.5625 -0.125q0.484375 -0.140625 0.75 -0.375l0.53125 0l0 12.09375q0 0.609375 -0.078125 1.28125l1.328125 -0.078125l0 0.78125l-2.671875 0q-0.09375 -0.5 -0.125 -0.96875q-0.546875 0.59375 -1.328125 0.9375q-0.765625 0.328125 -1.65625 0.328125zm0.671875 -0.90625q0.59375 0 1.21875 -0.34375q0.625 -0.359375 1.0625 -0.890625q-0.015625 -0.296875 -0.015625 -1.03125l0.015625 -5.375q-0.875 -0.65625 -2.078125 -0.65625q-1.34375 0 -2.171875 1.125q-0.8125 1.109375 -0.8125 2.9375q0 1.890625 0.71875 3.0625q0.734375 1.171875 2.0625 1.171875zm11.000183 0.90625q-1.28125 0 -2.3125 -0.609375q-1.03125 -0.609375 -1.640625 -1.734375q-0.59375 -1.125 -0.59375 -2.59375q0 -1.3125 0.59375 -2.453125q0.609375 -1.15625 1.671875 -1.84375q1.078125 -0.6875 2.4375 -0.6875q1.0625 0 1.921875 0.46875q0.859375 0.46875 1.359375 1.390625q0.5 0.921875 0.5 2.265625l-6.5625 0.109375q-0.015625 2.234375 0.734375 3.484375q0.765625 1.25 2.34375 1.25q0.859375 0 1.765625 -0.4375q0.90625 -0.453125 1.390625 -1.109375l0.453125 0.375q-0.71875 1.078125 -1.84375 1.609375q-1.125 0.515625 -2.21875 0.515625zm2.1875 -6.46875q0 -1.125 -0.5 -1.921875q-0.5 -0.8125 -1.515625 -0.8125q-2.3125 0 -2.734375 2.734375l4.75 0zm3.4241943 5.609375q0.53125 0 0.765625 -0.265625q0.234375 -0.265625 0.28125 -0.6875q0.046875 -0.421875 0.046875 -1.3125l0 -4.265625q0 -0.78125 0.078125 -1.203125l-1.328125 0.046875l0 -0.765625l0.578125 0q0.703125 0 1.015625 -0.109375q0.328125 -0.125 0.609375 -0.390625l0.546875 0q0.0625 0.734375 0.078125 1.84375q0.46875 -0.765625 1.328125 -1.359375q0.875 -0.59375 1.8125 -0.59375q0.5625 0 0.9375 0.296875q0.375 0.296875 0.375 0.875q0 0.296875 -0.234375 0.59375q-0.234375 0.296875 -0.671875 0.296875q-0.40625 0 -0.671875 -0.296875q-0.25 -0.3125 -0.203125 -0.734375q-0.703125 -0.03125 -1.421875 0.53125q-0.71875 0.5625 -1.21875 1.5l0.015625 4.578125q0 0.84375 -0.078125 1.28125l1.171875 -0.0625l0 0.765625l-3.8125 0l0 -0.5625zm11.8906555 0.859375q-0.875 0 -1.609375 -0.234375q-0.71875 -0.234375 -1.234375 -0.578125l0.0625 0.640625l-0.78125 0l-0.109375 -3.203125l0.578125 0q0.03125 0.765625 0.40625 1.359375q0.390625 0.59375 1.015625 0.953125q0.625 0.34375 1.34375 0.34375q0.796875 0 1.421875 -0.375q0.625 -0.390625 0.625 -1.109375q0 -0.515625 -0.3125 -0.875q-0.296875 -0.359375 -0.765625 -0.578125q-0.453125 -0.234375 -1.265625 -0.5625q-1.0 -0.375 -1.59375 -0.6875q-0.59375 -0.328125 -1.03125 -0.890625q-0.421875 -0.5625 -0.421875 -1.421875q0 -0.609375 0.296875 -1.21875q0.296875 -0.625 1.0 -1.046875q0.71875 -0.4375 1.890625 -0.4375q0.578125 0 1.1875 0.1875q0.609375 0.1875 1.125 0.609375l-0.03125 -0.703125l0.78125 0l0 3.265625l-0.59375 0q-0.0625 -1.078125 -0.671875 -1.875q-0.59375 -0.796875 -1.703125 -0.796875q-0.828125 0 -1.328125 0.421875q-0.5 0.421875 -0.5 1.0q0 0.53125 0.328125 0.90625q0.328125 0.375 0.8125 0.640625q0.484375 0.265625 1.3125 0.578125q0.96875 0.390625 1.5625 0.734375q0.59375 0.328125 1.015625 0.875q0.421875 0.546875 0.421875 1.34375q0 0.890625 -0.46875 1.515625q-0.453125 0.609375 -1.1875 0.921875q-0.734375 0.296875 -1.578125 0.296875z" fill-rule="nonzero"/><path fill="#d5a6bd" d="m99.5958 62.144356l9.708656 -38.834644l126.82678 0l-9.708664 38.834644z" fill-rule="evenodd"/><path stroke="#c27ba0" stroke-width="1.0" stroke-linejoin="round" stroke-linecap="butt" d="m99.5958 62.144356l9.708656 -38.834644l126.82678 0l-9.708664 38.834644z" fill-rule="evenodd"/><path fill="#000000" d="m139.21771 47.50641q-1.421875 -3.15625 -2.203125 -4.96875q-0.78125 -1.828125 -1.53125 -3.84375l-0.015625 0.828125q-0.171875 5.453125 -0.203125 7.796875q0 0.28125 -0.015625 0.40625q0 0.640625 -0.0625 1.171875l1.40625 -0.078125l0 0.828125l-3.5625 0l0 -0.609375q0.78125 -0.03125 1.015625 -0.4375q0.234375 -0.421875 0.265625 -1.28125l0.40625 -9.984375l-1.34375 0.0625l0 -0.8125l2.859375 0l2.53125 5.859375q1.390625 3.25 2.125 4.921875l0.046875 0q0.21875 -0.546875 0.953125 -2.40625q0.703125 -1.78125 1.625 -3.9375q1.0625 -2.5 1.828125 -4.4375l2.75 0l0 0.625q-0.671875 -0.03125 -0.984375 0.359375q-0.3125 0.375 -0.3125 1.296875l0.015625 0.375l0.484375 8.484375q0.03125 0.421875 0.03125 1.15625l1.359375 -0.0625l0 0.828125l-4.171875 0l0 -0.609375q0.734375 -0.03125 0.984375 -0.421875q0.265625 -0.40625 0.265625 -1.265625q0 -0.359375 -0.015625 -0.53125l-0.484375 -7.953125q-0.046875 0.09375 -0.109375 0.25q-0.0625 0.140625 -0.140625 0.34375l-4.1875 10.375l-0.5625 0l-1.046875 -2.328125zm14.860809 2.4375q-1.578125 0 -2.3125 -0.90625q-0.734375 -0.921875 -0.734375 -3.15625l0 -3.328125q0 -0.78125 0.0625 -1.203125l-1.28125 0.046875l0 -0.765625l0.578125 0q0.734375 0 1.09375 -0.125q0.375 -0.125 0.640625 -0.375l0.546875 0l0 5.6875q0 1.640625 0.453125 2.40625q0.453125 0.765625 1.515625 0.765625q0.6875 0 1.34375 -0.40625q0.671875 -0.40625 1.09375 -1.03125l0 -4.796875q0 -0.875 0.078125 -1.40625l-1.328125 0.046875l0 -0.765625l0.578125 0q0.71875 0 1.09375 -0.125q0.375 -0.125 0.640625 -0.375l0.53125 0l-0.015625 7.046875q0 1.09375 -0.078125 1.765625l1.34375 -0.078125l0 0.78125l-2.671875 0q-0.09375 -0.578125 -0.125 -1.125q-0.609375 0.625 -1.4375 1.03125q-0.8125 0.390625 -1.609375 0.390625zm10.715912 0q-2.5625 0 -2.53125 -3.4375l0.03125 -5.40625l-1.4375 0.015625l0 -0.796875q0.890625 -0.015625 1.515625 -0.8125q0.625 -0.796875 0.921875 -1.796875l0.640625 0l0 2.609375l3.140625 0l0 0.734375l-3.140625 0.03125q-0.015625 2.859375 -0.03125 3.96875q0 1.09375 0 1.21875q0 1.328125 0.3125 1.96875q0.3125 0.640625 1.09375 0.640625q0.484375 0 0.953125 -0.296875q0.484375 -0.296875 0.84375 -0.828125l0.5 0.421875q-0.71875 1.078125 -1.4375 1.421875q-0.703125 0.34375 -1.375 0.34375zm6.3293457 0q-1.359375 0 -2.078125 -0.609375q-0.71875 -0.625 -0.71875 -1.609375q0 -1.078125 0.859375 -1.828125q0.875 -0.75 2.1875 -1.109375q1.3125 -0.359375 2.640625 -0.34375l0 -1.15625q0 -1.21875 -0.359375 -1.890625q-0.359375 -0.6875 -1.515625 -0.6875q-0.578125 0 -1.109375 0.25q-0.515625 0.234375 -0.75 0.71875q0.234375 0.265625 0.234375 0.71875q0 0.265625 -0.203125 0.53125q-0.203125 0.25 -0.59375 0.25q-0.390625 0 -0.625 -0.25q-0.21875 -0.265625 -0.21875 -0.671875q0 -0.609375 0.46875 -1.125q0.484375 -0.515625 1.328125 -0.8125q0.859375 -0.296875 1.90625 -0.296875q1.5625 0 2.3125 0.828125q0.75 0.828125 0.71875 2.625l-0.015625 4.1875q0 0.609375 -0.078125 1.28125l1.328125 -0.078125l0 0.78125l-2.65625 0q-0.0625 -0.28125 -0.140625 -1.0625q-1.359375 1.359375 -2.921875 1.359375zm0.421875 -1.0625q0.71875 0 1.296875 -0.265625q0.578125 -0.28125 1.171875 -0.828125q-0.015625 -0.28125 -0.015625 -0.953125l0.015625 -1.765625q-1.53125 0.0625 -2.734375 0.640625q-1.1875 0.5625 -1.1875 1.734375q0 0.6875 0.40625 1.0625q0.421875 0.375 1.046875 0.375zm10.095383 1.0625q-2.5625 0 -2.53125 -3.4375l0.03125 -5.40625l-1.4375 0.015625l0 -0.796875q0.890625 -0.015625 1.515625 -0.8125q0.625 -0.796875 0.921875 -1.796875l0.640625 0l0 2.609375l3.140625 0l0 0.734375l-3.140625 0.03125q-0.015625 2.859375 -0.03125 3.96875q0 1.09375 0 1.21875q0 1.328125 0.3125 1.96875q0.3125 0.640625 1.09375 0.640625q0.484375 0 0.953125 -0.296875q0.484375 -0.296875 0.84375 -0.828125l0.5 0.421875q-0.71875 1.078125 -1.4375 1.421875q-0.703125 0.34375 -1.375 0.34375zm8.344971 0q-1.296875 0 -2.375 -0.609375q-1.0625 -0.609375 -1.6875 -1.6875q-0.625 -1.078125 -0.625 -2.4375q0 -1.453125 0.609375 -2.640625q0.625 -1.1875 1.6875 -1.859375q1.078125 -0.6875 2.390625 -0.6875q1.28125 0 2.359375 0.625q1.09375 0.625 1.71875 1.703125q0.625 1.078125 0.625 2.40625q0 1.421875 -0.625 2.625q-0.625 1.1875 -1.703125 1.875q-1.078125 0.6875 -2.375 0.6875zm0.140625 -0.75q1.359375 0 2.0 -1.109375q0.65625 -1.125 0.65625 -2.78125q0 -1.890625 -0.703125 -3.234375q-0.703125 -1.34375 -2.09375 -1.34375q-1.390625 0 -2.09375 1.140625q-0.6875 1.140625 -0.6875 2.796875q0 1.203125 0.328125 2.234375q0.328125 1.03125 0.984375 1.671875q0.65625 0.625 1.609375 0.625zm6.148285 -0.109375q0.53125 0 0.765625 -0.265625q0.234375 -0.265625 0.28125 -0.6875q0.046875 -0.421875 0.046875 -1.3125l0 -4.265625q0 -0.78125 0.078125 -1.203125l-1.328125 0.046875l0 -0.765625l0.578125 0q0.703125 0 1.015625 -0.109375q0.328125 -0.125 0.609375 -0.390625l0.546875 0q0.0625 0.734375 0.078125 1.84375q0.46875 -0.765625 1.328125 -1.359375q0.875 -0.59375 1.8125 -0.59375q0.5625 0 0.9375 0.296875q0.375 0.296875 0.375 0.875q0 0.296875 -0.234375 0.59375q-0.234375 0.296875 -0.671875 0.296875q-0.40625 0 -0.671875 -0.296875q-0.25 -0.3125 -0.203125 -0.734375q-0.703125 -0.03125 -1.421875 0.53125q-0.71875 0.5625 -1.21875 1.5l0.015625 4.578125q0 0.84375 -0.078125 1.28125l1.171875 -0.0625l0 0.765625l-3.8125 0l0 -0.5625z" fill-rule="nonzero"/><path fill="#000000" fill-opacity="0.0" d="m459.62598 305.91864c0 12.4999695 -43.34189 24.721222 -76.31082 24.999939c-32.968933 0.27874756 -55.56488 -11.38501 -76.31082 -22.909424c-20.745972 -11.524384 -39.641937 -22.909424 -79.28386 -22.909424" fill-rule="evenodd"/><path stroke="#000000" stroke-width="1.0" stroke-linejoin="round" stroke-linecap="butt" stroke-dasharray="4.0,3.0" d="m457.03058 311.32825l-0.09387207 0.10021973c-0.091278076 0.09500122 -0.18469238 0.18988037 -0.28030396 0.28463745c-0.38223267 0.3789978 -0.79867554 0.7559204 -1.2475586 1.1304932c-0.89782715 0.7490845 -1.9255676 1.4885254 -3.0701904 2.2155151c-4.57843 2.907898 -11.026428 5.61615 -18.50476 7.9424744c-14.956543 4.6526184 -34.03427 7.7776184 -50.518738 7.916992c-32.968903 0.27874756 -55.56488 -11.38501 -76.31082 -22.909424c-20.745972 -11.524384 -39.641937 -22.909424 -79.28386 -22.909424" fill-rule="evenodd"/><path fill="#000000" stroke="#000000" stroke-width="1.0" stroke-linecap="butt" d="m458.5198 312.04272l0.47381592 -4.8060303l-3.45224 3.3770752z" fill-rule="evenodd"/><path fill="#000000" fill-opacity="0.0" d="m231.2769 42.727036c114.45903 0 199.65031 51.53543 228.91805 103.07086c29.2677 51.53543 2.611847 103.07086 5.223694 103.07086" fill-rule="evenodd"/><path stroke="#000000" stroke-width="1.0" stroke-linejoin="round" stroke-linecap="butt" stroke-dasharray="4.0,3.0" d="m237.27672 42.77497l0.67308044 0.010658264c0.44259644 0.007785797 0.88475037 0.016342163 1.3264313 0.025669098c0.8833771 0.018650055 1.7649231 0.040374756 2.644638 0.065143585c3.5188904 0.09908676 7.0083466 0.24692154 10.467606 0.44194412c6.9185333 0.39003372 13.716232 0.9687996 20.386581 1.7237167c13.340698 1.5098267 26.172028 3.7242393 38.441925 6.5425835c24.539795 5.636688 46.83383 13.689102 66.46567 23.35199c39.26367 19.32579 67.87842 45.093506 82.51227 70.86122c29.26773 51.53543 2.6118774 103.07086 5.2237244 103.07086" fill-rule="evenodd"/><path fill="#000000" stroke="#000000" stroke-width="1.0" stroke-linecap="butt" d="m237.2899 41.12329l-4.5511475 1.6154213l4.524765 1.6879387z" fill-rule="evenodd"/><path fill="#000000" fill-opacity="0.0" d="m137.42589 129.20015c0 11.504181 5.81102 18.154037 11.622055 23.008362c5.81102 4.8543396 11.62204 7.913147 11.62204 15.826294" fill-rule="evenodd"/><path stroke="#000000" stroke-width="1.0" stroke-linejoin="round" stroke-linecap="butt" d="m137.42589 129.20015c0 11.504181 5.81102 18.154037 11.622055 23.008362c5.81102 4.8543396 11.62204 7.913147 11.62204 15.826294" fill-rule="evenodd"/><path fill="#000000" fill-opacity="0.0" d="m102.70528 129.20015c0 11.144913 -4.7795258 17.616577 -9.559059 22.28981c-4.7795258 4.673233 -9.5590515 7.5480194 -9.5590515 15.096024" fill-rule="evenodd"/><path stroke="#000000" stroke-width="1.0" stroke-linejoin="round" stroke-linecap="butt" d="m102.70528 129.20015c0 11.144913 -4.7795258 17.616577 -9.559059 22.28981c-4.7795258 4.673233 -9.5590515 7.5480194 -9.5590515 15.096024" fill-rule="evenodd"/><path fill="#000000" fill-opacity="0.0" d="m82.973785 215.69164c0 8.921249 -5.5826797 13.381882 -11.1653595 17.842514c-5.582672 4.4606323 -11.165352 8.921265 -11.165352 17.842514" fill-rule="evenodd"/><path stroke="#000000" stroke-width="1.0" stroke-linejoin="round" stroke-linecap="butt" d="m82.973785 215.69164c0 8.921249 -5.5826797 13.381882 -11.1653595 17.842514c-5.582672 4.4606323 -11.165352 8.921265 -11.165352 17.842514" fill-rule="evenodd"/><path fill="#000000" fill-opacity="0.0" d="m160.66835 217.1285c0 8.561966 6.0472565 12.844391 12.094498 17.123917c6.047241 4.279541 12.094482 8.556152 12.094482 17.112305" fill-rule="evenodd"/><path stroke="#000000" stroke-width="1.0" stroke-linejoin="round" stroke-linecap="butt" d="m160.66835 217.1285c0 8.561966 6.0472565 12.844391 12.094498 17.123917c6.047241 4.279541 12.094482 8.556152 12.094482 17.112305" fill-rule="evenodd"/><path fill="#000000" fill-opacity="0.0" d="m163.00919 62.144356c0 6.2861023 -10.732285 9.430473 -21.46457 12.572212c-10.732285 3.1417313 -21.464561 6.2808228 -21.464561 12.5616455" fill-rule="evenodd"/><path stroke="#000000" stroke-width="1.0" stroke-linejoin="round" stroke-linecap="butt" d="m163.00919 62.144356c0 6.2861023 -10.732285 9.430481 -21.46457 12.572212c-5.3661346 1.5708618 -10.732285 3.1410675 -14.756889 5.1036606c-1.0061493 0.490654 -1.9284515 1.0058289 -2.7459564 1.5516586c-0.20436859 0.13646698 -0.40219116 0.2748413 -0.59313965 0.4152298c-0.09548187 0.07019043 -0.18923187 0.14089203 -0.2812271 0.21209717l-0.09711456 0.07722473" fill-rule="evenodd"/><path fill="#000000" stroke="#000000" stroke-width="1.0" stroke-linecap="butt" d="m121.6383 81.25326l-0.82967377 4.7575455l3.693657 -3.1111908z" fill-rule="evenodd"/><path fill="#000000" fill-opacity="0.0" d="m386.28085 281.36746c-13.716553 0 -27.433075 -45.039383 -27.433075 -90.07875" fill-rule="evenodd"/><path stroke="#000000" stroke-width="1.0" stroke-linejoin="round" stroke-linecap="butt" stroke-dasharray="8.0,3.0" d="m380.761 279.0156l-0.22866821 -0.19491577c-0.21011353 -0.18399048 -0.41970825 -0.37747192 -0.6287842 -0.5802002c-0.41818237 -0.40545654 -0.83425903 -0.848053 -1.2478027 -1.3263855c-0.82714844 -0.9566345 -1.6442566 -2.056244 -2.4479675 -3.2877808c-3.2148132 -4.926178 -6.2153015 -11.963593 -8.78717 -20.408463c-2.5718384 -8.444885 -4.7150574 -18.297241 -6.2153015 -28.853348c-0.7501221 -5.2780457 -1.3394775 -10.73204 -1.741333 -16.273987c-0.20095825 -2.7709808 -0.35498047 -5.5639343 -0.45880127 -8.367905c-0.025939941 -0.701004 -0.048736572 -1.4026947 -0.06838989 -2.1048737l-0.008453369 -0.32955933" fill-rule="evenodd"/><path fill="#000000" stroke="#000000" stroke-width="1.0" stroke-linecap="butt" d="m380.11356 280.53516l4.822357 0.25927734l-3.5274963 -3.2983704z" fill-rule="evenodd"/><path fill="#000000" stroke="#000000" stroke-width="1.0" stroke-linecap="butt" d="m360.5799 197.26599l-1.7124939 -4.515503l-1.5906677 4.55986z" fill-rule="evenodd"/><path fill="#000000" fill-opacity="0.0" d="m290.57086 160.7021c-12.121735 0 -18.184418 4.118103 -24.2435 8.236221c-6.0590515 4.118103 -12.114456 8.236221 -24.228943 8.236221" fill-rule="evenodd"/><path stroke="#000000" stroke-width="1.0" stroke-linejoin="round" stroke-linecap="butt" stroke-dasharray="8.0,3.0" d="m284.5827 161.07858l-0.23120117 0.030700684c-0.62890625 0.08747864 -1.2385559 0.1880188 -1.8304749 0.3006134c-2.3676758 0.4504242 -4.451294 1.0938721 -6.3454285 1.8660278c-3.788269 1.544281 -6.818695 3.6033478 -9.848236 5.6623993c-3.0295105 2.0590515 -6.058136 4.118103 -9.843689 5.6623993c-1.8927765 0.7721405 -3.9747772 1.4156036 -6.3407288 1.8660126c-0.5914917 0.11262512 -1.2007294 0.21315002 -1.8291931 0.3006134l-0.22717285 0.030197144" fill-rule="evenodd"/><path fill="#000000" stroke="#000000" stroke-width="1.0" stroke-linecap="butt" d="m284.68634 162.72705l4.4255066 -1.9332275l-4.6328125 -1.3637238z" fill-rule="evenodd"/><path fill="#000000" stroke="#000000" stroke-width="1.0" stroke-linecap="butt" d="m247.98279 175.14908l-4.425354 1.933609l4.6329193 1.363327z" fill-rule="evenodd"/><path fill="#000000" fill-opacity="0.0" d="m358.8386 130.10367c0 -43.685036 -63.77954 -87.37007 -127.55907 -87.37007" fill-rule="evenodd"/><path stroke="#000000" stroke-width="1.0" stroke-linejoin="round" stroke-linecap="butt" stroke-dasharray="8.0,3.0" d="m358.4442 124.116646l-0.019470215 -0.15168c-0.09124756 -0.6810837 -0.19732666 -1.3616638 -0.31799316 -2.0415726c-0.48272705 -2.7196503 -1.1989746 -5.4286346 -2.1332397 -8.116287c-1.8685608 -5.375305 -4.6091003 -10.665291 -8.097046 -15.78463c-6.9758606 -10.238686 -16.941437 -19.794785 -28.900085 -27.985733c-11.958649 -8.190941 -25.91043 -15.016731 -40.858765 -19.79478c-7.4741516 -2.3890266 -15.197449 -4.266117 -23.045334 -5.545952c-3.9239502 -0.6399193 -7.879013 -1.1305237 -11.849655 -1.4611435c-0.9926758 -0.08265686 -1.9862976 -0.1553154 -2.980667 -0.21780777c-0.49719238 -0.031246185 -0.99453735 -0.059951782 -1.4920654 -0.0860939l-1.4717255 -0.06970978" fill-rule="evenodd"/><path fill="#000000" stroke="#000000" stroke-width="1.0" stroke-linecap="butt" d="m356.79605 124.22521l1.9464417 4.419716l1.349884 -4.636841z" fill-rule="evenodd"/><path fill="#000000" stroke="#000000" stroke-width="1.0" stroke-linecap="butt" d="m237.31331 41.209896l-4.5722046 1.554802l4.5019226 1.7479134z" fill-rule="evenodd"/><path fill="#000000" fill-opacity="0.0" d="m358.8386 191.30052c0 46.44095 -63.984253 92.88188 -127.96852 92.88188" fill-rule="evenodd"/><path stroke="#000000" stroke-width="1.0" stroke-linejoin="round" stroke-linecap="butt" stroke-dasharray="8.0,3.0" d="m358.8386 191.30052c0 46.44095 -63.984253 92.88188 -127.96852 92.88188" fill-rule="evenodd"/><path fill="#000000" fill-opacity="0.0" d="m277.06476 285.09924l90.26773 44.629944l-16.031525 32.472412l-90.2677 -44.629913z" fill-rule="evenodd"/><path fill="#000000" d="m283.33292 310.69894l-0.0069274902 0.014007568q-0.26889038 -0.69070435 -0.5289612 -1.0110168q-0.24606323 -0.31341553 -0.68026733 -0.5280762q-0.6022644 -0.29779053 -1.2866821 -0.25271606q-0.67752075 0.031066895 -1.3180237 0.48135376q-0.63357544 0.43624878 -1.0900879 1.3609314l-2.0059204 4.06308l-1.2185974 -0.602478l3.7835999 -7.663788l1.2605896 0.6232605l-0.7406311 1.3942871q0.6956482 -0.59729004 1.5614624 -0.6921387q0.8658142 -0.09484863 1.6502075 0.29296875q1.2325745 0.6094055 1.6159363 1.8447876l-0.995697 0.6755371zm-0.0069274902 0.014007568q0.06362915 0.1534729 0.014526367 0.11178589q-0.049102783 -0.04171753 -0.084198 -0.07650757l0.06967163 -0.03527832zm-0.20974731 -0.033966064q0.027679443 -0.05606079 0.06277466 -0.021270752q0.056030273 0.027709961 0.077301025 0.09051514l-0.06951904 0.07022095l-0.07748413 -0.12545776l0.0069274902 -0.014007568zm2.9302673 9.100708q-1.7088013 -0.84484863 -2.2054443 -2.380249q-0.49661255 -1.5353699 0.43719482 -3.4268188q0.6225281 -1.2609253 1.5343323 -1.9430847q0.9118347 -0.6821594 1.9453735 -0.76379395q1.0335388 -0.08163452 2.0140076 0.4031067q1.3866577 0.6856079 1.7845459 2.0327148q0.41186523 1.354065 -0.46658325 3.1333923q-0.089904785 0.18215942 -0.3046875 0.54660034l-5.43454 -2.6869507q-0.6216736 1.4356995 -0.2670288 2.5174255q0.36157227 1.0677185 1.4681091 1.6147766q1.2045593 0.59558105 2.3968506 0.121795654l0.35412598 0.9768982q-1.5474548 0.69906616 -3.256256 -0.14581299zm4.011627 -3.925476q0.5325928 -1.0788269 0.29067993 -1.9653625q-0.22097778 -0.89364624 -1.1174011 -1.336853q-0.8263855 -0.40856934 -1.7471924 -0.13174438q-0.8998718 0.26971436 -1.6280518 1.3564148l4.2019653 2.0775452zm7.8167114 -0.16171265q1.6387634 0.8102417 2.071228 2.0873108q0.44647217 1.2839966 -0.563385 3.3295288l-2.0059204 4.06308l-1.3026123 -0.64404297l0.58102417 -1.1768799q-1.3712769 1.0127869 -3.2761536 0.07095337q-1.2745972 -0.630188 -1.7053528 -1.5578003q-0.4307251 -0.9276123 0.039611816 -1.88031q0.40118408 -0.8126221 1.2168579 -1.158844q0.8156738 -0.34622192 1.8431702 -0.23913574q1.0415039 0.11404419 2.0920105 0.63342285q0.9524231 0.47091675 1.6743774 0.9498596q0.53829956 -1.3374329 0.2199707 -2.1397705q-0.31143188 -0.8163147 -1.4599609 -1.3841858q-0.5602722 -0.27700806 -1.203186 -0.315979q-0.6220093 -0.046081543 -1.2637024 0.15957642l-0.20785522 -1.0614319q1.5971069 -0.55252075 3.249878 0.26464844zm-3.927246 6.8606567q1.246582 0.616333 2.3136597 0.25497437q1.0740356 -0.3753662 1.8219299 -1.7137756q-0.6941223 -0.50006104 -1.5625305 -0.92941284q-1.2605896 -0.6232605 -2.2104187 -0.5699768q-0.9498596 0.05328369 -1.3717957 0.90792847q-0.6156311 1.2469482 1.0091553 2.0502625zm8.178436 5.176544q-0.8123779 -0.40164185 -1.3124695 -1.2241211q-0.48608398 -0.81552124 -0.48468018 -1.947815q0.008300781 -1.1463013 0.6515808 -2.4492798q0.6571045 -1.3309937 1.5550842 -1.9851379q0.9120178 -0.6472168 1.8478699 -0.707428q0.9567566 -0.06729126 1.7691345 0.3343506q0.7703552 0.3808899 1.1717224 1.0150757q0.40133667 0.6341858 0.40512085 1.4030151l2.2687683 -4.595459l1.2745972 0.6301575l-0.05532837 0.112091064q-0.15338135 0.06362915 -0.23672485 0.16183472q-0.083343506 0.098236084 -0.22860718 0.39245605l-4.523529 9.197876q-0.20059204 0.40631104 -0.3039856 0.68637085q-0.09649658 0.26602173 -0.115875244 0.5876465l-1.1905518 -0.58865356q0.019378662 -0.32159424 0.11584473 -0.5876465q0.10342407 -0.2800293 0.3040161 -0.68634033q-0.6823425 0.4644165 -1.4364624 0.5447693q-0.7471924 0.066345215 -1.4755249 -0.2937622zm0.71484375 -0.9538269q1.036499 0.5124512 1.9139099 -0.06472778q0.8983154 -0.5842285 1.5623474 -1.9292603q0.6709595 -1.3590088 0.5398865 -2.434784q-0.11013794 -1.0828552 -1.1746521 -1.6091614q-0.9944458 -0.4916687 -1.9142151 -0.0051879883q-0.89886475 0.47940063 -1.5352173 1.7683716q-0.72628784 1.4711304 -0.59487915 2.6167908q0.13833618 1.1316528 1.2028198 1.657959zm10.776794 0.83114624q1.228241 1.1476135 1.5606079 1.9568787q0.33926392 0.79522705 -0.061920166 1.6078491q-0.51187134 1.0367737 -1.6631775 1.3216248q-1.1303711 0.2778015 -2.671112 -0.48397827q-1.9468994 -0.96258545 -2.654663 -2.8115234l1.232605 -0.8024597l0.020904541 -0.007080078l0.0071105957 0.020935059q0.18621826 0.92874146 0.5664673 1.5350647q0.40118408 0.59924316 1.3536072 1.0701599q0.9104309 0.45013428 1.5877686 0.38412476q0.67733765 -0.06600952 0.9609375 -0.6404419q0.23516846 -0.4763794 -0.025939941 -1.0063782q-0.2611084 -0.5299988 -1.1806946 -1.4204102q-2.4701538 -2.2322693 -1.7023621 -3.7874146q0.44265747 -0.896698 1.4269409 -1.0549927q0.98428345 -0.15826416 2.3428955 0.51345825q1.036499 0.5124512 1.5915527 1.1529236q0.5690918 0.6473999 0.85302734 1.554718l-1.1013489 0.50131226l-0.020904541 0.007080078q-0.08734131 -0.7055054 -0.5794678 -1.3323059q-0.49212646 -0.62677 -1.1644287 -0.959198q-0.71435547 -0.35317993 -1.3010559 -0.3294983q-0.58673096 0.023651123 -0.80807495 0.47198486q-0.20751953 0.4203186 0.08178711 0.999115q0.3032837 0.5857239 1.348938 1.5384521zm2.2263794 -0.450531q0.041503906 -0.08407593 0.112213135 0.09033203l-0.0836792 0.02835083l-0.028533936 -0.11868286zm0.19592285 0.0619812q0.0074157715 0.09085083 -0.0134887695 0.09793091q-0.0069274902 0.014007568 -0.042022705 -0.02078247q-0.021118164 -0.027862549 -0.028198242 -0.048797607l0.08370972 -0.02835083zm-6.44928 1.2038574q-0.034606934 0.07003784 -0.15408325 -0.076171875l0.09753418 -0.056365967l0.063446045 0.11853027l-0.0068969727 0.014007568zm-0.20977783 -0.033996582q-0.014526367 -0.11175537 -5.187988E-4 -0.10482788q0.028015137 0.0138549805 0.05621338 0.06265259l-0.05569458 0.042175293z" fill-rule="nonzero"/><path fill="#000000" fill-opacity="0.0" d="m436.88287 71.83084l71.055145 71.37007l-25.606323 25.606308l-71.055115 -71.37008z" fill-rule="evenodd"/><path fill="#000000" d="m430.43936 91.42209l0.82681274 0.8304672l-3.8691711 5.8358154l5.3010254 -3.2460098l0.5732727 0.5757904l-2.9749146 5.538162q2.8386536 -2.087349 3.7002563 -2.772171q0.86157227 -0.68481445 1.4802856 -1.3035355l0.19888306 -0.19887543l0.8819275 0.88584137q-3.457306 2.661827 -7.035736 5.0470047l-0.9039612 -0.9079819l2.7977295 -5.0074463l-4.9474487 2.8482208l-0.8598633 -0.86369324l4.830902 -7.261589zm10.723663 13.29583l-0.011047363 0.011047363q-0.032287598 -0.7411041 -0.175354 -1.1283951q-0.13201904 -0.37620544 -0.47375488 -0.71946716q-0.47402954 -0.47614288 -1.1360168 -0.65384674q-0.65093994 -0.18875122 -1.4016418 0.0316391q-0.73968506 0.20933533 -1.4688721 0.9385452l-3.2041016 3.2040787l-0.9590759 -0.96334076l6.0435486 -6.0435715l0.9921875 0.9965668l-1.1489868 1.0826874q0.8501587 -0.34194946 1.6997681 -0.15297699q0.84957886 0.18897247 1.466919 0.80905914q0.9701233 0.97441864 0.9355774 2.2684937l-1.1591492 0.3194809zm-0.011047363 0.011047363q0.01083374 0.16592407 -0.022216797 0.110580444q-0.03302002 -0.055336 -0.05505371 -0.099601746l0.07727051 -0.010978699zm-0.18753052 -0.09975433q0.04421997 -0.044197083 0.066223145 7.6293945E-5q0.0440979 0.044288635 0.044036865 0.11065674l-0.08834839 0.044143677l-0.032958984 -0.14382935l0.011047363 -0.011047363zm-2.2924194 7.1537857l0.7623596 -0.76234436l1.5433655 1.550209l4.496765 -4.496765l-1.4551697 -1.4616318l0.77337646 -0.77339935l2.4032593 2.4139023l-5.270172 5.2701645l1.4110718 1.4173431l-0.7623291 0.762352l-3.9025269 -3.9198303zm9.2543335 -5.321068q-0.27560425 -0.27682495 -0.27514648 -0.6750107q4.272461E-4 -0.39818573 0.27664185 -0.6744003q0.28726196 -0.28726196 0.67355347 -0.29789734q0.39730835 4.348755E-4 0.68392944 0.2883377q0.27560425 0.27681732 0.26409912 0.68605804q0.0105896 0.40925598 -0.265625 0.6854706q-0.2762146 0.2762146 -0.6845398 0.26470184q-0.39730835 -4.348755E-4 -0.6729126 -0.27725983zm2.4103699 15.930176q-1.5117188 -0.23394775 -2.5480042 -1.2748032q-1.0031738 -1.007637 -0.82547 -2.025032q0.19976807 -1.0173721 1.5808411 -2.3984451q0.22097778 -0.22097015 0.7954712 -0.7512512l2.098938 -1.855896l-1.322876 -1.3287506l0.78445435 -0.7844467l1.3779907 1.3841171l1.6902466 -1.5134583l1.2350769 0.88622284l0.14334106 0.12182617l-0.0663147 0.08841705q-0.22076416 0.04399872 -0.3753357 0.08807373q-0.1324768 0.04409027 -0.3423767 0.23189545l-1.3365479 1.0492935l1.9953613 2.0042038l-0.78445435 0.78445435l-2.050476 -2.0595703l-2.1652527 1.9221802q-0.5523987 0.50818634 -0.71810913 0.6739197q-1.060669 1.0606613 -1.1937866 1.6799164q-0.13311768 0.61925507 0.40704346 1.1618271q0.3968811 0.39862823 0.87124634 0.5871887q0.48538208 0.1775055 1.2136536 0.28891754l-0.46466064 1.0391998zm3.6364136 5.0256042q-1.3449402 -1.3508987 -1.3210754 -2.965744q0.023864746 -1.6148453 1.5154114 -3.1063995q0.99438477 -0.99437714 2.0763245 -1.3471222q1.0819702 -0.3527527 2.0859985 -0.09724426q1.0040283 0.25550842 1.7756958 1.0306091q1.0914001 1.0962219 1.0346375 2.5008774q-0.045684814 1.4157333 -1.4488525 2.818901q-0.14364624 0.14363098 -0.46401978 0.4197998l-4.2773438 -4.2963104q-1.0497131 1.1602249 -1.0620117 2.299469q-0.0012512207 1.1281967 0.8696594 2.0029602q0.9480591 0.95227814 2.2283325 0.8873215l0.020935059 1.0397415q-1.6887512 0.16404724 -3.0336914 -1.1868591zm5.0573425 -2.4277802q0.8507385 -0.8507385 0.9069519 -1.7687225q0.07824707 -0.9179611 -0.6272888 -1.6266251q-0.65042114 -0.65330505 -1.6105347 -0.6875458q-0.9380493 -0.034217834 -1.9763489 0.7610092l3.3072205 3.3218842zm5.346527 5.503113q0.79296875 1.483017 0.8471985 2.3568726q0.06524658 0.8628235 -0.5755615 1.5036316q-0.81759644 0.81759644 -1.998352 0.7167511q-1.1587219 -0.10083008 -2.3713684 -1.3188629q-1.5323486 -1.5391388 -1.6074219 -3.5190887l1.4241028 -0.36343384l0.022064209 1.5258789E-5l-3.0517578E-5 0.022125244q-0.12243652 0.94003296 0.0423584 1.6370392q0.18682861 0.69703674 0.9364624 1.449997q0.71658325 0.7197418 1.3785706 0.87532043q0.6620178 0.15557861 1.1150208 -0.29740906q0.37564087 -0.37564087 0.29904175 -0.96195984q-0.07659912 -0.5863037 -0.6602783 -1.7262115q-1.6191101 -2.9107666 -0.3927307 -4.1371536q0.7071228 -0.70710754 1.6891785 -0.54011536q0.98202515 0.16699982 2.051361 1.2410736q0.8157959 0.8194046 1.1349792 1.6050644q0.3302002 0.7967377 0.30706787 1.7479401l-1.2030945 0.12034607l-0.022064209 -3.0517578E-5q0.14425659 -0.69667053 -0.119781494 -1.4490967q-0.2640381 -0.75242615 -0.7932129 -1.2839203q-0.56222534 -0.56472015 -1.1248779 -0.7312546q-0.5626831 -0.16653442 -0.91622925 0.18701935q-0.33145142 0.33145905 -0.24389648 0.9730835q0.09863281 0.6526947 0.78149414 1.8922577zm2.2510986 0.29006958q0.06628418 -0.06629944 0.07711792 0.12174988l-0.08828735 -1.0681152E-4l0.011169434 -0.12164307zm0.16540527 0.12184143q-0.022155762 0.08847046 -0.04425049 0.08843994q-0.011047363 0.011047363 -0.033050537 -0.033218384q-0.011016846 -0.033187866 -0.010986328 -0.05531311l0.08828735 9.1552734E-5zm-6.4883423 -0.93626404q-0.055236816 0.055236816 -0.12124634 -0.12181091l0.11038208 -0.022003174l0.021942139 0.13276672l-0.011077881 0.011047363zm-0.1875 -0.09976196q0.022216797 -0.110580444 0.033233643 -0.09950256q0.022033691 0.022140503 0.03302002 0.07745361l-0.06625366 0.02204895z" fill-rule="nonzero"/></g></svg>