<?xml version="1.0" standalone="yes"?>

<svg version="1.1" viewBox="0.0 0.0 677.1207349081365 510.6981627296588" fill="none" stroke="none" stroke-linecap="square" stroke-miterlimit="10" xmlns="http://www.w3.org/2000/svg" xmlns:xlink="http://www.w3.org/1999/xlink"><clipPath id="p.0"><path d="m0 0l677.1207 0l0 510.69815l-677.1207 0l0 -510.69815z" clip-rule="nonzero"></path></clipPath><g clip-path="url(#p.0)"><path fill="#000000" fill-opacity="0.0" d="m0 0l677.1207 0l0 510.69815l-677.1207 0z" fill-rule="evenodd"></path><path fill="#6aa84f" d="m270.29266 8.089239l136.53543 0l0 61.196846l-136.53543 0z" fill-rule="evenodd"></path><path stroke="#38761d" stroke-width="1.0" stroke-linejoin="round" stroke-linecap="butt" d="m270.29266 8.089239l136.53543 0l0 61.196846l-136.53543 0z" fill-rule="evenodd"></path><path fill="#000000" d="m300.84854 45.904537q-1.828125 0 -3.28125 -0.875q-1.4375 -0.875 -2.25 -2.390625q-0.8125 -1.515625 -0.8125 -3.359375q0 -1.828125 0.734375 -3.421875q0.734375 -1.609375 2.203125 -2.609375q1.46875 -1.0 3.53125 -1.0q2.0625 0 3.765625 1.140625l-0.09375 -1.015625l1.015625 0l0 4.328125l-0.671875 0q-0.1875 -1.734375 -1.234375 -2.703125q-1.03125 -0.984375 -2.640625 -0.984375q-1.328125 0 -2.421875 0.734375q-1.09375 0.734375 -1.734375 2.109375q-0.625 1.359375 -0.625 3.140625q0 1.71875 0.671875 3.078125q0.671875 1.34375 1.8125 2.109375q1.140625 0.75 2.515625 0.75q1.25 0 2.40625 -0.5625q1.15625 -0.5625 1.90625 -1.578125l0.484375 0.390625q-1.078125 1.5 -2.484375 2.109375q-1.40625 0.609375 -2.796875 0.609375zm11.290741 0q-1.296875 0 -2.375 -0.609375q-1.0625 -0.609375 -1.6875 -1.6875q-0.625 -1.078125 -0.625 -2.4375q0 -1.453125 0.609375 -2.640625q0.625 -1.1875 1.6875 -1.859375q1.078125 -0.6875 2.390625 -0.6875q1.28125 0 2.359375 0.625q1.09375 0.625 1.71875 1.703125q0.625 1.078125 0.625 2.40625q0 1.421875 -0.625 2.625q-0.625 1.1875 -1.703125 1.875q-1.078125 0.6875 -2.375 0.6875zm0.140625 -0.75q1.359375 0 2.0 -1.109375q0.65625 -1.125 0.65625 -2.78125q0 -1.890625 -0.703125 -3.234375q-0.703125 -1.34375 -2.09375 -1.34375q-1.390625 0 -2.09375 1.140625q-0.6875 1.140625 -0.6875 2.796875q0 1.203125 0.328125 2.234375q0.328125 1.03125 0.984375 1.671875q0.65625 0.625 1.609375 0.625zm6.148285 -0.109375q0.53125 0 0.765625 -0.265625q0.234375 -0.265625 0.265625 -0.671875q0.046875 -0.40625 0.0625 -1.328125l0.015625 -4.265625q0 -0.78125 0.078125 -1.203125l-1.328125 0.0625l0 -0.78125q1.109375 0 1.515625 -0.109375q0.40625 -0.125 0.6875 -0.390625l0.546875 0q0.03125 0.359375 0.0625 1.140625q0.640625 -0.5625 1.453125 -0.90625q0.8125 -0.34375 1.59375 -0.34375q1.625 0 2.359375 1.015625q0.75 1.015625 0.75 3.15625l0 3.46875q0 0.84375 -0.0625 1.28125l1.171875 -0.0625l0 0.765625l-3.8125 0l0 -0.5625q0.546875 0 0.78125 -0.265625q0.234375 -0.265625 0.28125 -0.6875q0.046875 -0.421875 0.046875 -1.3125l0 -2.625q-0.015625 -1.59375 -0.53125 -2.40625q-0.5 -0.8125 -1.578125 -0.8125q-0.671875 0 -1.34375 0.34375q-0.65625 0.328125 -1.078125 0.859375q0.015625 0.21875 0.015625 0.734375l-0.015625 4.75q0 0.84375 -0.078125 1.28125l1.171875 -0.0625l0 0.765625l-3.796875 0l0 -0.5625zm14.824341 0.859375q-2.5625 0 -2.53125 -3.4375l0.03125 -5.40625l-1.4375 0.015625l0 -0.796875q0.890625 -0.015625 1.515625 -0.8125q0.625 -0.796875 0.921875 -1.796875l0.640625 0l0 2.609375l3.140625 0l0 0.734375l-3.140625 0.03125q-0.015625 2.859375 -0.03125 3.96875q0 1.09375 0 1.21875q0 1.328125 0.3125 1.96875q0.3125 0.640625 1.09375 0.640625q0.484375 0 0.953125 -0.296875q0.484375 -0.296875 0.84375 -0.828125l0.5 0.421875q-0.71875 1.078125 -1.4375 1.421875q-0.703125 0.34375 -1.375 0.34375zm3.7199707 -0.859375q0.53125 0 0.765625 -0.265625q0.234375 -0.265625 0.28125 -0.6875q0.046875 -0.421875 0.046875 -1.3125l0 -4.265625q0 -0.78125 0.078125 -1.203125l-1.328125 0.046875l0 -0.765625l0.578125 0q0.703125 0 1.015625 -0.109375q0.328125 -0.125 0.609375 -0.390625l0.546875 0q0.0625 0.734375 0.078125 1.84375q0.46875 -0.765625 1.328125 -1.359375q0.875 -0.59375 1.8125 -0.59375q0.5625 0 0.9375 0.296875q0.375 0.296875 0.375 0.875q0 0.296875 -0.234375 0.59375q-0.234375 0.296875 -0.671875 0.296875q-0.40625 0 -0.671875 -0.296875q-0.25 -0.3125 -0.203125 -0.734375q-0.703125 -0.03125 -1.421875 0.53125q-0.71875 0.5625 -1.21875 1.5l0.015625 4.578125q0 0.84375 -0.078125 1.28125l1.171875 -0.0625l0 0.765625l-3.8125 0l0 -0.5625zm12.7031555 0.859375q-1.296875 0 -2.375 -0.609375q-1.0625 -0.609375 -1.6875 -1.6875q-0.625 -1.078125 -0.625 -2.4375q0 -1.453125 0.609375 -2.640625q0.625 -1.1875 1.6875 -1.859375q1.078125 -0.6875 2.390625 -0.6875q1.28125 0 2.359375 0.625q1.09375 0.625 1.71875 1.703125q0.625 1.078125 0.625 2.40625q0 1.421875 -0.625 2.625q-0.625 1.1875 -1.703125 1.875q-1.078125 0.6875 -2.375 0.6875zm0.140625 -0.75q1.359375 0 2.0 -1.109375q0.65625 -1.125 0.65625 -2.78125q0 -1.890625 -0.703125 -3.234375q-0.703125 -1.34375 -2.09375 -1.34375q-1.390625 0 -2.09375 1.140625q-0.6875 1.140625 -0.6875 2.796875q0 1.203125 0.328125 2.234375q0.328125 1.03125 0.984375 1.671875q0.65625 0.625 1.609375 0.625zm5.960785 -0.109375q0.53125 0 0.765625 -0.265625q0.234375 -0.265625 0.28125 -0.6875q0.046875 -0.421875 0.046875 -1.3125l0 -8.828125q0 -0.71875 0.0625 -1.21875l-1.328125 0.078125l0 -0.78125q1.109375 0 1.578125 -0.12499809q0.484375 -0.140625 0.75 -0.375l0.546875 0l0.015625 12.093748q0 0.734375 -0.09375 1.28125l1.171875 -0.0625l0 0.765625l-3.796875 0l0 -0.5625zm5.0744934 0q0.53125 0 0.765625 -0.265625q0.234375 -0.265625 0.28125 -0.6875q0.046875 -0.421875 0.046875 -1.3125l0 -8.828125q0 -0.71875 0.0625 -1.21875l-1.328125 0.078125l0 -0.78125q1.109375 0 1.578125 -0.12499809q0.484375 -0.140625 0.75 -0.375l0.546875 0l0.015625 12.093748q0 0.734375 -0.09375 1.28125l1.171875 -0.0625l0 0.765625l-3.796875 0l0 -0.5625zm9.762024 0.859375q-1.28125 0 -2.3125 -0.609375q-1.03125 -0.609375 -1.640625 -1.734375q-0.59375 -1.125 -0.59375 -2.59375q0 -1.3125 0.59375 -2.453125q0.609375 -1.15625 1.671875 -1.84375q1.078125 -0.6875 2.4375 -0.6875q1.0625 0 1.921875 0.46875q0.859375 0.46875 1.359375 1.390625q0.5 0.921875 0.5 2.265625l-6.5625 0.109375q-0.015625 2.234375 0.734375 3.484375q0.765625 1.25 2.34375 1.25q0.859375 0 1.765625 -0.4375q0.90625 -0.453125 1.390625 -1.109375l0.453125 0.375q-0.71875 1.078125 -1.84375 1.609375q-1.125 0.515625 -2.21875 0.515625zm2.1875 -6.46875q0 -1.125 -0.5 -1.921875q-0.5 -0.8125 -1.515625 -0.8125q-2.3125 0 -2.734375 2.734375l4.75 0zm3.4241943 5.609375q0.53125 0 0.765625 -0.265625q0.234375 -0.265625 0.28125 -0.6875q0.046875 -0.421875 0.046875 -1.3125l0 -4.265625q0 -0.78125 0.078125 -1.203125l-1.328125 0.046875l0 -0.765625l0.578125 0q0.703125 0 1.015625 -0.109375q0.328125 -0.125 0.609375 -0.390625l0.546875 0q0.0625 0.734375 0.078125 1.84375q0.46875 -0.765625 1.328125 -1.359375q0.875 -0.59375 1.8125 -0.59375q0.5625 0 0.9375 0.296875q0.375 0.296875 0.375 0.875q0 0.296875 -0.234375 0.59375q-0.234375 0.296875 -0.671875 0.296875q-0.40625 0 -0.671875 -0.296875q-0.25 -0.3125 -0.203125 -0.734375q-0.703125 -0.03125 -1.421875 0.53125q-0.71875 0.5625 -1.21875 1.5l0.015625 4.578125q0 0.84375 -0.078125 1.28125l1.171875 -0.0625l0 0.765625l-3.8125 0l0 -0.5625z" fill-rule="nonzero"></path><path fill="#ea9999" d="m17.282152 195.49606l0 0c0 -37.703217 30.564497 -68.267715 68.267715 -68.267715q34.133858 0 68.267715 0q0 34.13385 0 68.267715l0 0c0 37.703217 -30.564491 68.26773 -68.267715 68.26773l0 0c-37.703217 0 -68.267715 -30.564514 -68.267715 -68.26773z" fill-rule="evenodd"></path><path stroke="#e06666" stroke-width="1.0" stroke-linejoin="round" stroke-linecap="butt" d="m17.282152 195.49606l0 0c0 -37.703217 30.564497 -68.267715 68.267715 -68.267715q34.133858 0 68.267715 0q0 34.13385 0 68.267715l0 0c0 37.703217 -30.564491 68.26773 -68.267715 68.26773l0 0c-37.703217 0 -68.267715 -30.564514 -68.267715 -68.26773z" fill-rule="evenodd"></path><path fill="#000000" d="m51.667927 202.71294q-0.875 0 -1.765625 -0.25q-0.875 -0.234375 -1.546875 -0.703125l0.09375 0.8125l-0.984375 0l-0.109375 -3.984375l0.734375 0q0.09375 1.609375 1.09375 2.484375q1.015625 0.859375 2.5625 0.859375q1.140625 0 1.90625 -0.625q0.78125 -0.625 0.78125 -1.703125q0 -0.8125 -0.4375 -1.375q-0.4375 -0.5625 -1.09375 -0.9375q-0.640625 -0.390625 -1.734375 -0.90625q-1.25 -0.59375 -1.984375 -1.03125q-0.734375 -0.453125 -1.265625 -1.1875q-0.515625 -0.75 -0.515625 -1.828125q0 -0.75 0.34375 -1.484375q0.34375 -0.75 1.1875 -1.265625q0.84375 -0.53125 2.25 -0.53125q0.84375 0 1.6875 0.21875q0.84375 0.21875 1.5625 0.734375l-0.078125 -0.796875l0.953125 0l0 4.09375l-0.671875 0q-0.09375 -1.46875 -0.953125 -2.484375q-0.84375 -1.015625 -2.375 -1.015625q-1.109375 0 -1.75 0.625q-0.625 0.625 -0.625 1.5625q0 0.734375 0.421875 1.28125q0.421875 0.546875 1.03125 0.90625q0.625 0.34375 1.75 0.859375q1.265625 0.578125 2.03125 1.046875q0.78125 0.46875 1.3125 1.234375q0.546875 0.75 0.546875 1.84375q0 1.046875 -0.515625 1.859375q-0.5 0.796875 -1.5 1.25q-0.984375 0.4375 -2.34375 0.4375zm10.6405945 0q-1.296875 0 -2.375 -0.609375q-1.0625 -0.609375 -1.6875 -1.6875q-0.625 -1.078125 -0.625 -2.4375q0 -1.453125 0.609375 -2.640625q0.625 -1.1875 1.6875 -1.859375q1.078125 -0.6875 2.390625 -0.6875q1.28125 0 2.3593788 0.625q1.09375 0.625 1.71875 1.703125q0.625 1.078125 0.625 2.40625q0 1.421875 -0.625 2.625q-0.625 1.1875 -1.703125 1.875q-1.0781288 0.6875 -2.3750038 0.6875zm0.140625 -0.75q1.359375 0 2.0000038 -1.109375q0.65625 -1.125 0.65625 -2.78125q0 -1.890625 -0.703125 -3.234375q-0.7031288 -1.34375 -2.0937538 -1.34375q-1.390625 0 -2.09375 1.140625q-0.6875 1.140625 -0.6875 2.796875q0 1.203125 0.328125 2.234375q0.328125 1.03125 0.984375 1.671875q0.65625 0.625 1.609375 0.625zm10.070164 0.75q-1.578125 0 -2.3125 -0.90625q-0.734375 -0.921875 -0.734375 -3.15625l0 -3.328125q0 -0.78125 0.0625 -1.203125l-1.28125 0.046875l0 -0.765625l0.578125 0q0.734375 0 1.09375 -0.125q0.375 -0.125 0.640625 -0.375l0.546875 0l0 5.6875q0 1.640625 0.453125 2.40625q0.453125 0.765625 1.515625 0.765625q0.6875 0 1.34375 -0.40625q0.671875 -0.40625 1.09375 -1.03125l0 -4.796875q0 -0.875 0.078125 -1.40625l-1.328125 0.046875l0 -0.765625l0.578125 0q0.71875 0 1.09375 -0.125q0.375 -0.125 0.640625 -0.375l0.53125 0l-0.015625 7.046875q0 1.09375 -0.078125 1.765625l1.34375 -0.078125l0 0.78125l-2.671875 0q-0.09375 -0.578125 -0.125 -1.125q-0.609375 0.625 -1.4375 1.03125q-0.8125 0.390625 -1.609375 0.390625zm7.044037 3.90625q0.53125 0 0.765625 -0.28125q0.234375 -0.265625 0.265625 -0.671875q0.046875 -0.390625 0.0625 -1.328125l0.046875 -9.015625q0 -0.78125 0.0625 -1.203125l-1.3125 0.0625l0 -0.78125q1.09375 0 1.5 -0.109375q0.421875 -0.125 0.671875 -0.390625l0.5625 0q0.078125 0.921875 0.078125 1.015625q0.5625 -0.515625 1.34375 -0.8125q0.78125 -0.3125 1.546875 -0.3125q1.09375 0 2.03125 0.578125q0.9375 0.5625 1.5 1.625q0.578125 1.046875 0.578125 2.421875q0 1.546875 -0.65625 2.75q-0.65625 1.203125 -1.75 1.875q-1.09375 0.671875 -2.359375 0.671875q-1.28125 0 -2.234375 -0.609375l0 3.09375q0 0.84375 -0.078125 1.265625l1.171875 -0.046875l0 0.75l-3.796875 0l0 -0.546875zm4.90625 -4.65625q0.875 0 1.515625 -0.53125q0.640625 -0.546875 1.0 -1.515625q0.359375 -0.96875 0.359375 -2.203125q0 -1.671875 -0.71875 -2.84375q-0.71875 -1.171875 -2.140625 -1.171875q-0.609375 0 -1.1875 0.3125q-0.578125 0.296875 -1.015625 0.734375q0.015625 0.140625 0.015625 1.140625l-0.015625 5.359375q0.953125 0.71875 2.1875 0.71875zm6.215912 -0.109375q0.53125 0 0.765625 -0.265625q0.234375 -0.265625 0.28125 -0.6875q0.046875 -0.421875 0.046875 -1.3125l0 -8.828125q0 -0.71875 0.0625 -1.21875l-1.328125 0.078125l0 -0.78125q1.109375 0 1.578125 -0.125q0.484375 -0.140625 0.75 -0.375l0.546875 0l0.015625 12.09375q0 0.734375 -0.09375 1.28125l1.171875 -0.0625l0 0.765625l-3.796875 0l0 -0.5625zm9.762009 0.859375q-1.28125 0 -2.3125 -0.609375q-1.03125 -0.609375 -1.640625 -1.734375q-0.59375 -1.125 -0.59375 -2.59375q0 -1.3125 0.59375 -2.453125q0.609375 -1.15625 1.671875 -1.84375q1.078125 -0.6875 2.4375 -0.6875q1.0625 0 1.921875 0.46875q0.859375 0.46875 1.359375 1.390625q0.5 0.921875 0.5 2.265625l-6.5625 0.109375q-0.015625 2.234375 0.734375 3.484375q0.765625 1.25 2.34375 1.25q0.859375 0 1.765625 -0.4375q0.90625 -0.453125 1.390625 -1.109375l0.453125 0.375q-0.71875 1.078125 -1.84375 1.609375q-1.125 0.515625 -2.21875 0.515625zm2.1875 -6.46875q0 -1.125 -0.5 -1.921875q-0.5 -0.8125 -1.515625 -0.8125q-2.3125 0 -2.734375 2.734375l4.75 0zm6.9241943 6.46875q-2.5625 0 -2.53125 -3.4375l0.03125 -5.40625l-1.4375 0.015625l0 -0.796875q0.890625 -0.015625 1.515625 -0.8125q0.625 -0.796875 0.921875 -1.796875l0.640625 0l0 2.609375l3.140625 0l0 0.734375l-3.140625 0.03125q-0.015625 2.859375 -0.03125 3.96875q0 1.09375 0 1.21875q0 1.328125 0.3125 1.96875q0.3125 0.640625 1.09375 0.640625q0.484375 0 0.953125 -0.296875q0.484375 -0.296875 0.84375 -0.828125l0.5 0.421875q-0.71875 1.078125 -1.4375 1.421875q-0.703125 0.34375 -1.375 0.34375z" fill-rule="nonzero"></path><path fill="#b6d7a8" d="m263.0643 86.48819l150.99213 0l0 29.889763l-150.99213 0z" fill-rule="evenodd"></path><path stroke="#93c47d" stroke-width="1.0" stroke-linejoin="round" stroke-linecap="butt" d="m263.0643 86.48819l150.99213 0l0 29.889763l-150.99213 0z" fill-rule="evenodd"></path><path fill="#000000" d="m279.76102 107.74369q0.640625 -0.03125 0.921875 -0.296875q0.28125 -0.28125 0.3125 -0.65625q0.046875 -0.390625 0.046875 -1.34375l0 -8.0625q0 -0.78125 0.0625 -1.34375l-1.34375 0.078125l0 -0.828125l4.390625 -0.015625q3.515625 -0.015625 5.5625 1.640625q2.0625 1.65625 2.0625 4.921875q0 1.765625 -0.828125 3.265625q-0.8125 1.484375 -2.421875 2.375q-1.609375 0.875 -3.859375 0.875l-4.90625 0l0 -0.609375zm4.84375 -0.09375q1.5625 0 2.78125 -0.765625q1.21875 -0.765625 1.890625 -2.109375q0.671875 -1.34375 0.671875 -3.0q0 -2.734375 -1.5 -4.265625q-1.484375 -1.546875 -4.5 -1.546875q-0.640625 0 -0.921875 0.265625q-0.28125 0.265625 -0.328125 0.65625q-0.03125 0.375 -0.03125 1.3125l0 7.953125q0 0.96875 -0.0625 1.453125q0.65625 0.046875 2.0 0.046875zm13.47702 1.0q-1.296875 0 -2.375 -0.609375q-1.0625 -0.609375 -1.6875 -1.6875q-0.625 -1.078125 -0.625 -2.4375q0 -1.453125 0.609375 -2.640625q0.625 -1.1875 1.6875 -1.859375q1.078125 -0.6875 2.390625 -0.6875q1.28125 0 2.359375 0.625q1.09375 0.625 1.71875 1.703125q0.625 1.078125 0.625 2.40625q0 1.421875 -0.625 2.625q-0.625 1.1875 -1.703125 1.875q-1.078125 0.6875 -2.375 0.6875zm0.140625 -0.75q1.359375 0 2.0 -1.109375q0.65625 -1.125 0.65625 -2.78125q0 -1.890625 -0.703125 -3.234375q-0.703125 -1.34375 -2.09375 -1.34375q-1.390625 0 -2.09375 1.140625q-0.6875 1.140625 -0.6875 2.796875q0 1.203125 0.328125 2.234375q0.328125 1.03125 0.984375 1.671875q0.65625 0.625 1.609375 0.625zm6.148285 -0.109375q0.53125 0 0.765625 -0.265625q0.234375 -0.265625 0.28125 -0.6875q0.046875 -0.421875 0.046875 -1.3125l0 -4.265625q0 -0.78125 0.078125 -1.203125l-1.328125 0.0625l0 -0.78125q1.09375 0 1.5 -0.109375q0.421875 -0.125 0.703125 -0.390625l0.546875 0q0.03125 0.28125 0.0625 0.984375q0.578125 -0.5 1.296875 -0.796875q0.734375 -0.296875 1.453125 -0.296875q0.90625 0 1.546875 0.328125q0.65625 0.328125 1.0 0.921875q0.671875 -0.546875 1.5 -0.890625q0.84375 -0.359375 1.609375 -0.359375q1.640625 0 2.390625 1.0q0.75 1.0 0.71875 3.171875l-0.015625 3.46875q0 0.84375 -0.078125 1.28125l1.171875 -0.0625l0 0.765625l-3.796875 0l0 -0.5625q0.53125 0 0.765625 -0.265625q0.234375 -0.265625 0.28125 -0.6875q0.046875 -0.421875 0.046875 -1.3125l0 -2.625q0 -1.59375 -0.5 -2.390625q-0.5 -0.796875 -1.59375 -0.796875q-0.578125 0 -1.171875 0.25q-0.578125 0.25 -1.03125 0.671875q0.1875 0.578125 0.1875 1.359375l-0.03125 4.375q0 0.84375 -0.078125 1.28125l1.171875 -0.0625l0 0.765625l-3.796875 0l0 -0.5625q0.546875 0 0.765625 -0.265625q0.234375 -0.265625 0.265625 -0.671875q0.046875 -0.40625 0.0625 -1.328125l0.03125 -2.625q0.015625 -1.625 -0.46875 -2.421875q-0.484375 -0.796875 -1.546875 -0.796875q-0.578125 0 -1.15625 0.25q-0.5625 0.234375 -0.984375 0.640625l0.03125 1.015625l0 4.78125q0 0.84375 -0.078125 1.28125l1.171875 -0.0625l0 0.765625l-3.796875 0l0 -0.5625zm19.288086 0.859375q-1.359375 0 -2.078125 -0.609375q-0.71875 -0.625 -0.71875 -1.609375q0 -1.078125 0.859375 -1.828125q0.875 -0.75 2.1875 -1.109375q1.3125 -0.359375 2.640625 -0.34375l0 -1.15625q0 -1.21875 -0.359375 -1.890625q-0.359375 -0.6875 -1.515625 -0.6875q-0.578125 0 -1.109375 0.25q-0.515625 0.234375 -0.75 0.71875q0.234375 0.265625 0.234375 0.71875q0 0.265625 -0.203125 0.53125q-0.203125 0.25 -0.59375 0.25q-0.390625 0 -0.625 -0.25q-0.21875 -0.265625 -0.21875 -0.671875q0 -0.609375 0.46875 -1.125q0.484375 -0.515625 1.328125 -0.8125q0.859375 -0.296875 1.90625 -0.296875q1.5625 0 2.3125 0.828125q0.75 0.828125 0.71875 2.625l-0.015625 4.1875q0 0.609375 -0.078125 1.28125l1.328125 -0.078125l0 0.78125l-2.65625 0q-0.0625 -0.28125 -0.140625 -1.0625q-1.359375 1.359375 -2.921875 1.359375zm0.421875 -1.0625q0.71875 0 1.296875 -0.265625q0.578125 -0.28125 1.171875 -0.828125q-0.015625 -0.28125 -0.015625 -0.953125l0.015625 -1.765625q-1.53125 0.0625 -2.734375 0.640625q-1.1875 0.5625 -1.1875 1.734375q0 0.6875 0.40625 1.0625q0.421875 0.375 1.046875 0.375zm8.439117 -10.59375q-0.390625 0 -0.703125 -0.328125q-0.296875 -0.328125 -0.296875 -0.78125q0 -0.4375 0.3125 -0.765625q0.3125 -0.34375 0.703125 -0.34375q0.421875 0 0.703125 0.328125q0.296875 0.328125 0.296875 0.78125q0 0.453125 -0.3125 0.78125q-0.296875 0.328125 -0.703125 0.328125zm-1.84375 10.796875q0.53125 0 0.765625 -0.265625q0.234375 -0.265625 0.28125 -0.6875q0.046875 -0.421875 0.046875 -1.3125l0 -4.265625q0 -0.53125 0.078125 -1.203125l-1.328125 0.0625l0 -0.78125q1.09375 0 1.5625 -0.125q0.484375 -0.125 0.75 -0.375l0.546875 0l0 7.53125q0 0.84375 -0.078125 1.28125l1.171875 -0.0625l0 0.765625l-3.796875 0l0 -0.5625zm5.242401 0q0.53125 0 0.765625 -0.265625q0.234375 -0.265625 0.265625 -0.671875q0.046875 -0.40625 0.0625 -1.328125l0.015625 -4.265625q0 -0.78125 0.078125 -1.203125l-1.328125 0.0625l0 -0.78125q1.109375 0 1.515625 -0.109375q0.40625 -0.125 0.6875 -0.390625l0.546875 0q0.03125 0.359375 0.0625 1.140625q0.640625 -0.5625 1.453125 -0.90625q0.8125 -0.34375 1.59375 -0.34375q1.625 0 2.359375 1.015625q0.75 1.015625 0.75 3.15625l0 3.46875q0 0.84375 -0.0625 1.28125l1.171875 -0.0625l0 0.765625l-3.8125 0l0 -0.5625q0.546875 0 0.78125 -0.265625q0.234375 -0.265625 0.28125 -0.6875q0.046875 -0.421875 0.046875 -1.3125l0 -2.625q-0.015625 -1.59375 -0.53125 -2.40625q-0.5 -0.8125 -1.578125 -0.8125q-0.671875 0 -1.34375 0.34375q-0.65625 0.328125 -1.078125 0.859375q0.015625 0.21875 0.015625 0.734375l-0.015625 4.75q0 0.84375 -0.078125 1.28125l1.171875 -0.0625l0 0.765625l-3.796875 0l0 -0.5625zm16.434082 -0.046875q0.640625 -0.03125 0.921875 -0.296875q0.28125 -0.28125 0.3125 -0.65625q0.046875 -0.390625 0.046875 -1.34375l0 -8.0625q0 -0.78125 0.0625 -1.34375l-1.34375 0.078125l0 -0.828125l4.1875 0l0 0.625q-0.640625 0.015625 -0.921875 0.296875q-0.28125 0.28125 -0.328125 0.671875q-0.03125 0.375 -0.03125 1.3125l0 7.9375q0 0.984375 -0.0625 1.46875l1.34375 -0.078125l0 0.828125l-4.1875 0l0 -0.609375zm6.0467224 0.046875q0.53125 0 0.765625 -0.265625q0.234375 -0.265625 0.265625 -0.671875q0.046875 -0.40625 0.0625 -1.328125l0.015625 -4.265625q0 -0.78125 0.078125 -1.203125l-1.328125 0.0625l0 -0.78125q1.109375 0 1.515625 -0.109375q0.40625 -0.125 0.6875 -0.390625l0.546875 0q0.03125 0.359375 0.0625 1.140625q0.640625 -0.5625 1.453125 -0.90625q0.8125 -0.34375 1.59375 -0.34375q1.625 0 2.359375 1.015625q0.75 1.015625 0.75 3.15625l0 3.46875q0 0.84375 -0.0625 1.28125l1.171875 -0.0625l0 0.765625l-3.8125 0l0 -0.5625q0.546875 0 0.78125 -0.265625q0.234375 -0.265625 0.28125 -0.6875q0.046875 -0.421875 0.046875 -1.3125l0 -2.625q-0.015625 -1.59375 -0.53125 -2.40625q-0.5 -0.8125 -1.578125 -0.8125q-0.671875 0 -1.34375 0.34375q-0.65625 0.328125 -1.078125 0.859375q0.015625 0.21875 0.015625 0.734375l-0.015625 4.75q0 0.84375 -0.078125 1.28125l1.171875 -0.0625l0 0.765625l-3.796875 0l0 -0.5625zm11.152466 4.765625q0.53125 0 0.765625 -0.28125q0.234375 -0.265625 0.265625 -0.671875q0.046875 -0.390625 0.0625 -1.328125l0.046875 -9.015625q0 -0.78125 0.0625 -1.203125l-1.3125 0.0625l0 -0.78125q1.09375 0 1.5 -0.109375q0.421875 -0.125 0.671875 -0.390625l0.5625 0q0.078125 0.921875 0.078125 1.015625q0.5625 -0.515625 1.34375 -0.8125q0.78125 -0.3125 1.546875 -0.3125q1.09375 0 2.03125 0.578125q0.9375 0.5625 1.5 1.625q0.578125 1.046875 0.578125 2.421875q0 1.546875 -0.65625 2.75q-0.65625 1.203125 -1.75 1.875q-1.09375 0.671875 -2.359375 0.671875q-1.28125 0 -2.234375 -0.609375l0 3.09375q0 0.84375 -0.078125 1.265625l1.171875 -0.046875l0 0.75l-3.796875 0l0 -0.546875zm4.90625 -4.65625q0.875 0 1.515625 -0.53125q0.640625 -0.546875 1.0 -1.515625q0.359375 -0.96875 0.359375 -2.203125q0 -1.671875 -0.71875 -2.84375q-0.71875 -1.171875 -2.140625 -1.171875q-0.609375 0 -1.1875 0.3125q-0.578125 0.296875 -1.015625 0.734375q0.015625 0.140625 0.015625 1.140625l-0.015625 5.359375q0.953125 0.71875 2.1875 0.71875zm10.325287 0.75q-1.578125 0 -2.3125 -0.90625q-0.734375 -0.921875 -0.734375 -3.15625l0 -3.328125q0 -0.78125 0.0625 -1.203125l-1.28125 0.046875l0 -0.765625l0.578125 0q0.734375 0 1.09375 -0.125q0.375 -0.125 0.640625 -0.375l0.546875 0l0 5.6875q0 1.640625 0.453125 2.40625q0.453125 0.765625 1.515625 0.765625q0.6875 0 1.34375 -0.40625q0.671875 -0.40625 1.09375 -1.03125l0 -4.796875q0 -0.875 0.078125 -1.40625l-1.328125 0.046875l0 -0.765625l0.578125 0q0.71875 0 1.09375 -0.125q0.375 -0.125 0.640625 -0.375l0.53125 0l-0.015625 7.046875q0 1.09375 -0.078125 1.765625l1.34375 -0.078125l0 0.78125l-2.671875 0q-0.09375 -0.578125 -0.125 -1.125q-0.609375 0.625 -1.4375 1.03125q-0.8125 0.390625 -1.609375 0.390625zm10.715912 0q-2.5625 0 -2.53125 -3.4375l0.03125 -5.40625l-1.4375 0.015625l0 -0.796875q0.890625 -0.015625 1.515625 -0.8125q0.625 -0.796875 0.921875 -1.796875l0.640625 0l0 2.609375l3.140625 0l0 0.734375l-3.140625 0.03125q-0.015625 2.859375 -0.03125 3.96875q0 1.09375 0 1.21875q0 1.328125 0.3125 1.96875q0.3125 0.640625 1.09375 0.640625q0.484375 0 0.953125 -0.296875q0.484375 -0.296875 0.84375 -0.828125l0.5 0.421875q-0.71875 1.078125 -1.4375 1.421875q-0.703125 0.34375 -1.375 0.34375z" fill-rule="nonzero"></path><path fill="#b4a7d6" d="m260.5748 207.3128l31.193695 -44.761627l93.581116 0l31.193695 44.761627l-31.193695 44.761642l-93.581116 0z" fill-rule="evenodd"></path><path stroke="#8e7cc3" stroke-width="1.0" stroke-linejoin="round" stroke-linecap="butt" d="m260.5748 207.3128l31.193695 -44.761627l93.581116 0l31.193695 44.761627l-31.193695 44.761642l-93.581116 0z" fill-rule="evenodd"></path><path fill="#000000" d="m307.81537 214.52968q-1.875 0 -3.34375 -0.875q-1.453125 -0.875 -2.25 -2.390625q-0.796875 -1.53125 -0.796875 -3.375q0 -1.765625 0.75 -3.375q0.765625 -1.625 2.234375 -2.625q1.46875 -1.015625 3.546875 -1.015625q0.734375 0 1.59375 0.25q0.875 0.234375 1.609375 0.671875l0.015625 0l-0.078125 -0.796875l1.4375 0l0 4.359375l-1.203125 0q-0.5 -3.109375 -3.140625 -3.140625q-1.25 0 -2.125 0.734375q-0.859375 0.734375 -1.296875 1.953125q-0.421875 1.21875 -0.421875 2.609375q0 1.609375 0.46875 2.859375q0.46875 1.25 1.34375 1.953125q0.875 0.6875 2.109375 0.6875q1.1875 0 2.328125 -0.609375q1.15625 -0.609375 1.9375 -1.671875l0.90625 0.8125q-1.234375 1.703125 -2.71875 2.34375q-1.46875 0.640625 -2.90625 0.640625zm6.2573853 -1.515625q0.5 0 0.734375 -0.1875q0.234375 -0.203125 0.296875 -0.53125q0.0625 -0.34375 0.0625 -0.9375l0 -7.671875q0 -0.890625 0.078125 -1.609375l-1.3125 0.046875l0 -1.421875q1.1875 0 1.90625 -0.15625q0.734375 -0.171875 0.96875 -0.390625l1.015625 0l0 11.078125q0 0.890625 -0.078125 1.640625q0.609375 -0.0625 1.21875 -0.0625l0 1.421875l-4.890625 0l0 -1.21875zm8.742645 -9.953125q-0.625 0 -1.046875 -0.4375q-0.40625 -0.4375 -0.40625 -1.078125q0 -0.640625 0.421875 -1.09375q0.4375 -0.453125 1.015625 -0.453125q0.59375 0 1.0 0.453125q0.40625 0.4375 0.40625 1.09375q0 0.65625 -0.390625 1.09375q-0.375 0.421875 -1.0 0.421875zm-2.625 9.953125q0.703125 0 0.890625 -0.390625q0.203125 -0.390625 0.203125 -1.265625l0 -3.09375q0 -0.875 0.078125 -1.625l-1.296875 0.0625l0 -1.421875q1.171875 0 1.890625 -0.171875q0.734375 -0.171875 0.96875 -0.390625l1.015625 0l0 6.515625q0 0.890625 -0.078125 1.640625q0.59375 -0.0625 1.21875 -0.0625l0 1.421875l-4.890625 0l0 -1.21875zm10.522461 1.515625q-1.359375 0 -2.40625 -0.609375q-1.046875 -0.609375 -1.625 -1.71875q-0.578125 -1.125 -0.578125 -2.609375q0 -1.3125 0.578125 -2.453125q0.59375 -1.15625 1.65625 -1.84375q1.0625 -0.6875 2.4375 -0.6875q1.796875 0 3.0 1.0625q1.203125 1.0625 1.1875 3.546875l-6.109375 0.109375q0 1.640625 0.625 2.59375q0.625 0.953125 2.0 0.953125q0.65625 0 1.390625 -0.328125q0.75 -0.34375 1.34375 -1.078125l0.84375 0.78125q-1.578125 2.28125 -4.34375 2.28125zm1.671875 -6.515625q-0.046875 -2.109375 -1.53125 -2.109375q-0.796875 0 -1.28125 0.578125q-0.46875 0.5625 -0.609375 1.53125l3.421875 0zm3.9433289 5.0q0.703125 0 0.890625 -0.390625q0.203125 -0.390625 0.203125 -1.265625l0 -3.125q0 -0.84375 0.078125 -1.59375l-1.296875 0.0625l0 -1.421875q1.171875 0 1.890625 -0.171875q0.734375 -0.171875 0.96875 -0.390625l0.921875 0q0 0.03125 0.078125 0.9375l0.03125 0q0.546875 -0.4375 1.328125 -0.734375q0.796875 -0.3125 1.359375 -0.3125q1.703125 0 2.421875 0.96875q0.734375 0.96875 0.734375 3.15625l0 2.5q0 0.890625 -0.078125 1.640625q0.609375 -0.0625 1.21875 -0.0625l0 1.421875l-4.890625 0l0 -1.21875q0.703125 0 0.90625 -0.390625q0.21875 -0.390625 0.21875 -1.265625l-0.03125 -2.640625q0 -1.234375 -0.34375 -1.8125q-0.34375 -0.578125 -1.15625 -0.578125q-0.453125 0 -0.921875 0.203125q-0.46875 0.1875 -0.78125 0.484375l0 4.21875q0 0.890625 -0.078125 1.640625q0.59375 -0.0625 1.21875 -0.0625l0 1.421875l-4.890625 0l0 -1.21875zm15.552856 1.515625q-2.90625 0 -2.90625 -3.578125l0.03125 -4.5l-1.265625 0l0 -1.546875q0.609375 0 1.140625 -0.375q0.53125 -0.375 0.890625 -0.90625q0.375 -0.546875 0.53125 -1.046875l1.375 0l-0.015625 2.328125l2.375 0l0 1.4375l-2.375 0.0625l-0.015625 4.578125q0 1.8125 1.109375 1.8125q0.90625 0 1.703125 -1.125l0.890625 0.84375q-0.875 1.296875 -1.75 1.65625q-0.875 0.359375 -1.71875 0.359375zm8.314423 0q-0.8125 0 -1.578125 -0.203125q-0.765625 -0.203125 -1.1875 -0.515625l-0.015625 0l0.046875 0.546875l-1.40625 0l-0.078125 -3.203125l1.203125 0q0.09375 0.859375 0.90625 1.453125q0.8125 0.578125 1.984375 0.578125q0.53125 0 0.90625 -0.234375q0.390625 -0.25 0.390625 -0.703125q0 -0.328125 -0.25 -0.546875q-0.234375 -0.234375 -0.578125 -0.375q-0.328125 -0.15625 -1.34375 -0.546875q-1.1875 -0.46875 -1.796875 -0.765625q-0.59375 -0.296875 -1.0625 -0.875q-0.46875 -0.59375 -0.46875 -1.53125q0 -0.765625 0.375 -1.4375q0.390625 -0.6875 1.171875 -1.125q0.796875 -0.4375 1.953125 -0.4375q0.546875 0 1.171875 0.171875q0.640625 0.15625 1.0625 0.453125l0.03125 0l-0.03125 -0.53125l1.421875 0l0 3.296875l-1.21875 0q-0.15625 -0.96875 -0.859375 -1.53125q-0.6875 -0.5625 -1.6875 -0.5625q-0.53125 0 -0.890625 0.25q-0.34375 0.25 -0.34375 0.75q0 0.515625 0.40625 0.765625q0.421875 0.25 1.390625 0.578125q0.109375 0.015625 0.484375 0.140625q1.578125 0.5625 2.421875 1.3125q0.859375 0.75 0.859375 1.953125q0 0.9375 -0.484375 1.578125q-0.46875 0.640625 -1.25 0.96875q-0.765625 0.328125 -1.65625 0.328125z" fill-rule="nonzero"></path><path fill="#f4cccc" d="m160.2664 279.24408l83.433075 0l0 29.88977l-83.433075 0z" fill-rule="evenodd"></path><path stroke="#ea9999" stroke-width="1.0" stroke-linejoin="round" stroke-linecap="butt" d="m160.2664 279.24408l83.433075 0l0 29.88977l-83.433075 0z" fill-rule="evenodd"></path><path fill="#000000" d="m172.61382 300.4996q0.640625 -0.03125 0.921875 -0.296875q0.28125 -0.28125 0.3125 -0.65625q0.046875 -0.390625 0.046875 -1.34375l0 -8.0625q0 -0.78125 0.0625 -1.34375l-1.34375 0.078125l0 -0.828125q1.9375 -0.03125 2.921875 -0.03125q0.890625 0 1.34375 0.015625q2.625 0.03125 3.84375 0.890625q1.234375 0.84375 1.234375 2.453125q0.015625 1.28125 -0.765625 2.3125q-0.78125 1.015625 -2.71875 1.421875q0.3125 0.234375 0.5625 0.578125q0.265625 0.328125 0.71875 1.03125l1.265625 2.0q0.40625 0.65625 0.671875 1.0q0.28125 0.34375 0.65625 0.5625q0.390625 0.21875 0.953125 0.21875l0 0.609375l-2.359375 0q-0.5 -0.421875 -0.84375 -0.875q-0.34375 -0.46875 -0.8125 -1.203125l-1.25 -1.984375l-0.234375 -0.390625q-0.3125 -0.515625 -0.53125 -0.828125q-0.21875 -0.3125 -0.484375 -0.5625q-0.171875 0.015625 -0.515625 0.015625q-0.515625 0 -0.75 -0.015625l0 3.625q0 0.984375 -0.0625 1.46875l1.34375 -0.078125l0 0.828125l-4.1875 0l0 -0.609375zm3.71875 -5.921875q3.8125 0 3.8125 -3.0q0 -1.421875 -0.828125 -2.125q-0.8125 -0.71875 -2.515625 -0.71875q-0.640625 0 -0.921875 0.265625q-0.28125 0.265625 -0.328125 0.640625q-0.03125 0.375 -0.03125 1.3125l0 3.59375q0.5625 0.03125 0.8125 0.03125zm12.2942505 6.828125q-1.28125 0 -2.3125 -0.609375q-1.03125 -0.609375 -1.640625 -1.734375q-0.59375 -1.125 -0.59375 -2.59375q0 -1.3125 0.59375 -2.453125q0.609375 -1.15625 1.671875 -1.84375q1.078125 -0.6875 2.4375 -0.6875q1.0625 0 1.921875 0.46875q0.859375 0.46875 1.359375 1.390625q0.5 0.921875 0.5 2.265625l-6.5625 0.109375q-0.015625 2.234375 0.734375 3.484375q0.765625 1.25 2.34375 1.25q0.859375 0 1.765625 -0.4375q0.90625 -0.453125 1.390625 -1.109375l0.453125 0.375q-0.71875 1.078125 -1.84375 1.609375q-1.125 0.515625 -2.21875 0.515625zm2.1875 -6.46875q0 -1.125 -0.5 -1.921875q-0.5 -0.8125 -1.515625 -0.8125q-2.3125 0 -2.734375 2.734375l4.75 0zm6.0335693 6.46875q-1.359375 0 -2.078125 -0.609375q-0.71875 -0.625 -0.71875 -1.609375q0 -1.078125 0.859375 -1.828125q0.875 -0.75 2.1875 -1.109375q1.3125 -0.359375 2.640625 -0.34375l0 -1.15625q0 -1.21875 -0.359375 -1.890625q-0.359375 -0.6875 -1.515625 -0.6875q-0.578125 0 -1.109375 0.25q-0.515625 0.234375 -0.75 0.71875q0.234375 0.265625 0.234375 0.71875q0 0.265625 -0.203125 0.53125q-0.203125 0.25 -0.59375 0.25q-0.390625 0 -0.625 -0.25q-0.21875 -0.265625 -0.21875 -0.671875q0 -0.609375 0.46875 -1.125q0.484375 -0.515625 1.328125 -0.8125q0.859375 -0.296875 1.90625 -0.296875q1.5625 0 2.3125 0.828125q0.75 0.828125 0.71875 2.625l-0.015625 4.1875q0 0.609375 -0.078125 1.28125l1.328125 -0.078125l0 0.78125l-2.65625 0q-0.0625 -0.28125 -0.140625 -1.0625q-1.359375 1.359375 -2.921875 1.359375zm0.421875 -1.0625q0.71875 0 1.296875 -0.265625q0.578125 -0.28125 1.171875 -0.828125q-0.015625 -0.28125 -0.015625 -0.953125l0.015625 -1.765625q-1.53125 0.0625 -2.734375 0.640625q-1.1875 0.5625 -1.1875 1.734375q0 0.6875 0.40625 1.0625q0.421875 0.375 1.046875 0.375zm10.579758 1.0625q-1.15625 0 -2.078125 -0.578125q-0.90625 -0.578125 -1.4375 -1.640625q-0.515625 -1.0625 -0.515625 -2.484375q0 -1.484375 0.609375 -2.671875q0.625 -1.203125 1.71875 -1.875q1.09375 -0.671875 2.46875 -0.671875q0.578125 0 1.1875 0.15625q0.609375 0.15625 1.0 0.359375l0 -2.546875q0 -0.71875 0.046875 -1.21875l-1.3125 0.078125l0 -0.78125q1.09375 0 1.5625 -0.125q0.484375 -0.140625 0.75 -0.375l0.53125 0l0 12.09375q0 0.609375 -0.078125 1.28125l1.328125 -0.078125l0 0.78125l-2.671875 0q-0.09375 -0.5 -0.125 -0.96875q-0.546875 0.59375 -1.328125 0.9375q-0.765625 0.328125 -1.65625 0.328125zm0.671875 -0.90625q0.59375 0 1.21875 -0.34375q0.625 -0.359375 1.0625 -0.890625q-0.015625 -0.296875 -0.015625 -1.03125l0.015625 -5.375q-0.875 -0.65625 -2.078125 -0.65625q-1.34375 0 -2.171875 1.125q-0.8125 1.109375 -0.8125 2.9375q0 1.890625 0.71875 3.0625q0.734375 1.171875 2.0625 1.171875zm11.000183 0.90625q-1.28125 0 -2.3125 -0.609375q-1.03125 -0.609375 -1.640625 -1.734375q-0.59375 -1.125 -0.59375 -2.59375q0 -1.3125 0.59375 -2.453125q0.609375 -1.15625 1.671875 -1.84375q1.078125 -0.6875 2.4375 -0.6875q1.0625 0 1.921875 0.46875q0.859375 0.46875 1.359375 1.390625q0.5 0.921875 0.5 2.265625l-6.5625 0.109375q-0.015625 2.234375 0.734375 3.484375q0.765625 1.25 2.34375 1.25q0.859375 0 1.765625 -0.4375q0.90625 -0.453125 1.390625 -1.109375l0.453125 0.375q-0.71875 1.078125 -1.84375 1.609375q-1.125 0.515625 -2.21875 0.515625zm2.1875 -6.46875q0 -1.125 -0.5 -1.921875q-0.5 -0.8125 -1.515625 -0.8125q-2.3125 0 -2.734375 2.734375l4.75 0zm3.4241943 5.609375q0.53125 0 0.765625 -0.265625q0.234375 -0.265625 0.28125 -0.6875q0.046875 -0.421875 0.046875 -1.3125l0 -4.265625q0 -0.78125 0.078125 -1.203125l-1.328125 0.046875l0 -0.765625l0.578125 0q0.703125 0 1.015625 -0.109375q0.328125 -0.125 0.609375 -0.390625l0.546875 0q0.0625 0.734375 0.078125 1.84375q0.46875 -0.765625 1.328125 -1.359375q0.875 -0.59375 1.8125 -0.59375q0.5625 0 0.9375 0.296875q0.375 0.296875 0.375 0.875q0 0.296875 -0.234375 0.59375q-0.234375 0.296875 -0.671875 0.296875q-0.40625 0 -0.671875 -0.296875q-0.25 -0.3125 -0.203125 -0.734375q-0.703125 -0.03125 -1.421875 0.53125q-0.71875 0.5625 -1.21875 1.5l0.015625 4.578125q0 0.84375 -0.078125 1.28125l1.171875 -0.0625l0 0.765625l-3.8125 0l0 -0.5625z" fill-rule="nonzero"></path><path fill="#000000" fill-opacity="0.0" d="m243.69292 294.1847c47.43306 0 94.866135 -21.055145 94.866135 -42.110245" fill-rule="evenodd"></path><path stroke="#000000" stroke-width="1.0" stroke-linejoin="round" stroke-linecap="butt" d="m249.69186 294.07297l0.6664429 -0.024932861c0.73950195 -0.03012085 1.4784698 -0.06512451 2.2167206 -0.10494995c2.9529877 -0.1593628 5.894394 -0.395813 8.812637 -0.70425415c5.836487 -0.6168518 11.580353 -1.5215454 17.138916 -2.6730042c11.117126 -2.3029175 21.493103 -5.5927734 30.38681 -9.540619c17.787384 -7.8956604 29.64566 -18.423218 29.64566 -28.950775" fill-rule="evenodd"></path><path fill="#000000" stroke="#000000" stroke-width="1.0" stroke-linecap="butt" d="m249.66112 292.4215l-4.5065613 1.7359314l4.5680695 1.5669861z" fill-rule="evenodd"></path><path fill="#000000" fill-opacity="0.0" d="m160.2664 294.18896c-13.228348 0 -26.456696 -25.212585 -26.456696 -50.425186" fill-rule="evenodd"></path><path stroke="#000000" stroke-width="1.0" stroke-linejoin="round" stroke-linecap="butt" stroke-dasharray="4.0,3.0" d="m160.2664 294.18896c-6.6141663 0 -13.228348 -6.303131 -18.18898 -15.757874c-2.4803162 -4.727356 -4.547241 -10.242615 -5.994095 -16.151825c-0.7234192 -2.9545898 -1.2918243 -6.00766 -1.6793823 -9.110016c-0.09687805 -0.77557373 -0.1824646 -1.5542297 -0.2563324 -2.335205c-0.018478394 -0.19525146 -0.036224365 -0.390625 -0.053222656 -0.58613586l-0.040634155 -0.48908997" fill-rule="evenodd"></path><path fill="#000000" stroke="#000000" stroke-width="1.0" stroke-linecap="butt" d="m135.70412 249.69164l-1.8349457 -4.467163l-1.4657898 4.6015167z" fill-rule="evenodd"></path><path fill="#ea9999" d="m659.8373 195.49606l0 0c0 -37.703217 -30.564514 -68.267715 -68.2677 -68.267715q-34.13391 0 -68.26776 0q0 34.13385 0 68.267715l0 0c0 37.703217 30.564514 68.26773 68.26776 68.26773l0 0c37.703186 0 68.2677 -30.564514 68.2677 -68.26773z" fill-rule="evenodd"></path><path stroke="#e06666" stroke-width="1.0" stroke-linejoin="round" stroke-linecap="butt" d="m659.8373 195.49606l0 0c0 -37.703217 -30.564514 -68.267715 -68.2677 -68.267715q-34.13391 0 -68.26776 0q0 34.13385 0 68.267715l0 0c0 37.703217 30.564514 68.26773 68.26776 68.26773l0 0c37.703186 0 68.2677 -30.564514 68.2677 -68.26773z" fill-rule="evenodd"></path><path fill="#000000" d="m557.6876 202.71294q-0.875 0 -1.765625 -0.25q-0.875 -0.234375 -1.546875 -0.703125l0.09375 0.8125l-0.984375 0l-0.109375 -3.984375l0.734375 0q0.09375 1.609375 1.09375 2.484375q1.015625 0.859375 2.5625 0.859375q1.140625 0 1.90625 -0.625q0.78125 -0.625 0.78125 -1.703125q0 -0.8125 -0.4375 -1.375q-0.4375 -0.5625 -1.09375 -0.9375q-0.640625 -0.390625 -1.734375 -0.90625q-1.25 -0.59375 -1.984375 -1.03125q-0.734375 -0.453125 -1.265625 -1.1875q-0.515625 -0.75 -0.515625 -1.828125q0 -0.75 0.34375 -1.484375q0.34375 -0.75 1.1875 -1.265625q0.84375 -0.53125 2.25 -0.53125q0.84375 0 1.6875 0.21875q0.84375 0.21875 1.5625 0.734375l-0.078125 -0.796875l0.953125 0l0 4.09375l-0.671875 0q-0.09375 -1.46875 -0.953125 -2.484375q-0.84375 -1.015625 -2.375 -1.015625q-1.109375 0 -1.75 0.625q-0.625 0.625 -0.625 1.5625q0 0.734375 0.421875 1.28125q0.421875 0.546875 1.03125 0.90625q0.625 0.34375 1.75 0.859375q1.265625 0.578125 2.03125 1.046875q0.78125 0.46875 1.3125 1.234375q0.546875 0.75 0.546875 1.84375q0 1.046875 -0.515625 1.859375q-0.5 0.796875 -1.5 1.25q-0.984375 0.4375 -2.34375 0.4375zm10.640564 0q-1.296875 0 -2.375 -0.609375q-1.0625 -0.609375 -1.6875 -1.6875q-0.625 -1.078125 -0.625 -2.4375q0 -1.453125 0.609375 -2.640625q0.625 -1.1875 1.6875 -1.859375q1.078125 -0.6875 2.390625 -0.6875q1.28125 0 2.359375 0.625q1.09375 0.625 1.71875 1.703125q0.625 1.078125 0.625 2.40625q0 1.421875 -0.625 2.625q-0.625 1.1875 -1.703125 1.875q-1.078125 0.6875 -2.375 0.6875zm0.140625 -0.75q1.359375 0 2.0 -1.109375q0.65625 -1.125 0.65625 -2.78125q0 -1.890625 -0.703125 -3.234375q-0.703125 -1.34375 -2.09375 -1.34375q-1.390625 0 -2.09375 1.140625q-0.6875 1.140625 -0.6875 2.796875q0 1.203125 0.328125 2.234375q0.328125 1.03125 0.984375 1.671875q0.65625 0.625 1.609375 0.625zm10.07019 0.75q-1.578125 0 -2.3125 -0.90625q-0.734375 -0.921875 -0.734375 -3.15625l0 -3.328125q0 -0.78125 0.0625 -1.203125l-1.28125 0.046875l0 -0.765625l0.578125 0q0.734375 0 1.09375 -0.125q0.375 -0.125 0.640625 -0.375l0.546875 0l0 5.6875q0 1.640625 0.453125 2.40625q0.453125 0.765625 1.515625 0.765625q0.6875 0 1.34375 -0.40625q0.671875 -0.40625 1.09375 -1.03125l0 -4.796875q0 -0.875 0.078125 -1.40625l-1.328125 0.046875l0 -0.765625l0.578125 0q0.71875 0 1.09375 -0.125q0.375 -0.125 0.640625 -0.375l0.53125 0l-0.015625 7.046875q0 1.09375 -0.078125 1.765625l1.34375 -0.078125l0 0.78125l-2.671875 0q-0.09375 -0.578125 -0.125 -1.125q-0.609375 0.625 -1.4375 1.03125q-0.8125 0.390625 -1.609375 0.390625zm7.0440063 3.90625q0.53125 0 0.765625 -0.28125q0.234375 -0.265625 0.265625 -0.671875q0.046875 -0.390625 0.0625 -1.328125l0.046875 -9.015625q0 -0.78125 0.0625 -1.203125l-1.3125 0.0625l0 -0.78125q1.09375 0 1.5 -0.109375q0.421875 -0.125 0.671875 -0.390625l0.5625 0q0.078125 0.921875 0.078125 1.015625q0.5625 -0.515625 1.34375 -0.8125q0.78125 -0.3125 1.546875 -0.3125q1.09375 0 2.03125 0.578125q0.9375 0.5625 1.5 1.625q0.578125 1.046875 0.578125 2.421875q0 1.546875 -0.65625 2.75q-0.65625 1.203125 -1.75 1.875q-1.09375 0.671875 -2.359375 0.671875q-1.28125 0 -2.234375 -0.609375l0 3.09375q0 0.84375 -0.078125 1.265625l1.171875 -0.046875l0 0.75l-3.796875 0l0 -0.546875zm4.90625 -4.65625q0.875 0 1.515625 -0.53125q0.640625 -0.546875 1.0 -1.515625q0.359375 -0.96875 0.359375 -2.203125q0 -1.671875 -0.71875 -2.84375q-0.71875 -1.171875 -2.140625 -1.171875q-0.609375 0 -1.1875 0.3125q-0.578125 0.296875 -1.015625 0.734375q0.015625 0.140625 0.015625 1.140625l-0.015625 5.359375q0.953125 0.71875 2.1875 0.71875zm6.2159424 -0.109375q0.53125 0 0.765625 -0.265625q0.234375 -0.265625 0.28125 -0.6875q0.046875 -0.421875 0.046875 -1.3125l0 -8.828125q0 -0.71875 0.0625 -1.21875l-1.328125 0.078125l0 -0.78125q1.109375 0 1.578125 -0.125q0.484375 -0.140625 0.75 -0.375l0.546875 0l0.015625 12.09375q0 0.734375 -0.09375 1.28125l1.171875 -0.0625l0 0.765625l-3.796875 0l0 -0.5625zm9.762024 0.859375q-1.28125 0 -2.3125 -0.609375q-1.03125 -0.609375 -1.640625 -1.734375q-0.59375 -1.125 -0.59375 -2.59375q0 -1.3125 0.59375 -2.453125q0.609375 -1.15625 1.671875 -1.84375q1.078125 -0.6875 2.4375 -0.6875q1.0625 0 1.921875 0.46875q0.859375 0.46875 1.359375 1.390625q0.5 0.921875 0.5 2.265625l-6.5625 0.109375q-0.015625 2.234375 0.734375 3.484375q0.765625 1.25 2.34375 1.25q0.859375 0 1.765625 -0.4375q0.90625 -0.453125 1.390625 -1.109375l0.453125 0.375q-0.71875 1.078125 -1.84375 1.609375q-1.125 0.515625 -2.21875 0.515625zm2.1875 -6.46875q0 -1.125 -0.5 -1.921875q-0.5 -0.8125 -1.515625 -0.8125q-2.3125 0 -2.734375 2.734375l4.75 0zm6.9241943 6.46875q-2.5625 0 -2.53125 -3.4375l0.03125 -5.40625l-1.4375 0.015625l0 -0.796875q0.890625 -0.015625 1.515625 -0.8125q0.625 -0.796875 0.921875 -1.796875l0.640625 0l0 2.609375l3.140625 0l0 0.734375l-3.140625 0.03125q-0.015625 2.859375 -0.03125 3.96875q0 1.09375 0 1.21875q0 1.328125 0.3125 1.96875q0.3125 0.640625 1.09375 0.640625q0.484375 0 0.953125 -0.296875q0.484375 -0.296875 0.84375 -0.828125l0.5 0.421875q-0.71875 1.078125 -1.4375 1.421875q-0.703125 0.34375 -1.375 0.34375z" fill-rule="nonzero"></path><path fill="#f4cccc" d="m516.853 279.24408l-83.433075 0l0 29.88977l83.433075 0z" fill-rule="evenodd"></path><path stroke="#ea9999" stroke-width="1.0" stroke-linejoin="round" stroke-linecap="butt" d="m516.853 279.24408l-83.433075 0l0 29.88977l83.433075 0z" fill-rule="evenodd"></path><path fill="#000000" d="m445.76736 300.4996q0.640625 -0.03125 0.921875 -0.296875q0.28125 -0.28125 0.3125 -0.65625q0.046875 -0.390625 0.046875 -1.34375l0 -8.0625q0 -0.78125 0.0625 -1.34375l-1.34375 0.078125l0 -0.828125q1.9375 -0.03125 2.921875 -0.03125q0.890625 0 1.34375 0.015625q2.625 0.03125 3.84375 0.890625q1.234375 0.84375 1.234375 2.453125q0.015625 1.28125 -0.765625 2.3125q-0.78125 1.015625 -2.71875 1.421875q0.3125 0.234375 0.5625 0.578125q0.265625 0.328125 0.71875 1.03125l1.265625 2.0q0.40625 0.65625 0.671875 1.0q0.28125 0.34375 0.65625 0.5625q0.390625 0.21875 0.953125 0.21875l0 0.609375l-2.359375 0q-0.5 -0.421875 -0.84375 -0.875q-0.34375 -0.46875 -0.8125 -1.203125l-1.25 -1.984375l-0.234375 -0.390625q-0.3125 -0.515625 -0.53125 -0.828125q-0.21875 -0.3125 -0.484375 -0.5625q-0.171875 0.015625 -0.515625 0.015625q-0.515625 0 -0.75 -0.015625l0 3.625q0 0.984375 -0.0625 1.46875l1.34375 -0.078125l0 0.828125l-4.1875 0l0 -0.609375zm3.71875 -5.921875q3.8125 0 3.8125 -3.0q0 -1.421875 -0.828125 -2.125q-0.8125 -0.71875 -2.515625 -0.71875q-0.640625 0 -0.921875 0.265625q-0.28125 0.265625 -0.328125 0.640625q-0.03125 0.375 -0.03125 1.3125l0 3.59375q0.5625 0.03125 0.8125 0.03125zm12.2942505 6.828125q-1.28125 0 -2.3125 -0.609375q-1.03125 -0.609375 -1.640625 -1.734375q-0.59375 -1.125 -0.59375 -2.59375q0 -1.3125 0.59375 -2.453125q0.609375 -1.15625 1.671875 -1.84375q1.078125 -0.6875 2.4375 -0.6875q1.0625 0 1.921875 0.46875q0.859375 0.46875 1.359375 1.390625q0.5 0.921875 0.5 2.265625l-6.5625 0.109375q-0.015625 2.234375 0.734375 3.484375q0.765625 1.25 2.34375 1.25q0.859375 0 1.765625 -0.4375q0.90625 -0.453125 1.390625 -1.109375l0.453125 0.375q-0.71875 1.078125 -1.84375 1.609375q-1.125 0.515625 -2.21875 0.515625zm2.1875 -6.46875q0 -1.125 -0.5 -1.921875q-0.5 -0.8125 -1.515625 -0.8125q-2.3125 0 -2.734375 2.734375l4.75 0zm6.0335693 6.46875q-1.359375 0 -2.078125 -0.609375q-0.71875 -0.625 -0.71875 -1.609375q0 -1.078125 0.859375 -1.828125q0.875 -0.75 2.1875 -1.109375q1.3125 -0.359375 2.640625 -0.34375l0 -1.15625q0 -1.21875 -0.359375 -1.890625q-0.359375 -0.6875 -1.515625 -0.6875q-0.578125 0 -1.109375 0.25q-0.515625 0.234375 -0.75 0.71875q0.234375 0.265625 0.234375 0.71875q0 0.265625 -0.203125 0.53125q-0.203125 0.25 -0.59375 0.25q-0.390625 0 -0.625 -0.25q-0.21875 -0.265625 -0.21875 -0.671875q0 -0.609375 0.46875 -1.125q0.484375 -0.515625 1.328125 -0.8125q0.859375 -0.296875 1.90625 -0.296875q1.5625 0 2.3125 0.828125q0.75 0.828125 0.71875 2.625l-0.015625 4.1875q0 0.609375 -0.078125 1.28125l1.328125 -0.078125l0 0.78125l-2.65625 0q-0.0625 -0.28125 -0.140625 -1.0625q-1.359375 1.359375 -2.921875 1.359375zm0.421875 -1.0625q0.71875 0 1.296875 -0.265625q0.578125 -0.28125 1.171875 -0.828125q-0.015625 -0.28125 -0.015625 -0.953125l0.015625 -1.765625q-1.53125 0.0625 -2.734375 0.640625q-1.1875 0.5625 -1.1875 1.734375q0 0.6875 0.40625 1.0625q0.421875 0.375 1.046875 0.375zm10.579742 1.0625q-1.15625 0 -2.078125 -0.578125q-0.90625 -0.578125 -1.4375 -1.640625q-0.515625 -1.0625 -0.515625 -2.484375q0 -1.484375 0.609375 -2.671875q0.625 -1.203125 1.71875 -1.875q1.09375 -0.671875 2.46875 -0.671875q0.578125 0 1.1875 0.15625q0.609375 0.15625 1.0 0.359375l0 -2.546875q0 -0.71875 0.046875 -1.21875l-1.3125 0.078125l0 -0.78125q1.09375 0 1.5625 -0.125q0.484375 -0.140625 0.75 -0.375l0.53125 0l0 12.09375q0 0.609375 -0.078125 1.28125l1.328125 -0.078125l0 0.78125l-2.671875 0q-0.09375 -0.5 -0.125 -0.96875q-0.546875 0.59375 -1.328125 0.9375q-0.765625 0.328125 -1.65625 0.328125zm0.671875 -0.90625q0.59375 0 1.21875 -0.34375q0.625 -0.359375 1.0625 -0.890625q-0.015625 -0.296875 -0.015625 -1.03125l0.015625 -5.375q-0.875 -0.65625 -2.078125 -0.65625q-1.34375 0 -2.171875 1.125q-0.8125 1.109375 -0.8125 2.9375q0 1.890625 0.71875 3.0625q0.734375 1.171875 2.0625 1.171875zm11.000183 0.90625q-1.28125 0 -2.3125 -0.609375q-1.03125 -0.609375 -1.640625 -1.734375q-0.59375 -1.125 -0.59375 -2.59375q0 -1.3125 0.59375 -2.453125q0.609375 -1.15625 1.671875 -1.84375q1.078125 -0.6875 2.4375 -0.6875q1.0625 0 1.921875 0.46875q0.859375 0.46875 1.359375 1.390625q0.5 0.921875 0.5 2.265625l-6.5625 0.109375q-0.015625 2.234375 0.734375 3.484375q0.765625 1.25 2.34375 1.25q0.859375 0 1.765625 -0.4375q0.90625 -0.453125 1.390625 -1.109375l0.453125 0.375q-0.71875 1.078125 -1.84375 1.609375q-1.125 0.515625 -2.21875 0.515625zm2.1875 -6.46875q0 -1.125 -0.5 -1.921875q-0.5 -0.8125 -1.515625 -0.8125q-2.3125 0 -2.734375 2.734375l4.75 0zm3.4241943 5.609375q0.53125 0 0.765625 -0.265625q0.234375 -0.265625 0.28125 -0.6875q0.046875 -0.421875 0.046875 -1.3125l0 -4.265625q0 -0.78125 0.078125 -1.203125l-1.328125 0.046875l0 -0.765625l0.578125 0q0.703125 0 1.015625 -0.109375q0.328125 -0.125 0.609375 -0.390625l0.546875 0q0.0625 0.734375 0.078125 1.84375q0.46875 -0.765625 1.328125 -1.359375q0.875 -0.59375 1.8125 -0.59375q0.5625 0 0.9375 0.296875q0.375 0.296875 0.375 0.875q0 0.296875 -0.234375 0.59375q-0.234375 0.296875 -0.671875 0.296875q-0.40625 0 -0.671875 -0.296875q-0.25 -0.3125 -0.203125 -0.734375q-0.703125 -0.03125 -1.421875 0.53125q-0.71875 0.5625 -1.21875 1.5l0.015625 4.578125q0 0.84375 -0.078125 1.28125l1.171875 -0.0625l0 0.765625l-3.8125 0l0 -0.5625z" fill-rule="nonzero"></path><path fill="#000000" fill-opacity="0.0" d="m433.4265 294.1847c-47.433075 0 -94.86615 -21.055145 -94.86615 -42.110245" fill-rule="evenodd"></path><path stroke="#000000" stroke-width="1.0" stroke-linejoin="round" stroke-linecap="butt" d="m427.42752 294.07297l-0.66641235 -0.024932861c-0.73950195 -0.03012085 -1.4784546 -0.06512451 -2.2167358 -0.10494995c-2.9529724 -0.1593628 -5.894348 -0.395813 -8.812622 -0.70425415c-5.836487 -0.6168518 -11.580353 -1.5215454 -17.138916 -2.6730042c-11.117126 -2.3029175 -21.493103 -5.5927734 -30.38681 -9.540619c-17.787384 -7.8956604 -29.64566 -18.423218 -29.64566 -28.950775" fill-rule="evenodd"></path><path fill="#000000" stroke="#000000" stroke-width="1.0" stroke-linecap="butt" d="m427.3968 295.72443l4.5680847 -1.5669861l-4.5065613 -1.7359314z" fill-rule="evenodd"></path><path fill="#000000" fill-opacity="0.0" d="m516.853 294.18896c13.2283325 0 26.456665 -25.212585 26.456665 -50.425186" fill-rule="evenodd"></path><path stroke="#000000" stroke-width="1.0" stroke-linejoin="round" stroke-linecap="butt" stroke-dasharray="4.0,3.0" d="m516.853 294.18896c6.6141357 0 13.2283325 -6.303131 18.188965 -15.757874c2.4803467 -4.727356 4.547241 -10.242615 5.9940796 -16.151825c0.7234497 -2.9545898 1.2918701 -6.00766 1.6793823 -9.110016c0.09686279 -0.77557373 0.18249512 -1.5542297 0.25634766 -2.335205c0.018493652 -0.19525146 0.036254883 -0.390625 0.053222656 -0.58613586l0.040649414 -0.48908997" fill-rule="evenodd"></path><path fill="#000000" stroke="#000000" stroke-width="1.0" stroke-linecap="butt" d="m544.71606 249.82599l-1.4658203 -4.6015167l-1.8349609 4.467163z" fill-rule="evenodd"></path><path fill="#000000" fill-opacity="0.0" d="m338.56036 69.28609c0 4.3005066 0.01574707 6.4514008 0.03149414 8.601006c0.01574707 2.1496048 0.03149414 4.297928 0.03149414 8.595848" fill-rule="evenodd"></path><path stroke="#000000" stroke-width="1.0" stroke-linejoin="round" stroke-linecap="butt" stroke-dasharray="4.0,3.0" d="m338.56036 69.28609c0 4.3005066 0.01574707 6.4514008 0.03149414 8.601006l0.016113281 2.595871" fill-rule="evenodd"></path><path fill="#000000" stroke="#000000" stroke-width="1.0" stroke-linecap="butt" d="m336.95624 80.4872l1.6633606 4.533844l1.6400757 -4.5423203z" fill-rule="evenodd"></path><path fill="#000000" fill-opacity="0.0" d="m338.55905 162.55118c0 -11.543304 0.01574707 -17.314957 0.03149414 -23.086609c0.01574707 -5.771652 0.03149414 -11.543312 0.03149414 -23.086617" fill-rule="evenodd"></path><path stroke="#000000" stroke-width="1.0" stroke-linejoin="round" stroke-linecap="butt" d="m338.55905 162.55118c0 -11.543304 0.01574707 -17.314957 0.03149414 -23.086609c0.007873535 -2.8858337 0.01574707 -5.771652 0.02166748 -9.378937c0.0029296875 -1.8036499 0.0054016113 -3.787651 0.0071411133 -6.042206l5.79834E-4 -1.6654739" fill-rule="evenodd"></path><path fill="#000000" stroke="#000000" stroke-width="1.0" stroke-linecap="butt" d="m340.27167 122.37853l-1.6501465 -4.538681l-1.6533203 4.5375137z" fill-rule="evenodd"></path><path fill="#000000" fill-opacity="0.0" d="m270.29266 38.687664c-92.37796 0 -184.75592 44.26772 -184.75592 88.53543" fill-rule="evenodd"></path><path stroke="#000000" stroke-width="1.0" stroke-linejoin="round" stroke-linecap="butt" d="m264.29297 38.74997l-0.4944458 0.0100746155c-0.7213135 0.016021729 -1.4425049 0.034683228 -2.1634827 0.05596161c-2.8840027 0.085105896 -5.765167 0.21209717 -8.640701 0.37961578c-5.751068 0.3350296 -11.4795685 0.83218 -17.162994 1.4806328c-11.366821 1.2969055 -22.553207 3.1990318 -33.378754 5.6199226c-21.651077 4.8417816 -41.858765 11.758614 -59.179626 20.058811c-17.320862 8.300194 -31.754921 17.983757 -41.858757 28.359001c-5.051918 5.1876297 -9.021286 10.548172 -11.727669 15.995178c-1.3531952 2.7234955 -2.390648 5.4686127 -3.089798 8.224541c-0.1747818 0.68898773 -0.32843018 1.3786392 -0.46057892 2.0688019l-0.045211792 0.24623871" fill-rule="evenodd"></path><path fill="#000000" stroke="#000000" stroke-width="1.0" stroke-linecap="butt" d="m264.31012 40.40161l4.5207214 -1.6987648l-4.555023 -1.6045227z" fill-rule="evenodd"></path><path fill="#000000" stroke="#000000" stroke-width="1.0" stroke-linecap="butt" d="m84.44627 121.09618l1.225502 4.671257l2.0638428 -4.366127z" fill-rule="evenodd"></path><path fill="#000000" fill-opacity="0.0" d="m406.8281 38.687664c92.37793 0 184.75589 44.26772 184.75589 88.53543" fill-rule="evenodd"></path><path stroke="#000000" stroke-width="1.0" stroke-linejoin="round" stroke-linecap="butt" d="m412.82776 38.74997l0.4944458 0.0100746155c0.7213135 0.016021729 1.4424744 0.034683228 2.1634827 0.05596161c2.8840332 0.085105896 5.765167 0.21209717 8.640717 0.37961578c5.751068 0.3350296 11.479553 0.83218 17.162964 1.4806328c11.366852 1.2969055 22.553223 3.1990318 33.378784 5.6199226c21.651062 4.8417816 41.858765 11.758614 59.179626 20.058811c17.320862 8.300194 31.754883 17.983757 41.858765 28.359001c5.05188 5.1876297 9.02124 10.548172 11.727661 15.995178c1.3532104 2.7234955 2.390625 5.4686127 3.0897827 8.224541c0.17480469 0.68898773 0.32843018 1.3786392 0.4605713 2.0688019l0.04522705 0.24623871" fill-rule="evenodd"></path><path fill="#000000" stroke="#000000" stroke-width="1.0" stroke-linecap="butt" d="m412.8449 37.098324l-4.5549927 1.6045227l4.520691 1.6987648z" fill-rule="evenodd"></path><path fill="#000000" stroke="#000000" stroke-width="1.0" stroke-linecap="butt" d="m589.38513 121.40131l2.0638428 4.366127l1.2254639 -4.671257z" fill-rule="evenodd"></path><path fill="#cfe2f3" d="m48.418636 355.08136l214.64566 0l0 147.52756l-214.64566 0z" fill-rule="evenodd"></path><path stroke="#9fc5e8" stroke-width="1.0" stroke-linejoin="round" stroke-linecap="butt" d="m48.418636 355.08136l214.64566 0l0 147.52756l-214.64566 0z" fill-rule="evenodd"></path><path fill="#000000" fill-opacity="0.0" d="m90.21391 361.66403l131.1181 0l0 36.22049l-131.1181 0z" fill-rule="evenodd"></path><path fill="#000000" d="m101.16704 378.84967l-0.234375 -0.734375q-0.453125 -1.390625 -0.546875 -1.8125l-1.046875 0.046875l0 -0.828125l4.546875 0l0 0.625q-0.765625 0.03125 -1.09375 0.25q-0.3125 0.203125 -0.3125 0.6875q0 0.453125 0.1875 1.09375q0.328125 1.25 0.890625 2.796875q0.09375 0.28125 0.21875 0.671875q0.140625 0.375 0.3125 0.875q0.109375 0.390625 0.265625 0.859375q0.171875 0.46875 0.25 0.671875q0.375 1.0 0.5625 1.609375l0.03125 0q0.375 -1.28125 0.765625 -2.46875q0.671875 -2.171875 1.484375 -4.578125q0.828125 -2.515625 1.0 -3.125l0.59375 0q0.234375 0.765625 0.765625 2.40625q0.546875 1.625 0.78125 2.34375q0.5625 1.609375 0.765625 2.28125q0.15625 0.5 0.484375 1.515625q0.375 1.078125 0.609375 1.84375l0.046875 0q0.453125 -1.453125 0.765625 -2.40625q0.953125 -2.703125 1.546875 -4.671875q0.203125 -0.6875 0.375 -1.15625q0.359375 -0.953125 0.578125 -1.359375l-1.484375 0.0625l0 -0.828125l3.78125 0l0 0.625q-0.671875 0.0625 -1.015625 0.28125q-0.34375 0.203125 -0.625 0.734375q-0.265625 0.53125 -0.671875 1.734375l-0.953125 2.84375q-1.5 4.53125 -2.40625 7.03125l-0.5625 0l-3.484375 -9.984375l-3.28125 9.984375l-0.546875 0l-3.34375 -9.921875zm22.062973 10.03125q-1.296875 0 -2.375 -0.609375q-1.0625 -0.609375 -1.6875 -1.6875q-0.625 -1.078125 -0.625 -2.4375q0 -1.453125 0.609375 -2.640625q0.625 -1.1875 1.6875 -1.859375q1.078125 -0.6875 2.390625 -0.6875q1.28125 0 2.359375 0.625q1.09375 0.625 1.71875 1.703125q0.625 1.078125 0.625 2.40625q0 1.421875 -0.625 2.625q-0.625 1.1875 -1.703125 1.875q-1.078125 0.6875 -2.375 0.6875zm0.140625 -0.75q1.359375 0 2.0 -1.109375q0.65625 -1.125 0.65625 -2.78125q0 -1.890625 -0.703125 -3.234375q-0.703125 -1.34375 -2.09375 -1.34375q-1.390625 0 -2.09375 1.140625q-0.6875 1.140625 -0.6875 2.796875q0 1.203125 0.328125 2.234375q0.328125 1.03125 0.984375 1.671875q0.65625 0.625 1.609375 0.625zm6.148285 -0.109375q0.53125 0 0.765625 -0.265625q0.234375 -0.265625 0.28125 -0.6875q0.046875 -0.421875 0.046875 -1.3125l0 -4.265625q0 -0.78125 0.078125 -1.203125l-1.328125 0.046875l0 -0.765625l0.578125 0q0.703125 0 1.015625 -0.109375q0.328125 -0.125 0.609375 -0.390625l0.546875 0q0.0625 0.734375 0.078125 1.84375q0.46875 -0.765625 1.328125 -1.359375q0.875 -0.59375 1.8125 -0.59375q0.5625 0 0.9375 0.296875q0.375 0.296875 0.375 0.875q0 0.296875 -0.234375 0.59375q-0.234375 0.296875 -0.671875 0.296875q-0.40625 0 -0.671875 -0.296875q-0.25 -0.3125 -0.203125 -0.734375q-0.703125 -0.03125 -1.421875 0.53125q-0.71875 0.5625 -1.21875 1.5l0.015625 4.578125q0 0.84375 -0.078125 1.28125l1.171875 -0.0625l0 0.765625l-3.8125 0l0 -0.5625zm7.9062805 0q0.53125 0 0.765625 -0.265625q0.234375 -0.265625 0.265625 -0.671875q0.046875 -0.421875 0.046875 -1.328125q0 -0.1875 0 -2.03125q0.015625 -1.859375 0.015625 -6.796875q0 -0.71875 0.0625 -1.21875l-1.328125 0.078125l0 -0.78125q1.09375 0 1.5625 -0.125q0.484375 -0.140625 0.75 -0.375l0.546875 0l0 8.8125l0.734375 0l2.28125 -2.390625q0.71875 -0.734375 1.109375 -0.984375l-1.28125 0.0625l0 -0.75l3.40625 0l0 0.5625q-0.828125 0.09375 -1.5 0.59375q-0.671875 0.5 -1.484375 1.359375l-1.453125 1.53125q0.328125 0.15625 0.578125 0.390625q0.25 0.21875 0.578125 0.625l1.3125 1.6875q0.046875 0.046875 0.421875 0.578125q0.390625 0.53125 0.921875 0.984375q0.53125 0.453125 0.921875 0.453125l0 0.5625l-1.703125 0q-0.4375 0 -0.84375 -0.390625q-0.390625 -0.390625 -1.125 -1.359375l-0.734375 -1.03125q-0.40625 -0.578125 -0.78125 -1.0625q-0.359375 -0.5 -0.59375 -0.734375l-0.765625 0.046875l0 2.546875q0 0.84375 -0.078125 1.28125l1.1875 -0.0625l0 0.765625l-3.796875 0l0 -0.5625zm14.690277 0.859375q-1.28125 0 -2.3125 -0.609375q-1.03125 -0.609375 -1.640625 -1.734375q-0.59375 -1.125 -0.59375 -2.59375q0 -1.3125 0.59375 -2.453125q0.609375 -1.15625 1.671875 -1.84375q1.078125 -0.6875 2.4375 -0.6875q1.0625 0 1.921875 0.46875q0.859375 0.46875 1.359375 1.390625q0.5 0.921875 0.5 2.265625l-6.5625 0.109375q-0.015625 2.234375 0.734375 3.484375q0.765625 1.25 2.34375 1.25q0.859375 0 1.765625 -0.4375q0.90625 -0.453125 1.390625 -1.109375l0.453125 0.375q-0.71875 1.078125 -1.84375 1.609375q-1.125 0.515625 -2.21875 0.515625zm2.1875 -6.46875q0 -1.125 -0.5 -1.921875q-0.5 -0.8125 -1.515625 -0.8125q-2.3125 0 -2.734375 2.734375l4.75 0zm3.4241943 5.609375q0.53125 0 0.765625 -0.265625q0.234375 -0.265625 0.28125 -0.6875q0.046875 -0.421875 0.046875 -1.3125l0 -4.265625q0 -0.78125 0.078125 -1.203125l-1.328125 0.046875l0 -0.765625l0.578125 0q0.703125 0 1.015625 -0.109375q0.328125 -0.125 0.609375 -0.390625l0.546875 0q0.0625 0.734375 0.078125 1.84375q0.46875 -0.765625 1.328125 -1.359375q0.875 -0.59375 1.8125 -0.59375q0.5625 0 0.9375 0.296875q0.375 0.296875 0.375 0.875q0 0.296875 -0.234375 0.59375q-0.234375 0.296875 -0.671875 0.296875q-0.40625 0 -0.671875 -0.296875q-0.25 -0.3125 -0.203125 -0.734375q-0.703125 -0.03125 -1.421875 0.53125q-0.71875 0.5625 -1.21875 1.5l0.015625 4.578125q0 0.84375 -0.078125 1.28125l1.171875 -0.0625l0 0.765625l-3.8125 0l0 -0.5625zm13.187881 -0.046875q0.640625 -0.03125 0.921875 -0.296875q0.28125 -0.28125 0.3125 -0.65625q0.046875 -0.390625 0.046875 -1.34375l0 -8.0625q0 -0.78125 0.0625 -1.34375l-1.34375 0.078125l0 -0.828125q2.609375 -0.03125 4.15625 -0.03125q2.78125 0 4.203125 0.96875q1.4375 0.96875 1.4375 2.859375q0 1.078125 -0.578125 2.0625q-0.5625 0.984375 -1.953125 1.640625q-1.390625 0.65625 -3.6875 0.65625q-0.4375 0 -0.671875 -0.015625l0 2.703125q0 0.984375 -0.0625 1.46875l1.71875 -0.09375l0 0.84375l-4.5625 0l0 -0.609375zm4.125 -5.03125q1.0625 0 1.9375 -0.40625q0.890625 -0.421875 1.40625 -1.21875q0.515625 -0.796875 0.515625 -1.859375q0 -1.671875 -1.03125 -2.453125q-1.03125 -0.796875 -2.828125 -0.796875q-0.640625 0 -0.890625 0.265625q-0.25 0.265625 -0.296875 0.625q-0.03125 0.359375 -0.03125 1.328125l0 4.46875q0.46875 0.046875 1.21875 0.046875zm11.60257 5.9375q-1.296875 0 -2.375 -0.609375q-1.0625 -0.609375 -1.6875 -1.6875q-0.625 -1.078125 -0.625 -2.4375q0 -1.453125 0.609375 -2.640625q0.625 -1.1875 1.6875 -1.859375q1.078125 -0.6875 2.390625 -0.6875q1.28125 0 2.359375 0.625q1.09375 0.625 1.71875 1.703125q0.625 1.078125 0.625 2.40625q0 1.421875 -0.625 2.625q-0.625 1.1875 -1.703125 1.875q-1.078125 0.6875 -2.375 0.6875zm0.140625 -0.75q1.359375 0 2.0 -1.109375q0.65625 -1.125 0.65625 -2.78125q0 -1.890625 -0.703125 -3.234375q-0.703125 -1.34375 -2.09375 -1.34375q-1.390625 0 -2.09375 1.140625q-0.6875 1.140625 -0.6875 2.796875q0 1.203125 0.328125 2.234375q0.328125 1.03125 0.984375 1.671875q0.65625 0.625 1.609375 0.625zm10.773285 0.75q-1.296875 0 -2.375 -0.609375q-1.0625 -0.609375 -1.6875 -1.6875q-0.625 -1.078125 -0.625 -2.4375q0 -1.453125 0.609375 -2.640625q0.625 -1.1875 1.6875 -1.859375q1.078125 -0.6875 2.390625 -0.6875q1.28125 0 2.359375 0.625q1.09375 0.625 1.71875 1.703125q0.625 1.078125 0.625 2.40625q0 1.421875 -0.625 2.625q-0.625 1.1875 -1.703125 1.875q-1.078125 0.6875 -2.375 0.6875zm0.140625 -0.75q1.359375 0 2.0 -1.109375q0.65625 -1.125 0.65625 -2.78125q0 -1.890625 -0.703125 -3.234375q-0.703125 -1.34375 -2.09375 -1.34375q-1.390625 0 -2.09375 1.140625q-0.6875 1.140625 -0.6875 2.796875q0 1.203125 0.328125 2.234375q0.328125 1.03125 0.984375 1.671875q0.65625 0.625 1.609375 0.625zm5.960785 -0.109375q0.53125 0 0.765625 -0.265625q0.234375 -0.265625 0.28125 -0.6875q0.046875 -0.421875 0.046875 -1.3125l0 -8.828125q0 -0.71875 0.0625 -1.21875l-1.328125 0.078125l0 -0.78125q1.109375 0 1.578125 -0.125q0.484375 -0.140625 0.75 -0.375l0.546875 0l0.015625 12.09375q0 0.734375 -0.09375 1.28125l1.171875 -0.0625l0 0.765625l-3.796875 0l0 -0.5625z" fill-rule="nonzero"></path><path fill="#000000" fill-opacity="0.0" d="m67.60341 397.88416l173.6063 0l0 81.00787l-173.6063 0z" fill-rule="evenodd"></path><path stroke="#4a86e8" stroke-width="1.0" stroke-linejoin="round" stroke-linecap="butt" stroke-dasharray="4.0,3.0" d="m67.60341 397.88416l173.6063 0l0 81.00787l-173.6063 0z" fill-rule="evenodd"></path><path fill="#ffd966" d="m85.53765 434.22046l0 0c0 -6.375183 5.1681137 -11.543304 11.543304 -11.543304l0 0c3.0614777 0 5.9975586 1.2161865 8.1623535 3.3809814c2.1647873 2.1647644 3.380951 5.1008606 3.380951 8.162323l0 0c0 6.3752136 -5.1681137 11.543335 -11.543304 11.543335l0 0c-6.3751907 0 -11.543304 -5.1681213 -11.543304 -11.543335z" fill-rule="evenodd"></path><path stroke="#f1c232" stroke-width="1.0" stroke-linejoin="round" stroke-linecap="butt" d="m85.53765 434.22046l0 0c0 -6.375183 5.1681137 -11.543304 11.543304 -11.543304l0 0c3.0614777 0 5.9975586 1.2161865 8.1623535 3.3809814c2.1647873 2.1647644 3.380951 5.1008606 3.380951 8.162323l0 0c0 6.3752136 -5.1681137 11.543335 -11.543304 11.543335l0 0c-6.3751907 0 -11.543304 -5.1681213 -11.543304 -11.543335z" fill-rule="evenodd"></path><path fill="#c27ba0" d="m117.00449 455.3701l0 0c0 -6.3752136 5.1681137 -11.543304 11.543312 -11.543304l0 0c3.0614777 0 5.9975586 1.216156 8.1623535 3.380951c2.1647797 2.164795 3.380951 5.1008606 3.380951 8.1623535l0 0c0 6.375183 -5.1681213 11.543304 -11.543304 11.543304l0 0c-6.3751984 0 -11.543312 -5.1681213 -11.543312 -11.543304z" fill-rule="evenodd"></path><path stroke="#a64d79" stroke-width="1.0" stroke-linejoin="round" stroke-linecap="butt" d="m117.00449 455.3701l0 0c0 -6.3752136 5.1681137 -11.543304 11.543312 -11.543304l0 0c3.0614777 0 5.9975586 1.216156 8.1623535 3.380951c2.1647797 2.164795 3.380951 5.1008606 3.380951 8.1623535l0 0c0 6.375183 -5.1681213 11.543304 -11.543304 11.543304l0 0c-6.3751984 0 -11.543312 -5.1681213 -11.543312 -11.543304z" fill-rule="evenodd"></path><path fill="#a2c4c9" d="m191.80695 455.3701l0 0c0 -6.3752136 5.1681213 -11.543304 11.54332 -11.543304l0 0c3.0614624 0 5.9975586 1.216156 8.162338 3.380951c2.164795 2.164795 3.3809662 5.1008606 3.3809662 8.1623535l0 0c0 6.375183 -5.1681213 11.543304 -11.543304 11.543304l0 0c-6.3751984 0 -11.54332 -5.1681213 -11.54332 -11.543304z" fill-rule="evenodd"></path><path stroke="#76a5af" stroke-width="1.0" stroke-linejoin="round" stroke-linecap="butt" d="m191.80695 455.3701l0 0c0 -6.3752136 5.1681213 -11.543304 11.54332 -11.543304l0 0c3.0614624 0 5.9975586 1.216156 8.162338 3.380951c2.164795 2.164795 3.3809662 5.1008606 3.3809662 8.1623535l0 0c0 6.375183 -5.1681213 11.543304 -11.543304 11.543304l0 0c-6.3751984 0 -11.54332 -5.1681213 -11.54332 -11.543304z" fill-rule="evenodd"></path><path fill="#d9ead3" d="m160.26662 434.22046l0 0c0 -6.375183 5.1681213 -11.543304 11.543304 -11.543304l0 0c3.0614777 0 5.9975586 1.2161865 8.1623535 3.3809814c2.164795 2.1647644 3.380951 5.1008606 3.380951 8.162323l0 0c0 6.3752136 -5.168106 11.543335 -11.543304 11.543335l0 0c-6.375183 0 -11.543304 -5.1681213 -11.543304 -11.543335z" fill-rule="evenodd"></path><path stroke="#b6d7a8" stroke-width="1.0" stroke-linejoin="round" stroke-linecap="butt" d="m160.26662 434.22046l0 0c0 -6.375183 5.1681213 -11.543304 11.543304 -11.543304l0 0c3.0614777 0 5.9975586 1.2161865 8.1623535 3.3809814c2.164795 2.1647644 3.380951 5.1008606 3.380951 8.162323l0 0c0 6.3752136 -5.168106 11.543335 -11.543304 11.543335l0 0c-6.375183 0 -11.543304 -5.1681213 -11.543304 -11.543335z" fill-rule="evenodd"></path><path fill="#000000" fill-opacity="0.0" d="m117.00394 391.54593l74.80315 0l0 36.22049l-74.80315 0z" fill-rule="evenodd"></path><path fill="#0b5394" d="m126.73831 412.90842q0.46875 -0.015625 0.65625 -0.21875q0.203125 -0.203125 0.234375 -0.46875q0.03125 -0.28125 0.03125 -0.953125l0 -5.765625q0 -0.546875 0.03125 -0.953125l-0.953125 0.046875l0 -0.578125l3.140625 -0.015625q2.515625 -0.015625 3.96875 1.171875q1.46875 1.1875 1.46875 3.515625q0 1.25 -0.59375 2.328125q-0.578125 1.0625 -1.734375 1.703125q-1.140625 0.625 -2.75 0.625l-3.5 0l0 -0.4375zm3.46875 -0.0625q1.109375 0 1.96875 -0.546875q0.875 -0.546875 1.359375 -1.5q0.484375 -0.96875 0.484375 -2.15625q0 -1.953125 -1.078125 -3.046875q-1.0625 -1.09375 -3.203125 -1.09375q-0.46875 0 -0.671875 0.1875q-0.203125 0.171875 -0.234375 0.453125q-0.015625 0.265625 -0.015625 0.953125l0 5.671875q0 0.703125 -0.046875 1.046875q0.46875 0.03125 1.4375 0.03125zm9.616913 0.71875q-0.921875 0 -1.6875 -0.4375q-0.765625 -0.4375 -1.21875 -1.203125q-0.4375 -0.78125 -0.4375 -1.75q0 -1.046875 0.4375 -1.890625q0.4375 -0.84375 1.203125 -1.328125q0.765625 -0.484375 1.703125 -0.484375q0.921875 0 1.6875 0.453125q0.78125 0.4375 1.21875 1.21875q0.453125 0.765625 0.453125 1.71875q0 1.0 -0.453125 1.859375q-0.4375 0.859375 -1.203125 1.359375q-0.765625 0.484375 -1.703125 0.484375zm0.109375 -0.53125q0.96875 0 1.421875 -0.796875q0.46875 -0.8125 0.46875 -2.0q0 -1.34375 -0.5 -2.296875q-0.5 -0.96875 -1.5 -0.96875q-0.984375 0 -1.484375 0.8125q-0.5 0.8125 -0.5 2.0q0 0.859375 0.234375 1.609375q0.234375 0.734375 0.703125 1.1875q0.46875 0.453125 1.15625 0.453125zm4.390671 -0.09375q0.375 0 0.546875 -0.1875q0.171875 -0.1875 0.203125 -0.484375q0.03125 -0.3125 0.03125 -0.953125l0 -3.03125q0 -0.5625 0.046875 -0.875l-0.9375 0.0625l0 -0.5625q0.78125 0 1.078125 -0.078125q0.296875 -0.09375 0.484375 -0.28125l0.390625 0q0.03125 0.203125 0.0625 0.703125q0.40625 -0.359375 0.921875 -0.5625q0.515625 -0.21875 1.03125 -0.21875q0.65625 0 1.109375 0.234375q0.46875 0.234375 0.71875 0.65625q0.46875 -0.390625 1.0625 -0.640625q0.59375 -0.25 1.140625 -0.25q1.171875 0 1.71875 0.71875q0.546875 0.703125 0.515625 2.265625l-0.015625 2.484375q0 0.59375 -0.046875 0.90625l0.828125 -0.046875l0 0.546875l-2.71875 0l0 -0.40625q0.390625 0 0.546875 -0.1875q0.171875 -0.1875 0.203125 -0.484375q0.046875 -0.3125 0.046875 -0.953125l0 -1.859375q0 -1.140625 -0.359375 -1.703125q-0.359375 -0.578125 -1.140625 -0.578125q-0.40625 0 -0.828125 0.1875q-0.421875 0.171875 -0.75 0.46875q0.140625 0.40625 0.140625 0.96875l-0.03125 3.140625q0 0.59375 -0.046875 0.90625l0.84375 -0.046875l0 0.546875l-2.71875 0l0 -0.40625q0.375 0 0.546875 -0.1875q0.171875 -0.1875 0.1875 -0.46875q0.03125 -0.296875 0.046875 -0.96875l0.015625 -1.859375q0.015625 -1.15625 -0.34375 -1.734375q-0.34375 -0.578125 -1.09375 -0.578125q-0.421875 0 -0.828125 0.1875q-0.40625 0.171875 -0.703125 0.453125l0.015625 0.71875l0 3.4375q0 0.59375 -0.046875 0.90625l0.84375 -0.046875l0 0.546875l-2.71875 0l0 -0.40625zm13.774673 0.625q-0.96875 0 -1.484375 -0.4375q-0.515625 -0.453125 -0.515625 -1.15625q0 -0.765625 0.609375 -1.296875q0.625 -0.546875 1.5625 -0.796875q0.953125 -0.265625 1.890625 -0.25l0 -0.828125q0 -0.859375 -0.25 -1.34375q-0.25 -0.5 -1.078125 -0.5q-0.421875 0 -0.796875 0.1875q-0.359375 0.171875 -0.53125 0.515625q0.171875 0.1875 0.171875 0.5q0 0.203125 -0.15625 0.390625q-0.140625 0.171875 -0.421875 0.171875q-0.28125 0 -0.4375 -0.171875q-0.15625 -0.1875 -0.15625 -0.484375q0 -0.4375 0.328125 -0.796875q0.34375 -0.375 0.953125 -0.578125q0.609375 -0.21875 1.34375 -0.21875q1.125 0 1.65625 0.59375q0.53125 0.59375 0.53125 1.875l-0.015625 3.0q0 0.421875 -0.0625 0.90625l0.953125 -0.0625l0 0.5625l-1.90625 0q-0.046875 -0.203125 -0.09375 -0.765625q-0.96875 0.984375 -2.09375 0.984375zm0.3125 -0.765625q0.5 0 0.90625 -0.1875q0.421875 -0.203125 0.84375 -0.59375q-0.015625 -0.203125 -0.015625 -0.6875l0.015625 -1.25q-1.09375 0.046875 -1.953125 0.453125q-0.84375 0.40625 -0.84375 1.234375q0 0.5 0.296875 0.765625q0.296875 0.265625 0.75 0.265625zm6.017914 -7.5625q-0.28125 0 -0.5 -0.234375q-0.203125 -0.234375 -0.203125 -0.5625q0 -0.3125 0.21875 -0.546875q0.21875 -0.25 0.5 -0.25q0.296875 0 0.5 0.234375q0.21875 0.234375 0.21875 0.5625q0 0.328125 -0.21875 0.5625q-0.21875 0.234375 -0.515625 0.234375zm-1.3125 7.703125q0.375 0 0.546875 -0.1875q0.171875 -0.1875 0.203125 -0.484375q0.03125 -0.3125 0.03125 -0.953125l0 -3.03125q0 -0.390625 0.046875 -0.875l-0.9375 0.0625l0 -0.5625q0.78125 0 1.125 -0.09375q0.34375 -0.09375 0.515625 -0.265625l0.390625 0l0 5.390625q0 0.59375 -0.046875 0.90625l0.84375 -0.046875l0 0.546875l-2.71875 0l0 -0.40625zm3.7451935 0q0.375 0 0.546875 -0.1875q0.171875 -0.1875 0.1875 -0.46875q0.03125 -0.296875 0.046875 -0.96875l0.015625 -3.03125q0 -0.5625 0.046875 -0.875l-0.9375 0.0625l0 -0.5625q0.78125 0 1.0625 -0.078125q0.296875 -0.09375 0.5 -0.28125l0.390625 0q0.03125 0.25 0.046875 0.8125q0.453125 -0.40625 1.03125 -0.640625q0.59375 -0.25 1.140625 -0.25q1.171875 0 1.703125 0.734375q0.53125 0.71875 0.53125 2.25l0 2.484375q0 0.59375 -0.0625 0.90625l0.84375 -0.046875l0 0.546875l-2.71875 0l0 -0.40625q0.390625 0 0.546875 -0.1875q0.171875 -0.1875 0.203125 -0.484375q0.03125 -0.3125 0.03125 -0.953125l0 -1.859375q0 -1.140625 -0.359375 -1.71875q-0.359375 -0.59375 -1.140625 -0.59375q-0.484375 0 -0.953125 0.25q-0.46875 0.234375 -0.78125 0.625q0.015625 0.140625 0.015625 0.515625l-0.015625 3.40625q0 0.59375 -0.046875 0.90625l0.84375 -0.046875l0 0.546875l-2.71875 0l0 -0.40625zm10.808899 0.625q-0.625 0 -1.140625 -0.171875q-0.515625 -0.171875 -0.890625 -0.421875l0.046875 0.46875l-0.5625 0l-0.078125 -2.296875l0.421875 0q0.03125 0.546875 0.296875 0.984375q0.265625 0.421875 0.71875 0.671875q0.453125 0.234375 0.953125 0.234375q0.578125 0 1.015625 -0.265625q0.453125 -0.28125 0.453125 -0.78125q0 -0.375 -0.21875 -0.625q-0.21875 -0.25 -0.546875 -0.421875q-0.328125 -0.171875 -0.921875 -0.390625q-0.703125 -0.265625 -1.125 -0.5q-0.421875 -0.234375 -0.734375 -0.625q-0.3125 -0.40625 -0.3125 -1.015625q0 -0.453125 0.21875 -0.890625q0.21875 -0.4375 0.71875 -0.734375q0.5 -0.3125 1.34375 -0.3125q0.421875 0 0.84375 0.140625q0.4375 0.125 0.8125 0.4375l-0.03125 -0.515625l0.5625 0l0 2.328125l-0.421875 0q-0.046875 -0.765625 -0.484375 -1.328125q-0.421875 -0.578125 -1.21875 -0.578125q-0.59375 0 -0.953125 0.3125q-0.34375 0.296875 -0.34375 0.703125q0 0.390625 0.234375 0.65625q0.234375 0.265625 0.578125 0.453125q0.34375 0.1875 0.9375 0.40625q0.6875 0.28125 1.109375 0.53125q0.4375 0.234375 0.734375 0.625q0.296875 0.390625 0.296875 0.953125q0 0.640625 -0.328125 1.078125q-0.328125 0.4375 -0.859375 0.671875q-0.515625 0.21875 -1.125 0.21875z" fill-rule="nonzero"></path><path fill="#cfe2f3" d="m414.05643 355.08136l214.64566 0l0 147.52756l-214.64566 0z" fill-rule="evenodd"></path><path stroke="#9fc5e8" stroke-width="1.0" stroke-linejoin="round" stroke-linecap="butt" d="m414.05643 355.08136l214.64566 0l0 147.52756l-214.64566 0z" fill-rule="evenodd"></path><path fill="#000000" fill-opacity="0.0" d="m454.48425 358.3701l131.1181 0l0 36.22046l-131.1181 0z" fill-rule="evenodd"></path><path fill="#000000" d="m465.43738 375.5557l-0.234375 -0.734375q-0.453125 -1.390625 -0.546875 -1.8125l-1.046875 0.046875l0 -0.828125l4.546875 0l0 0.625q-0.765625 0.03125 -1.09375 0.25q-0.3125 0.203125 -0.3125 0.6875q0 0.453125 0.1875 1.09375q0.328125 1.25 0.890625 2.796875q0.09375 0.28125 0.21875 0.671875q0.140625 0.375 0.3125 0.875q0.109375 0.390625 0.265625 0.859375q0.171875 0.46875 0.25 0.671875q0.375 1.0 0.5625 1.609375l0.03125 0q0.375 -1.28125 0.765625 -2.46875q0.671875 -2.171875 1.484375 -4.578125q0.828125 -2.515625 1.0 -3.125l0.59375 0q0.234375 0.765625 0.765625 2.40625q0.546875 1.625 0.78125 2.34375q0.5625 1.609375 0.765625 2.28125q0.15625 0.5 0.484375 1.515625q0.375 1.078125 0.609375 1.84375l0.046875 0q0.453125 -1.453125 0.765625 -2.40625q0.953125 -2.703125 1.546875 -4.671875q0.203125 -0.6875 0.375 -1.15625q0.359375 -0.953125 0.578125 -1.359375l-1.484375 0.0625l0 -0.828125l3.78125 0l0 0.625q-0.671875 0.0625 -1.015625 0.28125q-0.34375 0.203125 -0.625 0.734375q-0.265625 0.53125 -0.671875 1.734375l-0.953125 2.84375q-1.5 4.53125 -2.40625 7.03125l-0.5625 0l-3.484375 -9.984375l-3.28125 9.984375l-0.546875 0l-3.34375 -9.921875zm22.062958 10.03125q-1.296875 0 -2.375 -0.609375q-1.0625 -0.609375 -1.6875 -1.6875q-0.625 -1.078125 -0.625 -2.4375q0 -1.453125 0.609375 -2.640625q0.625 -1.1875 1.6875 -1.859375q1.078125 -0.6875 2.390625 -0.6875q1.28125 0 2.359375 0.625q1.09375 0.625 1.71875 1.703125q0.625 1.078125 0.625 2.40625q0 1.421875 -0.625 2.625q-0.625 1.1875 -1.703125 1.875q-1.078125 0.6875 -2.375 0.6875zm0.140625 -0.75q1.359375 0 2.0 -1.109375q0.65625 -1.125 0.65625 -2.78125q0 -1.890625 -0.703125 -3.234375q-0.703125 -1.34375 -2.09375 -1.34375q-1.390625 0 -2.09375 1.140625q-0.6875 1.140625 -0.6875 2.796875q0 1.203125 0.328125 2.234375q0.328125 1.03125 0.984375 1.671875q0.65625 0.625 1.609375 0.625zm6.148285 -0.109375q0.53125 0 0.765625 -0.265625q0.234375 -0.265625 0.28125 -0.6875q0.046875 -0.421875 0.046875 -1.3125l0 -4.265625q0 -0.78125 0.078125 -1.203125l-1.328125 0.046875l0 -0.765625l0.578125 0q0.703125 0 1.015625 -0.109375q0.328125 -0.125 0.609375 -0.390625l0.546875 0q0.0625 0.734375 0.078125 1.84375q0.46875 -0.765625 1.328125 -1.359375q0.875 -0.59375 1.8125 -0.59375q0.5625 0 0.9375 0.296875q0.375 0.296875 0.375 0.875q0 0.296875 -0.234375 0.59375q-0.234375 0.296875 -0.671875 0.296875q-0.40625 0 -0.671875 -0.296875q-0.25 -0.3125 -0.203125 -0.734375q-0.703125 -0.03125 -1.421875 0.53125q-0.71875 0.5625 -1.21875 1.5l0.015625 4.578125q0 0.84375 -0.078125 1.28125l1.171875 -0.0625l0 0.765625l-3.8125 0l0 -0.5625zm7.9062805 0q0.53125 0 0.765625 -0.265625q0.234375 -0.265625 0.265625 -0.671875q0.046875 -0.421875 0.046875 -1.328125q0 -0.1875 0 -2.03125q0.015625 -1.859375 0.015625 -6.796875q0 -0.71875 0.0625 -1.21875l-1.328125 0.078125l0 -0.78125q1.09375 0 1.5625 -0.125q0.484375 -0.140625 0.75 -0.375l0.546875 0l0 8.8125l0.734375 0l2.28125 -2.390625q0.71875 -0.734375 1.109375 -0.984375l-1.28125 0.0625l0 -0.75l3.40625 0l0 0.5625q-0.828125 0.09375 -1.5 0.59375q-0.671875 0.5 -1.484375 1.359375l-1.453125 1.53125q0.328125 0.15625 0.578125 0.390625q0.25 0.21875 0.578125 0.625l1.3125 1.6875q0.046875 0.046875 0.421875 0.578125q0.390625 0.53125 0.921875 0.984375q0.53125 0.453125 0.921875 0.453125l0 0.5625l-1.703125 0q-0.4375 0 -0.84375 -0.390625q-0.390625 -0.390625 -1.125 -1.359375l-0.734375 -1.03125q-0.40625 -0.578125 -0.78125 -1.0625q-0.359375 -0.5 -0.59375 -0.734375l-0.765625 0.046875l0 2.546875q0 0.84375 -0.078125 1.28125l1.1875 -0.0625l0 0.765625l-3.796875 0l0 -0.5625zm14.690277 0.859375q-1.28125 0 -2.3125 -0.609375q-1.03125 -0.609375 -1.640625 -1.734375q-0.59375 -1.125 -0.59375 -2.59375q0 -1.3125 0.59375 -2.453125q0.609375 -1.15625 1.671875 -1.84375q1.078125 -0.6875 2.4375 -0.6875q1.0625 0 1.921875 0.46875q0.859375 0.46875 1.359375 1.390625q0.5 0.921875 0.5 2.265625l-6.5625 0.109375q-0.015625 2.234375 0.734375 3.484375q0.765625 1.25 2.34375 1.25q0.859375 0 1.765625 -0.4375q0.90625 -0.453125 1.390625 -1.109375l0.453125 0.375q-0.71875 1.078125 -1.84375 1.609375q-1.125 0.515625 -2.21875 0.515625zm2.1875 -6.46875q0 -1.125 -0.5 -1.921875q-0.5 -0.8125 -1.515625 -0.8125q-2.3125 0 -2.734375 2.734375l4.75 0zm3.4241943 5.609375q0.53125 0 0.765625 -0.265625q0.234375 -0.265625 0.28125 -0.6875q0.046875 -0.421875 0.046875 -1.3125l0 -4.265625q0 -0.78125 0.078125 -1.203125l-1.328125 0.046875l0 -0.765625l0.578125 0q0.703125 0 1.015625 -0.109375q0.328125 -0.125 0.609375 -0.390625l0.546875 0q0.0625 0.734375 0.078125 1.84375q0.46875 -0.765625 1.328125 -1.359375q0.875 -0.59375 1.8125 -0.59375q0.5625 0 0.9375 0.296875q0.375 0.296875 0.375 0.875q0 0.296875 -0.234375 0.59375q-0.234375 0.296875 -0.671875 0.296875q-0.40625 0 -0.671875 -0.296875q-0.25 -0.3125 -0.203125 -0.734375q-0.703125 -0.03125 -1.421875 0.53125q-0.71875 0.5625 -1.21875 1.5l0.015625 4.578125q0 0.84375 -0.078125 1.28125l1.171875 -0.0625l0 0.765625l-3.8125 0l0 -0.5625zm13.187866 -0.046875q0.640625 -0.03125 0.921875 -0.296875q0.28125 -0.28125 0.3125 -0.65625q0.046875 -0.390625 0.046875 -1.34375l0 -8.0625q0 -0.78125 0.0625 -1.34375l-1.34375 0.078125l0 -0.828125q2.609375 -0.03125 4.15625 -0.03125q2.78125 0 4.203125 0.96875q1.4375 0.96875 1.4375 2.859375q0 1.078125 -0.578125 2.0625q-0.5625 0.984375 -1.953125 1.640625q-1.390625 0.65625 -3.6875 0.65625q-0.4375 0 -0.671875 -0.015625l0 2.703125q0 0.984375 -0.0625 1.46875l1.71875 -0.09375l0 0.84375l-4.5625 0l0 -0.609375zm4.125 -5.03125q1.0625 0 1.9375 -0.40625q0.890625 -0.421875 1.40625 -1.21875q0.515625 -0.796875 0.515625 -1.859375q0 -1.671875 -1.03125 -2.453125q-1.03125 -0.796875 -2.828125 -0.796875q-0.640625 0 -0.890625 0.265625q-0.25 0.265625 -0.296875 0.625q-0.03125 0.359375 -0.03125 1.328125l0 4.46875q0.46875 0.046875 1.21875 0.046875zm11.6026 5.9375q-1.296875 0 -2.375 -0.609375q-1.0625 -0.609375 -1.6875 -1.6875q-0.625 -1.078125 -0.625 -2.4375q0 -1.453125 0.609375 -2.640625q0.625 -1.1875 1.6875 -1.859375q1.078125 -0.6875 2.390625 -0.6875q1.28125 0 2.359375 0.625q1.09375 0.625 1.71875 1.703125q0.625 1.078125 0.625 2.40625q0 1.421875 -0.625 2.625q-0.625 1.1875 -1.703125 1.875q-1.078125 0.6875 -2.375 0.6875zm0.140625 -0.75q1.359375 0 2.0 -1.109375q0.65625 -1.125 0.65625 -2.78125q0 -1.890625 -0.703125 -3.234375q-0.703125 -1.34375 -2.09375 -1.34375q-1.390625 0 -2.09375 1.140625q-0.6875 1.140625 -0.6875 2.796875q0 1.203125 0.328125 2.234375q0.328125 1.03125 0.984375 1.671875q0.65625 0.625 1.609375 0.625zm10.773254 0.75q-1.296875 0 -2.375 -0.609375q-1.0625 -0.609375 -1.6875 -1.6875q-0.625 -1.078125 -0.625 -2.4375q0 -1.453125 0.609375 -2.640625q0.625 -1.1875 1.6875 -1.859375q1.078125 -0.6875 2.390625 -0.6875q1.28125 0 2.359375 0.625q1.09375 0.625 1.71875 1.703125q0.625 1.078125 0.625 2.40625q0 1.421875 -0.625 2.625q-0.625 1.1875 -1.703125 1.875q-1.078125 0.6875 -2.375 0.6875zm0.140625 -0.75q1.359375 0 2.0 -1.109375q0.65625 -1.125 0.65625 -2.78125q0 -1.890625 -0.703125 -3.234375q-0.703125 -1.34375 -2.09375 -1.34375q-1.390625 0 -2.09375 1.140625q-0.6875 1.140625 -0.6875 2.796875q0 1.203125 0.328125 2.234375q0.328125 1.03125 0.984375 1.671875q0.65625 0.625 1.609375 0.625zm5.9608154 -0.109375q0.53125 0 0.765625 -0.265625q0.234375 -0.265625 0.28125 -0.6875q0.046875 -0.421875 0.046875 -1.3125l0 -8.828125q0 -0.71875 0.0625 -1.21875l-1.328125 0.078125l0 -0.78125q1.109375 0 1.578125 -0.125q0.484375 -0.140625 0.75 -0.375l0.546875 0l0.015625 12.09375q0 0.734375 -0.09375 1.28125l1.171875 -0.0625l0 0.765625l-3.796875 0l0 -0.5625z" fill-rule="nonzero"></path><path fill="#000000" fill-opacity="0.0" d="m433.2412 397.88416l173.60626 0l0 81.00787l-173.60626 0z" fill-rule="evenodd"></path><path stroke="#4a86e8" stroke-width="1.0" stroke-linejoin="round" stroke-linecap="butt" stroke-dasharray="4.0,3.0" d="m433.2412 397.88416l173.60626 0l0 81.00787l-173.60626 0z" fill-rule="evenodd"></path><path fill="#ead1dc" d="m486.80798 434.22046l0 0c0 -6.375183 5.1681213 -11.543304 11.543304 -11.543304l0 0c3.061493 0 5.9975586 1.2161865 8.1623535 3.3809814c2.164795 2.1647644 3.380951 5.1008606 3.380951 8.162323l0 0c0 6.3752136 -5.168091 11.543335 -11.543304 11.543335l0 0c-6.375183 0 -11.543304 -5.1681213 -11.543304 -11.543335z" fill-rule="evenodd"></path><path stroke="#b4a7d6" stroke-width="1.0" stroke-linejoin="round" stroke-linecap="butt" d="m486.80798 434.22046l0 0c0 -6.375183 5.1681213 -11.543304 11.543304 -11.543304l0 0c3.061493 0 5.9975586 1.2161865 8.1623535 3.3809814c2.164795 2.1647644 3.380951 5.1008606 3.380951 8.162323l0 0c0 6.3752136 -5.168091 11.543335 -11.543304 11.543335l0 0c-6.375183 0 -11.543304 -5.1681213 -11.543304 -11.543335z" fill-rule="evenodd"></path><path fill="#fce5cd" d="m523.30237 455.3701l0 0c0 -6.3752136 5.168152 -11.543304 11.543335 -11.543304l0 0c3.0614624 0 5.9975586 1.216156 8.1623535 3.380951c2.164795 2.164795 3.3809814 5.1008606 3.3809814 8.1623535l0 0c0 6.375183 -5.168152 11.543304 -11.543335 11.543304l0 0c-6.375183 0 -11.543335 -5.1681213 -11.543335 -11.543304z" fill-rule="evenodd"></path><path stroke="#f9cb9c" stroke-width="1.0" stroke-linejoin="round" stroke-linecap="butt" d="m523.30237 455.3701l0 0c0 -6.3752136 5.168152 -11.543304 11.543335 -11.543304l0 0c3.0614624 0 5.9975586 1.216156 8.1623535 3.380951c2.164795 2.164795 3.3809814 5.1008606 3.3809814 8.1623535l0 0c0 6.375183 -5.168152 11.543304 -11.543335 11.543304l0 0c-6.375183 0 -11.543335 -5.1681213 -11.543335 -11.543304z" fill-rule="evenodd"></path><path fill="#ea9999" d="m454.48413 455.3701l0 0c0 -6.3752136 5.168091 -11.543304 11.543304 -11.543304l0 0c3.0614624 0 5.9975586 1.216156 8.1623535 3.380951c2.1647644 2.164795 3.380951 5.1008606 3.380951 8.1623535l0 0c0 6.375183 -5.1681213 11.543304 -11.543304 11.543304l0 0c-6.3752136 0 -11.543304 -5.1681213 -11.543304 -11.543304z" fill-rule="evenodd"></path><path stroke="#cc0000" stroke-width="1.0" stroke-linejoin="round" stroke-linecap="butt" d="m454.48413 455.3701l0 0c0 -6.3752136 5.168091 -11.543304 11.543304 -11.543304l0 0c3.0614624 0 5.9975586 1.216156 8.1623535 3.380951c2.1647644 2.164795 3.380951 5.1008606 3.380951 8.1623535l0 0c0 6.375183 -5.1681213 11.543304 -11.543304 11.543304l0 0c-6.3752136 0 -11.543304 -5.1681213 -11.543304 -11.543304z" fill-rule="evenodd"></path><path fill="#dd7e6b" d="m559.79944 434.22046l0 0c0 -6.375183 5.168091 -11.543304 11.543274 -11.543304l0 0c3.0615234 0 5.9975586 1.2161865 8.1623535 3.3809814c2.164795 2.1647644 3.3809814 5.1008606 3.3809814 8.162323l0 0c0 6.3752136 -5.168152 11.543335 -11.543335 11.543335l0 0c-6.375183 0 -11.543274 -5.1681213 -11.543274 -11.543335z" fill-rule="evenodd"></path><path stroke="#cc4125" stroke-width="1.0" stroke-linejoin="round" stroke-linecap="butt" d="m559.79944 434.22046l0 0c0 -6.375183 5.168091 -11.543304 11.543274 -11.543304l0 0c3.0615234 0 5.9975586 1.2161865 8.1623535 3.3809814c2.164795 2.1647644 3.3809814 5.1008606 3.3809814 8.162323l0 0c0 6.3752136 -5.168152 11.543335 -11.543335 11.543335l0 0c-6.375183 0 -11.543274 -5.1681213 -11.543274 -11.543335z" fill-rule="evenodd"></path><path fill="#000000" fill-opacity="0.0" d="m482.64172 391.54593l74.80316 0l0 36.22049l-74.80316 0z" fill-rule="evenodd"></path><path fill="#0b5394" d="m492.3761 412.90842q0.46875 -0.015625 0.65625 -0.21875q0.203125 -0.203125 0.234375 -0.46875q0.03125 -0.28125 0.03125 -0.953125l0 -5.765625q0 -0.546875 0.03125 -0.953125l-0.953125 0.046875l0 -0.578125l3.140625 -0.015625q2.515625 -0.015625 3.96875 1.171875q1.46875 1.1875 1.46875 3.515625q0 1.25 -0.59375 2.328125q-0.578125 1.0625 -1.734375 1.703125q-1.140625 0.625 -2.75 0.625l-3.5 0l0 -0.4375zm3.46875 -0.0625q1.109375 0 1.96875 -0.546875q0.875 -0.546875 1.359375 -1.5q0.484375 -0.96875 0.484375 -2.15625q0 -1.953125 -1.078125 -3.046875q-1.0625 -1.09375 -3.203125 -1.09375q-0.46875 0 -0.671875 0.1875q-0.203125 0.171875 -0.234375 0.453125q-0.015625 0.265625 -0.015625 0.953125l0 5.671875q0 0.703125 -0.046875 1.046875q0.46875 0.03125 1.4375 0.03125zm9.616913 0.71875q-0.921875 0 -1.6875 -0.4375q-0.765625 -0.4375 -1.21875 -1.203125q-0.4375 -0.78125 -0.4375 -1.75q0 -1.046875 0.4375 -1.890625q0.4375 -0.84375 1.203125 -1.328125q0.765625 -0.484375 1.703125 -0.484375q0.921875 0 1.6875 0.453125q0.78125 0.4375 1.21875 1.21875q0.453125 0.765625 0.453125 1.71875q0 1.0 -0.453125 1.859375q-0.4375 0.859375 -1.203125 1.359375q-0.765625 0.484375 -1.703125 0.484375zm0.109375 -0.53125q0.96875 0 1.421875 -0.796875q0.46875 -0.8125 0.46875 -2.0q0 -1.34375 -0.5 -2.296875q-0.5 -0.96875 -1.5 -0.96875q-0.984375 0 -1.484375 0.8125q-0.5 0.8125 -0.5 2.0q0 0.859375 0.234375 1.609375q0.234375 0.734375 0.703125 1.1875q0.46875 0.453125 1.15625 0.453125zm4.390686 -0.09375q0.375 0 0.546875 -0.1875q0.171875 -0.1875 0.203125 -0.484375q0.03125 -0.3125 0.03125 -0.953125l0 -3.03125q0 -0.5625 0.046875 -0.875l-0.9375 0.0625l0 -0.5625q0.78125 0 1.078125 -0.078125q0.296875 -0.09375 0.484375 -0.28125l0.390625 0q0.03125 0.203125 0.0625 0.703125q0.40621948 -0.359375 0.9218445 -0.5625q0.515625 -0.21875 1.03125 -0.21875q0.65625 0 1.109375 0.234375q0.46875 0.234375 0.71875 0.65625q0.46875 -0.390625 1.0625 -0.640625q0.59375 -0.25 1.140625 -0.25q1.171875 0 1.71875 0.71875q0.546875 0.703125 0.515625 2.265625l-0.015625 2.484375q0 0.59375 -0.046875 0.90625l0.828125 -0.046875l0 0.546875l-2.71875 0l0 -0.40625q0.390625 0 0.546875 -0.1875q0.171875 -0.1875 0.203125 -0.484375q0.046875 -0.3125 0.046875 -0.953125l0 -1.859375q0 -1.140625 -0.359375 -1.703125q-0.359375 -0.578125 -1.140625 -0.578125q-0.40625 0 -0.828125 0.1875q-0.421875 0.171875 -0.75 0.46875q0.140625 0.40625 0.140625 0.96875l-0.03125 3.140625q0 0.59375 -0.046875 0.90625l0.84375 -0.046875l0 0.546875l-2.71875 0l0 -0.40625q0.375 0 0.546875 -0.1875q0.171875 -0.1875 0.1875 -0.46875q0.03125 -0.296875 0.046875 -0.96875l0.015625 -1.859375q0.015625 -1.15625 -0.34375 -1.734375q-0.34375 -0.578125 -1.09375 -0.578125q-0.421875 0 -0.828125 0.1875q-0.40625 0.171875 -0.7030945 0.453125l0.015625 0.71875l0 3.4375q0 0.59375 -0.046875 0.90625l0.8437195 -0.046875l0 0.546875l-2.7187195 0l0 -0.40625zm13.774689 0.625q-0.96875 0 -1.484375 -0.4375q-0.515625 -0.453125 -0.515625 -1.15625q0 -0.765625 0.609375 -1.296875q0.625 -0.546875 1.5625 -0.796875q0.953125 -0.265625 1.890625 -0.25l0 -0.828125q0 -0.859375 -0.25 -1.34375q-0.25 -0.5 -1.078125 -0.5q-0.421875 0 -0.796875 0.1875q-0.359375 0.171875 -0.53125 0.515625q0.171875 0.1875 0.171875 0.5q0 0.203125 -0.15625 0.390625q-0.140625 0.171875 -0.421875 0.171875q-0.28125 0 -0.4375 -0.171875q-0.15625 -0.1875 -0.15625 -0.484375q0 -0.4375 0.328125 -0.796875q0.34375 -0.375 0.953125 -0.578125q0.609375 -0.21875 1.34375 -0.21875q1.125 0 1.65625 0.59375q0.53125 0.59375 0.53125 1.875l-0.015625 3.0q0 0.421875 -0.0625 0.90625l0.953125 -0.0625l0 0.5625l-1.90625 0q-0.046875 -0.203125 -0.09375 -0.765625q-0.96875 0.984375 -2.09375 0.984375zm0.3125 -0.765625q0.5 0 0.90625 -0.1875q0.421875 -0.203125 0.84375 -0.59375q-0.015625 -0.203125 -0.015625 -0.6875l0.015625 -1.25q-1.09375 0.046875 -1.953125 0.453125q-0.84375 0.40625 -0.84375 1.234375q0 0.5 0.296875 0.765625q0.296875 0.265625 0.75 0.265625zm6.0178833 -7.5625q-0.28125 0 -0.5 -0.234375q-0.203125 -0.234375 -0.203125 -0.5625q0 -0.3125 0.21875 -0.546875q0.21875 -0.25 0.5 -0.25q0.296875 0 0.5 0.234375q0.21875 0.234375 0.21875 0.5625q0 0.328125 -0.21875 0.5625q-0.21875 0.234375 -0.515625 0.234375zm-1.3125 7.703125q0.375 0 0.546875 -0.1875q0.171875 -0.1875 0.203125 -0.484375q0.03125 -0.3125 0.03125 -0.953125l0 -3.03125q0 -0.390625 0.046875 -0.875l-0.9375 0.0625l0 -0.5625q0.78125 0 1.125 -0.09375q0.34375 -0.09375 0.515625 -0.265625l0.390625 0l0 5.390625q0 0.59375 -0.046875 0.90625l0.84375 -0.046875l0 0.546875l-2.71875 0l0 -0.40625zm3.7451782 0q0.375 0 0.546875 -0.1875q0.171875 -0.1875 0.1875 -0.46875q0.03125 -0.296875 0.046875 -0.96875l0.015625 -3.03125q0 -0.5625 0.046875 -0.875l-0.9375 0.0625l0 -0.5625q0.78125 0 1.0625 -0.078125q0.296875 -0.09375 0.5 -0.28125l0.390625 0q0.03125 0.25 0.046875 0.8125q0.453125 -0.40625 1.03125 -0.640625q0.59375 -0.25 1.140625 -0.25q1.171875 0 1.703125 0.734375q0.53125 0.71875 0.53125 2.25l0 2.484375q0 0.59375 -0.0625 0.90625l0.84375 -0.046875l0 0.546875l-2.71875 0l0 -0.40625q0.390625 0 0.546875 -0.1875q0.171875 -0.1875 0.203125 -0.484375q0.03125 -0.3125 0.03125 -0.953125l0 -1.859375q0 -1.140625 -0.359375 -1.71875q-0.359375 -0.59375 -1.140625 -0.59375q-0.484375 0 -0.953125 0.25q-0.46875 0.234375 -0.78125 0.625q0.015625 0.140625 0.015625 0.515625l-0.015625 3.40625q0 0.59375 -0.046875 0.90625l0.84375 -0.046875l0 0.546875l-2.71875 0l0 -0.40625zm10.808899 0.625q-0.625 0 -1.140625 -0.171875q-0.515625 -0.171875 -0.890625 -0.421875l0.046875 0.46875l-0.5625 0l-0.078125 -2.296875l0.421875 0q0.03125 0.546875 0.296875 0.984375q0.265625 0.421875 0.71875 0.671875q0.453125 0.234375 0.953125 0.234375q0.578125 0 1.015625 -0.265625q0.453125 -0.28125 0.453125 -0.78125q0 -0.375 -0.21875 -0.625q-0.21875 -0.25 -0.546875 -0.421875q-0.328125 -0.171875 -0.921875 -0.390625q-0.703125 -0.265625 -1.125 -0.5q-0.421875 -0.234375 -0.734375 -0.625q-0.3125 -0.40625 -0.3125 -1.015625q0 -0.453125 0.21875 -0.890625q0.21875 -0.4375 0.71875 -0.734375q0.5 -0.3125 1.34375 -0.3125q0.421875 0 0.84375 0.140625q0.4375 0.125 0.8125 0.4375l-0.03125 -0.515625l0.5625 0l0 2.328125l-0.421875 0q-0.046875 -0.765625 -0.484375 -1.328125q-0.421875 -0.578125 -1.21875 -0.578125q-0.59375 0 -0.953125 0.3125q-0.34375 0.296875 -0.34375 0.703125q0 0.390625 0.234375 0.65625q0.234375 0.265625 0.578125 0.453125q0.34375 0.1875 0.9375 0.40625q0.6875 0.28125 1.109375 0.53125q0.4375 0.234375 0.734375 0.625q0.296875 0.390625 0.296875 0.953125q0 0.640625 -0.328125 1.078125q-0.328125 0.4375 -0.859375 0.671875q-0.515625 0.21875 -1.125 0.21875z" fill-rule="nonzero"></path><path fill="#000000" fill-opacity="0.0" d="m85.549866 263.7638c0 22.828125 17.551186 34.24289 35.102364 45.65628c17.551186 11.413361 35.102364 22.825378 35.102364 45.650787" fill-rule="evenodd"></path><path stroke="#000000" stroke-width="1.0" stroke-linejoin="round" stroke-linecap="butt" d="m85.97739 269.74854l0.0207901 0.14413452c0.09802246 0.6496277 0.21157074 1.2891846 0.3401184 1.9189453c0.5141983 2.5191345 1.2683563 4.8822327 2.22818 7.1115723c1.9196625 4.458679 4.662033 8.382355 7.952881 11.94928c6.5816956 7.1338806 15.357285 12.840912 24.132874 18.547607c8.775597 5.7066956 17.551186 11.413025 24.132881 18.545898c3.2908478 3.5664368 6.0332184 7.4894714 7.952881 11.94751c0.9598236 2.229004 1.713974 4.5917664 2.22818 7.1105347c0.12854004 0.6297302 0.24209595 1.269165 0.34010315 1.9187317l0.020706177 0.14337158" fill-rule="evenodd"></path><path fill="#000000" stroke="#000000" stroke-width="1.0" stroke-linecap="butt" d="m87.624916 269.63083l-1.9708862 -4.4088745l-1.3241806 4.6442566z" fill-rule="evenodd"></path><path fill="#000000" stroke="#000000" stroke-width="1.0" stroke-linecap="butt" d="m153.67944 349.20386l1.9709625 4.4088135l1.3240967 -4.6442566z" fill-rule="evenodd"></path><path fill="#000000" fill-opacity="0.0" d="m591.5696 263.7638c0 22.828125 -17.551208 34.24289 -35.102417 45.65628c-17.551147 11.413361 -35.102356 22.825378 -35.102356 45.650787" fill-rule="evenodd"></path><path stroke="#000000" stroke-width="1.0" stroke-linejoin="round" stroke-linecap="butt" d="m591.1421 269.74854l-0.020874023 0.14413452c-0.09802246 0.6496277 -0.21154785 1.2891846 -0.3400879 1.9189453c-0.51416016 2.5191345 -1.2683105 4.8822327 -2.2282104 7.1115723c-1.9196167 4.458679 -4.6619873 8.382355 -7.952881 11.94928c-6.581665 7.1338806 -15.357239 12.840912 -24.132874 18.547607c-8.775574 5.7066956 -17.551147 11.413025 -24.132874 18.545898c-3.2908325 3.5664368 -6.033203 7.4894714 -7.952881 11.94751c-0.95983887 2.229004 -1.7139893 4.5917664 -2.2281494 7.1105347c-0.12854004 0.6297302 -0.24206543 1.269165 -0.3400879 1.9187317l-0.020751953 0.14337158" fill-rule="evenodd"></path><path fill="#000000" stroke="#000000" stroke-width="1.0" stroke-linecap="butt" d="m592.78955 269.8662l-1.3241577 -4.6442566l-1.9708862 4.4088745z" fill-rule="evenodd"></path><path fill="#000000" stroke="#000000" stroke-width="1.0" stroke-linecap="butt" d="m520.1449 348.9684l1.3240967 4.6442566l1.9710083 -4.4088135z" fill-rule="evenodd"></path></g></svg>

