<svg version="1.1" viewBox="0.0 0.0 488.1706036745407 337.16272965879267" fill="none" stroke="none" stroke-linecap="square" stroke-miterlimit="10" xmlns:xlink="http://www.w3.org/1999/xlink" xmlns="http://www.w3.org/2000/svg"><clipPath id="p.0"><path d="m0 0l488.1706 0l0 337.16272l-488.1706 0l0 -337.16272z" clip-rule="nonzero"/></clipPath><g clip-path="url(#p.0)"><path fill="#000000" fill-opacity="0.0" d="m0 0l488.1706 0l0 337.16272l-488.1706 0z" fill-rule="evenodd"/><path fill="#cfe2f3" d="m120.57087 155.04214l0 0c0 -21.621735 17.52787 -39.149612 39.149605 -39.149612l0 0c10.383118 0 20.340973 4.1246796 27.682953 11.46666c7.34198 7.34198 11.466644 17.299835 11.466644 27.682953l0 0c0 21.621735 -17.527863 39.149597 -39.149597 39.149597l0 0c-21.621735 0 -39.149605 -17.527863 -39.149605 -39.149597z" fill-rule="evenodd"/><path stroke="#6fa8dc" stroke-width="1.0" stroke-linejoin="round" stroke-linecap="butt" d="m120.57087 155.04214l0 0c0 -21.621735 17.52787 -39.149612 39.149605 -39.149612l0 0c10.383118 0 20.340973 4.1246796 27.682953 11.46666c7.34198 7.34198 11.466644 17.299835 11.466644 27.682953l0 0c0 21.621735 -17.527863 39.149597 -39.149597 39.149597l0 0c-21.621735 0 -39.149605 -17.527863 -39.149605 -39.149597z" fill-rule="evenodd"/><path fill="#000000" d="m154.94963 161.35277q0.640625 -0.03125 0.921875 -0.296875q0.28125 -0.28125 0.3125 -0.6875q0.046875 -0.40625 0.046875 -1.40625l0 -7.84375q0 -1.0 0.0625 -1.46875l-1.34375 0.078125l0 -0.828125q2.71875 -0.03125 4.21875 -0.03125q2.1875 0 3.375 0.78125q1.1875 0.765625 1.1875 2.328125q0 1.015625 -0.796875 1.859375q-0.78125 0.84375 -2.28125 1.109375l0 0.03125q2.0 0 3.0625 0.921875q1.078125 0.90625 1.078125 2.40625q0 1.125 -0.578125 1.953125q-0.5625 0.828125 -1.5625 1.265625q-0.984375 0.4375 -2.265625 0.4375l-5.4375 0l0 -0.609375zm4.265625 -6.578125q1.46875 -0.015625 2.140625 -0.796875q0.671875 -0.796875 0.671875 -1.953125q0 -1.40625 -0.8125 -1.9375q-0.796875 -0.546875 -1.96875 -0.546875q-0.59375 0 -0.890625 0.171875q-0.296875 0.15625 -0.40625 0.53125q-0.09375 0.375 -0.09375 1.109375l0 3.46875l1.359375 -0.046875zm0.5625 6.484375q1.46875 0 2.328125 -0.734375q0.875 -0.75 0.875 -2.109375q0 -1.578125 -0.890625 -2.25q-0.875 -0.671875 -2.3125 -0.671875q-1.03125 0 -1.921875 0.046875l0 4.21875q0 0.96875 -0.0625 1.453125q0.359375 0.046875 1.34375 0.046875l0.640625 0z" fill-rule="nonzero"/><path fill="#d9ead3" d="m229.27492 45.349083l0 0c0 -21.621733 17.527878 -39.14961 39.149612 -39.14961l0 0c10.383118 0 20.340973 4.1246786 27.682953 11.466655c7.3419495 7.3419743 11.466644 17.299831 11.466644 27.682953l0 0c0 21.621727 -17.527863 39.149605 -39.149597 39.149605l0 0c-21.621735 0 -39.149612 -17.527878 -39.149612 -39.149605z" fill-rule="evenodd"/><path stroke="#b6d7a8" stroke-width="1.0" stroke-linejoin="round" stroke-linecap="butt" d="m229.27492 45.349083l0 0c0 -21.621733 17.527878 -39.14961 39.149612 -39.14961l0 0c10.383118 0 20.340973 4.1246786 27.682953 11.466655c7.3419495 7.3419743 11.466644 17.299831 11.466644 27.682953l0 0c0 21.621727 -17.527863 39.149605 -39.149597 39.149605l0 0c-21.621735 0 -39.149612 -17.527878 -39.149612 -39.149605z" fill-rule="evenodd"/><path fill="#000000" d="m262.47574 51.659706q0.46875 0 0.75 -0.21875q0.28125 -0.21875 0.453125 -0.5625q0.171875 -0.34375 0.421875 -1.03125l0.1875 -0.53125l3.84375 -10.453125l0.4375 0l4.171875 10.609375q0.203125 0.5 0.34375 1.09375q0.15625 0.578125 0.140625 0.953125l1.265625 -0.078125l0 0.828125l-4.28125 0l0 -0.609375q1.109375 -0.03125 1.109375 -0.90625q0 -0.34375 -0.1875 -0.875l-0.65625 -1.75l-4.84375 0.109375q-0.28125 0.765625 -0.65625 2.0q-0.1875 0.609375 -0.46875 1.28125l1.453125 -0.078125l0 0.828125l-3.484375 0l0 -0.609375zm7.734375 -4.21875l-1.3125 -3.5625l-0.84375 -2.296875l-0.046875 0l-0.78125 2.109375l-1.0 2.828125l-0.3125 0.921875l4.296875 0z" fill-rule="nonzero"/><path fill="#c9daf8" d="m334.2005 155.04214l0 0c0 -21.621735 17.527893 -39.149612 39.149628 -39.149612l0 0c10.383118 0 20.340973 4.1246796 27.682953 11.46666c7.3419495 7.34198 11.466644 17.299835 11.466644 27.682953l0 0c0 21.621735 -17.527893 39.149597 -39.149597 39.149597l0 0c-21.621735 0 -39.149628 -17.527863 -39.149628 -39.149597z" fill-rule="evenodd"/><path stroke="#a4c2f4" stroke-width="1.0" stroke-linejoin="round" stroke-linecap="butt" d="m334.2005 155.04214l0 0c0 -21.621735 17.527893 -39.149612 39.149628 -39.149612l0 0c10.383118 0 20.340973 4.1246796 27.682953 11.46666c7.3419495 7.34198 11.466644 17.299835 11.466644 27.682953l0 0c0 21.621735 -17.527893 39.149597 -39.149597 39.149597l0 0c-21.621735 0 -39.149628 -17.527863 -39.149628 -39.149597z" fill-rule="evenodd"/><path fill="#000000" d="m374.03287 162.25902q-1.828125 0 -3.28125 -0.875q-1.4375 -0.875 -2.25 -2.390625q-0.8125 -1.515625 -0.8125 -3.359375q0 -1.828125 0.734375 -3.421875q0.734375 -1.609375 2.203125 -2.609375q1.46875 -1.0 3.53125 -1.0q2.0625 0 3.765625 1.140625l-0.09375 -1.015625l1.015625 0l0 4.328125l-0.671875 0q-0.1875 -1.734375 -1.234375 -2.703125q-1.03125 -0.984375 -2.640625 -0.984375q-1.328125 0 -2.421875 0.734375q-1.09375 0.734375 -1.734375 2.109375q-0.625 1.359375 -0.625 3.140625q0 1.71875 0.671875 3.078125q0.671875 1.34375 1.8125 2.109375q1.140625 0.75 2.515625 0.75q1.25 0 2.40625 -0.5625q1.15625 -0.5625 1.90625 -1.578125l0.484375 0.390625q-1.078125 1.5 -2.484375 2.109375q-1.40625 0.609375 -2.796875 0.609375z" fill-rule="nonzero"/><path fill="#fff2cc" d="m120.57087 286.70337l0 0c0 -21.621735 17.52787 -39.149597 39.149605 -39.149597l0 0c10.383118 0 20.340973 4.1246796 27.682953 11.466644c7.34198 7.34198 11.466644 17.299835 11.466644 27.682953l0 0c0 21.621735 -17.527863 39.149628 -39.149597 39.149628l0 0c-21.621735 0 -39.149605 -17.527893 -39.149605 -39.149628z" fill-rule="evenodd"/><path stroke="#ffe599" stroke-width="1.0" stroke-linejoin="round" stroke-linecap="butt" d="m120.57087 286.70337l0 0c0 -21.621735 17.52787 -39.149597 39.149605 -39.149597l0 0c10.383118 0 20.340973 4.1246796 27.682953 11.466644c7.34198 7.34198 11.466644 17.299835 11.466644 27.682953l0 0c0 21.621735 -17.527863 39.149628 -39.149597 39.149628l0 0c-21.621735 0 -39.149605 -17.527893 -39.149605 -39.149628z" fill-rule="evenodd"/><path fill="#000000" d="m153.80226 293.014q0.640625 -0.03125 0.921875 -0.296875q0.28125 -0.28125 0.3125 -0.65625q0.046875 -0.390625 0.046875 -1.34375l0 -8.0625q0 -0.78125 0.0625 -1.34375l-1.34375 0.078125l0 -0.828125l4.390625 -0.015625q3.515625 -0.015625 5.5625 1.640625q2.0625 1.65625 2.0625 4.921875q0 1.765625 -0.828125 3.265625q-0.8125 1.484375 -2.421875 2.375q-1.609375 0.875 -3.859375 0.875l-4.90625 0l0 -0.609375zm4.84375 -0.09375q1.5625 0 2.78125 -0.765625q1.21875 -0.765625 1.890625 -2.109375q0.671875 -1.34375 0.671875 -3.0q0 -2.734375 -1.5 -4.265625q-1.484375 -1.546875 -4.5 -1.546875q-0.640625 0 -0.921875 0.265625q-0.28125 0.265625 -0.328125 0.65625q-0.03125 0.375 -0.03125 1.3125l0 7.953125q0 0.96875 -0.0625 1.453125q0.65625 0.046875 2.0 0.046875z" fill-rule="nonzero"/><path fill="#000000" fill-opacity="0.0" d="m229.27492 45.349083c-34.771652 0 -69.543304 35.27559 -69.543304 70.55118" fill-rule="evenodd"/><path stroke="#000000" stroke-width="1.0" stroke-linejoin="round" stroke-linecap="butt" d="m229.27492 45.349083c-17.385834 0 -34.771652 8.818897 -47.81102 22.047241c-6.519699 6.614174 -11.952759 14.330711 -15.75592 22.598427c-1.9015656 4.1338577 -3.3956604 8.40551 -4.4143677 12.746063c-0.5093384 2.1702728 -0.8998413 4.357773 -1.1630096 6.5538864c-0.0657959 0.5490265 -0.12362671 1.098587 -0.17337036 1.6485596c-0.024871826 0.27498627 -0.047714233 0.55007935 -0.06852722 0.8252487l-0.04815674 0.70640564" fill-rule="evenodd"/><path fill="#000000" stroke="#000000" stroke-width="1.0" stroke-linecap="butt" d="m159.84055 112.47491l-1.0882568 -1.1597672l1.0257874 3.1239624l1.2222443 -3.0524597z" fill-rule="evenodd"/><path fill="#000000" fill-opacity="0.0" d="m307.57413 45.349083c32.881897 0 65.76376 35.27559 65.76376 70.55118" fill-rule="evenodd"/><path stroke="#000000" stroke-width="1.0" stroke-linejoin="round" stroke-linecap="butt" d="m307.57413 45.349083c16.440948 0 32.881897 8.818897 45.212585 22.047241c6.165344 6.614174 11.303131 14.330711 14.899597 22.598427c1.7982178 4.1338577 3.2111206 8.40551 4.174469 12.746063c0.48165894 2.1702728 0.85095215 4.357773 1.099823 6.5538864c0.062194824 0.5490265 0.11685181 1.098587 0.16390991 1.6485596c0.023529053 0.27498627 0.045135498 0.55007935 0.06478882 0.8252487l0.045562744 0.7062149" fill-rule="evenodd"/><path fill="#000000" stroke="#000000" stroke-width="1.0" stroke-linecap="butt" d="m373.23486 112.474724l-1.157898 -1.0902634l1.21698 3.0545578l1.0311584 -3.1221771z" fill-rule="evenodd"/><path fill="#000000" fill-opacity="0.0" d="m159.72047 194.19174l0 53.35434" fill-rule="evenodd"/><path stroke="#000000" stroke-width="1.0" stroke-linejoin="round" stroke-linecap="butt" d="m159.72047 194.19174l0 47.35434" fill-rule="evenodd"/><path fill="#000000" stroke="#000000" stroke-width="1.0" stroke-linecap="butt" d="m158.06874 241.54608l1.6517334 4.538086l1.6517334 -4.538086z" fill-rule="evenodd"/><path fill="#000000" fill-opacity="0.0" d="m373.3386 45.349083l139.24411 0l0 36.472443l-139.24411 0z" fill-rule="evenodd"/><path fill="#cc0000" d="m388.43234 69.95908q-1.6875 0 -2.671875 -0.59375q-0.984375 -0.59375 -1.421875 -1.828125q-0.421875 -1.25 -0.421875 -3.28125l0 -3.25q0 -1.03125 0.0625 -1.859375l-1.140625 0.046875l0 -0.6875l3.578125 0l0 0.53125q-0.703125 0 -0.90625 0.375q-0.1875 0.359375 -0.1875 0.890625l0 4.03125q0 1.390625 0.25 2.40625q0.25 1.015625 0.96875 1.671875q0.734375 0.640625 2.09375 0.640625q1.671875 0 2.46875 -1.140625q0.8125 -1.140625 0.84375 -3.109375l0.046875 -4.5q0 -0.671875 0.0625 -1.15625l-1.140625 0.0625l0 -0.703125l2.96875 0l0 0.53125q-0.578125 0.015625 -0.8125 0.265625q-0.234375 0.234375 -0.265625 0.5625q-0.03125 0.328125 -0.03125 1.140625l-0.03125 3.71875q-0.015625 2.3125 -1.03125 3.78125q-1.015625 1.453125 -3.28125 1.453125zm6.500763 3.34375q0.46875 0 0.65625 -0.234375q0.203125 -0.21875 0.234375 -0.5625q0.03125 -0.34375 0.046875 -1.15625l0.03125 -7.71875q0 -0.671875 0.0625 -1.046875l-1.125 0.0625l0 -0.671875q0.9375 0 1.28125 -0.09375q0.359375 -0.109375 0.59375 -0.328125l0.46875 0q0.0625 0.78125 0.0625 0.859375q0.484375 -0.4375 1.15625 -0.6875q0.671875 -0.265625 1.328125 -0.265625q0.9375 0 1.734375 0.484375q0.8125 0.484375 1.296875 1.390625q0.484375 0.90625 0.484375 2.09375q0 1.328125 -0.5625 2.359375q-0.546875 1.03125 -1.484375 1.609375q-0.9375 0.5625 -2.03125 0.5625q-1.09375 0 -1.921875 -0.515625l0 2.65625q0 0.71875 -0.0625 1.078125l1.015625 -0.046875l0 0.65625l-3.265625 0l0 -0.484375zm4.203125 -3.984375q0.75 0 1.296875 -0.453125q0.5625 -0.46875 0.859375 -1.296875q0.3125 -0.828125 0.3125 -1.890625q0 -1.4375 -0.625 -2.4375q-0.609375 -1.0 -1.828125 -1.0q-0.53125 0 -1.03125 0.265625q-0.484375 0.25 -0.859375 0.625q0.015625 0.109375 0.015625 0.984375l-0.015625 4.578125q0.828125 0.625 1.875 0.625zm8.911407 0.640625q-0.984375 0 -1.78125 -0.484375q-0.78125 -0.5 -1.234375 -1.40625q-0.4375 -0.921875 -0.4375 -2.140625q0 -1.28125 0.53125 -2.296875q0.53125 -1.03125 1.453125 -1.59375q0.9375 -0.578125 2.125 -0.578125q0.5 0 1.015625 0.140625q0.515625 0.125 0.859375 0.296875l0 -2.1875q0 -0.609375 0.046875 -1.046875l-1.140625 0.078125l0 -0.671875q0.953125 0 1.359375 -0.109375q0.40625 -0.125 0.625 -0.328125l0.46875 0l0 10.375q0 0.515625 -0.0625 1.09375l1.140625 -0.0625l0 0.671875l-2.296875 0q-0.078125 -0.4375 -0.109375 -0.828125q-0.46875 0.515625 -1.140625 0.796875q-0.65625 0.28125 -1.421875 0.28125zm0.578125 -0.78125q0.515625 0 1.046875 -0.296875q0.53125 -0.296875 0.90625 -0.75q-0.015625 -0.265625 -0.015625 -0.890625l0.015625 -4.609375q-0.75 -0.546875 -1.78125 -0.546875q-1.140625 0 -1.859375 0.953125q-0.703125 0.9375 -0.703125 2.515625q0 1.625 0.625 2.625q0.625 1.0 1.765625 1.0zm7.8023987 0.78125q-1.15625 0 -1.78125 -0.515625q-0.609375 -0.53125 -0.609375 -1.375q0 -0.9375 0.734375 -1.578125q0.75 -0.640625 1.875 -0.953125q1.125 -0.3125 2.265625 -0.296875l0 -0.984375q0 -1.046875 -0.3125 -1.625q-0.296875 -0.578125 -1.28125 -0.578125q-0.5 0 -0.953125 0.203125q-0.4375 0.203125 -0.65625 0.625q0.21875 0.21875 0.21875 0.609375q0 0.234375 -0.1875 0.453125q-0.171875 0.21875 -0.5 0.21875q-0.34375 0 -0.53125 -0.21875q-0.1875 -0.21875 -0.1875 -0.578125q0 -0.515625 0.40625 -0.953125q0.40625 -0.453125 1.125 -0.703125q0.734375 -0.25 1.625 -0.25q1.34375 0 1.984375 0.71875q0.640625 0.703125 0.625 2.234375l-0.015625 3.59375q0 0.515625 -0.0625 1.09375l1.140625 -0.0625l0 0.671875l-2.296875 0q-0.046875 -0.234375 -0.109375 -0.90625q-1.171875 1.15625 -2.515625 1.15625zm0.375 -0.90625q0.609375 0 1.09375 -0.234375q0.5 -0.234375 1.015625 -0.703125q-0.015625 -0.25 -0.015625 -0.828125l0.015625 -1.5q-1.3125 0.046875 -2.34375 0.546875q-1.015625 0.484375 -1.015625 1.484375q0 0.59375 0.34375 0.921875q0.359375 0.3125 0.90625 0.3125zm8.662262 0.90625q-2.203125 0 -2.1875 -2.9375l0.03125 -4.640625l-1.21875 0.015625l0 -0.6875q0.765625 -0.015625 1.296875 -0.6875q0.53125 -0.6875 0.796875 -1.546875l0.53125 0l0 2.234375l2.6875 0l0 0.625l-2.6875 0.03125q-0.015625 2.453125 -0.03125 3.390625q0 0.9375 0 1.0625q0 1.125 0.265625 1.6875q0.28125 0.546875 0.953125 0.546875q0.421875 0 0.828125 -0.25q0.40625 -0.265625 0.71875 -0.703125l0.421875 0.34375q-0.625 0.921875 -1.234375 1.21875q-0.609375 0.296875 -1.171875 0.296875zm7.0513916 0q-1.109375 0 -2.0 -0.515625q-0.875 -0.515625 -1.390625 -1.484375q-0.515625 -0.96875 -0.515625 -2.234375q0 -1.125 0.515625 -2.109375q0.515625 -0.984375 1.421875 -1.5625q0.921875 -0.59375 2.09375 -0.59375q0.90625 0 1.640625 0.40625q0.75 0.390625 1.171875 1.1875q0.4375 0.78125 0.4375 1.9375l-5.640625 0.09375q-0.015625 1.921875 0.625 3.0q0.65625 1.0625 2.015625 1.0625q0.75 0 1.515625 -0.375q0.78125 -0.390625 1.1875 -0.953125l0.390625 0.328125q-0.609375 0.921875 -1.578125 1.375q-0.96875 0.4375 -1.890625 0.4375zm1.875 -5.546875q0 -0.953125 -0.4375 -1.640625q-0.4375 -0.6875 -1.296875 -0.6875q-1.984375 0 -2.34375 2.328125l4.078125 0zm6.61438 4.765625q0.484375 -0.09375 0.84375 -0.328125q0.359375 -0.25 0.625 -0.59375q0.28125 -0.34375 0.734375 -1.0l2.078125 -2.96875q-0.421875 -0.578125 -0.734375 -1.0q-0.3125 -0.4375 -0.546875 -0.78125q-1.25 -1.734375 -1.609375 -2.265625q-0.34375 -0.546875 -0.546875 -1.0625l-0.890625 0.03125l0 -0.703125l4.140625 0l0 0.53125l-0.703125 0.03125q-0.765625 0.015625 -0.765625 0.4375q0 0.15625 0.09375 0.359375q0.109375 0.1875 0.3125 0.5q0.40625 0.6875 1.984375 2.859375l1.53125 -2.21875q0.40625 -0.578125 0.796875 -1.125q0.40625 -0.546875 0.625 -0.734375l-1.34375 0.0625l0 -0.703125l3.15625 0l0 0.53125q-0.6875 0.09375 -1.265625 0.671875q-0.5625 0.578125 -1.25 1.546875l-1.8125 2.5625l2.3125 3.0625l0.515625 0.671875l1.09375 1.484375l0.9375 -0.03125l0 0.703125l-3.921875 0l0 -0.53125q0.953125 0.046875 0.953125 -0.484375q0 -0.28125 -0.28125 -0.6875l-0.53125 -0.6875q-0.9375 -1.171875 -1.828125 -2.40625q-0.796875 1.15625 -1.578125 2.34375q-0.078125 0.140625 -0.46875 0.734375q-0.390625 0.578125 -0.84375 1.09375l1.328125 -0.078125l0 0.703125l-3.140625 0l0 -0.53125z" fill-rule="nonzero"/><path fill="#000000" fill-opacity="0.0" d="m20.47769 194.19029l139.2441 0l0 36.472443l-139.2441 0z" fill-rule="evenodd"/><path fill="#cc0000" d="m35.57144 218.8003q-1.6875 0 -2.671875 -0.59375q-0.9843769 -0.59375 -1.4218769 -1.828125q-0.421875 -1.25 -0.421875 -3.28125l0 -3.25q0 -1.03125 0.0625 -1.859375l-1.140625 0.046875l0 -0.6875l3.578127 0l0 0.53125q-0.703125 0 -0.90625 0.375q-0.1875 0.359375 -0.1875 0.890625l0 4.03125q0 1.390625 0.25 2.40625q0.25 1.015625 0.96875 1.671875q0.734375 0.640625 2.09375 0.640625q1.671875 0 2.46875 -1.140625q0.8125 -1.140625 0.84375 -3.109375l0.046875 -4.5q0 -0.671875 0.0625 -1.15625l-1.140625 0.0625l0 -0.703125l2.96875 0l0 0.53125q-0.578125 0.015625 -0.8125 0.265625q-0.234375 0.234375 -0.265625 0.5625q-0.03125 0.328125 -0.03125 1.140625l-0.03125 3.71875q-0.015625 2.3125 -1.03125 3.78125q-1.015625 1.453125 -3.28125 1.453125zm6.500778 3.34375q0.46875 0 0.65625 -0.234375q0.203125 -0.21875 0.234375 -0.5625q0.03125 -0.34375 0.046875 -1.15625l0.03125 -7.71875q0 -0.671875 0.0625 -1.046875l-1.125 0.0625l0 -0.671875q0.9375 0 1.28125 -0.09375q0.359375 -0.109375 0.59375 -0.328125l0.46875 0q0.0625 0.78125 0.0625 0.859375q0.484375 -0.4375 1.15625 -0.6875q0.671875 -0.265625 1.328125 -0.265625q0.9375 0 1.734375 0.484375q0.8125 0.484375 1.296875 1.390625q0.484375 0.90625 0.484375 2.09375q0 1.328125 -0.5625 2.359375q-0.546875 1.03125 -1.484375 1.609375q-0.9375 0.5625 -2.03125 0.5625q-1.09375 0 -1.921875 -0.515625l0 2.65625q0 0.71875 -0.0625 1.078125l1.015625 -0.046875l0 0.65625l-3.265625 0l0 -0.484375zm4.203125 -3.984375q0.75 0 1.296875 -0.453125q0.5625 -0.46875 0.859375 -1.296875q0.3125 -0.828125 0.3125 -1.890625q0 -1.4375 -0.625 -2.4375q-0.609375 -1.0 -1.828125 -1.0q-0.53125 0 -1.03125 0.265625q-0.484375 0.25 -0.859375 0.625q0.015625 0.109375 0.015625 0.984375l-0.015625 4.578125q0.828125 0.625 1.875 0.625zm8.911392 0.640625q-0.984375 0 -1.78125 -0.484375q-0.78125 -0.5 -1.234375 -1.40625q-0.4375 -0.921875 -0.4375 -2.140625q0 -1.28125 0.53125 -2.296875q0.53125 -1.03125 1.453125 -1.59375q0.9375 -0.578125 2.125 -0.578125q0.5 0 1.015625 0.140625q0.515625 0.125 0.859375 0.296875l0 -2.1875q0 -0.609375 0.046875 -1.046875l-1.140625 0.078125l0 -0.671875q0.953125 0 1.359375 -0.109375q0.40625 -0.125 0.625 -0.328125l0.46875 0l0 10.375q0 0.515625 -0.0625 1.09375l1.140625 -0.0625l0 0.671875l-2.296875 0q-0.078125 -0.4375 -0.109375 -0.828125q-0.46875 0.515625 -1.140625 0.796875q-0.65625 0.28125 -1.421875 0.28125zm0.578125 -0.78125q0.515625 0 1.046875 -0.296875q0.53125 -0.296875 0.90625 -0.75q-0.015625 -0.265625 -0.015625 -0.890625l0.015625 -4.609375q-0.75 -0.546875 -1.78125 -0.546875q-1.140625 0 -1.859375 0.953125q-0.703125 0.9375 -0.703125 2.515625q0 1.625 0.625 2.625q0.625 1.0 1.765625 1.0zm7.8023987 0.78125q-1.15625 0 -1.78125 -0.515625q-0.609375 -0.53125 -0.609375 -1.375q0 -0.9375 0.734375 -1.578125q0.75 -0.640625 1.875 -0.953125q1.125 -0.3125 2.265625 -0.296875l0 -0.984375q0 -1.046875 -0.3125 -1.625q-0.296875 -0.578125 -1.28125 -0.578125q-0.5 0 -0.953125 0.203125q-0.4375 0.203125 -0.65625 0.625q0.21875 0.21875 0.21875 0.609375q0 0.234375 -0.1875 0.453125q-0.171875 0.21875 -0.5 0.21875q-0.34375 0 -0.53125 -0.21875q-0.1875 -0.21875 -0.1875 -0.578125q0 -0.515625 0.40625 -0.953125q0.40625 -0.453125 1.125 -0.703125q0.734375 -0.25 1.625 -0.25q1.34375 0 1.984375 0.71875q0.640625 0.703125 0.625 2.234375l-0.015625 3.59375q0 0.515625 -0.0625 1.09375l1.140625 -0.0625l0 0.671875l-2.296875 0q-0.046875 -0.234375 -0.109375 -0.90625q-1.171875 1.15625 -2.515625 1.15625zm0.375 -0.90625q0.609375 0 1.09375 -0.234375q0.5 -0.234375 1.015625 -0.703125q-0.015625 -0.25 -0.015625 -0.828125l0.015625 -1.5q-1.3125 0.046875 -2.34375 0.546875q-1.015625 0.484375 -1.015625 1.484375q0 0.59375 0.34375 0.921875q0.359375 0.3125 0.90625 0.3125zm8.662262 0.90625q-2.203125 0 -2.1875 -2.9375l0.03125 -4.640625l-1.21875 0.015625l0 -0.6875q0.765625 -0.015625 1.296875 -0.6875q0.53125 -0.6875 0.796875 -1.546875l0.53125 0l0 2.234375l2.6875 0l0 0.625l-2.6875 0.03125q-0.015625 2.453125 -0.03125 3.390625q0 0.9375 0 1.0625q0 1.125 0.265625 1.6875q0.28125 0.546875 0.953125 0.546875q0.421875 0 0.828125 -0.25q0.40625 -0.265625 0.71875 -0.703125l0.421875 0.34375q-0.625 0.921875 -1.234375 1.21875q-0.609375 0.296875 -1.171875 0.296875zm7.0513916 0q-1.109375 0 -2.0 -0.515625q-0.875 -0.515625 -1.390625 -1.484375q-0.515625 -0.96875 -0.515625 -2.234375q0 -1.125 0.515625 -2.109375q0.515625 -0.984375 1.421875 -1.5625q0.921875 -0.59375 2.09375 -0.59375q0.90625 0 1.640625 0.40625q0.75 0.390625 1.171875 1.1875q0.4375 0.78125 0.4375 1.9375l-5.640625 0.09375q-0.015625 1.921875 0.625 3.0q0.65625 1.0625 2.015625 1.0625q0.75 0 1.515625 -0.375q0.78125 -0.390625 1.1875 -0.953125l0.390625 0.328125q-0.609375 0.921875 -1.578125 1.375q-0.96875 0.4375 -1.890625 0.4375zm1.875 -5.546875q0 -0.953125 -0.4375 -1.640625q-0.4375 -0.6875 -1.296875 -0.6875q-1.984375 0 -2.34375 2.328125l4.078125 0zm6.614395 4.765625q0.484375 -0.09375 0.84375 -0.328125q0.359375 -0.25 0.625 -0.59375q0.28125 -0.34375 0.734375 -1.0l2.078125 -2.96875q-0.421875 -0.578125 -0.734375 -1.0q-0.3125 -0.4375 -0.546875 -0.78125q-1.25 -1.734375 -1.609375 -2.265625q-0.34375 -0.546875 -0.546875 -1.0625l-0.890625 0.03125l0 -0.703125l4.140625 0l0 0.53125l-0.703125 0.03125q-0.765625 0.015625 -0.765625 0.4375q0 0.15625 0.09375 0.359375q0.109375 0.1875 0.3125 0.5q0.40625 0.6875 1.984375 2.859375l1.53125 -2.21875q0.40625 -0.578125 0.796875 -1.125q0.40625 -0.546875 0.625 -0.734375l-1.34375 0.0625l0 -0.703125l3.15625 0l0 0.53125q-0.6875 0.09375 -1.265625 0.671875q-0.5625 0.578125 -1.25 1.546875l-1.8125 2.5625l2.3125 3.0625l0.515625 0.671875l1.09375 1.484375l0.9375 -0.03125l0 0.703125l-3.921875 0l0 -0.53125q0.953125 0.046875 0.953125 -0.484375q0 -0.28125 -0.28125 -0.6875l-0.53125 -0.6875q-0.9375 -1.171875 -1.828125 -2.40625q-0.796875 1.15625 -1.578125 2.34375q-0.078125 0.140625 -0.46875 0.734375q-0.390625 0.578125 -0.84375 1.09375l1.328125 -0.078125l0 0.703125l-3.140625 0l0 -0.53125z" fill-rule="nonzero"/></g></svg>