<svg version="1.1" viewBox="0.0 0.0 350.7244094488189 280.7795275590551" fill="none" stroke="none" stroke-linecap="square" stroke-miterlimit="10" xmlns:xlink="http://www.w3.org/1999/xlink" xmlns="http://www.w3.org/2000/svg"><clipPath id="p.0"><path d="m0 0l350.7244 0l0 280.77954l-350.7244 0l0 -280.77954z" clip-rule="nonzero"/></clipPath><g clip-path="url(#p.0)"><path fill="#000000" fill-opacity="0.0" d="m0 0l350.7244 0l0 280.77954l-350.7244 0z" fill-rule="evenodd"/><path stroke="#9e9e9e" stroke-width="2.0" stroke-linecap="butt" d="m207.79659 0.47637796l0 111.73753" fill-rule="nonzero"/><path stroke="#9e9e9e" stroke-width="2.0" stroke-linecap="butt" d="m349.7362 0.47637796l0 111.73753" fill-rule="nonzero"/><path stroke="#9e9e9e" stroke-width="2.0" stroke-linecap="butt" d="m206.79659 1.476378l143.93962 0" fill-rule="nonzero"/><path stroke="#9e9e9e" stroke-width="2.0" stroke-linecap="butt" d="m206.79659 38.88845l143.93962 0" fill-rule="nonzero"/><path stroke="#9e9e9e" stroke-width="2.0" stroke-linecap="butt" d="m206.79659 75.05118l143.93962 0" fill-rule="nonzero"/><path stroke="#9e9e9e" stroke-width="2.0" stroke-linecap="butt" d="m206.79659 111.21391l143.93962 0" fill-rule="nonzero"/><path fill="#000000" d="m229.87968 23.276377l-1.015625 -8.296875l1.453125 0l0.484375 5.46875l0.96875 -4.796875l0.953125 0l0.984375 4.765625l0.34375 -5.4375l1.390625 0l-1.0 8.296875l-1.171875 0l-1.09375 -5.046875l-1.09375 5.046875l-1.203125 0zm11.1484375 -4.328125l0 -0.015625q-0.25 -0.40625 -0.546875 -0.578125q-0.28125 -0.171875 -0.65625 -0.171875q-0.484375 0 -0.875 0.234375q-0.375 0.21875 -0.59375 0.640625q-0.21875 0.40625 -0.21875 0.96875l0 3.25l-1.5 0l0 -6.21875l1.53125 0l0 0.890625q0.25 -0.484375 0.71875 -0.75q0.484375 -0.28125 1.078125 -0.28125q0.46875 0 0.921875 0.171875q0.453125 0.171875 0.8125 0.515625l-0.671875 1.34375zm-0.1875 0q0 0 0.015625 0q0.015625 0 0.0625 0.03125q0.046875 0.015625 0.078125 0.03125l-0.015625 0.015625l-0.125 -0.0625l-0.015625 -0.015625zm0.1875 0q0.046875 0.0625 0.046875 0.078125q0 0.015625 -0.015625 0.015625q-0.015625 0 -0.0625 -0.03125l0.03125 -0.0625zm2.2734375 4.328125l0 -1.203125l1.5 0l0 -3.828125l-1.4375 0l0 -1.1875l2.921875 0l0 5.015625l1.359375 0l0 1.203125l-4.34375 0zm2.140625 -7.296875q-0.25 0 -0.46875 -0.125q-0.21875 -0.125 -0.34375 -0.328125q-0.109375 -0.203125 -0.109375 -0.4375q0 -0.375 0.25 -0.625q0.265625 -0.25 0.671875 -0.25q0.234375 0 0.453125 0.125q0.21875 0.109375 0.34375 0.3125q0.140625 0.203125 0.140625 0.4375q0 0.234375 -0.140625 0.4375q-0.125 0.203125 -0.34375 0.328125q-0.21875 0.125 -0.453125 0.125zm9.3984375 6.734375q-0.484375 0.375 -1.015625 0.5625q-0.515625 0.1875 -1.125 0.1875q-0.96875 0 -1.484375 -0.5625q-0.515625 -0.578125 -0.515625 -1.984375q0 -0.359375 0.03125 -0.78125l0.109375 -1.875l-1.34375 0l0.03125 -1.203125l1.390625 0l0.078125 -1.453125l1.640625 -0.28125l0.03125 0.15625q-0.015625 0.015625 -0.0625 0.09375q-0.046875 0.0625 -0.09375 0.171875q-0.03125 0.09375 -0.03125 0.234375l-0.09375 1.078125l1.90625 0l-0.015625 1.203125l-1.921875 0l-0.140625 1.78125q-0.03125 0.453125 -0.03125 0.71875q0 0.828125 0.203125 1.15625q0.203125 0.328125 0.625 0.328125q0.40625 0 0.75 -0.15625q0.34375 -0.15625 0.765625 -0.515625l0.3125 1.140625zm4.1953278 0.78125q-0.890625 0 -1.59375 -0.390625q-0.703125 -0.390625 -1.109375 -1.125q-0.39064026 -0.734375 -0.39064026 -1.734375q0 -1.0 0.37501526 -1.75q0.375 -0.765625 1.046875 -1.171875q0.671875 -0.40625 1.515625 -0.40625q0.75 0 1.34375 0.359375q0.609375 0.34375 0.953125 1.03125q0.359375 0.6875 0.359375 1.65625q0 0.15625 -0.03125 0.4375l-0.015625 0.1875l-4.078125 0q0.09375 0.84375 0.53125 1.28125q0.4375 0.4375 1.046875 0.4375q0.421875 0 0.859375 -0.203125q0.4375 -0.203125 0.71875 -0.5625l0.828125 0.828125q-0.9375 1.125 -2.359375 1.125zm1.0 -4.0q0 -0.390625 -0.15625 -0.71875q-0.140625 -0.34375 -0.421875 -0.53125q-0.28125 -0.203125 -0.65625 -0.203125q-0.546875 0 -0.90625 0.390625q-0.359375 0.390625 -0.421875 1.0625l2.5625 0zm2.9296875 0.125l0 -1.21875l4.984375 0l0 1.21875l-4.984375 0zm8.9921875 -2.765625q1.21875 0 1.953125 0.609375q0.75 0.609375 0.75 2.03125l0 3.78125l-1.421875 0l0 -0.5625q-0.359375 0.34375 -0.875 0.53125q-0.5 0.1875 -1.078125 0.1875q-0.96875 0 -1.484375 -0.46875q-0.5 -0.484375 -0.5 -1.296875q0 -0.671875 0.421875 -1.140625q0.421875 -0.46875 1.203125 -0.703125q0.796875 -0.25 1.890625 -0.25l0.46875 0q-0.078125 -0.8125 -0.40625 -1.15625q-0.328125 -0.359375 -1.0 -0.359375q-0.4375 0 -0.90625 0.234375q-0.453125 0.21875 -0.84375 0.625l-0.765625 -0.984375q0.59375 -0.53125 1.265625 -0.796875q0.671875 -0.28125 1.328125 -0.28125zm-0.1875 5.453125q0.65625 0 1.046875 -0.421875q0.390625 -0.421875 0.46875 -1.3125l-0.3125 0q-1.140625 0 -1.671875 0.25q-0.515625 0.234375 -0.515625 0.78125q0 0.359375 0.25 0.53125q0.265625 0.171875 0.734375 0.171875zm4.4609375 -8.03125l1.609375 0l0 0.15625q-0.0625 0.078125 -0.09375 0.171875q-0.015625 0.09375 -0.015625 0.3125l0 2.78125q0.328125 -0.359375 0.765625 -0.5625q0.4375 -0.21875 0.875 -0.21875q1.0 0 1.546875 0.625q0.5625 0.625 0.5625 1.953125l0 3.78125l-1.515625 0l0 -3.765625q0 -0.6875 -0.25 -1.015625q-0.234375 -0.34375 -0.640625 -0.34375q-0.375 0 -0.6875 0.203125q-0.296875 0.1875 -0.484375 0.53125q-0.171875 0.34375 -0.171875 0.796875l0 3.59375l-1.5 0l0 -9.0zm9.4609375 9.21875q-0.890625 0 -1.59375 -0.390625q-0.703125 -0.390625 -1.109375 -1.125q-0.390625 -0.734375 -0.390625 -1.734375q0 -1.0 0.375 -1.75q0.375 -0.765625 1.046875 -1.171875q0.671875 -0.40625 1.515625 -0.40625q0.75 0 1.34375 0.359375q0.609375 0.34375 0.953125 1.03125q0.359375 0.6875 0.359375 1.65625q0 0.15625 -0.03125 0.4375l-0.015625 0.1875l-4.078125 0q0.09375 0.84375 0.53125 1.28125q0.4375 0.4375 1.046875 0.4375q0.421875 0 0.859375 -0.203125q0.4375 -0.203125 0.71875 -0.5625l0.828125 0.828125q-0.9375 1.125 -2.359375 1.125zm1.0 -4.0q0 -0.390625 -0.15625 -0.71875q-0.140625 -0.34375 -0.421875 -0.53125q-0.28125 -0.203125 -0.65625 -0.203125q-0.546875 0 -0.90625 0.390625q-0.359375 0.390625 -0.421875 1.0625l2.5625 0zm5.2578125 -2.640625q1.21875 0 1.953125 0.609375q0.75 0.609375 0.75 2.03125l0 3.78125l-1.421875 0l0 -0.5625q-0.359375 0.34375 -0.875 0.53125q-0.5 0.1875 -1.078125 0.1875q-0.96875 0 -1.484375 -0.46875q-0.5 -0.484375 -0.5 -1.296875q0 -0.671875 0.421875 -1.140625q0.421875 -0.46875 1.203125 -0.703125q0.796875 -0.25 1.890625 -0.25l0.46875 0q-0.078125 -0.8125 -0.40625 -1.15625q-0.328125 -0.359375 -1.0 -0.359375q-0.4375 0 -0.90625 0.234375q-0.453125 0.21875 -0.84375 0.625l-0.765625 -0.984375q0.59375 -0.53125 1.265625 -0.796875q0.671875 -0.28125 1.328125 -0.28125zm-0.1875 5.453125q0.65625 0 1.046875 -0.421875q0.390625 -0.421875 0.46875 -1.3125l-0.3125 0q-1.140625 0 -1.671875 0.25q-0.515625 0.234375 -0.515625 0.78125q0 0.359375 0.25 0.53125q0.265625 0.171875 0.734375 0.171875zm6.7109375 1.171875q-0.734375 0 -1.34375 -0.359375q-0.609375 -0.359375 -0.96875 -1.078125q-0.34375 -0.734375 -0.34375 -1.78125q0 -1.015625 0.359375 -1.765625q0.375 -0.765625 0.96875 -1.171875q0.609375 -0.40625 1.328125 -0.40625q0.359375 0 0.75 0.1875q0.40625 0.171875 0.6875 0.4375l0 -3.265625l1.625 0l0 0.15625q-0.078125 0.078125 -0.09375 0.171875q-0.015625 0.09375 -0.015625 0.3125l-0.03125 7.609375q0 0.234375 0.03125 0.40625q0.03125 0.171875 0.125 0.34375l-1.453125 0q-0.09375 -0.171875 -0.109375 -0.3125q-0.015625 -0.15625 -0.015625 -0.4375q-0.203125 0.46875 -0.625 0.71875q-0.421875 0.234375 -0.875 0.234375zm0.21875 -1.25q1.21875 0 1.21875 -2.140625q0 -0.890625 -0.265625 -1.421875q-0.25 -0.53125 -0.90625 -0.53125q-0.703125 0 -1.0625 0.59375q-0.34375 0.578125 -0.34375 1.5q0 0.703125 0.203125 1.15625q0.203125 0.453125 0.515625 0.65625q0.3125 0.1875 0.640625 0.1875zm10.953125 1.046875l0 -1.15625l1.703125 0l0 -6.671875l-1.625 0l0 -1.171875l3.140625 0l0 7.84375l1.6875 0l0 1.15625l-4.90625 0zm9.1171875 0.21875q-0.828125 0 -1.5 -0.421875q-0.671875 -0.421875 -1.0625 -1.171875q-0.390625 -0.765625 -0.390625 -1.734375q0 -0.90625 0.390625 -1.640625q0.390625 -0.75 1.0625 -1.171875q0.6875 -0.4375 1.5 -0.4375q0.8125 0 1.484375 0.4375q0.6875 0.421875 1.078125 1.171875q0.40625 0.734375 0.40625 1.640625q0 0.96875 -0.390625 1.734375q-0.390625 0.75 -1.078125 1.171875q-0.671875 0.421875 -1.5 0.421875zm0 -1.203125q0.4375 0 0.765625 -0.265625q0.328125 -0.265625 0.5 -0.734375q0.1875 -0.484375 0.1875 -1.125q0 -0.625 -0.1875 -1.09375q-0.171875 -0.46875 -0.5 -0.703125q-0.328125 -0.25 -0.765625 -0.25q-0.421875 0 -0.75 0.25q-0.3125 0.234375 -0.5 0.703125q-0.171875 0.46875 -0.171875 1.09375q0 0.640625 0.171875 1.125q0.171875 0.46875 0.484375 0.734375q0.328125 0.265625 0.765625 0.265625zm7.3359375 -0.375q2.03125 0 2.03125 1.59375q0 0.578125 -0.328125 1.046875q-0.328125 0.46875 -0.984375 0.734375q-0.65625 0.28125 -1.625 0.28125q-1.203125 0 -1.8125 -0.40625q-0.609375 -0.390625 -0.609375 -1.109375q0 -0.375 0.1875 -0.71875q0.1875 -0.328125 0.53125 -0.546875q-0.5625 -0.328125 -0.5625 -0.953125q0 -0.359375 0.1875 -0.640625q0.1875 -0.28125 0.53125 -0.515625q-0.359375 -0.3125 -0.5625 -0.734375q-0.1875 -0.4375 -0.1875 -0.90625q0 -0.609375 0.3125 -1.109375q0.3125 -0.515625 0.828125 -0.8125q0.515625 -0.3125 1.140625 -0.3125q0.390625 0 0.75 0.140625q0.359375 0.125 0.671875 0.359375q0.328125 -0.1875 0.734375 -0.296875q0.421875 -0.109375 0.84375 -0.109375q0.140625 0 0.21875 0l0.15625 1.140625q-0.3125 -0.078125 -0.65625 -0.078125q-0.40625 0 -0.671875 0.09375q0.234375 0.46875 0.234375 0.984375q0 0.59375 -0.3125 1.109375q-0.3125 0.515625 -0.84375 0.8125q-0.515625 0.296875 -1.125 0.296875q-0.484375 0 -0.921875 -0.1875q-0.078125 0.09375 -0.109375 0.171875q-0.03125 0.078125 -0.03125 0.171875q0 0.25 0.4375 0.375q0.453125 0.125 1.546875 0.125zm-0.921875 -3.890625q-0.25 0 -0.46875 0.140625q-0.21875 0.125 -0.359375 0.359375q-0.125 0.234375 -0.125 0.515625q0 0.265625 0.125 0.5q0.140625 0.234375 0.359375 0.375q0.21875 0.125 0.46875 0.125q0.25 0 0.46875 -0.125q0.21875 -0.140625 0.34375 -0.375q0.140625 -0.234375 0.140625 -0.5q0 -0.28125 -0.140625 -0.515625q-0.125 -0.234375 -0.34375 -0.359375q-0.21875 -0.140625 -0.46875 -0.140625zm0.21875 6.453125q0.625 0 0.984375 -0.21875q0.375 -0.203125 0.375 -0.5625q0 -0.1875 -0.09375 -0.3125q-0.09375 -0.125 -0.328125 -0.171875q-0.21875 -0.0625 -0.640625 -0.0625q-0.875 0 -1.390625 -0.09375q-0.171875 0.15625 -0.25 0.296875q-0.078125 0.15625 -0.078125 0.375q0 0.375 0.375 0.5625q0.375 0.1875 1.046875 0.1875z" fill-rule="nonzero"/><path fill="#000000" d="m259.87158 56.704075q0.5 -0.015625 0.8125 -0.265625q0.3125 -0.265625 0.421875 -0.703125q0.109375 -0.453125 0.109375 -1.53125q0 -1.09375 0.03125 -1.4375q0.0625 -0.546875 0.21875 -0.875q0.171875 -0.34375 0.40625 -0.53125q0.234375 -0.203125 0.59375 -0.3125q0.25 -0.0625 0.8125 -0.0625l0.359375 0l0 1.015625l-0.203125 0q-0.671875 0 -0.90625 0.25q-0.21875 0.25 -0.21875 1.09375q0 1.703125 -0.0625 2.15625q-0.125 0.6875 -0.40625 1.078125q-0.28125 0.375 -0.890625 0.65625q0.71875 0.296875 1.03125 0.921875q0.328125 0.609375 0.328125 2.015625q0 1.265625 0.03125 1.5q0.046875 0.453125 0.25 0.625q0.21875 0.171875 0.84375 0.171875l0.203125 0l0 1.03125l-0.359375 0q-0.640625 0 -0.9375 -0.109375q-0.40625 -0.15625 -0.6875 -0.5q-0.265625 -0.328125 -0.359375 -0.84375q-0.078125 -0.5 -0.078125 -1.671875q0 -1.171875 -0.109375 -1.625q-0.109375 -0.453125 -0.421875 -0.703125q-0.3125 -0.265625 -0.8125 -0.28125l0 -1.0625zm9.732483 3.984375l-1.078125 0l0 -9.546875l1.171875 0l0 3.40625q0.734375 -0.921875 1.890625 -0.921875q0.640625 0 1.203125 0.265625q0.578125 0.25 0.9375 0.71875q0.375 0.453125 0.578125 1.109375q0.203125 0.65625 0.203125 1.40625q0 1.78125 -0.875 2.75q-0.875 0.96875 -2.109375 0.96875q-1.21875 0 -1.921875 -1.015625l0 0.859375zm0 -3.5q0 1.234375 0.328125 1.78125q0.5625 0.90625 1.5 0.90625q0.765625 0 1.328125 -0.65625q0.5625 -0.671875 0.5625 -2.0q0 -1.34375 -0.546875 -1.984375q-0.53125 -0.65625 -1.296875 -0.65625q-0.765625 0 -1.328125 0.671875q-0.546875 0.671875 -0.546875 1.9375zm6.6624756 -2.078125l0 -1.328125l1.328125 0l0 1.328125l-1.328125 0zm0 5.578125l0 -1.328125l1.328125 0l0 1.328125l-1.328125 0zm11.1716 0l-1.171875 0l0 -7.46875q-0.421875 0.40625 -1.109375 0.8125q-0.6875 0.40625 -1.234375 0.609375l0 -1.140625q0.984375 -0.453125 1.71875 -1.109375q0.734375 -0.671875 1.03125 -1.28125l0.765625 0l0 9.578125zm10.2248535 -3.984375l0 1.0625q-0.5 0.015625 -0.828125 0.28125q-0.3125 0.25 -0.421875 0.703125q-0.09375 0.4375 -0.109375 1.53125q0 1.078125 -0.03125 1.421875q-0.0625 0.5625 -0.21875 0.890625q-0.15625 0.328125 -0.390625 0.515625q-0.234375 0.203125 -0.59375 0.3125q-0.25 0.078125 -0.8125 0.078125l-0.359375 0l0 -1.03125l0.1875 0q0.6875 0 0.90625 -0.25q0.21875 -0.234375 0.21875 -1.09375q0 -1.625 0.0625 -2.0625q0.109375 -0.71875 0.421875 -1.140625q0.3125 -0.4375 0.875 -0.6875q-0.75 -0.359375 -1.0625 -0.9375q-0.296875 -0.59375 -0.296875 -2.0q0 -1.265625 -0.03125 -1.515625q-0.046875 -0.4375 -0.265625 -0.609375q-0.203125 -0.171875 -0.828125 -0.171875l-0.1875 0l0 -1.015625l0.359375 0q0.640625 0 0.921875 0.109375q0.421875 0.140625 0.6875 0.484375q0.28125 0.328125 0.359375 0.84375q0.078125 0.515625 0.078125 1.6875q0.015625 1.171875 0.109375 1.625q0.109375 0.4375 0.421875 0.703125q0.328125 0.25 0.828125 0.265625z" fill-rule="nonzero"/><path fill="#000000" d="m274.41504 96.85118l0 -1.328125l1.34375 0l0 1.328125l-1.34375 0zm3.703003 0l0 -1.328125l1.34375 0l0 1.328125l-1.34375 0zm3.7029724 0l0 -1.328125l1.34375 0l0 1.328125l-1.34375 0z" fill-rule="nonzero"/><path fill="#cfe2f3" d="m15.3110075 134.91454l113.291336 0l0 59.716537l-113.291336 0z" fill-rule="evenodd"/><path stroke="#a4c2f4" stroke-width="1.0" stroke-linejoin="round" stroke-linecap="butt" d="m15.3110075 134.91454l113.291336 0l0 59.716537l-113.291336 0z" fill-rule="evenodd"/><path fill="#000000" d="m52.49574 161.27592l2.515625 0q1.46875 0 2.1875 0.578125q0.71875 0.5625 0.71875 1.5625q0 0.5 -0.28125 0.984375q-0.265625 0.46875 -0.71875 0.71875q0.375 0.1875 0.671875 0.515625q0.3125 0.3125 0.484375 0.703125q0.171875 0.390625 0.171875 0.796875q0 1.140625 -0.8125 1.796875q-0.8125 0.640625 -2.421875 0.640625l-2.515625 0l0 -8.296875zm2.40625 3.234375q0.796875 0 1.15625 -0.265625q0.359375 -0.28125 0.359375 -0.75q0 -0.265625 -0.15625 -0.484375q-0.15625 -0.234375 -0.46875 -0.359375q-0.3125 -0.140625 -0.765625 -0.140625l-1.03125 0l0 2.0l0.90625 0zm0.25 3.796875q0.75 0 1.140625 -0.28125q0.390625 -0.28125 0.390625 -0.9375q0 -0.625 -0.421875 -1.0q-0.421875 -0.375 -1.328125 -0.375l-0.9375 0l0 2.59375l1.15625 0zm6.6640625 -5.15625q1.21875 0 1.953125 0.609375q0.7499962 0.609375 0.7499962 2.03125l0 3.78125l-1.4218712 0l0 -0.5625q-0.359375 0.34375 -0.875 0.53125q-0.5 0.1875 -1.078125 0.1875q-0.96875 0 -1.484375 -0.46875q-0.5 -0.484375 -0.5 -1.296875q0 -0.671875 0.421875 -1.140625q0.421875 -0.46875 1.203125 -0.703125q0.796875 -0.25 1.890625 -0.25l0.46875 0q-0.078125 -0.8125 -0.40625 -1.15625q-0.328125 -0.359375 -1.0 -0.359375q-0.4375 0 -0.90625 0.234375q-0.453125 0.21875 -0.84375 0.625l-0.765625 -0.984375q0.59375 -0.53125 1.265625 -0.796875q0.671875 -0.28125 1.328125 -0.28125zm-0.1875 5.453125q0.65625 0 1.046875 -0.421875q0.390625 -0.421875 0.46875 -1.3125l-0.3125 0q-1.140625 0 -1.671875 0.25q-0.515625 0.234375 -0.515625 0.78125q0 0.359375 0.25 0.53125q0.265625 0.171875 0.734375 0.171875zm7.6015587 -2.75q0.78125 0.234375 1.203125 0.484375q0.4375 0.234375 0.640625 0.5625q0.203125 0.328125 0.203125 0.828125q0 0.546875 -0.328125 1.015625q-0.3125 0.46875 -0.875 0.765625q-0.5625 0.28125 -1.25 0.28125q-0.9375 0 -1.640625 -0.25q-0.6875 -0.25 -1.265625 -0.8125l0.625 -1.09375l0 -0.015625l0.015625 0.015625q0.453125 0.5 0.984375 0.734375q0.53125 0.21875 1.296875 0.21875q1.0625 0 1.0625 -0.703125q0 -0.21875 -0.125 -0.375q-0.125 -0.15625 -0.421875 -0.28125q-0.28125 -0.140625 -0.78125 -0.28125q-1.078125 -0.28125 -1.671875 -0.703125q-0.59375 -0.421875 -0.59375 -1.171875q0 -0.546875 0.28125 -0.96875q0.296875 -0.421875 0.84375 -0.65625q0.546875 -0.234375 1.265625 -0.234375q0.734375 0 1.328125 0.234375q0.609375 0.234375 1.109375 0.734375l-0.75 1.046875l0 0.015625q-0.015625 0 -0.015625 0q0 -0.015625 0 -0.015625q-0.265625 -0.390625 -0.703125 -0.59375q-0.4375 -0.21875 -0.9375 -0.21875q-0.390625 0 -0.671875 0.140625q-0.265625 0.125 -0.265625 0.359375q0 0.21875 0.140625 0.375q0.15625 0.15625 0.453125 0.28125q0.296875 0.109375 0.84375 0.28125zm0.96875 -0.625q0 -0.015625 0.015625 -0.015625q0.015625 0 0.0625 0.03125q0.046875 0.03125 0.078125 0.046875l-0.03125 0.03125l-0.125 -0.078125l0 -0.015625zm0.1875 0.015625q0.046875 0.0625 0.046875 0.078125q0 0.015625 -0.03125 0q-0.03125 -0.015625 -0.046875 -0.03125l0.03125 -0.046875zm-3.65625 2.390625q0 0.015625 0 0.015625q-0.03125 0 -0.078125 -0.03125q-0.046875 -0.03125 -0.078125 -0.03125l0.03125 -0.046875l0.125 0.078125l0 0.015625zm-0.1875 -0.015625q-0.046875 -0.046875 -0.046875 -0.0625q0 0 0 0q0 -0.015625 0 -0.015625l0.078125 0.046875l-0.03125 0.03125zm9.0078125 2.171875q-0.890625 0 -1.59375 -0.390625q-0.703125 -0.390625 -1.109375 -1.125q-0.390625 -0.734375 -0.390625 -1.734375q0 -1.0 0.375 -1.75q0.375 -0.765625 1.046875 -1.171875q0.671875 -0.40625 1.515625 -0.40625q0.75 0 1.34375 0.359375q0.609375 0.34375 0.953125 1.03125q0.359375 0.6875 0.359375 1.65625q0 0.15625 -0.03125 0.4375l-0.015625 0.1875l-4.078125 0q0.09375 0.84375 0.53125 1.28125q0.4375 0.4375 1.046875 0.4375q0.421875 0 0.859375 -0.203125q0.4375 -0.203125 0.71875 -0.5625l0.828125 0.828125q-0.9375 1.125 -2.359375 1.125zm1.0 -4.0q0 -0.390625 -0.15625 -0.71875q-0.140625 -0.34375 -0.421875 -0.53125q-0.28125 -0.203125 -0.65625 -0.203125q-0.546875 0 -0.90625 0.390625q-0.359375 0.390625 -0.421875 1.0625l2.5625 0zm13.71875 3.78125l-0.59375 -2.140625l-2.125 0l-0.59375 2.140625l-1.546875 0l2.78125 -8.296875l0.875 0l2.765625 8.296875l-1.5625 0zm-2.421875 -3.1875l1.546875 0l-0.765625 -2.75l-0.78125 2.75z" fill-rule="nonzero"/><path fill="#d9ead3" d="m225.16534 134.91322l113.29132 0l0 59.716537l-113.29132 0z" fill-rule="evenodd"/><path stroke="#b6d7a8" stroke-width="1.0" stroke-linejoin="round" stroke-linecap="butt" d="m225.16534 134.91322l113.29132 0l0 59.716537l-113.29132 0z" fill-rule="evenodd"/><path fill="#000000" d="m262.35007 161.27461l2.515625 0q1.46875 0 2.1875 0.578125q0.71875 0.5625 0.71875 1.5625q0 0.5 -0.28125 0.984375q-0.265625 0.46875 -0.71875 0.71875q0.375 0.1875 0.671875 0.515625q0.3125 0.3125 0.484375 0.703125q0.171875 0.390625 0.171875 0.796875q0 1.140625 -0.8125 1.796875q-0.8125 0.640625 -2.421875 0.640625l-2.515625 0l0 -8.296875zm2.40625 3.234375q0.796875 0 1.15625 -0.265625q0.359375 -0.28125 0.359375 -0.75q0 -0.265625 -0.15625 -0.484375q-0.15625 -0.234375 -0.46875 -0.359375q-0.3125 -0.140625 -0.765625 -0.140625l-1.03125 0l0 2.0l0.90625 0zm0.25 3.796875q0.75 0 1.140625 -0.28125q0.390625 -0.28125 0.390625 -0.9375q0 -0.625 -0.421875 -1.0q-0.421875 -0.375 -1.328125 -0.375l-0.9375 0l0 2.59375l1.15625 0zm6.6640625 -5.15625q1.21875 0 1.953125 0.609375q0.75 0.609375 0.75 2.03125l0 3.78125l-1.421875 0l0 -0.5625q-0.359375 0.34375 -0.875 0.53125q-0.5 0.1875 -1.078125 0.1875q-0.96875 0 -1.484375 -0.46875q-0.5 -0.484375 -0.5 -1.296875q0 -0.671875 0.421875 -1.140625q0.421875 -0.46875 1.203125 -0.703125q0.796875 -0.25 1.890625 -0.25l0.46875 0q-0.078125 -0.8125 -0.40625 -1.15625q-0.328125 -0.359375 -1.0 -0.359375q-0.4375 0 -0.90625 0.234375q-0.453125 0.21875 -0.84375 0.625l-0.765625 -0.984375q0.59375 -0.53125 1.265625 -0.796875q0.671875 -0.28125 1.328125 -0.28125zm-0.1875 5.453125q0.65625 0 1.046875 -0.421875q0.390625 -0.421875 0.46875 -1.3125l-0.3125 0q-1.140625 0 -1.671875 0.25q-0.515625 0.234375 -0.515625 0.78125q0 0.359375 0.25 0.53125q0.265625 0.171875 0.734375 0.171875zm7.6015625 -2.75q0.78125 0.234375 1.203125 0.484375q0.4375 0.234375 0.640625 0.5625q0.203125 0.328125 0.203125 0.828125q0 0.546875 -0.328125 1.015625q-0.3125 0.46875 -0.875 0.765625q-0.5625 0.28125 -1.25 0.28125q-0.9375 0 -1.640625 -0.25q-0.6875 -0.25 -1.265625 -0.8125l0.625 -1.09375l0 -0.015625l0.015625 0.015625q0.453125 0.5 0.984375 0.734375q0.53125 0.21875 1.296875 0.21875q1.0625 0 1.0625 -0.703125q0 -0.21875 -0.125 -0.375q-0.125 -0.15625 -0.421875 -0.28125q-0.28125 -0.140625 -0.78125 -0.28125q-1.078125 -0.28125 -1.671875 -0.703125q-0.59375 -0.421875 -0.59375 -1.171875q0 -0.546875 0.28125 -0.96875q0.296875 -0.421875 0.84375 -0.65625q0.546875 -0.234375 1.265625 -0.234375q0.734375 0 1.328125 0.234375q0.609375 0.234375 1.109375 0.734375l-0.75 1.046875l0 0.015625q-0.015625 0 -0.015625 0q0 -0.015625 0 -0.015625q-0.265625 -0.390625 -0.703125 -0.59375q-0.4375 -0.21875 -0.9375 -0.21875q-0.390625 0 -0.671875 0.140625q-0.265625 0.125 -0.265625 0.359375q0 0.21875 0.140625 0.375q0.15625 0.15625 0.453125 0.28125q0.296875 0.109375 0.84375 0.28125zm0.96875 -0.625q0 -0.015625 0.015625 -0.015625q0.015625 0 0.0625 0.03125q0.046875 0.03125 0.078125 0.046875l-0.03125 0.03125l-0.125 -0.078125l0 -0.015625zm0.1875 0.015625q0.046875 0.0625 0.046875 0.078125q0 0.015625 -0.03125 0q-0.03125 -0.015625 -0.046875 -0.03125l0.03125 -0.046875zm-3.65625 2.390625q0 0.015625 0 0.015625q-0.03125 0 -0.078125 -0.03125q-0.046875 -0.03125 -0.078125 -0.03125l0.03125 -0.046875l0.125 0.078125l0 0.015625zm-0.1875 -0.015625q-0.046875 -0.046875 -0.046875 -0.0625q0 0 0 0q0 -0.015625 0 -0.015625l0.078125 0.046875l-0.03125 0.03125zm9.0078125 2.171875q-0.890625 0 -1.59375 -0.390625q-0.703125 -0.390625 -1.109375 -1.125q-0.390625 -0.734375 -0.390625 -1.734375q0 -1.0 0.375 -1.75q0.375 -0.765625 1.046875 -1.171875q0.671875 -0.40625 1.515625 -0.40625q0.75 0 1.34375 0.359375q0.609375 0.34375 0.953125 1.03125q0.359375 0.6875 0.359375 1.65625q0 0.15625 -0.03125 0.4375l-0.015625 0.1875l-4.078125 0q0.09375 0.84375 0.53125 1.28125q0.4375 0.4375 1.046875 0.4375q0.421875 0 0.859375 -0.203125q0.4375 -0.203125 0.71875 -0.5625l0.828125 0.828125q-0.9375 1.125 -2.359375 1.125zm1.0 -4.0q0 -0.390625 -0.15625 -0.71875q-0.140625 -0.34375 -0.421875 -0.53125q-0.28125 -0.203125 -0.65625 -0.203125q-0.546875 0 -0.90625 0.390625q-0.359375 0.390625 -0.421875 1.0625l2.5625 0zm9.265625 -4.515625l2.515625 0q1.46875 0 2.1875 0.578125q0.71875 0.5625 0.71875 1.5625q0 0.5 -0.28125 0.984375q-0.265625 0.46875 -0.71875 0.71875q0.375 0.1875 0.671875 0.515625q0.3125 0.3125 0.484375 0.703125q0.171875 0.390625 0.171875 0.796875q0 1.140625 -0.8125 1.796875q-0.8125 0.640625 -2.421875 0.640625l-2.515625 0l0 -8.296875zm2.40625 3.234375q0.796875 0 1.15625 -0.265625q0.359375 -0.28125 0.359375 -0.75q0 -0.265625 -0.15625 -0.484375q-0.15625 -0.234375 -0.46875 -0.359375q-0.3125 -0.140625 -0.765625 -0.140625l-1.03125 0l0 2.0l0.90625 0zm0.25 3.796875q0.75 0 1.140625 -0.28125q0.390625 -0.28125 0.390625 -0.9375q0 -0.625 -0.421875 -1.0q-0.421875 -0.375 -1.328125 -0.375l-0.9375 0l0 2.59375l1.15625 0z" fill-rule="nonzero"/><path stroke="#9e9e9e" stroke-width="2.0" stroke-linecap="butt" d="m0.9855643 0.47637796l0 111.73753" fill-rule="nonzero"/><path stroke="#9e9e9e" stroke-width="2.0" stroke-linecap="butt" d="m142.9252 0.47637796l0 111.73753" fill-rule="nonzero"/><path stroke="#9e9e9e" stroke-width="2.0" stroke-linecap="butt" d="m-0.0144356955 1.476378l143.93964 0" fill-rule="nonzero"/><path stroke="#9e9e9e" stroke-width="2.0" stroke-linecap="butt" d="m-0.0144356955 38.88845l143.93964 0" fill-rule="nonzero"/><path stroke="#9e9e9e" stroke-width="2.0" stroke-linecap="butt" d="m-0.0144356955 75.05118l143.93964 0" fill-rule="nonzero"/><path stroke="#9e9e9e" stroke-width="2.0" stroke-linecap="butt" d="m-0.0144356955 111.21391l143.93964 0" fill-rule="nonzero"/><path fill="#000000" d="m23.068665 23.276377l-1.015625 -8.296875l1.453125 0l0.484375 5.46875l0.96875 -4.796875l0.953125 0l0.984375 4.765625l0.34375 -5.4375l1.390625 0l-1.0 8.296875l-1.171875 0l-1.09375 -5.046875l-1.09375 5.046875l-1.203125 0zm11.1484375 -4.328125l0 -0.015625q-0.25 -0.40625 -0.546875 -0.578125q-0.28125 -0.171875 -0.65625 -0.171875q-0.484375 0 -0.875 0.234375q-0.375 0.21875 -0.59375 0.640625q-0.21875 0.40625 -0.21875 0.96875l0 3.25l-1.5 0l0 -6.21875l1.53125 0l0 0.890625q0.25 -0.484375 0.71875 -0.75q0.484375 -0.28125 1.078125 -0.28125q0.46875 0 0.921875 0.171875q0.453125 0.171875 0.8125 0.515625l-0.671875 1.34375zm-0.1875 0q0 0 0.015625 0q0.015625 0 0.0625 0.03125q0.046875 0.015625 0.078125 0.03125l-0.015625 0.015625l-0.125 -0.0625l-0.015625 -0.015625zm0.1875 0q0.046875 0.0625 0.046875 0.078125q0 0.015625 -0.015625 0.015625q-0.015625 0 -0.0625 -0.03125l0.03125 -0.0625zm2.2734375 4.328125l0 -1.203125l1.5 0l0 -3.828125l-1.4375 0l0 -1.1875l2.921875 0l0 5.015625l1.359375 0l0 1.203125l-4.34375 0zm2.140625 -7.296875q-0.25 0 -0.46875 -0.125q-0.21875 -0.125 -0.34375 -0.328125q-0.109375 -0.203125 -0.109375 -0.4375q0 -0.375 0.25 -0.625q0.265625 -0.25 0.671875 -0.25q0.234375 0 0.453125 0.125q0.21875 0.109375 0.34375 0.3125q0.140625 0.203125 0.140625 0.4375q0 0.234375 -0.140625 0.4375q-0.125 0.203125 -0.34375 0.328125q-0.21875 0.125 -0.453125 0.125zm9.3984375 6.734375q-0.484375 0.375 -1.015625 0.5625q-0.515625 0.1875 -1.125 0.1875q-0.96875 0 -1.484375 -0.5625q-0.515625 -0.578125 -0.515625 -1.984375q0 -0.359375 0.03125 -0.78125l0.109375 -1.875l-1.34375 0l0.03125 -1.203125l1.390625 0l0.078125 -1.453125l1.640625 -0.28125l0.03125 0.15625q-0.015625 0.015625 -0.0625 0.09375q-0.046875 0.0625 -0.09375 0.171875q-0.03125 0.09375 -0.03125 0.234375l-0.09375 1.078125l1.90625 0l-0.015625 1.203125l-1.921875 0l-0.140625 1.78125q-0.03125 0.453125 -0.03125 0.71875q0 0.828125 0.203125 1.15625q0.203125 0.328125 0.625 0.328125q0.40625 0 0.75 -0.15625q0.34375 -0.15625 0.765625 -0.515625l0.3125 1.140625zm4.1953125 0.78125q-0.890625 0 -1.59375 -0.390625q-0.703125 -0.390625 -1.109375 -1.125q-0.390625 -0.734375 -0.390625 -1.734375q0 -1.0 0.375 -1.75q0.375 -0.765625 1.046875 -1.171875q0.671875 -0.40625 1.515625 -0.40625q0.75 0 1.34375 0.359375q0.609375 0.34375 0.953125 1.03125q0.359375 0.6875 0.359375 1.65625q0 0.15625 -0.03125 0.4375l-0.015625 0.1875l-4.078125 0q0.09375 0.84375 0.53125 1.28125q0.4375 0.4375 1.046875 0.4375q0.421875 0 0.859375 -0.203125q0.4375 -0.203125 0.71875 -0.5625l0.828125 0.828125q-0.9375 1.125 -2.359375 1.125zm1.0 -4.0q0 -0.390625 -0.15625 -0.71875q-0.140625 -0.34375 -0.421875 -0.53125q-0.28125 -0.203125 -0.65625 -0.203125q-0.546875 0 -0.90625 0.390625q-0.359375 0.390625 -0.421875 1.0625l2.5625 0zm2.9296875 0.125l0 -1.21875l4.984375 0l0 1.21875l-4.984375 0zm8.9921875 -2.765625q1.21875 0 1.953125 0.609375q0.75 0.609375 0.75 2.03125l0 3.78125l-1.421875 0l0 -0.5625q-0.359375 0.34375 -0.875 0.53125q-0.5 0.1875 -1.078125 0.1875q-0.96875 0 -1.484375 -0.46875q-0.5 -0.484375 -0.5 -1.296875q0 -0.671875 0.421875 -1.140625q0.421875 -0.46875 1.203125 -0.703125q0.796875 -0.25 1.890625 -0.25l0.46875 0q-0.078125 -0.8125 -0.40625 -1.15625q-0.328125 -0.359375 -1.0 -0.359375q-0.4375 0 -0.90625 0.234375q-0.453125 0.21875 -0.84375 0.625l-0.765625 -0.984375q0.59375 -0.53125 1.265625 -0.796875q0.671875 -0.28125 1.328125 -0.28125zm-0.1875 5.453125q0.65625 0 1.046875 -0.421875q0.390625 -0.421875 0.46875 -1.3125l-0.3125 0q-1.140625 0 -1.671875 0.25q-0.515625 0.234375 -0.515625 0.78125q0 0.359375 0.25 0.53125q0.265625 0.171875 0.734375 0.171875zm4.4609375 -8.03125l1.609375 0l0 0.15625q-0.0625 0.078125 -0.09375 0.171875q-0.015625 0.09375 -0.015625 0.3125l0 2.78125q0.328125 -0.359375 0.765625 -0.5625q0.4375 -0.21875 0.875 -0.21875q1.0 0 1.546875 0.625q0.5625 0.625 0.5625 1.953125l0 3.78125l-1.515625 0l0 -3.765625q0 -0.6875 -0.25 -1.015625q-0.234375 -0.34375 -0.640625 -0.34375q-0.375 0 -0.6875 0.203125q-0.296875 0.1875 -0.484375 0.53125q-0.171875 0.34375 -0.171875 0.796875l0 3.59375l-1.5 0l0 -9.0zm9.4609375 9.21875q-0.890625 0 -1.59375 -0.390625q-0.703125 -0.390625 -1.109375 -1.125q-0.390625 -0.734375 -0.390625 -1.734375q0 -1.0 0.375 -1.75q0.375 -0.765625 1.046875 -1.171875q0.671875 -0.40625 1.515625 -0.40625q0.75 0 1.34375 0.359375q0.609375 0.34375 0.953125 1.03125q0.359375 0.6875 0.359375 1.65625q0 0.15625 -0.03125 0.4375l-0.015625 0.1875l-4.078125 0q0.09375 0.84375 0.53125 1.28125q0.4375 0.4375 1.046875 0.4375q0.421875 0 0.859375 -0.203125q0.4375 -0.203125 0.71875 -0.5625l0.828125 0.828125q-0.9375 1.125 -2.359375 1.125zm1.0 -4.0q0 -0.390625 -0.15625 -0.71875q-0.140625 -0.34375 -0.421875 -0.53125q-0.28125 -0.203125 -0.65625 -0.203125q-0.546875 0 -0.90625 0.390625q-0.359375 0.390625 -0.421875 1.0625l2.5625 0zm5.2578125 -2.640625q1.21875 0 1.953125 0.609375q0.75 0.609375 0.75 2.03125l0 3.78125l-1.421875 0l0 -0.5625q-0.359375 0.34375 -0.875 0.53125q-0.5 0.1875 -1.078125 0.1875q-0.96875 0 -1.484375 -0.46875q-0.5 -0.484375 -0.5 -1.296875q0 -0.671875 0.421875 -1.140625q0.421875 -0.46875 1.203125 -0.703125q0.796875 -0.25 1.890625 -0.25l0.46875 0q-0.078125 -0.8125 -0.40625 -1.15625q-0.328125 -0.359375 -1.0 -0.359375q-0.4375 0 -0.90625 0.234375q-0.453125 0.21875 -0.84375 0.625l-0.765625 -0.984375q0.59375 -0.53125 1.265625 -0.796875q0.671875 -0.28125 1.328125 -0.28125zm-0.1875 5.453125q0.65625 0 1.046875 -0.421875q0.390625 -0.421875 0.46875 -1.3125l-0.3125 0q-1.140625 0 -1.671875 0.25q-0.515625 0.234375 -0.515625 0.78125q0 0.359375 0.25 0.53125q0.265625 0.171875 0.734375 0.171875zm6.7109375 1.171875q-0.734375 0 -1.34375 -0.359375q-0.609375 -0.359375 -0.96875 -1.078125q-0.34375 -0.734375 -0.34375 -1.78125q0 -1.015625 0.359375 -1.765625q0.375 -0.765625 0.96875 -1.171875q0.609375 -0.40625 1.328125 -0.40625q0.359375 0 0.75 0.1875q0.40625 0.171875 0.6875 0.4375l0 -3.265625l1.625 0l0 0.15625q-0.078125 0.078125 -0.09375 0.171875q-0.015625 0.09375 -0.015625 0.3125l-0.03125 7.609375q0 0.234375 0.03125 0.40625q0.03125 0.171875 0.125 0.34375l-1.453125 0q-0.09375 -0.171875 -0.109375 -0.3125q-0.015625 -0.15625 -0.015625 -0.4375q-0.203125 0.46875 -0.625 0.71875q-0.421875 0.234375 -0.875 0.234375zm0.21875 -1.25q1.21875 0 1.21875 -2.140625q0 -0.890625 -0.265625 -1.421875q-0.25 -0.53125 -0.90625 -0.53125q-0.703125 0 -1.0625 0.59375q-0.34375 0.578125 -0.34375 1.5q0 0.703125 0.203125 1.15625q0.203125 0.453125 0.515625 0.65625q0.3125 0.1875 0.640625 0.1875zm10.953125 1.046875l0 -1.15625l1.703125 0l0 -6.671875l-1.625 0l0 -1.171875l3.140625 0l0 7.84375l1.6875 0l0 1.15625l-4.90625 0zm9.1171875 0.21875q-0.828125 0 -1.5 -0.421875q-0.671875 -0.421875 -1.0625 -1.171875q-0.390625 -0.765625 -0.390625 -1.734375q0 -0.90625 0.390625 -1.640625q0.390625 -0.75 1.0625 -1.171875q0.6875 -0.4375 1.5 -0.4375q0.8125 0 1.484375 0.4375q0.6875 0.421875 1.078125 1.171875q0.40625 0.734375 0.40625 1.640625q0 0.96875 -0.390625 1.734375q-0.390625 0.75 -1.078125 1.171875q-0.671875 0.421875 -1.5 0.421875zm0 -1.203125q0.4375 0 0.765625 -0.265625q0.328125 -0.265625 0.5 -0.734375q0.1875 -0.484375 0.1875 -1.125q0 -0.625 -0.1875 -1.09375q-0.171875 -0.46875 -0.5 -0.703125q-0.328125 -0.25 -0.765625 -0.25q-0.421875 0 -0.75 0.25q-0.3125 0.234375 -0.5 0.703125q-0.171875 0.46875 -0.171875 1.09375q0 0.640625 0.171875 1.125q0.171875 0.46875 0.484375 0.734375q0.328125 0.265625 0.765625 0.265625zm7.3359375 -0.375q2.03125 0 2.03125 1.59375q0 0.578125 -0.328125 1.046875q-0.328125 0.46875 -0.984375 0.734375q-0.65625 0.28125 -1.625 0.28125q-1.203125 0 -1.8125 -0.40625q-0.609375 -0.390625 -0.609375 -1.109375q0 -0.375 0.1875 -0.71875q0.1875 -0.328125 0.53125 -0.546875q-0.5625 -0.328125 -0.5625 -0.953125q0 -0.359375 0.1875 -0.640625q0.1875 -0.28125 0.53125 -0.515625q-0.359375 -0.3125 -0.5625 -0.734375q-0.1875 -0.4375 -0.1875 -0.90625q0 -0.609375 0.3125 -1.109375q0.3125 -0.515625 0.828125 -0.8125q0.515625 -0.3125 1.140625 -0.3125q0.390625 0 0.75 0.140625q0.359375 0.125 0.671875 0.359375q0.328125 -0.1875 0.734375 -0.296875q0.421875 -0.109375 0.84375 -0.109375q0.140625 0 0.21875 0l0.15625 1.140625q-0.3125 -0.078125 -0.65625 -0.078125q-0.40625 0 -0.671875 0.09375q0.234375 0.46875 0.234375 0.984375q0 0.59375 -0.3125 1.109375q-0.3125 0.515625 -0.84375 0.8125q-0.515625 0.296875 -1.125 0.296875q-0.484375 0 -0.921875 -0.1875q-0.078125 0.09375 -0.109375 0.171875q-0.03125 0.078125 -0.03125 0.171875q0 0.25 0.4375 0.375q0.453125 0.125 1.546875 0.125zm-0.921875 -3.890625q-0.25 0 -0.46875 0.140625q-0.21875 0.125 -0.359375 0.359375q-0.125 0.234375 -0.125 0.515625q0 0.265625 0.125 0.5q0.140625 0.234375 0.359375 0.375q0.21875 0.125 0.46875 0.125q0.25 0 0.46875 -0.125q0.21875 -0.140625 0.34375 -0.375q0.140625 -0.234375 0.140625 -0.5q0 -0.28125 -0.140625 -0.515625q-0.125 -0.234375 -0.34375 -0.359375q-0.21875 -0.140625 -0.46875 -0.140625zm0.21875 6.453125q0.625 0 0.984375 -0.21875q0.375 -0.203125 0.375 -0.5625q0 -0.1875 -0.09375 -0.3125q-0.09375 -0.125 -0.328125 -0.171875q-0.21875 -0.0625 -0.640625 -0.0625q-0.875 0 -1.390625 -0.09375q-0.171875 0.15625 -0.25 0.296875q-0.078125 0.15625 -0.078125 0.375q0 0.375 0.375 0.5625q0.375 0.1875 1.046875 0.1875z" fill-rule="nonzero"/><path fill="#000000" d="m53.060547 56.704075q0.5 -0.015625 0.8125 -0.265625q0.3125 -0.265625 0.421875 -0.703125q0.109375 -0.453125 0.109375 -1.53125q0 -1.09375 0.03125 -1.4375q0.0625 -0.546875 0.21875 -0.875q0.171875 -0.34375 0.40625 -0.53125q0.234375 -0.203125 0.59375 -0.3125q0.25 -0.0625 0.8125 -0.0625l0.359375 0l0 1.015625l-0.203125 0q-0.671875 0 -0.90625 0.25q-0.21875 0.25 -0.21875 1.09375q0 1.703125 -0.0625 2.15625q-0.125 0.6875 -0.40625 1.078125q-0.28125 0.375 -0.890625 0.65625q0.71875 0.296875 1.03125 0.921875q0.328125 0.609375 0.328125 2.015625q0 1.265625 0.03125 1.5q0.046875 0.453125 0.25 0.625q0.21875 0.171875 0.84375 0.171875l0.203125 0l0 1.03125l-0.359375 0q-0.640625 0 -0.9375 -0.109375q-0.40625 -0.15625 -0.6875 -0.5q-0.265625 -0.328125 -0.359375 -0.84375q-0.078125 -0.5 -0.078125 -1.671875q0 -1.171875 -0.109375 -1.625q-0.109375 -0.453125 -0.421875 -0.703125q-0.3125 -0.265625 -0.8125 -0.28125l0 -1.0625zm13.169998 3.125q-0.65625 0.5625 -1.265625 0.796875q-0.59375 0.21875 -1.28125 0.21875q-1.140625 0 -1.75 -0.546875q-0.609375 -0.5625 -0.609375 -1.4375q0 -0.5 0.21875 -0.921875q0.234375 -0.421875 0.609375 -0.671875q0.375 -0.25 0.84375 -0.390625q0.34375 -0.078125 1.046875 -0.171875q1.421875 -0.171875 2.09375 -0.40625q0 -0.234375 0 -0.296875q0 -0.71875 -0.328125 -1.015625q-0.453125 -0.390625 -1.34375 -0.390625q-0.8125 0 -1.21875 0.296875q-0.390625 0.28125 -0.578125 1.015625l-1.140625 -0.15625q0.15625 -0.734375 0.515625 -1.1875q0.359375 -0.453125 1.03125 -0.6875q0.671875 -0.25 1.5625 -0.25q0.890625 0 1.4375 0.203125q0.5625 0.203125 0.8125 0.53125q0.265625 0.3125 0.375 0.796875q0.046875 0.296875 0.046875 1.078125l0 1.5625q0 1.625 0.078125 2.0625q0.078125 0.4375 0.296875 0.828125l-1.21875 0q-0.1875 -0.359375 -0.234375 -0.859375zm-0.09375 -2.609375q-0.640625 0.265625 -1.921875 0.4375q-0.71875 0.109375 -1.015625 0.25q-0.296875 0.125 -0.46875 0.375q-0.15625 0.25 -0.15625 0.546875q0 0.46875 0.34375 0.78125q0.359375 0.3125 1.046875 0.3125q0.671875 0 1.203125 -0.296875q0.53125 -0.296875 0.78125 -0.8125q0.1875 -0.390625 0.1875 -1.171875l0 -0.421875zm3.3187256 -2.109375l0 -1.328125l1.328125 0l0 1.328125l-1.328125 0zm0 5.578125l0 -1.328125l1.328125 0l0 1.328125l-1.328125 0zm11.1716 0l-1.171875 0l0 -7.46875q-0.421875 0.40625 -1.109375 0.8125q-0.6875 0.40625 -1.234375 0.609375l0 -1.140625q0.984375 -0.453125 1.71875 -1.109375q0.734375 -0.671875 1.03125 -1.28125l0.765625 0l0 9.578125zm10.224838 -3.984375l0 1.0625q-0.5 0.015625 -0.828125 0.28125q-0.3125 0.25 -0.421875 0.703125q-0.09375 0.4375 -0.109375 1.53125q0 1.078125 -0.03125 1.421875q-0.0625 0.5625 -0.21875 0.890625q-0.15625 0.328125 -0.390625 0.515625q-0.234375 0.203125 -0.59375 0.3125q-0.25 0.078125 -0.8125 0.078125l-0.359375 0l0 -1.03125l0.1875 0q0.6875 0 0.90625 -0.25q0.21875 -0.234375 0.21875 -1.09375q0 -1.625 0.0625 -2.0625q0.109375 -0.71875 0.421875 -1.140625q0.3125 -0.4375 0.875 -0.6875q-0.75 -0.359375 -1.0625 -0.9375q-0.296875 -0.59375 -0.296875 -2.0q0 -1.265625 -0.03125 -1.515625q-0.046875 -0.4375 -0.265625 -0.609375q-0.203125 -0.171875 -0.828125 -0.171875l-0.1875 0l0 -1.015625l0.359375 0q0.640625 0 0.921875 0.109375q0.421875 0.140625 0.6875 0.484375q0.28125 0.328125 0.359375 0.84375q0.078125 0.515625 0.078125 1.6875q0.015625 1.171875 0.109375 1.625q0.109375 0.4375 0.421875 0.703125q0.328125 0.25 0.828125 0.265625z" fill-rule="nonzero"/><path fill="#000000" d="m67.60403 96.85118l0 -1.328125l1.34375 0l0 1.328125l-1.34375 0zm3.7029877 0l0 -1.328125l1.34375 0l0 1.328125l-1.34375 0zm3.7029877 0l0 -1.328125l1.34375 0l0 1.328125l-1.34375 0z" fill-rule="nonzero"/><path fill="#000000" fill-opacity="0.0" d="m97.91338 218.32808l162.83463 0l0 35.559067l-162.83463 0z" fill-rule="evenodd"/><path fill="#000000" d="m121.600235 235.79996l0 -0.015625q-0.25 -0.40625 -0.546875 -0.578125q-0.28125 -0.171875 -0.65625 -0.171875q-0.484375 0 -0.875 0.234375q-0.375 0.21875 -0.59375 0.640625q-0.21875 0.40625 -0.21875 0.96875l0 3.25l-1.5 0l0 -6.21875l1.53125 0l0 0.890625q0.25 -0.484375 0.71875 -0.75q0.484375 -0.28125 1.078125 -0.28125q0.46875 0 0.921875 0.171875q0.453125 0.171875 0.8125 0.515625l-0.671875 1.34375zm-0.1875 0q0 0 0.015625 0q0.015625 0 0.0625 0.03125q0.046875 0.015625 0.078125 0.03125l-0.015625 0.015625l-0.125 -0.0625l-0.015625 -0.015625zm0.1875 0q0.046875 0.0625 0.046875 0.078125q0 0.015625 -0.015625 0.015625q-0.015625 0 -0.0625 -0.03125l0.03125 -0.0625zm4.6796875 4.546875q-0.890625 0 -1.59375 -0.390625q-0.703125 -0.390625 -1.109375 -1.125q-0.390625 -0.734375 -0.390625 -1.734375q0 -1.0 0.375 -1.75q0.375 -0.765625 1.046875 -1.171875q0.671875 -0.40625 1.515625 -0.40625q0.75 0 1.34375 0.359375q0.609375 0.34375 0.953125 1.03125q0.359375 0.6875 0.359375 1.65625q0 0.15625 -0.03125 0.4375l-0.015625 0.1875l-4.078125 0q0.09375 0.84375 0.53125 1.28125q0.4375 0.4375 1.046875 0.4375q0.421875 0 0.859375 -0.203125q0.4375 -0.203125 0.71875 -0.5625l0.828125 0.828125q-0.9375 1.125 -2.359375 1.125zm1.0 -4.0q0 -0.390625 -0.15625 -0.71875q-0.140625 -0.34375 -0.421875 -0.53125q-0.28125 -0.203125 -0.65625 -0.203125q-0.546875 0 -0.90625 0.390625q-0.359375 0.390625 -0.421875 1.0625l2.5625 0zm6.0078125 0.0625q0.78125 0.234375 1.203125 0.484375q0.4375 0.234375 0.640625 0.5625q0.203125 0.328125 0.203125 0.828125q0 0.546875 -0.328125 1.015625q-0.3125 0.46875 -0.875 0.765625q-0.5625 0.28125 -1.25 0.28125q-0.9375 0 -1.640625 -0.25q-0.6875 -0.25 -1.265625 -0.8125l0.625 -1.09375l0 -0.015625l0.015625 0.015625q0.453125 0.5 0.984375 0.734375q0.53125 0.21875 1.296875 0.21875q1.0625 0 1.0625 -0.703125q0 -0.21875 -0.125 -0.375q-0.125 -0.15625 -0.421875 -0.28125q-0.28125 -0.140625 -0.78125 -0.28125q-1.078125 -0.28125 -1.671875 -0.703125q-0.59375 -0.421875 -0.59375 -1.171875q0 -0.546875 0.28125 -0.96875q0.296875 -0.421875 0.84375 -0.65625q0.546875 -0.234375 1.265625 -0.234375q0.734375 0 1.328125 0.234375q0.609375 0.234375 1.109375 0.734375l-0.75 1.046875l0 0.015625q-0.015625 0 -0.015625 0q0 -0.015625 0 -0.015625q-0.265625 -0.390625 -0.703125 -0.59375q-0.4375 -0.21875 -0.9375 -0.21875q-0.390625 0 -0.671875 0.140625q-0.265625 0.125 -0.265625 0.359375q0 0.21875 0.140625 0.375q0.15625 0.15625 0.453125 0.28125q0.296875 0.109375 0.84375 0.28125zm0.96875 -0.625q0 -0.015625 0.015625 -0.015625q0.015625 0 0.0625 0.03125q0.046875 0.03125 0.078125 0.046875l-0.03125 0.03125l-0.125 -0.078125l0 -0.015625zm0.1875 0.015625q0.046875 0.0625 0.046875 0.078125q0 0.015625 -0.03125 0q-0.03125 -0.015625 -0.046875 -0.03125l0.03125 -0.046875zm-3.65625 2.390625q0 0.015625 0 0.015625q-0.03125 0 -0.078125 -0.03125q-0.046875 -0.03125 -0.078125 -0.03125l0.03125 -0.046875l0.125 0.078125l0 0.015625zm-0.1875 -0.015625q-0.046875 -0.046875 -0.046875 -0.0625q0 0 0 0q0 -0.015625 0 -0.015625l0.078125 0.046875l-0.03125 0.03125zm11.4765625 1.390625q-0.484375 0.375 -1.015625 0.5625q-0.515625 0.1875 -1.125 0.1875q-0.96875 0 -1.484375 -0.5625q-0.515625 -0.578125 -0.515625 -1.984375q0 -0.359375 0.03125 -0.78125l0.109375 -1.875l-1.34375 0l0.03125 -1.203125l1.390625 0l0.078125 -1.453125l1.640625 -0.28125l0.03125 0.15625q-0.015625 0.015625 -0.0625 0.09375q-0.046875 0.0625 -0.09375 0.171875q-0.03125 0.09375 -0.03125 0.234375l-0.09375 1.078125l1.90625 0l-0.015625 1.203125l-1.921875 0l-0.140625 1.78125q-0.03125 0.453125 -0.03125 0.71875q0 0.828125 0.203125 1.15625q0.203125 0.328125 0.625 0.328125q0.40625 0 0.75 -0.15625q0.34375 -0.15625 0.765625 -0.515625l0.3125 1.140625zm10.609375 0.78125q-0.828125 0 -1.5 -0.421875q-0.671875 -0.421875 -1.0625 -1.171875q-0.390625 -0.765625 -0.390625 -1.734375q0 -0.90625 0.390625 -1.640625q0.390625 -0.75 1.0625 -1.171875q0.6875 -0.4375 1.5 -0.4375q0.8125 0 1.484375 0.4375q0.6875 0.421875 1.078125 1.171875q0.40625 0.734375 0.40625 1.640625q0 0.96875 -0.390625 1.734375q-0.390625 0.75 -1.078125 1.171875q-0.671875 0.421875 -1.5 0.421875zm0 -1.203125q0.4375 0 0.765625 -0.265625q0.328125 -0.265625 0.5 -0.734375q0.1875 -0.484375 0.1875 -1.125q0 -0.625 -0.1875 -1.09375q-0.171875 -0.46875 -0.5 -0.703125q-0.328125 -0.25 -0.765625 -0.25q-0.421875 0 -0.75 0.25q-0.3125 0.234375 -0.5 0.703125q-0.171875 0.46875 -0.171875 1.09375q0 0.640625 0.171875 1.125q0.171875 0.46875 0.484375 0.734375q0.328125 0.265625 0.765625 0.265625zm9.2109375 -6.296875l-0.015625 0l0 0q-0.421875 -0.375 -0.703125 -0.5q-0.265625 -0.140625 -0.625 -0.140625q-0.609375 0 -0.921875 0.375q-0.3125 0.359375 -0.3125 1.078125l0 0.25l1.90625 0l0 1.1875l-1.90625 0l0 5.03125l-1.453125 0l0 -5.03125l-1.359375 0l0 -1.1875l1.359375 0l0 -0.25q0 -0.828125 0.34375 -1.421875q0.34375 -0.59375 0.921875 -0.90625q0.59375 -0.3125 1.296875 -0.3125q1.203125 0 2.0625 0.875l-0.59375 0.953125zm-0.203125 0q0 -0.015625 0.03125 -0.015625q0.015625 0 0.125 0.046875l-0.03125 0.0625l-0.125 -0.078125l0 -0.015625zm0.1875 0q0.078125 0.078125 0.078125 0.078125q0 0 -0.109375 -0.046875l0.03125 -0.03125zm11.46875 5.921875q2.03125 0 2.03125 1.59375q0 0.578125 -0.328125 1.046875q-0.328125 0.46875 -0.984375 0.734375q-0.65625 0.28125 -1.625 0.28125q-1.203125 0 -1.8125 -0.40625q-0.609375 -0.390625 -0.609375 -1.109375q0 -0.375 0.1875 -0.71875q0.1875 -0.328125 0.53125 -0.546875q-0.5625 -0.328125 -0.5625 -0.953125q0 -0.359375 0.1875 -0.640625q0.1875 -0.28125 0.53125 -0.515625q-0.359375 -0.3125 -0.5625 -0.734375q-0.1875 -0.4375 -0.1875 -0.90625q0 -0.609375 0.3125 -1.109375q0.3125 -0.515625 0.828125 -0.8125q0.515625 -0.3125 1.140625 -0.3125q0.390625 0 0.75 0.140625q0.359375 0.125 0.671875 0.359375q0.328125 -0.1875 0.734375 -0.296875q0.421875 -0.109375 0.84375 -0.109375q0.140625 0 0.21875 0l0.15625 1.140625q-0.3125 -0.078125 -0.65625 -0.078125q-0.40625 0 -0.671875 0.09375q0.234375 0.46875 0.234375 0.984375q0 0.59375 -0.3125 1.109375q-0.3125 0.515625 -0.84375 0.8125q-0.515625 0.296875 -1.125 0.296875q-0.484375 0 -0.921875 -0.1875q-0.078125 0.09375 -0.109375 0.171875q-0.03125 0.078125 -0.03125 0.171875q0 0.25 0.4375 0.375q0.453125 0.125 1.546875 0.125zm-0.921875 -3.890625q-0.25 0 -0.46875 0.140625q-0.21875 0.125 -0.359375 0.359375q-0.125 0.234375 -0.125 0.515625q0 0.265625 0.125 0.5q0.140625 0.234375 0.359375 0.375q0.21875 0.125 0.46875 0.125q0.25 0 0.46875 -0.125q0.21875 -0.140625 0.34375 -0.375q0.140625 -0.234375 0.140625 -0.5q0 -0.28125 -0.140625 -0.515625q-0.125 -0.234375 -0.34375 -0.359375q-0.21875 -0.140625 -0.46875 -0.140625zm0.21875 6.453125q0.625 0 0.984375 -0.21875q0.375 -0.203125 0.375 -0.5625q0 -0.1875 -0.09375 -0.3125q-0.09375 -0.125 -0.328125 -0.171875q-0.21875 -0.0625 -0.640625 -0.0625q-0.875 0 -1.390625 -0.09375q-0.171875 0.15625 -0.25 0.296875q-0.078125 0.15625 -0.078125 0.375q0 0.375 0.375 0.5625q0.375 0.1875 1.046875 0.1875zm8.9296875 -5.53125l0 -0.015625q-0.25 -0.40625 -0.546875 -0.578125q-0.28125 -0.171875 -0.65625 -0.171875q-0.484375 0 -0.875 0.234375q-0.375 0.21875 -0.59375 0.640625q-0.21875 0.40625 -0.21875 0.96875l0 3.25l-1.5 0l0 -6.21875l1.53125 0l0 0.890625q0.25 -0.484375 0.71875 -0.75q0.484375 -0.28125 1.078125 -0.28125q0.46875 0 0.921875 0.171875q0.453125 0.171875 0.8125 0.515625l-0.671875 1.34375zm-0.1875 0q0 0 0.015625 0q0.015625 0 0.0625 0.03125q0.046875 0.015625 0.078125 0.03125l-0.015625 0.015625l-0.125 -0.0625l-0.015625 -0.015625zm0.1875 0q0.046875 0.0625 0.046875 0.078125q0 0.015625 -0.015625 0.015625q-0.015625 0 -0.0625 -0.03125l0.03125 -0.0625zm4.2734375 -2.09375q1.21875 0 1.953125 0.609375q0.75 0.609375 0.75 2.03125l0 3.78125l-1.421875 0l0 -0.5625q-0.359375 0.34375 -0.875 0.53125q-0.5 0.1875 -1.078125 0.1875q-0.96875 0 -1.484375 -0.46875q-0.5 -0.484375 -0.5 -1.296875q0 -0.671875 0.421875 -1.140625q0.421875 -0.46875 1.203125 -0.703125q0.796875 -0.25 1.890625 -0.25l0.46875 0q-0.078125 -0.8125 -0.40625 -1.15625q-0.328125 -0.359375 -1.0 -0.359375q-0.4375 0 -0.90625 0.234375q-0.453125 0.21875 -0.84375 0.625l-0.765625 -0.984375q0.59375 -0.53125 1.265625 -0.796875q0.671875 -0.28125 1.328125 -0.28125zm-0.1875 5.453125q0.65625 0 1.046875 -0.421875q0.390625 -0.421875 0.46875 -1.3125l-0.3125 0q-1.140625 0 -1.671875 0.25q-0.515625 0.234375 -0.515625 0.78125q0 0.359375 0.25 0.53125q0.265625 0.171875 0.734375 0.171875zm4.3828125 -5.25l1.4375 0l0 0.765625q0.296875 -0.46875 0.6875 -0.6875q0.40625 -0.21875 0.921875 -0.21875q0.6875 0 1.265625 0.375q0.578125 0.375 0.921875 1.125q0.34375 0.734375 0.34375 1.78125q0 1.0625 -0.359375 1.796875q-0.34375 0.734375 -0.921875 1.109375q-0.578125 0.375 -1.234375 0.375q-0.5 0 -0.90625 -0.203125q-0.390625 -0.21875 -0.65625 -0.671875l0 2.890625l-1.484375 0l-0.015625 -8.4375zm2.71875 5.1875q0.375 0 0.6875 -0.21875q0.3125 -0.234375 0.484375 -0.703125q0.1875 -0.484375 0.1875 -1.203125q0 -0.890625 -0.3125 -1.421875q-0.296875 -0.546875 -0.953125 -0.546875q-0.6875 0 -1.0 0.578125q-0.3125 0.5625 -0.3125 1.515625q0 1.015625 0.328125 1.515625q0.328125 0.484375 0.890625 0.484375zm4.0234375 -7.96875l1.609375 0l0 0.15625q-0.0625 0.078125 -0.09375 0.171875q-0.015625 0.09375 -0.015625 0.3125l0 2.78125q0.328125 -0.359375 0.765625 -0.5625q0.4375 -0.21875 0.875 -0.21875q1.0 0 1.546875 0.625q0.5625 0.625 0.5625 1.953125l0 3.78125l-1.515625 0l0 -3.765625q0 -0.6875 -0.25 -1.015625q-0.234375 -0.34375 -0.640625 -0.34375q-0.375 0 -0.6875 0.203125q-0.296875 0.1875 -0.484375 0.53125q-0.171875 0.34375 -0.171875 0.796875l0 3.59375l-1.5 0l0 -9.0zm17.828125 11.421875q-1.171875 -0.484375 -2.0625 -1.375q-0.875 -0.890625 -1.359375 -2.015625q-0.46875 -1.140625 -0.46875 -2.34375q0 -1.203125 0.453125 -2.296875q0.46875 -1.109375 1.328125 -1.96875q0.859375 -0.875 2.03125 -1.359375l0.34375 1.15625q-1.34375 0.6875 -2.0625 1.859375q-0.71875 1.15625 -0.71875 2.640625q0 0.96875 0.34375 1.859375q0.34375 0.890625 0.984375 1.59375q0.640625 0.703125 1.53125 1.125l-0.34375 1.125zm4.5703125 -2.25q-0.25 0 -0.46875 -0.125q-0.203125 -0.109375 -0.328125 -0.3125q-0.109375 -0.21875 -0.109375 -0.46875q0 -0.234375 0.109375 -0.4375q0.125 -0.21875 0.328125 -0.328125q0.21875 -0.125 0.46875 -0.125q0.234375 0 0.4375 0.125q0.21875 0.109375 0.328125 0.328125q0.125 0.203125 0.125 0.4375q0 0.25 -0.125 0.46875q-0.109375 0.203125 -0.328125 0.3125q-0.203125 0.125 -0.4375 0.125zm6.6640625 0q-0.25 0 -0.46875 -0.125q-0.203125 -0.109375 -0.328125 -0.3125q-0.109375 -0.21875 -0.109375 -0.46875q0 -0.234375 0.109375 -0.4375q0.125 -0.21875 0.328125 -0.328125q0.21875 -0.125 0.46875 -0.125q0.23439026 0 0.43751526 0.125q0.21875 0.109375 0.328125 0.328125q0.125 0.203125 0.125 0.4375q0 0.25 -0.125 0.46875q-0.109375 0.203125 -0.328125 0.3125q-0.203125 0.125 -0.43751526 0.125zm6.6640778 0q-0.25 0 -0.46875 -0.125q-0.203125 -0.109375 -0.328125 -0.3125q-0.109375 -0.21875 -0.109375 -0.46875q0 -0.234375 0.109375 -0.4375q0.125 -0.21875 0.328125 -0.328125q0.21875 -0.125 0.46875 -0.125q0.234375 0 0.4375 0.125q0.21875 0.109375 0.328125 0.328125q0.125 0.203125 0.125 0.4375q0 0.25 -0.125 0.46875q-0.109375 0.203125 -0.328125 0.3125q-0.203125 0.125 -0.4375 0.125zm4.8671875 1.125q0.875 -0.421875 1.515625 -1.125q0.65625 -0.703125 0.984375 -1.59375q0.34375 -0.890625 0.34375 -1.859375q0 -1.484375 -0.71875 -2.640625q-0.71875 -1.171875 -2.046875 -1.859375l0.34375 -1.15625q1.15625 0.484375 2.015625 1.359375q0.875 0.859375 1.328125 1.96875q0.46875 1.09375 0.46875 2.296875q0 1.203125 -0.484375 2.34375q-0.484375 1.125 -1.359375 2.015625q-0.875 0.890625 -2.046875 1.375l-0.34375 -1.125z" fill-rule="nonzero"/><path fill="#000000" fill-opacity="0.0" d="m52.240143 112.20588c0 5.677162 4.9291344 8.515747 9.858265 11.354332c4.9291344 2.838585 9.858273 5.67717 9.858273 11.354324" fill-rule="evenodd"/><path stroke="#000000" stroke-width="1.0" stroke-linejoin="round" stroke-linecap="butt" d="m52.240143 112.20588c0 5.67717 4.9291344 8.515755 9.858269 11.354332c2.4645615 1.4192963 4.9291306 2.838585 6.7775574 4.6127014c0.23105621 0.22175598 0.4524765 0.44906616 0.6630707 0.6826172c0.1053009 0.116760254 0.20789337 0.23510742 0.30762482 0.35507202l0.054512024 0.0670166" fill-rule="evenodd"/><path fill="#000000" stroke="#000000" stroke-width="1.0" stroke-linecap="butt" d="m68.349396 129.84348l3.1064606 3.6976318l-0.0028915405 -4.8293457z" fill-rule="evenodd"/><path fill="#000000" fill-opacity="0.0" d="m296.48816 112.20457c0 5.677162 -3.669281 8.515747 -7.338562 11.354332c-3.6693115 2.838585 -7.3385925 5.67717 -7.3385925 11.354324" fill-rule="evenodd"/><path stroke="#000000" stroke-width="1.0" stroke-linejoin="round" stroke-linecap="butt" d="m296.48816 112.20457c0 5.67717 -3.669281 8.515755 -7.338562 11.354332c-1.8346558 1.4192963 -3.6693115 2.838585 -5.045288 4.6127014c-0.17199707 0.22175598 -0.33685303 0.44906616 -0.4935913 0.6826172c-0.03918457 0.058395386 -0.07788086 0.11715698 -0.11605835 0.17633057l-0.066223145 0.10481262" fill-rule="evenodd"/><path fill="#000000" stroke="#000000" stroke-width="1.0" stroke-linecap="butt" d="m281.83786 128.6901l0.36721802 4.8153534l2.8139343 -3.9248352z" fill-rule="evenodd"/><path fill="#000000" fill-opacity="0.0" d="m281.811 194.62976c0 20.740158 -10.535431 41.480316 -21.070862 41.480316" fill-rule="evenodd"/><path stroke="#000000" stroke-width="1.0" stroke-linejoin="round" stroke-linecap="butt" d="m281.811 194.62976c0 10.370071 -2.63385 20.740158 -6.584656 28.517715c-1.9753723 3.8887787 -4.279999 7.129425 -6.7492676 9.397888c-0.6173096 0.56710815 -1.2449036 1.0734711 -1.8802185 1.513977l-0.17599487 0.11958313" fill-rule="evenodd"/><path fill="#000000" stroke="#000000" stroke-width="1.0" stroke-linecap="butt" d="m265.88925 232.61508l-3.7650146 3.0244598l4.828247 0.10322571z" fill-rule="evenodd"/><path fill="#000000" fill-opacity="0.0" d="m71.95668 194.63107c0 20.740158 12.976372 41.480316 25.952751 41.480316" fill-rule="evenodd"/><path stroke="#000000" stroke-width="1.0" stroke-linejoin="round" stroke-linecap="butt" d="m71.95668 194.63107c0 10.370071 3.2440948 20.740158 8.110237 28.517715c2.4330673 3.8887787 5.271652 7.129425 8.312981 9.397888c0.7603378 0.56710815 1.5333405 1.0734711 2.315857 1.513977c0.39125824 0.22026062 0.7848892 0.42407227 1.1804962 0.61079407l0.18782043 0.086502075" fill-rule="evenodd"/><path fill="#000000" stroke="#000000" stroke-width="1.0" stroke-linecap="butt" d="m91.69148 236.36711l4.793724 -0.585495l-4.0485535 -2.6328278z" fill-rule="evenodd"/></g></svg>