<svg version="1.1" viewBox="0.0 0.0 459.84251968503935 455.16010498687666" fill="none" stroke="none" stroke-linecap="square" stroke-miterlimit="10" xmlns:xlink="http://www.w3.org/1999/xlink" xmlns="http://www.w3.org/2000/svg"><clipPath id="p.0"><path d="m0 0l459.84253 0l0 455.1601l-459.84253 0l0 -455.1601z" clip-rule="nonzero"/></clipPath><g clip-path="url(#p.0)"><path fill="#000000" fill-opacity="0.0" d="m0 0l459.84253 0l0 455.1601l-459.84253 0z" fill-rule="evenodd"/><path fill="#c27ba0" d="m184.14961 83.98425l111.9055 0l0 58.803146l-111.9055 0z" fill-rule="evenodd"/><path stroke="#a64d79" stroke-width="1.0" stroke-linejoin="round" stroke-linecap="butt" d="m184.14961 83.98425l111.9055 0l0 58.803146l-111.9055 0z" fill-rule="evenodd"/><path fill="#f6b26b" d="m193.97507 220.11942l0 0c0 -25.47467 20.651306 -46.125977 46.125977 -46.125977l0 0c12.233383 0 23.965698 4.85968 32.615997 13.5099945c8.650299 8.650299 13.509979 20.382614 13.509979 32.615982l0 0c0 25.474686 -20.651306 46.125977 -46.125977 46.125977l0 0c-25.47467 0 -46.125977 -20.65129 -46.125977 -46.125977z" fill-rule="evenodd"/><path stroke="#e69138" stroke-width="1.0" stroke-linejoin="round" stroke-linecap="butt" d="m193.97507 220.11942l0 0c0 -25.47467 20.651306 -46.125977 46.125977 -46.125977l0 0c12.233383 0 23.965698 4.85968 32.615997 13.5099945c8.650299 8.650299 13.509979 20.382614 13.509979 32.615982l0 0c0 25.474686 -20.651306 46.125977 -46.125977 46.125977l0 0c-25.47467 0 -46.125977 -20.65129 -46.125977 -46.125977z" fill-rule="evenodd"/><path fill="#000000" fill-opacity="0.0" d="m292.2756 191.53674l-104.346466 0l0 26.110245l104.346466 0z" fill-rule="evenodd"/><path fill="#000000" d="m232.05743 220.483l2.125 -4.625q0.796875 -1.703125 1.46875 -2.3125q0.671875 -0.609375 1.75 -0.609375q1.453125 0 1.453125 1.1875q0 1.15625 -1.40625 1.3125q-0.328125 0.046875 -0.421875 0.15625q-0.09375 0.109375 -0.375 0.6875l-3.40625 7.296875q0.34375 1.484375 0.34375 2.78125q0 2.546875 -1.5625 2.546875q-1.5625 0 -1.5625 -2.546875q0 -1.265625 0.359375 -2.78125l-3.765625 -8.234375q-0.84375 0 -1.25 -0.28125q-0.40625 -0.296875 -0.40625 -0.921875q0 -1.203125 1.59375 -1.203125l1.625 0l3.4375 7.546875z" fill-rule="nonzero"/><path fill="#000000" d="m240.7254 232.57675l0 -1.4375l1.796875 0l0 -4.59375l-1.703125 0l0 -1.4375l3.5 0l0 6.03125l1.625 0l0 1.4375l-5.21875 0zm2.578125 -8.765625q-0.3125 0 -0.578125 -0.140625q-0.25 -0.15625 -0.40625 -0.390625q-0.140625 -0.25 -0.140625 -0.53125q0 -0.453125 0.3125 -0.75q0.3125 -0.3125 0.8125 -0.3125q0.28125 0 0.546875 0.15625q0.265625 0.140625 0.421875 0.390625q0.15625 0.234375 0.15625 0.515625q0 0.28125 -0.15625 0.53125q-0.15625 0.234375 -0.421875 0.390625q-0.265625 0.140625 -0.546875 0.140625zm7.671875 9.015625q-0.890625 0 -1.625 -0.4375q-0.71875 -0.4375 -1.140625 -1.3125q-0.421875 -0.875 -0.421875 -2.125q0 -1.21875 0.421875 -2.125q0.4375 -0.921875 1.15625 -1.40625q0.734375 -0.484375 1.59375 -0.484375q0.4375 0 0.921875 0.21875q0.48439026 0.203125 0.79689026 0.53125l0 -3.90625l1.953125 0l0 0.171875q-0.078125 0.09375 -0.109375 0.21875q-0.015625 0.109375 -0.015625 0.375l-0.03125 9.125q0 0.28125 0.03125 0.484375q0.03125 0.203125 0.140625 0.421875l-1.734375 0q-0.109375 -0.203125 -0.140625 -0.375q-0.015625 -0.1875 -0.015625 -0.53125q-0.234375 0.5625 -0.75 0.859375q-0.50001526 0.296875 -1.0312653 0.296875zm0.25 -1.5q1.4687653 0 1.4687653 -2.578125q0 -1.078125 -0.3125 -1.71875q-0.3125 -0.640625 -1.1093903 -0.640625q-0.84375 0 -1.265625 0.703125q-0.40625 0.703125 -0.40625 1.828125q0 0.84375 0.234375 1.390625q0.25 0.53125 0.625 0.78125q0.375 0.234375 0.765625 0.234375z" fill-rule="nonzero"/><path fill="#000000" fill-opacity="0.0" d="m41.007874 13.154856l187.37009 0l0 39.622047l-187.37009 0z" fill-rule="evenodd"/><path fill="#000000" d="m50.92975 28.449854l3.953125 0q1.328125 0 2.203125 0.46875q0.875 0.46875 1.296875 1.25q0.421875 0.78125 0.421875 1.765625q0 0.9843731 -0.421875 1.7656231q-0.40625 0.765625 -1.265625 1.21875q-0.84375 0.453125 -2.140625 0.453125l-1.90625 0l0 4.703125l-2.140625 0l0 -11.624998zm3.890625 5.140623q0.921875 0 1.375 -0.421875q0.453125 -0.4375 0.453125 -1.1718731q0 -0.765625 -0.46875 -1.234375q-0.453125 -0.46875 -1.34375 -0.46875l-1.765625 0l0 3.296873l1.75 0zm8.359375 6.859375q-1.40625 0 -2.15625 -0.859375q-0.734375 -0.875 -0.734375 -2.78125l0 -5.437498l2.046875 0l0 5.437498q0 0.984375 0.328125 1.453125q0.34375 0.46875 0.921875 0.46875q0.515625 0 0.9375 -0.265625q0.4375 -0.28125 0.6875 -0.765625q0.25 -0.5 0.25 -1.109375l0 -5.218748l2.09375 0l0 7.281248q0 0.5625 0.03125 0.859375q0.046875 0.28125 0.171875 0.5625l-2.046875 0q-0.109375 -0.234375 -0.15625 -0.453125q-0.03125 -0.21875 -0.03125 -0.5625q-0.359375 0.640625 -1.03125 1.015625q-0.671875 0.375 -1.3125 0.375zm13.96875 -1.15625q-0.671875 0.515625 -1.40625 0.78125q-0.734375 0.265625 -1.59375 0.265625q-1.359375 0 -2.078125 -0.796875q-0.71875 -0.8125 -0.71875 -2.765625q0 -0.5 0.046875 -1.109375l0.15625 -2.609375l-1.875 0l0.03125 -1.6874981l1.953125 0l0.109375 -2.046875l2.296875 -0.375l0.046875 0.203125q-0.03125 0.03125 -0.109375 0.140625q-0.0625 0.09375 -0.109375 0.234375q-0.046875 0.140625 -0.046875 0.328125l-0.140625 1.515625l2.671875 0l-0.03125 1.6874981l-2.671875 0l-0.203125 2.484375q-0.046875 0.625 -0.046875 1.015625q0 1.15625 0.28125 1.625q0.28125 0.453125 0.890625 0.453125q0.5625 0 1.03125 -0.21875q0.484375 -0.21875 1.078125 -0.734375l0.4375 1.609375zm8.25 4.171875q-1.640625 -0.671875 -2.875 -1.921875q-1.234375 -1.25 -1.90625 -2.828125q-0.671875 -1.59375 -0.671875 -3.28125q0 -1.671875 0.640625 -3.21875q0.65625 -1.5468731 1.859375 -2.749998q1.21875 -1.21875 2.84375 -1.90625l0.484375 1.625q-1.875 0.953125 -2.875 2.59375q-1.0 1.6249981 -1.0 3.703123q0 1.359375 0.46875 2.609375q0.46875 1.25 1.375 2.234375q0.90625 0.984375 2.140625 1.5625l-0.484375 1.578125z" fill-rule="nonzero"/><path fill="#000000" d="m89.75787 41.731102l0 -14.156248l5.34375 0l0 1.125l-4.140625 0l0 11.968748l4.15625 0l0 1.0625l-5.359375 0zm12.828125 -1.65625l0 -2.859375l-5.046875 0l0 -0.953125l5.328125 -7.828123l1.09375 0l0 7.703123l1.5 0l0 1.109375l-1.5 0l0 2.828125l-1.375 0zm-3.53125 -3.953125l3.53125 0l0 -5.343748l-3.53125 5.343748zm10.0 6.53125q0.515625 -0.484375 0.859375 -1.046875q0.359375 -0.5625 0.359375 -0.921875q0 -0.15625 -0.09375 -0.28125q-0.09375 -0.109375 -0.34375 -0.328125q-0.265625 -0.25 -0.390625 -0.40625q-0.125 -0.171875 -0.125 -0.421875q0 -0.453125 0.296875 -0.765625q0.3125 -0.328125 0.796875 -0.328125q0.5 0 0.875 0.4375q0.390625 0.4375 0.390625 1.109375q0 1.453125 -1.984375 3.515625l-0.640625 -0.5625zm19.578125 -14.984373q0 1.5625 -0.046875 2.3125q-0.046875 0.734375 -0.140625 1.609375l-0.109375 0.8906231l-0.890625 0l-0.109375 -0.8906231q-0.09375 -0.84375 -0.140625 -1.59375q-0.046875 -0.75 -0.046875 -2.328125l1.484375 0zm2.8125 0q0 1.5625 -0.046875 2.3125q-0.046875 0.734375 -0.140625 1.609375l-0.109375 0.8906231l-0.890625 0l-0.109375 -0.8906231q-0.09375 -0.84375 -0.140625 -1.59375q-0.046875 -0.75 -0.046875 -2.328125l1.484375 0zm3.40625 0.78125l3.3125 0q1.9375 0 2.890625 0.765625q0.96875 0.75 0.96875 2.046875q0 0.8593731 -0.46875 1.5781231q-0.453125 0.71875 -1.25 1.0q0.96875 0.34375 1.578125 1.171875q0.609375 0.828125 0.609375 1.796875q0 1.53125 -1.09375 2.40625q-1.078125 0.859375 -3.265625 0.859375l-3.28125 0l0 -11.624998zm3.125 4.812498q2.734375 0 2.734375 -1.8437481q0 -0.84375 -0.625 -1.34375q-0.609375 -0.515625 -1.90625 -0.515625l-2.03125 0l0 3.703123l1.828125 0zm0.390625 5.671875q2.734375 0 2.734375 -2.203125q0 -2.359375 -3.0625 -2.359375l-1.890625 0l0 4.5625l2.21875 0zm9.59375 1.296875q-1.140625 0 -2.046875 -0.5625q-0.890625 -0.5625 -1.390625 -1.5625q-0.5 -1.015625 -0.5 -2.296875q0 -1.296875 0.5 -2.296875q0.5 -1.015625 1.390625 -1.5781231q0.90625 -0.578125 2.046875 -0.578125q1.125 0 2.015625 0.578125q0.90625 0.5624981 1.40625 1.5781231q0.5 1.0 0.5 2.296875q0 1.28125 -0.5 2.296875q-0.5 1.0 -1.40625 1.5625q-0.890625 0.5625 -2.015625 0.5625zm0 -1.125q0.71875 0 1.28125 -0.421875q0.578125 -0.4375 0.90625 -1.1875q0.328125 -0.765625 0.328125 -1.71875q0 -1.453125 -0.71875 -2.375q-0.703125 -0.921875 -1.796875 -0.921875q-1.109375 0 -1.828125 0.921875q-0.703125 0.921875 -0.703125 2.375q0 0.953125 0.328125 1.71875q0.328125 0.75 0.890625 1.1875q0.578125 0.421875 1.3125 0.421875zm9.625 1.171875q-0.765625 0 -1.421875 -0.34375q-0.65625 -0.34375 -1.109375 -0.984375l-0.453125 1.125l-0.859375 0l0 -12.406248l1.53125 0l0 0.125q-0.125 0.125 -0.15625 0.25q-0.015625 0.125 -0.015625 0.453125l0 4.359373q0.40625 -0.6875 1.109375 -1.0937481q0.703125 -0.421875 1.421875 -0.421875q1.609375 0 2.5625 1.1249981q0.953125 1.109375 0.953125 3.265625q0 1.453125 -0.515625 2.484375q-0.5 1.03125 -1.328125 1.546875q-0.8125 0.515625 -1.71875 0.515625zm-0.171875 -1.1875q1.0 0 1.671875 -0.796875q0.671875 -0.796875 0.671875 -2.484375q0 -1.640625 -0.625 -2.46875q-0.625 -0.84375 -1.6875 -0.84375q-1.046875 0 -1.703125 0.9375q-0.640625 0.9375 -0.640625 2.40625q0 3.25 2.3125 3.25zm8.53125 -11.421873q0 1.5625 -0.046875 2.3125q-0.046875 0.734375 -0.140625 1.609375l-0.109375 0.8906231l-0.890625 0l-0.109375 -0.8906231q-0.09375 -0.84375 -0.140625 -1.59375q-0.046875 -0.75 -0.046875 -2.328125l1.484375 0zm2.8125 0q0 1.5625 -0.046875 2.3125q-0.046875 0.734375 -0.140625 1.609375l-0.109375 0.8906231l-0.890625 0l-0.109375 -0.8906231q-0.09375 -0.84375 -0.140625 -1.59375q-0.046875 -0.75 -0.046875 -2.328125l1.484375 0zm10.3125 14.062498l-5.359375 0l0 -1.0625l4.171875 0l0 -11.968748l-4.140625 0l0 -1.125l5.328125 0l0 14.156248z" fill-rule="nonzero"/><path fill="#000000" d="m182.55475 41.887352q1.25 -0.578125 2.140625 -1.5625q0.90625 -0.984375 1.375 -2.234375q0.484375 -1.25 0.484375 -2.609375q0 -2.078125 -1.015625 -3.703123q-1.0 -1.640625 -2.875 -2.59375l0.484375 -1.625q1.640625 0.6875 2.84375 1.90625q1.203125 1.203125 1.84375 2.749998q0.65625 1.546875 0.65625 3.21875q0 1.6875 -0.671875 3.28125q-0.671875 1.578125 -1.90625 2.828125q-1.234375 1.25 -2.875 1.921875l-0.484375 -1.578125z" fill-rule="nonzero"/><path fill="#000000" fill-opacity="0.0" d="m292.2756 85.34646l-104.346466 0l0 26.110237l104.346466 0z" fill-rule="evenodd"/><path fill="#000000" d="m213.03986 100.64146l3.953125 0q1.328125 0 2.203125 0.46875q0.875 0.46875 1.296875 1.25q0.421875 0.78125 0.421875 1.765625q0 0.984375 -0.421875 1.765625q-0.40625 0.765625 -1.265625 1.21875q-0.84375 0.453125 -2.140625 0.453125l-1.90625 0l0 4.703125l-2.140625 0l0 -11.625zm3.890625 5.140625q0.921875 0 1.375 -0.421875q0.453125 -0.4375 0.453125 -1.171875q0 -0.765625 -0.46875 -1.234375q-0.453125 -0.46875 -1.34375 -0.46875l-1.765625 0l0 3.296875l1.75 0zm9.546875 6.78125q-1.25 0 -2.234375 -0.546875q-0.984375 -0.546875 -1.546875 -1.5625q-0.5625 -1.03125 -0.5625 -2.421875q0 -1.40625 0.53125 -2.46875q0.53125 -1.0625 1.46875 -1.625q0.9375 -0.578125 2.125 -0.578125q1.046875 0 1.890625 0.5q0.84375 0.484375 1.328125 1.453125q0.5 0.953125 0.5 2.3125q0 0.21875 -0.046875 0.609375l-0.015625 0.265625l-5.703125 0q0.125 1.1875 0.734375 1.796875q0.625 0.609375 1.46875 0.609375q0.59375 0 1.203125 -0.28125q0.609375 -0.28125 1.0 -0.78125l1.15625 1.15625q-1.3125 1.5625 -3.296875 1.5625zm1.40625 -5.59375q0 -0.546875 -0.21875 -1.015625q-0.203125 -0.46875 -0.609375 -0.734375q-0.390625 -0.28125 -0.90625 -0.28125q-0.765625 0 -1.265625 0.546875q-0.5 0.546875 -0.609375 1.484375l3.609375 0zm7.578125 5.59375q-1.15625 0 -2.109375 -0.59375q-0.953125 -0.59375 -1.5 -1.640625q-0.546875 -1.0625 -0.546875 -2.40625q0 -1.265625 0.5625 -2.3125q0.5625 -1.046875 1.5 -1.640625q0.953125 -0.609375 2.09375 -0.609375q1.125 0 2.078125 0.609375q0.953125 0.59375 1.5 1.640625q0.5625 1.046875 0.5625 2.3125q0 1.34375 -0.546875 2.40625q-0.546875 1.046875 -1.5 1.640625q-0.9375 0.59375 -2.09375 0.59375zm0 -1.6875q0.609375 0 1.0625 -0.359375q0.46875 -0.375 0.71875 -1.046875q0.25 -0.671875 0.25 -1.546875q0 -0.890625 -0.25 -1.53125q-0.25 -0.65625 -0.71875 -1.0q-0.453125 -0.34375 -1.0625 -0.34375q-0.59375 0 -1.046875 0.34375q-0.453125 0.34375 -0.703125 1.0q-0.25 0.640625 -0.25 1.53125q0 0.890625 0.234375 1.5625q0.25 0.671875 0.6875 1.03125q0.453125 0.359375 1.078125 0.359375zm5.65625 -7.3125l2.015625 0l0 1.0625q0.390625 -0.65625 0.953125 -0.953125q0.5625 -0.3125 1.28125 -0.3125q0.96875 0 1.765625 0.53125q0.8125 0.53125 1.296875 1.578125q0.484375 1.03125 0.484375 2.484375q0 1.484375 -0.5 2.53125q-0.484375 1.03125 -1.296875 1.546875q-0.796875 0.515625 -1.734375 0.515625q-0.6875 0 -1.25 -0.296875q-0.5625 -0.296875 -0.921875 -0.9375l0 4.0625l-2.078125 0l-0.015625 -11.8125zm3.796875 7.265625q0.53125 0 0.953125 -0.3125q0.4375 -0.328125 0.6875 -1.0q0.265625 -0.671875 0.265625 -1.671875q0 -1.25 -0.4375 -2.0q-0.421875 -0.75 -1.328125 -0.75q-0.96875 0 -1.40625 0.796875q-0.4375 0.796875 -0.4375 2.140625q0 1.40625 0.453125 2.109375q0.46875 0.6875 1.25 0.6875zm5.765625 1.4375l0 -1.625l2.3906403 0l0 -9.34375l-2.2812653 0l0 -1.625l4.3906403 0l0 10.96875l2.3593597 0l0 1.625l-6.859375 0zm13.109375 0.296875q-1.25 0 -2.234375 -0.546875q-0.984375 -0.546875 -1.546875 -1.5625q-0.5625 -1.03125 -0.5625 -2.421875q0 -1.40625 0.53125 -2.46875q0.53125 -1.0625 1.46875 -1.625q0.9375 -0.578125 2.125 -0.578125q1.046875 0 1.890625 0.5q0.84375 0.484375 1.328125 1.453125q0.5 0.953125 0.5 2.3125q0 0.21875 -0.046875 0.609375l-0.015625 0.265625l-5.703125 0q0.125 1.1875 0.734375 1.796875q0.625 0.609375 1.46875 0.609375q0.59375 0 1.203125 -0.28125q0.609375 -0.28125 1.0 -0.78125l1.15625 1.15625q-1.3125 1.5625 -3.296875 1.5625zm1.40625 -5.59375q0 -0.546875 -0.21875 -1.015625q-0.203125 -0.46875 -0.609375 -0.734375q-0.390625 -0.28125 -0.90625 -0.28125q-0.765625 0 -1.265625 0.546875q-0.5 0.546875 -0.609375 1.484375l3.609375 0z" fill-rule="nonzero"/><path fill="#000000" d="m214.85205 131.53958l0 -8.09375l3.046875 0l0 0.640625l-2.359375 0l0 6.84375l2.375 0l0 0.609375l-3.0625 0zm5.000061 -0.953125l0 -0.625l1.25 0l0 -3.625l-1.1875 0l0 -0.625l1.953125 0l0 4.25l1.140625 0l0 0.625l-3.15625 0zm1.59375 -5.890625q-0.21875 0 -0.390625 -0.15625q-0.15625 -0.171875 -0.15625 -0.390625q0 -0.234375 0.15625 -0.390625q0.15625 -0.15625 0.390625 -0.15625q0.234375 0 0.390625 0.171875q0.171875 0.15625 0.171875 0.375q0 0.21875 -0.171875 0.390625q-0.15625 0.15625 -0.390625 0.15625zm5.171936 6.0q-0.53125 0 -0.984375 -0.296875q-0.453125 -0.296875 -0.75 -0.875q-0.28125 -0.59375 -0.28125 -1.421875q0 -0.84375 0.296875 -1.40625q0.296875 -0.5625 0.765625 -0.828125q0.46875 -0.28125 0.984375 -0.28125q0.5 0 0.859375 0.234375q0.375 0.21875 0.5625 0.609375l0 -2.9375l0.8125 0l0 0.078125q-0.0625 0.0625 -0.078125 0.140625q-0.015625 0.078125 -0.015625 0.25l0 5.875q0 0.25 0.015625 0.421875q0.015625 0.15625 0.09375 0.328125l-0.75 0q-0.078125 -0.171875 -0.09375 -0.328125q-0.015625 -0.171875 -0.015625 -0.421875q-0.234375 0.390625 -0.609375 0.625q-0.359375 0.234375 -0.8125 0.234375zm0.109375 -0.671875q0.65625 0 0.96875 -0.515625q0.3125 -0.53125 0.3125 -1.390625q0 -0.859375 -0.34375 -1.375q-0.328125 -0.53125 -1.0 -0.53125q-0.640625 0 -0.984375 0.484375q-0.34375 0.46875 -0.34375 1.296875q0 0.9375 0.359375 1.484375q0.359375 0.546875 1.03125 0.546875zm4.484436 2.03125q0.296875 -0.28125 0.484375 -0.609375q0.203125 -0.3125 0.203125 -0.5q0 -0.109375 -0.0625 -0.171875q-0.046875 -0.0625 -0.1875 -0.1875q-0.140625 -0.140625 -0.21875 -0.234375q-0.078125 -0.09375 -0.078125 -0.234375q0 -0.265625 0.171875 -0.4375q0.1875 -0.1875 0.453125 -0.1875q0.296875 0 0.515625 0.25q0.21875 0.25 0.21875 0.625q0 0.84375 -1.140625 2.015625l-0.359375 -0.328125zm9.656372 -6.34375l0.75 0l0 0.875q0.28125 -0.453125 0.71875 -0.71875q0.4375 -0.265625 0.9375 -0.265625q0.640625 0 1.03125 0.5q0.390625 0.484375 0.390625 1.53125l0 2.953125l-0.75 0l0 -2.9375q0 -0.71875 -0.25 -1.046875q-0.234375 -0.328125 -0.640625 -0.328125q-0.328125 0 -0.671875 0.1875q-0.328125 0.1875 -0.546875 0.546875q-0.21875 0.34375 -0.21875 0.78125l0 2.796875l-0.75 0l0 -4.875zm7.156311 -0.09375q1.046875 0 1.59375 0.546875q0.546875 0.53125 0.546875 1.828125l0 2.59375l-0.828125 0l0 -0.75q-0.4375 0.875 -1.65625 0.875q-0.8125 0 -1.28125 -0.375q-0.453125 -0.375 -0.453125 -0.96875q0 -0.515625 0.328125 -0.890625q0.34375 -0.390625 0.890625 -0.59375q0.5625 -0.21875 1.234375 -0.21875q0.609375 0 1.109375 0.0625q-0.078125 -0.8125 -0.453125 -1.140625q-0.359375 -0.34375 -1.078125 -0.34375q-0.359375 0 -0.703125 0.140625q-0.328125 0.125 -0.609375 0.40625l-0.375 -0.5q0.6875 -0.671875 1.734375 -0.671875zm-0.265625 4.5q0.78125 0 1.234375 -0.453125q0.46875 -0.46875 0.515625 -1.34375q-0.484375 -0.078125 -1.046875 -0.078125q-0.796875 0 -1.265625 0.265625q-0.46875 0.265625 -0.46875 0.8125q0 0.796875 1.03125 0.796875zm3.406311 -4.40625l0.703125 0l0 0.484375q0.17189026 -0.265625 0.43751526 -0.421875q0.265625 -0.171875 0.546875 -0.171875q0.328125 0 0.5625 0.203125q0.25 0.203125 0.3125 0.515625q0.125 -0.328125 0.421875 -0.515625q0.3125 -0.203125 0.671875 -0.203125q0.484375 0 0.71875 0.34375q0.234375 0.34375 0.21875 0.90625l0 3.734375l-0.703125 0l0 -3.453125q0 -0.609375 -0.125 -0.78125q-0.109375 -0.1875 -0.328125 -0.1875q-0.203125 0 -0.390625 0.1875q-0.171875 0.171875 -0.28125 0.453125q-0.109375 0.28125 -0.109375 0.5625l0 3.21875l-0.71875 0l0 -3.390625q0 -0.59375 -0.109375 -0.796875q-0.109375 -0.21875 -0.421875 -0.21875q-0.15625 0 -0.328125 0.15625q-0.15625 0.140625 -0.265625 0.40625q-0.10939026 0.25 -0.10939026 0.59375l0 3.25l-0.703125 0l0 -4.875zm7.828186 4.984375q-1.09375 0 -1.75 -0.65625q-0.640625 -0.671875 -0.640625 -1.875q0 -0.796875 0.296875 -1.375q0.3125 -0.578125 0.8125 -0.875q0.5 -0.3125 1.140625 -0.3125q0.875 0 1.421875 0.59375q0.546875 0.578125 0.546875 1.71875q0 0.109375 -0.015625 0.34375l-3.46875 0q0.046875 0.90625 0.5 1.359375q0.46875 0.453125 1.171875 0.453125q0.765625 0 1.25 -0.546875l0.4375 0.421875q-0.625 0.75 -1.703125 0.75zm1.0625 -3.03125q0 -0.6875 -0.359375 -1.078125q-0.34375 -0.40625 -0.90625 -0.40625q-0.53125 0 -0.921875 0.375q-0.390625 0.375 -0.484375 1.109375l2.671875 0zm5.812561 3.875l-3.0625 0l0 -0.609375l2.375 0l0 -6.84375l-2.359375 0l0 -0.640625l3.046875 0l0 8.09375z" fill-rule="nonzero"/><path fill="#000000" fill-opacity="0.0" d="m51.80315 173.99344l127.90552 0l0 92.25195l-127.90552 0z" fill-rule="evenodd"/><path fill="#000000" d="m65.19377 201.19817q0.5 0 0.984375 -0.234375q0.5 -0.234375 0.921875 -0.765625l1.03125 1.203125q-0.59375 0.6875 -1.359375 1.015625q-0.75 0.328125 -1.578125 0.328125q-1.09375 0 -1.9531212 -0.515625q-0.859375 -0.515625 -1.34375 -1.40625q-0.484375 -0.890625 -0.484375 -2.015625q0 -1.109375 0.484375 -2.015625q0.484375 -0.90625 1.34375 -1.421875q0.8593712 -0.53125 1.9687462 -0.53125q0.921875 0 1.71875 0.375q0.8125 0.375 1.265625 1.0625l-1.0 1.171875l0 0.015625q-0.015625 0 -0.015625 0q0 0 0 0q-0.328125 -0.578125 -0.796875 -0.84375q-0.46875 -0.28125 -1.171875 -0.28125q-0.546875 0 -1.0 0.3125q-0.4531212 0.3125 -0.7187462 0.890625q-0.25 0.5625 -0.25 1.296875q0 0.71875 0.234375 1.25q0.25 0.53125 0.6874962 0.828125q0.453125 0.28125 1.03125 0.28125zm1.78125 -3.765625q0 -0.015625 0.015625 -0.015625q0.046875 0 0.15625 0.109375l-0.03125 0.03125l-0.140625 -0.109375l0 -0.015625zm0.21875 0.03125q0.046875 0.09375 0.046875 0.109375q0 0.015625 -0.015625 0.015625q-0.015625 0 -0.078125 -0.0625l0.046875 -0.0625zm5.625 5.28125q-0.984375 0 -1.796875 -0.515625q-0.8125 -0.515625 -1.28125 -1.421875q-0.46875 -0.90625 -0.46875 -2.0625q0 -1.078125 0.46875 -1.96875q0.484375 -0.90625 1.296875 -1.421875q0.8125 -0.515625 1.78125 -0.515625q0.96875 0 1.78125 0.515625q0.828125 0.515625 1.296875 1.421875q0.484375 0.890625 0.484375 1.96875q0 1.15625 -0.46875 2.0625q-0.46875 0.90625 -1.28125 1.421875q-0.8125 0.515625 -1.8125 0.515625zm0 -1.453125q0.53125 0 0.921875 -0.3125q0.40625 -0.328125 0.609375 -0.890625q0.21875 -0.578125 0.21875 -1.34375q0 -0.765625 -0.21875 -1.3125q-0.203125 -0.5625 -0.609375 -0.859375q-0.390625 -0.296875 -0.921875 -0.296875q-0.5 0 -0.890625 0.296875q-0.390625 0.296875 -0.609375 0.859375q-0.203125 0.5625 -0.203125 1.3125q0 0.765625 0.203125 1.34375q0.203125 0.578125 0.578125 0.890625q0.390625 0.3125 0.921875 0.3125zm7.28125 1.515625q-1.203125 0 -1.84375 -0.75q-0.640625 -0.75 -0.640625 -2.375l0 -4.671875l1.765625 0l0 4.671875q0 0.828125 0.28125 1.234375q0.296875 0.40625 0.796875 0.40625q0.4375 0 0.796875 -0.234375q0.375 -0.234375 0.578125 -0.65625q0.21875 -0.421875 0.21875 -0.953125l0 -4.46875l1.8125 0l0 6.25q0 0.46875 0.015625 0.71875q0.03125 0.25 0.140625 0.5l-1.75 0q-0.09375 -0.203125 -0.125 -0.390625q-0.03125 -0.1875 -0.03125 -0.484375q-0.3125 0.546875 -0.890625 0.875q-0.578125 0.328125 -1.125 0.328125zm5.671875 -7.796875l1.796875 0l0 0.765625q0.40625 -0.4375 0.953125 -0.6875q0.546875 -0.25 1.1875 -0.25q1.0625 0 1.6875 0.765625q0.640625 0.75 0.640625 2.34375l0 4.53125l-1.796875 0l0 -4.515625q0 -0.84375 -0.3125 -1.234375q-0.296875 -0.40625 -0.90625 -0.40625q-0.390625 0 -0.71875 0.15625q-0.328125 0.140625 -0.53125 0.453125q-0.203125 0.296875 -0.203125 0.75l0 4.796875l-1.796875 0l0 -7.46875zm14.3125 6.796875q-0.578125 0.4375 -1.21875 0.671875q-0.625 0.234375 -1.359375 0.234375q-1.15625 0 -1.78125 -0.6875q-0.609375 -0.703125 -0.609375 -2.375q0 -0.4375 0.046875 -0.953125l0.125 -2.234375l-1.609375 0l0.03125 -1.453125l1.671875 0l0.09375 -1.75l1.96875 -0.328125l0.03125 0.171875q-0.015625 0.03125 -0.078125 0.125q-0.0625 0.078125 -0.109375 0.203125q-0.03125 0.125 -0.03125 0.28125l-0.125 1.296875l2.296875 0l-0.03125 1.453125l-2.296875 0l-0.171875 2.125q-0.03125 0.546875 -0.03125 0.875q0 0.984375 0.234375 1.390625q0.25 0.390625 0.765625 0.390625q0.484375 0 0.890625 -0.1875q0.421875 -0.1875 0.921875 -0.625l0.375 1.375zm12.984375 0.921875q-0.578125 0 -1.09375 -0.25q-0.515625 -0.265625 -0.875 -0.71875l-0.25 0.71875l-1.25 0l0 -10.796875l1.921875 0l0 0.171875q-0.078125 0.09375 -0.109375 0.21875q-0.015625 0.109375 -0.015625 0.375l0 3.203125q0.34375 -0.390625 0.796875 -0.59375q0.46875 -0.21875 0.9375 -0.21875q0.859375 0 1.578125 0.4375q0.71875 0.421875 1.140625 1.265625q0.421875 0.84375 0.421875 2.046875q0 1.3125 -0.453125 2.25q-0.453125 0.9375 -1.203125 1.421875q-0.734375 0.46875 -1.546875 0.46875zm-0.234375 -1.5q0.40625 0 0.765625 -0.234375q0.375 -0.25 0.625 -0.78125q0.25 -0.546875 0.25 -1.390625q0 -1.140625 -0.421875 -1.828125q-0.421875 -0.703125 -1.265625 -0.703125q-0.796875 0 -1.109375 0.640625q-0.296875 0.640625 -0.296875 1.71875q0 1.34375 0.375 1.96875q0.375 0.609375 1.078125 0.609375zm11.234375 -6.21875q-0.015625 0.640625 -0.203125 1.296875q-0.171875 0.65625 -0.515625 1.578125l-1.859375 5.125q-0.453125 1.25 -1.109375 1.765625q-0.640625 0.53125 -1.578125 0.53125q-0.515625 0 -0.9375 -0.171875q-0.421875 -0.171875 -0.90625 -0.5625l0.59375 -1.28125l0 -0.015625q0.015625 0 0.03125 0.015625q0 0.015625 0.15625 0.140625q0.3125 0.25 0.53125 0.375q0.234375 0.125 0.484375 0.125q0.390625 0 0.734375 -0.390625q0.34375 -0.390625 0.640625 -1.09375l-2.828125 -7.4375l1.75 0l1.875 5.234375l0.96875 -2.671875q0.234375 -0.71875 0.34375 -1.265625q0.125 -0.546875 0.125 -1.078125q0 -0.15625 0 -0.21875l1.703125 0zm-6.28125 8.25q0 0.03125 -0.03125 0.03125q-0.03125 0 -0.171875 -0.0625l0.03125 -0.0625l0.15625 0.078125l0.015625 0.015625zm-0.234375 0.015625q-0.0625 -0.046875 -0.0625 -0.0625q0 -0.015625 0.09375 0.015625l-0.03125 0.046875zm16.21875 -8.265625l1.796875 0l0 0.765625q0.40625 -0.4375 0.953125 -0.6875q0.546875 -0.25 1.1875 -0.25q1.0625 0 1.6875 0.765625q0.640625 0.75 0.640625 2.34375l0 4.53125l-1.796875 0l0 -4.515625q0 -0.84375 -0.3125 -1.234375q-0.296875 -0.40625 -0.90625 -0.40625q-0.390625 0 -0.71875 0.15625q-0.328125 0.140625 -0.53125 0.453125q-0.203125 0.296875 -0.203125 0.75l0 4.796875l-1.796875 0l0 -7.46875zm10.859375 -0.25q1.46875 0 2.359375 0.734375q0.890625 0.734375 0.890625 2.4375l0 4.546875l-1.71875 0l0 -0.671875q-0.421875 0.40625 -1.03125 0.640625q-0.609375 0.234375 -1.296875 0.234375q-1.171875 0 -1.78125 -0.578125q-0.609375 -0.578125 -0.609375 -1.5625q0 -0.796875 0.5 -1.359375q0.515625 -0.5625 1.453125 -0.859375q0.953125 -0.296875 2.28125 -0.296875l0.546875 0q-0.078125 -0.96875 -0.484375 -1.390625q-0.390625 -0.421875 -1.203125 -0.421875q-0.515625 0 -1.078125 0.28125q-0.546875 0.265625 -1.015625 0.75l-0.921875 -1.1875q0.703125 -0.640625 1.515625 -0.96875q0.8125 -0.328125 1.59375 -0.328125zm-0.21875 6.546875q0.796875 0 1.25 -0.5q0.46875 -0.5 0.5625 -1.578125l-0.359375 0q-1.375 0 -2.015625 0.296875q-0.625 0.296875 -0.625 0.9375q0 0.4375 0.3125 0.640625q0.3125 0.203125 0.875 0.203125zm4.90625 -6.390625l1.53125 0l0 0.46875q0.265625 -0.34375 0.609375 -0.515625q0.34375 -0.1875 0.703125 -0.1875q0.390625 0 0.734375 0.21875q0.34375 0.203125 0.546875 0.671875q0.296875 -0.453125 0.640625 -0.671875q0.359375 -0.21875 0.875 -0.21875q0.828125 0 1.15625 0.5625q0.34375 0.546875 0.34375 1.703125l0 5.53125l-1.671875 0l0 -5.21875q0 -0.625 -0.109375 -0.890625q-0.109375 -0.28125 -0.359375 -0.28125q-0.609375 0 -0.609375 1.46875l0 4.921875l-1.65625 0l0 -5.140625q0 -0.71875 -0.125 -0.984375q-0.125 -0.265625 -0.34375 -0.265625q-0.3125 0 -0.484375 0.328125q-0.171875 0.3125 -0.171875 1.09375l0 4.96875l-1.609375 0l0 -7.5625zm11.8125 7.828125q-1.078125 0 -1.921875 -0.46875q-0.84375 -0.484375 -1.328125 -1.359375q-0.484375 -0.875 -0.484375 -2.078125q0 -1.203125 0.453125 -2.109375q0.453125 -0.90625 1.25 -1.390625q0.8125 -0.5 1.828125 -0.5q0.90625 0 1.625 0.421875q0.71875 0.421875 1.140625 1.25q0.421875 0.8125 0.421875 1.984375q0 0.1875 -0.03125 0.53125l-0.015625 0.21875l-4.890625 0q0.109375 1.015625 0.625 1.546875q0.53125 0.515625 1.265625 0.515625q0.515625 0 1.03125 -0.234375q0.53125 -0.25 0.859375 -0.671875l1.0 0.984375q-1.140625 1.359375 -2.828125 1.359375zm1.203125 -4.8125q0 -0.46875 -0.1875 -0.859375q-0.1875 -0.40625 -0.53125 -0.640625q-0.328125 -0.25 -0.78125 -0.25q-0.65625 0 -1.09375 0.484375q-0.421875 0.46875 -0.5 1.265625l3.09375 0z" fill-rule="nonzero"/><path fill="#000000" d="m64.24065 213.83879q0 1.34375 -0.046875 1.984375q-0.03125 0.625 -0.109375 1.375l-0.093746185 0.765625l-0.78125 0l-0.09375 -0.765625q-0.078125 -0.71875 -0.125 -1.359375q-0.03125 -0.640625 -0.03125 -2.0l1.2812462 0zm2.40625 0q0 1.34375 -0.046875 1.984375q-0.03125 0.625 -0.109375 1.375l-0.09375 0.765625l-0.78125 0l-0.09375 -0.765625q-0.078125 -0.71875 -0.125 -1.359375q-0.03125 -0.640625 -0.03125 -2.0l1.28125 0zm6.0625153 3.171875q1.5625 0 2.390625 0.8125q0.828125 0.8125 0.828125 2.765625l0 3.890625l-1.25 0l0 -1.125q-0.671875 1.296875 -2.5 1.296875q-1.21875 0 -1.90625 -0.546875q-0.6875 -0.546875 -0.6875 -1.46875q0 -0.765625 0.5 -1.34375q0.5 -0.578125 1.328125 -0.890625q0.84375 -0.3125 1.859375 -0.3125q0.90625 0 1.640625 0.109375q-0.09375 -1.234375 -0.65625 -1.734375q-0.546875 -0.515625 -1.625 -0.515625q-0.546875 0 -1.0625 0.21875q-0.5 0.203125 -0.90625 0.59375l-0.5625 -0.734375q1.015625 -1.015625 2.609375 -1.015625zm-0.421875 6.765625q1.1875 0 1.875 -0.6875q0.6875 -0.703125 0.75 -2.015625q-0.71875 -0.109375 -1.546875 -0.109375q-1.21875 0 -1.921875 0.40625q-0.703125 0.390625 -0.703125 1.203125q0 1.203125 1.546875 1.203125zm5.7812653 0.703125l0 -0.921875l2.15625 0l0 -8.796875l-2.0625 0l0 -0.921875l3.234375 0l0 9.71875l2.140625 0l0 0.921875l-5.46875 0zm8.32814 0l0 -0.921875l1.875 0l0 -5.46875l-1.765625 0l0 -0.921875l2.921875 0l0 6.390625l1.71875 0l0 0.921875l-4.75 0zm2.390625 -8.84375q-0.328125 0 -0.578125 -0.234375q-0.234375 -0.25 -0.234375 -0.578125q0 -0.359375 0.234375 -0.59375q0.234375 -0.25 0.578125 -0.25q0.34375 0 0.578125 0.25q0.25 0.25 0.25 0.59375q0 0.328125 -0.25 0.578125q-0.234375 0.234375 -0.578125 0.234375zm8.64064 7.984375q1.109375 0 1.90625 -0.90625l0.671875 0.796875q-1.078125 1.140625 -2.640625 1.140625q-1.0625 0 -1.890625 -0.484375q-0.828125 -0.5 -1.3125 -1.375q-0.46875 -0.875 -0.46875 -1.953125q0 -1.09375 0.46875 -1.953125q0.484375 -0.875 1.3125 -1.359375q0.828125 -0.5 1.875 -0.5q0.875 0 1.59375 0.359375q0.71875 0.359375 1.171875 1.0l-0.71875 0.703125l-0.015625 0.015625q-0.46875 -0.609375 -0.953125 -0.859375q-0.484375 -0.25 -1.203125 -0.25q-0.625 0 -1.171875 0.34375q-0.53125 0.34375 -0.859375 0.96875q-0.3125 0.625 -0.3125 1.4375q0 0.828125 0.328125 1.484375q0.328125 0.65625 0.90625 1.03125q0.59375 0.359375 1.3125 0.359375zm1.78125 -4.5q0 -0.09375 0.140625 0.015625l-0.0625 0.0625l-0.078125 -0.078125zm0.171875 -0.015625q0.078125 0.109375 0.03125 0.078125q-0.03125 -0.03125 -0.0625 -0.046875l0.03125 -0.03125zm5.7812653 5.53125q-1.640625 0 -2.609375 -0.984375q-0.96875 -1.0 -0.96875 -2.796875q0 -1.203125 0.453125 -2.078125q0.453125 -0.875 1.203125 -1.328125q0.765625 -0.453125 1.703125 -0.453125q1.328125 0 2.15625 0.875q0.828125 0.875 0.828125 2.59375q0 0.171875 -0.03125 0.53125l-5.203125 0q0.0625 1.34375 0.75 2.03125q0.6875 0.6875 1.75 0.6875q1.140625 0 1.875 -0.8125l0.640625 0.625q-0.921875 1.109375 -2.546875 1.109375zm1.59375 -4.546875q0 -1.015625 -0.53125 -1.609375q-0.515625 -0.609375 -1.359375 -0.609375q-0.796875 0 -1.390625 0.5625q-0.59375 0.5625 -0.734375 1.65625l4.015625 0zm5.4843903 -6.25q0 1.34375 -0.046875 1.984375q-0.03125 0.625 -0.109375 1.375l-0.09375 0.765625l-0.78125 0l-0.09375 -0.765625q-0.078125 -0.71875 -0.125 -1.359375q-0.03125 -0.640625 -0.03125 -2.0l1.28125 0zm2.40625 0q0 1.34375 -0.046875 1.984375q-0.03125 0.625 -0.109375 1.375l-0.09375 0.765625l-0.78125 0l-0.09375 -0.765625q-0.078125 -0.71875 -0.125 -1.359375q-0.03125 -0.640625 -0.03125 -2.0l1.28125 0zm5.9687653 5.71875q-0.375 0 -0.671875 -0.265625q-0.28125 -0.28125 -0.28125 -0.65625q0 -0.375 0.28125 -0.640625q0.28125 -0.28125 0.671875 -0.28125q0.375 0 0.65625 0.28125q0.296875 0.265625 0.296875 0.640625q0 0.375 -0.296875 0.65625q-0.28125 0.265625 -0.65625 0.265625zm0 5.09375q-0.40625 0 -0.6875 -0.265625q-0.265625 -0.265625 -0.265625 -0.640625q0 -0.390625 0.28125 -0.65625q0.28125 -0.265625 0.671875 -0.265625q0.375 0 0.65625 0.265625q0.296875 0.265625 0.296875 0.65625q0 0.359375 -0.28125 0.640625q-0.28125 0.265625 -0.671875 0.265625zm15.8750305 -0.171875l0 -8.59375l-2.03125 0.59375l-0.25 -0.625l2.609375 -1.359375l0.78125 0l0 9.984375l-1.109375 0z" fill-rule="nonzero"/><path fill="#000000" d="m64.24065 235.83879q0 1.34375 -0.046875 1.984375q-0.03125 0.625 -0.109375 1.375l-0.093746185 0.765625l-0.78125 0l-0.09375 -0.765625q-0.078125 -0.71875 -0.125 -1.359375q-0.03125 -0.640625 -0.03125 -2.0l1.2812462 0zm2.40625 0q0 1.34375 -0.046875 1.984375q-0.03125 0.625 -0.109375 1.375l-0.09375 0.765625l-0.78125 0l-0.09375 -0.765625q-0.078125 -0.71875 -0.125 -1.359375q-0.03125 -0.640625 -0.03125 -2.0l1.28125 0zm6.4062653 10.8125q-0.65625 0 -1.21875 -0.296875q-0.546875 -0.296875 -0.9375 -0.828125l-0.390625 0.953125l-0.75 0l0 -10.640625l1.3125 0l0 0.109375q-0.09375 0.09375 -0.125 0.21875q-0.015625 0.109375 -0.015625 0.375l0 3.75q0.359375 -0.59375 0.953125 -0.9375q0.609375 -0.359375 1.21875 -0.359375q1.390625 0 2.203125 0.96875q0.8125 0.953125 0.8125 2.78125q0 1.25 -0.4375 2.140625q-0.421875 0.890625 -1.125 1.328125q-0.703125 0.4375 -1.5 0.4375zm-0.140625 -1.015625q0.859375 0 1.4375 -0.671875q0.578125 -0.6875 0.578125 -2.140625q0 -1.421875 -0.53125 -2.125q-0.53125 -0.71875 -1.453125 -0.71875q-0.890625 0 -1.453125 0.8125q-0.5625 0.796875 -0.5625 2.0625q0 2.78125 1.984375 2.78125zm7.8906403 0.96875q-0.96875 0 -1.75 -0.46875q-0.765625 -0.484375 -1.203125 -1.34375q-0.421875 -0.875 -0.421875 -1.96875q0 -1.109375 0.421875 -1.96875q0.4375 -0.875 1.203125 -1.359375q0.78125 -0.484375 1.75 -0.484375q0.96875 0 1.734375 0.484375q0.78125 0.484375 1.203125 1.359375q0.4375 0.859375 0.4375 1.96875q0 1.09375 -0.4375 1.96875q-0.421875 0.859375 -1.203125 1.34375q-0.765625 0.46875 -1.734375 0.46875zm0 -0.953125q0.625 0 1.109375 -0.359375q0.484375 -0.375 0.765625 -1.015625q0.28125 -0.65625 0.28125 -1.484375q0 -1.234375 -0.609375 -2.03125q-0.609375 -0.796875 -1.546875 -0.796875q-0.9375 0 -1.546875 0.796875q-0.609375 0.796875 -0.609375 2.03125q0 0.828125 0.28125 1.484375q0.28125 0.640625 0.765625 1.015625q0.484375 0.359375 1.109375 0.359375zm8.250015 1.0q-0.65625 0 -1.21875 -0.296875q-0.546875 -0.296875 -0.9375 -0.828125l-0.390625 0.953125l-0.75 0l0 -10.640625l1.3125 0l0 0.109375q-0.09375 0.09375 -0.125 0.21875q-0.015625 0.109375 -0.015625 0.375l0 3.75q0.359375 -0.59375 0.953125 -0.9375q0.609375 -0.359375 1.21875 -0.359375q1.390625 0 2.203125 0.96875q0.8125 0.953125 0.8125 2.78125q0 1.25 -0.4375 2.140625q-0.421875 0.890625 -1.125 1.328125q-0.703125 0.4375 -1.5 0.4375zm-0.140625 -1.015625q0.859375 0 1.4375 -0.671875q0.578125 -0.6875 0.578125 -2.140625q0 -1.421875 -0.53125 -2.125q-0.53125 -0.71875 -1.453125 -0.71875q-0.890625 0 -1.453125 0.8125q-0.5625 0.796875 -0.5625 2.0625q0 2.78125 1.984375 2.78125zm7.3281403 -9.796875q0 1.34375 -0.046875 1.984375q-0.03125 0.625 -0.109375 1.375l-0.09375 0.765625l-0.78125 0l-0.09375 -0.765625q-0.078125 -0.71875 -0.125 -1.359375q-0.03125 -0.640625 -0.03125 -2.0l1.28125 0zm2.40625 0q0 1.34375 -0.046875 1.984375q-0.03125 0.625 -0.109375 1.375l-0.09375 0.765625l-0.78125 0l-0.09375 -0.765625q-0.078125 -0.71875 -0.125 -1.359375q-0.03125 -0.640625 -0.03125 -2.0l1.28125 0zm5.9687653 5.71875q-0.375 0 -0.671875 -0.265625q-0.28125 -0.28125 -0.28125 -0.65625q0 -0.375 0.28125 -0.640625q0.28125 -0.28125 0.671875 -0.28125q0.375 0 0.65625 0.28125q0.296875 0.265625 0.296875 0.640625q0 0.375 -0.296875 0.65625q-0.28125 0.265625 -0.65625 0.265625zm0 5.09375q-0.40625 0 -0.6875 -0.265625q-0.265625 -0.265625 -0.265625 -0.640625q0 -0.390625 0.28125 -0.65625q0.28125 -0.265625 0.671875 -0.265625q0.375 0 0.65625 0.265625q0.296875 0.265625 0.296875 0.65625q0 0.359375 -0.28125 0.640625q-0.28125 0.265625 -0.671875 0.265625zm13.3594055 -1.0625l1.296875 -1.3125q1.296875 -1.296875 1.9375 -2.03125q0.65625 -0.734375 1.03125 -1.46875q0.390625 -0.734375 0.390625 -1.515625q0 -0.96875 -0.46875 -1.40625q-0.46875 -0.4375 -1.234375 -0.4375q-0.6875 0 -1.28125 0.3125q-0.578125 0.296875 -0.765625 0.671875q-0.09375 0.171875 -0.1875 0.359375q-0.09375 0.1875 -0.09375 0.21875q0 0.015625 0.015625 0.015625q0.015625 0 0.0625 -0.015625q0.046875 -0.03125 0.0625 0.03125l-0.046875 0.09375l-0.140625 -0.078125l-0.828125 -0.640625q0.484375 -0.9375 1.3125 -1.4375q0.84375 -0.5 1.875 -0.5q1.28125 0 2.0625 0.765625q0.796875 0.765625 0.796875 2.078125q0 0.875 -0.421875 1.6875q-0.40625 0.8125 -1.0625 1.546875q-0.640625 0.734375 -1.78125 1.875l-1.09375 1.109375l3.703125 0q0.265625 0 0.375 -0.03125q0.125 -0.046875 0.21875 -0.140625l0.125 0l0 1.140625l-5.859375 0l0 -0.890625z" fill-rule="nonzero"/><path fill="#93c47d" d="m193.97507 339.6063l0 0c0 -25.47467 20.651306 -46.125977 46.125977 -46.125977l0 0c12.233383 0 23.965698 4.85968 32.615997 13.509979c8.650299 8.650299 13.509979 20.38263 13.509979 32.615997l0 0c0 25.47467 -20.651306 46.125977 -46.125977 46.125977l0 0c-25.47467 0 -46.125977 -20.651306 -46.125977 -46.125977z" fill-rule="evenodd"/><path stroke="#6aa84f" stroke-width="1.0" stroke-linejoin="round" stroke-linecap="butt" d="m193.97507 339.6063l0 0c0 -25.47467 20.651306 -46.125977 46.125977 -46.125977l0 0c12.233383 0 23.965698 4.85968 32.615997 13.509979c8.650299 8.650299 13.509979 20.38263 13.509979 32.615997l0 0c0 25.47467 -20.651306 46.125977 -46.125977 46.125977l0 0c-25.47467 0 -46.125977 -20.651306 -46.125977 -46.125977z" fill-rule="evenodd"/><path fill="#000000" fill-opacity="0.0" d="m300.49606 319.7953l-120.7874 0l0 39.62204l120.7874 0z" fill-rule="evenodd"/><path fill="#000000" d="m212.99298 335.09027l3.6875 0q2.078125 0 3.0625 0.921875q1.0 0.90625 1.0 2.546875q0 0.640625 -0.28125 1.28125q-0.28125 0.640625 -0.796875 1.125q-0.5 0.484375 -1.15625 0.6875l2.734375 5.0625l-2.359375 0l-2.40625 -4.8125l-1.359375 0l0 4.8125l-2.125 0l0 -11.625zm3.8125 5.03125q0.890625 0 1.34375 -0.40625q0.453125 -0.421875 0.453125 -1.15625q0 -0.8125 -0.4375 -1.21875q-0.4375 -0.40625 -1.359375 -0.40625l-1.6875 0l0 3.1875l1.6875 0zm9.671875 6.890625q-1.25 0 -2.234375 -0.546875q-0.984375 -0.546875 -1.546875 -1.5625q-0.5625 -1.03125 -0.5625 -2.421875q0 -1.40625 0.53125 -2.46875q0.53125 -1.0625 1.46875 -1.625q0.9375 -0.578125 2.125 -0.578125q1.046875 0 1.890625 0.5q0.84375 0.484375 1.328125 1.453125q0.5 0.953125 0.5 2.3125q0 0.21875 -0.046875 0.609375l-0.015625 0.265625l-5.703125 0q0.125 1.1875 0.734375 1.796875q0.625 0.609375 1.46875 0.609375q0.59375 0 1.203125 -0.28125q0.609375 -0.28125 1.0 -0.78125l1.15625 1.15625q-1.3125 1.5625 -3.296875 1.5625zm1.40625 -5.59375q0 -0.546875 -0.21875 -1.015625q-0.203125 -0.46875 -0.609375 -0.734375q-0.390625 -0.28125 -0.90625 -0.28125q-0.765625 0 -1.265625 0.546875q-0.5 0.546875 -0.609375 1.484375l3.609375 0zm7.34375 -3.6875q1.71875 0 2.75 0.859375q1.046875 0.84375 1.046875 2.828125l0 5.296875l-2.0 0l0 -0.78125q-0.5 0.46875 -1.203125 0.75q-0.703125 0.265625 -1.515625 0.265625q-1.359375 0 -2.078125 -0.671875q-0.703125 -0.671875 -0.703125 -1.828125q0 -0.921875 0.578125 -1.578125q0.59375 -0.65625 1.703125 -1.0q1.109375 -0.34375 2.640625 -0.34375l0.640625 0q-0.09375 -1.140625 -0.5625 -1.625q-0.453125 -0.484375 -1.40625 -0.484375q-0.59375 0 -1.25 0.3125q-0.640625 0.3125 -1.1875 0.875l-1.0625 -1.375q0.8125 -0.734375 1.75 -1.109375q0.953125 -0.390625 1.859375 -0.390625zm-0.25 7.625q0.921875 0 1.453125 -0.578125q0.546875 -0.59375 0.65625 -1.859375l-0.421875 0q-1.59375 0 -2.34375 0.359375q-0.734375 0.34375 -0.734375 1.09375q0 0.5 0.359375 0.75q0.375 0.234375 1.03125 0.234375zm9.390625 1.640625q-1.03125 0 -1.875 -0.5q-0.84375 -0.515625 -1.34375 -1.53125q-0.484375 -1.015625 -0.484375 -2.46875q0 -1.421875 0.5 -2.484375q0.5 -1.0625 1.34375 -1.625q0.859375 -0.578125 1.84375 -0.578125q0.515625 0 1.078125 0.25q0.5625 0.25 0.9375 0.625l0 -4.5625l2.28125 0l0 0.21875q-0.109375 0.109375 -0.140625 0.25q-0.015625 0.125 0 0.421875l-0.046875 10.65625q0 0.3125 0.03125 0.5625q0.046875 0.234375 0.171875 0.484375l-2.03125 0q-0.125 -0.234375 -0.15625 -0.4375q-0.015625 -0.21875 -0.015625 -0.609375q-0.28125 0.65625 -0.875 1.0q-0.578125 0.328125 -1.21875 0.328125zm0.3125 -1.734375q1.703125 0 1.703125 -3.0q0 -1.265625 -0.359375 -2.0q-0.359375 -0.75 -1.296875 -0.75q-0.984375 0 -1.46875 0.828125q-0.484375 0.8125 -0.484375 2.125q0 0.96875 0.28125 1.609375q0.296875 0.625 0.71875 0.90625q0.4375 0.28125 0.90625 0.28125zm9.78125 1.75q-1.25 0 -2.234375 -0.546875q-0.984375 -0.546875 -1.546875 -1.5625q-0.5625 -1.03125 -0.5625 -2.421875q0 -1.40625 0.53125 -2.46875q0.53125 -1.0625 1.46875 -1.625q0.9375 -0.578125 2.125 -0.578125q1.046875 0 1.890625 0.5q0.84375 0.484375 1.328125 1.453125q0.5 0.953125 0.5 2.3125q0 0.21875 -0.046875 0.609375l-0.015625 0.265625l-5.703125 0q0.125 1.1875 0.734375 1.796875q0.625 0.609375 1.46875 0.609375q0.59375 0 1.203125 -0.28125q0.609375 -0.28125 1.0 -0.78125l1.15625 1.15625q-1.3125 1.5625 -3.296875 1.5625zm1.40625 -5.59375q0 -0.546875 -0.21875 -1.015625q-0.203125 -0.46875 -0.609375 -0.734375q-0.390625 -0.28125 -0.90625 -0.28125q-0.765625 0 -1.265625 0.546875q-0.5 0.546875 -0.609375 1.484375l3.609375 0zm10.703125 -0.765625l0 -0.015625q-0.359375 -0.5625 -0.765625 -0.796875q-0.390625 -0.25 -0.921875 -0.25q-0.671875 0 -1.21875 0.3125q-0.53125 0.3125 -0.84375 0.90625q-0.296875 0.578125 -0.296875 1.34375l0 4.5625l-2.109375 0l0 -8.703125l2.15625 0l0 1.25q0.34375 -0.6875 1.015625 -1.0625q0.671875 -0.390625 1.5 -0.390625q0.640625 0 1.28125 0.25q0.640625 0.234375 1.140625 0.71875l-0.9375 1.875zm-0.265625 0q0 0 0.015625 0q0.03125 0 0.09375 0.046875q0.0625 0.03125 0.109375 0.046875l-0.015625 0.03125l-0.1875 -0.09375l-0.015625 -0.03125zm0.265625 0q0.0625 0.09375 0.0625 0.125q0 0 -0.015625 0q-0.03125 0 -0.09375 -0.03125l0.046875 -0.09375z" fill-rule="nonzero"/><path fill="#000000" fill-opacity="0.0" d="m134.69292 52.7769c0 30.299217 24.724411 60.598427 49.448822 60.598427" fill-rule="evenodd"/><path stroke="#000000" stroke-width="1.0" stroke-linejoin="round" stroke-linecap="butt" stroke-dasharray="4.0,3.0" d="m134.69292 52.7769c0 15.149605 6.1810913 30.299217 15.452759 41.661423c4.6358185 5.681099 10.044281 10.415352 15.839066 13.729324c2.8974 1.65699 5.8913727 2.958908 8.933624 3.8465805c0.7605591 0.2219162 1.5241547 0.4179535 2.2900085 0.5871582c0.19145203 0.042304993 0.38305664 0.08293152 0.5747833 0.12186432l0.38639832 0.07500458" fill-rule="evenodd"/><path fill="#000000" stroke="#000000" stroke-width="1.0" stroke-linecap="butt" d="m178.01068 114.44233l4.6759186 -1.2076035l-4.358185 -2.0805435z" fill-rule="evenodd"/><path fill="#000000" fill-opacity="0.0" d="m12.871391 385.73227l171.2756 0l0 39.62207l-171.2756 0z" fill-rule="evenodd"/><path fill="#000000" d="m26.590141 406.77728l3.953125 0l0 4.875q-0.828125 0.703125 -1.71875 1.015625q-0.875 0.328125 -1.921875 0.328125q-1.484375 0 -2.5625 -0.78125q-1.0625 -0.78125 -1.625 -2.15625q-0.546875 -1.390625 -0.546875 -3.234375q0 -2.25 0.765625 -3.609375q0.78125 -1.375 1.859375 -1.921875q1.09375 -0.5625 2.109375 -0.5625q1.171875 0 2.140625 0.625q0.96875 0.609375 1.53125 1.65625l-1.390625 1.34375l-0.015625 0.015625q-0.09375 -0.125 -0.28125 -0.4375q-0.25 -0.421875 -0.484375 -0.703125q-0.21875 -0.296875 -0.609375 -0.5q-0.375 -0.21875 -0.921875 -0.21875q-0.671875 0 -1.25 0.421875q-0.578125 0.421875 -0.9375 1.375q-0.359375 0.9375 -0.359375 2.390625q0 1.375 0.328125 2.40625q0.328125 1.03125 0.921875 1.578125q0.59375 0.53125 1.328125 0.53125q1.03125 0 1.671875 -0.484375l0 -2.1875l-1.984375 0l0 -1.765625zm2.328125 -2.453125q0 -0.046875 0.03125 -0.046875q0.03125 0 0.1875 0.125l-0.0625 0.0625l-0.15625 -0.140625l0 0zm0.34375 0.15625q0 0 -0.125 -0.078125l0.03125 -0.03125l0.09375 0.109375zm6.96875 8.46875q-1.25 0 -2.234375 -0.546875q-0.984375 -0.546875 -1.546875 -1.5625q-0.5625 -1.03125 -0.5625 -2.421875q0 -1.40625 0.53125 -2.46875q0.53125 -1.0625 1.46875 -1.625q0.9375 -0.578125 2.125 -0.578125q1.046875 0 1.890625 0.5q0.84375 0.484375 1.328125 1.453125q0.5 0.953125 0.5 2.3125q0 0.21875 -0.046875 0.609375l-0.015625 0.265625l-5.703125 0q0.125 1.1875 0.734375 1.796875q0.625 0.609375 1.46875 0.609375q0.59375 0 1.203125 -0.28125q0.609375 -0.28125 1.0 -0.78125l1.15625 1.15625q-1.3125 1.5625 -3.296875 1.5625zm1.40625 -5.59375q0 -0.546875 -0.21875 -1.015625q-0.203125 -0.46875 -0.609375 -0.734375q-0.390625 -0.28125 -0.90625 -0.28125q-0.765625 0 -1.265625 0.546875q-0.5 0.546875 -0.609375 1.484375l3.609375 0zm11.375 4.515625q-0.671875 0.515625 -1.40625 0.78125q-0.734375 0.265625 -1.59375 0.265625q-1.359375 0 -2.078125 -0.796875q-0.71875 -0.8125 -0.71875 -2.765625q0 -0.5 0.046875 -1.109375l0.15625 -2.609375l-1.875 0l0.03125 -1.6875l1.953125 0l0.109375 -2.046875l2.296875 -0.375l0.046875 0.203125q-0.03125 0.03125 -0.109375 0.140625q-0.0625 0.09375 -0.109375 0.234375q-0.046875 0.140625 -0.046875 0.328125l-0.140625 1.515625l2.671875 0l-0.03125 1.6875l-2.671875 0l-0.203125 2.484375q-0.046875 0.625 -0.046875 1.015625q0 1.15625 0.28125 1.625q0.28125 0.453125 0.890625 0.453125q0.5625 0 1.03125 -0.21875q0.484375 -0.21875 1.078125 -0.734375l0.4375 1.609375zm8.25 4.171875q-1.640625 -0.671875 -2.875 -1.921875q-1.234375 -1.25 -1.90625 -2.828125q-0.671875 -1.59375 -0.671875 -3.28125q0 -1.671875 0.640625 -3.21875q0.65625 -1.546875 1.859375 -2.75q1.21875 -1.21875 2.84375 -1.90625l0.484375 1.625q-1.875 0.953125 -2.875 2.59375q-1.0 1.625 -1.0 3.703125q0 1.359375 0.46875 2.609375q0.46875 1.25 1.375 2.234375q0.90625 0.984375 2.140625 1.5625l-0.484375 1.578125z" fill-rule="nonzero"/><path fill="#000000" d="m63.18389 400.24603q0 1.5625 -0.046875 2.3125q-0.046875 0.734375 -0.140625 1.609375l-0.109375 0.890625l-0.890625 0l-0.109375 -0.890625q-0.09375 -0.84375 -0.140625 -1.59375q-0.046875 -0.75 -0.046875 -2.328125l1.484375 0zm2.8125 0q0 1.5625 -0.046875 2.3125q-0.046875 0.734375 -0.140625 1.609375l-0.109375 0.890625l-0.890625 0l-0.109375 -0.890625q-0.09375 -0.84375 -0.140625 -1.59375q-0.046875 -0.75 -0.046875 -2.328125l1.484375 0zm3.40625 0.78125l3.3125 0q1.9375 0 2.890625 0.765625q0.96875 0.75 0.96875 2.046875q0 0.859375 -0.46875 1.578125q-0.453125 0.71875 -1.25 1.0q0.96875 0.34375 1.578125 1.171875q0.609375 0.828125 0.609375 1.796875q0 1.53125 -1.09375 2.40625q-1.078125 0.859375 -3.265625 0.859375l-3.28125 0l0 -11.625zm3.125 4.8125q2.734375 0 2.734375 -1.84375q0 -0.84375 -0.625 -1.34375q-0.609375 -0.515625 -1.90625 -0.515625l-2.03125 0l0 3.703125l1.828125 0zm0.390625 5.671875q2.734375 0 2.734375 -2.203125q0 -2.359375 -3.0625 -2.359375l-1.890625 0l0 4.5625l2.21875 0zm9.59375 1.296875q-1.140625 0 -2.046875 -0.5625q-0.890625 -0.5625 -1.390625 -1.5625q-0.5 -1.015625 -0.5 -2.296875q0 -1.296875 0.5 -2.296875q0.5 -1.015625 1.390625 -1.578125q0.90625 -0.578125 2.046875 -0.578125q1.125 0 2.015625 0.578125q0.90625 0.5625 1.40625 1.578125q0.5 1.0 0.5 2.296875q0 1.28125 -0.5 2.296875q-0.5 1.0 -1.40625 1.5625q-0.890625 0.5625 -2.015625 0.5625zm0 -1.125q0.71875 0 1.28125 -0.421875q0.578125 -0.4375 0.90625 -1.1875q0.328125 -0.765625 0.328125 -1.71875q0 -1.453125 -0.71875 -2.375q-0.703125 -0.921875 -1.796875 -0.921875q-1.109375 0 -1.828125 0.921875q-0.703125 0.921875 -0.703125 2.375q0 0.953125 0.328125 1.71875q0.328125 0.75 0.890625 1.1875q0.578125 0.421875 1.3125 0.421875zm9.625 1.171875q-0.765625 0 -1.421875 -0.34375q-0.65625 -0.34375 -1.109375 -0.984375l-0.453125 1.125l-0.859375 0l0 -12.40625l1.53125 0l0 0.125q-0.125 0.125 -0.15625 0.25q-0.015625 0.125 -0.015625 0.453125l0 4.359375q0.40625 -0.6875 1.109375 -1.09375q0.703125 -0.421875 1.421875 -0.421875q1.609375 0 2.5625 1.125q0.953125 1.109375 0.953125 3.265625q0 1.453125 -0.515625 2.484375q-0.5 1.03125 -1.328125 1.546875q-0.8125 0.515625 -1.71875 0.515625zm-0.171875 -1.1875q1.0 0 1.671875 -0.796875q0.671875 -0.796875 0.671875 -2.484375q0 -1.640625 -0.625 -2.46875q-0.625 -0.84375 -1.6875 -0.84375q-1.046875 0 -1.703125 0.9375q-0.640625 0.9375 -0.640625 2.40625q0 3.25 2.3125 3.25zm8.53125 -11.421875q0 1.5625 -0.046875 2.3125q-0.046875 0.734375 -0.140625 1.609375l-0.109375 0.890625l-0.890625 0l-0.109375 -0.890625q-0.09375 -0.84375 -0.140625 -1.59375q-0.046875 -0.75 -0.046875 -2.328125l1.484375 0zm2.8125 0q0 1.5625 -0.046875 2.3125q-0.046875 0.734375 -0.140625 1.609375l-0.109375 0.890625l-0.890625 0l-0.109375 -0.890625q-0.09375 -0.84375 -0.140625 -1.59375q-0.046875 -0.75 -0.046875 -2.328125l1.484375 0z" fill-rule="nonzero"/><path fill="#000000" d="m107.77764 414.46478q1.25 -0.578125 2.140625 -1.5625q0.90625 -0.984375 1.375 -2.234375q0.484375 -1.25 0.484375 -2.609375q0 -2.078125 -1.015625 -3.703125q-1.0 -1.640625 -2.875 -2.59375l0.484375 -1.625q1.640625 0.6875 2.84375 1.90625q1.203125 1.203125 1.84375 2.75q0.65625 1.546875 0.65625 3.21875q0 1.6875 -0.671875 3.28125q-0.671875 1.578125 -1.90625 2.828125q-1.234375 1.25 -2.875 1.921875l-0.484375 -1.578125z" fill-rule="nonzero"/><path fill="#999999" d="m125.80889 407.40228l0 -1.25l6.7187424 0l0 1.25l-6.7187424 0zm8.749992 4.375l0 -1.421875l6.5 -3.65625l-6.46875 -3.296875l0 -1.328125l7.90625 4.15625l0 0.90625l-7.9375 4.640625z" fill-rule="nonzero"/><path fill="#000000" d="m158.79326 406.46478q0.796875 0.28125 1.359375 1.03125q0.5625 0.734375 0.5625 1.890625q0 1.015625 -0.46875 1.84375q-0.46875 0.828125 -1.359375 1.3125q-0.890625 0.46875 -2.09375 0.46875q-2.390625 0 -3.640625 -1.578125l0.875 -1.734375l0 0l0.015625 0.015625q0.40625 0.78125 1.0625 1.140625q0.671875 0.34375 1.703125 0.34375q0.859375 0 1.328125 -0.515625q0.484375 -0.515625 0.484375 -1.375q0 -0.9375 -0.53125 -1.390625q-0.515625 -0.46875 -1.765625 -0.46875q-0.4375 0 -0.96875 0.0625l0 -1.6875q0.140625 0 0.390625 0q1.4375 0 2.0 -0.453125q0.5625 -0.46875 0.5625 -1.296875q0 -0.671875 -0.40625 -1.09375q-0.390625 -0.421875 -1.109375 -0.421875q-0.625 0 -1.171875 0.21875q-0.53125 0.21875 -1.109375 0.75l-1.171875 -1.203125q0.671875 -0.78125 1.546875 -1.171875q0.890625 -0.390625 1.890625 -0.390625q1.0625 0 1.875 0.40625q0.828125 0.40625 1.28125 1.109375q0.46875 0.703125 0.46875 1.578125q0 0.9375 -0.484375 1.625q-0.46875 0.671875 -1.125 0.984375zm-4.765625 3.234375q-0.03125 -0.078125 -0.03125 -0.125q0 -0.015625 0.015625 -0.015625q0.015625 0 0.078125 0.03125l-0.0625 0.109375zm0.265625 -0.03125q0 0.015625 0 0.015625q-0.03125 0 -0.109375 -0.03125q-0.0625 -0.046875 -0.09375 -0.0625l0 -0.03125l0.203125 0.09375l0 0.015625z" fill-rule="nonzero"/><path fill="#000000" fill-opacity="0.0" d="m240.10236 142.7874l0 31.2126" fill-rule="evenodd"/><path stroke="#000000" stroke-width="1.0" stroke-linejoin="round" stroke-linecap="butt" d="m240.10236 142.7874l0 25.2126" fill-rule="evenodd"/><path fill="#000000" stroke="#000000" stroke-width="1.0" stroke-linecap="butt" d="m238.45062 168.0l1.6517334 4.538101l1.6517334 -4.538101z" fill-rule="evenodd"/><path fill="#000000" fill-opacity="0.0" d="m98.509186 385.73227c0 -12.5 25.166573 -25.00055 45.275787 -25.0c20.109207 5.79834E-4 35.16104 12.502258 45.275772 25.0c10.114746 12.497772 15.292374 24.991577 25.527374 25.0c10.235001 0.008453369 25.527359 -12.468475 25.527359 -24.936981" fill-rule="evenodd"/><path stroke="#000000" stroke-width="1.0" stroke-linejoin="round" stroke-linecap="butt" stroke-dasharray="4.0,3.0" d="m100.204994 379.9769l0.03215027 -0.05633545c0.22270966 -0.38110352 0.46538544 -0.7602844 0.72709656 -1.1371765c0.5234375 -0.7538147 1.1230392 -1.4984436 1.7914276 -2.2308655c2.6735764 -2.9297485 6.4478073 -5.664154 10.850456 -8.007935c8.80529 -4.6875916 20.124237 -7.8125916 30.178848 -7.812317c20.109192 5.79834E-4 35.16104 12.502258 45.275787 25.0c10.114731 12.497772 15.292358 24.991577 25.527344 25.0c10.235016 0.008453369 25.527374 -12.468475 25.527374 -24.936981" fill-rule="evenodd"/><path fill="#000000" stroke="#000000" stroke-width="1.0" stroke-linecap="butt" d="m98.620605 379.51007l0.30176544 4.819916l2.8670044 -3.8862305z" fill-rule="evenodd"/><path fill="#000000" fill-opacity="0.0" d="m240.10104 266.2454l0 27.24411" fill-rule="evenodd"/><path stroke="#000000" stroke-width="1.0" stroke-linejoin="round" stroke-linecap="butt" d="m240.10104 266.2454l0 21.24411" fill-rule="evenodd"/><path fill="#000000" stroke="#000000" stroke-width="1.0" stroke-linecap="butt" d="m238.44931 287.4895l1.6517334 4.538086l1.6517334 -4.538086z" fill-rule="evenodd"/><path fill="#000000" fill-opacity="0.0" d="m333.40945 67.25853l127.90552 0l0 92.25197l-127.90552 0z" fill-rule="evenodd"/><path fill="#000000" d="m349.11258 79.54139l0 -0.015625q-0.296875 -0.484375 -0.640625 -0.6875q-0.34375 -0.203125 -0.8125 -0.203125q-0.5625 0 -1.03125 0.265625q-0.453125 0.265625 -0.71875 0.765625q-0.265625 0.5 -0.265625 1.171875l0 3.90625l-1.8125 0l0 -7.46875l1.84375 0l0 1.0625q0.296875 -0.578125 0.875 -0.90625q0.578125 -0.328125 1.28125 -0.328125q0.5625 0 1.109375 0.21875q0.546875 0.203125 0.984375 0.609375l-0.8125 1.609375zm-0.21875 0q0 0 0 0q0.03125 0 0.078125 0.03125q0.0625 0.03125 0.09375 0.046875l0 0.03125l-0.171875 -0.078125l0 -0.03125zm0.21875 0q0.046875 0.078125 0.046875 0.109375q0 0 -0.015625 0q-0.015625 0 -0.078125 -0.03125l0.046875 -0.078125zm5.3125 5.46875q-0.984375 0 -1.796875 -0.515625q-0.8125 -0.515625 -1.28125 -1.421875q-0.46875 -0.90625 -0.46875 -2.0625q0 -1.078125 0.46875 -1.96875q0.484375 -0.90625 1.296875 -1.421875q0.8125 -0.515625 1.78125 -0.515625q0.96875 0 1.78125 0.515625q0.828125 0.515625 1.296875 1.421875q0.484375 0.890625 0.484375 1.96875q0 1.15625 -0.46875 2.0625q-0.46875 0.90625 -1.28125 1.421875q-0.8125 0.515625 -1.8125 0.515625zm0 -1.453125q0.53125 0 0.921875 -0.3125q0.40625 -0.328125 0.609375 -0.890625q0.21875 -0.578125 0.21875 -1.34375q0 -0.765625 -0.21875 -1.3125q-0.203125 -0.5625 -0.609375 -0.859375q-0.390625 -0.296875 -0.921875 -0.296875q-0.5 0 -0.890625 0.296875q-0.390625 0.296875 -0.609375 0.859375q-0.203125 0.5625 -0.203125 1.3125q0 0.765625 0.203125 1.34375q0.203125 0.578125 0.578125 0.890625q0.390625 0.3125 0.921875 0.3125zm4.109375 -6.28125l1.765625 0l0.75 5.265625l0.9375 -4.40625l1.09375 0l1.0625 4.390625q0.21875 -1.421875 0.296875 -2.65625q0.078125 -1.25 0.078125 -2.109375l0 -0.484375l1.703125 0q-0.21875 1.84375 -0.53125 3.859375q-0.296875 2.0 -0.625 3.609375l-1.578125 0l-0.984375 -4.15625l-0.921875 4.15625l-1.625 0l-1.421875 -7.46875zm12.609375 3.0q0.921875 0.28125 1.4375 0.578125q0.53125 0.28125 0.765625 0.6875q0.25 0.390625 0.25 0.984375q0 0.65625 -0.390625 1.21875q-0.375 0.5625 -1.046875 0.921875q-0.671875 0.34375 -1.5 0.34375q-1.125 0 -1.96875 -0.296875q-0.828125 -0.3125 -1.53125 -0.984375l0.75 -1.3125l0.015625 -0.015625l0.015625 0.015625q0.546875 0.59375 1.171875 0.875q0.640625 0.265625 1.5625 0.265625q1.28125 0 1.28125 -0.84375q0 -0.265625 -0.15625 -0.453125q-0.15625 -0.1875 -0.5 -0.34375q-0.34375 -0.15625 -0.953125 -0.328125q-1.28125 -0.328125 -2.0 -0.84375q-0.71875 -0.515625 -0.71875 -1.40625q0 -0.65625 0.34375 -1.15625q0.359375 -0.5 1.0 -0.78125q0.65625 -0.296875 1.53125 -0.296875q0.875 0 1.59375 0.296875q0.734375 0.28125 1.34375 0.859375l-0.90625 1.265625l-0.015625 0.015625q0 0 0 0q0 -0.015625 0 -0.015625q-0.328125 -0.46875 -0.859375 -0.71875q-0.515625 -0.265625 -1.125 -0.265625q-0.46875 0 -0.796875 0.171875q-0.3125 0.15625 -0.3125 0.4375q0 0.265625 0.171875 0.453125q0.171875 0.171875 0.53125 0.328125q0.359375 0.140625 1.015625 0.34375zm1.15625 -0.75q0 -0.015625 0.015625 -0.015625q0.03125 0 0.078125 0.046875q0.0625 0.03125 0.09375 0.046875l-0.03125 0.03125l-0.15625 -0.09375l0 -0.015625zm0.21875 0.015625q0.0625 0.078125 0.0625 0.109375q0 0 -0.046875 -0.015625q-0.03125 -0.015625 -0.046875 -0.03125l0.03125 -0.0625zm-4.375 2.875q0 0.015625 -0.015625 0.015625q-0.015625 0 -0.078125 -0.03125q-0.0625 -0.03125 -0.09375 -0.046875l0.03125 -0.0625l0.15625 0.09375l0 0.03125zm-0.21875 -0.015625q-0.0625 -0.0625 -0.0625 -0.078125q0 0 0 0q0 -0.015625 0 -0.015625l0.09375 0.046875l-0.03125 0.046875z" fill-rule="nonzero"/><path fill="#000000" d="m344.5032 108.16639l0 -12.140625l4.578125 0l0 0.953125l-3.546875 0l0 10.28125l3.5625 0l0 0.90625l-4.59375 0zm9.59375 -1.421875l0 -8.59375l-2.03125 0.59375l-0.25 -0.625l2.609375 -1.359375l0.78125 0l0 9.984375l-1.109375 0zm6.9531555 2.203125q0.453125 -0.40625 0.75 -0.890625q0.296875 -0.484375 0.296875 -0.78125q0 -0.140625 -0.09375 -0.25q-0.078125 -0.09375 -0.28125 -0.28125q-0.21875 -0.203125 -0.34375 -0.34375q-0.109375 -0.15625 -0.109375 -0.359375q0 -0.40625 0.265625 -0.671875q0.265625 -0.265625 0.6875 -0.265625q0.421875 0 0.75 0.375q0.328125 0.375 0.328125 0.953125q0 1.234375 -1.703125 3.0l-0.546875 -0.484375zm16.796906 -12.84375q0 1.34375 -0.046875 1.984375q-0.03125 0.625 -0.109375 1.375l-0.09375 0.765625l-0.78125 0l-0.09375 -0.765625q-0.078125 -0.71875 -0.125 -1.359375q-0.03125 -0.640625 -0.03125 -2.0l1.28125 0zm2.40625 0q0 1.34375 -0.046875 1.984375q-0.03125 0.625 -0.109375 1.375l-0.09375 0.765625l-0.78125 0l-0.09375 -0.765625q-0.078125 -0.71875 -0.125 -1.359375q-0.03125 -0.640625 -0.03125 -2.0l1.28125 0zm6.0625 3.171875q1.5625 0 2.390625 0.8125q0.828125 0.8125 0.828125 2.765625l0 3.890625l-1.25 0l0 -1.125q-0.671875 1.296875 -2.5 1.296875q-1.21875 0 -1.90625 -0.546875q-0.6875 -0.546875 -0.6875 -1.46875q0 -0.765625 0.5 -1.34375q0.5 -0.578125 1.328125 -0.890625q0.84375 -0.3125 1.859375 -0.3125q0.90625 0 1.640625 0.109375q-0.09375 -1.234375 -0.65625 -1.734375q-0.546875 -0.515625 -1.625 -0.515625q-0.546875 0 -1.0625 0.21875q-0.5 0.203125 -0.90625 0.59375l-0.5625 -0.734375q1.015625 -1.015625 2.609375 -1.015625zm-0.421875 6.765625q1.1875 0 1.875 -0.6875q0.6875 -0.703125 0.75 -2.015625q-0.71875 -0.109375 -1.546875 -0.109375q-1.21875 0 -1.921875 0.40625q-0.703125 0.390625 -0.703125 1.203125q0 1.203125 1.546875 1.203125zm5.7812805 0.703125l0 -0.921875l2.15625 0l0 -8.796875l-2.0625 0l0 -0.921875l3.234375 0l0 9.71875l2.140625 0l0 0.921875l-5.46875 0zm8.328125 0l0 -0.921875l1.875 0l0 -5.46875l-1.765625 0l0 -0.921875l2.921875 0l0 6.390625l1.71875 0l0 0.921875l-4.75 0zm2.390625 -8.84375q-0.328125 0 -0.578125 -0.234375q-0.234375 -0.25 -0.234375 -0.578125q0 -0.359375 0.234375 -0.59375q0.234375 -0.25 0.578125 -0.25q0.34375 0 0.578125 0.25q0.25 0.25 0.25 0.59375q0 0.328125 -0.25 0.578125q-0.234375 0.234375 -0.578125 0.234375zm8.6406555 7.984375q1.109375 0 1.90625 -0.90625l0.671875 0.796875q-1.078125 1.140625 -2.640625 1.140625q-1.0625 0 -1.890625 -0.484375q-0.828125 -0.5 -1.3125 -1.375q-0.46875 -0.875 -0.46875 -1.953125q0 -1.09375 0.46875 -1.953125q0.484375 -0.875 1.3125 -1.359375q0.828125 -0.5 1.875 -0.5q0.875 0 1.59375 0.359375q0.71875 0.359375 1.171875 1.0l-0.71875 0.703125l-0.015625 0.015625q-0.46875 -0.609375 -0.953125 -0.859375q-0.484375 -0.25 -1.203125 -0.25q-0.625 0 -1.171875 0.34375q-0.53125 0.34375 -0.859375 0.96875q-0.3125 0.625 -0.3125 1.4375q0 0.828125 0.328125 1.484375q0.328125 0.65625 0.90625 1.03125q0.59375 0.359375 1.3125 0.359375zm1.78125 -4.5q0 -0.09375 0.140625 0.015625l-0.0625 0.0625l-0.078125 -0.078125zm0.171875 -0.015625q0.078125 0.109375 0.03125 0.078125q-0.03125 -0.03125 -0.0625 -0.046875l0.03125 -0.03125zm5.78125 5.53125q-1.640625 0 -2.609375 -0.984375q-0.96875 -1.0 -0.96875 -2.796875q0 -1.203125 0.453125 -2.078125q0.453125 -0.875 1.203125 -1.328125q0.765625 -0.453125 1.703125 -0.453125q1.328125 0 2.15625 0.875q0.828125 0.875 0.828125 2.59375q0 0.171875 -0.03125 0.53125l-5.203125 0q0.0625 1.34375 0.75 2.03125q0.6875 0.6875 1.75 0.6875q1.140625 0 1.875 -0.8125l0.640625 0.625q-0.921875 1.109375 -2.546875 1.109375zm1.59375 -4.546875q0 -1.015625 -0.53125 -1.609375q-0.515625 -0.609375 -1.359375 -0.609375q-0.796875 0 -1.390625 0.5625q-0.59375 0.5625 -0.734375 1.65625l4.015625 0zm5.4844055 -6.25q0 1.34375 -0.046875 1.984375q-0.03125 0.625 -0.109375 1.375l-0.09375 0.765625l-0.78125 0l-0.09375 -0.765625q-0.078125 -0.71875 -0.125 -1.359375q-0.03125 -0.640625 -0.03125 -2.0l1.28125 0zm2.40625 0q0 1.34375 -0.046875 1.984375q-0.03125 0.625 -0.109375 1.375l-0.09375 0.765625l-0.78125 0l-0.09375 -0.765625q-0.078125 -0.71875 -0.125 -1.359375q-0.03125 -0.640625 -0.03125 -2.0l1.28125 0zm8.84375 12.0625l-4.59375 0l0 -0.90625l3.5625 0l0 -10.28125l-3.546875 0l0 -0.953125l4.578125 0l0 12.140625z" fill-rule="nonzero"/><path fill="#000000" d="m344.5032 130.1664l0 -12.140633l4.578125 0l0 0.953125l-3.546875 0l0 10.281258l3.5625 0l0 0.90625l-4.59375 0zm7.078125 -2.3125076l1.296875 -1.3125q1.296875 -1.296875 1.9375 -2.03125q0.65625 -0.734375 1.03125 -1.46875q0.390625 -0.734375 0.390625 -1.515625q0 -0.96875 -0.46875 -1.40625q-0.46875 -0.4375 -1.234375 -0.4375q-0.6875 0 -1.28125 0.3125q-0.578125 0.296875 -0.765625 0.671875q-0.09375 0.171875 -0.1875 0.359375q-0.09375 0.1875 -0.09375 0.21875q0 0.015625 0.015625 0.015625q0.015625 0 0.0625 -0.015625q0.046875 -0.03125 0.0625 0.03125l-0.046875 0.09375l-0.140625 -0.078125l-0.828125 -0.640625q0.484375 -0.9375 1.3125 -1.4375q0.84375 -0.5 1.875 -0.5q1.28125 0 2.0625 0.765625q0.796875 0.765625 0.796875 2.078125q0 0.875 -0.421875 1.6875q-0.40625 0.8125 -1.0625 1.546875q-0.640625 0.734375 -1.78125 1.875l-1.09375 1.109375l3.703125 0q0.265625 0 0.375 -0.03125q0.125 -0.046875 0.21875 -0.140625l0.125 0l0 1.1406326l-5.859375 0l0 -0.8906326zm9.4687805 3.0937576q0.453125 -0.40625 0.75 -0.890625q0.296875 -0.484375 0.296875 -0.78125q0 -0.140625 -0.09375 -0.25q-0.078125 -0.09375 -0.28125 -0.28125q-0.21875 -0.203125 -0.34375 -0.34375q-0.109375 -0.15625 -0.109375 -0.359375q0 -0.40625763 0.265625 -0.6718826q0.265625 -0.265625 0.6875 -0.265625q0.421875 0 0.75 0.375q0.328125 0.375 0.328125 0.9531326q0 1.234375 -1.703125 3.0l-0.546875 -0.484375zm16.796906 -12.843758q0 1.34375 -0.046875 1.984375q-0.03125 0.625 -0.109375 1.375l-0.09375 0.765625l-0.78125 0l-0.09375 -0.765625q-0.078125 -0.71875 -0.125 -1.359375q-0.03125 -0.640625 -0.03125 -2.0l1.28125 0zm2.40625 0q0 1.34375 -0.046875 1.984375q-0.03125 0.625 -0.109375 1.375l-0.09375 0.765625l-0.78125 0l-0.09375 -0.765625q-0.078125 -0.71875 -0.125 -1.359375q-0.03125 -0.640625 -0.03125 -2.0l1.28125 0zm6.40625 10.812508q-0.65625 0 -1.21875 -0.296875q-0.546875 -0.296875 -0.9375 -0.8281326l-0.390625 0.9531326l-0.75 0l0 -10.640633l1.3125 0l0 0.109375q-0.09375 0.09375 -0.125 0.21875q-0.015625 0.109375 -0.015625 0.375l0 3.75q0.359375 -0.59375 0.953125 -0.9375q0.609375 -0.359375 1.21875 -0.359375q1.390625 0 2.203125 0.96875q0.8125 0.953125 0.8125 2.78125q0 1.25 -0.4375 2.140625q-0.421875 0.8906326 -1.125 1.3281326q-0.703125 0.4375 -1.5 0.4375zm-0.140625 -1.0156326q0.859375 0 1.4375 -0.671875q0.578125 -0.6875 0.578125 -2.140625q0 -1.421875 -0.53125 -2.125q-0.53125 -0.71875 -1.453125 -0.71875q-0.890625 0 -1.453125 0.8125q-0.5625 0.796875 -0.5625 2.0625q0 2.78125 1.984375 2.78125zm7.8906555 0.9687576q-0.96875 0 -1.75 -0.46875q-0.765625 -0.48438263 -1.203125 -1.3437576q-0.421875 -0.875 -0.421875 -1.96875q0 -1.109375 0.421875 -1.96875q0.4375 -0.875 1.203125 -1.359375q0.78125 -0.484375 1.75 -0.484375q0.96875 0 1.734375 0.484375q0.78125 0.484375 1.203125 1.359375q0.4375 0.859375 0.4375 1.96875q0 1.09375 -0.4375 1.96875q-0.421875 0.859375 -1.203125 1.3437576q-0.765625 0.46875 -1.734375 0.46875zm0 -0.9531326q0.625 0 1.109375 -0.359375q0.484375 -0.375 0.765625 -1.015625q0.28125 -0.65625 0.28125 -1.484375q0 -1.234375 -0.609375 -2.03125q-0.609375 -0.796875 -1.546875 -0.796875q-0.9375 0 -1.546875 0.796875q-0.609375 0.796875 -0.609375 2.03125q0 0.828125 0.28125 1.484375q0.28125 0.640625 0.765625 1.015625q0.484375 0.359375 1.109375 0.359375zm8.25 1.0000076q-0.65625 0 -1.21875 -0.296875q-0.546875 -0.296875 -0.9375 -0.8281326l-0.390625 0.9531326l-0.75 0l0 -10.640633l1.3125 0l0 0.109375q-0.09375 0.09375 -0.125 0.21875q-0.015625 0.109375 -0.015625 0.375l0 3.75q0.359375 -0.59375 0.953125 -0.9375q0.609375 -0.359375 1.21875 -0.359375q1.390625 0 2.203125 0.96875q0.8125 0.953125 0.8125 2.78125q0 1.25 -0.4375 2.140625q-0.421875 0.8906326 -1.125 1.3281326q-0.703125 0.4375 -1.5 0.4375zm-0.140625 -1.0156326q0.859375 0 1.4375 -0.671875q0.578125 -0.6875 0.578125 -2.140625q0 -1.421875 -0.53125 -2.125q-0.53125 -0.71875 -1.453125 -0.71875q-0.890625 0 -1.453125 0.8125q-0.5625 0.796875 -0.5625 2.0625q0 2.78125 1.984375 2.78125zm7.3281555 -9.796875q0 1.34375 -0.046875 1.984375q-0.03125 0.625 -0.109375 1.375l-0.09375 0.765625l-0.78125 0l-0.09375 -0.765625q-0.078125 -0.71875 -0.125 -1.359375q-0.03125 -0.640625 -0.03125 -2.0l1.28125 0zm2.40625 0q0 1.34375 -0.046875 1.984375q-0.03125 0.625 -0.109375 1.375l-0.09375 0.765625l-0.78125 0l-0.09375 -0.765625q-0.078125 -0.71875 -0.125 -1.359375q-0.03125 -0.640625 -0.03125 -2.0l1.28125 0zm8.84375 12.062508l-4.59375 0l0 -0.90625l3.5625 0l0 -10.281258l-3.546875 0l0 -0.953125l4.578125 0l0 12.140633z" fill-rule="nonzero"/><path fill="#000000" d="m344.5032 152.1664l0 -12.140625l4.578125 0l0 0.953125l-3.546875 0l0 10.28125l3.5625 0l0 0.90625l-4.59375 0zm10.828125 -6.703125q0.890625 0.296875 1.390625 0.9375q0.515625 0.625 0.515625 1.609375q0 0.796875 -0.359375 1.46875q-0.34375 0.65625 -1.015625 1.046875q-0.671875 0.390625 -1.609375 0.390625q-0.796875 0 -1.515625 -0.28125q-0.71875 -0.296875 -1.21875 -0.84375l0.734375 -0.890625l0.015625 -0.015625l0.015625 0.015625q0.390625 0.515625 0.8125 0.796875q0.4375 0.265625 1.109375 0.265625q0.921875 0 1.40625 -0.546875q0.484375 -0.546875 0.484375 -1.453125q0 -1.0 -0.609375 -1.484375q-0.59375 -0.5 -1.6875 -0.5q-0.15625 0 -0.515625 0.03125l0 -0.890625q1.421875 0 1.9375 -0.53125q0.53125 -0.53125 0.53125 -1.4375q0 -0.671875 -0.390625 -1.078125q-0.390625 -0.40625 -1.03125 -0.40625q-1.046875 0 -1.828125 0.734375l-0.671875 -0.671875q0.984375 -1.015625 2.484375 -1.015625q1.203125 0 1.890625 0.6875q0.703125 0.671875 0.703125 1.796875q0 0.8125 -0.40625 1.421875q-0.390625 0.609375 -1.171875 0.84375zm-2.890625 3.390625q0 0.046875 -0.046875 0.046875q-0.046875 -0.015625 -0.09375 -0.046875l0.0625 -0.078125l0.078125 0.078125zm-0.171875 0.03125q-0.0625 -0.109375 -0.03125 -0.078125q0.046875 0.03125 0.0625 0.046875l-0.03125 0.03125zm8.7812805 4.0625q0.453125 -0.40625 0.75 -0.890625q0.296875 -0.484375 0.296875 -0.78125q0 -0.140625 -0.09375 -0.25q-0.078125 -0.09375 -0.28125 -0.28125q-0.21875 -0.203125 -0.34375 -0.34375q-0.109375 -0.15625 -0.109375 -0.359375q0 -0.40625 0.265625 -0.671875q0.265625 -0.265625 0.6875 -0.265625q0.421875 0 0.75 0.375q0.328125 0.375 0.328125 0.953125q0 1.234375 -1.703125 3.0l-0.546875 -0.484375zm16.796906 -12.84375q0 1.34375 -0.046875 1.984375q-0.03125 0.625 -0.109375 1.375l-0.09375 0.765625l-0.78125 0l-0.09375 -0.765625q-0.078125 -0.71875 -0.125 -1.359375q-0.03125 -0.640625 -0.03125 -2.0l1.28125 0zm2.40625 0q0 1.34375 -0.046875 1.984375q-0.03125 0.625 -0.109375 1.375l-0.09375 0.765625l-0.78125 0l-0.09375 -0.765625q-0.078125 -0.71875 -0.125 -1.359375q-0.03125 -0.640625 -0.03125 -2.0l1.28125 0zm6.40625 10.8125q-0.65625 0 -1.21875 -0.296875q-0.546875 -0.296875 -0.9375 -0.828125l-0.390625 0.953125l-0.75 0l0 -10.640625l1.3125 0l0 0.109375q-0.09375 0.09375 -0.125 0.21875q-0.015625 0.109375 -0.015625 0.375l0 3.75q0.359375 -0.59375 0.953125 -0.9375q0.609375 -0.359375 1.21875 -0.359375q1.390625 0 2.203125 0.96875q0.8125 0.953125 0.8125 2.78125q0 1.25 -0.4375 2.140625q-0.421875 0.890625 -1.125 1.328125q-0.703125 0.4375 -1.5 0.4375zm-0.140625 -1.015625q0.859375 0 1.4375 -0.671875q0.578125 -0.6875 0.578125 -2.140625q0 -1.421875 -0.53125 -2.125q-0.53125 -0.71875 -1.453125 -0.71875q-0.890625 0 -1.453125 0.8125q-0.5625 0.796875 -0.5625 2.0625q0 2.78125 1.984375 2.78125zm7.8906555 0.96875q-0.96875 0 -1.75 -0.46875q-0.765625 -0.484375 -1.203125 -1.34375q-0.421875 -0.875 -0.421875 -1.96875q0 -1.109375 0.421875 -1.96875q0.4375 -0.875 1.203125 -1.359375q0.78125 -0.484375 1.75 -0.484375q0.96875 0 1.734375 0.484375q0.78125 0.484375 1.203125 1.359375q0.4375 0.859375 0.4375 1.96875q0 1.09375 -0.4375 1.96875q-0.421875 0.859375 -1.203125 1.34375q-0.765625 0.46875 -1.734375 0.46875zm0 -0.953125q0.625 0 1.109375 -0.359375q0.484375 -0.375 0.765625 -1.015625q0.28125 -0.65625 0.28125 -1.484375q0 -1.234375 -0.609375 -2.03125q-0.609375 -0.796875 -1.546875 -0.796875q-0.9375 0 -1.546875 0.796875q-0.609375 0.796875 -0.609375 2.03125q0 0.828125 0.28125 1.484375q0.28125 0.640625 0.765625 1.015625q0.484375 0.359375 1.109375 0.359375zm8.25 1.0q-0.65625 0 -1.21875 -0.296875q-0.546875 -0.296875 -0.9375 -0.828125l-0.390625 0.953125l-0.75 0l0 -10.640625l1.3125 0l0 0.109375q-0.09375 0.09375 -0.125 0.21875q-0.015625 0.109375 -0.015625 0.375l0 3.75q0.359375 -0.59375 0.953125 -0.9375q0.609375 -0.359375 1.21875 -0.359375q1.390625 0 2.203125 0.96875q0.8125 0.953125 0.8125 2.78125q0 1.25 -0.4375 2.140625q-0.421875 0.890625 -1.125 1.328125q-0.703125 0.4375 -1.5 0.4375zm-0.140625 -1.015625q0.859375 0 1.4375 -0.671875q0.578125 -0.6875 0.578125 -2.140625q0 -1.421875 -0.53125 -2.125q-0.53125 -0.71875 -1.453125 -0.71875q-0.890625 0 -1.453125 0.8125q-0.5625 0.796875 -0.5625 2.0625q0 2.78125 1.984375 2.78125zm7.3281555 -9.796875q0 1.34375 -0.046875 1.984375q-0.03125 0.625 -0.109375 1.375l-0.09375 0.765625l-0.78125 0l-0.09375 -0.765625q-0.078125 -0.71875 -0.125 -1.359375q-0.03125 -0.640625 -0.03125 -2.0l1.28125 0zm2.40625 0q0 1.34375 -0.046875 1.984375q-0.03125 0.625 -0.109375 1.375l-0.09375 0.765625l-0.78125 0l-0.09375 -0.765625q-0.078125 -0.71875 -0.125 -1.359375q-0.03125 -0.640625 -0.03125 -2.0l1.28125 0zm8.84375 12.0625l-4.59375 0l0 -0.90625l3.5625 0l0 -10.28125l-3.546875 0l0 -0.953125l4.578125 0l0 12.140625z" fill-rule="nonzero"/></g></svg>