<svg version="1.1" viewBox="0.0 0.0 285.4435695538058 345.79002624671915" fill="none" stroke="none" stroke-linecap="square" stroke-miterlimit="10" xmlns:xlink="http://www.w3.org/1999/xlink" xmlns="http://www.w3.org/2000/svg"><clipPath id="p.0"><path d="m0 0l285.44357 0l0 345.79004l-285.44357 0l0 -345.79004z" clip-rule="nonzero"/></clipPath><g clip-path="url(#p.0)"><path fill="#000000" fill-opacity="0.0" d="m0 0l285.44357 0l0 345.79004l-285.44357 0z" fill-rule="evenodd"/><path fill="#ffd966" d="m5.3779526 135.5853l0 0c0 -17.020805 13.79809 -30.818893 30.818897 -30.818893l0 0c8.173679 0 16.012589 3.2469864 21.792252 9.026649c5.779663 5.779663 9.026646 13.618568 9.026646 21.792244l0 0c0 17.020813 -13.798088 30.818909 -30.818897 30.818909l0 0c-17.020807 0 -30.818897 -13.798096 -30.818897 -30.818909z" fill-rule="evenodd"/><path stroke="#f1c232" stroke-width="1.0" stroke-linejoin="round" stroke-linecap="butt" d="m5.3779526 135.5853l0 0c0 -17.020805 13.79809 -30.818893 30.818897 -30.818893l0 0c8.173679 0 16.012589 3.2469864 21.792252 9.026649c5.779663 5.779663 9.026646 13.618568 9.026646 21.792244l0 0c0 17.020813 -13.798088 30.818909 -30.818897 30.818909l0 0c-17.020807 0 -30.818897 -13.798096 -30.818897 -30.818909z" fill-rule="evenodd"/><path fill="#000000" d="m31.426006 141.89592q0.640625 -0.03125 0.921875 -0.296875q0.28125 -0.28125 0.3125 -0.6875q0.046875 -0.40625 0.046875 -1.40625l0 -7.84375q0 -1.0 0.0625 -1.46875l-1.34375 0.078125l0 -0.828125q2.71875 -0.03125 4.21875 -0.03125q2.1875 0 3.375 0.78125q1.1875 0.765625 1.1875 2.328125q0 1.015625 -0.796875 1.859375q-0.78125 0.84375 -2.28125 1.109375l0 0.03125q2.0 0 3.0625 0.921875q1.078125 0.90625 1.078125 2.40625q0 1.125 -0.578125 1.953125q-0.5625 0.828125 -1.5625 1.265625q-0.984375 0.4375 -2.265625 0.4375l-5.4375 0l0 -0.609375zm4.265625 -6.578125q1.46875 -0.015625 2.140625 -0.796875q0.671875 -0.796875 0.671875 -1.953125q0 -1.40625 -0.8125 -1.9375q-0.796875 -0.546875 -1.96875 -0.546875q-0.59375 0 -0.890625 0.171875q-0.296875 0.15625 -0.40625 0.53125q-0.09375 0.375 -0.09375 1.109375l0 3.46875l1.359375 -0.046875zm0.5625 6.484375q1.46875 0 2.328125 -0.734375q0.875 -0.75 0.875 -2.109375q0 -1.578125 -0.890625 -2.25q-0.875 -0.671875 -2.3125 -0.671875q-1.03125 0 -1.921875 0.046875l0 4.21875q0 0.96875 -0.0625 1.453125q0.359375 0.046875 1.34375 0.046875l0.640625 0z" fill-rule="nonzero"/><path fill="#f6b26b" d="m214.59842 135.5853l0 0c0 -17.020805 13.798096 -30.818893 30.818909 -30.818893l0 0c8.173676 0 16.012573 3.2469864 21.792236 9.026649c5.779663 5.779663 9.026642 13.618568 9.026642 21.792244l0 0c0 17.020813 -13.798065 30.818909 -30.818878 30.818909l0 0c-17.020813 0 -30.818909 -13.798096 -30.818909 -30.818909z" fill-rule="evenodd"/><path stroke="#e69138" stroke-width="1.0" stroke-linejoin="round" stroke-linecap="butt" d="m214.59842 135.5853l0 0c0 -17.020805 13.798096 -30.818893 30.818909 -30.818893l0 0c8.173676 0 16.012573 3.2469864 21.792236 9.026649c5.779663 5.779663 9.026642 13.618568 9.026642 21.792244l0 0c0 17.020813 -13.798065 30.818909 -30.818878 30.818909l0 0c-17.020813 0 -30.818909 -13.798096 -30.818909 -30.818909z" fill-rule="evenodd"/><path fill="#000000" d="m246.10008 142.80217q-1.828125 0 -3.28125 -0.875q-1.4375 -0.875 -2.25 -2.390625q-0.8125 -1.515625 -0.8125 -3.359375q0 -1.828125 0.734375 -3.421875q0.734375 -1.609375 2.203125 -2.609375q1.46875 -1.0 3.53125 -1.0q2.0625 0 3.765625 1.140625l-0.09375 -1.015625l1.015625 0l0 4.328125l-0.671875 0q-0.1875 -1.734375 -1.234375 -2.703125q-1.03125 -0.984375 -2.640625 -0.984375q-1.328125 0 -2.421875 0.734375q-1.09375 0.734375 -1.734375 2.109375q-0.625 1.359375 -0.625 3.140625q0 1.71875 0.671875 3.078125q0.671875 1.34375 1.8125 2.109375q1.140625 0.75 2.515625 0.75q1.25 0 2.40625 -0.5625q1.15625 -0.5625 1.90625 -1.578125l0.484375 0.390625q-1.078125 1.5 -2.484375 2.109375q-1.40625 0.609375 -2.796875 0.609375z" fill-rule="nonzero"/><path fill="#000000" fill-opacity="0.0" d="m171.49213 39.031498c36.960632 0 73.921265 32.86614 73.921265 65.732285" fill-rule="evenodd"/><path stroke="#000000" stroke-width="1.0" stroke-linejoin="round" stroke-linecap="butt" d="m171.49213 39.031498c18.480316 0 36.960632 8.216534 50.82086 20.541336c6.9301147 6.162403 12.705215 13.3518715 16.747787 21.054874c2.021286 3.8515015 3.609436 7.8313828 4.6922607 11.875458c0.54141235 2.0220337 0.95651245 4.0601196 1.2362366 6.1062393l0.021560669 0.16790009" fill-rule="evenodd"/><path fill="#000000" stroke="#000000" stroke-width="1.0" stroke-linecap="butt" d="m243.36282 98.88812l1.9524841 4.4170456l1.3435364 -4.638687z" fill-rule="evenodd"/><path fill="#000000" fill-opacity="0.0" d="m36.19685 104.7664c0 -32.866142 36.834644 -65.732285 73.6693 -65.732285" fill-rule="evenodd"/><path stroke="#000000" stroke-width="1.0" stroke-linejoin="round" stroke-linecap="butt" d="m36.59805 98.77984l0.021465302 -0.16780853c0.27877808 -2.0461197 0.69244766 -4.0842056 1.2320175 -6.1062393c1.0791397 -4.044075 2.6618767 -8.023956 4.6762733 -11.875458c4.0287895 -7.703003 9.784203 -14.892471 16.690697 -21.054874c13.812992 -12.324802 32.23032 -20.541336 50.64764 -20.541336" fill-rule="evenodd"/><path fill="#000000" stroke="#000000" stroke-width="1.0" stroke-linecap="butt" d="m34.950012 98.66939l1.3445892 4.6383896l1.9514809 -4.4175034z" fill-rule="evenodd"/><path fill="#b4a7d6" d="m109.855644 301.53806l0 0c0 -17.020813 13.798088 -30.818909 30.818901 -30.818909l0 0c8.173676 0 16.012589 3.2470093 21.792252 9.026672c5.779663 5.779663 9.026642 13.618561 9.026642 21.792236l0 0c0 17.020813 -13.798096 30.818909 -30.818893 30.818909l0 0c-17.020813 0 -30.818901 -13.798096 -30.818901 -30.818909z" fill-rule="evenodd"/><path stroke="#8e7cc3" stroke-width="1.0" stroke-linejoin="round" stroke-linecap="butt" d="m109.855644 301.53806l0 0c0 -17.020813 13.798088 -30.818909 30.818901 -30.818909l0 0c8.173676 0 16.012589 3.2470093 21.792252 9.026672c5.779663 5.779663 9.026642 13.618561 9.026642 21.792236l0 0c0 17.020813 -13.798096 30.818909 -30.818893 30.818909l0 0c-17.020813 0 -30.818901 -13.798096 -30.818901 -30.818909z" fill-rule="evenodd"/><path fill="#000000" d="m134.75633 307.8487q0.640625 -0.03125 0.921875 -0.296875q0.28125 -0.28125 0.3125 -0.65625q0.046875 -0.390625 0.046875 -1.34375l0 -8.0625q0 -0.78125 0.0625 -1.34375l-1.34375 0.078125l0 -0.828125l4.390625 -0.015625q3.515625 -0.015625 5.5625 1.640625q2.0625 1.65625 2.0625 4.921875q0 1.765625 -0.828125 3.265625q-0.8125 1.484375 -2.421875 2.375q-1.609375 0.875 -3.859375 0.875l-4.90625 0l0 -0.609375zm4.84375 -0.09375q1.5625 0 2.78125 -0.765625q1.21875 -0.765625 1.890625 -2.109375q0.671875 -1.34375 0.671875 -3.0q0 -2.734375 -1.5 -4.265625q-1.484375 -1.546875 -4.5 -1.546875q-0.640625 0 -0.921875 0.265625q-0.28125 0.265625 -0.328125 0.65625q-0.03125 0.375 -0.03125 1.3125l0 7.953125q0 0.96875 -0.0625 1.453125q0.65625 0.046875 2.0 0.046875z" fill-rule="nonzero"/><path fill="#000000" fill-opacity="0.0" d="m36.19685 166.4042c0 26.078735 26.11811 39.118103 52.236217 52.15747c26.11811 13.039368 52.23623 26.07875 52.23623 52.15747" fill-rule="evenodd"/><path stroke="#000000" stroke-width="1.0" stroke-linejoin="round" stroke-linecap="butt" d="m36.19685 166.4042c0 26.078735 26.11811 39.118103 52.236217 52.15747c13.059059 6.519684 26.11811 13.039368 35.912407 21.18898c4.8971405 4.0747986 8.978104 8.557083 11.834763 13.650589c1.4283447 2.546753 2.5505981 5.2463074 3.3157806 8.1241455c0.19129944 0.7194519 0.36027527 1.4500427 0.50613403 2.1921997c0.036453247 0.18551636 0.07148743 0.37179565 0.10505676 0.55874634l0.079055786 0.4623108" fill-rule="evenodd"/><path fill="#000000" stroke="#000000" stroke-width="1.0" stroke-linecap="butt" d="m138.53989 264.8716l2.0117188 4.390381l1.2810211 -4.6563416z" fill-rule="evenodd"/><path fill="#9fc5e8" d="m109.85433 39.031498l0 0c0 -17.02081 13.798088 -30.8189 30.818901 -30.8189l0 0c8.173676 0 16.012589 3.2469816 21.792252 9.026646c5.779663 5.779665 9.026642 13.618572 9.026642 21.792253l0 0c0 17.020805 -13.798096 30.818897 -30.818893 30.818897l0 0c-17.020813 0 -30.818901 -13.798092 -30.818901 -30.818897z" fill-rule="evenodd"/><path stroke="#6fa8dc" stroke-width="1.0" stroke-linejoin="round" stroke-linecap="butt" d="m109.85433 39.031498l0 0c0 -17.02081 13.798088 -30.8189 30.818901 -30.8189l0 0c8.173676 0 16.012589 3.2469816 21.792252 9.026646c5.779663 5.779665 9.026642 13.618572 9.026642 21.792253l0 0c0 17.020805 -13.798096 30.818897 -30.818893 30.818897l0 0c-17.020813 0 -30.818901 -13.798092 -30.818901 -30.818897z" fill-rule="evenodd"/><path fill="#000000" d="m134.72444 45.34212q0.46875 0 0.75 -0.21875q0.28125 -0.21875 0.453125 -0.5625q0.171875 -0.34375 0.421875 -1.03125l0.1875 -0.53125l3.84375 -10.453125l0.4375 0l4.171875 10.609375q0.203125 0.5 0.34375 1.09375q0.15625 0.578125 0.140625 0.953125l1.265625 -0.078125l0 0.828125l-4.28125 0l0 -0.609375q1.109375 -0.03125 1.109375 -0.90625q0 -0.34375 -0.1875 -0.875l-0.65625 -1.75l-4.84375 0.109375q-0.28125 0.765625 -0.65625 2.0q-0.1875 0.609375 -0.46875 1.28125l1.453125 -0.078125l0 0.828125l-3.484375 0l0 -0.609375zm7.734375 -4.21875l-1.3125 -3.5625l-0.84375 -2.296875l-0.046875 0l-0.78125 2.109375l-1.0 2.828125l-0.3125 0.921875l4.296875 0z" fill-rule="nonzero"/><path fill="#000000" fill-opacity="0.0" d="m46.010498 158.50656l45.70079 0l0 40.692917l-45.70079 0z" fill-rule="evenodd"/><path fill="#1155cc" d="m59.697998 185.62968q-1.859375 0 -2.8125 -1.09375q-0.9375 -1.109375 -0.9375 -3.125l0 -7.609375l1.453125 0l0 0.125q-0.109375 0.125 -0.140625 0.25q-0.03125 0.125 -0.03125 0.453125l0 6.796875q0 1.5 0.578125 2.3125q0.578125 0.796875 1.90625 0.796875q1.34375 0 1.921875 -0.796875q0.59375 -0.8125 0.59375 -2.359375l0 -7.578125l1.25 0l0 7.5625q0 2.140625 -1.0 3.203125q-1.0 1.0625 -2.78125 1.0625z" fill-rule="nonzero"/><path fill="#1155cc" d="m67.073 192.42656l0 -3.0625l-2.390625 -4.6875l1.0 0l1.90625 3.75l1.71875 -3.75l0.921875 0l-2.203125 4.6875l0 3.0625l-0.953125 0z" fill-rule="nonzero"/><path fill="#000000" fill-opacity="0.0" d="m245.14174 166.4042c0 26.078735 -26.118118 39.118103 -52.23622 52.15747c-26.118118 13.039368 -52.23622 26.07875 -52.23622 52.15747" fill-rule="evenodd"/><path stroke="#000000" stroke-width="1.0" stroke-linejoin="round" stroke-linecap="butt" d="m245.14174 166.4042c0 26.078735 -26.118118 39.118103 -52.23622 52.15747c-13.059067 6.519684 -26.118118 13.039368 -35.912415 21.18898c-4.8971405 4.0747986 -8.978088 8.557083 -11.834763 13.650589c-1.4283295 2.546753 -2.5505981 5.2463074 -3.3157806 8.1241455c-0.19129944 0.7194519 -0.36026 1.4500427 -0.50613403 2.1921997c-0.036453247 0.18551636 -0.07147217 0.37179565 -0.105041504 0.55874634l-0.079055786 0.4623108" fill-rule="evenodd"/><path fill="#000000" stroke="#000000" stroke-width="1.0" stroke-linecap="butt" d="m139.50595 264.60565l1.2810364 4.6563416l2.0117035 -4.390381z" fill-rule="evenodd"/><path fill="#000000" fill-opacity="0.0" d="m76.43044 179.44357l45.70079 0l0 40.692917l-45.70079 0z" fill-rule="evenodd"/><path fill="#38761d" d="m86.52419 194.73857l3.734375 0q1.84375 0 2.75 0.921875q0.921875 0.90625 0.921875 2.359375q0 1.4375 -0.890625 2.328125q-0.890625 0.890625 -2.6875 0.890625l-2.484375 0l0 5.125l-1.34375 0l0 -11.625zm3.6875 5.34375q1.21875 0 1.796875 -0.53125q0.578125 -0.53125 0.578125 -1.484375q0 -0.921875 -0.59375 -1.5q-0.59375 -0.59375 -1.765625 -0.59375l-2.359375 0l0 4.109375l2.34375 0z" fill-rule="nonzero"/><path fill="#38761d" d="m98.46169 209.08232q1.109375 0.46875 1.53125 0.953125q0.421875 0.484375 0.421875 1.21875q0 0.5625 -0.28125 1.078125q-0.28125 0.515625 -0.859375 0.84375q-0.578125 0.3125 -1.4375 0.3125q-1.515625 0 -2.4375 -0.984375l0.453125 -0.78125l0 -0.015625q0.015625 0 0.015625 0.015625q0 0 0 0q0.328125 0.453125 0.859375 0.71875q0.53125 0.265625 1.234375 0.265625q0.671875 0 1.125 -0.390625q0.46875 -0.390625 0.46875 -0.9375q0 -0.359375 -0.140625 -0.59375q-0.140625 -0.25 -0.515625 -0.484375q-0.375 -0.25 -1.125 -0.5625q-1.140625 -0.453125 -1.640625 -1.015625q-0.484375 -0.578125 -0.484375 -1.296875q0 -0.859375 0.640625 -1.375q0.640625 -0.53125 1.734375 -0.53125q0.625 0 1.171875 0.25q0.5625 0.25 0.96875 0.71875l-0.484375 0.640625l-0.015625 0.015625q-0.359375 -0.515625 -0.765625 -0.703125q-0.40625 -0.203125 -1.015625 -0.203125q-0.59375 0 -0.96875 0.328125q-0.359375 0.328125 -0.359375 0.796875q0 0.359375 0.15625 0.640625q0.15625 0.265625 0.5625 0.515625q0.40625 0.25 1.1875 0.5625zm1.078125 -1.90625q0 -0.046875 0.046875 -0.015625q0.046875 0.015625 0.0625 0.015625l-0.046875 0.0625l-0.0625 -0.0625l0 0zm0.125 -0.03125q0.078125 0.09375 0.03125 0.0625q-0.03125 -0.03125 -0.046875 -0.03125l0.015625 -0.03125zm-3.671875 4.53125q0 0.03125 -0.0625 0.015625q-0.046875 -0.03125 -0.046875 -0.03125l0.015625 -0.046875l0.09375 0.046875l0 0.015625zm-0.140625 0.03125q-0.078125 -0.09375 0.03125 -0.046875l-0.03125 0.046875z" fill-rule="nonzero"/><path fill="#000000" fill-opacity="0.0" d="m109.855644 201.88715l45.700783 0l0 40.6929l-45.700783 0z" fill-rule="evenodd"/><path fill="#351c75" d="m123.543144 229.01027q-1.859375 0 -2.8125 -1.09375q-0.9375 -1.109375 -0.9375 -3.125l0 -7.609375l1.453125 0l0 0.125q-0.109375 0.125 -0.140625 0.25q-0.03125 0.125 -0.03125 0.453125l0 6.796875q0 1.5 0.578125 2.3125q0.578125 0.796875 1.90625 0.796875q1.34375 0 1.921875 -0.796875q0.59375 -0.8125 0.59375 -2.359375l0 -7.578125l1.25 0l0 7.5625q0 2.140625 -1.0 3.203125q-1.0 1.0625 -2.78125 1.0625z" fill-rule="nonzero"/><path fill="#351c75" d="m128.69939 235.80714l2.109375 -3.953125l-2.078125 -3.8125l0.9375 0l1.625 2.953125l1.609375 -2.953125l0.859375 0l-1.953125 3.796875l2.203125 3.96875l-0.984375 0l-1.71875 -3.078125l-1.671875 3.078125l-0.9375 0z" fill-rule="nonzero"/><path fill="#000000" fill-opacity="0.0" d="m182.0105 6.5065618l45.70079 0l0 40.692913l-45.70079 0z" fill-rule="evenodd"/><path fill="#1155cc" d="m195.698 33.629684q-1.859375 0 -2.8125 -1.09375q-0.9375 -1.109375 -0.9375 -3.125l0 -7.609375l1.453125 0l0 0.125q-0.109375 0.125 -0.140625 0.25q-0.03125 0.125 -0.03125 0.453125l0 6.796875q0 1.5 0.578125 2.3125q0.578125 0.796875 1.90625 0.796875q1.34375 0 1.921875 -0.796875q0.59375 -0.8125 0.59375 -2.359375l0 -7.578125l1.25 0l0 7.5625q0 2.140625 -1.0 3.203125q-1.0 1.0625 -2.78125 1.0625z" fill-rule="nonzero"/><path fill="#1155cc" d="m203.073 40.42656l0 -3.0625l-2.390625 -4.6875l1.0 0l1.90625 3.75l1.71875 -3.75l0.921875 0l-2.203125 4.6875l0 3.0625l-0.953125 0z" fill-rule="nonzero"/><path fill="#000000" fill-opacity="0.0" d="m220.43045 23.986877l45.700775 0l0 40.69291l-45.700775 0z" fill-rule="evenodd"/><path fill="#38761d" d="m230.5242 39.281876l3.734375 0q1.84375 0 2.75 0.921875q0.921875 0.90625 0.921875 2.359375q0 1.4375 -0.890625 2.328125q-0.890625 0.890625 -2.6875 0.890625l-2.484375 0l0 5.125l-1.34375 0l0 -11.625zm3.6875 5.34375q1.21875 0 1.796875 -0.53125q0.578125 -0.53125 0.578125 -1.484375q0 -0.921875 -0.59375 -1.5q-0.59375 -0.59375 -1.765625 -0.59375l-2.359375 0l0 4.109375l2.34375 0z" fill-rule="nonzero"/><path fill="#38761d" d="m242.4617 53.625626q1.109375 0.46875 1.53125 0.953125q0.421875 0.484375 0.421875 1.21875q0 0.5625 -0.28125 1.078125q-0.28125 0.515625 -0.859375 0.84375q-0.578125 0.3125 -1.4375 0.3125q-1.515625 0 -2.4375 -0.984375l0.453125 -0.78125l0 -0.015625q0.015625 0 0.015625 0.015625q0 0 0 0q0.328125 0.453125 0.859375 0.71875q0.53125 0.265625 1.234375 0.265625q0.671875 0 1.125 -0.390625q0.46875 -0.390625 0.46875 -0.9375q0 -0.359375 -0.140625 -0.59375q-0.140625 -0.25 -0.515625 -0.484375q-0.375 -0.25 -1.125 -0.5625q-1.140625 -0.453125 -1.640625 -1.015625q-0.484375 -0.578125 -0.484375 -1.296875q0 -0.859375 0.640625 -1.375q0.640625 -0.53125 1.734375 -0.53125q0.625 0 1.171875 0.25q0.5625 0.25 0.96875 0.71875l-0.484375 0.640625l-0.015625 0.015625q-0.359375 -0.515625 -0.765625 -0.703125q-0.40625 -0.203125 -1.015625 -0.203125q-0.59375 0 -0.96875 0.328125q-0.359375 0.328125 -0.359375 0.796875q0 0.359375 0.15625 0.640625q0.15625 0.265625 0.5625 0.515625q0.40625 0.25 1.1875 0.5625zm1.078125 -1.90625q0 -0.046875 0.046875 -0.015625q0.046875 0.015625 0.0625 0.015625l-0.046875 0.0625l-0.0625 -0.0625l0 0zm0.125 -0.03125q0.078125 0.09375 0.03125 0.0625q-0.03125 -0.03125 -0.046875 -0.03125l0.015625 -0.03125zm-3.671875 4.53125q0 0.03125 -0.0625 0.015625q-0.046875 -0.03125 -0.046875 -0.03125l0.015625 -0.046875l0.09375 0.046875l0 0.015625zm-0.140625 0.03125q-0.078125 -0.09375 0.03125 -0.046875l-0.03125 0.046875z" fill-rule="nonzero"/><path fill="#000000" fill-opacity="0.0" d="m235.71129 56.72966l45.70079 0l0 40.69291l-45.70079 0z" fill-rule="evenodd"/><path fill="#351c75" d="m249.39879 83.85278q-1.859375 0 -2.8125 -1.09375q-0.9375 -1.109375 -0.9375 -3.125l0 -7.609375l1.453125 0l0 0.125q-0.109375 0.125 -0.140625 0.25q-0.03125 0.125 -0.03125 0.453125l0 6.796875q0 1.5 0.578125 2.3125q0.578125 0.796875 1.90625 0.796875q1.34375 0 1.921875 -0.796875q0.59375 -0.8125 0.59375 -2.359375l0 -7.578125l1.25 0l0 7.5625q0 2.140625 -1.0 3.203125q-1.0 1.0625 -2.78125 1.0625z" fill-rule="nonzero"/><path fill="#351c75" d="m254.55504 90.64966l2.1093597 -3.953125l-2.0781097 -3.8125l0.9375 0l1.6249847 2.953125l1.609375 -2.953125l0.859375 0l-1.953125 3.796875l2.203125 3.96875l-0.984375 0l-1.71875 -3.078125l-1.6718597 3.078125l-0.9375 0z" fill-rule="nonzero"/><path fill="#000000" fill-opacity="0.0" d="m26.543306 245.34908l214.23622 -228.56693" fill-rule="evenodd"/><path stroke="#b7b7b7" stroke-width="1.0" stroke-linejoin="round" stroke-linecap="butt" stroke-dasharray="8.0,3.0" d="m26.543306 245.34908l214.23622 -228.56693" fill-rule="evenodd"/></g></svg>