<?xml version="1.0" standalone="yes"?>

<svg version="1.1" viewBox="0.0 0.0 632.3622047244095 701.1233595800525" fill="none" stroke="none" stroke-linecap="square" stroke-miterlimit="10" xmlns="http://www.w3.org/2000/svg" xmlns:xlink="http://www.w3.org/1999/xlink"><clipPath id="p.0"><path d="m0 0l632.3622 0l0 701.12335l-632.3622 0l0 -701.12335z" clip-rule="nonzero"></path></clipPath><g clip-path="url(#p.0)"><path fill="#000000" fill-opacity="0.0" d="m0 0l632.3622 0l0 701.12335l-632.3622 0z" fill-rule="evenodd"></path><path fill="#cfe2f3" d="m7.296588 349.13647l0 0c0 -41.817078 33.89945 -75.71652 75.71654 -75.71652l0 0c20.081276 0 39.340073 7.9772644 53.539673 22.17685c14.1996155 14.1996155 22.176865 33.458405 22.176865 53.539673l0 0c0 41.81711 -33.899452 75.71655 -75.71654 75.71655l0 0c-41.817085 0 -75.71654 -33.899445 -75.71654 -75.71655z" fill-rule="evenodd"></path><path stroke="#6fa8dc" stroke-width="1.0" stroke-linejoin="round" stroke-linecap="butt" d="m7.296588 349.13647l0 0c0 -41.817078 33.89945 -75.71652 75.71654 -75.71652l0 0c20.081276 0 39.340073 7.9772644 53.539673 22.17685c14.1996155 14.1996155 22.176865 33.458405 22.176865 53.539673l0 0c0 41.81711 -33.899452 75.71655 -75.71654 75.71655l0 0c-41.817085 0 -75.71654 -33.899445 -75.71654 -75.71655z" fill-rule="evenodd"></path><path fill="#000000" d="m39.504696 355.4471q0.640625 -0.03125 0.921875 -0.296875q0.28125 -0.28125 0.3125 -0.65625q0.046875 -0.390625 0.046875 -1.34375l0 -8.0625q0 -0.78125 0.0625 -1.34375l-1.34375 0.078125l0 -0.828125l4.390625 -0.015625q3.515625 -0.015625 5.5625 1.640625q2.0625 1.65625 2.0625 4.921875q0 1.765625 -0.828125 3.265625q-0.8125 1.484375 -2.421875 2.375q-1.609375 0.875 -3.859375 0.875l-4.90625 0l0 -0.609375zm4.84375 -0.09375q1.5625 0 2.78125 -0.765625q1.21875 -0.765625 1.890625 -2.109375q0.671875 -1.34375 0.671875 -3.0q0 -2.734375 -1.5 -4.265625q-1.484375 -1.546875 -4.5 -1.546875q-0.640625 0 -0.921875 0.265625q-0.28125 0.265625 -0.328125 0.65625q-0.03125 0.375 -0.03125 1.3125l0 7.953125q0 0.96875 -0.0625 1.453125q0.65625 0.046875 2.0 0.046875zm13.4770355 1.0q-1.296875 0 -2.375 -0.609375q-1.0625 -0.609375 -1.6875 -1.6875q-0.625 -1.078125 -0.625 -2.4375q0 -1.453125 0.609375 -2.640625q0.625 -1.1875 1.6875 -1.859375q1.078125 -0.6875 2.390625 -0.6875q1.28125 0 2.359375 0.625q1.09375 0.625 1.71875 1.703125q0.625 1.078125 0.625 2.40625q0 1.421875 -0.625 2.625q-0.625 1.1875 -1.703125 1.875q-1.078125 0.6875 -2.375 0.6875zm0.140625 -0.75q1.359375 0 2.0 -1.109375q0.65625 -1.125 0.65625 -2.78125q0 -1.890625 -0.703125 -3.234375q-0.703125 -1.34375 -2.09375 -1.34375q-1.390625 0 -2.09375 1.140625q-0.6875 1.140625 -0.6875 2.796875q0 1.203125 0.328125 2.234375q0.328125 1.03125 0.984375 1.671875q0.65625 0.625 1.609375 0.625zm6.1482887 -0.109375q0.53125 0 0.765625 -0.265625q0.234375 -0.265625 0.28125 -0.6875q0.046875 -0.421875 0.046875 -1.3125l0 -4.265625q0 -0.78125 0.078125 -1.203125l-1.3281288 0.0625l0 -0.78125q1.0937538 0 1.5000038 -0.109375q0.421875 -0.125 0.703125 -0.390625l0.546875 0q0.03125 0.28125 0.0625 0.984375q0.578125 -0.5 1.296875 -0.796875q0.734375 -0.296875 1.453125 -0.296875q0.90625 0 1.546875 0.328125q0.65625 0.328125 1.0 0.921875q0.671875 -0.546875 1.5 -0.890625q0.84375 -0.359375 1.609375 -0.359375q1.640625 0 2.390625 1.0q0.75 1.0 0.71875 3.171875l-0.015625 3.46875q0 0.84375 -0.078125 1.28125l1.171875 -0.0625l0 0.765625l-3.796875 0l0 -0.5625q0.53125 0 0.765625 -0.265625q0.234375 -0.265625 0.28125 -0.6875q0.046875 -0.421875 0.046875 -1.3125l0 -2.625q0 -1.59375 -0.5 -2.390625q-0.5 -0.796875 -1.59375 -0.796875q-0.578125 0 -1.171875 0.25q-0.578125 0.25 -1.03125 0.671875q0.1875 0.578125 0.1875 1.359375l-0.03125 4.375q0 0.84375 -0.078125 1.28125l1.171875 -0.0625l0 0.765625l-3.796875 0l0 -0.5625q0.546875 0 0.765625 -0.265625q0.234375 -0.265625 0.265625 -0.671875q0.046875 -0.40625 0.0625 -1.328125l0.03125 -2.625q0.015625 -1.625 -0.46875 -2.421875q-0.484375 -0.796875 -1.546875 -0.796875q-0.578125 0 -1.15625 0.25q-0.5625 0.234375 -0.984375 0.640625l0.03125 1.015625l0 4.78125q0 0.84375 -0.078125 1.28125l1.171875 -0.0625l0 0.765625l-3.796875 0l0 -0.5625zm19.28807 0.859375q-1.359375 0 -2.078125 -0.609375q-0.71875 -0.625 -0.71875 -1.609375q0 -1.078125 0.859375 -1.828125q0.875 -0.75 2.1875 -1.109375q1.3125 -0.359375 2.640625 -0.34375l0 -1.15625q0 -1.21875 -0.359375 -1.890625q-0.359375 -0.6875 -1.515625 -0.6875q-0.578125 0 -1.109375 0.25q-0.515625 0.234375 -0.75 0.71875q0.234375 0.265625 0.234375 0.71875q0 0.265625 -0.203125 0.53125q-0.203125 0.25 -0.59375 0.25q-0.390625 0 -0.625 -0.25q-0.21875 -0.265625 -0.21875 -0.671875q0 -0.609375 0.46875 -1.125q0.484375 -0.515625 1.328125 -0.8125q0.859375 -0.296875 1.90625 -0.296875q1.5625 0 2.3125 0.828125q0.75 0.828125 0.71875 2.625l-0.015625 4.1875q0 0.609375 -0.078125 1.28125l1.328125 -0.078125l0 0.78125l-2.65625 0q-0.0625 -0.28125 -0.140625 -1.0625q-1.359375 1.359375 -2.921875 1.359375zm0.421875 -1.0625q0.71875 0 1.296875 -0.265625q0.578125 -0.28125 1.171875 -0.828125q-0.015625 -0.28125 -0.015625 -0.953125l0.015625 -1.765625q-1.53125 0.0625 -2.734375 0.640625q-1.1875 0.5625 -1.1875 1.734375q0 0.6875 0.40625 1.0625q0.421875 0.375 1.046875 0.375zm8.439133 -10.59375q-0.390625 0 -0.703125 -0.328125q-0.296875 -0.328125 -0.296875 -0.78125q0 -0.4375 0.3125 -0.765625q0.3125 -0.34375 0.703125 -0.34375q0.421875 0 0.703125 0.328125q0.296875 0.328125 0.296875 0.78125q0 0.453125 -0.3125 0.78125q-0.296875 0.328125 -0.703125 0.328125zm-1.84375 10.796875q0.53125 0 0.765625 -0.265625q0.234375 -0.265625 0.28125 -0.6875q0.046875 -0.421875 0.046875 -1.3125l0 -4.265625q0 -0.53125 0.078125 -1.203125l-1.328125 0.0625l0 -0.78125q1.09375 0 1.5625 -0.125q0.484375 -0.125 0.75 -0.375l0.546875 0l0 7.53125q0 0.84375 -0.078125 1.28125l1.171875 -0.0625l0 0.765625l-3.796875 0l0 -0.5625zm5.242401 0q0.53125 0 0.765625 -0.265625q0.234375 -0.265625 0.265625 -0.671875q0.046875 -0.40625 0.0625 -1.328125l0.015625 -4.265625q0 -0.78125 0.078125 -1.203125l-1.328125 0.0625l0 -0.78125q1.109375 0 1.515625 -0.109375q0.40625 -0.125 0.6875 -0.390625l0.546875 0q0.03125 0.359375 0.0625 1.140625q0.640625 -0.5625 1.453125 -0.90625q0.8125 -0.34375 1.59375 -0.34375q1.625 0 2.359375 1.015625q0.75 1.015625 0.75 3.15625l0 3.46875q0 0.84375 -0.0625 1.28125l1.171875 -0.0625l0 0.765625l-3.8125 0l0 -0.5625q0.546875 0 0.78125 -0.265625q0.234375 -0.265625 0.28125 -0.6875q0.046875 -0.421875 0.046875 -1.3125l0 -2.625q-0.015625 -1.59375 -0.53125 -2.40625q-0.5 -0.8125 -1.578125 -0.8125q-0.671875 0 -1.34375 0.34375q-0.65625 0.328125 -1.078125 0.859375q0.015625 0.21875 0.015625 0.734375l-0.015625 4.75q0 0.84375 -0.078125 1.28125l1.171875 -0.0625l0 0.765625l-3.796875 0l0 -0.5625zm16.262192 0.5625q0 -1.0625 0.375 -1.90625q0.390625 -0.84375 0.953125 -1.484375q0.5625 -0.640625 1.59375 -1.609375q0.734375 -0.671875 0.75 -0.6875q1.203125 -1.140625 1.75 -2.125q0.546875 -1.0 0.546875 -1.921875q0 -1.234375 -0.53125 -2.0625q-0.53125 -0.828125 -1.765625 -0.828125q-0.765625 0 -1.359375 0.375q-0.59375 0.359375 -0.796875 0.9375q0.328125 0.359375 0.328125 0.828125q0 0.3125 -0.234375 0.59375q-0.21875 0.28125 -0.640625 0.28125q-0.40625 0 -0.65625 -0.28125q-0.234375 -0.296875 -0.234375 -0.75q0 -0.578125 0.453125 -1.203125q0.453125 -0.640625 1.34375 -1.078125q0.890625 -0.4375 2.09375 -0.4375q1.6875 0 2.796875 0.8125q1.125 0.8125 1.125 2.5625q0 0.984375 -0.875 2.21875q-0.859375 1.234375 -2.78125 2.796875q-1.3125 1.09375 -2.109375 2.015625q-0.78125 0.90625 -0.90625 1.53125l3.296875 0.09375q0.40625 0.015625 1.125 0.015625q1.015625 0 1.5 -0.25q0.484375 -0.265625 0.484375 -1.046875l0.5625 0l-0.109375 2.609375l-8.078125 0z" fill-rule="nonzero"></path><path fill="#d9ead3" d="m217.59317 90.49606l0 0c0 -41.81709 33.89946 -75.71654 75.71655 -75.71654l0 0c20.081268 0 39.340057 7.977255 53.539673 22.176859c14.199585 14.199604 22.17685 33.4584 22.17685 53.539677l0 0c0 41.817093 -33.899445 75.71654 -75.71652 75.71654l0 0c-41.817093 0 -75.71655 -33.899445 -75.71655 -75.71654z" fill-rule="evenodd"></path><path stroke="#b6d7a8" stroke-width="1.0" stroke-linejoin="round" stroke-linecap="butt" d="m217.59317 90.49606l0 0c0 -41.81709 33.89946 -75.71654 75.71655 -75.71654l0 0c20.081268 0 39.340057 7.977255 53.539673 22.176859c14.199585 14.199604 22.17685 33.4584 22.17685 53.539677l0 0c0 41.817093 -33.899445 75.71654 -75.71652 75.71654l0 0c-41.817093 0 -75.71655 -33.899445 -75.71655 -75.71654z" fill-rule="evenodd"></path><path fill="#000000" d="m249.80128 96.80669q0.640625 -0.03125 0.921875 -0.296875q0.28125 -0.28125 0.3125 -0.65625q0.046875 -0.390625 0.046875 -1.34375l0 -8.0625q0 -0.78125 0.0625 -1.34375l-1.34375 0.078125l0 -0.828125l4.390625 -0.015625q3.5156403 -0.015625 5.5625153 1.640625q2.0625 1.65625 2.0625 4.921875q0 1.765625 -0.828125 3.265625q-0.8125 1.484375 -2.421875 2.375q-1.609375 0.875 -3.8593903 0.875l-4.90625 0l0 -0.609375zm4.84375 -0.09375q1.5625153 0 2.7812653 -0.765625q1.21875 -0.765625 1.890625 -2.109375q0.671875 -1.34375 0.671875 -3.0q0 -2.734375 -1.5 -4.265625q-1.484375 -1.546875 -4.5000153 -1.546875q-0.640625 0 -0.921875 0.265625q-0.28125 0.265625 -0.328125 0.65625q-0.03125 0.375 -0.03125 1.3125l0 7.953125q0 0.96875 -0.0625 1.453125q0.65625 0.046875 2.0 0.046875zm13.4770355 1.0q-1.296875 0 -2.375 -0.609375q-1.0625 -0.609375 -1.6875 -1.6875q-0.625 -1.078125 -0.625 -2.4375q0 -1.453125 0.609375 -2.640625q0.625 -1.1875 1.6875 -1.859375q1.078125 -0.6875 2.390625 -0.6875q1.28125 0 2.359375 0.625q1.09375 0.625 1.71875 1.703125q0.625 1.078125 0.625 2.40625q0 1.421875 -0.625 2.625q-0.625 1.1875 -1.703125 1.875q-1.078125 0.6875 -2.375 0.6875zm0.140625 -0.75q1.359375 0 2.0 -1.109375q0.65625 -1.125 0.65625 -2.78125q0 -1.890625 -0.703125 -3.234375q-0.703125 -1.34375 -2.09375 -1.34375q-1.390625 0 -2.09375 1.140625q-0.6875 1.140625 -0.6875 2.796875q0 1.203125 0.328125 2.234375q0.328125 1.03125 0.984375 1.671875q0.65625 0.625 1.609375 0.625zm6.148285 -0.109375q0.53125 0 0.765625 -0.265625q0.234375 -0.265625 0.28125 -0.6875q0.046875 -0.421875 0.046875 -1.3125l0 -4.265625q0 -0.78125 0.078125 -1.203125l-1.328125 0.0625l0 -0.78125q1.09375 0 1.5 -0.109375q0.421875 -0.125 0.703125 -0.390625l0.546875 0q0.03125 0.28125 0.0625 0.984375q0.578125 -0.5 1.296875 -0.796875q0.734375 -0.296875 1.453125 -0.296875q0.90625 0 1.546875 0.328125q0.65625 0.328125 1.0 0.921875q0.671875 -0.546875 1.5 -0.890625q0.84375 -0.359375 1.609375 -0.359375q1.640625 0 2.390625 1.0q0.75 1.0 0.71875 3.171875l-0.015625 3.46875q0 0.84375 -0.078125 1.28125l1.171875 -0.0625l0 0.765625l-3.796875 0l0 -0.5625q0.53125 0 0.765625 -0.265625q0.234375 -0.265625 0.28125 -0.6875q0.046875 -0.421875 0.046875 -1.3125l0 -2.625q0 -1.59375 -0.5 -2.390625q-0.5 -0.796875 -1.59375 -0.796875q-0.578125 0 -1.171875 0.25q-0.578125 0.25 -1.03125 0.671875q0.1875 0.578125 0.1875 1.359375l-0.03125 4.375q0 0.84375 -0.078125 1.28125l1.171875 -0.0625l0 0.765625l-3.796875 0l0 -0.5625q0.546875 0 0.765625 -0.265625q0.234375 -0.265625 0.265625 -0.671875q0.046875 -0.40625 0.0625 -1.328125l0.03125 -2.625q0.015625 -1.625 -0.46875 -2.421875q-0.484375 -0.796875 -1.546875 -0.796875q-0.578125 0 -1.15625 0.25q-0.5625 0.234375 -0.984375 0.640625l0.03125 1.015625l0 4.78125q0 0.84375 -0.078125 1.28125l1.171875 -0.0625l0 0.765625l-3.796875 0l0 -0.5625zm19.288086 0.859375q-1.359375 0 -2.078125 -0.609375q-0.71875 -0.625 -0.71875 -1.609375q0 -1.078125 0.859375 -1.828125q0.875 -0.75 2.1875 -1.109375q1.3125 -0.359375 2.640625 -0.34375l0 -1.15625q0 -1.21875 -0.359375 -1.890625q-0.359375 -0.6875 -1.515625 -0.6875q-0.578125 0 -1.109375 0.25q-0.515625 0.234375 -0.75 0.71875q0.234375 0.265625 0.234375 0.71875q0 0.265625 -0.203125 0.53125q-0.203125 0.25 -0.59375 0.25q-0.390625 0 -0.625 -0.25q-0.21875 -0.265625 -0.21875 -0.671875q0 -0.609375 0.46875 -1.125q0.484375 -0.515625 1.328125 -0.8125q0.859375 -0.296875 1.90625 -0.296875q1.5625 0 2.3125 0.828125q0.75 0.828125 0.71875 2.625l-0.015625 4.1875q0 0.609375 -0.078125 1.28125l1.328125 -0.078125l0 0.78125l-2.65625 0q-0.0625 -0.28125 -0.140625 -1.0625q-1.359375 1.359375 -2.921875 1.359375zm0.421875 -1.0625q0.71875 0 1.296875 -0.265625q0.578125 -0.28125 1.171875 -0.828125q-0.015625 -0.28125 -0.015625 -0.953125l0.015625 -1.765625q-1.53125 0.0625 -2.734375 0.640625q-1.1875 0.5625 -1.1875 1.734375q0 0.6875 0.40625 1.0625q0.421875 0.375 1.046875 0.375zm8.439117 -10.59375q-0.390625 0 -0.703125 -0.328125q-0.296875 -0.328125 -0.296875 -0.78125q0 -0.4375 0.3125 -0.765625q0.3125 -0.34375 0.703125 -0.34375q0.421875 0 0.703125 0.328125q0.296875 0.328125 0.296875 0.78125q0 0.453125 -0.3125 0.78125q-0.296875 0.328125 -0.703125 0.328125zm-1.84375 10.796875q0.53125 0 0.765625 -0.265625q0.234375 -0.265625 0.28125 -0.6875q0.046875 -0.421875 0.046875 -1.3125l0 -4.265625q0 -0.53125 0.078125 -1.203125l-1.328125 0.0625l0 -0.78125q1.09375 0 1.5625 -0.125q0.484375 -0.125 0.75 -0.375l0.546875 0l0 7.53125q0 0.84375 -0.078125 1.28125l1.171875 -0.0625l0 0.765625l-3.796875 0l0 -0.5625zm5.242401 0q0.53125 0 0.765625 -0.265625q0.234375 -0.265625 0.265625 -0.671875q0.046875 -0.40625 0.0625 -1.328125l0.015625 -4.265625q0 -0.78125 0.078125 -1.203125l-1.328125 0.0625l0 -0.78125q1.109375 0 1.515625 -0.109375q0.40625 -0.125 0.6875 -0.390625l0.546875 0q0.03125 0.359375 0.0625 1.140625q0.640625 -0.5625 1.453125 -0.90625q0.8125 -0.34375 1.59375 -0.34375q1.625 0 2.359375 1.015625q0.75 1.015625 0.75 3.15625l0 3.46875q0 0.84375 -0.0625 1.28125l1.171875 -0.0625l0 0.765625l-3.8125 0l0 -0.5625q0.546875 0 0.78125 -0.265625q0.234375 -0.265625 0.28125 -0.6875q0.046875 -0.421875 0.046875 -1.3125l0 -2.625q-0.015625 -1.59375 -0.53125 -2.40625q-0.5 -0.8125 -1.578125 -0.8125q-0.671875 0 -1.34375 0.34375q-0.65625 0.328125 -1.078125 0.859375q0.015625 0.21875 0.015625 0.734375l-0.015625 4.75q0 0.84375 -0.078125 1.28125l1.171875 -0.0625l0 0.765625l-3.796875 0l0 -0.5625zm16.777832 -0.046875q0.921875 -0.046875 1.265625 -0.5625q0.359375 -0.53125 0.359375 -1.578125l-0.015625 -8.796875l-0.03125 0l-2.25 1.4375l-0.375 -0.546875l3.640625 -2.703125l0.640625 0l0.015625 11.328125q0 0.9375 -0.046875 1.28125l1.5625 -0.078125l0 0.828125l-4.765625 0l0 -0.609375z" fill-rule="nonzero"></path><path fill="#c9daf8" d="m420.58005 349.13647l0 0c0 -41.817078 33.899445 -75.71652 75.71655 -75.71652l0 0c20.081268 0 39.340057 7.9772644 53.539642 22.17685c14.199646 14.1996155 22.17688 33.458405 22.17688 53.539673l0 0c0 41.81711 -33.899475 75.71655 -75.71652 75.71655l0 0c-41.81711 0 -75.71655 -33.899445 -75.71655 -75.71655z" fill-rule="evenodd"></path><path stroke="#a4c2f4" stroke-width="1.0" stroke-linejoin="round" stroke-linecap="butt" d="m420.58005 349.13647l0 0c0 -41.817078 33.899445 -75.71652 75.71655 -75.71652l0 0c20.081268 0 39.340057 7.9772644 53.539642 22.17685c14.199646 14.1996155 22.17688 33.458405 22.17688 53.539673l0 0c0 41.81711 -33.899475 75.71655 -75.71652 75.71655l0 0c-41.81711 0 -75.71655 -33.899445 -75.71655 -75.71655z" fill-rule="evenodd"></path><path fill="#000000" d="m452.78818 355.4471q0.640625 -0.03125 0.921875 -0.296875q0.28125 -0.28125 0.3125 -0.65625q0.046875 -0.390625 0.046875 -1.34375l0 -8.0625q0 -0.78125 0.0625 -1.34375l-1.34375 0.078125l0 -0.828125l4.390625 -0.015625q3.515625 -0.015625 5.5625 1.640625q2.0625 1.65625 2.0625 4.921875q0 1.765625 -0.828125 3.265625q-0.8125 1.484375 -2.421875 2.375q-1.609375 0.875 -3.859375 0.875l-4.90625 0l0 -0.609375zm4.84375 -0.09375q1.5625 0 2.78125 -0.765625q1.21875 -0.765625 1.890625 -2.109375q0.671875 -1.34375 0.671875 -3.0q0 -2.734375 -1.5 -4.265625q-1.484375 -1.546875 -4.5 -1.546875q-0.640625 0 -0.921875 0.265625q-0.28125 0.265625 -0.328125 0.65625q-0.03125 0.375 -0.03125 1.3125l0 7.953125q0 0.96875 -0.0625 1.453125q0.65625 0.046875 2.0 0.046875zm13.47702 1.0q-1.296875 0 -2.375 -0.609375q-1.0625 -0.609375 -1.6875 -1.6875q-0.625 -1.078125 -0.625 -2.4375q0 -1.453125 0.609375 -2.640625q0.625 -1.1875 1.6875 -1.859375q1.078125 -0.6875 2.390625 -0.6875q1.28125 0 2.359375 0.625q1.09375 0.625 1.71875 1.703125q0.625 1.078125 0.625 2.40625q0 1.421875 -0.625 2.625q-0.625 1.1875 -1.703125 1.875q-1.078125 0.6875 -2.375 0.6875zm0.140625 -0.75q1.359375 0 2.0 -1.109375q0.65625 -1.125 0.65625 -2.78125q0 -1.890625 -0.703125 -3.234375q-0.703125 -1.34375 -2.09375 -1.34375q-1.390625 0 -2.09375 1.140625q-0.6875 1.140625 -0.6875 2.796875q0 1.203125 0.328125 2.234375q0.328125 1.03125 0.984375 1.671875q0.65625 0.625 1.609375 0.625zm6.148285 -0.109375q0.53125 0 0.765625 -0.265625q0.234375 -0.265625 0.28125 -0.6875q0.046875 -0.421875 0.046875 -1.3125l0 -4.265625q0 -0.78125 0.078125 -1.203125l-1.328125 0.0625l0 -0.78125q1.09375 0 1.5 -0.109375q0.421875 -0.125 0.703125 -0.390625l0.546875 0q0.03125 0.28125 0.0625 0.984375q0.578125 -0.5 1.296875 -0.796875q0.734375 -0.296875 1.453125 -0.296875q0.90625 0 1.546875 0.328125q0.65625 0.328125 1.0 0.921875q0.671875 -0.546875 1.5 -0.890625q0.84375 -0.359375 1.609375 -0.359375q1.640625 0 2.390625 1.0q0.75 1.0 0.71875 3.171875l-0.015625 3.46875q0 0.84375 -0.078125 1.28125l1.171875 -0.0625l0 0.765625l-3.796875 0l0 -0.5625q0.53125 0 0.765625 -0.265625q0.234375 -0.265625 0.28125 -0.6875q0.046875 -0.421875 0.046875 -1.3125l0 -2.625q0 -1.59375 -0.5 -2.390625q-0.5 -0.796875 -1.59375 -0.796875q-0.578125 0 -1.171875 0.25q-0.578125 0.25 -1.03125 0.671875q0.1875 0.578125 0.1875 1.359375l-0.03125 4.375q0 0.84375 -0.078125 1.28125l1.171875 -0.0625l0 0.765625l-3.796875 0l0 -0.5625q0.546875 0 0.765625 -0.265625q0.234375 -0.265625 0.265625 -0.671875q0.046875 -0.40625 0.0625 -1.328125l0.03125 -2.625q0.015625 -1.625 -0.46875 -2.421875q-0.484375 -0.796875 -1.546875 -0.796875q-0.578125 0 -1.15625 0.25q-0.5625 0.234375 -0.984375 0.640625l0.03125 1.015625l0 4.78125q0 0.84375 -0.078125 1.28125l1.171875 -0.0625l0 0.765625l-3.796875 0l0 -0.5625zm19.288086 0.859375q-1.359375 0 -2.078125 -0.609375q-0.71875 -0.625 -0.71875 -1.609375q0 -1.078125 0.859375 -1.828125q0.875 -0.75 2.1875 -1.109375q1.3125 -0.359375 2.640625 -0.34375l0 -1.15625q0 -1.21875 -0.359375 -1.890625q-0.359375 -0.6875 -1.515625 -0.6875q-0.578125 0 -1.109375 0.25q-0.515625 0.234375 -0.75 0.71875q0.234375 0.265625 0.234375 0.71875q0 0.265625 -0.203125 0.53125q-0.203125 0.25 -0.59375 0.25q-0.390625 0 -0.625 -0.25q-0.21875 -0.265625 -0.21875 -0.671875q0 -0.609375 0.46875 -1.125q0.484375 -0.515625 1.328125 -0.8125q0.859375 -0.296875 1.90625 -0.296875q1.5625 0 2.3125 0.828125q0.75 0.828125 0.71875 2.625l-0.015625 4.1875q0 0.609375 -0.078125 1.28125l1.328125 -0.078125l0 0.78125l-2.65625 0q-0.0625 -0.28125 -0.140625 -1.0625q-1.359375 1.359375 -2.921875 1.359375zm0.421875 -1.0625q0.71875 0 1.296875 -0.265625q0.578125 -0.28125 1.171875 -0.828125q-0.015625 -0.28125 -0.015625 -0.953125l0.015625 -1.765625q-1.53125 0.0625 -2.734375 0.640625q-1.1875 0.5625 -1.1875 1.734375q0 0.6875 0.40625 1.0625q0.421875 0.375 1.046875 0.375zm8.439117 -10.59375q-0.390625 0 -0.703125 -0.328125q-0.296875 -0.328125 -0.296875 -0.78125q0 -0.4375 0.3125 -0.765625q0.3125 -0.34375 0.703125 -0.34375q0.421875 0 0.703125 0.328125q0.296875 0.328125 0.296875 0.78125q0 0.453125 -0.3125 0.78125q-0.296875 0.328125 -0.703125 0.328125zm-1.84375 10.796875q0.53125 0 0.765625 -0.265625q0.234375 -0.265625 0.28125 -0.6875q0.046875 -0.421875 0.046875 -1.3125l0 -4.265625q0 -0.53125 0.078125 -1.203125l-1.328125 0.0625l0 -0.78125q1.09375 0 1.5625 -0.125q0.484375 -0.125 0.75 -0.375l0.546875 0l0 7.53125q0 0.84375 -0.078125 1.28125l1.171875 -0.0625l0 0.765625l-3.796875 0l0 -0.5625zm5.242401 0q0.53125 0 0.765625 -0.265625q0.234375 -0.265625 0.265625 -0.671875q0.046875 -0.40625 0.0625 -1.328125l0.015625 -4.265625q0 -0.78125 0.078125 -1.203125l-1.328125 0.0625l0 -0.78125q1.109375 0 1.515625 -0.109375q0.40625 -0.125 0.6875 -0.390625l0.546875 0q0.03125 0.359375 0.0625 1.140625q0.6406555 -0.5625 1.4531555 -0.90625q0.8125 -0.34375 1.59375 -0.34375q1.625 0 2.359375 1.015625q0.75 1.015625 0.75 3.15625l0 3.46875q0 0.84375 -0.0625 1.28125l1.171875 -0.0625l0 0.765625l-3.8125 0l0 -0.5625q0.546875 0 0.78125 -0.265625q0.234375 -0.265625 0.28125 -0.6875q0.046875 -0.421875 0.046875 -1.3125l0 -2.625q-0.015625 -1.59375 -0.53125 -2.40625q-0.5 -0.8125 -1.578125 -0.8125q-0.671875 0 -1.34375 0.34375q-0.65625 0.328125 -1.0781555 0.859375q0.015625 0.21875 0.015625 0.734375l-0.015625 4.75q0 0.84375 -0.078125 1.28125l1.1719055 -0.0625l0 0.765625l-3.7969055 0l0 -0.5625zm20.152802 0.859375q-1.265625 0 -2.15625 -0.390625q-0.875 -0.390625 -1.328125 -0.96875q-0.4375 -0.578125 -0.4375 -1.171875q0 -0.453125 0.234375 -0.734375q0.25 -0.296875 0.671875 -0.296875q0.4375 0 0.625 0.28125q0.203125 0.265625 0.203125 0.5625q0 0.296875 -0.21875 0.75q0.171875 0.59375 0.796875 0.890625q0.640625 0.296875 1.484375 0.296875q1.34375 0 2.125 -0.734375q0.78125 -0.734375 0.78125 -2.109375q0 -1.421875 -0.6875 -2.296875q-0.6875 -0.890625 -2.484375 -0.890625q-0.1875 0 -0.8125 0.046875l0 -0.84375l0.765625 0q0.90625 0 1.484375 -0.421875q0.578125 -0.421875 0.84375 -1.03125q0.265625 -0.625 0.265625 -1.203125q0 -1.25 -0.515625 -1.953125q-0.5 -0.703125 -1.703125 -0.703125q-0.78125 0 -1.40625 0.421875q-0.609375 0.40625 -0.78125 0.921875q0.296875 0.3125 0.296875 0.765625q0 0.265625 -0.203125 0.53125q-0.203125 0.265625 -0.609375 0.265625q-0.40625 0 -0.625 -0.265625q-0.21875 -0.28125 -0.21875 -0.6875q0 -0.5625 0.4375 -1.1875q0.4375 -0.625 1.296875 -1.0625q0.875 -0.4375 2.0625 -0.4375q1.640625 0 2.703125 0.796875q1.078125 0.796875 1.078125 2.453125q0 0.96875 -0.734375 1.796875q-0.734375 0.8125 -2.328125 1.3125q1.765625 0.203125 2.78125 1.15625q1.015625 0.9375 1.015625 2.390625q0 1.21875 -0.640625 2.0625q-0.640625 0.84375 -1.71875 1.265625q-1.0625 0.421875 -2.34375 0.421875z" fill-rule="nonzero"></path><path fill="#fff2cc" d="m7.296588 619.3228l0 0c0 -41.817078 33.89945 -75.71649 75.71654 -75.71649l0 0c20.081276 0 39.340073 7.977234 53.539673 22.176819c14.1996155 14.199646 22.176865 33.458435 22.176865 53.539673l0 0c0 41.817078 -33.899452 75.71655 -75.71654 75.71655l0 0c-41.817085 0 -75.71654 -33.899475 -75.71654 -75.71655z" fill-rule="evenodd"></path><path stroke="#ffe599" stroke-width="1.0" stroke-linejoin="round" stroke-linecap="butt" d="m7.296588 619.3228l0 0c0 -41.817078 33.89945 -75.71649 75.71654 -75.71649l0 0c20.081276 0 39.340073 7.977234 53.539673 22.176819c14.1996155 14.199646 22.176865 33.458435 22.176865 53.539673l0 0c0 41.817078 -33.899452 75.71655 -75.71654 75.71655l0 0c-41.817085 0 -75.71654 -33.899475 -75.71654 -75.71655z" fill-rule="evenodd"></path><path fill="#000000" d="m39.504696 625.6335q0.640625 -0.03125 0.921875 -0.296875q0.28125 -0.28125 0.3125 -0.65625q0.046875 -0.390625 0.046875 -1.34375l0 -8.0625q0 -0.78125 0.0625 -1.34375l-1.34375 0.078125l0 -0.828125l4.390625 -0.015625q3.515625 -0.015625 5.5625 1.640625q2.0625 1.65625 2.0625 4.921875q0 1.765625 -0.828125 3.265625q-0.8125 1.484375 -2.421875 2.375q-1.609375 0.875 -3.859375 0.875l-4.90625 0l0 -0.609375zm4.84375 -0.09375q1.5625 0 2.78125 -0.765625q1.21875 -0.765625 1.890625 -2.109375q0.671875 -1.34375 0.671875 -3.0q0 -2.734375 -1.5 -4.265625q-1.484375 -1.546875 -4.5 -1.546875q-0.640625 0 -0.921875 0.265625q-0.28125 0.265625 -0.328125 0.65625q-0.03125 0.375 -0.03125 1.3125l0 7.953125q0 0.96875 -0.0625 1.453125q0.65625 0.046875 2.0 0.046875zm13.4770355 1.0q-1.296875 0 -2.375 -0.609375q-1.0625 -0.609375 -1.6875 -1.6875q-0.625 -1.078125 -0.625 -2.4375q0 -1.453125 0.609375 -2.640625q0.625 -1.1875 1.6875 -1.859375q1.078125 -0.6875 2.390625 -0.6875q1.28125 0 2.359375 0.625q1.09375 0.625 1.71875 1.703125q0.625 1.078125 0.625 2.40625q0 1.421875 -0.625 2.625q-0.625 1.1875 -1.703125 1.875q-1.078125 0.6875 -2.375 0.6875zm0.140625 -0.75q1.359375 0 2.0 -1.109375q0.65625 -1.125 0.65625 -2.78125q0 -1.890625 -0.703125 -3.234375q-0.703125 -1.34375 -2.09375 -1.34375q-1.390625 0 -2.09375 1.140625q-0.6875 1.140625 -0.6875 2.796875q0 1.203125 0.328125 2.234375q0.328125 1.03125 0.984375 1.671875q0.65625 0.625 1.609375 0.625zm6.1482887 -0.109375q0.53125 0 0.765625 -0.265625q0.234375 -0.265625 0.28125 -0.6875q0.046875 -0.421875 0.046875 -1.3125l0 -4.265625q0 -0.78125 0.078125 -1.203125l-1.3281288 0.0625l0 -0.78125q1.0937538 0 1.5000038 -0.109375q0.421875 -0.125 0.703125 -0.390625l0.546875 0q0.03125 0.28125 0.0625 0.984375q0.578125 -0.5 1.296875 -0.796875q0.734375 -0.296875 1.453125 -0.296875q0.90625 0 1.546875 0.328125q0.65625 0.328125 1.0 0.921875q0.671875 -0.546875 1.5 -0.890625q0.84375 -0.359375 1.609375 -0.359375q1.640625 0 2.390625 1.0q0.75 1.0 0.71875 3.171875l-0.015625 3.46875q0 0.84375 -0.078125 1.28125l1.171875 -0.0625l0 0.765625l-3.796875 0l0 -0.5625q0.53125 0 0.765625 -0.265625q0.234375 -0.265625 0.28125 -0.6875q0.046875 -0.421875 0.046875 -1.3125l0 -2.625q0 -1.59375 -0.5 -2.390625q-0.5 -0.796875 -1.59375 -0.796875q-0.578125 0 -1.171875 0.25q-0.578125 0.25 -1.03125 0.671875q0.1875 0.578125 0.1875 1.359375l-0.03125 4.375q0 0.84375 -0.078125 1.28125l1.171875 -0.0625l0 0.765625l-3.796875 0l0 -0.5625q0.546875 0 0.765625 -0.265625q0.234375 -0.265625 0.265625 -0.671875q0.046875 -0.40625 0.0625 -1.328125l0.03125 -2.625q0.015625 -1.625 -0.46875 -2.421875q-0.484375 -0.796875 -1.546875 -0.796875q-0.578125 0 -1.15625 0.25q-0.5625 0.234375 -0.984375 0.640625l0.03125 1.015625l0 4.78125q0 0.84375 -0.078125 1.28125l1.171875 -0.0625l0 0.765625l-3.796875 0l0 -0.5625zm19.28807 0.859375q-1.359375 0 -2.078125 -0.609375q-0.71875 -0.625 -0.71875 -1.609375q0 -1.078125 0.859375 -1.828125q0.875 -0.75 2.1875 -1.109375q1.3125 -0.359375 2.640625 -0.34375l0 -1.15625q0 -1.21875 -0.359375 -1.890625q-0.359375 -0.6875 -1.515625 -0.6875q-0.578125 0 -1.109375 0.25q-0.515625 0.234375 -0.75 0.71875q0.234375 0.265625 0.234375 0.71875q0 0.265625 -0.203125 0.53125q-0.203125 0.25 -0.59375 0.25q-0.390625 0 -0.625 -0.25q-0.21875 -0.265625 -0.21875 -0.671875q0 -0.609375 0.46875 -1.125q0.484375 -0.515625 1.328125 -0.8125q0.859375 -0.296875 1.90625 -0.296875q1.5625 0 2.3125 0.828125q0.75 0.828125 0.71875 2.625l-0.015625 4.1875q0 0.609375 -0.078125 1.28125l1.328125 -0.078125l0 0.78125l-2.65625 0q-0.0625 -0.28125 -0.140625 -1.0625q-1.359375 1.359375 -2.921875 1.359375zm0.421875 -1.0625q0.71875 0 1.296875 -0.265625q0.578125 -0.28125 1.171875 -0.828125q-0.015625 -0.28125 -0.015625 -0.953125l0.015625 -1.765625q-1.53125 0.0625 -2.734375 0.640625q-1.1875 0.5625 -1.1875 1.734375q0 0.6875 0.40625 1.0625q0.421875 0.375 1.046875 0.375zm8.439133 -10.59375q-0.390625 0 -0.703125 -0.328125q-0.296875 -0.328125 -0.296875 -0.78125q0 -0.4375 0.3125 -0.765625q0.3125 -0.34375 0.703125 -0.34375q0.421875 0 0.703125 0.328125q0.296875 0.328125 0.296875 0.78125q0 0.453125 -0.3125 0.78125q-0.296875 0.328125 -0.703125 0.328125zm-1.84375 10.796875q0.53125 0 0.765625 -0.265625q0.234375 -0.265625 0.28125 -0.6875q0.046875 -0.421875 0.046875 -1.3125l0 -4.265625q0 -0.53125 0.078125 -1.203125l-1.328125 0.0625l0 -0.78125q1.09375 0 1.5625 -0.125q0.484375 -0.125 0.75 -0.375l0.546875 0l0 7.53125q0 0.84375 -0.078125 1.28125l1.171875 -0.0625l0 0.765625l-3.796875 0l0 -0.5625zm5.242401 0q0.53125 0 0.765625 -0.265625q0.234375 -0.265625 0.265625 -0.671875q0.046875 -0.40625 0.0625 -1.328125l0.015625 -4.265625q0 -0.78125 0.078125 -1.203125l-1.328125 0.0625l0 -0.78125q1.109375 0 1.515625 -0.109375q0.40625 -0.125 0.6875 -0.390625l0.546875 0q0.03125 0.359375 0.0625 1.140625q0.640625 -0.5625 1.453125 -0.90625q0.8125 -0.34375 1.59375 -0.34375q1.625 0 2.359375 1.015625q0.75 1.015625 0.75 3.15625l0 3.46875q0 0.84375 -0.0625 1.28125l1.171875 -0.0625l0 0.765625l-3.8125 0l0 -0.5625q0.546875 0 0.78125 -0.265625q0.234375 -0.265625 0.28125 -0.6875q0.046875 -0.421875 0.046875 -1.3125l0 -2.625q-0.015625 -1.59375 -0.53125 -2.40625q-0.5 -0.8125 -1.578125 -0.8125q-0.671875 0 -1.34375 0.34375q-0.65625 0.328125 -1.078125 0.859375q0.015625 0.21875 0.015625 0.734375l-0.015625 4.75q0 0.84375 -0.078125 1.28125l1.171875 -0.0625l0 0.765625l-3.796875 0l0 -0.5625zm19.668442 -0.046875l0.140625 0q0.890625 -0.0625 1.1875 -0.640625q0.296875 -0.578125 0.296875 -1.71875l0 -0.625l-5.671875 0l0 -0.921875l6.765625 -8.84375l0.609375 0l0 8.640625l1.890625 0.015625l0 1.109375l-1.890625 0l0 1.5625q0 0.953125 -0.078125 1.328125l1.4375 -0.0625l0 0.765625l-4.6875 0l0 -0.609375zm1.625 -10.09375l-0.03125 0l-4.40625 5.890625l4.4375 0.0625l0 -5.953125z" fill-rule="nonzero"></path><path fill="#000000" fill-opacity="0.0" d="m217.59317 90.49606c-67.291336 0 -134.58267 91.46457 -134.58267 182.92914" fill-rule="evenodd"></path><path stroke="#000000" stroke-width="1.0" stroke-linejoin="round" stroke-linecap="butt" d="m217.59317 90.49606c-33.64566 0 -67.291336 22.866142 -92.52558 57.16536c-12.617126 17.149597 -23.131401 37.15747 -30.491394 58.594482c-3.6799927 10.718506 -6.571419 21.794296 -8.542847 33.04872c-0.98571014 5.6272125 -1.7414246 11.299088 -2.2507095 16.993286c-0.25463867 2.847107 -0.4476776 5.6997986 -0.57704926 8.555267c-0.064689636 1.4277344 -0.113456726 2.8561707 -0.14606476 4.284973l-0.017189026 0.8601074" fill-rule="evenodd"></path><path fill="#000000" stroke="#000000" stroke-width="1.0" stroke-linecap="butt" d="m83.04234 269.99826l-1.11409 -1.1349792l1.0958252 3.1000671l1.153244 -3.0791626z" fill-rule="evenodd"></path><path fill="#000000" fill-opacity="0.0" d="m369.02625 90.49606c64.23624 0 128.47244 91.46457 128.47244 182.92914" fill-rule="evenodd"></path><path stroke="#000000" stroke-width="1.0" stroke-linejoin="round" stroke-linecap="butt" d="m369.02625 90.49606c32.118103 0 64.23624 22.866142 88.3248 57.16536c12.044312 17.149597 22.081207 37.15747 29.107056 58.594482c3.512909 10.718506 6.273041 21.794296 8.154968 33.04872c0.940979 5.6272125 1.6623535 11.299088 2.148529 16.993286c0.24307251 2.847107 0.42733765 5.6997986 0.5508728 8.555267c0.06173706 1.4277344 0.108306885 2.8561707 0.13943481 4.284973l0.01638794 0.8600769" fill-rule="evenodd"></path><path fill="#000000" stroke="#000000" stroke-width="1.0" stroke-linecap="butt" d="m497.4683 269.99823l-1.1345215 -1.114563l1.151947 3.0796814l1.0971375 -3.0996094z" fill-rule="evenodd"></path><path fill="#000000" fill-opacity="0.0" d="m83.01312 424.85303l0 118.74017" fill-rule="evenodd"></path><path stroke="#000000" stroke-width="1.0" stroke-linejoin="round" stroke-linecap="butt" d="m83.01312 424.85303l0 112.74017" fill-rule="evenodd"></path><path fill="#000000" stroke="#000000" stroke-width="1.0" stroke-linecap="butt" d="m81.36139 537.5932l1.6517334 4.538086l1.6517334 -4.538086z" fill-rule="evenodd"></path><path fill="#000000" fill-opacity="0.0" d="m489.18896 145.75853l139.24408 0l0 36.472443l-139.24408 0z" fill-rule="evenodd"></path><path fill="#cc0000" d="m505.29834 172.9754q-1.984375 0 -3.140625 -0.6875q-1.140625 -0.703125 -1.640625 -2.15625q-0.484375 -1.453125 -0.484375 -3.8125l0 -3.796875q0 -1.1875 0.078125 -2.15625l-1.34375 0.0625l0 -0.8125l4.171875 0l0 0.625q-0.8125 0 -1.046875 0.4375q-0.21875 0.421875 -0.21875 1.03125l0 4.703125q0 1.625 0.28125 2.8125q0.296875 1.171875 1.140625 1.9375q0.859375 0.75 2.4375 0.75q1.953125 0 2.890625 -1.328125q0.9375 -1.34375 0.984375 -3.640625l0.046875 -5.234375q0 -0.78125 0.0625 -1.34375l-1.328125 0.078125l0 -0.828125l3.46875 0l0 0.625q-0.671875 0.015625 -0.953125 0.296875q-0.28125 0.28125 -0.328125 0.671875q-0.03125 0.375 -0.03125 1.3125l-0.03125 4.328125q-0.015625 2.71875 -1.203125 4.421875q-1.1875 1.703125 -3.8125 1.703125zm7.576416 3.90625q0.53125 0 0.765625 -0.28125q0.234375 -0.265625 0.265625 -0.671875q0.046875 -0.390625 0.0625 -1.328125l0.046875 -9.015625q0 -0.78125 0.0625 -1.203125l-1.3125 0.0625l0 -0.78125q1.09375 0 1.5 -0.109375q0.421875 -0.125 0.671875 -0.390625l0.5625 0q0.078125 0.921875 0.078125 1.015625q0.5625 -0.515625 1.34375 -0.8125q0.78125 -0.3125 1.546875 -0.3125q1.09375 0 2.03125 0.578125q0.9375 0.5625 1.5 1.625q0.578125 1.046875 0.578125 2.421875q0 1.546875 -0.65625 2.75q-0.65625 1.203125 -1.75 1.875q-1.09375 0.671875 -2.359375 0.671875q-1.28125 0 -2.234375 -0.609375l0 3.09375q0 0.84375 -0.078125 1.265625l1.171875 -0.046875l0 0.75l-3.796875 0l0 -0.546875zm4.90625 -4.65625q0.875 0 1.515625 -0.53125q0.640625 -0.546875 1.0 -1.515625q0.359375 -0.96875 0.359375 -2.203125q0 -1.671875 -0.71875 -2.84375q-0.71875 -1.171875 -2.140625 -1.171875q-0.609375 0 -1.1875 0.3125q-0.578125 0.296875 -1.015625 0.734375q0.015625 0.140625 0.015625 1.140625l-0.015625 5.359375q0.953125 0.71875 2.1875 0.71875zm10.387756 0.75q-1.15625 0 -2.078125 -0.578125q-0.90625 -0.578125 -1.4375 -1.640625q-0.515625 -1.0625 -0.515625 -2.484375q0 -1.484375 0.609375 -2.671875q0.625 -1.203125 1.71875 -1.875q1.09375 -0.671875 2.46875 -0.671875q0.578125 0 1.1875 0.15625q0.609375 0.15625 1.0 0.359375l0 -2.546875q0 -0.71875 0.046875 -1.21875l-1.3125 0.078125l0 -0.78125q1.09375 0 1.5625 -0.125q0.484375 -0.140625 0.75 -0.375l0.53125 0l0 12.09375q0 0.609375 -0.078125 1.28125l1.328125 -0.078125l0 0.78125l-2.671875 0q-0.09375 -0.5 -0.125 -0.96875q-0.546875 0.59375 -1.328125 0.9375q-0.765625 0.328125 -1.65625 0.328125zm0.671875 -0.90625q0.59375 0 1.21875 -0.34375q0.625 -0.359375 1.0625 -0.890625q-0.015625 -0.296875 -0.015625 -1.03125l0.015625 -5.375q-0.875 -0.65625 -2.078125 -0.65625q-1.34375 0 -2.171875 1.125q-0.8125 1.109375 -0.8125 2.9375q0 1.890625 0.71875 3.0625q0.734375 1.171875 2.0625 1.171875zm9.109558 0.90625q-1.359375 0 -2.078125 -0.609375q-0.71875 -0.625 -0.71875 -1.609375q0 -1.078125 0.859375 -1.828125q0.875 -0.75 2.1875 -1.109375q1.3125 -0.359375 2.640625 -0.34375l0 -1.15625q0 -1.21875 -0.359375 -1.890625q-0.359375 -0.6875 -1.515625 -0.6875q-0.578125 0 -1.109375 0.25q-0.515625 0.234375 -0.75 0.71875q0.234375 0.265625 0.234375 0.71875q0 0.265625 -0.203125 0.53125q-0.203125 0.25 -0.59375 0.25q-0.390625 0 -0.625 -0.25q-0.21875 -0.265625 -0.21875 -0.671875q0 -0.609375 0.46875 -1.125q0.484375 -0.515625 1.328125 -0.8125q0.859375 -0.296875 1.90625 -0.296875q1.5625 0 2.3125 0.828125q0.75 0.828125 0.71875 2.625l-0.015625 4.1875q0 0.609375 -0.078125 1.28125l1.328125 -0.078125l0 0.78125l-2.65625 0q-0.0625 -0.28125 -0.140625 -1.0625q-1.359375 1.359375 -2.921875 1.359375zm0.421875 -1.0625q0.71875 0 1.296875 -0.265625q0.578125 -0.28125 1.171875 -0.828125q-0.015625 -0.28125 -0.015625 -0.953125l0.015625 -1.765625q-1.53125 0.0625 -2.734375 0.640625q-1.1875 0.5625 -1.1875 1.734375q0 0.6875 0.40625 1.0625q0.421875 0.375 1.046875 0.375zm10.095398 1.0625q-2.5625 0 -2.53125 -3.4375l0.03125 -5.40625l-1.4375 0.015625l0 -0.796875q0.890625 -0.015625 1.515625 -0.8125q0.625 -0.796875 0.921875 -1.796875l0.640625 0l0 2.609375l3.140625 0l0 0.734375l-3.140625 0.03125q-0.015625 2.859375 -0.03125 3.96875q0 1.09375 0 1.21875q0 1.328125 0.3125 1.96875q0.3125 0.640625 1.09375 0.640625q0.484375 0 0.953125 -0.296875q0.484375 -0.296875 0.84375 -0.828125l0.5 0.421875q-0.71875 1.078125 -1.4375 1.421875q-0.703125 0.34375 -1.375 0.34375zm8.219971 0q-1.28125 0 -2.3125 -0.609375q-1.03125 -0.609375 -1.640625 -1.734375q-0.59375 -1.125 -0.59375 -2.59375q0 -1.3125 0.59375 -2.453125q0.609375 -1.15625 1.671875 -1.84375q1.078125 -0.6875 2.4375 -0.6875q1.0625 0 1.921875 0.46875q0.859375 0.46875 1.359375 1.390625q0.5 0.921875 0.5 2.265625l-6.5625 0.109375q-0.015625 2.234375 0.734375 3.484375q0.765625 1.25 2.34375 1.25q0.859375 0 1.765625 -0.4375q0.90625 -0.453125 1.390625 -1.109375l0.453125 0.375q-0.71875 1.078125 -1.84375 1.609375q-1.125 0.515625 -2.21875 0.515625zm2.1875 -6.46875q0 -1.125 -0.5 -1.921875q-0.5 -0.8125 -1.515625 -0.8125q-2.3125 0 -2.734375 2.734375l4.75 0zm7.3933105 5.5625q0.46875 0 0.75 -0.21875q0.28125 -0.21875 0.453125 -0.5625q0.171875 -0.34375 0.421875 -1.03125l0.1875 -0.53125l3.84375 -10.453125l0.4375 0l4.171875 10.609375q0.203125 0.5 0.34375 1.09375q0.15625 0.578125 0.140625 0.953125l1.265625 -0.078125l0 0.828125l-4.28125 0l0 -0.609375q1.109375 -0.03125 1.109375 -0.90625q0 -0.34375 -0.1875 -0.875l-0.65625 -1.75l-4.84375 0.109375q-0.28125 0.765625 -0.65625 2.0q-0.1875 0.609375 -0.46875 1.28125l1.453125 -0.078125l0 0.828125l-3.484375 0l0 -0.609375zm7.734375 -4.21875l-1.3125 -3.5625l-0.84375 -2.296875l-0.046875 0l-0.78125 2.109375l-1.0 2.828125l-0.3125 0.921875l4.296875 0z" fill-rule="nonzero"></path><path fill="#000000" fill-opacity="0.0" d="m105.45932 465.99344l139.2441 0l0 36.472443l-139.2441 0z" fill-rule="evenodd"></path><path fill="#cc0000" d="m121.568695 493.2103q-1.984375 0 -3.140625 -0.6875q-1.140625 -0.703125 -1.640625 -2.15625q-0.484375 -1.453125 -0.484375 -3.8125l0 -3.796875q0 -1.1875 0.078125 -2.15625l-1.34375 0.0625l0 -0.8125l4.171875 0l0 0.625q-0.8125 0 -1.046875 0.4375q-0.21875 0.421875 -0.21875 1.03125l0 4.703125q0 1.625 0.28125 2.8125q0.296875 1.171875 1.140625 1.9375q0.859375 0.75 2.4375 0.75q1.953125 0 2.890625 -1.328125q0.9375 -1.34375 0.984375 -3.640625l0.046875 -5.234375q0 -0.78125 0.0625 -1.34375l-1.328125 0.078125l0 -0.828125l3.46875 0l0 0.625q-0.671875 0.015625 -0.953125 0.296875q-0.28125 0.28125 -0.328125 0.671875q-0.03125 0.375 -0.03125 1.3125l-0.03125 4.328125q-0.015625 2.71875 -1.203125 4.421875q-1.1875 1.703125 -3.8125 1.703125zm7.5763855 3.90625q0.53125 0 0.765625 -0.28125q0.234375 -0.265625 0.265625 -0.671875q0.046875 -0.390625 0.0625 -1.328125l0.046875 -9.015625q0 -0.78125 0.0625 -1.203125l-1.3125 0.0625l0 -0.78125q1.09375 0 1.5 -0.109375q0.421875 -0.125 0.671875 -0.390625l0.5625 0q0.078125 0.921875 0.078125 1.015625q0.5625 -0.515625 1.34375 -0.8125q0.78125 -0.3125 1.546875 -0.3125q1.09375 0 2.03125 0.578125q0.9375 0.5625 1.5 1.625q0.578125 1.046875 0.578125 2.421875q0 1.546875 -0.65625 2.75q-0.65625 1.203125 -1.75 1.875q-1.09375 0.671875 -2.359375 0.671875q-1.28125 0 -2.234375 -0.609375l0 3.09375q0 0.84375 -0.078125 1.265625l1.171875 -0.046875l0 0.75l-3.796875 0l0 -0.546875zm4.90625 -4.65625q0.875 0 1.515625 -0.53125q0.640625 -0.546875 1.0 -1.515625q0.359375 -0.96875 0.359375 -2.203125q0 -1.671875 -0.71875 -2.84375q-0.71875 -1.171875 -2.140625 -1.171875q-0.609375 0 -1.1875 0.3125q-0.578125 0.296875 -1.015625 0.734375q0.015625 0.140625 0.015625 1.140625l-0.015625 5.359375q0.953125 0.71875 2.1875 0.71875zm10.387787 0.75q-1.15625 0 -2.078125 -0.578125q-0.90625 -0.578125 -1.4375 -1.640625q-0.515625 -1.0625 -0.515625 -2.484375q0 -1.484375 0.609375 -2.671875q0.625 -1.203125 1.71875 -1.875q1.09375 -0.671875 2.46875 -0.671875q0.578125 0 1.1875 0.15625q0.609375 0.15625 1.0 0.359375l0 -2.546875q0 -0.71875 0.046875 -1.21875l-1.3125 0.078125l0 -0.78125q1.09375 0 1.5625 -0.125q0.484375 -0.140625 0.75 -0.375l0.53125 0l0 12.09375q0 0.609375 -0.078125 1.28125l1.328125 -0.078125l0 0.78125l-2.671875 0q-0.09375 -0.5 -0.125 -0.96875q-0.546875 0.59375 -1.328125 0.9375q-0.765625 0.328125 -1.65625 0.328125zm0.671875 -0.90625q0.59375 0 1.21875 -0.34375q0.625 -0.359375 1.0625 -0.890625q-0.015625 -0.296875 -0.015625 -1.03125l0.015625 -5.375q-0.875 -0.65625 -2.078125 -0.65625q-1.34375 0 -2.171875 1.125q-0.8125 1.109375 -0.8125 2.9375q0 1.890625 0.71875 3.0625q0.734375 1.171875 2.0625 1.171875zm9.109558 0.90625q-1.359375 0 -2.078125 -0.609375q-0.71875 -0.625 -0.71875 -1.609375q0 -1.078125 0.859375 -1.828125q0.875 -0.75 2.1875 -1.109375q1.3125 -0.359375 2.640625 -0.34375l0 -1.15625q0 -1.21875 -0.359375 -1.890625q-0.359375 -0.6875 -1.515625 -0.6875q-0.578125 0 -1.109375 0.25q-0.515625 0.234375 -0.75 0.71875q0.234375 0.265625 0.234375 0.71875q0 0.265625 -0.203125 0.53125q-0.203125 0.25 -0.59375 0.25q-0.390625 0 -0.625 -0.25q-0.21875 -0.265625 -0.21875 -0.671875q0 -0.609375 0.46875 -1.125q0.484375 -0.515625 1.328125 -0.8125q0.859375 -0.296875 1.90625 -0.296875q1.5625 0 2.3125 0.828125q0.75 0.828125 0.71875 2.625l-0.015625 4.1875q0 0.609375 -0.078125 1.28125l1.328125 -0.078125l0 0.78125l-2.65625 0q-0.0625 -0.28125 -0.140625 -1.0625q-1.359375 1.359375 -2.921875 1.359375zm0.421875 -1.0625q0.71875 0 1.296875 -0.265625q0.578125 -0.28125 1.171875 -0.828125q-0.015625 -0.28125 -0.015625 -0.953125l0.015625 -1.765625q-1.53125 0.0625 -2.734375 0.640625q-1.1875 0.5625 -1.1875 1.734375q0 0.6875 0.40625 1.0625q0.421875 0.375 1.046875 0.375zm10.095383 1.0625q-2.5625 0 -2.53125 -3.4375l0.03125 -5.40625l-1.4375 0.015625l0 -0.796875q0.890625 -0.015625 1.515625 -0.8125q0.625 -0.796875 0.921875 -1.796875l0.640625 0l0 2.609375l3.140625 0l0 0.734375l-3.140625 0.03125q-0.015625 2.859375 -0.03125 3.96875q0 1.09375 0 1.21875q0 1.328125 0.3125 1.96875q0.3125 0.640625 1.09375 0.640625q0.484375 0 0.953125 -0.296875q0.484375 -0.296875 0.84375 -0.828125l0.5 0.421875q-0.71875 1.078125 -1.4375 1.421875q-0.703125 0.34375 -1.375 0.34375zm8.219971 0q-1.28125 0 -2.3125 -0.609375q-1.03125 -0.609375 -1.640625 -1.734375q-0.59375 -1.125 -0.59375 -2.59375q0 -1.3125 0.59375 -2.453125q0.609375 -1.15625 1.671875 -1.84375q1.078125 -0.6875 2.4375 -0.6875q1.0625 0 1.921875 0.46875q0.859375 0.46875 1.359375 1.390625q0.5 0.921875 0.5 2.265625l-6.5625 0.109375q-0.015625 2.234375 0.734375 3.484375q0.765625 1.25 2.34375 1.25q0.859375 0 1.765625 -0.4375q0.90625 -0.453125 1.390625 -1.109375l0.453125 0.375q-0.71875 1.078125 -1.84375 1.609375q-1.125 0.515625 -2.21875 0.515625zm2.1875 -6.46875q0 -1.125 -0.5 -1.921875q-0.5 -0.8125 -1.515625 -0.8125q-2.3125 0 -2.734375 2.734375l4.75 0zm7.3932953 5.5625q0.46875 0 0.75 -0.21875q0.28125 -0.21875 0.453125 -0.5625q0.171875 -0.34375 0.421875 -1.03125l0.1875 -0.53125l3.84375 -10.453125l0.4375 0l4.171875 10.609375q0.203125 0.5 0.34375 1.09375q0.15625 0.578125 0.140625 0.953125l1.265625 -0.078125l0 0.828125l-4.28125 0l0 -0.609375q1.109375 -0.03125 1.109375 -0.90625q0 -0.34375 -0.1875 -0.875l-0.65625 -1.75l-4.84375 0.109375q-0.28125 0.765625 -0.65625 2.0q-0.1875 0.609375 -0.46875 1.28125l1.453125 -0.078125l0 0.828125l-3.484375 0l0 -0.609375zm7.734375 -4.21875l-1.3125 -3.5625l-0.84375 -2.296875l-0.046875 0l-0.78125 2.109375l-1.0 2.828125l-0.3125 0.921875l4.296875 0z" fill-rule="nonzero"></path><path fill="#000000" fill-opacity="0.0" d="m105.45932 429.5223l191.52756 0l0 36.472443l-191.52756 0z" fill-rule="evenodd"></path><path fill="#9900ff" d="m119.849945 456.7392q-0.875 0 -1.765625 -0.25q-0.875 -0.234375 -1.546875 -0.703125l0.09375 0.8125l-0.984375 0l-0.109375 -3.984375l0.734375 0q0.09375 1.609375 1.09375 2.484375q1.015625 0.859375 2.5625 0.859375q1.140625 0 1.90625 -0.625q0.78125 -0.625 0.78125 -1.703125q0 -0.8125 -0.4375 -1.375q-0.4375 -0.5625 -1.09375 -0.9375q-0.640625 -0.390625 -1.734375 -0.90625q-1.25 -0.59375 -1.984375 -1.03125q-0.734375 -0.453125 -1.265625 -1.1875q-0.515625 -0.75 -0.515625 -1.828125q0 -0.75 0.34375 -1.484375q0.34375 -0.75 1.1875 -1.265625q0.84375 -0.53125 2.25 -0.53125q0.84375 0 1.6875 0.21875q0.84375 0.21875 1.5625 0.734375l-0.078125 -0.796875l0.953125 0l0 4.09375l-0.671875 0q-0.09375 -1.46875 -0.953125 -2.484375q-0.84375 -1.015625 -2.375 -1.015625q-1.109375 0 -1.75 0.625q-0.625 0.625 -0.625 1.5625q0 0.734375 0.421875 1.28125q0.421875 0.546875 1.03125 0.90625q0.625 0.34375 1.75 0.859375q1.265625 0.578125 2.03125 1.046875q0.78125 0.46875 1.3125 1.234375q0.546875 0.75 0.546875 1.84375q0 1.046875 -0.515625 1.859375q-0.5 0.796875 -1.5 1.25q-0.984375 0.4375 -2.34375 0.4375zm6.0155945 -0.859375q0.53125 0 0.765625 -0.265625q0.234375 -0.265625 0.265625 -0.671875q0.046875 -0.40625 0.0625 -1.328125l0.015625 -4.265625q0 -0.78125 0.078125 -1.203125l-1.328125 0.0625l0 -0.78125q1.109375 0 1.515625 -0.109375q0.40625 -0.125 0.6875 -0.390625l0.546875 0q0.03125 0.359375 0.0625 1.140625q0.640625 -0.5625 1.453125 -0.90625q0.8125 -0.34375 1.59375 -0.34375q1.625 0 2.359375 1.015625q0.75 1.015625 0.75 3.15625l0 3.46875q0 0.84375 -0.0625 1.28125l1.171875 -0.0625l0 0.765625l-3.8125 0l0 -0.5625q0.546875 0 0.78125 -0.265625q0.234375 -0.265625 0.28125 -0.6875q0.046875 -0.421875 0.046875 -1.3125l0 -2.625q-0.015625 -1.59375 -0.53125 -2.40625q-0.5 -0.8125 -1.578125 -0.8125q-0.671875 0 -1.34375 0.34375q-0.65625 0.328125 -1.078125 0.859375q0.015625 0.21875 0.015625 0.734375l-0.015625 4.75q0 0.84375 -0.078125 1.28125l1.171875 -0.0625l0 0.765625l-3.796875 0l0 -0.5625zm13.933716 0.859375q-1.359375 0 -2.078125 -0.609375q-0.71875 -0.625 -0.71875 -1.609375q0 -1.078125 0.859375 -1.828125q0.875 -0.75 2.1875 -1.109375q1.3125 -0.359375 2.640625 -0.34375l0 -1.15625q0 -1.21875 -0.359375 -1.890625q-0.359375 -0.6875 -1.515625 -0.6875q-0.578125 0 -1.109375 0.25q-0.515625 0.234375 -0.75 0.71875q0.234375 0.265625 0.234375 0.71875q0 0.265625 -0.203125 0.53125q-0.203125 0.25 -0.59375 0.25q-0.390625 0 -0.625 -0.25q-0.21875 -0.265625 -0.21875 -0.671875q0 -0.609375 0.46875 -1.125q0.484375 -0.515625 1.328125 -0.8125q0.859375 -0.296875 1.90625 -0.296875q1.5625 0 2.3125 0.828125q0.75 0.828125 0.71875 2.625l-0.015625 4.1875q0 0.609375 -0.078125 1.28125l1.328125 -0.078125l0 0.78125l-2.65625 0q-0.0625 -0.28125 -0.140625 -1.0625q-1.359375 1.359375 -2.921875 1.359375zm0.421875 -1.0625q0.71875 0 1.296875 -0.265625q0.578125 -0.28125 1.171875 -0.828125q-0.015625 -0.28125 -0.015625 -0.953125l0.015625 -1.765625q-1.53125 0.0625 -2.734375 0.640625q-1.1875 0.5625 -1.1875 1.734375q0 0.6875 0.40625 1.0625q0.421875 0.375 1.046875 0.375zm6.4235077 4.96875q0.53125 0 0.765625 -0.28125q0.234375 -0.265625 0.265625 -0.671875q0.046875 -0.390625 0.0625 -1.328125l0.046875 -9.015625q0 -0.78125 0.0625 -1.203125l-1.3125 0.0625l0 -0.78125q1.09375 0 1.5 -0.109375q0.421875 -0.125 0.671875 -0.390625l0.5625 0q0.078125 0.921875 0.078125 1.015625q0.5625 -0.515625 1.34375 -0.8125q0.78125 -0.3125 1.546875 -0.3125q1.09375 0 2.03125 0.578125q0.9375 0.5625 1.5 1.625q0.578125 1.046875 0.578125 2.421875q0 1.546875 -0.65625 2.75q-0.65625 1.203125 -1.75 1.875q-1.09375 0.671875 -2.359375 0.671875q-1.28125 0 -2.234375 -0.609375l0 3.09375q0 0.84375 -0.078125 1.265625l1.171875 -0.046875l0 0.75l-3.796875 0l0 -0.546875zm4.90625 -4.65625q0.875 0 1.515625 -0.53125q0.640625 -0.546875 1.0 -1.515625q0.359375 -0.96875 0.359375 -2.203125q0 -1.671875 -0.71875 -2.84375q-0.71875 -1.171875 -2.140625 -1.171875q-0.609375 0 -1.1875 0.3125q-0.578125 0.296875 -1.015625 0.734375q0.015625 0.140625 0.015625 1.140625l-0.015625 5.359375q0.953125 0.71875 2.1875 0.71875zm10.215912 0.75q-0.875 0 -1.609375 -0.234375q-0.71875 -0.234375 -1.234375 -0.578125l0.0625 0.640625l-0.78125 0l-0.109375 -3.203125l0.578125 0q0.03125 0.765625 0.40625 1.359375q0.390625 0.59375 1.015625 0.953125q0.625 0.34375 1.34375 0.34375q0.796875 0 1.421875 -0.375q0.625 -0.390625 0.625 -1.109375q0 -0.515625 -0.3125 -0.875q-0.296875 -0.359375 -0.765625 -0.578125q-0.453125 -0.234375 -1.265625 -0.5625q-1.0 -0.375 -1.59375 -0.6875q-0.59375 -0.328125 -1.03125 -0.890625q-0.421875 -0.5625 -0.421875 -1.421875q0 -0.609375 0.296875 -1.21875q0.296875 -0.625 1.0 -1.046875q0.71875 -0.4375 1.890625 -0.4375q0.578125 0 1.1875 0.1875q0.609375 0.1875 1.125 0.609375l-0.03125 -0.703125l0.78125 0l0 3.265625l-0.59375 0q-0.0625 -1.078125 -0.671875 -1.875q-0.59375 -0.796875 -1.703125 -0.796875q-0.828125 0 -1.328125 0.421875q-0.5 0.421875 -0.5 1.0q0 0.53125 0.328125 0.90625q0.328125 0.375 0.8125 0.640625q0.484375 0.265625 1.3125 0.578125q0.96875 0.390625 1.5625 0.734375q0.59375 0.328125 1.015625 0.875q0.421875 0.546875 0.421875 1.34375q0 0.890625 -0.46875 1.515625q-0.453125 0.609375 -1.1875 0.921875q-0.734375 0.296875 -1.578125 0.296875zm4.637848 -0.859375q0.53125 0 0.765625 -0.265625q0.25 -0.265625 0.296875 -0.6875q0.046875 -0.4375 0.046875 -1.3125l0 -8.828125q0 -0.71875 0.0625 -1.21875l-1.328125 0.078125l0 -0.78125q1.125 0 1.59375 -0.125q0.484375 -0.140625 0.734375 -0.375l0.546875 0l0 5.6875q0.65625 -0.546875 1.46875 -0.890625q0.828125 -0.34375 1.59375 -0.34375q1.59375 0 2.328125 1.015625q0.734375 1.0 0.75 3.15625l0.015625 3.46875q0 0.84375 -0.078125 1.28125l1.171875 -0.0625l0 0.765625l-3.796875 0l0 -0.5625q0.53125 0 0.765625 -0.265625q0.234375 -0.265625 0.28125 -0.6875q0.046875 -0.421875 0.046875 -1.3125l0 -2.625q0 -1.59375 -0.5 -2.390625q-0.5 -0.796875 -1.578125 -0.796875q-0.703125 0 -1.390625 0.328125q-0.671875 0.328125 -1.078125 0.828125l0 5.5q0 0.734375 -0.09375 1.28125l1.171875 -0.0625l0 0.765625l-3.796875 0l0 -0.5625zm15.987595 0.859375q-1.296875 0 -2.375 -0.609375q-1.0625 -0.609375 -1.6875 -1.6875q-0.625 -1.078125 -0.625 -2.4375q0 -1.453125 0.609375 -2.640625q0.625 -1.1875 1.6875 -1.859375q1.078125 -0.6875 2.390625 -0.6875q1.28125 0 2.359375 0.625q1.09375 0.625 1.71875 1.703125q0.625 1.078125 0.625 2.40625q0 1.421875 -0.625 2.625q-0.625 1.1875 -1.703125 1.875q-1.078125 0.6875 -2.375 0.6875zm0.140625 -0.75q1.359375 0 2.0 -1.109375q0.65625 -1.125 0.65625 -2.78125q0 -1.890625 -0.703125 -3.234375q-0.703125 -1.34375 -2.09375 -1.34375q-1.390625 0 -2.09375 1.140625q-0.6875 1.140625 -0.6875 2.796875q0 1.203125 0.328125 2.234375q0.328125 1.03125 0.984375 1.671875q0.65625 0.625 1.609375 0.625zm9.648285 0.75q-2.5625 0 -2.53125 -3.4375l0.03125 -5.40625l-1.4375 0.015625l0 -0.796875q0.890625 -0.015625 1.515625 -0.8125q0.625 -0.796875 0.921875 -1.796875l0.640625 0l0 2.609375l3.140625 0l0 0.734375l-3.140625 0.03125q-0.015625 2.859375 -0.03125 3.96875q0 1.09375 0 1.21875q0 1.328125 0.3125 1.96875q0.3125 0.640625 1.09375 0.640625q0.484375 0 0.953125 -0.296875q0.484375 -0.296875 0.84375 -0.828125l0.5 0.421875q-0.71875 1.078125 -1.4375 1.421875q-0.703125 0.34375 -1.375 0.34375zm14.814072 -2.4375q-1.421875 -3.15625 -2.203125 -4.96875q-0.78125 -1.828125 -1.53125 -3.84375l-0.015625 0.828125q-0.171875 5.453125 -0.203125 7.796875q0 0.28125 -0.015625 0.40625q0 0.640625 -0.0625 1.171875l1.40625 -0.078125l0 0.828125l-3.5625 0l0 -0.609375q0.78125 -0.03125 1.015625 -0.4375q0.234375 -0.421875 0.265625 -1.28125l0.40625 -9.984375l-1.34375 0.0625l0 -0.8125l2.859375 0l2.53125 5.859375q1.390625 3.25 2.125 4.921875l0.046875 0q0.21875 -0.546875 0.953125 -2.40625q0.703125 -1.78125 1.625 -3.9375q1.0625 -2.5 1.828125 -4.4375l2.75 0l0 0.625q-0.671875 -0.03125 -0.984375 0.359375q-0.3125 0.375 -0.3125 1.296875l0.015625 0.375l0.484375 8.484375q0.03125 0.421875 0.03125 1.15625l1.359375 -0.0625l0 0.828125l-4.171875 0l0 -0.609375q0.734375 -0.03125 0.984375 -0.421875q0.265625 -0.40625 0.265625 -1.265625q0 -0.359375 -0.015625 -0.53125l-0.484375 -7.953125q-0.046875 0.09375 -0.109375 0.25q-0.0625 0.140625 -0.140625 0.34375l-4.1875 10.375l-0.5625 0l-1.046875 -2.328125zm13.548309 2.4375q-1.359375 0 -2.078125 -0.609375q-0.71875 -0.625 -0.71875 -1.609375q0 -1.078125 0.859375 -1.828125q0.875 -0.75 2.1875 -1.109375q1.3125 -0.359375 2.640625 -0.34375l0 -1.15625q0 -1.21875 -0.359375 -1.890625q-0.359375 -0.6875 -1.515625 -0.6875q-0.578125 0 -1.109375 0.25q-0.515625 0.234375 -0.75 0.71875q0.234375 0.265625 0.234375 0.71875q0 0.265625 -0.203125 0.53125q-0.203125 0.25 -0.59375 0.25q-0.390625 0 -0.625 -0.25q-0.21875 -0.265625 -0.21875 -0.671875q0 -0.609375 0.46875 -1.125q0.484375 -0.515625 1.328125 -0.8125q0.859375 -0.296875 1.90625 -0.296875q1.5625 0 2.3125 0.828125q0.75 0.828125 0.71875 2.625l-0.015625 4.1875q0 0.609375 -0.078125 1.28125l1.328125 -0.078125l0 0.78125l-2.65625 0q-0.0625 -0.28125 -0.140625 -1.0625q-1.359375 1.359375 -2.921875 1.359375zm0.421875 -1.0625q0.71875 0 1.296875 -0.265625q0.578125 -0.28125 1.171875 -0.828125q-0.015625 -0.28125 -0.015625 -0.953125l0.015625 -1.765625q-1.53125 0.0625 -2.734375 0.640625q-1.1875 0.5625 -1.1875 1.734375q0 0.6875 0.40625 1.0625q0.421875 0.375 1.046875 0.375zm6.5953827 0.203125q0.53125 0 0.765625 -0.265625q0.234375 -0.265625 0.28125 -0.6875q0.046875 -0.421875 0.046875 -1.3125l0 -4.265625q0 -0.78125 0.078125 -1.203125l-1.328125 0.046875l0 -0.765625l0.578125 0q0.703125 0 1.015625 -0.109375q0.328125 -0.125 0.609375 -0.390625l0.546875 0q0.0625 0.734375 0.078125 1.84375q0.46875 -0.765625 1.328125 -1.359375q0.875 -0.59375 1.8125 -0.59375q0.5625 0 0.9375 0.296875q0.375 0.296875 0.375 0.875q0 0.296875 -0.234375 0.59375q-0.234375 0.296875 -0.671875 0.296875q-0.40625 0 -0.671875 -0.296875q-0.25 -0.3125 -0.203125 -0.734375q-0.703125 -0.03125 -1.421875 0.53125q-0.71875 0.5625 -1.21875 1.5l0.015625 4.578125q0 0.84375 -0.078125 1.28125l1.171875 -0.0625l0 0.765625l-3.8125 0l0 -0.5625zm7.9062805 0q0.53125 0 0.765625 -0.265625q0.234375 -0.265625 0.265625 -0.671875q0.046875 -0.421875 0.046875 -1.328125q0 -0.1875 0 -2.03125q0.015625 -1.859375 0.015625 -6.796875q0 -0.71875 0.0625 -1.21875l-1.328125 0.078125l0 -0.78125q1.09375 0 1.5625 -0.125q0.484375 -0.140625 0.75 -0.375l0.546875 0l0 8.8125l0.734375 0l2.28125 -2.390625q0.71875 -0.734375 1.109375 -0.984375l-1.28125 0.0625l0 -0.75l3.40625 0l0 0.5625q-0.828125 0.09375 -1.5 0.59375q-0.671875 0.5 -1.484375 1.359375l-1.453125 1.53125q0.328125 0.15625 0.578125 0.390625q0.25 0.21875 0.578125 0.625l1.3125 1.6875q0.046875 0.046875 0.421875 0.578125q0.390625 0.53125 0.921875 0.984375q0.53125 0.453125 0.921875 0.453125l0 0.5625l-1.703125 0q-0.4375 0 -0.84375 -0.390625q-0.390625 -0.390625 -1.125 -1.359375l-0.734375 -1.03125q-0.40625 -0.578125 -0.78125 -1.0625q-0.359375 -0.5 -0.59375 -0.734375l-0.765625 0.046875l0 2.546875q0 0.84375 -0.078125 1.28125l1.1875 -0.0625l0 0.765625l-3.796875 0l0 -0.5625zm14.690277 0.859375q-1.28125 0 -2.3125 -0.609375q-1.03125 -0.609375 -1.640625 -1.734375q-0.59375 -1.125 -0.59375 -2.59375q0 -1.3125 0.59375 -2.453125q0.609375 -1.15625 1.671875 -1.84375q1.078125 -0.6875 2.4375 -0.6875q1.0625 0 1.921875 0.46875q0.859375 0.46875 1.359375 1.390625q0.5 0.921875 0.5 2.265625l-6.5625 0.109375q-0.015625 2.234375 0.734375 3.484375q0.765625 1.25 2.34375 1.25q0.859375 0 1.765625 -0.4375q0.90625 -0.453125 1.390625 -1.109375l0.453125 0.375q-0.71875 1.078125 -1.84375 1.609375q-1.125 0.515625 -2.21875 0.515625zm2.1875 -6.46875q0 -1.125 -0.5 -1.921875q-0.5 -0.8125 -1.515625 -0.8125q-2.3125 0 -2.734375 2.734375l4.75 0zm3.4241943 5.609375q0.53125 0 0.765625 -0.265625q0.234375 -0.265625 0.28125 -0.6875q0.046875 -0.421875 0.046875 -1.3125l0 -4.265625q0 -0.78125 0.078125 -1.203125l-1.328125 0.046875l0 -0.765625l0.578125 0q0.703125 0 1.015625 -0.109375q0.328125 -0.125 0.609375 -0.390625l0.546875 0q0.0625 0.734375 0.078125 1.84375q0.46875 -0.765625 1.328125 -1.359375q0.875 -0.59375 1.8125 -0.59375q0.5625 0 0.9375 0.296875q0.375 0.296875 0.375 0.875q0 0.296875 -0.234375 0.59375q-0.234375 0.296875 -0.671875 0.296875q-0.40625 0 -0.671875 -0.296875q-0.25 -0.3125 -0.203125 -0.734375q-0.703125 -0.03125 -1.421875 0.53125q-0.71875 0.5625 -1.21875 1.5l0.015625 4.578125q0 0.84375 -0.078125 1.28125l1.171875 -0.0625l0 0.765625l-3.8125 0l0 -0.5625z" fill-rule="nonzero"></path><path fill="#000000" fill-opacity="0.0" d="m457.22046 109.28609l191.52759 0l0 36.472443l-191.52759 0z" fill-rule="evenodd"></path><path fill="#9900ff" d="m471.61108 136.50296q-0.875 0 -1.765625 -0.25q-0.875 -0.234375 -1.546875 -0.703125l0.09375 0.8125l-0.984375 0l-0.109375 -3.984375l0.734375 0q0.09375 1.609375 1.09375 2.484375q1.015625 0.859375 2.5625 0.859375q1.140625 0 1.90625 -0.625q0.78125 -0.625 0.78125 -1.703125q0 -0.8125 -0.4375 -1.375q-0.4375 -0.5625 -1.09375 -0.9375q-0.640625 -0.390625 -1.734375 -0.90625q-1.25 -0.59375 -1.984375 -1.03125q-0.734375 -0.453125 -1.265625 -1.1875q-0.515625 -0.75 -0.515625 -1.828125q0 -0.75 0.34375 -1.484375q0.34375 -0.75 1.1875 -1.265625q0.84375 -0.53125 2.25 -0.53125q0.84375 0 1.6875 0.21875q0.84375 0.21875 1.5625 0.734375l-0.078125 -0.796875l0.953125 0l0 4.09375l-0.671875 0q-0.09375 -1.46875 -0.953125 -2.484375q-0.84375 -1.015625 -2.375 -1.015625q-1.109375 0 -1.75 0.625q-0.625 0.625 -0.625 1.5625q0 0.734375 0.421875 1.28125q0.421875 0.546875 1.03125 0.90625q0.625 0.34375 1.75 0.859375q1.265625 0.578125 2.03125 1.046875q0.78125 0.46875 1.3125 1.234375q0.546875 0.75 0.546875 1.84375q0 1.046875 -0.515625 1.859375q-0.5 0.796875 -1.5 1.25q-0.984375 0.4375 -2.34375 0.4375zm6.0155945 -0.859375q0.53125 0 0.765625 -0.265625q0.234375 -0.265625 0.265625 -0.671875q0.046875 -0.40625 0.0625 -1.328125l0.015625 -4.265625q0 -0.78125 0.078125 -1.203125l-1.328125 0.0625l0 -0.78125q1.109375 0 1.515625 -0.109375q0.40625 -0.125 0.6875 -0.390625l0.546875 0q0.03125 0.359375 0.0625 1.140625q0.640625 -0.5625 1.453125 -0.90625q0.8125 -0.34375 1.59375 -0.34375q1.625 0 2.359375 1.015625q0.75 1.015625 0.75 3.15625l0 3.46875q0 0.84375 -0.0625 1.28125l1.171875 -0.0625l0 0.765625l-3.8125 0l0 -0.5625q0.546875 0 0.78125 -0.265625q0.234375 -0.265625 0.28125 -0.6875q0.046875 -0.421875 0.046875 -1.3125l0 -2.625q-0.015625 -1.59375 -0.53125 -2.40625q-0.5 -0.8125 -1.578125 -0.8125q-0.671875 0 -1.34375 0.34375q-0.65625 0.328125 -1.078125 0.859375q0.015625 0.21875 0.015625 0.734375l-0.015625 4.75q0 0.84375 -0.078125 1.28125l1.171875 -0.0625l0 0.765625l-3.796875 0l0 -0.5625zm13.933716 0.859375q-1.359375 0 -2.078125 -0.609375q-0.71875 -0.625 -0.71875 -1.609375q0 -1.078125 0.859375 -1.828125q0.875 -0.75 2.1875 -1.109375q1.3125 -0.359375 2.640625 -0.34375l0 -1.15625q0 -1.21875 -0.359375 -1.890625q-0.359375 -0.6875 -1.515625 -0.6875q-0.578125 0 -1.109375 0.25q-0.515625 0.234375 -0.75 0.71875q0.234375 0.265625 0.234375 0.71875q0 0.265625 -0.203125 0.53125q-0.203125 0.25 -0.59375 0.25q-0.390625 0 -0.625 -0.25q-0.21875 -0.265625 -0.21875 -0.671875q0 -0.609375 0.46875 -1.125q0.484375 -0.515625 1.328125 -0.8125q0.859375 -0.296875 1.90625 -0.296875q1.5625 0 2.3125 0.828125q0.75 0.828125 0.71875 2.625l-0.015625 4.1875q0 0.609375 -0.078125 1.28125l1.328125 -0.078125l0 0.78125l-2.65625 0q-0.0625 -0.28125 -0.140625 -1.0625q-1.359375 1.359375 -2.921875 1.359375zm0.421875 -1.0625q0.71875 0 1.296875 -0.265625q0.578125 -0.28125 1.171875 -0.828125q-0.015625 -0.28125 -0.015625 -0.953125l0.015625 -1.765625q-1.53125 0.0625 -2.734375 0.640625q-1.1875 0.5625 -1.1875 1.734375q0 0.6875 0.40625 1.0625q0.421875 0.375 1.046875 0.375zm6.423523 4.96875q0.53125 0 0.765625 -0.28125q0.234375 -0.265625 0.265625 -0.671875q0.046875 -0.390625 0.0625 -1.328125l0.046875 -9.015625q0 -0.78125 0.0625 -1.203125l-1.3125 0.0625l0 -0.78125q1.09375 0 1.5 -0.109375q0.421875 -0.125 0.671875 -0.390625l0.5625 0q0.078125 0.921875 0.078125 1.015625q0.5625 -0.515625 1.34375 -0.8125q0.78125 -0.3125 1.546875 -0.3125q1.09375 0 2.03125 0.578125q0.9375 0.5625 1.5 1.625q0.578125 1.046875 0.578125 2.421875q0 1.546875 -0.65625 2.75q-0.65625 1.203125 -1.75 1.875q-1.09375 0.671875 -2.359375 0.671875q-1.28125 0 -2.234375 -0.609375l0 3.09375q0 0.84375 -0.078125 1.265625l1.171875 -0.046875l0 0.75l-3.796875 0l0 -0.546875zm4.90625 -4.65625q0.875 0 1.515625 -0.53125q0.640625 -0.546875 1.0 -1.515625q0.359375 -0.96875 0.359375 -2.203125q0 -1.671875 -0.71875 -2.84375q-0.71875 -1.171875 -2.140625 -1.171875q-0.609375 0 -1.1875 0.3125q-0.578125 0.296875 -1.015625 0.734375q0.015625 0.140625 0.015625 1.140625l-0.015625 5.359375q0.953125 0.71875 2.1875 0.71875zm10.215912 0.75q-0.875 0 -1.609375 -0.234375q-0.71875 -0.234375 -1.234375 -0.578125l0.0625 0.640625l-0.78125 0l-0.109375 -3.203125l0.578125 0q0.03125 0.765625 0.40625 1.359375q0.390625 0.59375 1.015625 0.953125q0.625 0.34375 1.34375 0.34375q0.796875 0 1.421875 -0.375q0.625 -0.390625 0.625 -1.109375q0 -0.515625 -0.3125 -0.875q-0.296875 -0.359375 -0.765625 -0.578125q-0.453125 -0.234375 -1.265625 -0.5625q-1.0 -0.375 -1.59375 -0.6875q-0.59375 -0.328125 -1.03125 -0.890625q-0.421875 -0.5625 -0.421875 -1.421875q0 -0.609375 0.296875 -1.21875q0.296875 -0.625 1.0 -1.046875q0.71875 -0.4375 1.890625 -0.4375q0.578125 0 1.1875 0.1875q0.609375 0.1875 1.125 0.609375l-0.03125 -0.703125l0.78125 0l0 3.265625l-0.59375 0q-0.0625 -1.078125 -0.671875 -1.875q-0.59375 -0.796875 -1.703125 -0.796875q-0.828125 0 -1.328125 0.421875q-0.5 0.421875 -0.5 1.0q0 0.53125 0.328125 0.90625q0.328125 0.375 0.8125 0.640625q0.484375 0.265625 1.3125 0.578125q0.96875 0.390625 1.5625 0.734375q0.59375 0.328125 1.015625 0.875q0.421875 0.546875 0.421875 1.34375q0 0.890625 -0.46875 1.515625q-0.453125 0.609375 -1.1875 0.921875q-0.734375 0.296875 -1.578125 0.296875zm4.6378174 -0.859375q0.53125 0 0.765625 -0.265625q0.25 -0.265625 0.296875 -0.6875q0.046875 -0.4375 0.046875 -1.3125l0 -8.828125q0 -0.71875 0.0625 -1.21875l-1.328125 0.078125l0 -0.78125q1.125 0 1.59375 -0.125q0.484375 -0.140625 0.734375 -0.375l0.546875 0l0 5.6875q0.65625 -0.546875 1.46875 -0.890625q0.828125 -0.34375 1.59375 -0.34375q1.59375 0 2.328125 1.015625q0.734375 1.0 0.75 3.15625l0.015625 3.46875q0 0.84375 -0.078125 1.28125l1.171875 -0.0625l0 0.765625l-3.796875 0l0 -0.5625q0.53125 0 0.765625 -0.265625q0.234375 -0.265625 0.28125 -0.6875q0.046875 -0.421875 0.046875 -1.3125l0 -2.625q0 -1.59375 -0.5 -2.390625q-0.5 -0.796875 -1.578125 -0.796875q-0.703125 0 -1.390625 0.328125q-0.671875 0.328125 -1.078125 0.828125l0 5.5q0 0.734375 -0.09375 1.28125l1.171875 -0.0625l0 0.765625l-3.796875 0l0 -0.5625zm15.98761 0.859375q-1.296875 0 -2.375 -0.609375q-1.0625 -0.609375 -1.6875 -1.6875q-0.625 -1.078125 -0.625 -2.4375q0 -1.453125 0.609375 -2.640625q0.625 -1.1875 1.6875 -1.859375q1.078125 -0.6875 2.390625 -0.6875q1.28125 0 2.359375 0.625q1.09375 0.625 1.71875 1.703125q0.625 1.078125 0.625 2.40625q0 1.421875 -0.625 2.625q-0.625 1.1875 -1.703125 1.875q-1.078125 0.6875 -2.375 0.6875zm0.140625 -0.75q1.359375 0 2.0 -1.109375q0.65625 -1.125 0.65625 -2.78125q0 -1.890625 -0.703125 -3.234375q-0.703125 -1.34375 -2.09375 -1.34375q-1.390625 0 -2.09375 1.140625q-0.6875 1.140625 -0.6875 2.796875q0 1.203125 0.328125 2.234375q0.328125 1.03125 0.984375 1.671875q0.65625 0.625 1.609375 0.625zm9.648315 0.75q-2.5625 0 -2.53125 -3.4375l0.03125 -5.40625l-1.4375 0.015625l0 -0.796875q0.890625 -0.015625 1.515625 -0.8125q0.625 -0.796875 0.921875 -1.796875l0.640625 0l0 2.609375l3.140625 0l0 0.734375l-3.140625 0.03125q-0.015625 2.859375 -0.03125 3.96875q0 1.09375 0 1.21875q0 1.328125 0.3125 1.96875q0.3125 0.640625 1.09375 0.640625q0.484375 0 0.953125 -0.296875q0.484375 -0.296875 0.84375 -0.828125l0.5 0.421875q-0.71875 1.078125 -1.4375 1.421875q-0.703125 0.34375 -1.375 0.34375zm14.814026 -2.4375q-1.421875 -3.15625 -2.203125 -4.96875q-0.78125 -1.828125 -1.53125 -3.84375l-0.015625 0.828125q-0.171875 5.453125 -0.203125 7.796875q0 0.28125 -0.015625 0.40625q0 0.640625 -0.0625 1.171875l1.40625 -0.078125l0 0.828125l-3.5625 0l0 -0.609375q0.78125 -0.03125 1.015625 -0.4375q0.234375 -0.421875 0.265625 -1.28125l0.40625 -9.984375l-1.34375 0.0625l0 -0.8125l2.859375 0l2.53125 5.859375q1.390625 3.25 2.125 4.921875l0.046875 0q0.21875 -0.546875 0.953125 -2.40625q0.703125 -1.78125 1.625 -3.9375q1.0625 -2.5 1.828125 -4.4375l2.75 0l0 0.625q-0.671875 -0.03125 -0.984375 0.359375q-0.3125 0.375 -0.3125 1.296875l0.015625 0.375l0.484375 8.484375q0.03125 0.421875 0.03125 1.15625l1.359375 -0.0625l0 0.828125l-4.171875 0l0 -0.609375q0.734375 -0.03125 0.984375 -0.421875q0.265625 -0.40625 0.265625 -1.265625q0 -0.359375 -0.015625 -0.53125l-0.484375 -7.953125q-0.046875 0.09375 -0.109375 0.25q-0.0625 0.140625 -0.140625 0.34375l-4.1875 10.375l-0.5625 0l-1.046875 -2.328125zm13.54834 2.4375q-1.359375 0 -2.078125 -0.609375q-0.71875 -0.625 -0.71875 -1.609375q0 -1.078125 0.859375 -1.828125q0.875 -0.75 2.1875 -1.109375q1.3125 -0.359375 2.640625 -0.34375l0 -1.15625q0 -1.21875 -0.359375 -1.890625q-0.359375 -0.6875 -1.515625 -0.6875q-0.578125 0 -1.109375 0.25q-0.515625 0.234375 -0.75 0.71875q0.234375 0.265625 0.234375 0.71875q0 0.265625 -0.203125 0.53125q-0.203125 0.25 -0.59375 0.25q-0.390625 0 -0.625 -0.25q-0.21875 -0.265625 -0.21875 -0.671875q0 -0.609375 0.46875 -1.125q0.484375 -0.515625 1.328125 -0.8125q0.859375 -0.296875 1.90625 -0.296875q1.5625 0 2.3125 0.828125q0.75 0.828125 0.71875 2.625l-0.015625 4.1875q0 0.609375 -0.078125 1.28125l1.328125 -0.078125l0 0.78125l-2.65625 0q-0.0625 -0.28125 -0.140625 -1.0625q-1.359375 1.359375 -2.921875 1.359375zm0.421875 -1.0625q0.71875 0 1.296875 -0.265625q0.578125 -0.28125 1.171875 -0.828125q-0.015625 -0.28125 -0.015625 -0.953125l0.015625 -1.765625q-1.53125 0.0625 -2.734375 0.640625q-1.1875 0.5625 -1.1875 1.734375q0 0.6875 0.40625 1.0625q0.421875 0.375 1.046875 0.375zm6.595398 0.203125q0.53125 0 0.765625 -0.265625q0.234375 -0.265625 0.28125 -0.6875q0.046875 -0.421875 0.046875 -1.3125l0 -4.265625q0 -0.78125 0.078125 -1.203125l-1.328125 0.046875l0 -0.765625l0.578125 0q0.703125 0 1.015625 -0.109375q0.328125 -0.125 0.609375 -0.390625l0.546875 0q0.0625 0.734375 0.078125 1.84375q0.46875 -0.765625 1.328125 -1.359375q0.875 -0.59375 1.8125 -0.59375q0.5625 0 0.9375 0.296875q0.375 0.296875 0.375 0.875q0 0.296875 -0.234375 0.59375q-0.234375 0.296875 -0.671875 0.296875q-0.40625 0 -0.671875 -0.296875q-0.25 -0.3125 -0.203125 -0.734375q-0.703125 -0.03125 -1.421875 0.53125q-0.71875 0.5625 -1.21875 1.5l0.015625 4.578125q0 0.84375 -0.078125 1.28125l1.171875 -0.0625l0 0.765625l-3.8125 0l0 -0.5625zm7.90625 0q0.53125 0 0.765625 -0.265625q0.234375 -0.265625 0.265625 -0.671875q0.046875 -0.421875 0.046875 -1.328125q0 -0.1875 0 -2.03125q0.015625 -1.859375 0.015625 -6.796875q0 -0.71875 0.0625 -1.21875l-1.328125 0.078125l0 -0.78125q1.09375 0 1.5625 -0.125q0.484375 -0.140625 0.75 -0.375l0.546875 0l0 8.8125l0.734375 0l2.28125 -2.390625q0.71875 -0.734375 1.109375 -0.984375l-1.28125 0.0625l0 -0.75l3.40625 0l0 0.5625q-0.828125 0.09375 -1.5 0.59375q-0.671875 0.5 -1.484375 1.359375l-1.453125 1.53125q0.328125 0.15625 0.578125 0.390625q0.25 0.21875 0.578125 0.625l1.3125 1.6875q0.046875 0.046875 0.421875 0.578125q0.390625 0.53125 0.921875 0.984375q0.53125 0.453125 0.921875 0.453125l0 0.5625l-1.703125 0q-0.4375 0 -0.84375 -0.390625q-0.390625 -0.390625 -1.125 -1.359375l-0.734375 -1.03125q-0.40625 -0.578125 -0.78125 -1.0625q-0.359375 -0.5 -0.59375 -0.734375l-0.765625 0.046875l0 2.546875q0 0.84375 -0.078125 1.28125l1.1875 -0.0625l0 0.765625l-3.796875 0l0 -0.5625zm14.690308 0.859375q-1.28125 0 -2.3125 -0.609375q-1.03125 -0.609375 -1.640625 -1.734375q-0.59375 -1.125 -0.59375 -2.59375q0 -1.3125 0.59375 -2.453125q0.609375 -1.15625 1.671875 -1.84375q1.078125 -0.6875 2.4375 -0.6875q1.0625 0 1.921875 0.46875q0.859375 0.46875 1.359375 1.390625q0.5 0.921875 0.5 2.265625l-6.5625 0.109375q-0.015625 2.234375 0.734375 3.484375q0.765625 1.25 2.34375 1.25q0.859375 0 1.765625 -0.4375q0.90625 -0.453125 1.390625 -1.109375l0.453125 0.375q-0.71875 1.078125 -1.84375 1.609375q-1.125 0.515625 -2.21875 0.515625zm2.1875 -6.46875q0 -1.125 -0.5 -1.921875q-0.5 -0.8125 -1.515625 -0.8125q-2.3125 0 -2.734375 2.734375l4.75 0zm3.4241943 5.609375q0.53125 0 0.765625 -0.265625q0.234375 -0.265625 0.28125 -0.6875q0.046875 -0.421875 0.046875 -1.3125l0 -4.265625q0 -0.78125 0.078125 -1.203125l-1.328125 0.046875l0 -0.765625l0.578125 0q0.703125 0 1.015625 -0.109375q0.328125 -0.125 0.609375 -0.390625l0.546875 0q0.0625 0.734375 0.078125 1.84375q0.46875 -0.765625 1.328125 -1.359375q0.875 -0.59375 1.8125 -0.59375q0.5625 0 0.9375 0.296875q0.375 0.296875 0.375 0.875q0 0.296875 -0.234375 0.59375q-0.234375 0.296875 -0.671875 0.296875q-0.40625 0 -0.671875 -0.296875q-0.25 -0.3125 -0.203125 -0.734375q-0.703125 -0.03125 -1.421875 0.53125q-0.71875 0.5625 -1.21875 1.5l0.015625 4.578125q0 0.84375 -0.078125 1.28125l1.171875 -0.0625l0 0.765625l-3.8125 0l0 -0.5625z" fill-rule="nonzero"></path></g></svg>

