<?xml version="1.0" standalone="yes"?>

<svg version="1.1" viewBox="0.0 0.0 657.0209973753281 491.1469816272966" fill="none" stroke="none" stroke-linecap="square" stroke-miterlimit="10" xmlns="http://www.w3.org/2000/svg" xmlns:xlink="http://www.w3.org/1999/xlink"><clipPath id="p.0"><path d="m0 0l657.021 0l0 491.14697l-657.021 0l0 -491.14697z" clip-rule="nonzero"></path></clipPath><g clip-path="url(#p.0)"><path fill="#000000" fill-opacity="0.0" d="m0 0l657.021 0l0 491.14697l-657.021 0z" fill-rule="evenodd"></path><path fill="#ffd966" d="m262.8084 299.14932l0 0c0 -30.510468 24.733612 -55.24408 55.24408 -55.24408l0 0c14.651642 0 28.703186 5.820343 39.063477 16.180634c10.360291 10.36026 16.180634 24.411804 16.180634 39.063446l0 0c0 30.510498 -24.733643 55.24411 -55.24411 55.24411l0 0c-30.510468 0 -55.24408 -24.733612 -55.24408 -55.24411z" fill-rule="evenodd"></path><path stroke="#f1c232" stroke-width="1.0" stroke-linejoin="round" stroke-linecap="butt" d="m262.8084 299.14932l0 0c0 -30.510468 24.733612 -55.24408 55.24408 -55.24408l0 0c14.651642 0 28.703186 5.820343 39.063477 16.180634c10.360291 10.36026 16.180634 24.411804 16.180634 39.063446l0 0c0 30.510498 -24.733643 55.24411 -55.24411 55.24411l0 0c-30.510468 0 -55.24408 -24.733612 -55.24408 -55.24411z" fill-rule="evenodd"></path><path fill="#000000" fill-opacity="0.0" d="m262.80972 269.81628l110.48819 0l0 52.188965l-110.48819 0z" fill-rule="evenodd"></path><path fill="#000000" d="m277.29642 296.37015l4.84375 -3.0625l-4.84375 -3.171875l0 6.234375zm10.75 -6.234375l-4.84375 3.171875l4.84375 3.0625l0 -6.234375zm0.640625 -1.265625l0 8.765625l-6.015625 -3.90625l-6.015625 3.90625l0 -8.765625l6.015625 4.015625l6.015625 -4.015625z" fill-rule="nonzero"></path><path fill="#000000" d="m289.87454 317.01077q0.515625 0 0.734375 -0.265625q0.21875 -0.25 0.25 -0.640625q0.046875 -0.375 0.0625 -1.265625l0.03125 -8.578125q0 -0.75 0.078125 -1.15625l-1.265625 0.078125l0 -0.75q1.046875 0 1.4375 -0.109375q0.390625 -0.125 0.640625 -0.375l0.53125 0q0.078125 0.875 0.078125 0.96875q0.53125 -0.484375 1.265625 -0.78125q0.75 -0.296875 1.484375 -0.296875q1.046875 0 1.9375 0.546875q0.890625 0.546875 1.421875 1.546875q0.546875 1.0 0.546875 2.3125q0 1.484375 -0.625 2.625q-0.625 1.140625 -1.671875 1.78125q-1.03125 0.640625 -2.234375 0.640625q-1.21875 0 -2.125 -0.578125l0 2.9375q0 0.8125 -0.078125 1.21875l1.125 -0.0625l0 0.734375l-3.625 0l0 -0.53125zm4.671875 -4.421875q0.828125 0 1.4375 -0.515625q0.625 -0.515625 0.953125 -1.4375q0.34375 -0.921875 0.34375 -2.109375q0 -1.59375 -0.6875 -2.703125q-0.6875 -1.109375 -2.03125 -1.109375q-0.59375 0 -1.140625 0.28125q-0.546875 0.28125 -0.953125 0.71875q0.015625 0.125 0.015625 1.078125l-0.015625 5.09375q0.90625 0.703125 2.078125 0.703125zm6.0902405 -0.109375q0.515625 0 0.734375 -0.25q0.21875 -0.265625 0.265625 -0.65625q0.046875 -0.40625 0.046875 -1.265625l0 -4.046875q0 -0.75 0.078125 -1.15625l-1.265625 0.046875l0 -0.71875l0.546875 0q0.671875 0 0.96875 -0.109375q0.3125 -0.125 0.578125 -0.375l0.515625 0q0.078125 0.6875 0.09375 1.765625q0.4375 -0.734375 1.265625 -1.296875q0.828125 -0.578125 1.71875 -0.578125q0.53125 0 0.875 0.296875q0.359375 0.28125 0.359375 0.828125q0 0.28125 -0.21875 0.578125q-0.21875 0.28125 -0.625 0.28125q-0.390625 0 -0.640625 -0.296875q-0.25 -0.296875 -0.203125 -0.703125q-0.671875 -0.015625 -1.359375 0.515625q-0.671875 0.53125 -1.15625 1.421875l0.015625 4.359375q0 0.8125 -0.078125 1.21875l1.125 -0.0625l0 0.734375l-3.640625 0l0 -0.53125zm9.457977 -10.28125q-0.375 0 -0.671875 -0.3125q-0.28125 -0.3125 -0.28125 -0.75q0 -0.421875 0.296875 -0.734375q0.296875 -0.328125 0.671875 -0.328125q0.40625 0 0.671875 0.3125q0.28125 0.3125 0.28125 0.75q0 0.4375 -0.296875 0.75q-0.28125 0.3125 -0.671875 0.3125zm-1.765625 10.28125q0.515625 0 0.734375 -0.25q0.21875 -0.265625 0.265625 -0.65625q0.046875 -0.40625 0.046875 -1.265625l0 -4.046875q0 -0.515625 0.078125 -1.15625l-1.265625 0.078125l0 -0.75q1.046875 0 1.5 -0.125q0.453125 -0.125 0.703125 -0.359375l0.515625 0l0 7.171875q0 0.8125 -0.078125 1.21875l1.125 -0.0625l0 0.734375l-3.625 0l0 -0.53125zm9.32016 0.8125q-1.203125 0 -2.203125 -0.546875q-1.0 -0.546875 -1.59375 -1.578125q-0.578125 -1.03125 -0.578125 -2.4375q0 -1.25 0.59375 -2.375q0.59375 -1.125 1.640625 -1.8125q1.0625 -0.703125 2.390625 -0.703125q0.96875 0 1.703125 0.3125q0.75 0.296875 1.171875 0.796875q0.421875 0.5 0.421875 1.078125q0 0.40625 -0.234375 0.671875q-0.234375 0.265625 -0.640625 0.265625q-0.390625 0 -0.59375 -0.25q-0.1875 -0.265625 -0.1875 -0.546875q0 -0.4375 0.265625 -0.703125q-0.1875 -0.546875 -0.75 -0.75q-0.5625 -0.21875 -1.109375 -0.21875q-0.828125 0 -1.484375 0.453125q-0.640625 0.4375 -1.015625 1.296875q-0.359375 0.84375 -0.359375 2.046875q0 1.1875 0.375 2.109375q0.375 0.921875 1.0625 1.453125q0.703125 0.515625 1.609375 0.515625q0.796875 0 1.5625 -0.4375q0.78125 -0.4375 1.234375 -1.09375l0.453125 0.359375q-0.65625 1.03125 -1.703125 1.5625q-1.03125 0.53125 -2.03125 0.53125zm9.419861 0q-1.21875 0 -2.203125 -0.578125q-0.984375 -0.578125 -1.5625 -1.640625q-0.5625 -1.078125 -0.5625 -2.484375q0 -1.25 0.5625 -2.34375q0.578125 -1.09375 1.59375 -1.75q1.015625 -0.65625 2.3125 -0.65625q1.015625 0 1.828125 0.453125q0.828125 0.4375 1.296875 1.328125q0.484375 0.875 0.484375 2.15625l-6.25 0.09375q-0.015625 2.140625 0.703125 3.328125q0.71875 1.1875 2.21875 1.1875q0.828125 0 1.6875 -0.421875q0.859375 -0.421875 1.328125 -1.046875l0.421875 0.359375q-0.671875 1.03125 -1.75 1.53125q-1.078125 0.484375 -2.109375 0.484375zm2.078125 -6.15625q0 -1.078125 -0.484375 -1.828125q-0.46875 -0.765625 -1.4375 -0.765625q-2.203125 0 -2.609375 2.59375l4.53125 0zm3.4881287 6.765625l10.921875 0.0625l0 1.015625l-10.921875 0l0 -1.078125zm14.482117 -11.703125q-0.375 0 -0.671875 -0.3125q-0.28125 -0.3125 -0.28125 -0.75q0 -0.421875 0.296875 -0.734375q0.296875 -0.328125 0.671875 -0.328125q0.40625 0 0.671875 0.3125q0.28125 0.3125 0.28125 0.75q0 0.4375 -0.296875 0.75q-0.28125 0.3125 -0.671875 0.3125zm-1.765625 10.28125q0.515625 0 0.734375 -0.25q0.21875 -0.265625 0.265625 -0.65625q0.046875 -0.40625 0.046875 -1.265625l0 -4.046875q0 -0.515625 0.078125 -1.15625l-1.265625 0.078125l0 -0.75q1.046875 0 1.5 -0.125q0.453125 -0.125 0.703125 -0.359375l0.515625 0l0 7.171875q0 0.8125 -0.078125 1.21875l1.125 -0.0625l0 0.734375l-3.625 0l0 -0.53125zm8.78891 0.8125q-1.09375 0 -1.96875 -0.546875q-0.875 -0.546875 -1.375 -1.5625q-0.484375 -1.015625 -0.484375 -2.359375q0 -1.421875 0.578125 -2.5625q0.59375 -1.140625 1.625 -1.78125q1.046875 -0.640625 2.359375 -0.640625q0.546875 0 1.125 0.15625q0.578125 0.15625 0.953125 0.34375l0 -2.4375q0 -0.671875 0.046875 -1.15625l-1.25 0.078125l0 -0.75q1.046875 0 1.5 -0.125q0.453125 -0.125 0.703125 -0.34375l0.515625 0l0 11.515625q0 0.578125 -0.078125 1.21875l1.265625 -0.078125l0 0.75l-2.546875 0q-0.078125 -0.484375 -0.125 -0.921875q-0.515625 0.5625 -1.25 0.890625q-0.734375 0.3125 -1.59375 0.3125zm0.640625 -0.875q0.578125 0 1.171875 -0.328125q0.59375 -0.328125 1.0 -0.84375q-0.015625 -0.28125 -0.015625 -0.96875l0.015625 -5.125q-0.828125 -0.609375 -1.96875 -0.609375q-1.28125 0 -2.0625 1.0625q-0.78125 1.046875 -0.78125 2.78125q0 1.8125 0.6875 2.921875q0.703125 1.109375 1.953125 1.109375z" fill-rule="nonzero"></path><path fill="#6fa8dc" d="m94.7231 59.412075l0 0c0 -25.474678 20.651306 -46.125984 46.125977 -46.125984l0 0c12.233383 0 23.965698 4.859688 32.615997 13.509989c8.650299 8.650299 13.5099945 20.382626 13.5099945 32.615997l0 0c0 25.474674 -20.651306 46.12598 -46.12599 46.12598l0 0c-25.47467 0 -46.125977 -20.651306 -46.125977 -46.12598z" fill-rule="evenodd"></path><path stroke="#0b5394" stroke-width="1.0" stroke-linejoin="round" stroke-linecap="butt" d="m94.7231 59.412075l0 0c0 -25.474678 20.651306 -46.125984 46.125977 -46.125984l0 0c12.233383 0 23.965698 4.859688 32.615997 13.509989c8.650299 8.650299 13.5099945 20.382626 13.5099945 32.615997l0 0c0 25.474674 -20.651306 46.12598 -46.12599 46.12598l0 0c-25.47467 0 -46.125977 -20.651306 -46.125977 -46.12598z" fill-rule="evenodd"></path><path fill="#93c47d" d="m482.11942 59.412075l0 0c0 -25.474678 20.651306 -46.125984 46.126007 -46.125984l0 0c12.233337 0 23.965698 4.859688 32.615967 13.509989c8.65033 8.650299 13.51001 20.382626 13.51001 32.615997l0 0c0 25.474674 -20.651306 46.12598 -46.125977 46.12598l0 0c-25.4747 0 -46.126007 -20.651306 -46.126007 -46.12598z" fill-rule="evenodd"></path><path stroke="#38761d" stroke-width="1.0" stroke-linejoin="round" stroke-linecap="butt" d="m482.11942 59.412075l0 0c0 -25.474678 20.651306 -46.125984 46.126007 -46.125984l0 0c12.233337 0 23.965698 4.859688 32.615967 13.509989c8.65033 8.650299 13.51001 20.382626 13.51001 32.615997l0 0c0 25.474674 -20.651306 46.12598 -46.125977 46.12598l0 0c-25.4747 0 -46.126007 -20.651306 -46.126007 -46.12598z" fill-rule="evenodd"></path><path fill="#000000" fill-opacity="0.0" d="m140.84908 105.538055c0 34.591644 34.535446 49.864395 69.07088 69.18329c34.53543 19.318909 69.07086 42.683945 69.07086 85.36789" fill-rule="evenodd"></path><path stroke="#000000" stroke-width="1.0" stroke-linejoin="round" stroke-linecap="butt" d="m140.84908 105.538055c0 34.591644 34.535446 49.864395 69.07088 69.18329c34.53543 19.318909 69.07086 42.683945 69.07086 85.36789" fill-rule="evenodd"></path><path fill="#000000" fill-opacity="0.0" d="m495.62943 92.02807c0 41.346855 -34.629944 61.685844 -69.25986 82.69372c-34.629913 21.007874 -69.25986 42.68463 -69.25986 85.36928" fill-rule="evenodd"></path><path stroke="#000000" stroke-width="1.0" stroke-linejoin="round" stroke-linecap="butt" stroke-dasharray="4.0,3.0" d="m495.3771 98.02276l-0.052703857 0.6038437c-0.028808594 0.30558014 -0.059570312 0.6099472 -0.092315674 0.9131088c-0.26211548 2.4253464 -0.651001 4.773926 -1.1582947 7.0510254c-1.0145874 4.5541916 -2.5025635 8.822487 -4.396393 12.847206c-3.7876282 8.049423 -9.198547 15.1245575 -15.691681 21.564102c-12.986206 12.879089 -30.301178 23.215805 -47.61612 33.71974c-34.629944 21.007874 -69.25986 42.68463 -69.25986 85.36928" fill-rule="evenodd"></path><path fill="#000000" stroke="#000000" stroke-width="1.0" stroke-linecap="butt" d="m497.02737 98.09223l-1.4594116 -4.603554l-1.8411255 4.4646225z" fill-rule="evenodd"></path><path fill="#000000" fill-opacity="0.0" d="m357.11597 260.08588c0 -42.68213 50.93701 -64.35637 101.87402 -85.36424c50.93701 -21.007889 101.87402 -41.34938 101.87402 -82.69876" fill-rule="evenodd"></path><path stroke="#000000" stroke-width="1.0" stroke-linejoin="round" stroke-linecap="butt" d="m357.46133 254.0958l0.042022705 -0.35243225c0.019683838 -0.15859985 0.040161133 -0.31689453 0.061309814 -0.47488403c0.04232788 -0.31596375 0.08761597 -0.6307373 0.13580322 -0.94429016c0.38549805 -2.508484 0.95755005 -4.939865 1.7036743 -7.299103c1.4923096 -4.718506 3.6809998 -9.148483 6.4666443 -13.329666c5.571228 -8.362396 13.530121 -15.7296295 23.08081 -22.419525c19.10138 -13.379822 44.569885 -24.050339 70.03839 -34.554276c50.93701 -21.007858 101.87402 -41.349365 101.87402 -82.698746" fill-rule="evenodd"></path><path fill="#000000" stroke="#000000" stroke-width="1.0" stroke-linecap="butt" d="m355.81232 254.00073l1.3878174 4.625641l1.9101868 -4.435501z" fill-rule="evenodd"></path><path fill="#000000" fill-opacity="0.0" d="m395.72647 274.27567l236.1575 -181.41733l28.881897 37.574806l-236.1575 181.41733z" fill-rule="evenodd"></path><path fill="#38761d" d="m432.17865 277.67752l-1.9901428 -2.5891418l-2.4533997 1.8847046l-0.97125244 -1.2636108l2.4533997 -1.8847046l-1.8187561 -2.36615l1.4373474 -1.1041565l1.8187256 2.36615l2.3666687 -1.8180847l0.97128296 1.2635803l-2.3666687 1.8180847l1.9901428 2.5891418l-1.4373474 1.104187z" fill-rule="nonzero"></path><path fill="#38761d" d="m448.08353 270.08957l-8.627136 -11.223724l4.2377014 -3.2554169l0.6855774 0.8919525l-3.2835693 2.522461l7.2940063 9.48938l3.29599 -2.5319824l0.64749146 0.8424072l-4.250061 3.264923zm0.14804077 -12.960236l1.0780029 -0.828125l1.0284119 1.3379211q-0.34829712 -0.91464233 -0.088775635 -1.7050934q0.25952148 -0.79048157 1.0029907 -1.3616028q0.768219 -0.5901642 1.7172852 -0.6887207q0.94903564 -0.09854126 1.9330444 0.38684082q0.9840088 0.48536682 1.8505249 1.6127014q0.8760681 1.1397247 1.0956116 2.271469q0.23196411 1.1222229 -0.100982666 2.0479126q-0.34249878 0.91329956 -1.0859375 1.4844055q-0.60717773 0.46643066 -1.3494568 0.60317993q-0.75183105 0.12438965 -1.4768066 -0.12652588l2.580536 3.3572083l-1.0903931 0.8376465l-7.094055 -9.229218zm7.5329895 3.7494812q0.81781006 -0.62823486 0.89642334 -1.6540833q0.08148193 -1.04776 -0.98501587 -2.4352417q-0.97125244 -1.2635956 -1.9811096 -1.5518188q-1.006958 -0.31011963 -1.8991089 0.37522888q-0.8425598 0.6472931 -0.8326111 1.7627106q0.022338867 1.1059265 1.1269226 2.5429688q0.91986084 1.1454468 1.8697205 1.3812256q0.96221924 0.22628784 1.804779 -0.42099zm6.3647156 -12.179596l0.009521484 0.012374878q-0.7383728 -0.06326294 -1.1405029 0.028915405q-0.38974 0.08265686 -0.77386475 0.37774658q-0.5328064 0.40930176 -0.79415894 1.0435638q-0.27090454 0.6218567 -0.14929199 1.3953857q0.11206055 0.7611542 0.74053955 1.5787659l2.761444 3.592575l-1.0780029 0.8281555l-5.208679 -6.776367l1.1152039 -0.85668945l0.92456055 1.2797699q-0.22921753 -0.8878937 0.06750488 -1.7069244q0.2966919 -0.81903076 0.9906006 -1.3520813q1.0903931 -0.8376465 2.3680115 -0.6369171l0.16711426 1.1917267zm0.009521484 0.012374878q0.165802 0.010574341 0.10671997 0.036254883q-0.05911255 0.0256958 -0.10580444 0.04185486l-9.1552734E-4 -0.07810974zm-0.12298584 0.17330933q-0.038085938 -0.049560547 0.008605957 -0.065719604q0.049560547 -0.038085938 0.11529541 -0.02947998l0.032348633 0.09336853l-0.14672852 0.014205933l-0.009521484 -0.012374878zm6.791992 3.1956482l-0.65704346 -0.85479736l1.7347412 -1.3326263l-3.8755493 -5.0420074l-1.6355896 1.256485l-0.66656494 -0.86717224l2.7012024 -2.0750885l4.5421143 5.9091797l1.586029 -1.218399l0.65701294 0.8547821l-4.3863525 3.3696442zm-4.0791016 -9.870575q-0.30975342 0.23797607 -0.7041931 0.18632507q-0.3944397 -0.051651 -0.6325073 -0.36135864q-0.2475586 -0.32209778 -0.20831299 -0.7068939q0.051635742 -0.3943329 0.3737793 -0.6418152q0.30978394 -0.23797607 0.7137451 -0.17393494q0.40682983 0.042129517 0.64486694 0.35183716q0.23806763 0.30970764 0.17404175 0.71354675q-0.051635742 0.3943329 -0.36141968 0.6322937zm13.667358 1.2438049q1.0160828 -0.7805481 1.121521 -2.1816864l1.1718445 0.24258423q-0.17236328 1.826889 -1.6221008 2.9405823q-0.97888184 0.75198364 -2.0994263 0.8837738q-1.120575 0.13180542 -2.1731873 -0.340271q-1.0526123 -0.47209167 -1.8239136 -1.4755249q-0.77130127 -1.0034485 -0.947052 -2.1294556q-0.18527222 -1.138382 0.23065186 -2.1869202q0.41592407 -1.048523 1.3824158 -1.7909851q0.81777954 -0.62823486 1.7315979 -0.7982483q0.916687 -0.19190979 1.795044 0.0790863l-0.16442871 1.170578l-0.0028686523 0.021911621q-0.8717041 -0.2367096 -1.5015564 -0.10749817q-0.62701416 0.107299805 -1.2837219 0.6117859q-0.58236694 0.4473877 -0.8304138 1.150238q-0.2480774 0.7028351 -0.09790039 1.5135345q0.140625 0.7983093 0.7214966 1.5539856q0.58084106 0.7556915 1.3448181 1.1342621q0.7763672 0.36904907 1.5757751 0.3066101q0.8023071 -0.08433533 1.471405 -0.5983429zm-1.5514526 -5.4284363q-0.06665039 -0.08673096 0.13342285 -0.08280945l-0.001953125 0.10002136l-0.13146973 -0.017211914zm0.1515503 -0.13613892q0.1505127 0.041992188 0.09429932 0.045776367q-0.06573486 -0.008605957 -0.11242676 0.0075531006l0.018127441 -0.053329468zm9.273163 1.0137634q-1.5116882 1.1612854 -3.10849 0.9299011q-1.5968018 -0.23138428 -2.8822937 -1.9037933q-0.8569946 -1.1149292 -1.0670471 -2.2342834q-0.21002197 -1.1193542 0.17248535 -2.08313q0.38253784 -0.9637604 1.2499084 -1.6300812q1.2266846 -0.9423523 2.6109924 -0.70536804q1.396698 0.22746277 2.606018 1.800766q0.123809814 0.16104126 0.35610962 0.5145569l-4.8076477 3.693283q1.0141602 1.1912231 2.1412659 1.3499603q1.1175537 0.14634705 2.0964355 -0.6056366q1.0656128 -0.8186188 1.1662598 -2.097824l1.0327759 0.112960815q-0.05508423 1.697403 -1.5667725 2.8586884zm-1.75354 -5.3323364q-0.7331848 -0.9539032 -1.6354065 -1.1277466q-0.899353 -0.195755 -1.6923828 0.4134369q-0.7310791 0.56159973 -0.8887329 1.5102539q-0.15478516 0.92674255 0.49926758 2.0596771l3.7172546 -2.8556213zm6.4441223 3.3840637l-0.6950989 -0.90434265l6.3688965 -4.892639l0.6951294 0.90434265l-6.368927 4.892639zm7.4373474 -7.604904l-0.65704346 -0.85479736l1.7347107 -1.3326111l-3.8755188 -5.0420074l-1.6355896 1.2564697l-0.66656494 -0.86717224l2.7012024 -2.0750885l4.5421143 5.9091797l1.586029 -1.218399l0.65701294 0.8547821l-4.3863525 3.3696442zm-4.0791016 -9.870575q-0.30975342 0.23797607 -0.7041931 0.18632507q-0.3944397 -0.051651 -0.6325073 -0.36135864q-0.2475586 -0.32209778 -0.20831299 -0.7068939q0.051635742 -0.3943329 0.3737793 -0.6418152q0.30978394 -0.23797607 0.7137451 -0.17393494q0.40682983 0.042129517 0.64486694 0.35183716q0.23806763 0.30970764 0.17404175 0.71354675q-0.051635742 0.3943329 -0.36141968 0.6322937zm13.573273 2.8135376q-0.71868896 0.5520935 -1.6772461 0.6382599q-0.946167 0.0766449 -1.9616089 -0.42399597q-1.0249939 -0.51301575 -1.910553 -1.6651306q-0.90460205 -1.1768799 -1.0956116 -2.2714539q-0.17858887 -1.1040955 0.18005371 -1.9707184q0.36154175 -0.88853455 1.0802002 -1.4406128q0.68148804 -0.52352905 1.4275818 -0.60409546q0.74609375 -0.080566406 1.4376526 0.2551117l-3.123291 -4.063339l1.127594 -0.86621094l0.076171875 0.099105835q-0.010559082 0.16574097 0.04083252 0.28388977q0.0513916 0.118133545 0.2513733 0.3782959l6.2589417 8.117142q0.27615356 0.3592682 0.48187256 0.5756073q0.19616699 0.20394897 0.4762268 0.36317444l-1.0532227 0.8090973q-0.2800598 -0.15922546 -0.4762268 -0.36317444q-0.205719 -0.21633911 -0.48187256 -0.5756073q0.115875244 0.8173523 -0.14459229 1.5297089q-0.2699585 0.6999817 -0.9142761 1.1949463zm-0.54071045 -1.0623779q0.91693115 -0.7043915 0.7859497 -1.7465363q-0.12814331 -1.0640564 -1.0422668 -2.2533264q-0.92367554 -1.2016602 -1.9468079 -1.5584717q-1.0202637 -0.3787079 -1.9619751 0.3447113q-0.87976074 0.6758423 -0.8488159 1.7160339q0.033843994 1.01828 0.9098816 2.1580048q0.9998169 1.300766 2.085846 1.6880798q1.076477 0.37493896 2.0181885 -0.34849548zm4.3815613 -9.375427q-0.3345337 0.25700378 -0.7975769 0.21865845q-0.45065308 -0.04786682 -0.71728516 -0.39474487q-0.26663208 -0.3468628 -0.1968689 -0.79452515q0.0602417 -0.4600525 0.40719604 -0.72657776q0.35934448 -0.27604675 0.81951904 -0.21577454q0.4630432 0.038345337 0.7296753 0.3852234q0.26660156 0.3468628 0.18444824 0.80404663q-0.06976318 0.4476471 -0.42910767 0.72369385zm3.6279602 4.7199097q-0.3717041 0.28556824 -0.8004761 0.24057007q-0.43823242 -0.057388306 -0.71435547 -0.4166565q-0.27618408 -0.35925293 -0.2064209 -0.8069153q0.06976318 -0.44766235 0.41674805 -0.71417236q0.35931396 -0.27604675 0.80999756 -0.22817993q0.4630127 0.038345337 0.73913574 0.39761353q0.2666626 0.3468628 0.19689941 0.79452515q-0.06976318 0.44766235 -0.44152832 0.73321533zm14.559448 -11.44075l-6.10376 -7.940857l-1.4520264 1.9824219l-0.6829834 -0.4013977l1.4544678 -3.1073608l0.71868896 -0.5520935l7.094055 9.229233l-1.0284424 0.7900543zm8.002014 -2.8961792q0.113708496 -0.69815063 0.043518066 -1.3535309q-0.057800293 -0.664917 -0.27679443 -0.94984436q-0.09527588 -0.12387085 -0.24578857 -0.1658783q-0.14099121 -0.02960205 -0.47253418 -0.050735474q-0.3630371 -0.036392212 -0.55737305 -0.084121704q-0.20385742 -0.06011963 -0.35620117 -0.2583313q-0.27618408 -0.35925293 -0.23120117 -0.7878876q0.047851562 -0.45051575 0.43200684 -0.74560547q0.39648438 -0.30459595 0.96051025 -0.18617249q0.576355 0.10890198 0.98583984 0.6415863q0.8855591 1.1521149 0.56884766 3.996231l-0.8508301 -0.05570984zm6.475586 -18.983551l1.0780029 -0.82814026l1.0283813 1.3379364q-0.3482666 -0.9146271 -0.08874512 -1.7051086q0.25952148 -0.7904663 1.0029907 -1.3615875q0.7682495 -0.5901642 1.7172852 -0.6887207q0.94903564 -0.09854126 1.9330444 0.38682556q0.9840088 0.48538208 1.8505249 1.6127014q0.8760376 1.1397247 1.095581 2.271469q0.23199463 1.1222229 -0.10095215 2.0479126q-0.3425293 0.91329956 -1.0859375 1.4844208q-0.60717773 0.46643066 -1.3494873 0.6031952q-0.75183105 0.12437439 -1.4767456 -0.12654114l2.5805054 3.3572083l-1.0903931 0.8376465l-7.094055 -9.229218zm7.53302 3.749466q0.817749 -0.62823486 0.8963623 -1.6540833q0.08148193 -1.0477448 -0.98498535 -2.4352264q-0.97125244 -1.2635956 -1.9810791 -1.5518188q-1.007019 -0.31011963 -1.8991089 0.37522888q-0.84259033 0.64727783 -0.8326416 1.7627106q0.022338867 1.1059113 1.1268921 2.5429535q0.9199219 1.1454468 1.869751 1.3812408q0.96221924 0.22627258 1.8048096 -0.42100525zm6.364685 -12.179596l0.009521484 0.012390137q-0.7384033 -0.06326294 -1.1405029 0.028915405q-0.3897705 0.08265686 -0.77386475 0.37774658q-0.5328369 0.40930176 -0.79418945 1.0435486q-0.27087402 0.62187195 -0.14929199 1.395401q0.11206055 0.7611389 0.74053955 1.5787659l2.7614746 3.5925903l-1.0780029 0.828125l-5.208679 -6.776352l1.1151733 -0.85668945l0.92456055 1.2797699q-0.22918701 -0.88790894 0.06750488 -1.7069244q0.2966919 -0.81903076 0.9906006 -1.3520813q1.0903931 -0.8376465 2.368042 -0.6369324l0.16711426 1.1917267zm0.009521484 0.012390137q0.16577148 0.010574341 0.10668945 0.036254883q-0.05908203 0.0256958 -0.105773926 0.04185486l-9.1552734E-4 -0.07810974zm-0.12298584 0.17329407q-0.038085938 -0.049545288 0.008605957 -0.065719604q0.049560547 -0.03807068 0.11529541 -0.029464722l0.032348633 0.09336853l-0.14672852 0.014205933l-0.009521484 -0.012390137zm6.791992 3.1956482l-0.65704346 -0.8547821l1.7347412 -1.3326263l-3.8755493 -5.0420074l-1.6356201 1.2564697l-0.66656494 -0.86717224l2.701233 -2.0750885l4.5421143 5.909195l1.5859985 -1.218399l0.65704346 0.8547821l-4.3863525 3.369629zm-4.0791016 -9.87056q-0.30975342 0.23797607 -0.70422363 0.18632507q-0.39440918 -0.051651 -0.6324463 -0.36135864q-0.24761963 -0.32209778 -0.20837402 -0.7069092q0.051635742 -0.39431763 0.37384033 -0.6418152q0.30975342 -0.23796082 0.7136841 -0.17391968q0.40686035 0.042129517 0.64489746 0.35183716q0.23803711 0.30970764 0.17401123 0.71354675q-0.051635742 0.3943329 -0.36138916 0.6322937zm13.667358 1.2437897q1.0160522 -0.78053284 1.121521 -2.1816711l1.171814 0.24258423q-0.17236328 1.826889 -1.6220703 2.9405823q-0.97888184 0.7519684 -2.0994263 0.8837738q-1.1205444 0.13179016 -2.1732178 -0.34028625q-1.0526123 -0.47207642 -1.8239136 -1.4755249q-0.77130127 -1.0034485 -0.9470215 -2.1294403q-0.1852417 -1.1383972 0.23065186 -2.1869202q0.41589355 -1.048523 1.3823853 -1.7909851q0.81781006 -0.62823486 1.7316284 -0.7982483q0.916687 -0.19192505 1.795044 0.079071045l-0.16442871 1.1705933l-0.0028686523 0.021911621q-0.8717041 -0.2367096 -1.5015869 -0.10749817q-0.6269531 0.107299805 -1.2836914 0.6117859q-0.58239746 0.4473877 -0.83044434 1.1502228q-0.24804688 0.70285034 -0.09790039 1.5135498q0.140625 0.7983093 0.7214966 1.5539856q0.5808716 0.75567627 1.3448486 1.1342468q0.7763672 0.36906433 1.5758057 0.30662537q0.8022461 -0.08433533 1.4713745 -0.59835815zm-1.5514526 -5.4284363q-0.06665039 -0.0867157 0.13342285 -0.08279419l-0.001953125 0.10002136l-0.13146973 -0.017227173zm0.1515503 -0.13612366q0.1505127 0.041992188 0.09429932 0.04576111q-0.06573486 -0.008605957 -0.11242676 0.0075683594l0.018127441 -0.053329468zm9.273132 1.0137482q-1.5116577 1.1612854 -3.1084595 0.9299164q-1.5968018 -0.23138428 -2.8823242 -1.9037933q-0.8569946 -1.1149445 -1.0670166 -2.2342987q-0.21002197 -1.1193542 0.17248535 -2.0831146q0.38250732 -0.9637604 1.2498779 -1.6300812q1.2266846 -0.9423523 2.611023 -0.70536804q1.3966675 0.22744751 2.606018 1.800766q0.1237793 0.16104126 0.3560791 0.5145569l-4.807617 3.6932678q1.0141602 1.1912384 2.1412354 1.3499603q1.1175537 0.14634705 2.0964355 -0.6056366q1.0656128 -0.8186035 1.1662598 -2.097824l1.0327759 0.112960815q-0.05505371 1.697403 -1.5667725 2.8586884zm-1.753479 -5.3323364q-0.73321533 -0.95388794 -1.635437 -1.1277466q-0.899353 -0.195755 -1.6923828 0.41345215q-0.7310791 0.56159973 -0.8887329 1.5102539q-0.15478516 0.92674255 0.49926758 2.0596619l3.7172852 -2.8556213zm5.024353 -4.6676025q-0.3345337 0.25700378 -0.7975464 0.21865845q-0.4506836 -0.04788208 -0.71728516 -0.39474487q-0.2666626 -0.34687805 -0.19689941 -0.79452515q0.0602417 -0.4600525 0.40722656 -0.72657776q0.35931396 -0.27604675 0.81951904 -0.2157898q0.4630127 0.038360596 0.7296753 0.3852234q0.26660156 0.34687805 0.18444824 0.80404663q-0.06976318 0.44766235 -0.42913818 0.7237091zm3.6279907 4.7199097q-0.3717041 0.28556824 -0.8004761 0.24057007q-0.43823242 -0.057403564 -0.7144165 -0.4166565q-0.27612305 -0.35925293 -0.20635986 -0.8069153q0.06976318 -0.44766235 0.416687 -0.7141876q0.359375 -0.2760315 0.80999756 -0.22816467q0.46307373 0.038345337 0.7391968 0.39761353q0.26660156 0.3468628 0.19683838 0.79452515q-0.06976318 0.44766235 -0.4414673 0.73321533zm14.559448 -11.44075l-6.10376 -7.940857l-1.4520264 1.9824066l-0.6829834 -0.40138245l1.4544678 -3.1073608l0.71868896 -0.5520935l7.094055 9.229233l-1.0284424 0.7900543zm0.56256104 -15.189926q1.350647 -1.0375366 3.0653687 -0.34506226q1.7175293 0.67056274 3.4125366 2.8756714q1.7425537 2.267044 1.9417725 4.0646057q0.21166992 1.7880402 -1.1637573 2.8446198q-1.3877563 1.0661011 -3.0739136 0.41078186q-1.6737671 -0.66482544 -3.4163208 -2.9318695q-1.6949463 -2.2051086 -1.913269 -4.0274353q-0.21539307 -1.8442535 1.147583 -2.8913116zm0.6951294 0.90434265q-0.85498047 0.6567993 -0.5354614 2.0467224q0.319458 1.3899384 1.6716309 3.149063q0.7427368 0.96629333 1.4503784 1.6048737l0.01159668 -6.471573q-0.7658081 -0.53479004 -1.4356079 -0.61135864q-0.6668701 -0.098480225 -1.1625366 0.28227234zm5.8656616 7.6311493q0.84259033 -0.64727783 0.5516968 -2.0000458q-0.2909546 -1.352768 -1.7001953 -3.1862335q-0.65704346 -0.8547821 -1.2322998 -1.3980408l-0.08111572 6.406769q1.4830322 0.9295349 2.461914 0.17755127zm0.8366089 -14.218185q1.3505859 -1.0375443 3.0653076 -0.3450699q1.7175903 0.6705704 3.4125366 2.8756638q1.7425537 2.2670593 1.9418335 4.0646057q0.21160889 1.7880402 -1.1637573 2.8446198q-1.3877563 1.0661011 -3.0739136 0.41079712q-1.6737671 -0.66482544 -3.4163818 -2.9318695q-1.6949463 -2.2051086 -1.913208 -4.0274506q-0.2154541 -1.8442383 1.147583 -2.8912964zm0.6951294 0.90434265q-0.85498047 0.65678406 -0.53552246 2.0467224q0.31951904 1.3899384 1.6716919 3.149063q0.7426758 0.9662781 1.4503174 1.6048737l0.011657715 -6.471588q-0.7658081 -0.53479004 -1.4356079 -0.61135864q-0.66693115 -0.098464966 -1.1625366 0.2822876zm5.8656616 7.6311493q0.84259033 -0.64727783 0.55163574 -2.0000458q-0.29089355 -1.3527832 -1.7001953 -3.1862335q-0.65704346 -0.8547821 -1.2322388 -1.3980408l-0.08117676 6.4067535q1.4830933 0.9295349 2.461975 0.17756653zm11.456238 -5.529999l-4.250061 3.264923l-0.647522 -0.84239197l3.3083496 -2.541504l-7.2940063 -9.48938l-3.2835693 2.522461l-0.6856079 -0.8919449l4.225281 -3.2458954l8.627136 11.223732z" fill-rule="nonzero"></path><path fill="#000000" fill-opacity="0.0" d="m240.3806 271.33228l-210.61417 -210.5512l-33.51181 33.51181l210.61418 210.5512z" fill-rule="evenodd"></path><path fill="#38761d" d="m24.536835 90.76789l2.309145 -2.309143l-2.1879387 -2.1872864l1.1269512 -1.1269531l2.1879387 2.1872864l2.1102715 -2.1102753l1.2818241 1.2814407l-2.1102715 2.1102753l2.1105862 2.1099548l-1.1269512 1.1269531l-2.110588 -2.1099548l-2.309145 2.309143l-1.2818222 -1.2814407z" fill-rule="nonzero"></path><path fill="#38761d" d="m34.12879 105.54902l10.009983 -10.009979l3.7791634 3.778038l-0.7954941 0.7954941l-2.9283028 -2.9274292l-8.463184 8.463188l2.939354 2.938469l-0.7513008 0.7513046l-3.7902184 -3.7890854zm9.414616 7.3570786q-0.54146194 -0.5412979 -0.76250076 -1.2483368q-0.22104263 -0.7070389 -0.08850479 -1.4803848l-1.1159515 0.4751358l-0.6077614 -0.6075821l8.772545 -8.772545l1.0829163 1.0825958l-0.088386536 0.088386536q-0.17679214 1.5258789E-5 -0.28727722 0.06630707q-0.09944153 0.0773468 -0.33145905 0.30936432l-3.0825462 3.0825424q0.7734413 -0.19891357 1.5579643 0.010932922q0.7955704 0.19879913 1.3038788 0.70695496q1.1381683 1.1378326 1.0167351 2.6071854q-0.11038208 1.4583054 -1.6350822 2.9830093q-1.0275154 1.0275116 -2.121376 1.3921661q-1.0828094 0.3757019 -2.0330734 0.1548233q-0.939209 -0.20983887 -1.5801201 -0.8505554zm0.71813583 -0.9612045q0.70721054 0.70700073 1.7458458 0.6185379q1.0386353 -0.0884552 2.2318764 -1.2817001q1.160099 -1.1600952 1.3036613 -2.1875458q0.1546135 -1.0384979 -0.59679794 -1.7896881q-0.7403641 -0.7401428 -1.8673859 -0.54119873q-1.1159706 0.20999146 -2.1545334 1.248558q-2.2980957 2.2980957 -0.6626663 3.9330368zm12.906017 4.74955l-0.011047363 0.011047363q-0.033203125 -0.7401886 -0.17687225 -1.126854q-0.13262177 -0.37561035 -0.47517776 -0.71806335q-0.4751587 -0.47501373 -1.138134 -0.6517334q-0.65192795 -0.1877594 -1.4032669 0.0332489q-0.7402916 0.20996094 -1.4694977 0.93917084l-3.2040787 3.204071l-0.96136475 -0.9610748l6.0435524 -6.043556l0.9945183 0.99422455l-1.1490555 1.082756q0.8507767 -0.34253693 1.7015915 -0.15479279q0.85081863 0.18775177 1.4696274 0.8063736q0.97241974 0.9721298 0.9393654 2.2647095l-1.1601601 0.32047272zm-0.011047363 0.011047363q0.011062622 0.16571808 -0.022090912 0.11048126q-0.03314972 -0.055236816 -0.055252075 -0.09942627l0.07734299 -0.011054993zm-0.18784714 -0.09941101q0.044193268 -0.044197083 0.066295624 -7.6293945E-6q0.044200897 0.044189453 0.044208527 0.11047363l-0.088394165 0.044197083l-0.03315735 -0.14361572l0.011047363 -0.011047363zm5.7790375 2.8830185q1.2928696 1.2924881 1.2929764 2.6403122q0.011146545 1.3588638 -1.6019402 2.9719543l-3.2040787 3.204071l-1.027668 -1.027359l0.9280777 -0.9280777q-1.624218 0.5193634 -3.1270447 -0.98300934q-1.0055656 -1.0052643 -1.1161385 -2.0216522q-0.110569 -1.0163803 0.6407318 -1.7676773q0.64081573 -0.64081573 1.5247612 -0.7071686q0.88394547 -0.066352844 1.8231735 0.3644333q0.95027924 0.44184113 1.7790413 1.2703552q0.75141525 0.7511902 1.2818375 1.4361115q0.9391136 -1.0937958 0.8948517 -1.955513q-0.03321457 -0.8727722 -0.93933105 -1.7786102q-0.44200516 -0.44187927 -1.0386925 -0.6848831q-0.57458496 -0.24301147 -1.2485962 -0.25400543l0.14356232 -1.07164q1.6905518 -0.011177063 2.9944763 1.2923584zm-5.9220695 5.2370605q0.9834671 0.9831772 2.1105003 0.98309326q1.1380844 -0.011138916 2.2760925 -1.0386581q-0.4972725 -0.6959686 -1.1823845 -1.3808746q-0.9945183 -0.99422455 -1.9116364 -1.2482529q-0.91711426 -0.25402832 -1.5910759 0.41993713q-0.98332214 0.9833145 0.29850388 2.2647552zm10.121166 -0.7740936l0.928215 0.92794037l-1.0717087 1.0717087q0.90602875 -0.19892883 1.7789459 0.010910034q0.8729172 0.20983887 1.4806747 0.81742096q0.79561615 0.79537964 0.6631088 1.9001617q-0.12145996 1.0937347 -1.4141388 2.3864136l-3.657074 3.6570587l-0.928215 -0.92793274l3.6239243 -3.6239166q0.905983 -0.9059906 1.0053711 -1.6240997q0.110443115 -0.70706177 -0.38681793 -1.2041702q-0.40885925 -0.40873718 -1.0718307 -0.5854492q-0.64087677 -0.17671204 -1.3480301 -0.021995544q-0.6960983 0.16577148 -1.2374725 0.7071457l-3.469242 3.469246l-0.92821884 -0.92793274l6.032509 -6.032509zm2.5645676 14.892128q-0.6409149 -0.64071655 -0.85092163 -1.5797577q-0.19895935 -0.9279938 0.16558838 -1.999649q0.3755951 -1.0827026 1.4031143 -2.1102142q1.049614 -1.0496216 2.1103287 -1.381134q1.0717621 -0.3204651 1.977829 -0.07746887q0.9281616 0.2429657 1.5690765 0.8836975q0.60775757 0.60757446 0.78460693 1.3367157q0.17684174 0.729126 -0.06619263 1.4582977l3.6239243 -3.6239166l1.0055695 1.0052643l-0.088386536 0.088378906q-0.16574097 0.011062622 -0.27622986 0.07736206q-0.11048889 0.06629944 -0.3425064 0.29830933l-7.2367935 7.258896q-0.32041168 0.32040405 -0.5082321 0.5524292q-0.17677307 0.22096252 -0.29829407 0.5192566l-0.93927 -0.9389801q0.121520996 -0.29829407 0.29829407 -0.51927185q0.18782043 -0.23200989 0.5082321 -0.55241394q-0.79553986 0.2210083 -1.5358582 0.055343628q-0.72927094 -0.17671204 -1.3038788 -0.7511444zm0.9833374 -0.6739807q0.8177185 0.81747437 1.8342361 0.5522461q1.0386276 -0.26522827 2.0992813 -1.325882q1.0717087 -1.0717163 1.2926178 -2.132309q0.24301147 -1.0605927 -0.5968094 -1.9001617q-0.78456116 -0.7843323 -1.8121414 -0.6185303q-1.0054779 0.16578674 -2.0219421 1.182251q-1.1601028 1.1600952 -1.4030991 2.2869873q-0.23195648 1.1158295 0.60785675 1.9553986zm9.867325 3.125763q-0.2983551 -0.29826355 -0.32048798 -0.76226807q-0.01108551 -0.45295715 0.29827118 -0.76231384q0.30936432 -0.3093567 0.76239014 -0.29833984q0.46407318 -4.5776367E-5 0.77347565 0.30926514q0.32045746 0.32037354 0.32048798 0.78437805q0.022132874 0.46398926 -0.28722382 0.7733612q-0.3093567 0.3093567 -0.7734375 0.28729248q-0.4530182 -0.011016846 -0.77347565 -0.33137512zm-4.2094955 4.209503q-0.33150482 -0.3314209 -0.34259033 -0.76226807q-3.0517578E-5 -0.4419098 0.32037354 -0.7623291q0.32041168 -0.32040405 0.7734375 -0.3093872q0.45302582 0.011016846 0.7624283 0.32032776q0.32045746 0.32035828 0.33154297 0.7733154q0.022132874 0.46400452 -0.2982788 0.78440857q-0.3093567 0.3093567 -0.7623825 0.29833984q-0.45302582 -0.011001587 -0.78453064 -0.34240723zm13.271271 13.090546l5.4907074 -11.081268l0.96136475 0.9610748l-4.209175 8.429718l8.297752 -4.3202667l0.91716766 0.9168854l-11.03791 5.5136414l-0.41990662 -0.41978455zm6.7185287 6.8269806q-0.8066635 -0.80641174 -1.0498276 -1.8448792q-0.2321167 -1.02742 0.12138367 -2.088028q0.36454773 -1.0716553 1.2705307 -1.9776459q0.91703033 -0.9170227 1.977745 -1.2706299q1.0717621 -0.36465454 2.0993652 -0.1327362q1.0497131 0.2319336 1.8563766 1.0383453q0.7956085 0.79537964 1.0166779 1.833847q0.24316406 1.0384674 -0.12138367 2.1101227q-0.35350037 1.0606079 -1.2705307 1.9776459q-0.905983 0.90597534 -1.977745 1.2706299q-1.0607147 0.35360718 -2.0993729 0.11064148q-1.0276031 -0.2319336 -1.8232193 -1.0273132zm0.7954941 -0.79548645q0.5083084 0.5081482 1.2044296 0.6075287q0.71821594 0.09938049 1.4805984 -0.19897461q0.7734299 -0.3093872 1.4473953 -0.98335266q1.0275116 -1.0275116 1.1710663 -2.1875305q0.15460968 -1.1489716 -0.6189041 -1.9222565q-0.7845688 -0.7843323 -1.9447403 -0.640625q-1.1491241 0.15475464 -2.1766357 1.1822662q-0.67396545 0.67396545 -0.983284 1.4473267q-0.2982788 0.76231384 -0.20983124 1.4693604q0.11054993 0.7070465 0.6299057 1.2262573zm3.6466675 5.015381l0.762352 -0.76234436l1.7901306 1.7895966l7.247841 -7.2478485l-1.7127762 -1.712265l0.76234436 -0.76234436l2.6741486 2.6733398l-8.010193 8.010193l1.7680283 1.7675018l-0.76234436 0.7623596l-4.5195312 -4.5181885zm17.591011 5.5225525q-1.281662 0.8618164 -3.52462 1.7568512l-4.850525 1.9337158l-0.7403641 -0.7401428l3.6456604 -8.41864l0.9503174 0.95002747l-2.872345 6.584656l3.2042236 -1.2596741q1.9777832 -0.7624359 3.2925873 -1.7015991l0.8950653 0.8948059zm-2.2422714 10.0425415q-0.8066635 -0.806427 -1.0498276 -1.8448944q-0.2321167 -1.02742 0.12138367 -2.088028q0.36454773 -1.0716553 1.2705307 -1.9776306q0.91703033 -0.91703796 1.977745 -1.2706451q1.0717621 -0.36465454 2.0993652 -0.13272095q1.0497131 0.23191833 1.8563766 1.0383453q0.7956085 0.79537964 1.0166779 1.833847q0.24316406 1.0384674 -0.12138367 2.1101227q-0.35350037 1.0606079 -1.2705307 1.9776306q-0.905983 0.9059906 -1.977745 1.2706451q-1.0607147 0.35360718 -2.0993729 0.11062622q-1.0276031 -0.23191833 -1.8232193 -1.027298zm0.7954941 -0.7955017q0.5083084 0.50816345 1.2044296 0.60754395q0.71821594 0.099365234 1.4805984 -0.19897461q0.7734299 -0.3093872 1.4473953 -0.98335266q1.0275116 -1.0275116 1.1710663 -2.1875305q0.15460968 -1.1489868 -0.6189041 -1.9222565q-0.7845688 -0.7843323 -1.9447403 -0.640625q-1.1491241 0.15475464 -2.1766357 1.1822662q-0.67396545 0.67396545 -0.983284 1.4473267q-0.2982788 0.76231384 -0.20983124 1.4693604q0.1105423 0.7070465 0.6299057 1.2262421zm2.9618301 7.976242q0.70716095 0.022033691 1.3480072 -0.13267517q0.65190125 -0.14367676 0.9060211 -0.39779663q0.11048889 -0.11047363 0.13257599 -0.26515198q0.0110321045 -0.14361572 -0.01108551 -0.47505188q-0.011077881 -0.364563 0.011001587 -0.5634308q0.03313446 -0.20991516 0.20991516 -0.38668823q0.32040405 -0.32040405 0.7513275 -0.33148193q0.45302582 -0.011077881 0.795578 0.33137512q0.35360718 0.35350037 0.30945587 0.9279785q-0.033103943 0.5855255 -0.50819397 1.0606232q-1.0275116 1.0275116 -3.8892975 1.082962l-0.05530548 -0.85066223zm19.668175 3.953598l0.96136475 0.9610901l-1.1932373 1.1932373q0.8618164 -0.46406555 1.6794739 -0.3094635q0.8176575 0.15461731 1.4806824 0.8174286q0.68510437 0.684906 0.90615845 1.6128998q0.22105408 0.9279938 -0.13244629 1.9664917q-0.35350037 1.0385132 -1.3589172 2.04393q-1.0164642 1.0164795 -2.110321 1.381134q-1.0828094 0.3757019 -2.0441284 0.16586304q-0.95025635 -0.22088623 -1.613266 -0.8836975q-0.54145813 -0.5412903 -0.7735596 -1.2593842q-0.22103882 -0.729126 -0.06640625 -1.4803925l-2.994156 2.994156l-0.9724121 -0.9721222l8.231171 -8.231171zm-2.7396545 7.9545746q0.7293091 0.72909546 1.756897 0.6737671q1.0496979 -0.05531311 2.2871246 -1.2927551q1.1269531 -1.1269379 1.2815704 -2.1654358q0.17671204 -1.0384979 -0.61891174 -1.8338776q-0.7514038 -0.7511902 -1.8563385 -0.59643555q-1.0938721 0.16578674 -2.3755035 1.4474182q-1.0164642 1.060669 -1.1268768 2.0328674q-0.09938049 0.9832611 0.6520386 1.7344513zm12.906021 4.7274475l-0.011047363 0.011047363q-0.033203125 -0.7401886 -0.17687988 -1.1268463q-0.13261414 -0.37561035 -0.47517395 -0.71806335q-0.4751587 -0.47502136 -1.1381378 -0.6517334q-0.6519165 -0.1877594 -1.4032593 0.0332489q-0.7402954 0.20996094 -1.4694977 0.9391632l-3.2040863 3.204071l-0.96136475 -0.9610748l6.043564 -6.0435486l0.99450684 0.9942169l-1.1490479 1.0827637q0.85076904 -0.34254456 1.7015839 -0.15480042q0.8508148 0.1877594 1.469635 0.8063812q0.9724121 0.9721222 0.9393616 2.2647095l-1.1601562 0.3204651zm-0.011047363 0.011047363q0.011062622 0.16572571 -0.022094727 0.11048889q-0.03315735 -0.055236816 -0.055252075 -0.09942627l0.0773468 -0.011062622zm-0.18785095 -0.09941101q0.044189453 -0.044189453 0.06629944 0q0.044204712 0.044189453 0.044204712 0.11047363l-0.088394165 0.044189453l-0.03315735 -0.14361572l0.011047363 -0.011047363zm-2.2866821 7.148041l0.76234436 -0.76234436l1.5470276 1.5465698l4.496765 -4.496765l-1.4586334 -1.4581909l0.773407 -0.7733917l2.4089355 2.4082184l-5.270157 5.270157l1.4144287 1.4140015l-0.76234436 0.76234436l-3.9117737 -3.9105988zm9.258972 -5.3256836q-0.27626038 -0.27616882 -0.2762909 -0.67388916q-3.0517578E-5 -0.39772034 0.27618408 -0.67393494q0.28726196 -0.28726196 0.673996 -0.29833984q0.39778137 -3.0517578E-5 0.68507385 0.28718567q0.27626038 0.27616882 0.26524353 0.6849365q0.011077881 0.4087677 -0.26513672 0.6849823q-0.2762146 0.2762146 -0.68504333 0.26519775q-0.3977661 3.0517578E-5 -0.6740265 -0.2761383zm0.54244995 13.710175q0.9061127 0.905838 2.309372 0.82839966l-0.08830261 1.193161q-1.834198 0.06642151 -3.12706 -1.226059q-0.8729706 -0.8727112 -1.149292 -1.9664154q-0.27630615 -1.093689 0.05508423 -2.1984863q0.33140564 -1.1047974 1.2263336 -1.9997406q0.894928 -0.894928 1.9888 -1.2153931q1.1049042 -0.33151245 2.198822 -0.055404663q1.0939026 0.2761078 1.9558258 1.1377716q0.7293091 0.72909546 1.0166626 1.6128845q0.30944824 0.8838043 0.15481567 1.7897186l-1.1822815 -0.010955811l-0.022094727 0q0.12147522 -0.89486694 -0.088516235 -1.5024719q-0.18788147 -0.60762024 -0.7735443 -1.1931q-0.51934814 -0.5192108 -1.2486267 -0.67381287q-0.7292633 -0.15461731 -1.5137482 0.09953308q-0.7734375 0.24310303 -1.447403 0.9170685q-0.67396545 0.67396545 -0.9501343 1.4804688q-0.26512146 0.81755066 -0.09931946 1.6019287q0.18789673 0.78437805 0.78460693 1.3809052zm5.1819763 -2.2430725q0.0773468 -0.0773468 0.09945679 0.121520996l-0.09944153 0.011047363l-1.5258789E-5 -0.13256836zm0.15470886 0.1325531q-0.022094727 0.15467834 -0.03314209 0.09944153q0 -0.06628418 -0.022109985 -0.11047363l0.055252075 0.0110321045zm0.19958496 9.324265q-1.3481293 -1.3477173 -1.3261414 -2.9606934q0.021972656 -1.6129608 1.5135193 -3.1045227q0.9943695 -0.9943695 2.077179 -1.3479767q1.0828247 -0.35360718 2.0883331 -0.09957886q1.0055084 0.25401306 1.7790222 1.027298q1.0939636 1.0936432 1.0388336 2.496704q-0.0440979 1.4141235 -1.4472656 2.817276q-0.14363098 0.14363098 -0.46403503 0.41986084l-4.2874756 -4.286194q-1.0496063 1.16008 -1.0605774 2.2980042q9.1552734E-5 1.1268616 0.87306213 1.9995575q0.9503174 0.9500427 2.2320251 0.88365173l0.02218628 1.0384827q-1.6905518 0.16584778 -3.0386658 -1.1818695zm5.060425 -2.4308777q0.8507385 -0.8507385 0.9059143 -1.7677002q0.07728577 -0.91696167 -0.6299286 -1.6239777q-0.6519623 -0.6517639 -1.613266 -0.6848297q-0.9391937 -0.033081055 -1.9777832 0.7624359l3.3150635 3.3140717zm-2.5187378 6.8276825l0.8065338 -0.8065491l5.6798096 5.6781006l-0.8065491 0.8065491l-5.6797943 -5.6781006zm8.508484 6.3849335l0.7623596 -0.76234436l1.5470123 1.5465698l4.496765 -4.496765l-1.4586334 -1.4581909l0.773407 -0.7733917l2.4089355 2.4082184l-5.270157 5.270157l1.4144287 1.4140015l-0.76234436 0.76234436l-3.9117737 -3.9105988zm9.258972 -5.3256836q-0.27624512 -0.27616882 -0.27627563 -0.67388916q-3.0517578E-5 -0.39772034 0.27618408 -0.67393494q0.28726196 -0.28726196 0.6739807 -0.29833984q0.39778137 -3.0517578E-5 0.6850891 0.28718567q0.27624512 0.27618408 0.26522827 0.6849365q0.011077881 0.4087677 -0.26513672 0.6849823q-0.27619934 0.2762146 -0.6850281 0.26519775q-0.39778137 3.0517578E-5 -0.67404175 -0.2761383zm-1.0265503 13.82077q-0.6409149 -0.64071655 -0.85092163 -1.5797577q-0.19895935 -0.9279938 0.16558838 -1.999649q0.3755951 -1.0827026 1.4031067 -2.1102295q1.0496216 -1.0496063 2.1103363 -1.3811188q1.0717621 -0.3204651 1.977829 -0.07748413q0.9281616 0.24298096 1.5690765 0.8836975q0.60775757 0.6075897 0.78460693 1.3367157q0.17684937 0.72914124 -0.06619263 1.458313l3.623932 -3.623932l1.0055542 1.0052795l-0.088378906 0.088378906q-0.16574097 0.011062622 -0.27622986 0.07736206q-0.11048889 0.06628418 -0.34251404 0.29830933l-7.236786 7.258896q-0.32040405 0.32040405 -0.50823975 0.55241394q-0.17677307 0.22097778 -0.29829407 0.51927185l-0.93925476 -0.9389801q0.121520996 -0.29830933 0.29829407 -0.51927185q0.18782043 -0.23200989 0.5082245 -0.5524292q-0.7955322 0.22102356 -1.5358582 0.055358887q-0.72927856 -0.17671204 -1.3038788 -0.7511444zm0.9833374 -0.6739807q0.8177185 0.8174591 1.8342438 0.5522461q1.03862 -0.26522827 2.0992737 -1.325882q1.0717163 -1.0717163 1.2926178 -2.132309q0.24301147 -1.0606079 -0.59680176 -1.9001617q-0.78456116 -0.7843323 -1.812149 -0.61854553q-1.0054779 0.165802 -2.0219421 1.1822662q-1.1600952 1.1600952 -1.4031067 2.286972q-0.23194885 1.1158447 0.6078644 1.9554138zm9.867325 3.125763q-0.2983551 -0.29826355 -0.3204956 -0.76226807q-0.011077881 -0.45295715 0.2982788 -0.76231384q0.3093567 -0.3093567 0.76239014 -0.2983551q0.46406555 -3.0517578E-5 0.7734833 0.3092804q0.32044983 0.32035828 0.32048035 0.7843628q0.022140503 0.46400452 -0.2872162 0.7733612q-0.30937195 0.3093567 -0.7734375 0.28730774q-0.45303345 -0.011016846 -0.7734833 -0.33137512zm-4.209503 4.209488q-0.3314972 -0.33139038 -0.34257507 -0.76226807q-4.5776367E-5 -0.44189453 0.32037354 -0.7622986q0.32040405 -0.3204193 0.77342224 -0.30940247q0.45303345 0.011016846 0.7624359 0.32032776q0.32044983 0.32034302 0.33154297 0.7733154q0.022125244 0.46398926 -0.2982788 0.7843933q-0.3093567 0.3093567 -0.76239014 0.29837036q-0.4530182 -0.011016846 -0.78453064 -0.34243774zm13.238113 12.94693l7.0821075 -7.082123l-2.1547089 -1.1819458l0.30932617 -0.7291565l3.270691 1.0382385l0.6409149 0.64071655l-8.231171 8.231171l-0.91716003 -0.91690063zm7.901062 10.240631l-3.7902222 -3.7890625l0.75131226 -0.75131226l2.9503937 2.949524l8.463181 -8.463196l-2.928299 -2.9274292l0.7955017 -0.7954712l3.7681122 3.7669678l-10.009979 10.009979z" fill-rule="nonzero"></path><path fill="#000000" fill-opacity="0.0" d="m531.70605 443.7139l-427.3071 0.03149414l0 47.40158l427.3071 -0.03149414z" fill-rule="evenodd"></path><path fill="#38761d" d="m130.68532 468.64786l0 -3.265625l-3.0937576 2.1362305E-4l0 -1.59375l3.0937576 -2.1362305E-4l0 -2.984375l1.8125 -1.5258789E-4l0 2.984375l2.984375 -2.1362305E-4l0 1.59375l-2.984375 2.1362305E-4l0 3.265625l-1.8125 1.5258789E-4z" fill-rule="nonzero"></path><path fill="#38761d" d="m147.9197 472.31845l0 -14.15625l5.34375 -3.9672852E-4l0 1.125l-4.140625 3.0517578E-4l0 11.96875l4.15625 -3.0517578E-4l0 1.0625l-5.359375 3.9672852E-4zm11.859375 -1.45401q-0.765625 6.1035156E-5 -1.421875 -0.34362793q-0.65625 -0.34371948 -1.109375 -0.98431396l-0.453125 1.1250305l-0.859375 9.1552734E-5l0 -12.40625l1.53125 -1.2207031E-4l0 0.125q-0.125 0.125 -0.15625 0.25q-0.015625 0.125 -0.015625 0.453125l0 4.359375q0.40625 -0.6875305 1.109375 -1.093811q0.703125 -0.42193604 1.421875 -0.42199707q1.609375 -1.2207031E-4 2.5625 1.1248169q0.953125 1.109314 0.953125 3.265564q0 1.453125 -0.515625 2.4844055q-0.5 1.0312805 -1.328125 1.5469666q-0.8125 0.51568604 -1.71875 0.5157471zm-0.171875 -1.1874695q1.0 -9.1552734E-5 1.671875 -0.7969971q0.671875 -0.79693604 0.671875 -2.484436q0 -1.640625 -0.625 -2.4687195q-0.625 -0.84368896 -1.6875 -0.8435974q-1.046875 6.1035156E-5 -1.703125 0.9376221q-0.640625 0.9375305 -0.640625 2.4062805q0 3.25 2.3125 3.2498474zm12.484375 -5.766571l0 0.015625q-0.546875 -0.49993896 -0.921875 -0.67178345q-0.359375 -0.17184448 -0.84375 -0.17181396q-0.671875 3.0517578E-5 -1.265625 0.34384155q-0.59375 0.32815552 -0.96875 1.015686q-0.375 0.6719055 -0.375 1.7031555l0 4.53125l-1.359375 9.1552734E-5l0 -8.546875l1.40625 -9.1552734E-5l-0.046875 1.578125q0.359375 -0.8437805 1.09375 -1.3125916q0.734375 -0.46878052 1.609375 -0.46884155q1.375 -1.2207031E-4 2.265625 0.9373169l-0.59375 1.0469055zm0 0.015625q0.125 0.109375 0.0625 0.09375q-0.0625 -0.015625 -0.109375 -0.031219482l0.046875 -0.06253052zm-0.203125 0.06253052q0 -0.0625 0.046875 -0.046875q0.0625 0 0.109375 0.046875l-0.03125 0.09375l-0.125 -0.078125l0 -0.015625zm6.125 -2.0473328q1.828125 -1.2207031E-4 2.78125 0.9529114q0.96875 0.95306396 0.96875 3.234314l0 4.53125l-1.453125 1.2207031E-4l0 -1.3125q-0.78125 1.515686 -2.90625 1.5158386q-1.421875 9.1552734E-5 -2.21875 -0.6404724q-0.796875 -0.64056396 -0.796875 -1.703064q0 -0.90625 0.578125 -1.5781555q0.578125 -0.67193604 1.546875 -1.0313721q0.984375 -0.35946655 2.15625 -0.3595276q1.0625 -9.1552734E-5 1.921875 0.10922241q-0.109375 -1.4375 -0.75 -2.015564q-0.640625 -0.5937195 -1.921875 -0.5936279q-0.625 6.1035156E-5 -1.21875 0.25009155q-0.578125 0.23443604 -1.0625 0.70321655l-0.65625 -0.85931396q1.1875 -1.2032166 3.03125 -1.2033691zm-0.484375 7.8906555q1.390625 -9.1552734E-5 2.1875 -0.7970276q0.796875 -0.81256104 0.875 -2.343811q-0.84375 -0.14056396 -1.8125 -0.14050293q-1.40625 1.2207031E-4 -2.234375 0.4689331q-0.828125 0.46881104 -0.828125 1.421936q0 1.390625 1.8125 1.3904724zm6.609375 -7.7036133l1.3125 -9.1552734E-5l0 1.515625q0.5 -0.7812805 1.265625 -1.2500916q0.765625 -0.46881104 1.625 -0.46887207q1.125 -6.1035156E-5 1.8125 0.8748779q0.6875 0.85931396 0.6875 2.687439l0 5.171875l-1.3125 9.1552734E-5l0 -5.125q0 -1.28125 -0.4375 -1.8593445q-0.421875 -0.5780945 -1.125 -0.57803345q-0.578125 6.1035156E-5 -1.171875 0.34384155q-0.578125 0.32815552 -0.96875 0.93756104q-0.375 0.6094055 -0.375 1.3750305l0 4.90625l-1.3125 9.1552734E-5l0 -8.53125zm12.34375 8.717865q-0.90625 6.1035156E-5 -1.71875 -0.5155029q-0.796875 -0.51556396 -1.296875 -1.5311584q-0.5 -1.0312195 -0.5 -2.4843445q0 -1.484375 0.515625 -2.4687805q0.53125 -0.9844055 1.34375 -1.4532166q0.828125 -0.48443604 1.734375 -0.4845276q0.859375 -6.1035156E-5 1.5 0.39053345q0.640625 0.39056396 0.984375 1.0780334l0 -5.125l1.421875 -9.1552734E-5l0 0.125q-0.109375 0.125 -0.140625 0.25q-0.03125 0.125 -0.03125 0.453125l0.015625 10.25q0 0.453125 0.03125 0.75q0.03125 0.28125 0.15625 0.578125l-1.328125 9.1552734E-5q-0.125 -0.296875 -0.15625 -0.578125q-0.03125 -0.29684448 -0.03125 -0.7499695q-0.40625 0.7187805 -1.046875 1.125061q-0.640625 0.39068604 -1.453125 0.39074707zm0.21875 -1.1719055q1.15625 -9.1552734E-5 1.6875 -0.9063721q0.546875 -0.9219055 0.546875 -2.4219055q0 -1.515625 -0.59375 -2.4218445q-0.578125 -0.9218445 -1.765625 -0.9217529q-1.109375 9.1552734E-5 -1.71875 0.8439026q-0.59375 0.8281555 -0.59375 2.2656555q0 1.640625 0.625 2.609314q0.625 0.9530945 1.8125 0.9530029zm9.1875 -4.7662964q-0.421875 3.0517578E-5 -0.765625 -0.31243896q-0.328125 -0.31246948 -0.328125 -0.7499695q0 -0.4375 0.328125 -0.7500305q0.328125 -0.32815552 0.765625 -0.32818604q0.453125 -3.0517578E-5 0.78125 0.32806396q0.34375 0.31246948 0.34375 0.7499695q0 0.4375 -0.34375 0.7500305q-0.328125 0.31253052 -0.78125 0.31256104zm0 5.953125q-0.46875 3.0517578E-5 -0.78125 -0.29681396q-0.3125 -0.31246948 -0.3125 -0.7655945q0 -0.453125 0.328125 -0.7656555q0.328125 -0.31253052 0.765625 -0.31256104q0.453125 -3.0517578E-5 0.78125 0.31243896q0.34375 0.31246948 0.34375 0.7655945q0 0.4375 -0.328125 0.7500305q-0.328125 0.31253052 -0.796875 0.31256104zm18.640625 -0.12637329l-3.953125 -11.718475l1.359375 -9.1552734E-5l2.984375 8.937286l2.8125 -8.922089l1.296875 -9.1552734E-5l-3.90625 11.7034l-0.59375 6.1035156E-5zm9.578125 0.077423096q-1.140625 6.1035156E-5 -2.046875 -0.5623474q-0.890625 -0.56243896 -1.390625 -1.5624084q-0.5 -1.0155945 -0.5 -2.2968445q0 -1.296875 0.5 -2.2969055q0.5 -1.0156555 1.390625 -1.5782166q0.90625 -0.57821655 2.046875 -0.5782776q1.125 -9.1552734E-5 2.015625 0.5779724q0.90625 0.56243896 1.40625 1.5780029q0.5 0.9999695 0.5 2.2968445q0 1.28125 -0.5 2.2969055q-0.5 1.000061 -1.40625 1.5626221q-0.890625 0.56256104 -2.015625 0.5626526zm0 -1.125q0.71875 -6.1035156E-5 1.28125 -0.42196655q0.578125 -0.43756104 0.90625 -1.1875916q0.328125 -0.765625 0.328125 -1.71875q0 -1.453125 -0.71875 -2.3749695q-0.703125 -0.92181396 -1.796875 -0.9217224q-1.109375 6.1035156E-5 -1.828125 0.9219971q-0.703125 0.92193604 -0.703125 2.375061q0 0.953125 0.328125 1.7187195q0.328125 0.7499695 0.890625 1.187439q0.578125 0.42181396 1.3125 0.42178345zm6.125 0.96829224l0 -1.078125l2.53125 -1.8310547E-4l0 -10.25l-2.421875 1.8310547E-4l0 -1.078125l3.78125 -2.746582E-4l0 11.328125l2.5 -2.1362305E-4l0 1.078125l-6.390625 4.8828125E-4zm16.343735 -8.532471q-0.296875 1.5156555 -1.2499847 3.7344666l-2.0625 4.7970276l-1.046875 9.1552734E-5l-3.375 -8.531006l1.34375 -9.1552734E-5l2.625 6.687317l1.375 -3.156372q0.859375 -1.937561 1.125 -3.531311l1.2656097 -1.2207031E-4zm5.515625 8.687103q-1.140625 9.1552734E-5 -2.046875 -0.5623474q-0.890625 -0.56243896 -1.390625 -1.5624084q-0.5 -1.015564 -0.5 -2.296814q0 -1.296875 0.5 -2.296936q0.5 -1.0156555 1.390625 -1.5782166q0.90625 -0.57818604 2.046875 -0.5782776q1.125 -9.1552734E-5 2.015625 0.5779724q0.90625 0.56243896 1.40625 1.5780334q0.5 0.9999695 0.5 2.2968445q0 1.28125 -0.5 2.2969055q-0.5 1.0000305 -1.40625 1.5625916q-0.890625 0.56256104 -2.015625 0.5626526zm0 -1.125q0.71875 -6.1035156E-5 1.28125 -0.42196655q0.578125 -0.43753052 0.90625 -1.187561q0.328125 -0.7656555 0.328125 -1.7187805q0 -1.453125 -0.71875 -2.374939q-0.703125 -0.9218445 -1.796875 -0.9217529q-1.109375 9.1552734E-5 -1.828125 0.9220276q-0.703125 0.9219055 -0.703125 2.3750305q0 0.953125 0.328125 1.7187195q0.328125 0.75 0.890625 1.187439q0.578125 0.42184448 1.3125 0.42178345zm7.734375 3.5462952q0.515625 -0.48440552 0.859375 -1.046936q0.359375 -0.5625305 0.359375 -0.9219055q0 -0.15625 -0.09375 -0.28121948q-0.09375 -0.109375 -0.34375 -0.32809448q-0.265625 -0.25 -0.390625 -0.40625q-0.125 -0.17184448 -0.125 -0.42184448q0 -0.453125 0.296875 -0.7656555q0.3125 -0.32815552 0.796875 -0.32818604q0.5 -3.0517578E-5 0.875 0.43743896q0.390625 0.43746948 0.390625 1.1093445q0 1.453125 -1.984375 3.5157776l-0.640625 -0.5624695zm16.703125 -11.110596l1.359375 -9.1552734E-5l0 1.6875q0.28125 -0.9375305 0.96875 -1.4063416q0.6875 -0.46878052 1.625 -0.46884155q0.96875 -9.1552734E-5 1.78125 0.4998474q0.8125 0.49993896 1.296875 1.4842834q0.484375 0.9843445 0.484375 2.4062195q0 1.4375 -0.515625 2.4687805q-0.5 1.0312805 -1.328125 1.5625916q-0.828125 0.51568604 -1.765625 0.5157776q-0.765625 6.1035156E-5 -1.4375 -0.34365845q-0.671875 -0.35931396 -1.09375 -0.99990845l0 4.234375l-1.375 9.1552734E-5l0 -11.640625zm3.6875 7.5622253q1.03125 -6.1035156E-5 1.71875 -0.7657471q0.703125 -0.78131104 0.703125 -2.531311q0 -1.59375 -0.625 -2.437439q-0.609375 -0.8593445 -1.734375 -0.8592529q-1.0625 9.1552734E-5 -1.734375 0.8907471q-0.65625 0.89068604 -0.65625 2.703186q0.03125 1.46875 0.640625 2.234314q0.625 0.7655945 1.6875 0.7655029zm12.46875 -5.7821655l0 0.015625q-0.546875 -0.49996948 -0.921875 -0.67181396q-0.359375 -0.17184448 -0.84375 -0.17181396q-0.671875 6.1035156E-5 -1.265625 0.34384155q-0.59375 0.32818604 -0.96875 1.0157166q-0.375 0.6719055 -0.375 1.7031555l0 4.53125l-1.359375 9.1552734E-5l0 -8.546875l1.40625 -9.1552734E-5l-0.046875 1.578125q0.359375 -0.8437805 1.09375 -1.3125916q0.734375 -0.46881104 1.609375 -0.46887207q1.375 -9.1552734E-5 2.265625 0.9373474l-0.59375 1.0469055zm0 0.015625q0.125 0.109375 0.0625 0.09375q-0.0625 -0.015625 -0.109375 -0.03125l0.046875 -0.0625zm-0.203125 0.06253052q0 -0.0625 0.046875 -0.046905518q0.0625 0 0.109375 0.046875l-0.03125 0.09375l-0.125 -0.07809448l0 -0.015625zm3.4375 6.6716003l0 -1.078125l2.1875 -1.5258789E-4l0 -6.359375l-2.0625 1.5258789E-4l0 -1.09375l3.40625 -2.4414062E-4l0 7.453125l2.0 -1.5258789E-4l0 1.078125l-5.53125 3.9672852E-4zm2.78125 -10.312683q-0.390625 0 -0.671875 -0.28121948q-0.28125 -0.28121948 -0.28125 -0.6718445q0 -0.40625 0.265625 -0.6875305q0.28125 -0.28125 0.6875 -0.28128052q0.390625 -3.0517578E-5 0.671875 0.29681396q0.296875 0.28121948 0.296875 0.6718445q0 0.390625 -0.296875 0.6719055q-0.28125 0.28128052 -0.671875 0.28131104zm10.078125 9.311737q1.28125 -9.1552734E-5 2.21875 -1.0470276l0.78125 0.90618896q-1.25 1.3438416 -3.078125 1.3439636q-1.234375 9.1552734E-5 -2.203125 -0.5779419q-0.96875 -0.57806396 -1.515625 -1.5936584q-0.546875 -1.015564 -0.546875 -2.281189q0 -1.265625 0.546875 -2.265686q0.546875 -1.0156555 1.515625 -1.5938416q0.96875 -0.57821655 2.1875 -0.5783081q1.03125 -6.1035156E-5 1.859375 0.42175293q0.84375 0.40618896 1.375 1.1561584l-0.84375 0.82818604l-0.015625 0.015625q-0.546875 -0.7187195 -1.125 -0.99993896q-0.5625 -0.29681396 -1.390625 -0.29675293q-0.734375 6.1035156E-5 -1.359375 0.40634155q-0.625 0.40631104 -1.0 1.140686q-0.375 0.7187805 -0.375 1.6719055q0 0.953125 0.375 1.7187195q0.390625 0.765625 1.0625 1.203064q0.6875 0.42181396 1.53125 0.42175293zm2.078125 -5.2501526q0 -0.109375 0.15625 0.015625l-0.0625 0.078125l-0.09375 -0.09375zm0.203125 -0.015625q0.09375 0.12496948 0.046875 0.09375q-0.046875 -0.046875 -0.09375 -0.0625l0.046875 -0.03125zm6.734375 6.452606q-1.90625 1.5258789E-4 -3.03125 -1.1560059q-1.125 -1.156189 -1.125 -3.265564q0 -1.40625 0.515625 -2.4219055q0.515625 -1.0156555 1.40625 -1.5469666q0.890625 -0.53131104 1.984375 -0.5314026q1.546875 -1.2207031E-4 2.5 1.0310669q0.96875 1.031189 0.96875 3.015564q0 0.203125 -0.03125 0.625l-6.0625 4.272461E-4q0.078125 1.5625 0.875 2.374939q0.796875 0.79681396 2.03125 0.7967224q1.34375 -9.1552734E-5 2.203125 -0.9532776l0.75 0.71868896q-1.078125 1.3125916 -2.984375 1.3127136zm1.859375 -5.296997q0 -1.203125 -0.609375 -1.8905945q-0.59375 -0.70306396 -1.59375 -0.7030029q-0.921875 6.1035156E-5 -1.625 0.6563721q-0.6875 0.64068604 -0.859375 1.937561l4.6875 -3.3569336E-4zm3.046875 6.6091614l0 -1.140625l8.03125 -6.1035156E-4l0 1.140625l-8.03125 6.1035156E-4zm10.53125 -1.5007935l0 -1.078125l2.1875 -1.5258789E-4l0 -6.359375l-2.0625 1.5258789E-4l0 -1.09375l3.40625 -2.4414062E-4l0 7.453125l2.0 -1.5258789E-4l0 1.078125l-5.53125 3.9672852E-4zm2.78125 -10.312714q-0.390625 3.0517578E-5 -0.671875 -0.28118896q-0.28125 -0.28121948 -0.28125 -0.6718445q0 -0.40625 0.265625 -0.6875305q0.28125 -0.28128052 0.6875 -0.28131104q0.390625 -3.0517578E-5 0.671875 0.29684448q0.296875 0.28121948 0.296875 0.6718445q0 0.390625 -0.296875 0.6719055q-0.28125 0.28125 -0.671875 0.28128052zm9.046875 10.499359q-0.90625 6.1035156E-5 -1.71875 -0.5155029q-0.796875 -0.51556396 -1.296875 -1.5311584q-0.5 -1.0312195 -0.5 -2.4843445q0 -1.484375 0.515625 -2.4687805q0.53125 -0.9844055 1.34375 -1.4532166q0.828125 -0.48443604 1.734375 -0.4845276q0.859375 -6.1035156E-5 1.5 0.39053345q0.640625 0.39056396 0.984375 1.0780334l0 -5.125l1.421875 -9.1552734E-5l0 0.125q-0.109375 0.125 -0.140625 0.25q-0.03125 0.125 -0.03125 0.453125l0.015625 10.25q0 0.453125 0.03125 0.75q0.03125 0.28125 0.15625 0.578125l-1.328125 9.1552734E-5q-0.125 -0.296875 -0.15625 -0.578125q-0.03125 -0.29684448 -0.03125 -0.7499695q-0.40625 0.7187805 -1.046875 1.125061q-0.640625 0.39068604 -1.453125 0.39074707zm0.21875 -1.1719055q1.15625 -9.1552734E-5 1.6875 -0.9063721q0.546875 -0.9219055 0.546875 -2.4219055q0 -1.515625 -0.59375 -2.4218445q-0.578125 -0.9218445 -1.765625 -0.9217529q-1.109375 9.1552734E-5 -1.71875 0.8439026q-0.59375 0.8281555 -0.59375 2.2656555q0 1.640625 0.625 2.609314q0.625 0.9530945 1.8125 0.9530029zm9.1875305 -4.7662964q-0.421875 3.0517578E-5 -0.765625 -0.31243896q-0.328125 -0.31246948 -0.328125 -0.7499695q0 -0.4375 0.328125 -0.7500305q0.328125 -0.32815552 0.765625 -0.32818604q0.453125 -3.0517578E-5 0.78125 0.32806396q0.34375 0.31246948 0.34375 0.7499695q0 0.4375 -0.34375 0.7500305q-0.328125 0.31253052 -0.78125 0.31256104zm0 5.953125q-0.46875 3.0517578E-5 -0.78125 -0.29681396q-0.3125 -0.31246948 -0.3125 -0.7655945q0 -0.453125 0.328125 -0.7656555q0.328125 -0.31253052 0.765625 -0.31256104q0.453125 -3.0517578E-5 0.78125 0.31243896q0.34375 0.31246948 0.34375 0.7655945q0 0.4375 -0.328125 0.7500305q-0.328125 0.31253052 -0.796875 0.31256104zm18.515625 -0.20449829l0 -10.015625l-2.359375 0.6876831l-0.296875 -0.7343445l3.046875 -1.5783691l0.90625 -6.1035156E-5l0 11.640625l-1.296875 9.1552734E-5zm8.109375 2.5775452q0.515625 -0.48443604 0.859375 -1.0469666q0.359375 -0.5625 0.359375 -0.921875q0 -0.15625 -0.09375 -0.28125q-0.09375 -0.109375 -0.34375 -0.32809448q-0.265625 -0.25 -0.390625 -0.40621948q-0.125 -0.171875 -0.125 -0.421875q0 -0.453125 0.296875 -0.7656555q0.3125 -0.32815552 0.796875 -0.32818604q0.5 -3.0517578E-5 0.875 0.43743896q0.390625 0.43746948 0.390625 1.1093445q0 1.453125 -1.984375 3.5157776l-0.640625 -0.56243896zm16.703125 -11.110626l1.359375 -9.1552734E-5l0 1.6875q0.28125 -0.9375305 0.96875 -1.406311q0.6875 -0.46881104 1.625 -0.46887207q0.96875 -9.1552734E-5 1.78125 0.4998474q0.8125 0.49993896 1.296875 1.4842834q0.484375 0.9843445 0.484375 2.4062195q0 1.4375 -0.515625 2.4687805q-0.5 1.031311 -1.328125 1.5626221q-0.828125 0.51568604 -1.765625 0.5157471q-0.765625 6.1035156E-5 -1.4375 -0.34365845q-0.671875 -0.35931396 -1.09375 -0.99990845l0 4.234375l-1.375 9.1552734E-5l0 -11.640625zm3.6875 7.5622253q1.03125 -6.1035156E-5 1.71875 -0.7657471q0.703125 -0.78131104 0.703125 -2.531311q0 -1.59375 -0.625 -2.437439q-0.609375 -0.8593445 -1.734375 -0.8592529q-1.0625 9.1552734E-5 -1.734375 0.8907471q-0.65625 0.89068604 -0.65625 2.703186q0.03125 1.46875 0.640625 2.234314q0.625 0.7655945 1.6875 0.7655029zm12.46875 -5.7821655l0 0.015625q-0.546875 -0.49993896 -0.921875 -0.67181396q-0.359375 -0.17184448 -0.84375 -0.17181396q-0.671875 6.1035156E-5 -1.265625 0.34387207q-0.59375 0.32815552 -0.96875 1.015686q-0.375 0.6719055 -0.375 1.7031555l0 4.53125l-1.359375 9.1552734E-5l0 -8.546875l1.40625 -9.1552734E-5l-0.046875 1.578125q0.359375 -0.8437805 1.09375 -1.3125916q0.734375 -0.46881104 1.609375 -0.46887207q1.375 -9.1552734E-5 2.265625 0.9373474l-0.59375 1.0469055zm0 0.015625q0.125 0.109375 0.0625 0.09375q-0.0625 -0.015625 -0.109375 -0.03125l0.046875 -0.0625zm-0.203125 0.06253052q0 -0.0625 0.046875 -0.046875q0.0625 -3.0517578E-5 0.109375 0.046844482l-0.03125 0.09375l-0.125 -0.07809448l0 -0.015625zm3.4375 6.6716003l0 -1.078125l2.1875 -1.5258789E-4l0 -6.359375l-2.0625 1.5258789E-4l0 -1.09375l3.40625 -2.4414062E-4l0 7.453125l2.0 -1.5258789E-4l0 1.078125l-5.53125 3.9672852E-4zm2.78125 -10.312683q-0.390625 3.0517578E-5 -0.671875 -0.28121948q-0.28125 -0.28121948 -0.28125 -0.6718445q0 -0.40625 0.265625 -0.6875305q0.28125 -0.28125 0.6875 -0.28128052q0.390625 -3.0517578E-5 0.671875 0.29681396q0.296875 0.28121948 0.296875 0.6718445q0 0.390625 -0.296875 0.6719055q-0.28125 0.28128052 -0.671875 0.28131104zm10.078125 9.311737q1.28125 -9.1552734E-5 2.21875 -1.0470276l0.78125 0.90618896q-1.25 1.3438416 -3.078125 1.3439941q-1.234375 6.1035156E-5 -2.203125 -0.5779724q-0.96875 -0.57806396 -1.515625 -1.5936584q-0.546875 -1.015564 -0.546875 -2.281189q0 -1.265625 0.546875 -2.265686q0.546875 -1.0156555 1.515625 -1.5938416q0.96875 -0.57821655 2.1875 -0.5782776q1.03125 -9.1552734E-5 1.859375 0.4217224q0.84375 0.40618896 1.375 1.1561584l-0.84375 0.82818604l-0.015625 0.015625q-0.546875 -0.7187195 -1.125 -0.99990845q-0.5625 -0.29684448 -1.390625 -0.29678345q-0.734375 6.1035156E-5 -1.359375 0.40634155q-0.625 0.40631104 -1.0 1.1407166q-0.375 0.71875 -0.375 1.671875q0 0.953125 0.375 1.71875q0.390625 0.7655945 1.0625 1.2030334q0.6875 0.42181396 1.53125 0.42175293zm2.078125 -5.2501526q0 -0.109375 0.15625 0.015625l-0.0625 0.078125l-0.09375 -0.09375zm0.203125 -0.015625q0.09375 0.125 0.046875 0.09375q-0.046875 -0.046875 -0.09375 -0.0625l0.046875 -0.03125zm6.734375 6.4526367q-1.90625 1.2207031E-4 -3.03125 -1.1560364q-1.125 -1.1561584 -1.125 -3.2655334q0 -1.40625 0.515625 -2.421936q0.515625 -1.0156555 1.40625 -1.5469666q0.890625 -0.53131104 1.984375 -0.5314026q1.546875 -1.2207031E-4 2.5 1.0310669q0.96875 1.031189 0.96875 3.015564q0 0.203125 -0.03125 0.625l-6.0625 4.272461E-4q0.078125 1.5625 0.875 2.374939q0.796875 0.79681396 2.03125 0.7967224q1.34375 -9.1552734E-5 2.203125 -0.9532776l0.75 0.71868896q-1.078125 1.3125916 -2.984375 1.3127441zm1.859375 -5.2970276q0 -1.203125 -0.609375 -1.890564q-0.59375 -0.7030945 -1.59375 -0.70303345q-0.921875 9.1552734E-5 -1.625 0.6563721q-0.6875 0.64068604 -0.859375 1.937561l4.6875 -3.3569336E-4zm6.828125 -0.6411133q-0.421875 3.0517578E-5 -0.765625 -0.31246948q-0.328125 -0.31246948 -0.328125 -0.7499695q0 -0.4375 0.328125 -0.7500305q0.328125 -0.328125 0.765625 -0.32815552q0.453125 -6.1035156E-5 0.78125 0.32806396q0.34375 0.31246948 0.34375 0.7499695q0 0.4375 -0.34375 0.7500305q-0.328125 0.3125 -0.78125 0.31256104zm0 5.953125q-0.46875 3.0517578E-5 -0.78125 -0.29684448q-0.3125 -0.31246948 -0.3125 -0.7655945q0 -0.453125 0.328125 -0.7656555q0.328125 -0.3125 0.765625 -0.31253052q0.453125 -6.1035156E-5 0.78125 0.31243896q0.34375 0.31246948 0.34375 0.7655945q0 0.4375 -0.328125 0.7500305q-0.328125 0.3125 -0.796875 0.31256104zm18.515625 -0.20449829l0 -10.015625l-2.359375 0.6876831l-0.296875 -0.734375l3.046875 -1.5783386l0.90625 -6.1035156E-5l0 11.640625l-1.296875 9.1552734E-5zm9.703125 -11.703857q1.703125 -1.2207031E-4 2.640625 1.5935669q0.953125 1.578064 0.953125 4.359314q0 2.859375 -0.9375 4.406311q-0.921875 1.546936 -2.65625 1.5470581q-1.75 1.5258789E-4 -2.6875 -1.5466614q-0.921875 -1.546814 -0.921875 -4.406189q0 -2.78125 0.9375 -4.359436q0.953125 -1.593811 2.671875 -1.5939636zm0 1.140625q-1.078125 9.1552734E-5 -1.671875 1.2969971q-0.59375 1.296936 -0.59375 3.515686q0 1.21875 0.171875 2.1562195l3.953125 -5.1252747q-0.28125 -0.8905945 -0.765625 -1.359314q-0.46875 -0.48434448 -1.09375 -0.48431396zm0 9.625q1.0625 -6.1035156E-5 1.65625 -1.2501221q0.59375 -1.2500305 0.59375 -3.5625305q0 -1.078125 -0.125 -1.859375l-3.96875 5.031555q0.609375 1.640564 1.84375 1.6404724zm9.328125 -10.766296q1.703125 -1.2207031E-4 2.640625 1.5935364q0.953125 1.578064 0.953125 4.359314q0 2.859375 -0.9375 4.406311q-0.921875 1.5469666 -2.65625 1.5470886q-1.75 1.2207031E-4 -2.6875 -1.5466919q-0.921875 -1.5467834 -0.921875 -4.4061584q0 -2.78125 0.9375 -4.3594666q0.953125 -1.593811 2.671875 -1.5939331zm0 1.140625q-1.078125 6.1035156E-5 -1.671875 1.2969971q-0.59375 1.2969055 -0.59375 3.5156555q0 1.21875 0.171875 2.15625l3.953125 -5.125305q-0.28125 -0.8905945 -0.765625 -1.359314q-0.46875 -0.48434448 -1.09375 -0.48428345zm0 9.625q1.0625 -9.1552734E-5 1.65625 -1.2501221q0.59375 -1.250061 0.59375 -3.562561q0 -1.078125 -0.125 -1.8593445l-3.96875 5.0315247q0.609375 1.6405945 1.84375 1.6405029zm12.453125 2.5928345l-5.359375 3.9672852E-4l0 -1.0625l4.171875 -3.0517578E-4l0 -11.96875l-4.140625 3.0517578E-4l0 -1.125l5.328125 -3.9672852E-4l0 14.15625z" fill-rule="nonzero"></path><path fill="#000000" fill-opacity="0.0" d="m318.0525 354.39343l0 89.322845" fill-rule="evenodd"></path><path stroke="#000000" stroke-width="1.0" stroke-linejoin="round" stroke-linecap="butt" d="m318.0525 354.3934l0 83.322845" fill-rule="evenodd"></path><path fill="#000000" stroke="#000000" stroke-width="1.0" stroke-linecap="butt" d="m316.40076 437.71625l1.6517334 4.538086l1.6517334 -4.538086z" fill-rule="evenodd"></path></g></svg>

