<?xml version="1.0" standalone="yes"?>

<svg version="1.1" viewBox="0.0 0.0 960.0 250.0" fill="none" stroke="none" stroke-linecap="square" stroke-miterlimit="10" xmlns="http://www.w3.org/2000/svg" xmlns:xlink="http://www.w3.org/1999/xlink"><clipPath id="p.0"><path d="m0 0l960.0 0l0 250.0l-960.0 0l0 -250.0z" clip-rule="nonzero"></path></clipPath><g clip-path="url(#p.0)"><path fill="#000000" fill-opacity="0.0" d="m0 0l960.0 0l0 250.0l-960.0 0z" fill-rule="evenodd"></path><path stroke="#9e9e9e" stroke-width="2.0" stroke-linecap="butt" d="m19.27559 68.491066l0 116.666664" fill-rule="nonzero"></path><path stroke="#9e9e9e" stroke-width="2.0" stroke-linecap="butt" d="m281.2362 68.491066l0 116.666664" fill-rule="nonzero"></path><path stroke="#9e9e9e" stroke-width="2.0" stroke-linecap="butt" d="m18.27559 69.491066l263.9606 0" fill-rule="nonzero"></path><path stroke="#9e9e9e" stroke-width="2.0" stroke-linecap="butt" d="m18.27559 98.15774l263.9606 0" fill-rule="nonzero"></path><path stroke="#9e9e9e" stroke-width="2.0" stroke-linecap="butt" d="m18.27559 126.8244l263.9606 0" fill-rule="nonzero"></path><path stroke="#9e9e9e" stroke-width="2.0" stroke-linecap="butt" d="m18.27559 155.49107l263.9606 0" fill-rule="nonzero"></path><path stroke="#9e9e9e" stroke-width="2.0" stroke-linecap="butt" d="m18.27559 184.15773l263.9606 0" fill-rule="nonzero"></path><path fill="#9900ff" d="m28.353716 89.129814q0.484375 0 0.8125 -0.28125q0.328125 -0.28125 0.5 -0.6875q0.1875 -0.40625 0.46875 -1.171875l3.640623 -9.96875l1.3125 0l3.96875 10.15625q0.15625 0.375 0.3125 0.9375q0.171875 0.546875 0.21875 0.921875q0.609375 -0.0625 1.078125 -0.0625l0 1.4375l-5.015625 0l0 -1.234375q0.890625 0 0.890625 -0.75q0 -0.359375 -0.203125 -0.890625l-0.375 -1.03125l-4.046873 0.078125l-0.296875 0.875q-0.0625 0.15625 -0.265625 0.6875q-0.1875 0.515625 -0.328125 0.828125q0.59375 -0.0625 1.3124981 -0.0625l0 1.5l-3.984373 0l0 -1.28125zm7.140623 -3.9375l-0.859375 -2.34375q-0.53125 -1.515625 -0.703125 -2.546875l-0.015625 0q-0.3125 1.34375 -0.703125 2.453125l-0.828125 2.4375l3.109375 0zm11.103348 -1.640625l6.859375 0l0 1.953125l-6.859375 0.0625l0 -2.015625zm17.099594 -0.15625l0 1.6875l-8.390625 3.734375l0 -1.96875l5.796875 -2.5625l0 -0.015625l-5.796875 -2.53125l0 -2.0l8.390625 3.65625zm9.686203 5.78125q0.5 -0.015625 0.765625 -0.109375q0.265625 -0.109375 0.40625 -0.4375q0.15625 -0.34375 0.15625 -1.078125l0 -0.515625l-4.875 0l0 -1.75l6.40625 -8.234375l1.140625 0l0 8.296875l1.828125 0l0 1.6875l-1.828125 0l0 0.3125q0 1.25 -0.078125 1.6875q0.609375 -0.0625 1.390625 -0.0625l0 1.4375l-5.3125 0l0 -1.234375zm1.34375 -7.984375l-0.015625 0l-3.140625 4.109375l3.140625 0.015625l0.015625 -4.125zm6.5330963 12.1875q0.375 -0.484375 0.71875 -1.359375q0.359375 -0.859375 0.34375 -1.59375q-0.171875 0.0625 -0.390625 0.0625q-0.546875 0 -0.921875 -0.3125q-0.359375 -0.3125 -0.359375 -0.921875q0 -0.59375 0.375 -1.0q0.375 -0.40625 1.0 -0.40625q0.796875 0 1.234375 0.5625q0.4375 0.546875 0.4375 1.40625q0 0.90625 -0.4375 1.96875q-0.4375 1.0625 -1.265625 2.109375l-0.734375 -0.515625zm15.180038 -2.671875q-1.875 0 -3.34375 -0.875q-1.453125 -0.875 -2.25 -2.390625q-0.796875 -1.53125 -0.796875 -3.375q0 -1.765625 0.75 -3.375q0.765625 -1.625 2.234375 -2.625q1.46875 -1.015625 3.546875 -1.015625q0.734375 0 1.59375 0.25q0.875 0.234375 1.609375 0.671875l0.015625 0l-0.078125 -0.796875l1.4375 0l0 4.359375l-1.203125 0q-0.5 -3.109375 -3.140625 -3.140625q-1.25 0 -2.125 0.734375q-0.859375 0.734375 -1.296875 1.953125q-0.421875 1.21875 -0.421875 2.609375q0 1.609375 0.46875 2.859375q0.46875 1.25 1.34375 1.953125q0.875 0.6875 2.109375 0.6875q1.1875 0 2.328125 -0.609375q1.15625 -0.609375 1.9375 -1.671875l0.90625 0.8125q-1.234375 1.703125 -2.71875 2.34375q-1.46875 0.640625 -2.90625 0.640625zm11.648361 -7.15625l6.859375 0l0 1.953125l-6.859375 0.0625l0 -2.015625zm17.099594 -0.15625l0 1.6875l-8.390625 3.734375l0 -1.96875l5.796875 -2.5625l0 -0.015625l-5.796875 -2.53125l0 -2.0l8.390625 3.65625zm7.420578 5.78125q0.5 -0.015625 0.75 -0.109375q0.265625 -0.109375 0.40625 -0.4375q0.15625 -0.34375 0.15625 -1.078125l0 -7.46875l-2.03125 1.203125l-0.671875 -1.125l4.28125 -3.109375l1.109375 0l0 10.296875q0 1.203125 -0.046875 1.6875q0.59375 -0.0625 1.390625 -0.0625l0 1.4375l-5.34375 0l0 -1.234375z" fill-rule="nonzero"></path><path fill="#cc0000" d="m28.353716 117.796486q0.484375 0 0.8125 -0.28125q0.328125 -0.28125 0.5 -0.6875q0.1875 -0.40625 0.46875 -1.171875l3.640623 -9.96875l1.3125 0l3.96875 10.15625q0.15625 0.375 0.3125 0.9375q0.171875 0.546875 0.21875 0.921875q0.609375 -0.0625 1.078125 -0.0625l0 1.4375l-5.015625 0l0 -1.234375q0.890625 0 0.890625 -0.75q0 -0.359375 -0.203125 -0.890625l-0.375 -1.03125l-4.046873 0.078125l-0.296875 0.875q-0.0625 0.15625 -0.265625 0.6875q-0.1875 0.515625 -0.328125 0.828125q0.59375 -0.0625 1.3124981 -0.0625l0 1.5l-3.984373 0l0 -1.28125zm7.140623 -3.9375l-0.859375 -2.34375q-0.53125 -1.515625 -0.703125 -2.546875l-0.015625 0q-0.3125 1.34375 -0.703125 2.453125l-0.828125 2.4375l3.109375 0zm11.103348 -1.640625l6.859375 0l0 1.953125l-6.859375 0.0625l0 -2.015625zm17.099594 -0.15625l0 1.6875l-8.390625 3.734375l0 -1.96875l5.796875 -2.5625l0 -0.015625l-5.796875 -2.53125l0 -2.0l8.390625 3.65625zm10.623703 7.3125q-1.328125 0 -2.25 -0.390625q-0.90625 -0.40625 -1.359375 -1.03125q-0.4375 -0.625 -0.4375 -1.3125q0 -0.609375 0.359375 -1.015625q0.359375 -0.40625 0.9375 -0.40625q0.609375 0 0.890625 0.375q0.296875 0.375 0.296875 0.8125q0 0.203125 -0.078125 0.4375q-0.078125 0.234375 -0.234375 0.421875q0.1875 0.34375 0.65625 0.546875q0.484375 0.203125 1.03125 0.203125q1.140625 0 1.75 -0.671875q0.625 -0.6875 0.625 -1.796875q0 -1.140625 -0.65625 -1.9375q-0.640625 -0.796875 -2.109375 -0.78125q-0.296875 0 -0.96875 0.0625l0 -1.34375q0.203125 0.015625 0.53125 0.015625q1.234375 0 1.921875 -0.65625q0.703125 -0.671875 0.703125 -1.75q0 -0.984375 -0.421875 -1.546875q-0.421875 -0.578125 -1.3125 -0.578125q-0.5 0 -0.90625 0.234375q-0.40625 0.234375 -0.578125 0.546875q0.15625 0.1875 0.21875 0.453125q0.078125 0.25 0.078125 0.453125q0 0.421875 -0.3125 0.8125q-0.296875 0.390625 -0.890625 0.390625q-0.578125 0 -0.90625 -0.375q-0.328125 -0.390625 -0.328125 -0.96875q0 -0.59375 0.453125 -1.265625q0.453125 -0.671875 1.34375 -1.125q0.890625 -0.46875 2.125 -0.46875q1.875 0 3.0 0.796875q1.140625 0.796875 1.140625 2.5q0 0.546875 -0.296875 1.140625q-0.28125 0.59375 -0.90625 1.09375q-0.625 0.5 -1.59375 0.703125l0 0.015625q1.703125 0.3125 2.59375 1.265625q0.890625 0.9375 0.890625 2.1875q0 1.859375 -1.390625 2.90625q-1.375 1.046875 -3.609375 1.046875zm7.181885 2.671875q0.375 -0.484375 0.71875 -1.359375q0.359375 -0.859375 0.34375 -1.59375q-0.171875 0.0625 -0.390625 0.0625q-0.546875 0 -0.921875 -0.3125q-0.359375 -0.3125 -0.359375 -0.921875q0 -0.59375 0.375 -1.0q0.375 -0.40625 1.0 -0.40625q0.796875 0 1.234375 0.5625q0.4375 0.546875 0.4375 1.40625q0 0.90625 -0.4375 1.96875q-0.4375 1.0625 -1.265625 2.109375l-0.734375 -0.515625zm9.070663 -4.203125q0.5 -0.015625 0.75 -0.109375q0.265625 -0.109375 0.40625 -0.4375q0.15625 -0.34375 0.15625 -1.078125l0 -7.140625q0 -1.046875 0.078125 -1.671875l-1.390625 0.046875l0 -1.4375l5.15625 -0.03125q2.25 -0.015625 3.515625 0.8125q1.265625 0.8125 1.265625 2.390625q0 0.921875 -0.6875 1.703125q-0.671875 0.765625 -2.0 1.109375l0 0.03125q1.796875 0.28125 2.703125 1.203125q0.921875 0.90625 0.921875 2.125q0 1.78125 -1.265625 2.75q-1.25 0.96875 -3.265625 0.96875l-6.34375 0l0 -1.234375zm5.0 -6.109375q1.09375 -0.03125 1.578125 -0.703125q0.5 -0.6875 0.5 -1.796875q0 -1.015625 -0.5625 -1.484375q-0.546875 -0.46875 -1.359375 -0.46875q-0.390625 0 -0.625 0.09375q-0.21875 0.09375 -0.359375 0.453125q-0.140625 0.34375 -0.140625 1.03125l0 2.890625l0.96875 -0.015625zm-1.046875 6.015625q1.234375 0 1.8125 -0.015625q1.09375 -0.0625 1.625 -0.703125q0.546875 -0.640625 0.546875 -1.71875q0 -1.203125 -0.6875 -1.734375q-0.6875 -0.53125 -1.71875 -0.53125q-1.015625 0 -1.5 0.03125l0 3.03125q0 1.015625 -0.078125 1.640625zm13.300888 -5.53125l6.859375 0l0 1.953125l-6.859375 0.0625l0 -2.015625zm17.099594 -0.15625l0 1.6875l-8.390625 3.734375l0 -1.96875l5.796875 -2.5625l0 -0.015625l-5.796875 -2.53125l0 -2.0l8.390625 3.65625zm10.623703 7.3125q-1.328125 0 -2.25 -0.390625q-0.90625 -0.40625 -1.359375 -1.03125q-0.4375 -0.625 -0.4375 -1.3125q0 -0.609375 0.359375 -1.015625q0.359375 -0.40625 0.9375 -0.40625q0.609375 0 0.890625 0.375q0.296875 0.375 0.296875 0.8125q0 0.203125 -0.078125 0.4375q-0.078125 0.234375 -0.234375 0.421875q0.1875 0.34375 0.65625 0.546875q0.484375 0.203125 1.03125 0.203125q1.140625 0 1.75 -0.671875q0.625 -0.6875 0.625 -1.796875q0 -1.140625 -0.65625 -1.9375q-0.640625 -0.796875 -2.109375 -0.78125q-0.296875 0 -0.96875 0.0625l0 -1.34375q0.203125 0.015625 0.53125 0.015625q1.234375 0 1.921875 -0.65625q0.703125 -0.671875 0.703125 -1.75q0 -0.984375 -0.421875 -1.546875q-0.421875 -0.578125 -1.3125 -0.578125q-0.5 0 -0.90625 0.234375q-0.40625 0.234375 -0.578125 0.546875q0.15625 0.1875 0.21875 0.453125q0.078125 0.25 0.078125 0.453125q0 0.421875 -0.3125 0.8125q-0.296875 0.390625 -0.890625 0.390625q-0.578125 0 -0.90625 -0.375q-0.328125 -0.390625 -0.328125 -0.96875q0 -0.59375 0.453125 -1.265625q0.453125 -0.671875 1.34375 -1.125q0.890625 -0.46875 2.125 -0.46875q1.875 0 3.0 0.796875q1.140625 0.796875 1.140625 2.5q0 0.546875 -0.296875 1.140625q-0.28125 0.59375 -0.90625 1.09375q-0.625 0.5 -1.59375 0.703125l0 0.015625q1.703125 0.3125 2.59375 1.265625q0.890625 0.9375 0.890625 2.1875q0 1.859375 -1.390625 2.90625q-1.375 1.046875 -3.609375 1.046875z" fill-rule="nonzero"></path><path fill="#1155cc" d="m28.353716 146.46315q0.484375 0 0.8125 -0.28125q0.328125 -0.28125 0.5 -0.6875q0.1875 -0.40625 0.46875 -1.171875l3.640623 -9.96875l1.3125 0l3.96875 10.15625q0.15625 0.375 0.3125 0.9375q0.171875 0.546875 0.21875 0.921875q0.609375 -0.0625 1.078125 -0.0625l0 1.4375l-5.015625 0l0 -1.234375q0.890625 0 0.890625 -0.75q0 -0.359375 -0.203125 -0.890625l-0.375 -1.03125l-4.046873 0.078125l-0.296875 0.875q-0.0625 0.15625 -0.265625 0.6875q-0.1875 0.515625 -0.328125 0.828125q0.59375 -0.0625 1.3124981 -0.0625l0 1.5l-3.984373 0l0 -1.28125zm7.140623 -3.9375l-0.859375 -2.34375q-0.53125 -1.515625 -0.703125 -2.546875l-0.015625 0q-0.3125 1.34375 -0.703125 2.453125l-0.828125 2.4375l3.109375 0zm11.103348 -1.640625l6.859375 0l0 1.953125l-6.859375 0.0625l0 -2.015625zm17.099594 -0.15625l0 1.6875l-8.390625 3.734375l0 -1.96875l5.796875 -2.5625l0 -0.015625l-5.796875 -2.53125l0 -2.0l8.390625 3.65625zm6.654953 7.015625q0 -1.21875 0.390625 -2.140625q0.40625 -0.9375 0.984375 -1.59375q0.578125 -0.671875 1.53125 -1.546875q1.328125 -1.234375 1.90625 -2.265625q0.59375 -1.03125 0.59375 -2.0625q0 -1.03125 -0.40625 -1.71875q-0.40625 -0.703125 -1.34375 -0.703125q-0.484375 0 -0.90625 0.234375q-0.421875 0.21875 -0.65625 0.546875q0.1875 0.1875 0.28125 0.46875q0.09375 0.265625 0.09375 0.5q0 0.40625 -0.3125 0.8125q-0.3125 0.390625 -0.90625 0.390625q-0.5625 0 -0.90625 -0.390625q-0.328125 -0.40625 -0.328125 -0.984375q0 -0.59375 0.484375 -1.265625q0.5 -0.6875 1.421875 -1.15625q0.921875 -0.484375 2.15625 -0.484375q1.078125 0 2.03125 0.359375q0.953125 0.34375 1.546875 1.140625q0.609375 0.796875 0.609375 2.03125q0 0.671875 -0.34375 1.375q-0.328125 0.6875 -1.234375 1.640625q-0.890625 0.953125 -2.53125 2.296875q-0.953125 0.765625 -1.484375 1.46875q-0.515625 0.703125 -0.609375 1.125l3.65625 0.09375q0.6875 0.03125 1.046875 -0.21875q0.359375 -0.265625 0.359375 -1.0l1.1875 0l-0.140625 3.046875l-8.171875 0z" fill-rule="nonzero"></path><path fill="#6aa84f" d="m28.353716 175.12982q0.484375 0 0.8125 -0.28125q0.328125 -0.28125 0.5 -0.6875q0.1875 -0.40625 0.46875 -1.171875l3.640623 -9.96875l1.3125 0l3.96875 10.15625q0.15625 0.375 0.3125 0.9375q0.171875 0.546875 0.21875 0.921875q0.609375 -0.0625 1.078125 -0.0625l0 1.4375l-5.015625 0l0 -1.234375q0.890625 0 0.890625 -0.75q0 -0.359375 -0.203125 -0.890625l-0.375 -1.03125l-4.046873 0.078125l-0.296875 0.875q-0.0625 0.15625 -0.265625 0.6875q-0.1875 0.515625 -0.328125 0.828125q0.59375 -0.0625 1.3124981 -0.0625l0 1.5l-3.984373 0l0 -1.28125zm7.140623 -3.9375l-0.859375 -2.34375q-0.53125 -1.515625 -0.703125 -2.546875l-0.015625 0q-0.3125 1.34375 -0.703125 2.453125l-0.828125 2.4375l3.109375 0zm11.103348 -1.640625l6.859375 0l0 1.953125l-6.859375 0.0625l0 -2.015625zm17.099594 -0.15625l0 1.6875l-8.390625 3.734375l0 -1.96875l5.796875 -2.5625l0 -0.015625l-5.796875 -2.53125l0 -2.0l8.390625 3.65625zm7.420578 5.78125q0.5 -0.015625 0.75 -0.109375q0.265625 -0.109375 0.40625 -0.4375q0.15625 -0.34375 0.15625 -1.078125l0 -7.46875l-2.03125 1.203125l-0.671875 -1.125l4.28125 -3.109375l1.109375 0l0 10.296875q0 1.203125 -0.046875 1.6875q0.59375 -0.0625 1.390625 -0.0625l0 1.4375l-5.34375 0l0 -1.234375z" fill-rule="nonzero"></path><path fill="#000000" fill-opacity="0.0" d="m290.83203 126.36079l90.01575 0" fill-rule="evenodd"></path><path stroke="#000000" stroke-width="1.0" stroke-linejoin="round" stroke-linecap="butt" d="m290.83203 126.36078l84.01575 0" fill-rule="evenodd"></path><path fill="#000000" stroke="#000000" stroke-width="1.0" stroke-linecap="butt" d="m374.84778 128.01251l4.538086 -1.6517334l-4.538086 -1.6517334z" fill-rule="evenodd"></path><path stroke="#9e9e9e" stroke-width="2.0" stroke-linecap="butt" d="m396.0525 68.491066l0 174.0" fill-rule="nonzero"></path><path stroke="#9e9e9e" stroke-width="2.0" stroke-linecap="butt" d="m501.4252 68.491066l0 174.0" fill-rule="nonzero"></path><path stroke="#9e9e9e" stroke-width="2.0" stroke-linecap="butt" d="m395.0525 69.491066l107.37271 0" fill-rule="nonzero"></path><path stroke="#9e9e9e" stroke-width="2.0" stroke-linecap="butt" d="m395.0525 98.15774l107.37271 0" fill-rule="nonzero"></path><path stroke="#9e9e9e" stroke-width="2.0" stroke-linecap="butt" d="m395.0525 126.8244l107.37271 0" fill-rule="nonzero"></path><path stroke="#9e9e9e" stroke-width="2.0" stroke-linecap="butt" d="m395.0525 155.49107l107.37271 0" fill-rule="nonzero"></path><path stroke="#9e9e9e" stroke-width="2.0" stroke-linecap="butt" d="m395.0525 184.15773l107.37271 0" fill-rule="nonzero"></path><path stroke="#9e9e9e" stroke-width="2.0" stroke-linecap="butt" d="m395.0525 212.8244l107.37271 0" fill-rule="nonzero"></path><path stroke="#9e9e9e" stroke-width="2.0" stroke-linecap="butt" d="m395.0525 241.49107l107.37271 0" fill-rule="nonzero"></path><path fill="#9900ff" d="m412.09937 90.70794q-1.875 0 -3.34375 -0.875q-1.453125 -0.875 -2.25 -2.390625q-0.796875 -1.53125 -0.796875 -3.375q0 -1.765625 0.75 -3.375q0.765625 -1.625 2.234375 -2.625q1.46875 -1.015625 3.546875 -1.015625q0.734375 0 1.59375 0.25q0.875 0.234375 1.609375 0.671875l0.015625 0l-0.078125 -0.796875l1.4375 0l0 4.359375l-1.203125 0q-0.5 -3.109375 -3.140625 -3.140625q-1.25 0 -2.125 0.734375q-0.859375 0.734375 -1.296875 1.953125q-0.421875 1.21875 -0.421875 2.609375q0 1.609375 0.46875 2.859375q0.46875 1.25 1.34375 1.953125q0.875 0.6875 2.109375 0.6875q1.1875 0 2.328125 -0.609375q1.15625 -0.609375 1.9375 -1.671875l0.90625 0.8125q-1.234375 1.703125 -2.71875 2.34375q-1.46875 0.640625 -2.90625 0.640625zm11.648376 -7.15625l6.859375 0l0 1.953125l-6.859375 0.0625l0 -2.015625zm17.099579 -0.15625l0 1.6875l-8.390625 3.734375l0 -1.96875l5.796875 -2.5625l0 -0.015625l-5.796875 -2.53125l0 -2.0l8.390625 3.65625zm7.4205933 5.78125q0.5 -0.015625 0.75 -0.109375q0.265625 -0.109375 0.40625 -0.4375q0.15625 -0.34375 0.15625 -1.078125l0 -7.46875l-2.03125 1.203125l-0.671875 -1.125l4.28125 -3.109375l1.109375 0l0 10.296875q0 1.203125 -0.046875 1.6875q0.59375 -0.0625 1.390625 -0.0625l0 1.4375l-5.34375 0l0 -1.234375z" fill-rule="nonzero"></path><path fill="#9900ff" d="m405.1306 117.796486q0.484375 0 0.8125 -0.28125q0.328125 -0.28125 0.5 -0.6875q0.1875 -0.40625 0.46875 -1.171875l3.640625 -9.96875l1.3125 0l3.96875 10.15625q0.15625 0.375 0.3125 0.9375q0.171875 0.546875 0.21875 0.921875q0.609375 -0.0625 1.078125 -0.0625l0 1.4375l-5.015625 0l0 -1.234375q0.890625 0 0.890625 -0.75q0 -0.359375 -0.203125 -0.890625l-0.375 -1.03125l-4.046875 0.078125l-0.296875 0.875q-0.0625 0.15625 -0.265625 0.6875q-0.1875 0.515625 -0.328125 0.828125q0.59375 -0.0625 1.3125 -0.0625l0 1.5l-3.984375 0l0 -1.28125zm7.140625 -3.9375l-0.859375 -2.34375q-0.53125 -1.515625 -0.703125 -2.546875l-0.015625 0q-0.3125 1.34375 -0.703125 2.453125l-0.828125 2.4375l3.109375 0zm11.103363 -1.640625l6.859375 0l0 1.953125l-6.859375 0.0625l0 -2.015625zm17.099579 -0.15625l0 1.6875l-8.390625 3.734375l0 -1.96875l5.796875 -2.5625l0 -0.015625l-5.796875 -2.53125l0 -2.0l8.390625 3.65625zm9.686218 5.78125q0.5 -0.015625 0.765625 -0.109375q0.265625 -0.109375 0.40625 -0.4375q0.15625 -0.34375 0.15625 -1.078125l0 -0.515625l-4.875 0l0 -1.75l6.40625 -8.234375l1.140625 0l0 8.296875l1.828125 0l0 1.6875l-1.828125 0l0 0.3125q0 1.25 -0.078125 1.6875q0.609375 -0.0625 1.390625 -0.0625l0 1.4375l-5.3125 0l0 -1.234375zm1.34375 -7.984375l-0.015625 0l-3.140625 4.109375l3.140625 0.015625l0.015625 -4.125z" fill-rule="nonzero"></path><path fill="#cc0000" d="m405.99 146.51003q0.5 -0.015625 0.75 -0.109375q0.265625 -0.109375 0.40625 -0.4375q0.15625 -0.34375 0.15625 -1.078125l0 -7.140625q0 -1.046875 0.078125 -1.671875l-1.390625 0.046875l0 -1.4375l5.15625 -0.03125q2.25 -0.015625 3.515625 0.8125q1.265625 0.8125 1.265625 2.390625q0 0.921875 -0.6875 1.703125q-0.671875 0.765625 -2.0 1.109375l0 0.03125q1.796875 0.28125 2.703125 1.203125q0.921875 0.90625 0.921875 2.125q0 1.78125 -1.265625 2.75q-1.25 0.96875 -3.265625 0.96875l-6.34375 0l0 -1.234375zm5.0 -6.109375q1.09375 -0.03125 1.578125 -0.703125q0.5 -0.6875 0.5 -1.796875q0 -1.015625 -0.5625 -1.484375q-0.546875 -0.46875 -1.359375 -0.46875q-0.390625 0 -0.625 0.09375q-0.21875 0.09375 -0.359375 0.453125q-0.140625 0.34375 -0.140625 1.03125l0 2.890625l0.96875 -0.015625zm-1.046875 6.015625q1.234375 0 1.8125 -0.015625q1.09375 -0.0625 1.625 -0.703125q0.546875 -0.640625 0.546875 -1.71875q0 -1.203125 -0.6875 -1.734375q-0.6875 -0.53125 -1.71875 -0.53125q-1.015625 0 -1.5 0.03125l0 3.03125q0 1.015625 -0.078125 1.640625zm13.300903 -5.53125l6.859375 0l0 1.953125l-6.859375 0.0625l0 -2.015625zm17.099579 -0.15625l0 1.6875l-8.390625 3.734375l0 -1.96875l5.796875 -2.5625l0 -0.015625l-5.796875 -2.53125l0 -2.0l8.390625 3.65625zm10.623718 7.3125q-1.328125 0 -2.25 -0.390625q-0.90625 -0.40625 -1.359375 -1.03125q-0.4375 -0.625 -0.4375 -1.3125q0 -0.609375 0.359375 -1.015625q0.359375 -0.40625 0.9375 -0.40625q0.609375 0 0.890625 0.375q0.296875 0.375 0.296875 0.8125q0 0.203125 -0.078125 0.4375q-0.078125 0.234375 -0.234375 0.421875q0.1875 0.34375 0.65625 0.546875q0.484375 0.203125 1.03125 0.203125q1.140625 0 1.75 -0.671875q0.625 -0.6875 0.625 -1.796875q0 -1.140625 -0.65625 -1.9375q-0.640625 -0.796875 -2.109375 -0.78125q-0.296875 0 -0.96875 0.0625l0 -1.34375q0.203125 0.015625 0.53125 0.015625q1.234375 0 1.921875 -0.65625q0.703125 -0.671875 0.703125 -1.75q0 -0.984375 -0.421875 -1.546875q-0.421875 -0.578125 -1.3125 -0.578125q-0.5 0 -0.90625 0.234375q-0.40625 0.234375 -0.578125 0.546875q0.15625 0.1875 0.21875 0.453125q0.078125 0.25 0.078125 0.453125q0 0.421875 -0.3125 0.8125q-0.296875 0.390625 -0.890625 0.390625q-0.578125 0 -0.90625 -0.375q-0.328125 -0.390625 -0.328125 -0.96875q0 -0.59375 0.453125 -1.265625q0.453125 -0.671875 1.34375 -1.125q0.890625 -0.46875 2.125 -0.46875q1.875 0 3.0 0.796875q1.140625 0.796875 1.140625 2.5q0 0.546875 -0.296875 1.140625q-0.28125 0.59375 -0.90625 1.09375q-0.625 0.5 -1.59375 0.703125l0 0.015625q1.703125 0.3125 2.59375 1.265625q0.890625 0.9375 0.890625 2.1875q0 1.859375 -1.390625 2.90625q-1.375 1.046875 -3.609375 1.046875z" fill-rule="nonzero"></path><path fill="#cc0000" d="m405.1306 175.12982q0.484375 0 0.8125 -0.28125q0.328125 -0.28125 0.5 -0.6875q0.1875 -0.40625 0.46875 -1.171875l3.640625 -9.96875l1.3125 0l3.96875 10.15625q0.15625 0.375 0.3125 0.9375q0.171875 0.546875 0.21875 0.921875q0.609375 -0.0625 1.078125 -0.0625l0 1.4375l-5.015625 0l0 -1.234375q0.890625 0 0.890625 -0.75q0 -0.359375 -0.203125 -0.890625l-0.375 -1.03125l-4.046875 0.078125l-0.296875 0.875q-0.0625 0.15625 -0.265625 0.6875q-0.1875 0.515625 -0.328125 0.828125q0.59375 -0.0625 1.3125 -0.0625l0 1.5l-3.984375 0l0 -1.28125zm7.140625 -3.9375l-0.859375 -2.34375q-0.53125 -1.515625 -0.703125 -2.546875l-0.015625 0q-0.3125 1.34375 -0.703125 2.453125l-0.828125 2.4375l3.109375 0zm11.103363 -1.640625l6.859375 0l0 1.953125l-6.859375 0.0625l0 -2.015625zm17.099579 -0.15625l0 1.6875l-8.390625 3.734375l0 -1.96875l5.796875 -2.5625l0 -0.015625l-5.796875 -2.53125l0 -2.0l8.390625 3.65625zm10.623718 7.3125q-1.328125 0 -2.25 -0.390625q-0.90625 -0.40625 -1.359375 -1.03125q-0.4375 -0.625 -0.4375 -1.3125q0 -0.609375 0.359375 -1.015625q0.359375 -0.40625 0.9375 -0.40625q0.609375 0 0.890625 0.375q0.296875 0.375 0.296875 0.8125q0 0.203125 -0.078125 0.4375q-0.078125 0.234375 -0.234375 0.421875q0.1875 0.34375 0.65625 0.546875q0.484375 0.203125 1.03125 0.203125q1.140625 0 1.75 -0.671875q0.625 -0.6875 0.625 -1.796875q0 -1.140625 -0.65625 -1.9375q-0.640625 -0.796875 -2.109375 -0.78125q-0.296875 0 -0.96875 0.0625l0 -1.34375q0.203125 0.015625 0.53125 0.015625q1.234375 0 1.921875 -0.65625q0.703125 -0.671875 0.703125 -1.75q0 -0.984375 -0.421875 -1.546875q-0.421875 -0.578125 -1.3125 -0.578125q-0.5 0 -0.90625 0.234375q-0.40625 0.234375 -0.578125 0.546875q0.15625 0.1875 0.21875 0.453125q0.078125 0.25 0.078125 0.453125q0 0.421875 -0.3125 0.8125q-0.296875 0.390625 -0.890625 0.390625q-0.578125 0 -0.90625 -0.375q-0.328125 -0.390625 -0.328125 -0.96875q0 -0.59375 0.453125 -1.265625q0.453125 -0.671875 1.34375 -1.125q0.890625 -0.46875 2.125 -0.46875q1.875 0 3.0 0.796875q1.140625 0.796875 1.140625 2.5q0 0.546875 -0.296875 1.140625q-0.28125 0.59375 -0.90625 1.09375q-0.625 0.5 -1.59375 0.703125l0 0.015625q1.703125 0.3125 2.59375 1.265625q0.890625 0.9375 0.890625 2.1875q0 1.859375 -1.390625 2.90625q-1.375 1.046875 -3.609375 1.046875z" fill-rule="nonzero"></path><path fill="#1155cc" d="m405.1306 203.79648q0.484375 0 0.8125 -0.28125q0.328125 -0.28125 0.5 -0.6875q0.1875 -0.40625 0.46875 -1.171875l3.640625 -9.96875l1.3125 0l3.96875 10.15625q0.15625 0.375 0.3125 0.9375q0.171875 0.546875 0.21875 0.921875q0.609375 -0.0625 1.078125 -0.0625l0 1.4375l-5.015625 0l0 -1.234375q0.890625 0 0.890625 -0.75q0 -0.359375 -0.203125 -0.890625l-0.375 -1.03125l-4.046875 0.078125l-0.296875 0.875q-0.0625 0.15625 -0.265625 0.6875q-0.1875 0.515625 -0.328125 0.828125q0.59375 -0.0625 1.3125 -0.0625l0 1.5l-3.984375 0l0 -1.28125zm7.140625 -3.9375l-0.859375 -2.34375q-0.53125 -1.515625 -0.703125 -2.546875l-0.015625 0q-0.3125 1.34375 -0.703125 2.453125l-0.828125 2.4375l3.109375 0zm11.103363 -1.640625l6.859375 0l0 1.953125l-6.859375 0.0625l0 -2.015625zm17.099579 -0.15625l0 1.6875l-8.390625 3.734375l0 -1.96875l5.796875 -2.5625l0 -0.015625l-5.796875 -2.53125l0 -2.0l8.390625 3.65625zm6.6549683 7.015625q0 -1.21875 0.390625 -2.140625q0.40625 -0.9375 0.984375 -1.59375q0.578125 -0.671875 1.53125 -1.546875q1.328125 -1.234375 1.90625 -2.265625q0.59375 -1.03125 0.59375 -2.0625q0 -1.03125 -0.40625 -1.71875q-0.40625 -0.703125 -1.34375 -0.703125q-0.484375 0 -0.90625 0.234375q-0.421875 0.21875 -0.65625 0.546875q0.1875 0.1875 0.28125 0.46875q0.09375 0.265625 0.09375 0.5q0 0.40625 -0.3125 0.8125q-0.3125 0.390625 -0.90625 0.390625q-0.5625 0 -0.90625 -0.390625q-0.328125 -0.40625 -0.328125 -0.984375q0 -0.59375 0.484375 -1.265625q0.5 -0.6875 1.421875 -1.15625q0.921875 -0.484375 2.15625 -0.484375q1.078125 0 2.03125 0.359375q0.953125 0.34375 1.546875 1.140625q0.609375 0.796875 0.609375 2.03125q0 0.671875 -0.34375 1.375q-0.328125 0.6875 -1.234375 1.640625q-0.890625 0.953125 -2.53125 2.296875q-0.953125 0.765625 -1.484375 1.46875q-0.515625 0.703125 -0.609375 1.125l3.65625 0.09375q0.6875 0.03125 1.046875 -0.21875q0.359375 -0.265625 0.359375 -1.0l1.1875 0l-0.140625 3.046875l-8.171875 0z" fill-rule="nonzero"></path><path fill="#38761d" d="m405.1306 232.46315q0.484375 0 0.8125 -0.28125q0.328125 -0.28125 0.5 -0.6875q0.1875 -0.40625 0.46875 -1.171875l3.640625 -9.96875l1.3125 0l3.96875 10.15625q0.15625 0.375 0.3125 0.9375q0.171875 0.546875 0.21875 0.921875q0.609375 -0.0625 1.078125 -0.0625l0 1.4375l-5.015625 0l0 -1.234375q0.890625 0 0.890625 -0.75q0 -0.359375 -0.203125 -0.890625l-0.375 -1.03125l-4.046875 0.078125l-0.296875 0.875q-0.0625 0.15625 -0.265625 0.6875q-0.1875 0.515625 -0.328125 0.828125q0.59375 -0.0625 1.3125 -0.0625l0 1.5l-3.984375 0l0 -1.28125zm7.140625 -3.9375l-0.859375 -2.34375q-0.53125 -1.515625 -0.703125 -2.546875l-0.015625 0q-0.3125 1.34375 -0.703125 2.453125l-0.828125 2.4375l3.109375 0zm11.103363 -1.640625l6.859375 0l0 1.953125l-6.859375 0.0625l0 -2.015625zm17.099579 -0.15625l0 1.6875l-8.390625 3.734375l0 -1.96875l5.796875 -2.5625l0 -0.015625l-5.796875 -2.53125l0 -2.0l8.390625 3.65625zm7.4205933 5.78125q0.5 -0.015625 0.75 -0.109375q0.265625 -0.109375 0.40625 -0.4375q0.15625 -0.34375 0.15625 -1.078125l0 -7.46875l-2.03125 1.203125l-0.671875 -1.125l4.28125 -3.109375l1.109375 0l0 10.296875q0 1.203125 -0.046875 1.6875q0.59375 -0.0625 1.390625 -0.0625l0 1.4375l-5.34375 0l0 -1.234375z" fill-rule="nonzero"></path><path fill="#000000" fill-opacity="0.0" d="m516.62994 126.36079l90.01575 0" fill-rule="evenodd"></path><path stroke="#000000" stroke-width="1.0" stroke-linejoin="round" stroke-linecap="butt" d="m516.62994 126.36078l84.01575 0" fill-rule="evenodd"></path><path fill="#000000" stroke="#000000" stroke-width="1.0" stroke-linecap="butt" d="m600.6457 128.01251l4.538086 -1.6517334l-4.538086 -1.6517334z" fill-rule="evenodd"></path><path stroke="#9e9e9e" stroke-width="2.0" stroke-linecap="butt" d="m616.24146 68.491066l0 116.666664" fill-rule="nonzero"></path><path stroke="#9e9e9e" stroke-width="2.0" stroke-linecap="butt" d="m761.7507 68.491066l0 116.666664" fill-rule="nonzero"></path><path stroke="#9e9e9e" stroke-width="2.0" stroke-linecap="butt" d="m615.24146 69.491066l147.50922 0" fill-rule="nonzero"></path><path stroke="#9e9e9e" stroke-width="2.0" stroke-linecap="butt" d="m615.24146 98.15774l147.50922 0" fill-rule="nonzero"></path><path stroke="#9e9e9e" stroke-width="2.0" stroke-linecap="butt" d="m615.24146 126.8244l147.50922 0" fill-rule="nonzero"></path><path stroke="#9e9e9e" stroke-width="2.0" stroke-linecap="butt" d="m615.24146 155.49107l147.50922 0" fill-rule="nonzero"></path><path stroke="#9e9e9e" stroke-width="2.0" stroke-linecap="butt" d="m615.24146 184.15773l147.50922 0" fill-rule="nonzero"></path><path fill="#000000" d="m626.17896 89.17669q0.5 -0.015625 0.75 -0.109375q0.265625 -0.109375 0.40625 -0.4375q0.15625 -0.34375 0.15625 -1.078125l0 -7.140625q0 -1.046875 0.078125 -1.671875l-1.390625 0.046875l0 -1.4375l5.296875 -0.03125q2.515625 -0.015625 3.9375 1.0q1.4375 1.015625 1.4375 3.078125q0 1.0625 -0.609375 2.046875q-0.59375 0.96875 -1.796875 1.578125q-1.1875 0.609375 -2.890625 0.671875l-0.734375 0.015625l-0.609375 -0.015625l0 1.640625q0 1.0625 -0.078125 1.703125q0.59375 -0.0625 1.578125 -0.0625l0 1.4375l-5.53125 0l0 -1.234375zm4.859375 -4.828125q1.515625 0 2.21875 -0.75q0.703125 -0.765625 0.703125 -2.21875q0 -2.765625 -2.5 -2.765625q-0.65625 0 -0.953125 0.28125q-0.296875 0.28125 -0.296875 1.203125l0 4.1875q0.390625 0.0625 0.828125 0.0625zm9.218201 6.359375q-1.171875 0 -1.859375 -0.6875q-0.671875 -0.703125 -0.671875 -1.796875q0 -1.640625 1.53125 -2.484375q1.53125 -0.84375 3.671875 -0.9375l0 -0.96875q0 -1.703125 -1.265625 -1.703125q-0.828125 0 -1.34375 0.515625q0.21875 0.265625 0.21875 0.71875q0 0.4375 -0.3125 0.796875q-0.296875 0.359375 -0.890625 0.359375q-0.5625 0 -0.890625 -0.359375q-0.3125 -0.375 -0.3125 -0.90625q0 -0.734375 0.515625 -1.296875q0.53125 -0.5625 1.4375 -0.859375q0.90625 -0.3125 1.984375 -0.3125q3.453125 0 3.453125 3.5625l-0.015625 3.0625q0 0.890625 -0.078125 1.640625q0.609375 -0.0625 1.21875 -0.0625l0 1.421875l-3.53125 0q-0.046875 -0.25 -0.078125 -0.859375l-0.015625 0q-1.140625 1.15625 -2.765625 1.15625zm1.171875 -1.828125q0.84375 0 1.484375 -0.671875l0 -2.09375q-1.109375 0.125 -1.828125 0.578125q-0.71875 0.4375 -0.71875 1.203125q0 0.5 0.3125 0.75q0.3125 0.234375 0.75 0.234375zm10.682129 1.828125q-1.265625 0 -2.3125 -0.5625q-1.046875 -0.578125 -1.671875 -1.640625q-0.609375 -1.078125 -0.609375 -2.546875q0 -1.40625 0.609375 -2.59375q0.625 -1.1875 1.734375 -1.875q1.109375 -0.703125 2.5 -0.703125q1.140625 0 1.953125 0.359375q0.8125 0.34375 1.21875 0.9375q0.421875 0.578125 0.421875 1.25q0 0.578125 -0.34375 1.0q-0.34375 0.40625 -0.953125 0.40625q-0.609375 0 -0.921875 -0.375q-0.296875 -0.375 -0.296875 -0.84375q0 -0.421875 0.21875 -0.8125q-0.171875 -0.34375 -0.546875 -0.484375q-0.375 -0.140625 -0.75 -0.140625q-0.9375 0 -1.53125 0.875q-0.59375 0.875 -0.59375 2.453125q0 1.578125 0.609375 2.609375q0.625 1.03125 1.953125 1.03125q0.75 0 1.46875 -0.390625q0.734375 -0.390625 1.234375 -1.046875l0.859375 0.84375q-0.9375 1.28125 -2.0 1.765625q-1.0625 0.484375 -2.25 0.484375zm4.9608154 -1.515625q0.703125 0 0.90625 -0.390625q0.203125 -0.390625 0.203125 -1.265625l0 -7.671875q0 -0.890625 0.078125 -1.609375l-1.296875 0.046875l0 -1.421875q1.171875 0 1.890625 -0.15625q0.734375 -0.171875 0.953125 -0.390625l1.03125 0l0 8.5l0.890625 0l1.34375 -1.546875q0.578125 -0.65625 0.734375 -0.78125l0 -0.015625l-0.984375 0.015625l0 -1.421875l4.1875 0l0 1.1875q-0.890625 0.09375 -1.515625 0.5q-0.625 0.40625 -1.125 0.984375l-1.203125 1.328125l0 0.015625q0.296875 0.140625 0.5625 0.390625q0.28125 0.25 0.65625 0.765625l1.25 1.640625q0.484375 0.59375 0.859375 0.953125q0.375 0.34375 0.859375 0.34375l0 1.21875l-2.15625 0q-0.546875 0 -0.984375 -0.375q-0.421875 -0.375 -1.078125 -1.25q-0.703125 -0.953125 -1.359375 -1.9375l-0.5 -0.703125l-0.4375 0.015625l0 1.25q0 0.890625 -0.078125 1.640625q0.59375 -0.0625 1.21875 -0.0625l0 1.421875l-4.90625 0l0 -1.21875zm15.800598 1.515625q-1.359375 0 -2.40625 -0.609375q-1.046875 -0.609375 -1.625 -1.71875q-0.578125 -1.125 -0.578125 -2.609375q0 -1.3125 0.578125 -2.453125q0.59375 -1.15625 1.65625 -1.84375q1.0625 -0.6875 2.4375 -0.6875q1.796875 0 3.0 1.0625q1.203125 1.0625 1.1875 3.546875l-6.109375 0.109375q0 1.640625 0.625 2.59375q0.625 0.953125 2.0 0.953125q0.65625 0 1.390625 -0.328125q0.75 -0.34375 1.34375 -1.078125l0.84375 0.78125q-1.578125 2.28125 -4.34375 2.28125zm1.671875 -6.515625q-0.046875 -2.109375 -1.53125 -2.109375q-0.796875 0 -1.28125 0.578125q-0.46875 0.5625 -0.609375 1.53125l3.421875 0zm7.6307983 6.515625q-2.90625 0 -2.90625 -3.578125l0.03125 -4.5l-1.265625 0l0 -1.546875q0.609375 0 1.140625 -0.375q0.53125 -0.375 0.890625 -0.90625q0.375 -0.546875 0.53125 -1.046875l1.375 0l-0.015625 2.328125l2.375 0l0 1.4375l-2.375 0.0625l-0.015625 4.578125q0 1.8125 1.109375 1.8125q0.90625 0 1.703125 -1.125l0.890625 0.84375q-0.875 1.296875 -1.75 1.65625q-0.875 0.359375 -1.71875 0.359375zm9.658508 -1.53125q0.5 -0.015625 0.75 -0.109375q0.265625 -0.109375 0.40625 -0.4375q0.15625 -0.34375 0.15625 -1.078125l0 -7.46875l-2.03125 1.203125l-0.671875 -1.125l4.28125 -3.109375l1.109375 0l0 10.296875q0 1.203125 -0.046875 1.6875q0.59375 -0.0625 1.390625 -0.0625l0 1.4375l-5.34375 0l0 -1.234375z" fill-rule="nonzero"></path><path fill="#cc0000" d="m625.3196 117.796486q0.484375 0 0.8125 -0.28125q0.328125 -0.28125 0.5 -0.6875q0.1875 -0.40625 0.46875 -1.171875l3.640625 -9.96875l1.3125 0l3.96875 10.15625q0.15625 0.375 0.3125 0.9375q0.171875 0.546875 0.21875 0.921875q0.609375 -0.0625 1.078125 -0.0625l0 1.4375l-5.015625 0l0 -1.234375q0.890625 0 0.890625 -0.75q0 -0.359375 -0.203125 -0.890625l-0.375 -1.03125l-4.046875 0.078125l-0.296875 0.875q-0.0625 0.15625 -0.265625 0.6875q-0.1875 0.515625 -0.328125 0.828125q0.59375 -0.0625 1.3125 -0.0625l0 1.5l-3.984375 0l0 -1.28125zm7.140625 -3.9375l-0.859375 -2.34375q-0.53125 -1.515625 -0.703125 -2.546875l-0.015625 0q-0.3125 1.34375 -0.703125 2.453125l-0.828125 2.4375l3.109375 0zm11.1033325 -1.640625l6.859375 0l0 1.953125l-6.859375 0.0625l0 -2.015625zm17.09961 -0.15625l0 1.6875l-8.390625 3.734375l0 -1.96875l5.796875 -2.5625l0 -0.015625l-5.796875 -2.53125l0 -2.0l8.390625 3.65625zm10.623718 7.3125q-1.328125 0 -2.25 -0.390625q-0.90625 -0.40625 -1.359375 -1.03125q-0.4375 -0.625 -0.4375 -1.3125q0 -0.609375 0.359375 -1.015625q0.359375 -0.40625 0.9375 -0.40625q0.609375 0 0.890625 0.375q0.296875 0.375 0.296875 0.8125q0 0.203125 -0.078125 0.4375q-0.078125 0.234375 -0.234375 0.421875q0.1875 0.34375 0.65625 0.546875q0.484375 0.203125 1.03125 0.203125q1.140625 0 1.75 -0.671875q0.625 -0.6875 0.625 -1.796875q0 -1.140625 -0.65625 -1.9375q-0.640625 -0.796875 -2.109375 -0.78125q-0.296875 0 -0.96875 0.0625l0 -1.34375q0.203125 0.015625 0.53125 0.015625q1.234375 0 1.921875 -0.65625q0.703125 -0.671875 0.703125 -1.75q0 -0.984375 -0.421875 -1.546875q-0.421875 -0.578125 -1.3125 -0.578125q-0.5 0 -0.90625 0.234375q-0.40625 0.234375 -0.578125 0.546875q0.15625 0.1875 0.21875 0.453125q0.078125 0.25 0.078125 0.453125q0 0.421875 -0.3125 0.8125q-0.296875 0.390625 -0.890625 0.390625q-0.578125 0 -0.90625 -0.375q-0.328125 -0.390625 -0.328125 -0.96875q0 -0.59375 0.453125 -1.265625q0.453125 -0.671875 1.34375 -1.125q0.890625 -0.46875 2.125 -0.46875q1.875 0 3.0 0.796875q1.140625 0.796875 1.140625 2.5q0 0.546875 -0.296875 1.140625q-0.28125 0.59375 -0.90625 1.09375q-0.625 0.5 -1.59375 0.703125l0 0.015625q1.703125 0.3125 2.59375 1.265625q0.890625 0.9375 0.890625 2.1875q0 1.859375 -1.390625 2.90625q-1.375 1.046875 -3.609375 1.046875z" fill-rule="nonzero"></path><path fill="#1155cc" d="m625.3196 146.46315q0.484375 0 0.8125 -0.28125q0.328125 -0.28125 0.5 -0.6875q0.1875 -0.40625 0.46875 -1.171875l3.640625 -9.96875l1.3125 0l3.96875 10.15625q0.15625 0.375 0.3125 0.9375q0.171875 0.546875 0.21875 0.921875q0.609375 -0.0625 1.078125 -0.0625l0 1.4375l-5.015625 0l0 -1.234375q0.890625 0 0.890625 -0.75q0 -0.359375 -0.203125 -0.890625l-0.375 -1.03125l-4.046875 0.078125l-0.296875 0.875q-0.0625 0.15625 -0.265625 0.6875q-0.1875 0.515625 -0.328125 0.828125q0.59375 -0.0625 1.3125 -0.0625l0 1.5l-3.984375 0l0 -1.28125zm7.140625 -3.9375l-0.859375 -2.34375q-0.53125 -1.515625 -0.703125 -2.546875l-0.015625 0q-0.3125 1.34375 -0.703125 2.453125l-0.828125 2.4375l3.109375 0zm11.1033325 -1.640625l6.859375 0l0 1.953125l-6.859375 0.0625l0 -2.015625zm17.09961 -0.15625l0 1.6875l-8.390625 3.734375l0 -1.96875l5.796875 -2.5625l0 -0.015625l-5.796875 -2.53125l0 -2.0l8.390625 3.65625zm6.6549683 7.015625q0 -1.21875 0.390625 -2.140625q0.40625 -0.9375 0.984375 -1.59375q0.578125 -0.671875 1.53125 -1.546875q1.328125 -1.234375 1.90625 -2.265625q0.59375 -1.03125 0.59375 -2.0625q0 -1.03125 -0.40625 -1.71875q-0.40625 -0.703125 -1.34375 -0.703125q-0.484375 0 -0.90625 0.234375q-0.421875 0.21875 -0.65625 0.546875q0.1875 0.1875 0.28125 0.46875q0.09375 0.265625 0.09375 0.5q0 0.40625 -0.3125 0.8125q-0.3125 0.390625 -0.90625 0.390625q-0.5625 0 -0.90625 -0.390625q-0.328125 -0.40625 -0.328125 -0.984375q0 -0.59375 0.484375 -1.265625q0.5 -0.6875 1.421875 -1.15625q0.921875 -0.484375 2.15625 -0.484375q1.078125 0 2.03125 0.359375q0.953125 0.34375 1.546875 1.140625q0.609375 0.796875 0.609375 2.03125q0 0.671875 -0.34375 1.375q-0.328125 0.6875 -1.234375 1.640625q-0.890625 0.953125 -2.53125 2.296875q-0.953125 0.765625 -1.484375 1.46875q-0.515625 0.703125 -0.609375 1.125l3.65625 0.09375q0.6875 0.03125 1.046875 -0.21875q0.359375 -0.265625 0.359375 -1.0l1.1875 0l-0.140625 3.046875l-8.171875 0z" fill-rule="nonzero"></path><path fill="#6aa84f" d="m625.3196 175.12982q0.484375 0 0.8125 -0.28125q0.328125 -0.28125 0.5 -0.6875q0.1875 -0.40625 0.46875 -1.171875l3.640625 -9.96875l1.3125 0l3.96875 10.15625q0.15625 0.375 0.3125 0.9375q0.171875 0.546875 0.21875 0.921875q0.609375 -0.0625 1.078125 -0.0625l0 1.4375l-5.015625 0l0 -1.234375q0.890625 0 0.890625 -0.75q0 -0.359375 -0.203125 -0.890625l-0.375 -1.03125l-4.046875 0.078125l-0.296875 0.875q-0.0625 0.15625 -0.265625 0.6875q-0.1875 0.515625 -0.328125 0.828125q0.59375 -0.0625 1.3125 -0.0625l0 1.5l-3.984375 0l0 -1.28125zm7.140625 -3.9375l-0.859375 -2.34375q-0.53125 -1.515625 -0.703125 -2.546875l-0.015625 0q-0.3125 1.34375 -0.703125 2.453125l-0.828125 2.4375l3.109375 0zm11.1033325 -1.640625l6.859375 0l0 1.953125l-6.859375 0.0625l0 -2.015625zm17.09961 -0.15625l0 1.6875l-8.390625 3.734375l0 -1.96875l5.796875 -2.5625l0 -0.015625l-5.796875 -2.53125l0 -2.0l8.390625 3.65625zm7.4205933 5.78125q0.5 -0.015625 0.75 -0.109375q0.265625 -0.109375 0.40625 -0.4375q0.15625 -0.34375 0.15625 -1.078125l0 -7.46875l-2.03125 1.203125l-0.671875 -1.125l4.28125 -3.109375l1.109375 0l0 10.296875q0 1.203125 -0.046875 1.6875q0.59375 -0.0625 1.390625 -0.0625l0 1.4375l-5.34375 0l0 -1.234375z" fill-rule="nonzero"></path><path stroke="#9e9e9e" stroke-width="2.0" stroke-linecap="butt" d="m795.2152 68.491066l0 116.666664" fill-rule="nonzero"></path><path stroke="#9e9e9e" stroke-width="2.0" stroke-linecap="butt" d="m940.7244 68.491066l0 116.666664" fill-rule="nonzero"></path><path stroke="#9e9e9e" stroke-width="2.0" stroke-linecap="butt" d="m794.2152 69.491066l147.50922 0" fill-rule="nonzero"></path><path stroke="#9e9e9e" stroke-width="2.0" stroke-linecap="butt" d="m794.2152 98.15774l147.50922 0" fill-rule="nonzero"></path><path stroke="#9e9e9e" stroke-width="2.0" stroke-linecap="butt" d="m794.2152 126.8244l147.50922 0" fill-rule="nonzero"></path><path stroke="#9e9e9e" stroke-width="2.0" stroke-linecap="butt" d="m794.2152 155.49107l147.50922 0" fill-rule="nonzero"></path><path stroke="#9e9e9e" stroke-width="2.0" stroke-linecap="butt" d="m794.2152 184.15773l147.50922 0" fill-rule="nonzero"></path><path fill="#000000" d="m805.1527 89.17669q0.5 -0.015625 0.75 -0.109375q0.265625 -0.109375 0.40625 -0.4375q0.15625 -0.34375 0.15625 -1.078125l0 -7.140625q0 -1.046875 0.078125 -1.671875l-1.390625 0.046875l0 -1.4375l5.296875 -0.03125q2.515625 -0.015625 3.9375 1.0q1.4375 1.015625 1.4375 3.078125q0 1.0625 -0.609375 2.046875q-0.59375 0.96875 -1.796875 1.578125q-1.1875 0.609375 -2.890625 0.671875l-0.734375 0.015625l-0.609375 -0.015625l0 1.640625q0 1.0625 -0.078125 1.703125q0.59375 -0.0625 1.578125 -0.0625l0 1.4375l-5.53125 0l0 -1.234375zm4.859375 -4.828125q1.515625 0 2.21875 -0.75q0.703125 -0.765625 0.703125 -2.21875q0 -2.765625 -2.5 -2.765625q-0.65625 0 -0.953125 0.28125q-0.296875 0.28125 -0.296875 1.203125l0 4.1875q0.390625 0.0625 0.828125 0.0625zm9.218201 6.359375q-1.171875 0 -1.859375 -0.6875q-0.671875 -0.703125 -0.671875 -1.796875q0 -1.640625 1.53125 -2.484375q1.53125 -0.84375 3.671875 -0.9375l0 -0.96875q0 -1.703125 -1.265625 -1.703125q-0.828125 0 -1.34375 0.515625q0.21875 0.265625 0.21875 0.71875q0 0.4375 -0.3125 0.796875q-0.296875 0.359375 -0.890625 0.359375q-0.5625 0 -0.890625 -0.359375q-0.3125 -0.375 -0.3125 -0.90625q0 -0.734375 0.515625 -1.296875q0.53125 -0.5625 1.4375 -0.859375q0.90625 -0.3125 1.984375 -0.3125q3.453125 0 3.453125 3.5625l-0.015625 3.0625q0 0.890625 -0.078125 1.640625q0.609375 -0.0625 1.21875 -0.0625l0 1.421875l-3.53125 0q-0.046875 -0.25 -0.078125 -0.859375l-0.015625 0q-1.140625 1.15625 -2.765625 1.15625zm1.171875 -1.828125q0.84375 0 1.484375 -0.671875l0 -2.09375q-1.109375 0.125 -1.828125 0.578125q-0.71875 0.4375 -0.71875 1.203125q0 0.5 0.3125 0.75q0.3125 0.234375 0.75 0.234375zm10.682129 1.828125q-1.265625 0 -2.3125 -0.5625q-1.046875 -0.578125 -1.671875 -1.640625q-0.609375 -1.078125 -0.609375 -2.546875q0 -1.40625 0.609375 -2.59375q0.625 -1.1875 1.734375 -1.875q1.109375 -0.703125 2.5 -0.703125q1.140625 0 1.953125 0.359375q0.8125 0.34375 1.21875 0.9375q0.421875 0.578125 0.421875 1.25q0 0.578125 -0.34375 1.0q-0.34375 0.40625 -0.953125 0.40625q-0.609375 0 -0.921875 -0.375q-0.296875 -0.375 -0.296875 -0.84375q0 -0.421875 0.21875 -0.8125q-0.171875 -0.34375 -0.546875 -0.484375q-0.375 -0.140625 -0.75 -0.140625q-0.9375 0 -1.53125 0.875q-0.59375 0.875 -0.59375 2.453125q0 1.578125 0.609375 2.609375q0.625 1.03125 1.953125 1.03125q0.75 0 1.46875 -0.390625q0.734375 -0.390625 1.234375 -1.046875l0.859375 0.84375q-0.9375 1.28125 -2.0 1.765625q-1.0625 0.484375 -2.25 0.484375zm4.9608154 -1.515625q0.703125 0 0.90625 -0.390625q0.203125 -0.390625 0.203125 -1.265625l0 -7.671875q0 -0.890625 0.078125 -1.609375l-1.296875 0.046875l0 -1.421875q1.171875 0 1.890625 -0.15625q0.734375 -0.171875 0.953125 -0.390625l1.03125 0l0 8.5l0.890625 0l1.34375 -1.546875q0.578125 -0.65625 0.734375 -0.78125l0 -0.015625l-0.984375 0.015625l0 -1.421875l4.1875 0l0 1.1875q-0.890625 0.09375 -1.515625 0.5q-0.625 0.40625 -1.125 0.984375l-1.203125 1.328125l0 0.015625q0.296875 0.140625 0.5625 0.390625q0.28125 0.25 0.65625 0.765625l1.25 1.640625q0.484375 0.59375 0.859375 0.953125q0.375 0.34375 0.859375 0.34375l0 1.21875l-2.15625 0q-0.546875 0 -0.984375 -0.375q-0.421875 -0.375 -1.078125 -1.25q-0.703125 -0.953125 -1.359375 -1.9375l-0.5 -0.703125l-0.4375 0.015625l0 1.25q0 0.890625 -0.078125 1.640625q0.59375 -0.0625 1.21875 -0.0625l0 1.421875l-4.90625 0l0 -1.21875zm15.800598 1.515625q-1.359375 0 -2.40625 -0.609375q-1.046875 -0.609375 -1.625 -1.71875q-0.578125 -1.125 -0.578125 -2.609375q0 -1.3125 0.578125 -2.453125q0.59375 -1.15625 1.65625 -1.84375q1.0625 -0.6875 2.4375 -0.6875q1.796875 0 3.0 1.0625q1.203125 1.0625 1.1875 3.546875l-6.109375 0.109375q0 1.640625 0.625 2.59375q0.625 0.953125 2.0 0.953125q0.65625 0 1.390625 -0.328125q0.75 -0.34375 1.34375 -1.078125l0.84375 0.78125q-1.578125 2.28125 -4.34375 2.28125zm1.671875 -6.515625q-0.046875 -2.109375 -1.53125 -2.109375q-0.796875 0 -1.28125 0.578125q-0.46875 0.5625 -0.609375 1.53125l3.421875 0zm7.6307983 6.515625q-2.90625 0 -2.90625 -3.578125l0.03125 -4.5l-1.265625 0l0 -1.546875q0.609375 0 1.140625 -0.375q0.53125 -0.375 0.890625 -0.90625q0.375 -0.546875 0.53125 -1.046875l1.375 0l-0.015625 2.328125l2.375 0l0 1.4375l-2.375 0.0625l-0.015625 4.578125q0 1.8125 1.109375 1.8125q0.90625 0 1.703125 -1.125l0.890625 0.84375q-0.875 1.296875 -1.75 1.65625q-0.875 0.359375 -1.71875 0.359375zm8.892883 -0.296875q0 -1.21875 0.390625 -2.140625q0.40625 -0.9375 0.984375 -1.59375q0.578125 -0.671875 1.53125 -1.546875q1.328125 -1.234375 1.90625 -2.265625q0.59375 -1.03125 0.59375 -2.0625q0 -1.03125 -0.40625 -1.71875q-0.40625 -0.703125 -1.34375 -0.703125q-0.484375 0 -0.90625 0.234375q-0.421875 0.21875 -0.65625 0.546875q0.1875 0.1875 0.28125 0.46875q0.09375 0.265625 0.09375 0.5q0 0.40625 -0.3125 0.8125q-0.3125 0.390625 -0.90625 0.390625q-0.5625 0 -0.90625 -0.390625q-0.328125 -0.40625 -0.328125 -0.984375q0 -0.59375 0.484375 -1.265625q0.5 -0.6875 1.421875 -1.15625q0.921875 -0.484375 2.15625 -0.484375q1.078125 0 2.03125 0.359375q0.953125 0.34375 1.546875 1.140625q0.609375 0.796875 0.609375 2.03125q0 0.671875 -0.34375 1.375q-0.328125 0.6875 -1.234375 1.640625q-0.890625 0.953125 -2.53125 2.296875q-0.953125 0.765625 -1.484375 1.46875q-0.515625 0.703125 -0.609375 1.125l3.65625 0.09375q0.6875 0.03125 1.046875 -0.21875q0.359375 -0.265625 0.359375 -1.0l1.1875 0l-0.140625 3.046875l-8.171875 0z" fill-rule="nonzero"></path><path fill="#9900ff" d="m811.2621 119.37461q-1.875 0 -3.34375 -0.875q-1.453125 -0.875 -2.25 -2.390625q-0.796875 -1.53125 -0.796875 -3.375q0 -1.765625 0.75 -3.375q0.765625 -1.625 2.234375 -2.625q1.46875 -1.015625 3.546875 -1.015625q0.734375 0 1.59375 0.25q0.875 0.234375 1.609375 0.671875l0.015625 0l-0.078125 -0.796875l1.4375 0l0 4.359375l-1.203125 0q-0.5 -3.109375 -3.140625 -3.140625q-1.25 0 -2.125 0.734375q-0.859375 0.734375 -1.296875 1.953125q-0.421875 1.21875 -0.421875 2.609375q0 1.609375 0.46875 2.859375q0.46875 1.25 1.34375 1.953125q0.875 0.6875 2.109375 0.6875q1.1875 0 2.328125 -0.609375q1.15625 -0.609375 1.9375 -1.671875l0.90625 0.8125q-1.234375 1.703125 -2.71875 2.34375q-1.46875 0.640625 -2.90625 0.640625zm11.648376 -7.15625l6.859375 0l0 1.953125l-6.859375 0.0625l0 -2.015625zm17.09961 -0.15625l0 1.6875l-8.390625 3.734375l0 -1.96875l5.796875 -2.5625l0 -0.015625l-5.796875 -2.53125l0 -2.0l8.390625 3.65625zm7.420532 5.78125q0.5 -0.015625 0.75 -0.109375q0.265625 -0.109375 0.40625 -0.4375q0.15625 -0.34375 0.15625 -1.078125l0 -7.46875l-2.03125 1.203125l-0.671875 -1.125l4.28125 -3.109375l1.109375 0l0 10.296875q0 1.203125 -0.046875 1.6875q0.59375 -0.0625 1.390625 -0.0625l0 1.4375l-5.34375 0l0 -1.234375z" fill-rule="nonzero"></path><path fill="#9900ff" d="m804.29333 146.46315q0.484375 0 0.8125 -0.28125q0.328125 -0.28125 0.5 -0.6875q0.1875 -0.40625 0.46875 -1.171875l3.640625 -9.96875l1.3125 0l3.96875 10.15625q0.15625 0.375 0.3125 0.9375q0.171875 0.546875 0.21875 0.921875q0.609375 -0.0625 1.078125 -0.0625l0 1.4375l-5.015625 0l0 -1.234375q0.890625 0 0.890625 -0.75q0 -0.359375 -0.203125 -0.890625l-0.375 -1.03125l-4.046875 0.078125l-0.296875 0.875q-0.0625 0.15625 -0.265625 0.6875q-0.1875 0.515625 -0.328125 0.828125q0.59375 -0.0625 1.3125 -0.0625l0 1.5l-3.984375 0l0 -1.28125zm7.140625 -3.9375l-0.859375 -2.34375q-0.53125 -1.515625 -0.703125 -2.546875l-0.015625 0q-0.3125 1.34375 -0.703125 2.453125l-0.828125 2.4375l3.109375 0zm11.1033325 -1.640625l6.859375 0l0 1.953125l-6.859375 0.0625l0 -2.015625zm17.09961 -0.15625l0 1.6875l-8.390625 3.734375l0 -1.96875l5.796875 -2.5625l0 -0.015625l-5.796875 -2.53125l0 -2.0l8.390625 3.65625zm9.686218 5.78125q0.5 -0.015625 0.765625 -0.109375q0.265625 -0.109375 0.40625 -0.4375q0.15625 -0.34375 0.15625 -1.078125l0 -0.515625l-4.875 0l0 -1.75l6.40625 -8.234375l1.140625 0l0 8.296875l1.828125 0l0 1.6875l-1.828125 0l0 0.3125q0 1.25 -0.078125 1.6875q0.609375 -0.0625 1.390625 -0.0625l0 1.4375l-5.3125 0l0 -1.234375zm1.34375 -7.984375l-0.015625 0l-3.140625 4.109375l3.140625 0.015625l0.015625 -4.125z" fill-rule="nonzero"></path><path fill="#cc0000" d="m805.1527 175.1767q0.5 -0.015625 0.75 -0.109375q0.265625 -0.109375 0.40625 -0.4375q0.15625 -0.34375 0.15625 -1.078125l0 -7.140625q0 -1.046875 0.078125 -1.671875l-1.390625 0.046875l0 -1.4375l5.15625 -0.03125q2.25 -0.015625 3.515625 0.8125q1.265625 0.8125 1.265625 2.390625q0 0.921875 -0.6875 1.703125q-0.671875 0.765625 -2.0 1.109375l0 0.03125q1.796875 0.28125 2.703125 1.203125q0.921875 0.90625 0.921875 2.125q0 1.78125 -1.265625 2.75q-1.25 0.96875 -3.265625 0.96875l-6.34375 0l0 -1.234375zm5.0 -6.109375q1.09375 -0.03125 1.578125 -0.703125q0.5 -0.6875 0.5 -1.796875q0 -1.015625 -0.5625 -1.484375q-0.546875 -0.46875 -1.359375 -0.46875q-0.390625 0 -0.625 0.09375q-0.21875 0.09375 -0.359375 0.453125q-0.140625 0.34375 -0.140625 1.03125l0 2.890625l0.96875 -0.015625zm-1.046875 6.015625q1.234375 0 1.8125 -0.015625q1.09375 -0.0625 1.625 -0.703125q0.546875 -0.640625 0.546875 -1.71875q0 -1.203125 -0.6875 -1.734375q-0.6875 -0.53125 -1.71875 -0.53125q-1.015625 0 -1.5 0.03125l0 3.03125q0 1.015625 -0.078125 1.640625zm13.300903 -5.53125l6.859375 0l0 1.953125l-6.859375 0.0625l0 -2.015625zm17.09961 -0.15625l0 1.6875l-8.390625 3.734375l0 -1.96875l5.796875 -2.5625l0 -0.015625l-5.796875 -2.53125l0 -2.0l8.390625 3.65625zm10.623657 7.3125q-1.328125 0 -2.25 -0.390625q-0.90625 -0.40625 -1.359375 -1.03125q-0.4375 -0.625 -0.4375 -1.3125q0 -0.609375 0.359375 -1.015625q0.359375 -0.40625 0.9375 -0.40625q0.609375 0 0.890625 0.375q0.296875 0.375 0.296875 0.8125q0 0.203125 -0.078125 0.4375q-0.078125 0.234375 -0.234375 0.421875q0.1875 0.34375 0.65625 0.546875q0.484375 0.203125 1.03125 0.203125q1.140625 0 1.75 -0.671875q0.625 -0.6875 0.625 -1.796875q0 -1.140625 -0.65625 -1.9375q-0.640625 -0.796875 -2.109375 -0.78125q-0.296875 0 -0.96875 0.0625l0 -1.34375q0.203125 0.015625 0.53125 0.015625q1.234375 0 1.921875 -0.65625q0.703125 -0.671875 0.703125 -1.75q0 -0.984375 -0.421875 -1.546875q-0.421875 -0.578125 -1.3125 -0.578125q-0.5 0 -0.90625 0.234375q-0.40625 0.234375 -0.578125 0.546875q0.15625 0.1875 0.21875 0.453125q0.078125 0.25 0.078125 0.453125q0 0.421875 -0.3125 0.8125q-0.296875 0.390625 -0.890625 0.390625q-0.578125 0 -0.90625 -0.375q-0.328125 -0.390625 -0.328125 -0.96875q0 -0.59375 0.453125 -1.265625q0.453125 -0.671875 1.34375 -1.125q0.890625 -0.46875 2.125 -0.46875q1.875 0 3.0 0.796875q1.140625 0.796875 1.140625 2.5q0 0.546875 -0.296875 1.140625q-0.28125 0.59375 -0.90625 1.09375q-0.625 0.5 -1.59375 0.703125l0 0.015625q1.703125 0.3125 2.59375 1.265625q0.890625 0.9375 0.890625 2.1875q0 1.859375 -1.390625 2.90625q-1.375 1.046875 -3.609375 1.046875z" fill-rule="nonzero"></path><path fill="#000000" fill-opacity="0.0" d="m49.15877 21.286089l203.71654 0l0 8.661417l-203.71654 0z" fill-rule="evenodd"></path><path fill="#000000" d="m63.455647 25.50813q0.8281288 0 1.6718788 0.21875q0.84375 0.21875 1.515625 0.734375l-0.03125 -0.796875l0.953125 0l-0.203125 4.09375l-0.671875 0q-0.03125 -1.46875 -0.828125 -2.484375q-0.796875 -1.015625 -2.3281288 -1.015625q-1.15625 0 -1.859375 0.6875q-0.6875 0.671875 -0.6875 1.640625q0 0.703125 0.40625 1.21875q0.421875 0.515625 1.015625 0.875q0.59375 0.359375 1.6406288 0.84375q1.203125 0.53125 1.9375 1.0q0.75 0.453125 1.265625 1.15625q0.515625 0.703125 0.515625 1.734375q0 1.109375 -0.546875 1.953125q-0.53125 0.84375 -1.5625 1.328125q-1.03125 0.46875 -2.4375038 0.46875q-0.859375 0 -1.75 -0.1875q-0.890625 -0.1875 -1.515625 -0.609375l0.046875 0.65625l-0.96875 0l0.09375 -3.984375l0.734375 0q0.015625 1.65625 0.96875 2.5q0.953125 0.84375 2.515625 0.84375q1.1875038 0 2.0156288 -0.65625q0.84375 -0.65625 0.84375 -1.8125q0 -0.78125 -0.4375 -1.328125q-0.421875 -0.5625 -1.046875 -0.9375q-0.609375 -0.375 -1.6875038 -0.90625q-1.15625 -0.53125 -1.859375 -0.953125q-0.703125 -0.4375 -1.1875 -1.109375q-0.484375 -0.671875 -0.484375 -1.640625q0 -0.75 0.34375 -1.5625q0.359375 -0.8125 1.25 -1.390625q0.890625 -0.578125 2.359375 -0.578125zm10.528187 3.828125q1.109375 0 1.859375 0.53125q0.75 0.515625 0.75 1.609375q0 1.390625 -1.671875 2.15625q-1.65625 0.75 -3.828125 1.0q0 1.75 0.515625 2.625q0.53125 0.875 1.609375 0.875q0.859375 0 1.65625 -0.5625q0.796875 -0.5625 1.40625 -1.6875l0.609375 0.359375q-0.78125 1.46875 -1.75 2.15625q-0.96875 0.671875 -2.25 0.671875q-1.703125 0 -2.578125 -1.0625q-0.859375 -1.078125 -0.859375 -2.96875q0 -1.5 0.5 -2.796875q0.515625 -1.296875 1.546875 -2.09375q1.03125 -0.8125 2.484375 -0.8125zm-0.265625 0.625q-1.1875 0 -1.84375 1.171875q-0.65625 1.15625 -0.765625 2.828125q1.625 -0.21875 2.78125 -0.890625q1.15625 -0.671875 1.15625 -1.6875q0 -0.609375 -0.34375 -1.015625q-0.34375 -0.40625 -0.984375 -0.40625zm11.195908 -0.625q1.234375 0 1.875 1.03125q0.640625 1.015625 0.640625 2.59375q0 1.828125 -0.640625 3.203125q-0.625 1.375 -1.875 2.140625q-1.234375 0.765625 -2.984375 0.765625q-0.453125 0 -0.875 -0.046875l-0.15625 2.34375q-0.015625 0.125 -0.015625 0.40625q-0.03125 0.734375 -0.125 1.140625l1.171875 -0.046875l0 0.75l-3.53125 0l0 -0.546875q0.453125 0 0.671875 -0.28125q0.21875 -0.28125 0.296875 -0.71875q0.09375 -0.4375 0.15625 -1.25q0 -0.234375 0.015625 -0.375q0.171875 -1.96875 0.5 -5.640625q0.296875 -3.078125 0.296875 -3.546875q0 -0.484375 -0.09375 -0.734375q-0.09375 -0.25 -0.40625 -0.25q-0.359375 0 -0.71875 0.453125q-0.359375 0.4375 -0.625 1.34375l-0.546875 -0.109375q0.09375 -0.515625 0.40625 -1.125q0.3125 -0.625 0.828125 -1.0625q0.515625 -0.4375 1.203125 -0.4375q1.40625 0 1.40625 1.953125q0 0.828125 -0.25 2.125l0.046875 0q0.71875 -2.34375 1.53125 -3.203125q0.828125 -0.875 1.796875 -0.875zm-0.390625 0.875q-0.65625 0 -1.3125 0.90625q-0.65625 0.90625 -1.15625 2.359375q-0.5 1.4375 -0.75 2.96875q-0.109375 0.65625 -0.203125 1.765625q0.671875 0.234375 1.140625 0.234375q1.234375 0 2.046875 -0.78125q0.8125 -0.78125 1.171875 -1.953125q0.359375 -1.1875 0.359375 -2.421875q0 -1.4375 -0.296875 -2.25q-0.296875 -0.828125 -1.0 -0.828125zm9.8871 -0.875q1.265625 0 2.5 0.3125q-0.828125 6.078125 -0.828125 7.46875q0 0.484375 0.09375 0.75q0.09375 0.265625 0.4375 0.265625q0.34375 0 0.71875 -0.4375q0.375 -0.453125 0.640625 -1.359375l0.515625 0.109375q-0.09375 0.515625 -0.40625 1.140625q-0.296875 0.609375 -0.8125 1.046875q-0.515625 0.4375 -1.203125 0.4375q-1.375 0 -1.375 -1.671875q0 -0.828125 0.328125 -2.5l-0.046875 0q-0.796875 2.453125 -1.734375 3.3125q-0.921875 0.859375 -1.90625 0.859375q-1.078125 0 -1.734375 -0.78125q-0.640625 -0.78125 -0.640625 -2.46875q0 -1.78125 0.609375 -3.25q0.625 -1.484375 1.859375 -2.359375q1.234375 -0.875 2.984375 -0.875zm-0.578125 0.671875q-1.078125 0 -1.828125 0.78125q-0.75 0.765625 -1.125 2.03125q-0.359375 1.25 -0.359375 2.6875q0 2.75 1.21875 2.75q0.828125 0 1.640625 -1.28125q0.828125 -1.296875 1.359375 -3.1875q0.546875 -1.90625 0.546875 -3.5625q-0.5625 -0.21875 -1.453125 -0.21875zm11.879883 -0.671875q0.578125 0 0.9375 0.296875q0.375 0.28125 0.375 0.78125q0 0.359375 -0.25 0.625q-0.234375 0.265625 -0.609375 0.265625q-0.34375 0 -0.59375 -0.203125q-0.234375 -0.203125 -0.265625 -0.578125q-0.078125 -0.015625 -0.203125 -0.015625q-0.78125 0 -1.53125 1.25q-0.75 1.25 -1.21875 3.046875q-0.46875 1.78125 -0.46875 3.265625q0 0.15625 0.046875 0.796875l-1.546875 0q-0.03125 -0.171875 -0.03125 -0.484375q0 -1.140625 0.3125 -3.828125l0.234375 -2.15625q0.109375 -0.96875 0.109375 -1.296875q0 -0.390625 -0.109375 -0.609375q-0.09375 -0.21875 -0.390625 -0.21875q-0.359375 0 -0.734375 0.453125q-0.359375 0.4375 -0.625 1.34375l-0.53125 -0.109375q0.09375 -0.515625 0.40625 -1.125q0.3125 -0.625 0.8125 -1.0625q0.515625 -0.4375 1.21875 -0.4375q0.71875 0 1.03125 0.46875q0.328125 0.46875 0.328125 1.34375q0 0.859375 -0.28125 2.25l0.046875 0q0.765625 -2.25 1.640625 -3.15625q0.890625 -0.90625 1.890625 -0.90625zm7.4104767 0q1.265625 0 2.5 0.3125q-0.828125 6.078125 -0.828125 7.46875q0 0.484375 0.09375 0.75q0.09375 0.265625 0.4375 0.265625q0.34375 0 0.71875 -0.4375q0.375 -0.453125 0.640625 -1.359375l0.515625 0.109375q-0.09375 0.515625 -0.40625 1.140625q-0.296875 0.609375 -0.8125 1.046875q-0.515625 0.4375 -1.203125 0.4375q-1.375 0 -1.375 -1.671875q0 -0.828125 0.328125 -2.5l-0.046875 0q-0.796875 2.453125 -1.734375 3.3125q-0.921875 0.859375 -1.90625 0.859375q-1.078125 0 -1.734375 -0.78125q-0.640625 -0.78125 -0.640625 -2.46875q0 -1.78125 0.609375 -3.25q0.625 -1.484375 1.859375 -2.359375q1.234375 -0.875 2.984375 -0.875zm-0.578125 0.671875q-1.078125 0 -1.828125 0.78125q-0.75 0.765625 -1.125 2.03125q-0.359375 1.25 -0.359375 2.6875q0 2.75 1.21875 2.75q0.828125 0 1.640625 -1.28125q0.828125 -1.296875 1.359375 -3.1875q0.546875 -1.90625 0.546875 -3.5625q-0.5625 -0.21875 -1.453125 -0.21875zm8.379883 -0.46875l2.953125 0l-0.046875 0.703125l-2.984375 0.046875l-0.140625 1.1875q-0.40625 3.546875 -0.40625 5.015625q0 0.734375 0.171875 1.1875q0.171875 0.4375 0.703125 0.4375q0.96875 0 1.765625 -1.296875l0.484375 0.3125q-0.578125 0.984375 -1.203125 1.46875q-0.625 0.46875 -1.484375 0.46875q-1.03125 0 -1.5 -0.609375q-0.453125 -0.625 -0.453125 -1.59375q0 -1.078125 0.125 -2.84375q0.140625 -1.765625 0.375 -3.71875l-1.671875 0.015625l0.0625 -0.78125q1.109375 0 1.796875 -0.65625q0.703125 -0.671875 1.078125 -1.96875l0.703125 0l-0.328125 2.625zm8.337746 -0.203125q1.109375 0 1.859375 0.53125q0.75 0.515625 0.75 1.609375q0 1.390625 -1.671875 2.15625q-1.65625 0.75 -3.8281174 1.0q0 1.75 0.515625 2.625q0.53125 0.875 1.6093674 0.875q0.859375 0 1.65625 -0.5625q0.796875 -0.5625 1.40625 -1.6875l0.609375 0.359375q-0.78125 1.46875 -1.75 2.15625q-0.96875 0.671875 -2.25 0.671875q-1.7031174 0 -2.5781174 -1.0625q-0.859375 -1.078125 -0.859375 -2.96875q0 -1.5 0.5 -2.796875q0.515625 -1.296875 1.546875 -2.09375q1.03125 -0.8125 2.4843674 -0.8125zm-0.265625 0.625q-1.1874924 0 -1.8437424 1.171875q-0.65625 1.15625 -0.765625 2.828125q1.6249924 -0.21875 2.7812424 -0.890625q1.15625 -0.671875 1.15625 -1.6875q0 -0.609375 -0.34375 -1.015625q-0.34375 -0.40625 -0.984375 -0.40625zm12.586884 -3.859375q-0.21875 1.3125 -0.28125 1.859375q-0.296875 2.171875 -0.5625 5.0625q-0.265625 2.875 -0.265625 4.140625q0 0.46875 0.09375 0.71875q0.09375 0.25 0.40625 0.25q0.359375 0 0.71875 -0.4375q0.375 -0.4375 0.640625 -1.359375l0.53125 0.125q-0.09375 0.515625 -0.40625 1.125q-0.296875 0.609375 -0.8125 1.046875q-0.5 0.4375 -1.1875 0.4375q-0.796875 0 -1.15625 -0.40625q-0.34375 -0.40625 -0.34375 -1.25q0 -1.234375 0.328125 -4.53125q0.328125 -3.3125 0.6875 -5.921875l0.15625 -1.0l-1.328125 0.078125l0.09375 -0.75q1.109375 0 1.59375 -0.125q0.484375 -0.140625 0.78125 -0.375l0.53125 0l-0.21875 1.3125zm6.826599 3.234375q1.015625 0 1.828125 0.484375q0.8125 0.484375 1.265625 1.40625q0.453125 0.921875 0.453125 2.1875q0 1.53125 -0.546875 2.828125q-0.546875 1.28125 -1.59375 2.0625q-1.03125 0.765625 -2.421875 0.765625q-1.78125 0 -2.6875 -1.15625q-0.890625 -1.171875 -0.890625 -3.015625q0 -1.53125 0.546875 -2.796875q0.5625 -1.28125 1.609375 -2.015625q1.046875 -0.75 2.4375 -0.75zm-0.296875 0.6875q-0.8125 0 -1.421875 0.59375q-0.609375 0.578125 -0.921875 1.59375q-0.3125 1.015625 -0.3125 2.265625q0 1.5625 0.5 2.734375q0.5 1.15625 1.640625 1.15625q0.953125 0 1.546875 -0.71875q0.609375 -0.734375 0.890625 -1.796875q0.28125 -1.0625 0.28125 -2.078125q0 -1.5625 -0.5 -2.65625q-0.484375 -1.09375 -1.703125 -1.09375zm10.84491 -0.6875q0.65625 0 1.296875 0.09375q0.640625 0.078125 1.078125 0.21875q-0.09375 1.53125 -0.484375 6.125l-0.25 2.828125q-0.21875 2.65625 -1.453125 3.984375q-1.234375 1.34375 -3.328125 1.34375q-0.53125 0 -1.171875 -0.15625q-0.625 -0.15625 -1.09375 -0.515625q-0.46875 -0.34375 -0.484375 -0.90625q0 -0.390625 0.25 -0.671875q0.25 -0.28125 0.625 -0.28125q0.359375 0 0.59375 0.21875q0.25 0.234375 0.25 0.640625q0 0.25 -0.125 0.484375q0.171875 0.265625 0.546875 0.390625q0.375 0.140625 0.75 0.140625q1.328125 0 2.015625 -0.90625q0.703125 -0.90625 0.9375 -2.171875q0.25 -1.265625 0.421875 -3.28125q0.109375 -1.390625 0.203125 -2.015625l-0.0625 0q-0.703125 2.4375 -1.5625 3.3125q-0.859375 0.859375 -1.875 0.859375q-1.25 0 -1.890625 -0.984375q-0.640625 -0.984375 -0.640625 -2.640625q0 -1.65625 0.59375 -3.046875q0.609375 -1.390625 1.828125 -2.21875q1.234375 -0.84375 3.03125 -0.84375zm-0.296875 0.671875q-1.265625 0 -2.078125 0.8125q-0.8125 0.796875 -1.15625 1.96875q-0.34375 1.15625 -0.34375 2.34375q0 1.40625 0.3125 2.234375q0.3125 0.828125 1.03125 0.828125q0.8125 0 1.578125 -1.28125q0.78125 -1.28125 1.28125 -3.15625q0.515625 -1.875 0.609375 -3.515625q-0.484375 -0.234375 -1.234375 -0.234375zm13.976791 -0.671875q1.109375 0 1.859375 0.53125q0.75 0.515625 0.75 1.609375q0 1.390625 -1.671875 2.15625q-1.65625 0.75 -3.828125 1.0q0 1.75 0.515625 2.625q0.53125 0.875 1.609375 0.875q0.859375 0 1.65625 -0.5625q0.796875 -0.5625 1.40625 -1.6875l0.609375 0.359375q-0.78125 1.46875 -1.75 2.15625q-0.96875 0.671875 -2.25 0.671875q-1.703125 0 -2.578125 -1.0625q-0.859375 -1.078125 -0.859375 -2.96875q0 -1.5 0.5 -2.796875q0.515625 -1.296875 1.546875 -2.09375q1.03125 -0.8125 2.484375 -0.8125zm-0.265625 0.625q-1.1875 0 -1.84375 1.171875q-0.65625 1.15625 -0.765625 2.828125q1.625 -0.21875 2.78125 -0.890625q1.15625 -0.671875 1.15625 -1.6875q0 -0.609375 -0.34375 -1.015625q-0.34375 -0.40625 -0.984375 -0.40625zm11.289658 -0.625q1.046875 0 1.53125 0.671875q0.5 0.671875 0.5 1.75q0 1.25 -0.359375 3.578125q-0.203125 1.484375 -0.203125 1.953125q0 0.40625 0.09375 0.625q0.109375 0.21875 0.40625 0.21875q0.359375 0 0.734375 -0.4375q0.375 -0.4375 0.640625 -1.359375l0.515625 0.125q-0.09375 0.515625 -0.40625 1.125q-0.296875 0.609375 -0.8125 1.046875q-0.515625 0.4375 -1.203125 0.4375q-0.84375 0 -1.1875 -0.4375q-0.328125 -0.4375 -0.328125 -1.34375q0 -0.703125 0.25 -2.46875q0.328125 -2.28125 0.328125 -3.46875q0 -0.4375 -0.203125 -0.78125q-0.1875 -0.359375 -0.671875 -0.359375q-0.828125 0 -1.6875 1.25q-0.84375 1.234375 -1.421875 3.0625q-0.5625 1.8125 -0.5625 3.359375q0 0.34375 0.03125 0.984375l-1.5625 0q-0.015625 -0.171875 -0.015625 -0.484375q0 -0.453125 0.078125 -1.25q0.078125 -0.796875 0.25 -2.109375q0 -0.109375 0.046875 -0.375q0.015625 -0.234375 0.046875 -0.5q0.03125 -0.265625 0.0625 -0.53125q0.125 -1.125 0.171875 -1.640625q0.0625 -0.53125 0.0625 -0.875q0 -0.390625 -0.109375 -0.609375q-0.09375 -0.21875 -0.390625 -0.21875q-0.359375 0 -0.734375 0.453125q-0.359375 0.4375 -0.625 1.34375l-0.53125 -0.109375q0.09375 -0.515625 0.40625 -1.125q0.3125 -0.625 0.8125 -1.0625q0.515625 -0.4375 1.21875 -0.4375q1.390625 0 1.390625 1.921875q0 0.53125 -0.109375 1.1875q-0.09375 0.640625 -0.1875 1.140625l0.0625 0q0.890625 -2.390625 1.765625 -3.3125q0.890625 -0.9375 1.90625 -0.9375zm7.8017273 0.203125l2.953125 0l-0.046875 0.703125l-2.984375 0.046875l-0.140625 1.1875q-0.40625 3.546875 -0.40625 5.015625q0 0.734375 0.171875 1.1875q0.171875 0.4375 0.703125 0.4375q0.96875 0 1.765625 -1.296875l0.484375 0.3125q-0.578125 0.984375 -1.203125 1.46875q-0.625 0.46875 -1.484375 0.46875q-1.03125 0 -1.5 -0.609375q-0.453125 -0.625 -0.453125 -1.59375q0 -1.078125 0.125 -2.84375q0.140625 -1.765625 0.375 -3.71875l-1.671875 0.015625l0.0625 -0.78125q1.109375 0 1.796875 -0.65625q0.703125 -0.671875 1.078125 -1.96875l0.703125 0l-0.328125 2.625zm10.290878 -0.203125q0.578125 0 0.9375 0.296875q0.375 0.28125 0.375 0.78125q0 0.359375 -0.25 0.625q-0.234375 0.265625 -0.609375 0.265625q-0.34375 0 -0.59375 -0.203125q-0.234375 -0.203125 -0.265625 -0.578125q-0.078125 -0.015625 -0.203125 -0.015625q-0.78125 0 -1.53125 1.25q-0.75 1.25 -1.21875 3.046875q-0.46875 1.78125 -0.46875 3.265625q0 0.15625 0.046875 0.796875l-1.546875 0q-0.03125 -0.171875 -0.03125 -0.484375q0 -1.140625 0.3125 -3.828125l0.234375 -2.15625q0.109375 -0.96875 0.109375 -1.296875q0 -0.390625 -0.109375 -0.609375q-0.09375 -0.21875 -0.390625 -0.21875q-0.359375 0 -0.734375 0.453125q-0.359375 0.4375 -0.625 1.34375l-0.53125 -0.109375q0.09375 -0.515625 0.40625 -1.125q0.3125 -0.625 0.8125 -1.0625q0.515625 -0.4375 1.21875 -0.4375q0.71875 0 1.03125 0.46875q0.328125 0.46875 0.328125 1.34375q0 0.859375 -0.28125 2.25l0.046875 0q0.765625 -2.25 1.640625 -3.15625q0.890625 -0.90625 1.890625 -0.90625zm4.8167267 -4.03125q0.421875 0 0.703125 0.296875q0.28125 0.296875 0.28125 0.765625q0 0.46875 -0.296875 0.765625q-0.296875 0.28125 -0.703125 0.28125q-0.421875 0 -0.71875 -0.28125q-0.28125 -0.296875 -0.28125 -0.765625q0 -0.46875 0.296875 -0.765625q0.3125 -0.296875 0.71875 -0.296875zm-1.0625 4.03125q0.765625 0 1.15625 0.53125q0.40625 0.515625 0.40625 1.40625q0 0.734375 -0.3125 2.5625q-0.1875 1.171875 -0.296875 1.96875q-0.09375 0.78125 -0.09375 1.546875q0 0.78125 0.578125 0.78125q0.34375 0 0.71875 -0.4375q0.375 -0.453125 0.640625 -1.359375l0.515625 0.109375q-0.21875 1.0 -0.796875 1.8125q-0.578125 0.8125 -1.515625 0.8125q-1.671875 0 -1.671875 -1.75q0 -0.734375 0.09375 -1.421875q0.09375 -0.6875 0.28125 -1.71875q0.1875 -1.140625 0.265625 -1.765625q0.078125 -0.625 0.078125 -1.3125q0 -0.3125 -0.125 -0.5625q-0.109375 -0.265625 -0.390625 -0.265625q-0.359375 0 -0.734375 0.453125q-0.359375 0.4375 -0.625 1.34375l-0.53125 -0.109375q0.171875 -0.90625 0.765625 -1.765625q0.609375 -0.859375 1.59375 -0.859375zm8.825882 0q1.109375 0 1.859375 0.53125q0.75 0.515625 0.75 1.609375q0 1.390625 -1.671875 2.15625q-1.65625 0.75 -3.828125 1.0q0 1.75 0.515625 2.625q0.53125 0.875 1.609375 0.875q0.859375 0 1.65625 -0.5625q0.796875 -0.5625 1.40625 -1.6875l0.609375 0.359375q-0.78125 1.46875 -1.75 2.15625q-0.96875 0.671875 -2.25 0.671875q-1.703125 0 -2.578125 -1.0625q-0.859375 -1.078125 -0.859375 -2.96875q0 -1.5 0.5 -2.796875q0.515625 -1.296875 1.546875 -2.09375q1.03125 -0.8125 2.484375 -0.8125zm-0.265625 0.625q-1.1875 0 -1.84375 1.171875q-0.65625 1.15625 -0.765625 2.828125q1.625 -0.21875 2.78125 -0.890625q1.15625 -0.671875 1.15625 -1.6875q0 -0.609375 -0.34375 -1.015625q-0.34375 -0.40625 -0.984375 -0.40625zm8.133408 -0.625q1.09375 0 1.921875 0.515625q0.84375 0.515625 0.84375 1.3125q0 0.390625 -0.234375 0.625q-0.21875 0.234375 -0.546875 0.234375q-0.328125 0 -0.546875 -0.21875q-0.203125 -0.234375 -0.203125 -0.53125q0 -0.3125 0.171875 -0.578125q-0.125 -0.328125 -0.5 -0.53125q-0.359375 -0.21875 -0.96875 -0.21875q-0.640625 0 -1.171875 0.421875q-0.53125 0.421875 -0.53125 1.0625q0 0.53125 0.484375 0.96875q0.484375 0.421875 1.484375 1.0q0.84375 0.484375 1.359375 0.875q0.53125 0.375 0.890625 0.90625q0.359375 0.515625 0.359375 1.171875q0 0.78125 -0.4375 1.40625q-0.4375 0.609375 -1.234375 0.96875q-0.796875 0.34375 -1.828125 0.34375q-1.21875 0 -2.109375 -0.53125q-0.875 -0.546875 -0.875 -1.46875q0 -0.390625 0.234375 -0.640625q0.234375 -0.265625 0.5625 -0.265625q0.359375 0 0.5625 0.234375q0.203125 0.234375 0.203125 0.546875q0 0.3125 -0.171875 0.578125q0.140625 0.390625 0.578125 0.625q0.453125 0.234375 0.96875 0.234375q1.0 0 1.5 -0.453125q0.515625 -0.46875 0.515625 -1.3125q0 -0.625 -0.515625 -1.09375q-0.515625 -0.46875 -1.578125 -1.078125q-1.203125 -0.6875 -1.8125 -1.25q-0.609375 -0.5625 -0.609375 -1.34375q0 -0.671875 0.40625 -1.25q0.421875 -0.578125 1.15625 -0.921875q0.734375 -0.34375 1.671875 -0.34375z" fill-rule="nonzero"></path><path fill="#000000" fill-opacity="0.0" d="m366.30316 21.286089l166.39368 0l0 8.661417l-166.39368 0z" fill-rule="evenodd"></path><path fill="#000000" d="m385.2719 29.07063l-0.625 0q0.078125 -1.53125 -0.59375 -2.078125q-0.65625 -0.5625 -1.84375 -0.53125l-1.359375 0.03125q-0.625 0.03125 -0.921875 0.265625q-0.28125 0.21875 -0.375 0.625q-0.078125 0.40625 -0.109375 1.1875l-0.1875 3.4375l1.453125 0q0.734375 -0.03125 1.125 -0.140625q0.390625 -0.125 0.59375 -0.5q0.203125 -0.375 0.25 -1.125l0.609375 0l-0.203125 4.09375l-0.625 0q0.046875 -0.75 -0.125 -1.09375q-0.171875 -0.34375 -0.546875 -0.4375q-0.359375 -0.109375 -1.109375 -0.109375q-0.734375 0 -1.453125 0.046875l-0.203125 3.90625q-0.03125 0.875 -0.140625 1.46875l1.90625 -0.078125l-0.03125 0.828125l-4.6875 0l0.03125 -0.609375q0.65625 -0.03125 0.9375 -0.296875q0.296875 -0.28125 0.359375 -0.671875q0.078125 -0.40625 0.109375 -1.328125l0.453125 -8.0625q0.015625 -0.640625 0.125 -1.34375l-1.359375 0.078125l0.03125 -0.828125l8.578125 0l-0.0625 3.265625zm3.9055176 -2.96875q-0.21875 1.3125 -0.28125 1.859375q-0.296875 2.171875 -0.5625 5.0625q-0.265625 2.875 -0.265625 4.140625q0 0.46875 0.09375 0.71875q0.09375 0.25 0.40625 0.25q0.359375 0 0.71875 -0.4375q0.375 -0.4375 0.640625 -1.359375l0.53125 0.125q-0.09375 0.515625 -0.40625 1.125q-0.296875 0.609375 -0.8125 1.046875q-0.5 0.4375 -1.1875 0.4375q-0.796875 0 -1.15625 -0.40625q-0.34375 -0.40625 -0.34375 -1.25q0 -1.234375 0.328125 -4.53125q0.328125 -3.3125 0.6875 -5.921875l0.15625 -1.0l-1.328125 0.078125l0.09375 -0.75q1.109375 0 1.59375 -0.125q0.484375 -0.140625 0.78125 -0.375l0.53125 0l-0.21875 1.3125zm7.639099 3.234375q1.265625 0 2.5 0.3125q-0.828125 6.078125 -0.828125 7.46875q0 0.484375 0.09375 0.75q0.09375 0.265625 0.4375 0.265625q0.34375 0 0.71875 -0.4375q0.375 -0.453125 0.640625 -1.359375l0.515625 0.109375q-0.09375 0.515625 -0.40625 1.140625q-0.296875 0.609375 -0.8125 1.046875q-0.515625 0.4375 -1.203125 0.4375q-1.375 0 -1.375 -1.671875q0 -0.828125 0.328125 -2.5l-0.046875 0q-0.796875 2.453125 -1.734375 3.3125q-0.921875 0.859375 -1.90625 0.859375q-1.078125 0 -1.734375 -0.78125q-0.640625 -0.78125 -0.640625 -2.46875q0 -1.78125 0.609375 -3.25q0.625 -1.484375 1.859375 -2.359375q1.234375 -0.875 2.984375 -0.875zm-0.578125 0.671875q-1.078125 0 -1.828125 0.78125q-0.75 0.765625 -1.125 2.03125q-0.359375 1.25 -0.359375 2.6875q0 2.75 1.21875 2.75q0.828125 0 1.640625 -1.28125q0.828125 -1.296875 1.359375 -3.1875q0.546875 -1.90625 0.546875 -3.5625q-0.5625 -0.21875 -1.453125 -0.21875zm8.379883 -0.46875l2.953125 0l-0.046875 0.703125l-2.984375 0.046875l-0.140625 1.1875q-0.40625 3.546875 -0.40625 5.015625q0 0.734375 0.171875 1.1875q0.171875 0.4375 0.703125 0.4375q0.96875 0 1.765625 -1.296875l0.484375 0.3125q-0.578125 0.984375 -1.203125 1.46875q-0.625 0.46875 -1.484375 0.46875q-1.03125 0 -1.5 -0.609375q-0.453125 -0.625 -0.453125 -1.59375q0 -1.078125 0.125 -2.84375q0.140625 -1.765625 0.375 -3.71875l-1.671875 0.015625l0.0625 -0.78125q1.109375 0 1.796875 -0.65625q0.703125 -0.671875 1.078125 -1.96875l0.703125 0l-0.328125 2.625zm6.7908936 0l2.953125 0l-0.046875 0.703125l-2.984375 0.046875l-0.140625 1.1875q-0.40625 3.546875 -0.40625 5.015625q0 0.734375 0.171875 1.1875q0.171875 0.4375 0.703125 0.4375q0.96875 0 1.765625 -1.296875l0.484375 0.3125q-0.578125 0.984375 -1.203125 1.46875q-0.625 0.46875 -1.484375 0.46875q-1.03125 0 -1.5 -0.609375q-0.453125 -0.625 -0.453125 -1.59375q0 -1.078125 0.125 -2.84375q0.140625 -1.765625 0.375 -3.71875l-1.671875 0.015625l0.0625 -0.78125q1.109375 0 1.796875 -0.65625q0.703125 -0.671875 1.078125 -1.96875l0.703125 0l-0.328125 2.625zm8.337738 -0.203125q1.109375 0 1.859375 0.53125q0.75 0.515625 0.75 1.609375q0 1.390625 -1.671875 2.15625q-1.65625 0.75 -3.828125 1.0q0 1.75 0.515625 2.625q0.53125 0.875 1.609375 0.875q0.859375 0 1.65625 -0.5625q0.796875 -0.5625 1.40625 -1.6875l0.609375 0.359375q-0.78125 1.46875 -1.75 2.15625q-0.96875 0.671875 -2.25 0.671875q-1.703125 0 -2.578125 -1.0625q-0.859375 -1.078125 -0.859375 -2.96875q0 -1.5 0.5 -2.796875q0.515625 -1.296875 1.546875 -2.09375q1.03125 -0.8125 2.484375 -0.8125zm-0.265625 0.625q-1.1875 0 -1.84375 1.171875q-0.65625 1.15625 -0.765625 2.828125q1.625 -0.21875 2.78125 -0.890625q1.15625 -0.671875 1.15625 -1.6875q0 -0.609375 -0.34375 -1.015625q-0.34375 -0.40625 -0.984375 -0.40625zm11.289673 -0.625q1.046875 0 1.53125 0.671875q0.5 0.671875 0.5 1.75q0 1.25 -0.359375 3.578125q-0.203125 1.484375 -0.203125 1.953125q0 0.40625 0.09375 0.625q0.109375 0.21875 0.40625 0.21875q0.359375 0 0.734375 -0.4375q0.375 -0.4375 0.640625 -1.359375l0.515625 0.125q-0.09375 0.515625 -0.40625 1.125q-0.296875 0.609375 -0.8125 1.046875q-0.515625 0.4375 -1.203125 0.4375q-0.84375 0 -1.1875 -0.4375q-0.328125 -0.4375 -0.328125 -1.34375q0 -0.703125 0.25 -2.46875q0.328125 -2.28125 0.328125 -3.46875q0 -0.4375 -0.203125 -0.78125q-0.1875 -0.359375 -0.671875 -0.359375q-0.828125 0 -1.6875 1.25q-0.84375 1.234375 -1.421875 3.0625q-0.5625 1.8125 -0.5625 3.359375q0 0.34375 0.03125 0.984375l-1.5625 0q-0.015625 -0.171875 -0.015625 -0.484375q0 -0.453125 0.078125 -1.25q0.078125 -0.796875 0.25 -2.109375q0 -0.109375 0.046875 -0.375q0.015625 -0.234375 0.046875 -0.5q0.03125 -0.265625 0.0625 -0.53125q0.125 -1.125 0.171875 -1.640625q0.0625 -0.53125 0.0625 -0.875q0 -0.390625 -0.109375 -0.609375q-0.09375 -0.21875 -0.390625 -0.21875q-0.359375 0 -0.734375 0.453125q-0.359375 0.4375 -0.625 1.34375l-0.53125 -0.109375q0.09375 -0.515625 0.40625 -1.125q0.3125 -0.625 0.8125 -1.0625q0.515625 -0.4375 1.21875 -0.4375q1.390625 0 1.390625 1.921875q0 0.53125 -0.109375 1.1875q-0.09375 0.640625 -0.1875 1.140625l0.0625 0q0.890625 -2.390625 1.765625 -3.3125q0.890625 -0.9375 1.90625 -0.9375zm9.348602 0q1.109375 0 1.859375 0.53125q0.75 0.515625 0.75 1.609375q0 1.390625 -1.671875 2.15625q-1.65625 0.75 -3.828125 1.0q0 1.75 0.515625 2.625q0.53125 0.875 1.609375 0.875q0.859375 0 1.65625 -0.5625q0.796875 -0.5625 1.40625 -1.6875l0.609375 0.359375q-0.78125 1.46875 -1.75 2.15625q-0.96875 0.671875 -2.25 0.671875q-1.703125 0 -2.578125 -1.0625q-0.859375 -1.078125 -0.859375 -2.96875q0 -1.5 0.5 -2.796875q0.515625 -1.296875 1.546875 -2.09375q1.03125 -0.8125 2.484375 -0.8125zm-0.265625 0.625q-1.1875 0 -1.84375 1.171875q-0.65625 1.15625 -0.765625 2.828125q1.625 -0.21875 2.78125 -0.890625q1.15625 -0.671875 1.15625 -1.6875q0 -0.609375 -0.34375 -1.015625q-0.34375 -0.40625 -0.984375 -0.40625zm13.195892 -5.171875q-0.296875 1.859375 -0.453125 3.203125l-0.34375 2.90625q-0.265625 2.484375 -0.40625 3.921875q-0.125 1.4375 -0.125 2.328125q0 0.484375 0.09375 0.734375q0.09375 0.25 0.40625 0.25q0.359375 0 0.71875 -0.4375q0.359375 -0.453125 0.625 -1.359375l0.546875 0.109375q-0.09375 0.515625 -0.40625 1.140625q-0.3125 0.609375 -0.828125 1.046875q-0.5 0.4375 -1.203125 0.4375q-0.71875 0 -1.078125 -0.4375q-0.34375 -0.453125 -0.34375 -1.234375q0 -1.015625 0.265625 -2.40625l-0.046875 0q-0.6875 2.328125 -1.59375 3.203125q-0.90625 0.875 -1.890625 0.875q-1.234375 0 -1.890625 -1.0q-0.640625 -1.0 -0.640625 -2.546875q0 -1.84375 0.609375 -3.234375q0.625 -1.40625 1.84375 -2.171875q1.234375 -0.78125 2.984375 -0.78125q0.59375 0 1.046875 0.078125l0.28125 -2.3125q0.09375 -0.703125 0.203125 -1.140625l-1.359375 0.078125l0.0625 -0.75q1.125 0 1.609375 -0.125q0.484375 -0.140625 0.765625 -0.375l0.546875 0zm-3.46875 5.21875q-1.234375 0 -2.03125 0.78125q-0.78125 0.78125 -1.140625 1.96875q-0.34375 1.1875 -0.34375 2.453125q0 1.375 0.296875 2.1875q0.3125 0.796875 1.015625 0.796875q0.546875 0 1.140625 -0.65625q0.609375 -0.671875 1.09375 -1.75q0.484375 -1.078125 0.765625 -2.3125q0.21875 -1.03125 0.46875 -3.28125q-0.515625 -0.1875 -1.265625 -0.1875zm16.651459 -0.671875q0.578125 0 0.9375 0.296875q0.375 0.28125 0.375 0.78125q0 0.359375 -0.25 0.625q-0.234375 0.265625 -0.609375 0.265625q-0.34375 0 -0.59375 -0.203125q-0.234375 -0.203125 -0.265625 -0.578125q-0.078125 -0.015625 -0.203125 -0.015625q-0.78125 0 -1.53125 1.25q-0.75 1.25 -1.21875 3.046875q-0.46875 1.78125 -0.46875 3.265625q0 0.15625 0.046875 0.796875l-1.546875 0q-0.03125 -0.171875 -0.03125 -0.484375q0 -1.140625 0.3125 -3.828125l0.234375 -2.15625q0.109375 -0.96875 0.109375 -1.296875q0 -0.390625 -0.109375 -0.609375q-0.09375 -0.21875 -0.390625 -0.21875q-0.359375 0 -0.734375 0.453125q-0.359375 0.4375 -0.625 1.34375l-0.53125 -0.109375q0.09375 -0.515625 0.40625 -1.125q0.3125 -0.625 0.8125 -1.0625q0.515625 -0.4375 1.21875 -0.4375q0.71875 0 1.03125 0.46875q0.328125 0.46875 0.328125 1.34375q0 0.859375 -0.28125 2.25l0.046875 0q0.765625 -2.25 1.640625 -3.15625q0.890625 -0.90625 1.890625 -0.90625zm6.5354614 0q1.109375 0 1.859375 0.53125q0.75 0.515625 0.75 1.609375q0 1.390625 -1.671875 2.15625q-1.65625 0.75 -3.828125 1.0q0 1.75 0.515625 2.625q0.53125 0.875 1.609375 0.875q0.859375 0 1.65625 -0.5625q0.796875 -0.5625 1.40625 -1.6875l0.609375 0.359375q-0.78125 1.46875 -1.75 2.15625q-0.96875 0.671875 -2.25 0.671875q-1.703125 0 -2.578125 -1.0625q-0.859375 -1.078125 -0.859375 -2.96875q0 -1.5 0.5 -2.796875q0.515625 -1.296875 1.546875 -2.09375q1.03125 -0.8125 2.484375 -0.8125zm-0.265625 0.625q-1.1875 0 -1.84375 1.171875q-0.65625 1.15625 -0.765625 2.828125q1.625 -0.21875 2.78125 -0.890625q1.15625 -0.671875 1.15625 -1.6875q0 -0.609375 -0.34375 -1.015625q-0.34375 -0.40625 -0.984375 -0.40625zm9.086548 -0.625q0.78125 0 1.421875 0.296875q0.640625 0.28125 1.0 0.78125q0.375 0.484375 0.375 1.109375q0 0.421875 -0.234375 0.671875q-0.21875 0.234375 -0.59375 0.234375q-0.359375 0 -0.5625 -0.234375q-0.1875 -0.25 -0.1875 -0.515625q0 -0.4375 0.234375 -0.703125q-0.09375 -0.5 -0.5 -0.734375q-0.390625 -0.25 -0.96875 -0.25q-1.484375 0 -2.140625 1.375q-0.65625 1.375 -0.65625 3.1875q0 1.875 0.59375 2.75q0.609375 0.859375 1.671875 0.859375q0.828125 0 1.59375 -0.546875q0.765625 -0.5625 1.265625 -1.8125l0.65625 0.3125q-0.671875 1.5625 -1.671875 2.265625q-0.984375 0.6875 -2.15625 0.6875q-1.703125 0 -2.65625 -1.015625q-0.9375 -1.015625 -0.9375 -3.0625q0 -1.3125 0.484375 -2.609375q0.5 -1.3125 1.5 -2.171875q1.015625 -0.875 2.46875 -0.875zm8.965027 0q1.015625 0 1.828125 0.484375q0.8125 0.484375 1.265625 1.40625q0.453125 0.921875 0.453125 2.1875q0 1.53125 -0.546875 2.828125q-0.546875 1.28125 -1.59375 2.0625q-1.03125 0.765625 -2.421875 0.765625q-1.78125 0 -2.6875 -1.15625q-0.890625 -1.171875 -0.890625 -3.015625q0 -1.53125 0.546875 -2.796875q0.5625 -1.28125 1.609375 -2.015625q1.046875 -0.75 2.4375 -0.75zm-0.296875 0.6875q-0.8125 0 -1.421875 0.59375q-0.609375 0.578125 -0.921875 1.59375q-0.3125 1.015625 -0.3125 2.265625q0 1.5625 0.5 2.734375q0.5 1.15625 1.640625 1.15625q0.953125 0 1.546875 -0.71875q0.609375 -0.734375 0.890625 -1.796875q0.28125 -1.0625 0.28125 -2.078125q0 -1.5625 -0.5 -2.65625q-0.484375 -1.09375 -1.703125 -1.09375zm11.90741 -0.6875q0.578125 0 0.9375 0.296875q0.375 0.28125 0.375 0.78125q0 0.359375 -0.25 0.625q-0.234375 0.265625 -0.609375 0.265625q-0.34375 0 -0.59375 -0.203125q-0.234375 -0.203125 -0.265625 -0.578125q-0.078125 -0.015625 -0.203125 -0.015625q-0.78125 0 -1.53125 1.25q-0.75 1.25 -1.21875 3.046875q-0.46875 1.78125 -0.46875 3.265625q0 0.15625 0.046875 0.796875l-1.546875 0q-0.03125 -0.171875 -0.03125 -0.484375q0 -1.140625 0.3125 -3.828125l0.234375 -2.15625q0.109375 -0.96875 0.109375 -1.296875q0 -0.390625 -0.109375 -0.609375q-0.09375 -0.21875 -0.390625 -0.21875q-0.359375 0 -0.734375 0.453125q-0.359375 0.4375 -0.625 1.34375l-0.53125 -0.109375q0.09375 -0.515625 0.40625 -1.125q0.3125 -0.625 0.8125 -1.0625q0.515625 -0.4375 1.21875 -0.4375q0.71875 0 1.03125 0.46875q0.328125 0.46875 0.328125 1.34375q0 0.859375 -0.28125 2.25l0.046875 0q0.765625 -2.25 1.640625 -3.15625q0.890625 -0.90625 1.890625 -0.90625zm10.566711 -4.546875q-0.296875 1.859375 -0.453125 3.203125l-0.34375 2.90625q-0.265625 2.484375 -0.40625 3.921875q-0.125 1.4375 -0.125 2.328125q0 0.484375 0.09375 0.734375q0.09375 0.25 0.40625 0.25q0.359375 0 0.71875 -0.4375q0.359375 -0.453125 0.625 -1.359375l0.546875 0.109375q-0.09375 0.515625 -0.40625 1.140625q-0.3125 0.609375 -0.828125 1.046875q-0.5 0.4375 -1.203125 0.4375q-0.71875 0 -1.078125 -0.4375q-0.34375 -0.453125 -0.34375 -1.234375q0 -1.015625 0.265625 -2.40625l-0.046875 0q-0.6875 2.328125 -1.59375 3.203125q-0.90625 0.875 -1.890625 0.875q-1.234375 0 -1.890625 -1.0q-0.640625 -1.0 -0.640625 -2.546875q0 -1.84375 0.609375 -3.234375q0.625 -1.40625 1.84375 -2.171875q1.234375 -0.78125 2.984375 -0.78125q0.59375 0 1.046875 0.078125l0.28125 -2.3125q0.09375 -0.703125 0.203125 -1.140625l-1.359375 0.078125l0.0625 -0.75q1.125 0 1.609375 -0.125q0.484375 -0.140625 0.765625 -0.375l0.546875 0zm-3.46875 5.21875q-1.234375 0 -2.03125 0.78125q-0.78125 0.78125 -1.140625 1.96875q-0.34375 1.1875 -0.34375 2.453125q0 1.375 0.296875 2.1875q0.3125 0.796875 1.015625 0.796875q0.546875 0 1.140625 -0.65625q0.609375 -0.671875 1.09375 -1.75q0.484375 -1.078125 0.765625 -2.3125q0.21875 -1.03125 0.46875 -3.28125q-0.515625 -0.1875 -1.265625 -0.1875zm8.760498 -0.671875q1.09375 0 1.921875 0.515625q0.84375 0.515625 0.84375 1.3125q0 0.390625 -0.234375 0.625q-0.21875 0.234375 -0.546875 0.234375q-0.328125 0 -0.546875 -0.21875q-0.203125 -0.234375 -0.203125 -0.53125q0 -0.3125 0.171875 -0.578125q-0.125 -0.328125 -0.5 -0.53125q-0.359375 -0.21875 -0.96875 -0.21875q-0.640625 0 -1.171875 0.421875q-0.53125 0.421875 -0.53125 1.0625q0 0.53125 0.484375 0.96875q0.484375 0.421875 1.484375 1.0q0.84375 0.484375 1.359375 0.875q0.53125 0.375 0.890625 0.90625q0.359375 0.515625 0.359375 1.171875q0 0.78125 -0.4375 1.40625q-0.4375 0.609375 -1.234375 0.96875q-0.796875 0.34375 -1.828125 0.34375q-1.21875 0 -2.109375 -0.53125q-0.875 -0.546875 -0.875 -1.46875q0 -0.390625 0.234375 -0.640625q0.234375 -0.265625 0.5625 -0.265625q0.359375 0 0.5625 0.234375q0.203125 0.234375 0.203125 0.546875q0 0.3125 -0.171875 0.578125q0.140625 0.390625 0.578125 0.625q0.453125 0.234375 0.96875 0.234375q1.0 0 1.5 -0.453125q0.515625 -0.46875 0.515625 -1.3125q0 -0.625 -0.515625 -1.09375q-0.515625 -0.46875 -1.578125 -1.078125q-1.203125 -0.6875 -1.8125 -1.25q-0.609375 -0.5625 -0.609375 -1.34375q0 -0.671875 0.40625 -1.25q0.421875 -0.578125 1.15625 -0.921875q0.734375 -0.34375 1.671875 -0.34375z" fill-rule="nonzero"></path><path fill="#000000" fill-opacity="0.0" d="m688.6906 21.286089l163.55908 0l0 8.661417l-163.55908 0z" fill-rule="evenodd"></path><path fill="#000000" d="m705.3781 25.50813q2.03125 0 3.671875 1.125l0.015625 0l-0.03125 -1.015625l1.0 0l-0.21875 4.3125l-0.671875 0q-0.09375 -1.734375 -1.078125 -2.6875q-0.96875 -0.96875 -2.609375 -0.96875q-1.390625 0 -2.5625 0.8125q-1.15625 0.796875 -1.84375 2.25q-0.6875 1.453125 -0.6875 3.359375q0 1.59375 0.609375 2.859375q0.625 1.265625 1.6875 1.953125q1.078125 0.6875 2.40625 0.6875q1.25 0 2.421875 -0.53125q1.1875 -0.546875 1.96875 -1.5625l0.46875 0.390625q-1.171875 1.484375 -2.609375 2.078125q-1.421875 0.59375 -2.796875 0.59375q-1.75 0 -3.09375 -0.8125q-1.34375 -0.8125 -2.078125 -2.21875q-0.734375 -1.421875 -0.734375 -3.171875q0 -1.90625 0.765625 -3.609375q0.78125 -1.71875 2.3125 -2.78125q1.546875 -1.0625 3.6875 -1.0625zm8.860718 0.203125q-0.296875 1.796875 -0.359375 2.25q-0.125 0.9375 -0.3125 2.75q-0.171875 1.796875 -0.25 2.78125l0.0625 0q0.875 -2.375 1.765625 -3.265625q0.890625 -0.890625 1.90625 -0.890625q1.046875 0 1.546875 0.6875q0.515625 0.671875 0.515625 1.734375q0 1.25 -0.328125 3.578125q-0.203125 1.484375 -0.203125 1.953125q0 0.40625 0.09375 0.625q0.109375 0.21875 0.40625 0.21875q0.359375 0 0.734375 -0.4375q0.375 -0.4375 0.640625 -1.359375l0.453125 0.125q-0.15625 0.890625 -0.765625 1.75q-0.609375 0.859375 -1.59375 0.859375q-0.84375 0 -1.1875 -0.4375q-0.328125 -0.4375 -0.328125 -1.34375q0 -0.71875 0.25 -2.484375q0.03125 -0.25 0.15625 -1.390625q0.140625 -1.15625 0.140625 -2.0625q0 -0.4375 -0.21875 -0.78125q-0.203125 -0.359375 -0.6875 -0.359375q-0.796875 0 -1.640625 1.203125q-0.828125 1.1875 -1.375 2.984375q-0.546875 1.796875 -0.546875 3.484375q0 0.34375 0.046875 0.984375l-1.53125 0q-0.015625 -0.171875 -0.015625 -0.484375q0 -1.375 0.3125 -5.375q0.3125 -4.015625 0.609375 -6.0625q0.046875 -0.21875 0.171875 -0.984375l-1.296875 0.078125l0.0625 -0.75q1.125 0 1.609375 -0.125q0.484375 -0.140625 0.765625 -0.375l0.546875 0l-0.15625 0.921875zm9.405701 3.625q0.75 0 1.125 0.46875q0.390625 0.46875 0.390625 1.34375q0 0.671875 -0.3125 2.796875q-0.015625 0.171875 -0.171875 1.265625q-0.140625 1.078125 -0.140625 1.8125q0 0.4375 0.1875 0.8125q0.203125 0.359375 0.6875 0.359375q0.828125 0 1.640625 -1.234375q0.828125 -1.25 1.359375 -3.046875q0.53125 -1.8125 0.53125 -3.390625q0 -0.34375 -0.03125 -0.984375l1.5625 0q0.015625 0.171875 0.015625 0.484375q0 0.453125 -0.09375 1.390625q-0.09375 0.921875 -0.28125 2.421875l-0.1875 1.546875q-0.015625 0.234375 -0.09375 0.890625q-0.078125 0.65625 -0.078125 1.03125q0 0.8125 0.515625 0.8125q0.34375 0 0.71875 -0.4375q0.375 -0.4375 0.640625 -1.34375l0.515625 0.109375q-0.09375 0.515625 -0.40625 1.140625q-0.296875 0.609375 -0.8125 1.046875q-0.515625 0.4375 -1.203125 0.4375q-0.734375 0 -1.09375 -0.4375q-0.34375 -0.453125 -0.34375 -1.234375q0 -0.828125 0.34375 -2.5l-0.0625 0q-0.890625 2.40625 -1.71875 3.296875q-0.8125 0.875 -1.8125 0.875q-1.046875 0 -1.546875 -0.671875q-0.484375 -0.6875 -0.484375 -1.75q0 -0.796875 0.09375 -1.625q0.09375 -0.828125 0.28125 -1.984375q0.03125 -0.203125 0.125 -0.859375q0.09375 -0.65625 0.09375 -1.03125q0 -0.4375 -0.109375 -0.65625q-0.09375 -0.21875 -0.390625 -0.21875q-0.328125 0 -0.6875 0.4375q-0.359375 0.4375 -0.609375 1.359375l-0.53125 -0.109375q0.171875 -0.90625 0.78125 -1.765625q0.609375 -0.859375 1.59375 -0.859375zm15.969421 0q1.046875 0 1.53125 0.671875q0.5 0.671875 0.5 1.75q0 1.25 -0.359375 3.578125q-0.203125 1.484375 -0.203125 1.953125q0 0.40625 0.09375 0.625q0.109375 0.21875 0.40625 0.21875q0.359375 0 0.734375 -0.4375q0.375 -0.4375 0.640625 -1.359375l0.515625 0.125q-0.09375 0.515625 -0.40625 1.125q-0.296875 0.609375 -0.8125 1.046875q-0.515625 0.4375 -1.203125 0.4375q-0.84375 0 -1.1875 -0.4375q-0.328125 -0.4375 -0.328125 -1.34375q0 -0.703125 0.25 -2.46875q0.328125 -2.28125 0.328125 -3.46875q0 -0.4375 -0.203125 -0.78125q-0.1875 -0.359375 -0.671875 -0.359375q-0.828125 0 -1.6875 1.25q-0.84375 1.234375 -1.421875 3.0625q-0.5625 1.8125 -0.5625 3.359375q0 0.34375 0.03125 0.984375l-1.5625 0q-0.015625 -0.171875 -0.015625 -0.484375q0 -0.453125 0.078125 -1.25q0.078125 -0.796875 0.25 -2.109375q0 -0.109375 0.046875 -0.375q0.015625 -0.234375 0.046875 -0.5q0.03125 -0.265625 0.0625 -0.53125q0.125 -1.125 0.171875 -1.640625q0.0625 -0.53125 0.0625 -0.875q0 -0.390625 -0.109375 -0.609375q-0.09375 -0.21875 -0.390625 -0.21875q-0.359375 0 -0.734375 0.453125q-0.359375 0.4375 -0.625 1.34375l-0.53125 -0.109375q0.09375 -0.515625 0.40625 -1.125q0.3125 -0.625 0.8125 -1.0625q0.515625 -0.4375 1.21875 -0.4375q1.390625 0 1.390625 1.921875q0 0.53125 -0.109375 1.1875q-0.09375 0.640625 -0.1875 1.140625l0.0625 0q0.890625 -2.390625 1.765625 -3.3125q0.890625 -0.9375 1.90625 -0.9375zm7.942383 -4.546875q-0.140625 0.734375 -0.40625 2.671875l-0.0625 0.5q-0.328125 2.578125 -0.53125 5.53125l0.046875 0q0.78125 -2.328125 1.671875 -3.234375q0.90625 -0.921875 1.984375 -0.921875q0.90625 0 1.359375 0.59375q0.453125 0.578125 0.453125 1.421875q0 0.6875 -0.40625 1.390625q-0.390625 0.703125 -1.21875 1.25q-0.8125 0.546875 -1.96875 0.75l0 0.015625q0.625 0.03125 0.96875 0.328125q0.34375 0.28125 0.671875 0.984375q0.46875 1.046875 0.734375 1.5q0.265625 0.453125 0.640625 0.453125q0.296875 0 0.5 -0.265625q0.203125 -0.265625 0.359375 -0.890625l0.515625 0.09375q-0.171875 0.90625 -0.6875 1.515625q-0.515625 0.59375 -1.328125 0.59375q-0.6875 0 -1.171875 -0.5625q-0.46875 -0.5625 -0.96875 -1.875q-0.375 -1.015625 -0.671875 -1.390625q-0.28125 -0.375 -0.78125 -0.390625l-0.484375 0.015625q-0.453125 1.65625 -0.453125 3.015625q0 0.34375 0.046875 0.984375l-1.53125 0q-0.015625 -0.171875 -0.015625 -0.484375q0 -1.421875 0.296875 -5.40625q0.3125 -3.984375 0.625 -6.03125q0.046875 -0.21875 0.171875 -0.984375l-1.296875 0.078125l0.0625 -0.75q1.109375 0 1.578125 -0.125q0.484375 -0.140625 0.765625 -0.375l0.53125 0zm2.203125 5.421875q-0.75 0 -1.53125 1.203125q-0.78125 1.1875 -1.296875 2.921875l0.015625 0q1.75 0 2.671875 -0.75q0.9375 -0.765625 0.9375 -2.203125q0 -0.46875 -0.171875 -0.8125q-0.15625 -0.359375 -0.625 -0.359375zm8.904358 -0.875q1.109375 0 1.859375 0.53125q0.75 0.515625 0.75 1.609375q0 1.390625 -1.671875 2.15625q-1.65625 0.75 -3.828125 1.0q0 1.75 0.515625 2.625q0.53125 0.875 1.609375 0.875q0.859375 0 1.65625 -0.5625q0.796875 -0.5625 1.40625 -1.6875l0.609375 0.359375q-0.78125 1.46875 -1.75 2.15625q-0.96875 0.671875 -2.25 0.671875q-1.703125 0 -2.578125 -1.0625q-0.859375 -1.078125 -0.859375 -2.96875q0 -1.5 0.5 -2.796875q0.515625 -1.296875 1.546875 -2.09375q1.03125 -0.8125 2.484375 -0.8125zm-0.265625 0.625q-1.1875 0 -1.84375 1.171875q-0.65625 1.15625 -0.765625 2.828125q1.625 -0.21875 2.78125 -0.890625q1.15625 -0.671875 1.15625 -1.6875q0 -0.609375 -0.34375 -1.015625q-0.34375 -0.40625 -0.984375 -0.40625zm13.195923 -5.171875q-0.296875 1.859375 -0.453125 3.203125l-0.34375 2.90625q-0.265625 2.484375 -0.40625 3.921875q-0.125 1.4375 -0.125 2.328125q0 0.484375 0.09375 0.734375q0.09375 0.25 0.40625 0.25q0.359375 0 0.71875 -0.4375q0.359375 -0.453125 0.625 -1.359375l0.546875 0.109375q-0.09375 0.515625 -0.40625 1.140625q-0.3125 0.609375 -0.828125 1.046875q-0.5 0.4375 -1.203125 0.4375q-0.71875 0 -1.078125 -0.4375q-0.34375 -0.453125 -0.34375 -1.234375q0 -1.015625 0.265625 -2.40625l-0.046875 0q-0.6875 2.328125 -1.59375 3.203125q-0.90625 0.875 -1.890625 0.875q-1.234375 0 -1.890625 -1.0q-0.640625 -1.0 -0.640625 -2.546875q0 -1.84375 0.609375 -3.234375q0.625 -1.40625 1.84375 -2.171875q1.234375 -0.78125 2.984375 -0.78125q0.59375 0 1.046875 0.078125l0.28125 -2.3125q0.09375 -0.703125 0.203125 -1.140625l-1.359375 0.078125l0.0625 -0.75q1.125 0 1.609375 -0.125q0.484375 -0.140625 0.765625 -0.375l0.546875 0zm-3.46875 5.21875q-1.234375 0 -2.03125 0.78125q-0.78125 0.78125 -1.140625 1.96875q-0.34375 1.1875 -0.34375 2.453125q0 1.375 0.296875 2.1875q0.3125 0.796875 1.015625 0.796875q0.546875 0 1.140625 -0.65625q0.609375 -0.671875 1.09375 -1.75q0.484375 -1.078125 0.765625 -2.3125q0.21875 -1.03125 0.46875 -3.28125q-0.515625 -0.1875 -1.265625 -0.1875zm16.729553 -0.671875q1.234375 0 1.875 1.03125q0.640625 1.015625 0.640625 2.59375q0 1.828125 -0.640625 3.203125q-0.625 1.375 -1.875 2.140625q-1.234375 0.765625 -2.984375 0.765625q-0.453125 0 -0.875 -0.046875l-0.15625 2.34375q-0.015625 0.125 -0.015625 0.40625q-0.03125 0.734375 -0.125 1.140625l1.171875 -0.046875l0 0.75l-3.53125 0l0 -0.546875q0.453125 0 0.671875 -0.28125q0.21875 -0.28125 0.296875 -0.71875q0.09375 -0.4375 0.15625 -1.25q0 -0.234375 0.015625 -0.375q0.171875 -1.96875 0.5 -5.640625q0.296875 -3.078125 0.296875 -3.546875q0 -0.484375 -0.09375 -0.734375q-0.09375 -0.25 -0.40625 -0.25q-0.359375 0 -0.71875 0.453125q-0.359375 0.4375 -0.625 1.34375l-0.546875 -0.109375q0.09375 -0.515625 0.40625 -1.125q0.3125 -0.625 0.828125 -1.0625q0.515625 -0.4375 1.203125 -0.4375q1.40625 0 1.40625 1.953125q0 0.828125 -0.25 2.125l0.046875 0q0.71875 -2.34375 1.53125 -3.203125q0.828125 -0.875 1.796875 -0.875zm-0.390625 0.875q-0.65625 0 -1.3125 0.90625q-0.65625 0.90625 -1.15625 2.359375q-0.5 1.4375 -0.75 2.96875q-0.109375 0.65625 -0.203125 1.765625q0.671875 0.234375 1.140625 0.234375q1.234375 0 2.046875 -0.78125q0.8125 -0.78125 1.171875 -1.953125q0.359375 -1.1875 0.359375 -2.421875q0 -1.4375 -0.296875 -2.25q-0.296875 -0.828125 -1.0 -0.828125zm9.887085 -0.875q1.265625 0 2.5 0.3125q-0.828125 6.078125 -0.828125 7.46875q0 0.484375 0.09375 0.75q0.09375 0.265625 0.4375 0.265625q0.34375 0 0.71875 -0.4375q0.375 -0.453125 0.640625 -1.359375l0.515625 0.109375q-0.09375 0.515625 -0.40625 1.140625q-0.296875 0.609375 -0.8125 1.046875q-0.515625 0.4375 -1.203125 0.4375q-1.375 0 -1.375 -1.671875q0 -0.828125 0.328125 -2.5l-0.046875 0q-0.796875 2.453125 -1.734375 3.3125q-0.921875 0.859375 -1.90625 0.859375q-1.078125 0 -1.734375 -0.78125q-0.640625 -0.78125 -0.640625 -2.46875q0 -1.78125 0.609375 -3.25q0.625 -1.484375 1.859375 -2.359375q1.234375 -0.875 2.984375 -0.875zm-0.578125 0.671875q-1.078125 0 -1.828125 0.78125q-0.75 0.765625 -1.125 2.03125q-0.359375 1.25 -0.359375 2.6875q0 2.75 1.21875 2.75q0.828125 0 1.640625 -1.28125q0.828125 -1.296875 1.359375 -3.1875q0.546875 -1.90625 0.546875 -3.5625q-0.5625 -0.21875 -1.453125 -0.21875zm9.848633 -0.671875q0.78125 0 1.421875 0.296875q0.640625 0.28125 1.0 0.78125q0.375 0.484375 0.375 1.109375q0 0.421875 -0.234375 0.671875q-0.21875 0.234375 -0.59375 0.234375q-0.359375 0 -0.5625 -0.234375q-0.1875 -0.25 -0.1875 -0.515625q0 -0.4375 0.234375 -0.703125q-0.09375 -0.5 -0.5 -0.734375q-0.390625 -0.25 -0.96875 -0.25q-1.484375 0 -2.140625 1.375q-0.65625 1.375 -0.65625 3.1875q0 1.875 0.59375 2.75q0.609375 0.859375 1.671875 0.859375q0.828125 0 1.59375 -0.546875q0.765625 -0.5625 1.265625 -1.8125l0.65625 0.3125q-0.671875 1.5625 -1.671875 2.265625q-0.984375 0.6875 -2.15625 0.6875q-1.703125 0 -2.65625 -1.015625q-0.9375 -1.015625 -0.9375 -3.0625q0 -1.3125 0.484375 -2.609375q0.5 -1.3125 1.5 -2.171875q1.015625 -0.875 2.46875 -0.875zm7.496277 -4.546875q-0.140625 0.734375 -0.40625 2.671875l-0.0625 0.5q-0.328125 2.578125 -0.53125 5.53125l0.046875 0q0.78125 -2.328125 1.671875 -3.234375q0.90625 -0.921875 1.984375 -0.921875q0.90625 0 1.359375 0.59375q0.453125 0.578125 0.453125 1.421875q0 0.6875 -0.40625 1.390625q-0.390625 0.703125 -1.21875 1.25q-0.8125 0.546875 -1.96875 0.75l0 0.015625q0.625 0.03125 0.96875 0.328125q0.34375 0.28125 0.671875 0.984375q0.46875 1.046875 0.734375 1.5q0.265625 0.453125 0.640625 0.453125q0.296875 0 0.5 -0.265625q0.203125 -0.265625 0.359375 -0.890625l0.515625 0.09375q-0.171875 0.90625 -0.6875 1.515625q-0.515625 0.59375 -1.328125 0.59375q-0.6875 0 -1.171875 -0.5625q-0.46875 -0.5625 -0.96875 -1.875q-0.375 -1.015625 -0.671875 -1.390625q-0.28125 -0.375 -0.78125 -0.390625l-0.484375 0.015625q-0.453125 1.65625 -0.453125 3.015625q0 0.34375 0.046875 0.984375l-1.53125 0q-0.015625 -0.171875 -0.015625 -0.484375q0 -1.421875 0.296875 -5.40625q0.3125 -3.984375 0.625 -6.03125q0.046875 -0.21875 0.171875 -0.984375l-1.296875 0.078125l0.0625 -0.75q1.109375 0 1.578125 -0.125q0.484375 -0.140625 0.765625 -0.375l0.53125 0zm2.203125 5.421875q-0.75 0 -1.53125 1.203125q-0.78125 1.1875 -1.296875 2.921875l0.015625 0q1.75 0 2.671875 -0.75q0.9375 -0.765625 0.9375 -2.203125q0 -0.46875 -0.171875 -0.8125q-0.15625 -0.359375 -0.625 -0.359375zm8.904358 -0.875q1.109375 0 1.859375 0.53125q0.75 0.515625 0.75 1.609375q0 1.390625 -1.671875 2.15625q-1.65625 0.75 -3.828125 1.0q0 1.75 0.515625 2.625q0.53125 0.875 1.609375 0.875q0.859375 0 1.65625 -0.5625q0.796875 -0.5625 1.40625 -1.6875l0.609375 0.359375q-0.78125 1.46875 -1.75 2.15625q-0.96875 0.671875 -2.25 0.671875q-1.703125 0 -2.578125 -1.0625q-0.859375 -1.078125 -0.859375 -2.96875q0 -1.5 0.5 -2.796875q0.515625 -1.296875 1.546875 -2.09375q1.03125 -0.8125 2.484375 -0.8125zm-0.265625 0.625q-1.1875 0 -1.84375 1.171875q-0.65625 1.15625 -0.765625 2.828125q1.625 -0.21875 2.78125 -0.890625q1.15625 -0.671875 1.15625 -1.6875q0 -0.609375 -0.34375 -1.015625q-0.34375 -0.40625 -0.984375 -0.40625zm7.617798 -0.421875l2.953125 0l-0.046875 0.703125l-2.984375 0.046875l-0.140625 1.1875q-0.40625 3.546875 -0.40625 5.015625q0 0.734375 0.171875 1.1875q0.171875 0.4375 0.703125 0.4375q0.96875 0 1.765625 -1.296875l0.484375 0.3125q-0.578125 0.984375 -1.203125 1.46875q-0.625 0.46875 -1.484375 0.46875q-1.03125 0 -1.5 -0.609375q-0.453125 -0.625 -0.453125 -1.59375q0 -1.078125 0.125 -2.84375q0.140625 -1.765625 0.375 -3.71875l-1.671875 0.015625l0.0625 -0.78125q1.109375 0 1.796875 -0.65625q0.703125 -0.671875 1.078125 -1.96875l0.703125 0l-0.328125 2.625zm7.3065186 -0.203125q1.09375 0 1.921875 0.515625q0.84375 0.515625 0.84375 1.3125q0 0.390625 -0.234375 0.625q-0.21875 0.234375 -0.546875 0.234375q-0.328125 0 -0.546875 -0.21875q-0.203125 -0.234375 -0.203125 -0.53125q0 -0.3125 0.171875 -0.578125q-0.125 -0.328125 -0.5 -0.53125q-0.359375 -0.21875 -0.96875 -0.21875q-0.640625 0 -1.171875 0.421875q-0.53125 0.421875 -0.53125 1.0625q0 0.53125 0.484375 0.96875q0.484375 0.421875 1.484375 1.0q0.84375 0.484375 1.359375 0.875q0.53125 0.375 0.890625 0.90625q0.359375 0.515625 0.359375 1.171875q0 0.78125 -0.4375 1.40625q-0.4375 0.609375 -1.234375 0.96875q-0.796875 0.34375 -1.828125 0.34375q-1.21875 0 -2.109375 -0.53125q-0.875 -0.546875 -0.875 -1.46875q0 -0.390625 0.234375 -0.640625q0.234375 -0.265625 0.5625 -0.265625q0.359375 0 0.5625 0.234375q0.203125 0.234375 0.203125 0.546875q0 0.3125 -0.171875 0.578125q0.140625 0.390625 0.578125 0.625q0.453125 0.234375 0.96875 0.234375q1.0 0 1.5 -0.453125q0.515625 -0.46875 0.515625 -1.3125q0 -0.625 -0.515625 -1.09375q-0.515625 -0.46875 -1.578125 -1.078125q-1.203125 -0.6875 -1.8125 -1.25q-0.609375 -0.5625 -0.609375 -1.34375q0 -0.671875 0.40625 -1.25q0.421875 -0.578125 1.15625 -0.921875q0.734375 -0.34375 1.671875 -0.34375z" fill-rule="nonzero"></path></g></svg>

