<?xml version="1.0" standalone="yes"?>

<svg version="1.1" viewBox="0.0 0.0 346.28871391076115 303.8320209973753" fill="none" stroke="none" stroke-linecap="square" stroke-miterlimit="10" xmlns="http://www.w3.org/2000/svg" xmlns:xlink="http://www.w3.org/1999/xlink"><clipPath id="p.0"><path d="m0 0l346.28873 0l0 303.83203l-346.28873 0l0 -303.83203z" clip-rule="nonzero"></path></clipPath><g clip-path="url(#p.0)"><path fill="#000000" fill-opacity="0.0" d="m0 0l346.28873 0l0 303.83203l-346.28873 0z" fill-rule="evenodd"></path><path fill="#93c47d" d="m68.15748 125.65065l0 0c0 -30.510475 24.733627 -55.244095 55.244095 -55.244095l0 0c14.651649 0 28.703194 5.820343 39.06347 16.180618c10.360291 10.360275 16.180634 24.411827 16.180634 39.063477l0 0c0 30.510468 -24.733627 55.244095 -55.244102 55.244095l0 0c-30.510468 0 -55.244095 -24.733627 -55.244095 -55.244095z" fill-rule="evenodd"></path><path stroke="#6aa84f" stroke-width="1.0" stroke-linejoin="round" stroke-linecap="butt" d="m68.15748 125.65065l0 0c0 -30.510475 24.733627 -55.244095 55.244095 -55.244095l0 0c14.651649 0 28.703194 5.820343 39.06347 16.180618c10.360291 10.360275 16.180634 24.411827 16.180634 39.063477l0 0c0 30.510468 -24.733627 55.244095 -55.244102 55.244095l0 0c-30.510468 0 -55.244095 -24.733627 -55.244095 -55.244095z" fill-rule="evenodd"></path><path fill="#000000" fill-opacity="0.0" d="m81.76378 -6.9475064l83.27559 0l0 41.732285l-83.27559 0z" fill-rule="evenodd"></path><path fill="#38761d" d="m99.27657 17.956867l0 -3.265626l-3.09375 0l0 -1.59375l3.09375 0l0 -2.984375l1.8125 0l0 2.984375l2.984375 0l0 1.59375l-2.984375 0l0 3.265626l-1.8125 0z" fill-rule="nonzero"></path><path fill="#38761d" d="m116.51095 21.628742l0 -14.15625l5.34375 0l0 1.1249995l-4.140625 0l0 11.968751l4.15625 0l0 1.0625l-5.359375 0zm11.1875 -1.65625l0 -10.015626l-2.359375 0.6875l-0.296875 -0.734375l3.0468826 -1.578125l0.90625 0l0 11.640626l-1.2968826 0zm9.703133 -11.703126q1.703125 0 2.640625 1.59375q0.953125 1.578125 0.953125 4.359375q0 2.859376 -0.9375 4.406251q-0.921875 1.546875 -2.65625 1.546875q-1.75 0 -2.6875 -1.546875q-0.921875 -1.546875 -0.921875 -4.406251q0 -2.78125 0.9375 -4.359375q0.953125 -1.59375 2.671875 -1.59375zm0 1.140625q-1.078125 0 -1.671875 1.296875q-0.59375 1.296875 -0.59375 3.515625q0 1.21875 0.171875 2.156251l3.953125 -5.125001q-0.28125 -0.890625 -0.765625 -1.359375q-0.46875 -0.484375 -1.09375 -0.484375zm0 9.625001q1.0625 0 1.65625 -1.25q0.59375 -1.25 0.59375 -3.562501q0 -1.078125 -0.125 -1.859375l-3.96875 5.031251q0.609375 1.640625 1.84375 1.640625zm12.453125 2.59375l-5.359375 0l0 -1.0625l4.171875 0l0 -11.968751l-4.140625 0l0 -1.1249995l5.328125 0l0 14.15625z" fill-rule="nonzero"></path><path fill="#000000" fill-opacity="0.0" d="m63.007874 97.38058l120.7874 0l0 58.015755l-120.7874 0z" fill-rule="evenodd"></path><path fill="#274e13" d="m104.18873 130.42595q-2.015625 -4.515625 -3.140625 -7.109375q-1.125 -2.59375 -2.1875 -5.46875l-0.015625 1.171875q-0.25 7.8125 -0.296875 11.140625q0 0.390625 -0.03125 0.578125q0 0.90625 -0.078125 1.6875l2.0 -0.109375l0 1.171875l-5.09375 0l0 -0.875q1.125 -0.03125 1.453125 -0.625q0.328125 -0.609375 0.390625 -1.828125l0.578125 -14.265625l-1.921875 0.078125l0 -1.140625l4.078125 0l3.640625 8.359375q1.96875 4.640625 3.03125 7.046875l0.046875 0q0.328125 -0.796875 1.359375 -3.4375q1.015625 -2.5625 2.328125 -5.625q1.515625 -3.578125 2.609375 -6.34375l3.953125 0l0 0.875q-0.96875 -0.03125 -1.421875 0.515625q-0.453125 0.546875 -0.453125 1.859375l0.03125 0.53125l0.6875 12.125q0.0625 0.625 0.0625 1.65625l1.9375 -0.078125l0 1.171875l-5.96875 0l0 -0.875q1.03125 -0.03125 1.40625 -0.59375q0.375 -0.578125 0.375 -1.8125q0 -0.5 -0.015625 -0.765625l-0.703125 -11.359375q-0.046875 0.125 -0.140625 0.34375q-0.09375 0.21875 -0.203125 0.515625l-6.0 14.8125l-0.796875 0l-1.5 -3.328125zm14.298477 2.1875q0.65625 0 1.0625 -0.3125q0.40625 -0.3125 0.65625 -0.796875q0.25 -0.5 0.59375 -1.484375l0.265625 -0.75l5.5 -14.953125l0.640625 0l5.9375076 15.171875q0.296875 0.71875 0.5 1.5625q0.21875 0.84375 0.1875 1.375l1.8125 -0.109375l0 1.171875l-6.09375 0l0 -0.875q1.5625 -0.03125 1.5625 -1.28125q0 -0.515625 -0.265625 -1.25l-0.921875 -2.515625l-6.9375076 0.171875q-0.40625 1.078125 -0.9375 2.84375q-0.265625 0.875 -0.65625 1.84375l2.078125 -0.109375l0 1.171875l-4.984375 0l0 -0.875zm11.062508 -6.03125l-1.8906326 -5.09375l-1.203125 -3.28125l-0.0625 0l-1.109375 3.015625l-1.4375 4.0625l-0.453125 1.296875l6.1562576 0zm6.0930023 6.03125q0.8125 -0.171875 1.40625 -0.5625q0.59375 -0.40625 1.046875 -0.96875q0.453125 -0.578125 1.203125 -1.671875l3.46875 -4.953125q-0.6875 -0.96875 -1.21875 -1.6875q-0.515625 -0.71875 -0.921875 -1.28125q-2.078125 -2.90625 -2.671875 -3.796875q-0.578125 -0.890625 -0.921875 -1.75l-1.46875 0.0625l0 -1.171875l6.90625 0l0 0.875l-1.171875 0.0625q-1.28125 0.015625 -1.28125 0.71875q0 0.265625 0.15625 0.59375q0.171875 0.3125 0.515625 0.84375q0.6875 1.140625 3.296875 4.765625l2.5625 -3.703125q0.671875 -0.953125 1.328125 -1.859375q0.671875 -0.90625 1.046875 -1.234375l-2.234375 0.109375l0 -1.171875l5.25 0l0 0.875q-1.15625 0.15625 -2.109375 1.125q-0.9375 0.953125 -2.078125 2.578125l-3.015625 4.265625l3.84375 5.09375l0.84375 1.125l1.84375 2.46875l1.546875 -0.046875l0 1.171875l-6.53125 0l0 -0.875q1.609375 0.078125 1.609375 -0.796875q0 -0.484375 -0.484375 -1.15625l-0.875 -1.140625q-1.578125 -1.96875 -3.046875 -4.03125q-1.328125 1.921875 -2.640625 3.921875q-0.125 0.21875 -0.78125 1.203125q-0.65625 0.984375 -1.40625 1.828125l2.21875 -0.125l0 1.171875l-5.234375 0l0 -0.875z" fill-rule="nonzero"></path><path fill="#000000" fill-opacity="0.0" d="m123.40157 34.78478l0 28.976376" fill-rule="evenodd"></path><path stroke="#000000" stroke-width="1.0" stroke-linejoin="round" stroke-linecap="butt" d="m123.40157 34.78478l0 22.976376" fill-rule="evenodd"></path><path fill="#000000" stroke="#000000" stroke-width="1.0" stroke-linecap="butt" d="m121.74984 57.761154l1.6517334 4.5380974l1.6517334 -4.5380974z" fill-rule="evenodd"></path><path fill="#000000" fill-opacity="0.0" d="m123.40157 189.01547l0 28.97638" fill-rule="evenodd"></path><path stroke="#000000" stroke-width="1.0" stroke-linejoin="round" stroke-linecap="butt" d="m123.40157 189.01549l0 22.976364" fill-rule="evenodd"></path><path fill="#000000" stroke="#000000" stroke-width="1.0" stroke-linecap="butt" d="m121.74984 211.99187l1.6517334 4.538086l1.6517334 -4.538086z" fill-rule="evenodd"></path><path fill="#000000" fill-opacity="0.0" d="m209.6588 84.51706l136.62993 0l0 82.267715l-136.62993 0z" fill-rule="evenodd"></path><path fill="#000000" d="m249.07935 111.73393q-1.875 0 -3.34375 -0.875q-1.453125 -0.875 -2.25 -2.390625q-0.796875 -1.53125 -0.796875 -3.375q0 -1.765625 0.75 -3.375q0.765625 -1.625 2.234375 -2.625q1.46875 -1.015625 3.546875 -1.015625q0.734375 0 1.59375 0.25q0.875 0.234375 1.609375 0.671875l0.015625 0l-0.078125 -0.796875l1.4375 0l0 4.359375l-1.203125 0q-0.5 -3.109375 -3.140625 -3.140625q-1.25 0 -2.125 0.734375q-0.859375 0.734375 -1.296875 1.953125q-0.421875 1.21875 -0.421875 2.609375q0 1.609375 0.46875 2.859375q0.46875 1.25 1.34375 1.953125q0.875 0.6875 2.109375 0.6875q1.1875 0 2.328125 -0.609375q1.15625 -0.609375 1.9375 -1.671875l0.90625 0.8125q-1.234375 1.703125 -2.71875 2.34375q-1.46875 0.640625 -2.90625 0.640625zm10.413635 0q-1.65625 0 -2.375 -0.96875q-0.71875 -0.96875 -0.71875 -3.15625l0 -2.140625q0 -0.78125 0.046875 -1.625l-1.296875 0.0625l0 -1.421875q1.171875 0 1.890625 -0.171875q0.734375 -0.171875 0.984375 -0.390625l1.015625 0l0 5.703125q0 1.234375 0.3125 1.8125q0.328125 0.578125 1.015625 0.578125q0.46875 0 0.953125 -0.25q0.5 -0.265625 0.84375 -0.640625l0 -3.65625q0 -0.875 0.078125 -1.625l-1.3125 0.0625l0 -1.421875q1.171875 0 1.890625 -0.171875q0.71875 -0.171875 0.96875 -0.390625l1.015625 0l0 6.515625q0 0.890625 -0.0625 1.640625q0.59375 -0.0625 1.203125 -0.0625l0 1.421875l-3.546875 0l-0.109375 -0.96875l-0.015625 0q-0.6875 0.59375 -1.34375 0.9375q-0.640625 0.328125 -1.4375 0.328125zm7.6701965 -1.515625q0.703125 0 0.890625 -0.390625q0.203125 -0.390625 0.203125 -1.265625l0 -3.125q0 -0.84375 0.078125 -1.59375l-1.296875 0.0625l0 -1.421875q1.171875 0 1.890625 -0.171875q0.734375 -0.171875 0.96875 -0.390625l0.921875 0q0.03125 0.28125 0.046875 0.734375q0.03125 0.4375 0.03125 0.875l0.03125 0q1.265625 -1.71875 2.6875 -1.71875q0.703125 0 1.15625 0.390625q0.46875 0.390625 0.46875 1.15625q0 0.484375 -0.328125 0.90625q-0.3125 0.40625 -0.9375 0.40625q-0.46875 0 -0.84375 -0.234375q-0.359375 -0.25 -0.40625 -0.859375q-0.53125 0 -1.078125 0.609375q-0.546875 0.609375 -0.734375 1.203125l0 3.046875q0 0.890625 -0.078125 1.640625q0.59375 -0.0625 1.21875 -0.0625l0 1.421875l-4.890625 0l0 -1.21875zm8.955017 0q0.703125 0 0.890625 -0.390625q0.203125 -0.390625 0.203125 -1.265625l0 -3.125q0 -0.84375 0.078125 -1.59375l-1.296875 0.0625l0 -1.421875q1.171875 0 1.890625 -0.171875q0.734375 -0.171875 0.96875 -0.390625l0.921875 0q0.03125 0.28125 0.046875 0.734375q0.03125 0.4375 0.03125 0.875l0.03125 0q1.265625 -1.71875 2.6875 -1.71875q0.703125 0 1.15625 0.390625q0.46875 0.390625 0.46875 1.15625q0 0.484375 -0.328125 0.90625q-0.3125 0.40625 -0.9375 0.40625q-0.46875 0 -0.84375 -0.234375q-0.359375 -0.25 -0.40625 -0.859375q-0.53125 0 -1.078125 0.609375q-0.546875 0.609375 -0.734375 1.203125l0 3.046875q0 0.890625 -0.078125 1.640625q0.59375 -0.0625 1.21875 -0.0625l0 1.421875l-4.890625 0l0 -1.21875zm13.376862 1.515625q-1.359375 0 -2.40625 -0.609375q-1.046875 -0.609375 -1.625 -1.71875q-0.578125 -1.125 -0.578125 -2.609375q0 -1.3125 0.578125 -2.453125q0.59375 -1.15625 1.65625 -1.84375q1.0625 -0.6875 2.4375 -0.6875q1.796875 0 3.0 1.0625q1.203125 1.0625 1.1875 3.546875l-6.109375 0.109375q0 1.640625 0.625 2.59375q0.625 0.953125 2.0 0.953125q0.65625 0 1.390625 -0.328125q0.75 -0.34375 1.34375 -1.078125l0.84375 0.78125q-1.578125 2.28125 -4.34375 2.28125zm1.671875 -6.515625q-0.046875 -2.109375 -1.53125 -2.109375q-0.796875 0 -1.28125 0.578125q-0.46875 0.5625 -0.609375 1.53125l3.421875 0zm3.9433289 5.0q0.703125 0 0.890625 -0.390625q0.203125 -0.390625 0.203125 -1.265625l0 -3.125q0 -0.84375 0.078125 -1.59375l-1.296875 0.0625l0 -1.421875q1.171875 0 1.890625 -0.171875q0.734375 -0.171875 0.96875 -0.390625l0.921875 0q0 0.03125 0.078125 0.9375l0.03125 0q0.546875 -0.4375 1.328125 -0.734375q0.796875 -0.3125 1.359375 -0.3125q1.703125 0 2.421875 0.96875q0.734375 0.96875 0.734375 3.15625l0 2.5q0 0.890625 -0.078125 1.640625q0.609375 -0.0625 1.21875 -0.0625l0 1.421875l-4.890625 0l0 -1.21875q0.703125 0 0.90625 -0.390625q0.21875 -0.390625 0.21875 -1.265625l-0.03125 -2.640625q0 -1.234375 -0.34375 -1.8125q-0.34375 -0.578125 -1.15625 -0.578125q-0.453125 0 -0.921875 0.203125q-0.46875 0.1875 -0.78125 0.484375l0 4.21875q0 0.890625 -0.078125 1.640625q0.59375 -0.0625 1.21875 -0.0625l0 1.421875l-4.890625 0l0 -1.21875zm15.552856 1.515625q-2.90625 0 -2.90625 -3.578125l0.03125 -4.5l-1.265625 0l0 -1.546875q0.609375 0 1.140625 -0.375q0.53125 -0.375 0.890625 -0.90625q0.375 -0.546875 0.53125 -1.046875l1.375 0l-0.015625 2.328125l2.375 0l0 1.4375l-2.375 0.0625l-0.015625 4.578125q0 1.8125 1.109375 1.8125q0.90625 0 1.703125 -1.125l0.890625 0.84375q-0.875 1.296875 -1.75 1.65625q-0.875 0.359375 -1.71875 0.359375z" fill-rule="nonzero"></path><path fill="#000000" d="m241.35667 132.82768q0.640625 -0.03125 0.921875 -0.296875q0.28125 -0.28125 0.3125 -0.6875q0.046875 -0.40625 0.046875 -1.40625l0 -7.84375q0 -1.0 0.0625 -1.46875l-1.34375 0.078125l0 -0.828125q2.71875 -0.03125 4.21875 -0.03125q2.1875 0 3.375 0.78125q1.1875 0.765625 1.1875 2.328125q0 1.015625 -0.796875 1.859375q-0.78125 0.84375 -2.28125 1.109375l0 0.03125q2.0 0 3.0625 0.921875q1.078125 0.90625 1.078125 2.40625q0 1.125 -0.578125 1.953125q-0.5625 0.828125 -1.5625 1.265625q-0.984375 0.4375 -2.265625 0.4375l-5.4375 0l0 -0.609375zm4.265625 -6.578125q1.46875 -0.015625 2.140625 -0.796875q0.671875 -0.796875 0.671875 -1.953125q0 -1.40625 -0.8125 -1.9375q-0.796875 -0.546875 -1.96875 -0.546875q-0.59375 0 -0.890625 0.171875q-0.296875 0.15625 -0.40625 0.53125q-0.09375 0.375 -0.09375 1.109375l0 3.46875l1.359375 -0.046875zm0.5625 6.484375q1.46875 0 2.328125 -0.734375q0.875 -0.75 0.875 -2.109375q0 -1.578125 -0.890625 -2.25q-0.875 -0.671875 -2.3125 -0.671875q-1.03125 0 -1.921875 0.046875l0 4.21875q0 0.96875 -0.0625 1.453125q0.359375 0.046875 1.34375 0.046875l0.640625 0zm11.072922 1.0q-1.2812347 0 -2.3124847 -0.609375q-1.03125 -0.609375 -1.640625 -1.734375q-0.59375 -1.125 -0.59375 -2.59375q0 -1.3125 0.59375 -2.453125q0.609375 -1.15625 1.671875 -1.84375q1.0781097 -0.6875 2.4374847 -0.6875q1.0625 0 1.921875 0.46875q0.859375 0.46875 1.359375 1.390625q0.5 0.921875 0.5 2.265625l-6.5624847 0.109375q-0.015625 2.234375 0.734375 3.484375q0.76560974 1.25 2.3437347 1.25q0.859375 0 1.765625 -0.4375q0.90625 -0.453125 1.390625 -1.109375l0.453125 0.375q-0.71875 1.078125 -1.84375 1.609375q-1.125 0.515625 -2.21875 0.515625zm2.1875 -6.46875q0 -1.125 -0.5 -1.921875q-0.5 -0.8125 -1.515625 -0.8125q-2.3124847 0 -2.7343597 2.734375l4.7499847 0zm3.5179443 5.609375q0.53125 0 0.765625 -0.265625q0.234375 -0.265625 0.28125 -0.6875q0.046875 -0.421875 0.046875 -1.3125l-0.015625 -5.703125l-1.53125 0.046875l0 -0.84375l1.53125 0l0 -0.390625q0 -2.171875 0.78125 -3.3125q0.796875 -1.140625 2.578125 -1.140625q0.703125 0 1.34375 0.359375q0.640625 0.34375 0.640625 1.015625q0 0.375 -0.21875 0.609375q-0.203125 0.234375 -0.578125 0.234375q-0.375 0 -0.578125 -0.25q-0.1875 -0.265625 -0.1875 -0.515625q0 -0.265625 0.09375 -0.46875q-0.125 -0.15625 -0.359375 -0.234375q-0.21875 -0.078125 -0.4375 -0.078125q-0.8125 0 -1.15625 0.640625q-0.328125 0.640625 -0.328125 1.578125l0 1.953125l2.53125 0l0 0.734375l-2.53125 0.046875l0.03125 6.5625q0 0.84375 -0.078125 1.28125l1.171875 -0.0625l0 0.765625l-3.796875 0l0 -0.5625zm10.837067 0.859375q-1.296875 0 -2.375 -0.609375q-1.0625 -0.609375 -1.6875 -1.6875q-0.625 -1.078125 -0.625 -2.4375q0 -1.453125 0.609375 -2.640625q0.625 -1.1875 1.6875 -1.859375q1.078125 -0.6875 2.390625 -0.6875q1.28125 0 2.359375 0.625q1.09375 0.625 1.71875 1.703125q0.625 1.078125 0.625 2.40625q0 1.421875 -0.625 2.625q-0.625 1.1875 -1.703125 1.875q-1.078125 0.6875 -2.375 0.6875zm0.140625 -0.75q1.359375 0 2.0 -1.109375q0.65625 -1.125 0.65625 -2.78125q0 -1.890625 -0.703125 -3.234375q-0.703125 -1.34375 -2.09375 -1.34375q-1.390625 0 -2.09375 1.140625q-0.6875 1.140625 -0.6875 2.796875q0 1.203125 0.328125 2.234375q0.328125 1.03125 0.984375 1.671875q0.65625 0.625 1.609375 0.625zm6.148285 -0.109375q0.53125 0 0.765625 -0.265625q0.234375 -0.265625 0.28125 -0.6875q0.046875 -0.421875 0.046875 -1.3125l0 -4.265625q0 -0.78125 0.078125 -1.203125l-1.328125 0.046875l0 -0.765625l0.578125 0q0.703125 0 1.015625 -0.109375q0.328125 -0.125 0.609375 -0.390625l0.546875 0q0.0625 0.734375 0.078125 1.84375q0.46875 -0.765625 1.328125 -1.359375q0.875 -0.59375 1.8125 -0.59375q0.5625 0 0.9375 0.296875q0.375 0.296875 0.375 0.875q0 0.296875 -0.234375 0.59375q-0.234375 0.296875 -0.671875 0.296875q-0.40625 0 -0.671875 -0.296875q-0.25 -0.3125 -0.203125 -0.734375q-0.703125 -0.03125 -1.421875 0.53125q-0.71875 0.5625 -1.21875 1.5l0.015625 4.578125q0 0.84375 -0.078125 1.28125l1.171875 -0.0625l0 0.765625l-3.8125 0l0 -0.5625zm12.5781555 0.859375q-1.28125 0 -2.3125 -0.609375q-1.03125 -0.609375 -1.640625 -1.734375q-0.59375 -1.125 -0.59375 -2.59375q0 -1.3125 0.59375 -2.453125q0.609375 -1.15625 1.671875 -1.84375q1.078125 -0.6875 2.4375 -0.6875q1.0625 0 1.921875 0.46875q0.859375 0.46875 1.359375 1.390625q0.5 0.921875 0.5 2.265625l-6.5625 0.109375q-0.015625 2.234375 0.734375 3.484375q0.765625 1.25 2.34375 1.25q0.859375 0 1.765625 -0.4375q0.90625 -0.453125 1.390625 -1.109375l0.453125 0.375q-0.71875 1.078125 -1.84375 1.609375q-1.125 0.515625 -2.21875 0.515625zm2.1875 -6.46875q0 -1.125 -0.5 -1.921875q-0.5 -0.8125 -1.515625 -0.8125q-2.3125 0 -2.734375 2.734375l4.75 0zm4.9398193 6.46875q-0.453125 0 -0.78125 -0.34375q-0.3125 -0.34375 -0.3125 -0.84375q0 -0.515625 0.328125 -0.859375q0.328125 -0.359375 0.78125 -0.359375q0.46875 0 0.765625 0.359375q0.3125 0.34375 0.3125 0.859375q0 0.5 -0.328125 0.84375q-0.328125 0.34375 -0.765625 0.34375zm-0.0625 -8.0q-0.453125 0 -0.78125 -0.34375q-0.3125 -0.34375 -0.3125 -0.84375q0 -0.515625 0.328125 -0.859375q0.328125 -0.359375 0.78125 -0.359375q0.46875 0 0.765625 0.359375q0.3125 0.34375 0.3125 0.859375q0 0.5 -0.328125 0.84375q-0.328125 0.34375 -0.765625 0.34375zm10.976929 8.0q-0.703125 0 -0.703125 -0.8125q0 -0.453125 0.25 -1.203125q0.265625 -0.765625 0.765625 -1.9375l0.25 -0.671875l0.25 -0.609375q0.953125 -2.390625 1.546875 -3.859375q0.609375 -1.484375 1.328125 -2.96875l-4.9375 0.015625q-1.578125 0.03125 -1.578125 1.453125l-0.453125 0l0 -2.765625l7.828125 0l0 1.265625q-0.859375 1.765625 -1.453125 3.40625q-0.59375 1.625 -1.0 3.15625q-0.40625 1.515625 -1.109375 4.390625q-0.3125 1.140625 -0.984375 1.140625z" fill-rule="nonzero"></path><path fill="#000000" d="m242.1936 154.82768q0.46875 0 0.75 -0.21875q0.28125 -0.21875 0.453125 -0.5625q0.171875 -0.34375 0.421875 -1.03125l0.1875 -0.53125l3.84375 -10.453125l0.4375 0l4.171875 10.609375q0.203125 0.5 0.34375 1.09375q0.15625 0.578125 0.140625 0.953125l1.265625 -0.078125l0 0.828125l-4.28125 0l0 -0.609375q1.109375 -0.03125 1.109375 -0.90625q0 -0.34375 -0.1875 -0.875l-0.65625 -1.75l-4.84375 0.109375q-0.28125 0.765625 -0.65625 2.0q-0.1875 0.609375 -0.46875 1.28125l1.453125 -0.078125l0 0.828125l-3.484375 0l0 -0.609375zm7.734375 -4.21875l-1.3125 -3.5625l-0.84375 -2.296875l-0.046875 0l-0.78125 2.109375l-1.0 2.828125l-0.3125 0.921875l4.296875 0zm4.9756927 4.265625q0.53125 0 0.765625 -0.265625q0.234375 -0.265625 0.28125 -0.6875q0.046875 -0.421875 0.046875 -1.3125l-0.015625 -5.703125l-1.53125 0.046875l0 -0.84375l1.53125 0l0 -0.390625q0 -2.171875 0.78126526 -3.3125q0.796875 -1.140625 2.578125 -1.140625q0.703125 0 1.34375 0.359375q0.640625 0.34375 0.640625 1.015625q0 0.375 -0.21875 0.609375q-0.203125 0.234375 -0.578125 0.234375q-0.375 0 -0.578125 -0.25q-0.1875 -0.265625 -0.1875 -0.515625q0 -0.265625 0.09375 -0.46875q-0.125 -0.15625 -0.359375 -0.234375q-0.21875 -0.078125 -0.4375 -0.078125q-0.8125 0 -1.15625 0.640625q-0.328125 0.640625 -0.328125 1.578125l0 1.953125l2.53125 0l0 0.734375l-2.53125 0.046875l0.03125 6.5625q0 0.84375 -0.078125 1.28125l1.171875 -0.0625l0 0.765625l-3.7968903 0l0 -0.5625zm9.712082 0.859375q-2.5625 0 -2.53125 -3.4375l0.03125 -5.40625l-1.4375 0.015625l0 -0.796875q0.890625 -0.015625 1.515625 -0.8125q0.625 -0.796875 0.921875 -1.796875l0.640625 0l0 2.609375l3.140625 0l0 0.734375l-3.140625 0.03125q-0.015625 2.859375 -0.03125 3.96875q0 1.09375 0 1.21875q0 1.328125 0.3125 1.96875q0.3125 0.640625 1.09375 0.640625q0.484375 0 0.953125 -0.296875q0.484375 -0.296875 0.84375 -0.828125l0.5 0.421875q-0.71875 1.078125 -1.4375 1.421875q-0.703125 0.34375 -1.375 0.34375zm8.219971 0q-1.28125 0 -2.3125 -0.609375q-1.03125 -0.609375 -1.640625 -1.734375q-0.59375 -1.125 -0.59375 -2.59375q0 -1.3125 0.59375 -2.453125q0.609375 -1.15625 1.671875 -1.84375q1.078125 -0.6875 2.4375 -0.6875q1.0625 0 1.921875 0.46875q0.859375 0.46875 1.359375 1.390625q0.5 0.921875 0.5 2.265625l-6.5625 0.109375q-0.015625 2.234375 0.734375 3.484375q0.765625 1.25 2.34375 1.25q0.859375 0 1.765625 -0.4375q0.90625 -0.453125 1.390625 -1.109375l0.453125 0.375q-0.71875 1.078125 -1.84375 1.609375q-1.125 0.515625 -2.21875 0.515625zm2.1875 -6.46875q0 -1.125 -0.5 -1.921875q-0.5 -0.8125 -1.515625 -0.8125q-2.3125 0 -2.734375 2.734375l4.75 0zm3.4241943 5.609375q0.53125 0 0.765625 -0.265625q0.234375 -0.265625 0.28125 -0.6875q0.046875 -0.421875 0.046875 -1.3125l0 -4.265625q0 -0.78125 0.078125 -1.203125l-1.328125 0.046875l0 -0.765625l0.578125 0q0.703125 0 1.015625 -0.109375q0.328125 -0.125 0.609375 -0.390625l0.546875 0q0.0625 0.734375 0.078125 1.84375q0.46875 -0.765625 1.328125 -1.359375q0.875 -0.59375 1.8125 -0.59375q0.5625 0 0.9375 0.296875q0.375 0.296875 0.375 0.875q0 0.296875 -0.234375 0.59375q-0.234375 0.296875 -0.671875 0.296875q-0.40625 0 -0.671875 -0.296875q-0.25 -0.3125 -0.203125 -0.734375q-0.703125 -0.03125 -1.421875 0.53125q-0.71875 0.5625 -1.21875 1.5l0.015625 4.578125q0 0.84375 -0.078125 1.28125l1.171875 -0.0625l0 0.765625l-3.8125 0l0 -0.5625zm9.5937805 0.859375q-0.453125 0 -0.78125 -0.34375q-0.3125 -0.34375 -0.3125 -0.84375q0 -0.515625 0.328125 -0.859375q0.328125 -0.359375 0.78125 -0.359375q0.46875 0 0.765625 0.359375q0.3125 0.34375 0.3125 0.859375q0 0.5 -0.328125 0.84375q-0.328125 0.34375 -0.765625 0.34375zm-0.0625 -8.0q-0.453125 0 -0.78125 -0.34375q-0.3125 -0.34375 -0.3125 -0.84375q0 -0.515625 0.328125 -0.859375q0.328125 -0.359375 0.78125 -0.359375q0.46875 0 0.765625 0.359375q0.3125 0.34375 0.3125 0.859375q0 0.5 -0.328125 0.84375q-0.328125 0.34375 -0.765625 0.34375zm8.664398 7.09375q0.921875 -0.046875 1.265625 -0.5625q0.359375 -0.53125 0.359375 -1.578125l-0.015625 -8.796875l-0.03125 0l-2.25 1.4375l-0.375 -0.546875l3.640625 -2.703125l0.640625 0l0.015625 11.328125q0 0.9375 -0.046875 1.28125l1.5625 -0.078125l0 0.828125l-4.765625 0l0 -0.609375zm11.212769 0.90625q-2.59375 0 -3.671875 -1.96875q-1.078125 -1.984375 -1.078125 -4.796875q0 -1.703125 0.515625 -3.28125q0.515625 -1.578125 1.59375 -2.59375q1.078125 -1.015625 2.71875 -1.015625q1.703125 0 2.734375 1.0q1.046875 1.0 1.5 2.53125q0.453125 1.53125 0.453125 3.265625q0 1.671875 -0.5 3.25q-0.484375 1.5625 -1.5625 2.59375q-1.078125 1.015625 -2.703125 1.015625zm0.109375 -0.71875q1.46875 0 2.09375 -1.671875q0.640625 -1.671875 0.640625 -4.078125q0 -2.6875 -0.65625 -4.578125q-0.640625 -1.90625 -2.140625 -1.90625q-1.5 0 -2.1875 1.703125q-0.6875 1.703125 -0.6875 4.09375q0 2.5 0.65625 4.46875q0.671875 1.96875 2.28125 1.96875z" fill-rule="nonzero"></path><path fill="#000000" fill-opacity="0.0" d="m81.76378 231.27559l83.27559 0l0 41.732285l-83.27559 0z" fill-rule="evenodd"></path><path fill="#cc0000" d="m101.26876 253.07059l0 -1.703125l7.0 0l0 1.703125l-7.0 0z" fill-rule="nonzero"></path><path fill="#cc0000" d="m121.17501 259.85184l0 -14.15625l5.34375 0l0 1.125l-4.140625 0l0 11.96875l4.15625 0l0 1.0625l-5.359375 0zm9.781258 -1.65625q1.625 -5.3125 3.546875 -10.390625l-4.96875 0l0 -1.234375l6.59375 0l0 0.734375q-2.296875 5.78125 -3.703125 10.890625l-1.46875 0zm14.234375 1.65625l-5.359375 0l0 -1.0625l4.171875 0l0 -11.96875l-4.140625 0l0 -1.125l5.328125 0l0 14.15625z" fill-rule="nonzero"></path><path fill="#38761d" d="m99.55782 278.2581l0 -3.484375l-3.296875 0l0 -1.140625l3.296875 0l0 -3.1875l1.171875 0l0 3.1875l3.1875 0l0 1.140625l-3.1875 0l0 3.484375l-1.171875 0zm16.953125 3.59375l0 -14.15625l5.34375 0l0 1.125l-4.140625 0l0 11.96875l4.15625 0l0 1.0625l-5.359375 0zm11.1875 -1.65625l0 -10.015625l-2.359375 0.6875l-0.296875 -0.734375l3.0468826 -1.578125l0.90625 0l0 11.640625l-1.2968826 0zm9.703133 -11.703125q1.703125 0 2.640625 1.59375q0.953125 1.578125 0.953125 4.359375q0 2.859375 -0.9375 4.40625q-0.921875 1.546875 -2.65625 1.546875q-1.75 0 -2.6875 -1.546875q-0.921875 -1.546875 -0.921875 -4.40625q0 -2.78125 0.9375 -4.359375q0.953125 -1.59375 2.671875 -1.59375zm0 1.140625q-1.078125 0 -1.671875 1.296875q-0.59375 1.296875 -0.59375 3.515625q0 1.21875 0.171875 2.15625l3.953125 -5.125q-0.28125 -0.890625 -0.765625 -1.359375q-0.46875 -0.484375 -1.09375 -0.484375zm0 9.625q1.0625 0 1.65625 -1.25q0.59375 -1.25 0.59375 -3.5625q0 -1.078125 -0.125 -1.859375l-3.96875 5.03125q0.609375 1.640625 1.84375 1.640625zm12.453125 2.59375l-5.359375 0l0 -1.0625l4.171875 0l0 -11.96875l-4.140625 0l0 -1.125l5.328125 0l0 14.15625z" fill-rule="nonzero"></path></g></svg>

