<svg version="1.1" viewBox="0.0 0.0 368.3254593175853 384.6430446194226" fill="none" stroke="none" stroke-linecap="square" stroke-miterlimit="10" xmlns:xlink="http://www.w3.org/1999/xlink" xmlns="http://www.w3.org/2000/svg"><clipPath id="p.0"><path d="m0 0l368.32547 0l0 384.64304l-368.32547 0l0 -384.64304z" clip-rule="nonzero"/></clipPath><g clip-path="url(#p.0)"><path fill="#000000" fill-opacity="0.0" d="m0 0l368.32547 0l0 384.64304l-368.32547 0z" fill-rule="evenodd"/><path fill="#c27ba0" d="m18.637794 15.215223l111.90551 0l0 58.803146l-111.90551 0z" fill-rule="evenodd"/><path stroke="#a64d79" stroke-width="1.0" stroke-linejoin="round" stroke-linecap="butt" d="m18.637794 15.215223l111.90551 0l0 58.803146l-111.90551 0z" fill-rule="evenodd"/><path fill="#f6b26b" d="m28.463255 151.35039l0 0c0 -25.47467 20.651308 -46.125977 46.125984 -46.125977l0 0c12.233368 0 23.96569 4.859688 32.615997 13.509987c8.650299 8.650299 13.509987 20.382622 13.509987 32.61599l0 0c0 25.474686 -20.651306 46.12599 -46.125984 46.12599l0 0c-25.474678 0 -46.125984 -20.651306 -46.125984 -46.12599z" fill-rule="evenodd"/><path stroke="#e69138" stroke-width="1.0" stroke-linejoin="round" stroke-linecap="butt" d="m28.463255 151.35039l0 0c0 -25.47467 20.651308 -46.125977 46.125984 -46.125977l0 0c12.233368 0 23.96569 4.859688 32.615997 13.509987c8.650299 8.650299 13.509987 20.382622 13.509987 32.61599l0 0c0 25.474686 -20.651306 46.12599 -46.125984 46.12599l0 0c-25.474678 0 -46.125984 -20.651306 -46.125984 -46.12599z" fill-rule="evenodd"/><path fill="#000000" fill-opacity="0.0" d="m126.76378 122.767715l-104.34646 0l0 26.110245l104.34646 0z" fill-rule="evenodd"/><path fill="#000000" d="m66.54563 151.71397l2.125 -4.625q0.796875 -1.703125 1.46875 -2.3125q0.671875 -0.609375 1.75 -0.609375q1.453125 0 1.453125 1.1875q0 1.15625 -1.40625 1.3125q-0.328125 0.046875 -0.421875 0.15625q-0.09375 0.109375 -0.375 0.6875l-3.40625 7.296875q0.34375 1.484375 0.34375 2.78125q0 2.546875 -1.5625 2.546875q-1.5625 0 -1.5625 -2.546875q0 -1.265625 0.359375 -2.78125l-3.765625 -8.234375q-0.84375 0 -1.25 -0.28125q-0.40625 -0.296875 -0.40625 -0.921875q0 -1.203125 1.59375 -1.203125l1.625 0l3.4375 7.546875z" fill-rule="nonzero"/><path fill="#000000" d="m75.2136 163.80772l0 -1.4375l1.796875 0l0 -4.59375l-1.703125 0l0 -1.4375l3.5 0l0 6.03125l1.625 0l0 1.4375l-5.21875 0zm2.578125 -8.765625q-0.3125 0 -0.578125 -0.140625q-0.25 -0.15625 -0.40625 -0.390625q-0.140625 -0.25 -0.140625 -0.53125q0 -0.453125 0.3125 -0.75q0.3125 -0.3125 0.8125 -0.3125q0.28125 0 0.546875 0.15625q0.265625 0.140625 0.421875 0.390625q0.15625 0.234375 0.15625 0.515625q0 0.28125 -0.15625 0.53125q-0.15625 0.234375 -0.421875 0.390625q-0.265625 0.140625 -0.546875 0.140625zm7.671875 9.015625q-0.890625 0 -1.625 -0.4375q-0.71875 -0.4375 -1.140625 -1.3125q-0.421875 -0.875 -0.421875 -2.125q0 -1.21875 0.421875 -2.125q0.4375 -0.921875 1.15625 -1.40625q0.734375 -0.484375 1.59375 -0.484375q0.4375 0 0.921875 0.21875q0.484375 0.203125 0.796875 0.53125l0 -3.90625l1.953125 0l0 0.171875q-0.078125 0.09375 -0.109375 0.21875q-0.015625 0.109375 -0.015625 0.375l-0.03125 9.125q0 0.28125 0.03125 0.484375q0.03125 0.203125 0.140625 0.421875l-1.734375 0q-0.109375 -0.203125 -0.140625 -0.375q-0.015625 -0.1875 -0.015625 -0.53125q-0.234375 0.5625 -0.75 0.859375q-0.5 0.296875 -1.03125 0.296875zm0.25 -1.5q1.46875 0 1.46875 -2.578125q0 -1.078125 -0.3125 -1.71875q-0.3125 -0.640625 -1.109375 -0.640625q-0.84375 0 -1.265625 0.703125q-0.40625 0.703125 -0.40625 1.828125q0 0.84375 0.234375 1.390625q0.25 0.53125 0.625 0.78125q0.375 0.234375 0.765625 0.234375z" fill-rule="nonzero"/><path fill="#000000" fill-opacity="0.0" d="m126.76378 16.57743l-104.34646 0l0 26.110237l104.34646 0z" fill-rule="evenodd"/><path fill="#000000" d="m47.528053 31.872429l3.953125 0q1.328125 0 2.203125 0.46875q0.875 0.46875 1.296875 1.25q0.421875 0.78125 0.421875 1.765625q0 0.984375 -0.421875 1.765625q-0.40625 0.765625 -1.265625 1.21875q-0.84375 0.453125 -2.140625 0.453125l-1.90625 0l0 4.703125l-2.140625 0l0 -11.625zm3.890625 5.140625q0.921875 0 1.375 -0.421875q0.453125 -0.4375 0.453125 -1.171875q0 -0.765625 -0.46875 -1.234375q-0.453125 -0.46875 -1.34375 -0.46875l-1.765625 0l0 3.296875l1.75 0zm9.546875 6.78125q-1.25 0 -2.234375 -0.546875q-0.984375 -0.546875 -1.546875 -1.5625q-0.5625 -1.03125 -0.5625 -2.421875q0 -1.40625 0.53125 -2.46875q0.53125 -1.0625 1.46875 -1.625q0.9375 -0.578125 2.125 -0.578125q1.046875 0 1.890625 0.5q0.84375 0.484375 1.328125 1.453125q0.5 0.953125 0.5 2.3125q0 0.21875 -0.046875 0.609375l-0.015625 0.265625l-5.703125 0q0.125 1.1875 0.734375 1.796875q0.625 0.609375 1.46875 0.609375q0.59375 0 1.203125 -0.28125q0.609375 -0.28125 1.0 -0.78125l1.15625 1.15625q-1.3125 1.5625 -3.296875 1.5625zm1.40625 -5.59375q0 -0.546875 -0.21875 -1.015625q-0.203125 -0.46875 -0.609375 -0.734375q-0.390625 -0.28125 -0.90625 -0.28125q-0.765625 0 -1.265625 0.546875q-0.5 0.546875 -0.609375 1.484375l3.609375 0zm7.578125 5.59375q-1.15625 0 -2.109375 -0.59375q-0.953125 -0.59375 -1.5 -1.640625q-0.546875 -1.0625 -0.546875 -2.40625q0 -1.265625 0.5625 -2.3125q0.5625 -1.046875 1.5 -1.640625q0.953125 -0.609375 2.09375 -0.609375q1.125 0 2.078125 0.609375q0.953125 0.59375 1.5 1.640625q0.5625 1.046875 0.5625 2.3125q0 1.34375 -0.546875 2.40625q-0.546875 1.046875 -1.5 1.640625q-0.9375 0.59375 -2.09375 0.59375zm0 -1.6875q0.609375 0 1.0625 -0.359375q0.46875 -0.375 0.71875 -1.046875q0.25 -0.671875 0.25 -1.546875q0 -0.890625 -0.25 -1.53125q-0.25 -0.65625 -0.71875 -1.0q-0.453125 -0.34375 -1.0625 -0.34375q-0.59375 0 -1.046875 0.34375q-0.453125 0.34375 -0.703125 1.0q-0.25 0.640625 -0.25 1.53125q0 0.890625 0.234375 1.5625q0.25 0.671875 0.6875 1.03125q0.453125 0.359375 1.078125 0.359375zm5.65625 -7.3125l2.015625 0l0 1.0625q0.390625 -0.65625 0.953125 -0.953125q0.5625 -0.3125 1.28125 -0.3125q0.96875 0 1.765625 0.53125q0.8125 0.53125 1.296875 1.578125q0.484375 1.03125 0.484375 2.484375q0 1.484375 -0.5 2.53125q-0.484375 1.03125 -1.296875 1.546875q-0.796875 0.515625 -1.734375 0.515625q-0.6875 0 -1.25 -0.296875q-0.5625 -0.296875 -0.921875 -0.9375l0 4.0625l-2.078125 0l-0.015625 -11.8125zm3.796875 7.265625q0.53125 0 0.953125 -0.3125q0.4375 -0.328125 0.6875 -1.0q0.265625 -0.671875 0.265625 -1.671875q0 -1.25 -0.4375 -2.0q-0.421875 -0.75 -1.328125 -0.75q-0.96875 0 -1.40625 0.796875q-0.4375 0.796875 -0.4375 2.140625q0 1.40625 0.453125 2.109375q0.46875 0.6875 1.25 0.6875zm5.765625 1.4375l0 -1.625l2.390625 0l0 -9.34375l-2.28125 0l0 -1.625l4.390625 0l0 10.96875l2.359375 0l0 1.625l-6.859375 0zm13.109375 0.296875q-1.25 0 -2.234375 -0.546875q-0.984375 -0.546875 -1.546875 -1.5625q-0.5625 -1.03125 -0.5625 -2.421875q0 -1.40625 0.53125 -2.46875q0.53125 -1.0625 1.46875 -1.625q0.9375 -0.578125 2.125 -0.578125q1.046875 0 1.890625 0.5q0.84375 0.484375 1.328125 1.453125q0.5 0.953125 0.5 2.3125q0 0.21875 -0.046875 0.609375l-0.015625 0.265625l-5.703125 0q0.125 1.1875 0.734375 1.796875q0.625 0.609375 1.46875 0.609375q0.59375 0 1.203125 -0.28125q0.609375 -0.28125 1.0 -0.78125l1.15625 1.15625q-1.3125 1.5625 -3.296875 1.5625zm1.40625 -5.59375q0 -0.546875 -0.21875 -1.015625q-0.203125 -0.46875 -0.609375 -0.734375q-0.390625 -0.28125 -0.90625 -0.28125q-0.765625 0 -1.265625 0.546875q-0.5 0.546875 -0.609375 1.484375l3.609375 0z" fill-rule="nonzero"/><path fill="#000000" d="m49.34025 62.770554l0 -8.09375l3.046875 0l0 0.640625l-2.359375 0l0 6.84375l2.375 0l0 0.609375l-3.0625 0zm5.000061 -0.953125l0 -0.625l1.25 0l0 -3.625l-1.1875 0l0 -0.625l1.953125 0l0 4.25l1.140625 0l0 0.625l-3.15625 0zm1.59375 -5.890625q-0.21875 0 -0.390625 -0.15625q-0.15625 -0.171875 -0.15625 -0.390625q0 -0.234375 0.15625 -0.390625q0.15625 -0.15625 0.390625 -0.15625q0.234375 0 0.390625 0.171875q0.171875 0.15625 0.171875 0.375q0 0.21875 -0.171875 0.390625q-0.15625 0.15625 -0.390625 0.15625zm5.171936 6.0q-0.53125 0 -0.984375 -0.296875q-0.453125 -0.296875 -0.75 -0.875q-0.28125 -0.59375 -0.28125 -1.421875q0 -0.84375 0.296875 -1.40625q0.296875 -0.5625 0.765625 -0.828125q0.46875 -0.28125 0.984375 -0.28125q0.5 0 0.859375 0.234375q0.375 0.21875 0.5625 0.609375l0 -2.9375l0.8125 0l0 0.078125q-0.0625 0.0625 -0.078125 0.140625q-0.015625 0.078125 -0.015625 0.25l0 5.875q0 0.25 0.015625 0.421875q0.015625 0.15625 0.09375 0.328125l-0.75 0q-0.078125 -0.171875 -0.09375 -0.328125q-0.015625 -0.171875 -0.015625 -0.421875q-0.234375 0.390625 -0.609375 0.625q-0.359375 0.234375 -0.8125 0.234375zm0.109375 -0.671875q0.65625 0 0.96875 -0.515625q0.3125 -0.53125 0.3125 -1.390625q0 -0.859375 -0.34375 -1.375q-0.328125 -0.53125 -1.0 -0.53125q-0.640625 0 -0.984375 0.484375q-0.34375 0.46875 -0.34375 1.296875q0 0.9375 0.359375 1.484375q0.359375 0.546875 1.03125 0.546875zm4.484436 2.03125q0.296875 -0.28125 0.484375 -0.609375q0.203125 -0.3125 0.203125 -0.5q0 -0.109375 -0.0625 -0.171875q-0.046875 -0.0625 -0.1875 -0.1875q-0.140625 -0.140625 -0.21875 -0.234375q-0.078125 -0.09375 -0.078125 -0.234375q0 -0.265625 0.171875 -0.4375q0.1875 -0.1875 0.453125 -0.1875q0.296875 0 0.515625 0.25q0.21875 0.25 0.21875 0.625q0 0.84375 -1.140625 2.015625l-0.359375 -0.328125zm9.656372 -6.34375l0.75 0l0 0.875q0.28125 -0.453125 0.71875 -0.71875q0.4375 -0.265625 0.9375 -0.265625q0.640625 0 1.03125 0.5q0.390625 0.484375 0.390625 1.53125l0 2.953125l-0.75 0l0 -2.9375q0 -0.71875 -0.25 -1.046875q-0.234375 -0.328125 -0.640625 -0.328125q-0.328125 0 -0.671875 0.1875q-0.328125 0.1875 -0.546875 0.546875q-0.21875 0.34375 -0.21875 0.78125l0 2.796875l-0.75 0l0 -4.875zm7.156311 -0.09375q1.046875 0 1.59375 0.546875q0.546875 0.53125 0.546875 1.828125l0 2.59375l-0.828125 0l0 -0.75q-0.4375 0.875 -1.65625 0.875q-0.8125 0 -1.28125 -0.375q-0.453125 -0.375 -0.453125 -0.96875q0 -0.515625 0.328125 -0.890625q0.34375 -0.390625 0.890625 -0.59375q0.5625 -0.21875 1.234375 -0.21875q0.609375 0 1.109375 0.0625q-0.078125 -0.8125 -0.453125 -1.140625q-0.359375 -0.34375 -1.078125 -0.34375q-0.359375 0 -0.703125 0.140625q-0.328125 0.125 -0.609375 0.40625l-0.375 -0.5q0.6875 -0.671875 1.734375 -0.671875zm-0.265625 4.5q0.78125 0 1.234375 -0.453125q0.46875 -0.46875 0.515625 -1.34375q-0.484375 -0.078125 -1.046875 -0.078125q-0.796875 0 -1.265625 0.265625q-0.46875 0.265625 -0.46875 0.8125q0 0.796875 1.03125 0.796875zm3.406311 -4.40625l0.703125 0l0 0.484375q0.171875 -0.265625 0.4375 -0.421875q0.265625 -0.171875 0.546875 -0.171875q0.328125 0 0.5625 0.203125q0.25 0.203125 0.3125 0.515625q0.125 -0.328125 0.421875 -0.515625q0.3125 -0.203125 0.671875 -0.203125q0.484375 0 0.71875 0.34375q0.234375 0.34375 0.21875 0.90625l0 3.734375l-0.703125 0l0 -3.453125q0 -0.609375 -0.125 -0.78125q-0.109375 -0.1875 -0.328125 -0.1875q-0.203125 0 -0.390625 0.1875q-0.171875 0.171875 -0.28125 0.453125q-0.109375 0.28125 -0.109375 0.5625l0 3.21875l-0.71875 0l0 -3.390625q0 -0.59375 -0.109375 -0.796875q-0.109375 -0.21875 -0.421875 -0.21875q-0.15625 0 -0.328125 0.15625q-0.15625 0.140625 -0.265625 0.40625q-0.109375 0.25 -0.109375 0.59375l0 3.25l-0.703125 0l0 -4.875zm7.828186 4.984375q-1.09375 0 -1.75 -0.65625q-0.640625 -0.671875 -0.640625 -1.875q0 -0.796875 0.296875 -1.375q0.3125 -0.578125 0.8125 -0.875q0.5 -0.3125 1.140625 -0.3125q0.875 0 1.421875 0.59375q0.546875 0.578125 0.546875 1.71875q0 0.109375 -0.015625 0.34375l-3.46875 0q0.046875 0.90625 0.5 1.359375q0.46875 0.453125 1.171875 0.453125q0.765625 0 1.25 -0.546875l0.4375 0.421875q-0.625 0.75 -1.703125 0.75zm1.0625 -3.03125q0 -0.6875 -0.359375 -1.078125q-0.34375 -0.40625 -0.90625 -0.40625q-0.53125 0 -0.921875 0.375q-0.390625 0.375 -0.484375 1.109375l2.671875 0zm5.812561 3.875l-3.0625 0l0 -0.609375l2.375 0l0 -6.84375l-2.359375 0l0 -0.640625l3.046875 0l0 8.09375z" fill-rule="nonzero"/><path fill="#93c47d" d="m28.463255 270.83728l0 0c0 -25.474686 20.651308 -46.12599 46.125984 -46.12599l0 0c12.233368 0 23.96569 4.85968 32.615997 13.509979c8.650299 8.650299 13.509987 20.382645 13.509987 32.616013l0 0c0 25.47467 -20.651306 46.125977 -46.125984 46.125977l0 0c-25.474678 0 -46.125984 -20.651306 -46.125984 -46.125977z" fill-rule="evenodd"/><path stroke="#6aa84f" stroke-width="1.0" stroke-linejoin="round" stroke-linecap="butt" d="m28.463255 270.83728l0 0c0 -25.474686 20.651308 -46.12599 46.125984 -46.12599l0 0c12.233368 0 23.96569 4.85968 32.615997 13.509979c8.650299 8.650299 13.509987 20.382645 13.509987 32.616013l0 0c0 25.47467 -20.651306 46.125977 -46.125984 46.125977l0 0c-25.474678 0 -46.125984 -20.651306 -46.125984 -46.125977z" fill-rule="evenodd"/><path fill="#000000" fill-opacity="0.0" d="m134.98425 251.02625l-120.7874 0l0 39.62204l120.7874 0z" fill-rule="evenodd"/><path fill="#000000" d="m47.481174 266.32126l3.6875 0q2.078125 0 3.0625 0.921875q1.0 0.90625 1.0 2.546875q0 0.640625 -0.28125 1.28125q-0.28125 0.640625 -0.796875 1.125q-0.5 0.484375 -1.15625 0.6875l2.734375 5.0625l-2.359375 0l-2.40625 -4.8125l-1.359375 0l0 4.8125l-2.125 0l0 -11.625zm3.8125 5.03125q0.890625 0 1.34375 -0.40625q0.453125 -0.421875 0.453125 -1.15625q0 -0.8125 -0.4375 -1.21875q-0.4375 -0.40625 -1.359375 -0.40625l-1.6875 0l0 3.1875l1.6875 0zm9.671875 6.890625q-1.25 0 -2.234375 -0.546875q-0.984375 -0.546875 -1.546875 -1.5625q-0.5625 -1.03125 -0.5625 -2.421875q0 -1.40625 0.53125 -2.46875q0.53125 -1.0625 1.46875 -1.625q0.9375 -0.578125 2.125 -0.578125q1.046875 0 1.890625 0.5q0.84375 0.484375 1.328125 1.453125q0.5000038 0.953125 0.5000038 2.3125q0 0.21875 -0.046875 0.609375l-0.015625 0.265625l-5.703129 0q0.125 1.1875 0.734375 1.796875q0.625 0.609375 1.46875 0.609375q0.59375 0 1.203125 -0.28125q0.609375 -0.28125 1.0 -0.78125l1.1562538 1.15625q-1.3125038 1.5625 -3.2968788 1.5625zm1.40625 -5.59375q0 -0.546875 -0.21875 -1.015625q-0.203125 -0.46875 -0.609375 -0.734375q-0.390625 -0.28125 -0.90625 -0.28125q-0.765625 0 -1.265625 0.546875q-0.5 0.546875 -0.609375 1.484375l3.609375 0zm7.343754 -3.6875q1.71875 0 2.75 0.859375q1.046875 0.84375 1.046875 2.828125l0 5.296875l-2.0 0l0 -0.78125q-0.5 0.46875 -1.203125 0.75q-0.703125 0.265625 -1.515625 0.265625q-1.359375 0 -2.078125 -0.671875q-0.703125 -0.671875 -0.703125 -1.828125q0 -0.921875 0.578125 -1.578125q0.59375 -0.65625 1.703125 -1.0q1.109375 -0.34375 2.640625 -0.34375l0.640625 0q-0.09375 -1.140625 -0.5625 -1.625q-0.453125 -0.484375 -1.40625 -0.484375q-0.59375 0 -1.25 0.3125q-0.640625 0.3125 -1.1875 0.875l-1.0625 -1.375q0.8125 -0.734375 1.75 -1.109375q0.953125 -0.390625 1.859375 -0.390625zm-0.25 7.625q0.921875 0 1.453125 -0.578125q0.546875 -0.59375 0.65625 -1.859375l-0.421875 0q-1.59375 0 -2.34375 0.359375q-0.734375 0.34375 -0.734375 1.09375q0 0.5 0.359375 0.75q0.375 0.234375 1.03125 0.234375zm9.390625 1.640625q-1.03125 0 -1.875 -0.5q-0.84375 -0.515625 -1.34375 -1.53125q-0.484375 -1.015625 -0.484375 -2.46875q0 -1.421875 0.5 -2.484375q0.5 -1.0625 1.34375 -1.625q0.859375 -0.578125 1.84375 -0.578125q0.515625 0 1.078125 0.25q0.5625 0.25 0.9375 0.625l0 -4.5625l2.28125 0l0 0.21875q-0.109375 0.109375 -0.140625 0.25q-0.015625 0.125 0 0.421875l-0.046875 10.65625q0 0.3125 0.03125 0.5625q0.046875 0.234375 0.171875 0.484375l-2.03125 0q-0.125 -0.234375 -0.15625 -0.4375q-0.015625 -0.21875 -0.015625 -0.609375q-0.28125 0.65625 -0.875 1.0q-0.578125 0.328125 -1.21875 0.328125zm0.3125 -1.734375q1.703125 0 1.703125 -3.0q0 -1.265625 -0.359375 -2.0q-0.359375 -0.75 -1.296875 -0.75q-0.984375 0 -1.46875 0.828125q-0.484375 0.8125 -0.484375 2.125q0 0.96875 0.28125 1.609375q0.296875 0.625 0.71875 0.90625q0.4375 0.28125 0.90625 0.28125zm9.78125 1.75q-1.25 0 -2.234375 -0.546875q-0.984375 -0.546875 -1.546875 -1.5625q-0.5625 -1.03125 -0.5625 -2.421875q0 -1.40625 0.53125 -2.46875q0.53125 -1.0625 1.46875 -1.625q0.9375 -0.578125 2.125 -0.578125q1.046875 0 1.890625 0.5q0.84375 0.484375 1.328125 1.453125q0.5 0.953125 0.5 2.3125q0 0.21875 -0.046875 0.609375l-0.015625 0.265625l-5.703125 0q0.125 1.1875 0.734375 1.796875q0.625 0.609375 1.46875 0.609375q0.59375 0 1.203125 -0.28125q0.609375 -0.28125 1.0 -0.78125l1.15625 1.15625q-1.3125 1.5625 -3.296875 1.5625zm1.40625 -5.59375q0 -0.546875 -0.21875 -1.015625q-0.203125 -0.46875 -0.609375 -0.734375q-0.390625 -0.28125 -0.90625 -0.28125q-0.765625 0 -1.265625 0.546875q-0.5 0.546875 -0.609375 1.484375l3.609375 0zm10.703125 -0.765625l0 -0.015625q-0.359375 -0.5625 -0.765625 -0.796875q-0.390625 -0.25 -0.921875 -0.25q-0.671875 0 -1.21875 0.3125q-0.53125 0.3125 -0.84375 0.90625q-0.296875 0.578125 -0.296875 1.34375l0 4.5625l-2.109375 0l0 -8.703125l2.15625 0l0 1.25q0.34375 -0.6875 1.015625 -1.0625q0.671875 -0.390625 1.5 -0.390625q0.640625 0 1.28125 0.25q0.640625 0.234375 1.140625 0.71875l-0.9375 1.875zm-0.265625 0q0 0 0.015625 0q0.03125 0 0.09375 0.046875q0.0625 0.03125 0.109375 0.046875l-0.015625 0.03125l-0.1875 -0.09375l-0.015625 -0.03125zm0.265625 0q0.0625 0.09375 0.0625 0.125q0 0 -0.015625 0q-0.03125 0 -0.09375 -0.03125l0.046875 -0.09375z" fill-rule="nonzero"/><path fill="#000000" fill-opacity="0.0" d="m74.59055 74.01837l0 31.2126" fill-rule="evenodd"/><path stroke="#000000" stroke-width="1.0" stroke-linejoin="round" stroke-linecap="butt" d="m74.59055 74.01837l0 25.2126" fill-rule="evenodd"/><path fill="#000000" stroke="#000000" stroke-width="1.0" stroke-linecap="butt" d="m72.93882 99.23097l1.6517334 4.5380936l1.6517334 -4.5380936z" fill-rule="evenodd"/><path fill="#000000" fill-opacity="0.0" d="m74.58924 197.47638l0 27.244095" fill-rule="evenodd"/><path stroke="#000000" stroke-width="1.0" stroke-linejoin="round" stroke-linecap="butt" d="m74.58924 197.47638l0 21.244095" fill-rule="evenodd"/><path fill="#000000" stroke="#000000" stroke-width="1.0" stroke-linecap="butt" d="m72.93751 218.72047l1.6517334 4.538101l1.6517334 -4.538101z" fill-rule="evenodd"/><path fill="#76a5af" d="m205.72047 149.42651l0 0c0 -25.474686 20.651306 -46.12599 46.125977 -46.12599l0 0c12.233383 0 23.965714 4.859688 32.616013 13.5099945c8.650299 8.650299 13.509979 20.382614 13.509979 32.615997l0 0c0 25.47467 -20.651306 46.125977 -46.12599 46.125977l0 0c-25.47467 0 -46.125977 -20.651306 -46.125977 -46.125977z" fill-rule="evenodd"/><path stroke="#45818e" stroke-width="1.0" stroke-linejoin="round" stroke-linecap="butt" d="m205.72047 149.42651l0 0c0 -25.474686 20.651306 -46.12599 46.125977 -46.12599l0 0c12.233383 0 23.965714 4.859688 32.616013 13.5099945c8.650299 8.650299 13.509979 20.382614 13.509979 32.615997l0 0c0 25.47467 -20.651306 46.125977 -46.12599 46.125977l0 0c-25.47467 0 -46.125977 -20.651306 -46.125977 -46.125977z" fill-rule="evenodd"/><path fill="#000000" fill-opacity="0.0" d="m300.99738 120.217636l-98.29921 0l0 31.2126l98.29921 0z" fill-rule="evenodd"/><path fill="#000000" d="m248.22472 144.02327l0 5.828125q0.71875 0 1.0 0.078125q0.296875 0.078125 0.546875 0.390625q0.25 0.3125 0.25 0.734375q0 1.203125 -1.609375 1.203125l-2.25 0q-1.609375 0 -1.609375 -1.203125q0 -1.09375 1.265625 -1.203125l0 -5.828125l-3.9375 0l0 5.828125q1.265625 0.109375 1.265625 1.203125q0 1.203125 -1.59375 1.203125l-2.25 0q-1.609375 0 -1.609375 -1.203125q0 -0.515625 0.359375 -0.859375q0.359375 -0.34375 0.96875 -0.34375l0.453125 0l0 -5.828125q-0.71875 0 -1.0 -0.078125q-0.28125 -0.078125 -0.53125 -0.390625q-0.25 -0.328125 -0.25 -0.734375q0 -1.203125 1.609375 -1.203125l9.109375 0q1.609375 0 1.609375 1.203125q0 0.640625 -0.421875 0.921875q-0.40625 0.28125 -1.375 0.28125z" fill-rule="nonzero"/><path fill="#000000" d="m252.47081 161.25764l0 -1.4375l1.796875 0l0 -4.59375l-1.703125 0l0 -1.4375l3.5000153 0l0 6.03125l1.625 0l0 1.4375l-5.2187653 0zm2.578125 -8.765625q-0.3125 0 -0.578125 -0.140625q-0.25 -0.15625 -0.40625 -0.390625q-0.140625 -0.25 -0.140625 -0.53125q0 -0.453125 0.3125 -0.75q0.3125 -0.3125 0.8125 -0.3125q0.28125 0 0.546875 0.15625q0.265625 0.140625 0.42189026 0.390625q0.15625 0.234375 0.15625 0.515625q0 0.28125 -0.15625 0.53125q-0.15626526 0.234375 -0.42189026 0.390625q-0.265625 0.140625 -0.546875 0.140625zm7.6718903 9.015625q-0.890625 0 -1.625 -0.4375q-0.71875 -0.4375 -1.140625 -1.3125q-0.421875 -0.875 -0.421875 -2.125q0 -1.21875 0.421875 -2.125q0.4375 -0.921875 1.15625 -1.40625q0.734375 -0.484375 1.59375 -0.484375q0.4375 0 0.921875 0.21875q0.484375 0.203125 0.796875 0.53125l0 -3.90625l1.953125 0l0 0.171875q-0.078125 0.09375 -0.109375 0.21875q-0.015625 0.109375 -0.015625 0.375l-0.03125 9.125q0 0.28125 0.03125 0.484375q0.03125 0.203125 0.140625 0.421875l-1.734375 0q-0.109375 -0.203125 -0.140625 -0.375q-0.015625 -0.1875 -0.015625 -0.53125q-0.234375 0.5625 -0.75 0.859375q-0.5 0.296875 -1.03125 0.296875zm0.25 -1.5q1.46875 0 1.46875 -2.578125q0 -1.078125 -0.3125 -1.71875q-0.3125 -0.640625 -1.109375 -0.640625q-0.84375 0 -1.265625 0.703125q-0.40625 0.703125 -0.40625 1.828125q0 0.84375 0.234375 1.390625q0.25 0.53125 0.625 0.78125q0.375 0.234375 0.765625 0.234375z" fill-rule="nonzero"/><path fill="#93c47d" d="m205.72047 268.9134l0 0c0 -25.474686 20.651306 -46.12599 46.125977 -46.12599l0 0c12.233383 0 23.965714 4.8596954 32.616013 13.5099945c8.650299 8.650299 13.509979 20.38263 13.509979 32.615997l0 0c0 25.47467 -20.651306 46.125977 -46.12599 46.125977l0 0c-25.47467 0 -46.125977 -20.651306 -46.125977 -46.125977z" fill-rule="evenodd"/><path stroke="#6aa84f" stroke-width="1.0" stroke-linejoin="round" stroke-linecap="butt" d="m205.72047 268.9134l0 0c0 -25.474686 20.651306 -46.12599 46.125977 -46.12599l0 0c12.233383 0 23.965714 4.8596954 32.616013 13.5099945c8.650299 8.650299 13.509979 20.38263 13.509979 32.615997l0 0c0 25.47467 -20.651306 46.125977 -46.12599 46.125977l0 0c-25.47467 0 -46.125977 -20.651306 -46.125977 -46.125977z" fill-rule="evenodd"/><path fill="#000000" fill-opacity="0.0" d="m312.24146 249.10236l-120.787384 0l0 39.62204l120.787384 0z" fill-rule="evenodd"/><path fill="#000000" d="m224.73839 264.39737l3.6875 0q2.078125 0 3.0625 0.921875q1.0 0.90625 1.0 2.546875q0 0.640625 -0.28125 1.28125q-0.28125 0.640625 -0.796875 1.125q-0.5 0.484375 -1.15625 0.6875l2.734375 5.0625l-2.359375 0l-2.40625 -4.8125l-1.359375 0l0 4.8125l-2.125 0l0 -11.625zm3.8125 5.03125q0.890625 0 1.34375 -0.40625q0.453125 -0.421875 0.453125 -1.15625q0 -0.8125 -0.4375 -1.21875q-0.4375 -0.40625 -1.359375 -0.40625l-1.6875 0l0 3.1875l1.6875 0zm9.671875 6.890625q-1.25 0 -2.234375 -0.546875q-0.984375 -0.546875 -1.546875 -1.5625q-0.5625 -1.03125 -0.5625 -2.421875q0 -1.40625 0.53125 -2.46875q0.53125 -1.0625 1.46875 -1.625q0.9375 -0.578125 2.125 -0.578125q1.046875 0 1.890625 0.5q0.84375 0.484375 1.328125 1.453125q0.5 0.953125 0.5 2.3125q0 0.21875 -0.046875 0.609375l-0.015625 0.265625l-5.703125 0q0.125 1.1875 0.734375 1.796875q0.625 0.609375 1.46875 0.609375q0.59375 0 1.203125 -0.28125q0.609375 -0.28125 1.0 -0.78125l1.15625 1.15625q-1.3125 1.5625 -3.296875 1.5625zm1.40625 -5.59375q0 -0.546875 -0.21875 -1.015625q-0.203125 -0.46875 -0.609375 -0.734375q-0.390625 -0.28125 -0.90625 -0.28125q-0.765625 0 -1.265625 0.546875q-0.5 0.546875 -0.609375 1.484375l3.609375 0zm7.34375 -3.6875q1.71875 0 2.75 0.859375q1.046875 0.84375 1.046875 2.828125l0 5.296875l-2.0 0l0 -0.78125q-0.5 0.46875 -1.203125 0.75q-0.703125 0.265625 -1.515625 0.265625q-1.359375 0 -2.078125 -0.671875q-0.703125 -0.671875 -0.703125 -1.828125q0 -0.921875 0.578125 -1.578125q0.59375 -0.65625 1.703125 -1.0q1.109375 -0.34375 2.640625 -0.34375l0.640625 0q-0.09375 -1.140625 -0.5625 -1.625q-0.453125 -0.484375 -1.40625 -0.484375q-0.59375 0 -1.25 0.3125q-0.640625 0.3125 -1.1875 0.875l-1.0625 -1.375q0.8125 -0.734375 1.75 -1.109375q0.953125 -0.390625 1.859375 -0.390625zm-0.25 7.625q0.921875 0 1.453125 -0.578125q0.546875 -0.59375 0.65625 -1.859375l-0.421875 0q-1.59375 0 -2.34375 0.359375q-0.734375 0.34375 -0.734375 1.09375q0 0.5 0.359375 0.75q0.375 0.234375 1.03125 0.234375zm9.39064 1.640625q-1.0312653 0 -1.8750153 -0.5q-0.84375 -0.515625 -1.34375 -1.53125q-0.484375 -1.015625 -0.484375 -2.46875q0 -1.421875 0.5 -2.484375q0.5 -1.0625 1.34375 -1.625q0.859375 -0.578125 1.8437653 -0.578125q0.515625 0 1.078125 0.25q0.5625 0.25 0.9375 0.625l0 -4.5625l2.28125 0l0 0.21875q-0.109375 0.109375 -0.140625 0.25q-0.015625 0.125 0 0.421875l-0.046875 10.65625q0 0.3125 0.03125 0.5625q0.046875 0.234375 0.171875 0.484375l-2.03125 0q-0.125 -0.234375 -0.15625 -0.4375q-0.015625 -0.21875 -0.015625 -0.609375q-0.28125 0.65625 -0.875 1.0q-0.578125 0.328125 -1.21875 0.328125zm0.3125 -1.734375q1.703125 0 1.703125 -3.0q0 -1.265625 -0.359375 -2.0q-0.359375 -0.75 -1.296875 -0.75q-0.98439026 0 -1.4687653 0.828125q-0.484375 0.8125 -0.484375 2.125q0 0.96875 0.28125 1.609375q0.296875 0.625 0.71875 0.90625q0.4375 0.28125 0.90626526 0.28125zm9.78125 1.75q-1.25 0 -2.234375 -0.546875q-0.984375 -0.546875 -1.546875 -1.5625q-0.5625 -1.03125 -0.5625 -2.421875q0 -1.40625 0.53125 -2.46875q0.53125 -1.0625 1.46875 -1.625q0.9375 -0.578125 2.125 -0.578125q1.046875 0 1.890625 0.5q0.84375 0.484375 1.328125 1.453125q0.5 0.953125 0.5 2.3125q0 0.21875 -0.046875 0.609375l-0.015625 0.265625l-5.703125 0q0.125 1.1875 0.734375 1.796875q0.625 0.609375 1.46875 0.609375q0.59375 0 1.203125 -0.28125q0.609375 -0.28125 1.0 -0.78125l1.15625 1.15625q-1.3125 1.5625 -3.296875 1.5625zm1.40625 -5.59375q0 -0.546875 -0.21875 -1.015625q-0.203125 -0.46875 -0.609375 -0.734375q-0.390625 -0.28125 -0.90625 -0.28125q-0.765625 0 -1.265625 0.546875q-0.5 0.546875 -0.609375 1.484375l3.609375 0zm10.703125 -0.765625l0 -0.015625q-0.359375 -0.5625 -0.765625 -0.796875q-0.390625 -0.25 -0.921875 -0.25q-0.671875 0 -1.21875 0.3125q-0.53125 0.3125 -0.84375 0.90625q-0.296875 0.578125 -0.296875 1.34375l0 4.5625l-2.109375 0l0 -8.703125l2.15625 0l0 1.25q0.34375 -0.6875 1.015625 -1.0625q0.671875 -0.390625 1.5 -0.390625q0.640625 0 1.28125 0.25q0.640625 0.234375 1.140625 0.71875l-0.9375 1.875zm-0.265625 0q0 0 0.015625 0q0.03125 0 0.09375 0.046875q0.0625 0.03125 0.109375 0.046875l-0.015625 0.03125l-0.1875 -0.09375l-0.015625 -0.03125zm0.265625 0q0.0625 0.09375 0.0625 0.125q0 0 -0.015625 0q-0.03125 0 -0.09375 -0.03125l0.046875 -0.09375z" fill-rule="nonzero"/><path fill="#000000" fill-opacity="0.0" d="m251.84645 195.55249l0 27.244095" fill-rule="evenodd"/><path stroke="#000000" stroke-width="1.0" stroke-linejoin="round" stroke-linecap="butt" d="m251.84645 195.55249l0 21.244095" fill-rule="evenodd"/><path fill="#000000" stroke="#000000" stroke-width="1.0" stroke-linecap="butt" d="m250.19472 216.79659l1.6517334 4.538101l1.6517334 -4.538101z" fill-rule="evenodd"/><path fill="#000000" fill-opacity="0.0" d="m169.58005 82.42519l168.44095 0l0 255.59055l-168.44095 0z" fill-rule="evenodd"/><path stroke="#b6d7a8" stroke-width="8.0" stroke-linejoin="round" stroke-linecap="butt" stroke-dasharray="32.0,24.0" d="m169.58005 82.42519l168.44095 0l0 255.59055l-168.44095 0z" fill-rule="evenodd"/><path fill="#000000" fill-opacity="0.0" d="m191.45407 342.27298l150.96063 0l0 52.81888l-150.96063 0z" fill-rule="evenodd"/><path fill="#000000" d="m201.57907 360.48984l2.09375 0l0 0.890625q0.46875 -0.515625 1.109375 -0.796875q0.640625 -0.296875 1.390625 -0.296875q1.234375 0 1.96875 0.890625q0.75 0.875 0.75 2.734375l0 5.28125l-2.09375 0l0 -5.265625q0 -0.984375 -0.359375 -1.4375q-0.359375 -0.46875 -1.078125 -0.46875q-0.4375 0 -0.828125 0.171875q-0.390625 0.171875 -0.625 0.53125q-0.234375 0.359375 -0.234375 0.875l0 5.59375l-2.09375 0l0 -8.703125zm13.234375 9.0q-1.25 0 -2.234375 -0.546875q-0.984375 -0.546875 -1.546875 -1.5625q-0.5625 -1.03125 -0.5625 -2.421875q0 -1.40625 0.53125 -2.46875q0.53125 -1.0625 1.46875 -1.625q0.9375 -0.578125 2.125 -0.578125q1.046875 0 1.890625 0.5q0.84375 0.484375 1.328125 1.453125q0.5 0.953125 0.5 2.3125q0 0.21875 -0.046875 0.609375l-0.015625 0.265625l-5.703125 0q0.125 1.1875 0.734375 1.796875q0.625 0.609375 1.46875 0.609375q0.59375 0 1.203125 -0.28125q0.609375 -0.28125 1.0 -0.78125l1.15625 1.15625q-1.3125 1.5625 -3.296875 1.5625zm1.40625 -5.59375q0 -0.546875 -0.21875 -1.015625q-0.203125 -0.46875 -0.609375 -0.734375q-0.390625 -0.28125 -0.90625 -0.28125q-0.765625 0 -1.265625 0.546875q-0.5 0.546875 -0.609375 1.484375l3.609375 0zm3.03125 -3.40625l2.0625 0l0.875 6.140625l1.078125 -5.140625l1.296875 0l1.21875 5.125q0.265625 -1.671875 0.359375 -3.109375q0.09375 -1.453125 0.09375 -2.453125l0 -0.5625l1.96875 0q-0.234375 2.15625 -0.59375 4.5q-0.359375 2.328125 -0.734375 4.203125l-1.859375 0l-1.140625 -4.84375l-1.0625 4.84375l-1.90625 0l-1.65625 -8.703125zm23.203125 9.0q-1.15625 0 -2.109375 -0.59375q-0.953125 -0.59375 -1.5 -1.640625q-0.546875 -1.0625 -0.546875 -2.40625q0 -1.265625 0.5625 -2.3125q0.5625 -1.046875 1.5 -1.640625q0.953125 -0.609375 2.09375 -0.609375q1.125 0 2.078125 0.609375q0.953125 0.59375 1.5 1.640625q0.5625 1.046875 0.5625 2.3125q0 1.34375 -0.546875 2.40625q-0.546875 1.046875 -1.5 1.640625q-0.9375 0.59375 -2.09375 0.59375zm0 -1.6875q0.609375 0 1.0625 -0.359375q0.46875 -0.375 0.71875 -1.046875q0.25 -0.671875 0.25 -1.546875q0 -0.890625 -0.25 -1.53125q-0.25 -0.65625 -0.71875 -1.0q-0.453125 -0.34375 -1.0625 -0.34375q-0.59375 0 -1.046875 0.34375q-0.453125 0.34375 -0.703125 1.0q-0.25 0.640625 -0.25 1.53125q0 0.890625 0.234375 1.5625q0.25 0.671875 0.6875 1.03125q0.453125 0.359375 1.078125 0.359375zm5.65625 -7.3125l2.015625 0l0 1.0625q0.390625 -0.65625 0.953125 -0.953125q0.5625 -0.3125 1.28125 -0.3125q0.96875 0 1.765625 0.53125q0.8125 0.53125 1.296875 1.578125q0.484375 1.03125 0.484375 2.484375q0 1.484375 -0.5 2.53125q-0.484375 1.03125 -1.296875 1.546875q-0.796875 0.515625 -1.734375 0.515625q-0.6875 0 -1.25 -0.296875q-0.5625 -0.296875 -0.921875 -0.9375l0 4.0625l-2.078125 0l-0.015625 -11.8125zm3.796875 7.265625q0.53125 0 0.953125 -0.3125q0.4375 -0.328125 0.6875 -1.0q0.265625 -0.671875 0.265625 -1.671875q0 -1.25 -0.4375 -2.0q-0.421875 -0.75 -1.328125 -0.75q-0.96875 0 -1.40625 0.796875q-0.4375 0.796875 -0.4375 2.140625q0 1.40625 0.453125 2.109375q0.46875 0.6875 1.25 0.6875zm9.546875 1.734375q-1.25 0 -2.234375 -0.546875q-0.984375 -0.546875 -1.546875 -1.5625q-0.5625 -1.03125 -0.5625 -2.421875q0 -1.40625 0.53125 -2.46875q0.53125 -1.0625 1.46875 -1.625q0.9375 -0.578125 2.125 -0.578125q1.046875 0 1.890625 0.5q0.84375 0.484375 1.328125 1.453125q0.5 0.953125 0.5 2.3125q0 0.21875 -0.046875 0.609375l-0.015625 0.265625l-5.703125 0q0.125 1.1875 0.734375 1.796875q0.625 0.609375 1.46875 0.609375q0.59375 0 1.203125 -0.28125q0.609375 -0.28125 1.0 -0.78125l1.15625 1.15625q-1.3125 1.5625 -3.296875 1.5625zm1.40625 -5.59375q0 -0.546875 -0.21875 -1.015625q-0.203125 -0.46875 -0.609375 -0.734375q-0.390625 -0.28125 -0.90625 -0.28125q-0.765625 0 -1.265625 0.546875q-0.5 0.546875 -0.609375 1.484375l3.609375 0zm10.703125 -0.765625l0 -0.015625q-0.359375 -0.5625 -0.765625 -0.796875q-0.390625 -0.25 -0.921875 -0.25q-0.671875 0 -1.21875 0.3125q-0.53125 0.3125 -0.84375 0.90625q-0.296875 0.578125 -0.296875 1.34375l0 4.5625l-2.109375 0l0 -8.703125l2.15625 0l0 1.25q0.34375 -0.6875 1.015625 -1.0625q0.671875 -0.390625 1.5 -0.390625q0.640625 0 1.28125 0.25q0.640625 0.234375 1.140625 0.71875l-0.9375 1.875zm-0.265625 0q0 0 0.015625 0q0.03125 0 0.09375 0.046875q0.0625 0.03125 0.109375 0.046875l-0.015625 0.03125l-0.1875 -0.09375l-0.015625 -0.03125zm0.265625 0q0.0625 0.09375 0.0625 0.125q0 0 -0.015625 0q-0.03125 0 -0.09375 -0.03125l0.046875 -0.09375zm5.96875 -2.921875q1.71875 0 2.75 0.859375q1.046875 0.84375 1.046875 2.828125l0 5.296875l-2.0 0l0 -0.78125q-0.5 0.46875 -1.203125 0.75q-0.703125 0.265625 -1.515625 0.265625q-1.359375 0 -2.078125 -0.671875q-0.703125 -0.671875 -0.703125 -1.828125q0 -0.921875 0.578125 -1.578125q0.59375 -0.65625 1.703125 -1.0q1.109375 -0.34375 2.640625 -0.34375l0.640625 0q-0.09375 -1.140625 -0.5625 -1.625q-0.453125 -0.484375 -1.40625 -0.484375q-0.59375 0 -1.25 0.3125q-0.640625 0.3125 -1.1875 0.875l-1.0625 -1.375q0.8125 -0.734375 1.75 -1.109375q0.953125 -0.390625 1.859375 -0.390625zm-0.25 7.625q0.921875 0 1.453125 -0.578125q0.546875 -0.59375 0.65625 -1.859375l-0.421875 0q-1.59375 0 -2.34375 0.359375q-0.734375 0.34375 -0.734375 1.09375q0 0.5 0.359375 0.75q0.375 0.234375 1.03125 0.234375zm13.609375 0.578125q-0.671875 0.515625 -1.40625 0.78125q-0.734375 0.265625 -1.59375 0.265625q-1.359375 0 -2.078125 -0.796875q-0.71875 -0.8125 -0.71875 -2.765625q0 -0.5 0.046875 -1.109375l0.15625 -2.609375l-1.875 0l0.03125 -1.6875l1.953125 0l0.109375 -2.046875l2.296875 -0.375l0.046875 0.203125q-0.03125 0.03125 -0.109375 0.140625q-0.0625 0.09375 -0.109375 0.234375q-0.046875 0.140625 -0.046875 0.328125l-0.140625 1.515625l2.671875 0l-0.03125 1.6875l-2.671875 0l-0.203125 2.484375q-0.046875 0.625 -0.046875 1.015625q0 1.15625 0.28125 1.625q0.28125 0.453125 0.890625 0.453125q0.5625 0 1.03125 -0.21875q0.484375 -0.21875 1.078125 -0.734375l0.4375 1.609375zm5.53125 1.078125q-1.15625 0 -2.109375 -0.59375q-0.953125 -0.59375 -1.5 -1.640625q-0.546875 -1.0625 -0.546875 -2.40625q0 -1.265625 0.5625 -2.3125q0.5625 -1.046875 1.5 -1.640625q0.953125 -0.609375 2.09375 -0.609375q1.125 0 2.078125 0.609375q0.953125 0.59375 1.5 1.640625q0.5625 1.046875 0.5625 2.3125q0 1.34375 -0.546875 2.40625q-0.546875 1.046875 -1.5 1.640625q-0.9375 0.59375 -2.09375 0.59375zm0 -1.6875q0.609375 0 1.0625 -0.359375q0.46875 -0.375 0.71875 -1.046875q0.25 -0.671875 0.25 -1.546875q0 -0.890625 -0.25 -1.53125q-0.25 -0.65625 -0.71875 -1.0q-0.453125 -0.34375 -1.0625 -0.34375q-0.59375 0 -1.046875 0.34375q-0.453125 0.34375 -0.703125 1.0q-0.25 0.640625 -0.25 1.53125q0 0.890625 0.234375 1.5625q0.25 0.671875 0.6875 1.03125q0.453125 0.359375 1.078125 0.359375zm12.453125 -4.671875l0 -0.015625q-0.359375 -0.5625 -0.765625 -0.796875q-0.390625 -0.25 -0.921875 -0.25q-0.671875 0 -1.21875 0.3125q-0.53125 0.3125 -0.84375 0.90625q-0.296875 0.578125 -0.296875 1.34375l0 4.5625l-2.109375 0l0 -8.703125l2.15625 0l0 1.25q0.34375 -0.6875 1.015625 -1.0625q0.671875 -0.390625 1.5 -0.390625q0.640625 0 1.28125 0.25q0.640625 0.234375 1.140625 0.71875l-0.9375 1.875zm-0.265625 0q0 0 0.015625 0q0.03125 0 0.09375 0.046875q0.0625 0.03125 0.109375 0.046875l-0.015625 0.03125l-0.1875 -0.09375l-0.015625 -0.03125zm0.265625 0q0.0625 0.09375 0.0625 0.125q0 0 -0.015625 0q-0.03125 0 -0.09375 -0.03125l0.046875 -0.09375zm7.03125 0.859375q1.078125 0.328125 1.6875 0.671875q0.609375 0.328125 0.890625 0.796875q0.28125 0.453125 0.28125 1.15625q0 0.75 -0.453125 1.421875q-0.4375 0.65625 -1.234375 1.0625q-0.78125 0.390625 -1.734375 0.390625q-1.3125 0 -2.296875 -0.34375q-0.96875 -0.359375 -1.78125 -1.125l0.875 -1.53125l0.015625 -0.015625l0.015625 0.015625q0.625 0.6875 1.375 1.0q0.75 0.3125 1.8125 0.3125q1.484375 0 1.484375 -0.984375q0 -0.296875 -0.1875 -0.515625q-0.171875 -0.21875 -0.578125 -0.390625q-0.390625 -0.1875 -1.09375 -0.390625q-1.5 -0.390625 -2.34375 -0.984375q-0.828125 -0.59375 -0.828125 -1.640625q0 -0.765625 0.40625 -1.34375q0.40625 -0.59375 1.15625 -0.921875q0.765625 -0.34375 1.78125 -0.34375q1.03125 0 1.875 0.34375q0.84375 0.328125 1.546875 1.015625l-1.0625 1.46875l0 0.015625q-0.015625 0 -0.015625 0q0 -0.015625 0 -0.015625q-0.375 -0.546875 -0.984375 -0.84375q-0.609375 -0.296875 -1.3125 -0.296875q-0.5625 0 -0.9375 0.1875q-0.375 0.1875 -0.375 0.515625q0 0.296875 0.203125 0.515625q0.21875 0.21875 0.625 0.390625q0.421875 0.171875 1.1875 0.40625zm1.359375 -0.875q0 -0.03125 0.015625 -0.03125q0.03125 0 0.09375 0.046875q0.0625 0.046875 0.09375 0.0625l-0.03125 0.046875l-0.171875 -0.109375l0 -0.015625zm0.25 0.015625q0.0625 0.09375 0.0625 0.125q0 0 -0.046875 -0.015625q-0.03125 -0.015625 -0.0625 -0.046875l0.046875 -0.0625zm-5.109375 3.34375q0 0.015625 -0.015625 0.015625q-0.015625 0 -0.09375 -0.03125q-0.0625 -0.03125 -0.109375 -0.046875l0.03125 -0.0625l0.1875 0.109375l0 0.015625zm-0.25 0q-0.078125 -0.078125 -0.078125 -0.109375q0 0 0 0q0 0 0 0l0.109375 0.046875l-0.03125 0.0625z" fill-rule="nonzero"/><path fill="#000000" fill-opacity="0.0" d="m130.5433 44.6168c60.645676 0 121.291336 29.338585 121.291336 58.677162" fill-rule="evenodd"/><path stroke="#000000" stroke-width="1.0" stroke-linejoin="round" stroke-linecap="butt" d="m130.5433 44.6168c30.32283 0 60.645676 7.3346443 83.3878 18.336613c11.371063 5.500988 20.84694 11.918797 27.480072 18.795033c3.3165588 3.4381104 5.9224243 6.9908295 7.6991425 10.600853c0.44418335 0.9025116 0.83654785 1.8085938 1.1752319 2.717369c0.1693573 0.45438385 0.3252716 0.9094391 0.4675598 1.3650589c0.071136475 0.22780609 0.13887024 0.4557495 0.20315552 0.68383026l0.06413269 0.23391724" fill-rule="evenodd"/><path fill="#000000" stroke="#000000" stroke-width="1.0" stroke-linecap="butt" d="m249.38396 97.57362l2.252304 4.271965l1.0205994 -4.7202682z" fill-rule="evenodd"/></g></svg>