<?xml version="1.0" standalone="yes"?>

<svg version="1.1" viewBox="0.0 0.0 237.6981627296588 248.77165354330708" fill="none" stroke="none" stroke-linecap="square" stroke-miterlimit="10" xmlns="http://www.w3.org/2000/svg" xmlns:xlink="http://www.w3.org/1999/xlink"><clipPath id="p.0"><path d="m0 0l237.69817 0l0 248.77165l-237.69817 0l0 -248.77165z" clip-rule="nonzero"></path></clipPath><g clip-path="url(#p.0)"><path fill="#000000" fill-opacity="0.0" d="m0 0l237.69817 0l0 248.77165l-237.69817 0z" fill-rule="evenodd"></path><path fill="#9fc5e8" d="m68.15748 125.65065l0 0c0 -30.510475 24.733627 -55.244095 55.244095 -55.244095l0 0c14.651649 0 28.703194 5.820343 39.06347 16.180618c10.360291 10.360275 16.180634 24.411827 16.180634 39.063477l0 0c0 30.510468 -24.733627 55.244095 -55.244102 55.244095l0 0c-30.510468 0 -55.244095 -24.733627 -55.244095 -55.244095z" fill-rule="evenodd"></path><path stroke="#3d85c6" stroke-width="1.0" stroke-linejoin="round" stroke-linecap="butt" d="m68.15748 125.65065l0 0c0 -30.510475 24.733627 -55.244095 55.244095 -55.244095l0 0c14.651649 0 28.703194 5.820343 39.06347 16.180618c10.360291 10.360275 16.180634 24.411827 16.180634 39.063477l0 0c0 30.510468 -24.733627 55.244095 -55.244102 55.244095l0 0c-30.510468 0 -55.244095 -24.733627 -55.244095 -55.244095z" fill-rule="evenodd"></path><path fill="#000000" fill-opacity="0.0" d="m0 -6.5721784l246.80315 0l0 48.0l-246.80315 0z" fill-rule="evenodd"></path><path fill="#38761d" d="m24.651573 18.332195l0 -3.265626l-3.09375 0l0 -1.59375l3.09375 0l0 -2.984375l1.8125 0l0 2.984375l2.984375 0l0 1.59375l-2.984375 0l0 3.265626l-1.8125 0z" fill-rule="nonzero"></path><path fill="#38761d" d="m41.88595 22.00407l0 -14.15625l5.34375 0l0 1.1249995l-4.140625 0l0 11.968751l4.15625 0l0 1.0625l-5.359375 0zm8.234375 -10.187501l1.3125 0l0 1.515625q0.5 -0.78125 1.265625 -1.25q0.765625 -0.46875 1.625 -0.46875q1.125 0 1.8125 0.875q0.6875 0.859375 0.6875 2.6875l0 5.171876l-1.3125 0l0 -5.125001q0 -1.28125 -0.4375 -1.859375q-0.421875 -0.578125 -1.125 -0.578125q-0.578125 0 -1.171875 0.34375q-0.578125 0.328125 -0.96875 0.9375q-0.375 0.609375 -0.375 1.375l0 4.906251l-1.3125 0l0 -8.531251zm12.53125 -0.1875q1.828125 0 2.78125 0.953125q0.96875 0.953125 0.96875 3.234375l0 4.531251l-1.453125 0l0 -1.3125q-0.78125 1.515625 -2.90625 1.515625q-1.421875 0 -2.21875 -0.640625q-0.796875 -0.640625 -0.796875 -1.703125q0 -0.90625 0.578125 -1.578125q0.578125 -0.67187595 1.546875 -1.031251q0.984375 -0.359375 2.15625 -0.359375q1.0625 0 1.921875 0.109375q-0.109375 -1.4375 -0.75 -2.015625q-0.640625 -0.59375 -1.921875 -0.59375q-0.625 0 -1.21875 0.25q-0.578125 0.234375 -1.0625 0.703125l-0.65625 -0.859375q1.1875 -1.203125 3.03125 -1.203125zm-0.484375 7.890626q1.390625 0 2.1875 -0.796875q0.796875 -0.8125 0.875 -2.34375q-0.84375 -0.140625 -1.8125 -0.140625q-1.40625 0 -2.234375 0.46875q-0.828125 0.46875 -0.828125 1.421875q0 1.390625 1.8125 1.390625zm5.96875 -7.703126l1.234375 0l0 0.84375q0.296875 -0.46875 0.765625 -0.75q0.46875 -0.296875 0.96875 -0.296875q0.5625 0 0.984375 0.359375q0.421875 0.359375 0.53125 0.890625q0.234375 -0.5625 0.75 -0.90625q0.53125 -0.34375 1.171875 -0.34375q0.84375 0 1.25 0.609375q0.421875 0.609375 0.390625 1.578125l0 6.546876l-1.234375 0l0 -6.046876q0 -1.0625 -0.203125 -1.375q-0.203125 -0.328125 -0.59375 -0.328125q-0.34375 0 -0.65625 0.328125q-0.3125 0.3125 -0.515625 0.8125q-0.1875 0.484375 -0.1875 0.96875l0 5.640626l-1.25 0l0 -5.937501q0 -1.046875 -0.203125 -1.40625q-0.1875 -0.359375 -0.734375 -0.359375q-0.28125 0 -0.578125 0.25q-0.28125 0.25 -0.46875 0.71875q-0.1875 0.453125 -0.1875 1.046875l0 5.687501l-1.234375 0l0 -8.531251zm13.703125 8.718751q-1.90625 0 -3.03125 -1.15625q-1.125 -1.15625 -1.125 -3.265625q0 -1.406251 0.515625 -2.421876q0.515625 -1.015625 1.40625 -1.546875q0.890625 -0.53125 1.984375 -0.53125q1.546875 0 2.5 1.03125q0.96875 1.03125 0.96875 3.015625q0 0.203125 -0.03125 0.62500095l-6.0625 0q0.078125 1.5625 0.875 2.375q0.796875 0.796875 2.03125 0.796875q1.34375 0 2.203125 -0.953125l0.75 0.71875q-1.078125 1.3125 -2.984375 1.3125zm1.859375 -5.296876q0 -1.203125 -0.609375 -1.890625q-0.59375 -0.703125 -1.59375 -0.703125q-0.921875 0 -1.625 0.65625q-0.6875 0.640625 -0.859375 1.9375l4.6875 0zm6.828125 -0.640625q-0.421875 0 -0.765625 -0.3125q-0.328125 -0.3125 -0.328125 -0.75q0 -0.4375 0.328125 -0.75q0.328125 -0.328125 0.765625 -0.328125q0.453125 0 0.78125 0.328125q0.34375 0.3125 0.34375 0.75q0 0.4375 -0.34375 0.75q-0.328125 0.3125 -0.78125 0.3125zm0 5.953126q-0.46875 0 -0.78125 -0.296875q-0.3125 -0.3125 -0.3125 -0.765625q0 -0.453125 0.328125 -0.765625q0.328125 -0.3125 0.765625 -0.3125q0.453125 0 0.78125 0.3125q0.34375 0.3125 0.34375 0.765625q0 0.4375 -0.328125 0.75q-0.328125 0.3125 -0.796875 0.3125zm15.109375 -11.828126l3.3125 0q1.9375 0 2.890625 0.765625q0.96875 0.75 0.96875 2.046875q0 0.859375 -0.46875 1.578125q-0.453125 0.71875 -1.25 1.0q0.96875 0.34375 1.578125 1.171875q0.609375 0.82812595 0.609375 1.796876q0 1.53125 -1.09375 2.40625q-1.078125 0.859375 -3.265625 0.859375l-3.28125 0l0 -11.625001zm3.125 4.8125q2.734375 0 2.734375 -1.84375q0 -0.84375 -0.625 -1.34375q-0.609375 -0.515625 -1.90625 -0.515625l-2.03125 0l0 3.703125l1.828125 0zm0.390625 5.671876q2.734375 0 2.734375 -2.203125q0 -2.359376 -3.0625 -2.359376l-1.890625 0l0 4.562501l2.21875 0zm9.59375 1.296875q-1.140625 0 -2.046875 -0.5625q-0.890625 -0.5625 -1.390625 -1.5625q-0.5 -1.015625 -0.5 -2.296875q0 -1.296876 0.5 -2.296876q0.5 -1.015625 1.390625 -1.578125q0.90625 -0.578125 2.046875 -0.578125q1.125 0 2.015625 0.578125q0.90625 0.5625 1.40625 1.578125q0.5 1.0 0.5 2.296876q0 1.28125 -0.5 2.296875q-0.5 1.0 -1.40625 1.5625q-0.890625 0.5625 -2.015625 0.5625zm0 -1.125q0.71875 0 1.28125 -0.421875q0.578125 -0.4375 0.90625 -1.1875q0.328125 -0.765625 0.328125 -1.71875q0 -1.453126 -0.71875 -2.375001q-0.703125 -0.921875 -1.796875 -0.921875q-1.109375 0 -1.828125 0.921875q-0.703125 0.921875 -0.703125 2.375001q0 0.953125 0.328125 1.71875q0.328125 0.75 0.890625 1.1875q0.578125 0.421875 1.3125 0.421875zm9.625008 1.171875q-0.7656326 0 -1.4218826 -0.34375q-0.65625 -0.34375 -1.109375 -0.984375l-0.453125 1.125l-0.859375 0l0 -12.40625l1.53125 0l0 0.12499952q-0.125 0.125 -0.15625 0.25q-0.015625 0.125 -0.015625 0.453125l0 4.359375q0.40625 -0.6875 1.109375 -1.09375q0.703125 -0.421875 1.4218826 -0.421875q1.609375 0 2.5625 1.125q0.953125 1.109375 0.953125 3.265626q0 1.453125 -0.515625 2.484375q-0.5 1.03125 -1.328125 1.546875q-0.8125 0.515625 -1.71875 0.515625zm-0.171875 -1.1875q1.0 0 1.671875 -0.796875q0.671875 -0.796875 0.671875 -2.484375q0 -1.640626 -0.625 -2.468751q-0.625 -0.84375 -1.6875 -0.84375q-1.0468826 0 -1.7031326 0.9375q-0.640625 0.9375 -0.640625 2.406251q0 3.25 2.3125076 3.25zm7.609375 3.5625q0.515625 -0.484375 0.859375 -1.046875q0.359375 -0.5625 0.359375 -0.921875q0 -0.15625 -0.09375 -0.28125q-0.09375 -0.109375 -0.34375 -0.328125q-0.265625 -0.25 -0.390625 -0.40625q-0.125 -0.171875 -0.125 -0.421875q0 -0.453125 0.296875 -0.765625q0.3125 -0.328125 0.796875 -0.328125q0.5 0 0.875 0.4375q0.390625 0.4375 0.390625 1.109375q0 1.453125 -1.984375 3.515625l-0.640625 -0.5625zm20.125 -11.296876q1.828125 0 2.78125 0.953125q0.96875 0.953125 0.96875 3.234375l0 4.531251l-1.453125 0l0 -1.3125q-0.78125 1.515625 -2.90625 1.515625q-1.421875 0 -2.21875 -0.640625q-0.796875 -0.640625 -0.796875 -1.703125q0 -0.90625 0.578125 -1.578125q0.578125 -0.67187595 1.546875 -1.031251q0.984375 -0.359375 2.15625 -0.359375q1.0625 0 1.921875 0.109375q-0.109375 -1.4375 -0.75 -2.015625q-0.640625 -0.59375 -1.921875 -0.59375q-0.625 0 -1.21875 0.25q-0.578125 0.234375 -1.0625 0.703125l-0.65625 -0.859375q1.1875 -1.203125 3.03125 -1.203125zm-0.484375 7.890626q1.390625 0 2.1875 -0.796875q0.796875 -0.8125 0.875 -2.34375q-0.84375 -0.140625 -1.8125 -0.140625q-1.40625 0 -2.234375 0.46875q-0.828125 0.46875 -0.828125 1.421875q0 1.390625 1.8125 1.390625zm14.125 -6.828126q-0.171875 -0.015625 -0.484375 -0.015625q-0.890625 0 -1.484375 0.390625q0.3125 0.640625 0.3125 1.40625q0 0.84375 -0.375 1.531251q-0.359375 0.671875 -1.046875 1.0625q-0.671875 0.390625 -1.5625 0.390625q-0.71875 0 -1.328125 -0.265625q-0.328125 0.40625 -0.328125 0.78125q0 0.453125 0.5625 0.65625q0.5625 0.1875 2.046875 0.1875q1.8125 0 2.46875 0.5625q0.65625 0.546875 0.65625 1.609375q0 1.09375 -0.890625 1.828125q-0.890625 0.734375 -2.796875 0.734375q-1.828125 0 -2.875 -0.5625q-1.03125 -0.546875 -1.03125 -1.640625q0 -0.671875 0.375 -1.15625q0.375 -0.484375 0.953125 -0.765625q-0.609375 -0.40625 -0.609375 -1.125q0 -0.75 0.765625 -1.578125q-0.46875 -0.40625 -0.71875 -0.98437595q-0.234375 -0.578125 -0.234375 -1.265625q0 -0.828125 0.359375 -1.5q0.359375 -0.6875 1.046875 -1.078125q0.6875 -0.390625 1.578125 -0.390625q1.359375 0 2.1875 0.875q0.4375 -0.40625 0.90625 -0.59375q0.484375 -0.203125 1.0625 -0.203125l0.3125 0.015625l0.171875 1.09375zm-4.640625 3.640626q0.796875 0 1.328125 -0.53125095q0.53125 -0.546875 0.53125 -1.328125q0 -0.78125 -0.53125 -1.328125q-0.53125 -0.546875 -1.328125 -0.546875q-0.796875 0 -1.34375 0.546875q-0.53125 0.546875 -0.53125 1.328125q0 0.78125 0.53125 1.328125q0.546875 0.53125095 1.34375 0.53125095zm2.859375 4.859375q0 -0.453125 -0.171875 -0.703125q-0.15625 -0.25 -0.625 -0.375q-0.453125 -0.125 -1.390625 -0.125q-1.34375 0 -2.140625 -0.234375q-0.453125 0.296875 -0.640625 0.609375q-0.171875 0.3125 -0.171875 0.84375q0 0.640625 0.703125 0.984375q0.71875 0.359375 1.984375 0.359375q1.234375 0 1.84375 -0.375q0.609375 -0.359375 0.609375 -0.984375zm7.328125 -0.65625q-1.90625 0 -3.03125 -1.15625q-1.125 -1.15625 -1.125 -3.265625q0 -1.406251 0.515625 -2.421876q0.515625 -1.015625 1.40625 -1.546875q0.890625 -0.53125 1.984375 -0.53125q1.546875 0 2.5 1.03125q0.96875 1.03125 0.96875 3.015625q0 0.203125 -0.03125 0.62500095l-6.0625 0q0.078125 1.5625 0.875 2.375q0.796875 0.796875 2.03125 0.796875q1.34375 0 2.203125 -0.953125l0.75 0.71875q-1.078125 1.3125 -2.984375 1.3125zm1.859375 -5.296876q0 -1.203125 -0.609375 -1.890625q-0.59375 -0.703125 -1.59375 -0.703125q-0.921875 0 -1.625 0.65625q-0.6875 0.640625 -0.859375 1.9375l4.6875 0zm6.828125 -0.640625q-0.421875 0 -0.765625 -0.3125q-0.328125 -0.3125 -0.328125 -0.75q0 -0.4375 0.328125 -0.75q0.328125 -0.328125 0.765625 -0.328125q0.453125 0 0.78125 0.328125q0.34375 0.3125 0.34375 0.75q0 0.4375 -0.34375 0.75q-0.328125 0.3125 -0.78125 0.3125zm0 5.953126q-0.46875 0 -0.78125 -0.296875q-0.3125 -0.3125 -0.3125 -0.765625q0 -0.453125 0.328125 -0.765625q0.328125 -0.3125 0.765625 -0.3125q0.453125 0 0.78125 0.3125q0.34375 0.3125 0.34375 0.765625q0 0.4375 -0.328125 0.75q-0.328125 0.3125 -0.796875 0.3125zm18.515625 -0.203125l0 -10.015626l-2.359375 0.6875l-0.296875 -0.734375l3.046875 -1.578125l0.90625 0l0 11.640626l-1.296875 0zm9.703125 -11.703126q1.703125 0 2.640625 1.59375q0.953125 1.578125 0.953125 4.359375q0 2.859376 -0.9375 4.406251q-0.921875 1.546875 -2.65625 1.546875q-1.75 0 -2.6875 -1.546875q-0.921875 -1.546875 -0.921875 -4.406251q0 -2.78125 0.9375 -4.359375q0.953125 -1.59375 2.671875 -1.59375zm0 1.140625q-1.078125 0 -1.671875 1.296875q-0.59375 1.296875 -0.59375 3.515625q0 1.21875 0.171875 2.156251l3.953125 -5.125001q-0.28125 -0.890625 -0.765625 -1.359375q-0.46875 -0.484375 -1.09375 -0.484375zm0 9.625001q1.0625 0 1.65625 -1.25q0.59375 -1.25 0.59375 -3.562501q0 -1.078125 -0.125 -1.859375l-3.96875 5.031251q0.609375 1.640625 1.84375 1.640625zm12.453125 2.59375l-5.359375 0l0 -1.0625l4.171875 0l0 -11.968751l-4.140625 0l0 -1.1249995l5.328125 0l0 14.15625z" fill-rule="nonzero"></path><path fill="#000000" fill-opacity="0.0" d="m52.07874 209.87401l142.64568 0l0 48.000015l-142.64568 0z" fill-rule="evenodd"></path><path fill="#38761d" d="m66.628136 234.77838l0 -3.265625l-3.09375 0l0 -1.59375l3.09375 0l0 -2.984375l1.8125 0l0 2.984375l2.984375 0l0 1.59375l-2.984375 0l0 3.265625l-1.8125 0z" fill-rule="nonzero"></path><path fill="#38761d" d="m83.86251 238.45026l0 -14.15625l5.34375 0l0 1.125l-4.140625 0l0 11.96875l4.15625 0l0 1.0625l-5.359375 0zm8.234375 -10.1875l1.3125 0l0 1.515625q0.5 -0.78125 1.265625 -1.25q0.765625 -0.46875 1.625 -0.46875q1.125 0 1.8125 0.875q0.6875 0.859375 0.6875 2.6875l0 5.171875l-1.3125 0l0 -5.125q0 -1.28125 -0.4375 -1.859375q-0.421875 -0.578125 -1.125 -0.578125q-0.578125 0 -1.171875 0.34375q-0.578125 0.328125 -0.96875 0.9375q-0.375 0.609375 -0.375 1.375l0 4.90625l-1.3125 0l0 -8.53125zm12.53125 -0.1875q1.828125 0 2.78125 0.953125q0.96875 0.953125 0.96875 3.234375l0 4.53125l-1.453125 0l0 -1.3125q-0.78125 1.515625 -2.90625 1.515625q-1.421875 0 -2.21875 -0.640625q-0.796875 -0.640625 -0.796875 -1.703125q0 -0.90625 0.578125 -1.578125q0.578125 -0.671875 1.546875 -1.03125q0.984375 -0.359375 2.15625 -0.359375q1.0625 0 1.921875 0.109375q-0.109375 -1.4375 -0.75 -2.015625q-0.640625 -0.59375 -1.921875 -0.59375q-0.625 0 -1.21875 0.25q-0.578125 0.234375 -1.0625 0.703125l-0.65625 -0.859375q1.1875 -1.203125 3.03125 -1.203125zm-0.484375 7.890625q1.390625 0 2.1875 -0.796875q0.796875 -0.8125 0.875 -2.34375q-0.84375 -0.140625 -1.8125 -0.140625q-1.40625 0 -2.234375 0.46875q-0.828125 0.46875 -0.828125 1.421875q0 1.390625 1.8125 1.390625zm5.96875 -7.703125l1.234375 0l0 0.84375q0.296875 -0.46875 0.765625 -0.75q0.46875 -0.296875 0.96875 -0.296875q0.5625 0 0.984375 0.359375q0.421875 0.359375 0.53125 0.890625q0.234375 -0.5625 0.75 -0.90625q0.53125 -0.34375 1.171875 -0.34375q0.84375 0 1.25 0.609375q0.421875 0.609375 0.390625 1.578125l0 6.546875l-1.234375 0l0 -6.046875q0 -1.0625 -0.203125 -1.375q-0.203125 -0.328125 -0.59375 -0.328125q-0.34375 0 -0.65625 0.328125q-0.3125 0.3125 -0.515625 0.8125q-0.1875 0.484375 -0.1875 0.96875l0 5.640625l-1.25 0l0 -5.9375q0 -1.046875 -0.203125 -1.40625q-0.1875 -0.359375 -0.734375 -0.359375q-0.28125 0 -0.578125 0.25q-0.28125 0.25 -0.46875 0.71875q-0.1875 0.453125 -0.1875 1.046875l0 5.6875l-1.234375 0l0 -8.53125zm13.703125 8.71875q-1.90625 0 -3.03125 -1.15625q-1.125 -1.15625 -1.125 -3.265625q0 -1.40625 0.515625 -2.421875q0.515625 -1.015625 1.40625 -1.546875q0.890625 -0.53125 1.984375 -0.53125q1.546875 0 2.5 1.03125q0.96875 1.03125 0.96875 3.015625q0 0.203125 -0.03125 0.625l-6.0625 0q0.078125 1.5625 0.875 2.375q0.796875 0.796875 2.03125 0.796875q1.34375 0 2.203125 -0.953125l0.75 0.71875q-1.078125 1.3125 -2.984375 1.3125zm1.859375 -5.296875q0 -1.203125 -0.609375 -1.890625q-0.59375 -0.703125 -1.59375 -0.703125q-0.921875 0 -1.625 0.65625q-0.6875 0.640625 -0.859375 1.9375l4.6875 0zm6.8281174 -0.640625q-0.421875 0 -0.765625 -0.3125q-0.328125 -0.3125 -0.328125 -0.75q0 -0.4375 0.328125 -0.75q0.328125 -0.328125 0.765625 -0.328125q0.453125 0 0.78125 0.328125q0.34375 0.3125 0.34375 0.75q0 0.4375 -0.34375 0.75q-0.328125 0.3125 -0.78125 0.3125zm0 5.953125q-0.46875 0 -0.78125 -0.296875q-0.3125 -0.3125 -0.3125 -0.765625q0 -0.453125 0.328125 -0.765625q0.328125 -0.3125 0.765625 -0.3125q0.453125 0 0.78125 0.3125q0.34375 0.3125 0.34375 0.765625q0 0.4375 -0.328125 0.75q-0.328125 0.3125 -0.796875 0.3125zm15.109375 -11.828125l3.3125 0q1.9375 0 2.890625 0.765625q0.96875 0.75 0.96875 2.046875q0 0.859375 -0.46875 1.578125q-0.453125 0.71875 -1.25 1.0q0.96875 0.34375 1.578125 1.171875q0.609375 0.828125 0.609375 1.796875q0 1.53125 -1.09375 2.40625q-1.078125 0.859375 -3.265625 0.859375l-3.28125 0l0 -11.625zm3.125 4.8125q2.734375 0 2.734375 -1.84375q0 -0.84375 -0.625 -1.34375q-0.609375 -0.515625 -1.90625 -0.515625l-2.03125 0l0 3.703125l1.828125 0zm0.390625 5.671875q2.734375 0 2.734375 -2.203125q0 -2.359375 -3.0625 -2.359375l-1.890625 0l0 4.5625l2.21875 0zm9.59375 1.296875q-1.140625 0 -2.046875 -0.5625q-0.890625 -0.5625 -1.390625 -1.5625q-0.5 -1.015625 -0.5 -2.296875q0 -1.296875 0.5 -2.296875q0.5 -1.015625 1.390625 -1.578125q0.90625 -0.578125 2.046875 -0.578125q1.125 0 2.015625 0.578125q0.90625 0.5625 1.40625 1.578125q0.5 1.0 0.5 2.296875q0 1.28125 -0.5 2.296875q-0.5 1.0 -1.40625 1.5625q-0.890625 0.5625 -2.015625 0.5625zm0 -1.125q0.71875 0 1.28125 -0.421875q0.578125 -0.4375 0.90625 -1.1875q0.328125 -0.765625 0.328125 -1.71875q0 -1.453125 -0.71875 -2.375q-0.703125 -0.921875 -1.796875 -0.921875q-1.109375 0 -1.828125 0.921875q-0.703125 0.921875 -0.703125 2.375q0 0.953125 0.328125 1.71875q0.328125 0.75 0.890625 1.1875q0.578125 0.421875 1.3125 0.421875zm9.625 1.171875q-0.765625 0 -1.421875 -0.34375q-0.65625 -0.34375 -1.109375 -0.984375l-0.453125 1.125l-0.859375 0l0 -12.40625l1.53125 0l0 0.125q-0.125 0.125 -0.15625 0.25q-0.015625 0.125 -0.015625 0.453125l0 4.359375q0.40625 -0.6875 1.109375 -1.09375q0.703125 -0.421875 1.421875 -0.421875q1.609375 0 2.5625 1.125q0.953125 1.109375 0.953125 3.265625q0 1.453125 -0.515625 2.484375q-0.5 1.03125 -1.328125 1.546875q-0.8125 0.515625 -1.71875 0.515625zm-0.171875 -1.1875q1.0 0 1.671875 -0.796875q0.671875 -0.796875 0.671875 -2.484375q0 -1.640625 -0.625 -2.46875q-0.625 -0.84375 -1.6875 -0.84375q-1.046875 0 -1.703125 0.9375q-0.640625 0.9375 -0.640625 2.40625q0 3.25 2.3125 3.25zm12.328125 2.640625l-5.359375 0l0 -1.0625l4.171875 0l0 -11.96875l-4.140625 0l0 -1.125l5.328125 0l0 14.15625z" fill-rule="nonzero"></path><path fill="#000000" fill-opacity="0.0" d="m73.43307 96.21785l99.937004 0l0 48.0l-99.937004 0z" fill-rule="evenodd"></path><path fill="#351c75" d="m90.27491 134.06348q-1.0 0 -1.65625 -0.5625q-0.640625 -0.546875 -0.640625 -1.546875q0 -1.0625 0.640625 -1.5625q0.65625 -0.5 1.328125 -0.5q1.046875 0 1.8125 0.71875q1.828125 -0.578125 2.359375 -5.5000076q0.53125 -4.921875 0.53125 -11.640625l0 -1.484375q-1.875 0 -2.9375 0.21875q-1.046875 0.21875 -2.296875 0.84375l-0.765625 -1.0625q2.59375 -3.265625 6.421875 -3.265625q3.265625 0 7.96875 0.578125q3.125 0.34375 4.46875 0.34375q1.296875 0 2.328125 -0.234375q1.03125 -0.25 2.328125 -0.875l0.8125 1.0q-1.765625 2.265625 -3.984375 3.03125l-0.046875 14.453125q0 2.3906326 0.5 3.4218826q0.515625 1.03125 1.5625 1.03125q0.78125 0 1.640625 -0.578125l0.578125 0.78125q-0.671875 0.90625 -1.953125 1.640625q-1.265625 0.75 -2.5625 0.75q-2.25 0 -3.09375 -1.5625q-0.84375 -1.5625 -0.84375 -3.421875l0.046875 -16.234383q-0.578125 -0.046875 -4.703125 -0.421875q-2.5 -0.296875 -3.5 -0.390625q0 6.4375 -0.203125 10.953125q-0.1875 4.5 -1.0 6.8593826q-0.71875 2.015625 -2.09375 3.125q-1.359375 1.09375 -3.046875 1.09375z" fill-rule="nonzero"></path><path fill="#351c75" d="m115.34821 142.7666q0.515625 0 0.734375 -0.25q0.21875 -0.265625 0.25 -0.640625q0.046875 -0.390625 0.0625 -1.28125l0.015625 -4.046875q0 -0.75 0.078125 -1.15625l-1.265625 0.078125l0 -0.75q1.046875 0 1.4375 -0.109375q0.390625 -0.125 0.65625 -0.375l0.515625 0q0.03125 0.34375 0.078125 1.078125q0.59375 -0.53125 1.359375 -0.859375q0.78125 -0.328125 1.53125 -0.328125q1.546875 0 2.25 0.96875q0.71875 0.96875 0.71875 3.015625l0 3.296875q0 0.8125 -0.078125 1.21875l1.125 -0.0625l0 0.734375l-3.625 0l0 -0.53125q0.515625 0 0.734375 -0.25q0.21875 -0.265625 0.265625 -0.65625q0.046875 -0.40625 0.046875 -1.265625l0 -2.484375q-0.015625 -1.53125 -0.5 -2.296875q-0.46875 -0.78125 -1.5 -0.78125q-0.640625 0 -1.28125 0.328125q-0.625 0.3125 -1.03125 0.828125q0.015625 0.203125 0.015625 0.703125l-0.015625 4.515625q0 0.8125 -0.078125 1.21875l1.125 -0.0625l0 0.734375l-3.625 0l0 -0.53125zm13.267891 0.8125q-1.296875 0 -1.984375 -0.578125q-0.671875 -0.59375 -0.671875 -1.53125q0 -1.03125 0.8125 -1.734375q0.828125 -0.71875 2.078125 -1.0625q1.265625 -0.34375 2.515625 -0.328125l0 -1.109375q0 -1.15625 -0.34375 -1.796875q-0.328125 -0.65625 -1.421875 -0.65625q-0.5625 0 -1.0625 0.234375q-0.484375 0.234375 -0.71875 0.703125q0.234375 0.234375 0.234375 0.671875q0 0.265625 -0.203125 0.5q-0.1875 0.234375 -0.5625 0.234375q-0.375 0 -0.59375 -0.234375q-0.203125 -0.234375 -0.203125 -0.625q0 -0.59375 0.453125 -1.078125q0.453125 -0.484375 1.25 -0.765625q0.8125 -0.296875 1.8125 -0.296875q1.484375 0 2.1875 0.796875q0.71875 0.796875 0.703125 2.5l-0.015625 3.984375q0 0.578125 -0.0625 1.21875l1.25 -0.078125l0 0.75l-2.53125 0q-0.0625 -0.265625 -0.125 -1.015625q-1.296875 1.296875 -2.796875 1.296875zm0.40625 -1.015625q0.6875 0 1.234375 -0.25q0.546875 -0.265625 1.109375 -0.796875q-0.015625 -0.265625 -0.015625 -0.90625l0.015625 -1.671875q-1.453125 0.0625 -2.59375 0.609375q-1.125 0.53125 -1.125 1.65625q0 0.65625 0.390625 1.015625q0.390625 0.34375 0.984375 0.34375zm6.276245 0.203125q0.515625 0 0.734375 -0.25q0.21875 -0.265625 0.265625 -0.65625q0.046875 -0.40625 0.046875 -1.265625l0 -4.046875q0 -0.75 0.078125 -1.15625l-1.265625 0.078125l0 -0.75q1.046875 0 1.4375 -0.109375q0.390625 -0.125 0.65625 -0.375l0.515625 0q0.03125 0.265625 0.078125 0.9375q0.546875 -0.46875 1.234375 -0.75q0.703125 -0.296875 1.375 -0.296875q0.859375 0 1.46875 0.3125q0.625 0.3125 0.96875 0.875q0.625 -0.5 1.421875 -0.84375q0.796875 -0.34375 1.515625 -0.34375q1.5625 0 2.28125 0.953125q0.71875 0.953125 0.6875 3.03125l-0.015625 3.296875q0 0.8125 -0.078125 1.21875l1.125 -0.0625l0 0.734375l-3.625 0l0 -0.53125q0.515625 0 0.734375 -0.25q0.234375 -0.265625 0.265625 -0.65625q0.046875 -0.40625 0.046875 -1.265625l0 -2.484375q0 -1.53125 -0.484375 -2.28125q-0.46875 -0.75 -1.5 -0.75q-0.546875 0 -1.109375 0.234375q-0.5625 0.234375 -0.984375 0.625q0.171875 0.5625 0.171875 1.296875l-0.03125 4.171875q0 0.8125 -0.078125 1.21875l1.125 -0.0625l0 0.734375l-3.625 0l0 -0.53125q0.515625 0 0.734375 -0.25q0.21875 -0.265625 0.25 -0.640625q0.046875 -0.390625 0.0625 -1.28125l0.015625 -2.484375q0.015625 -1.546875 -0.453125 -2.3125q-0.453125 -0.765625 -1.46875 -0.765625q-0.546875 0 -1.09375 0.234375q-0.53125 0.234375 -0.921875 0.625l0.015625 0.953125l0 4.5625q0 0.8125 -0.078125 1.21875l1.125 -0.0625l0 0.734375l-3.625 0l0 -0.53125zm20.179 0.8125q-1.21875 0 -2.203125 -0.578125q-0.984375 -0.578125 -1.5625 -1.640625q-0.5625 -1.078125 -0.5625 -2.484375q0 -1.25 0.5625 -2.34375q0.578125 -1.09375 1.59375 -1.75q1.015625 -0.65625 2.3125 -0.65625q1.015625 0 1.828125 0.453125q0.828125 0.4375 1.296875 1.328125q0.484375 0.875 0.484375 2.15625l-6.25 0.09375q-0.015625 2.140625 0.703125 3.328125q0.71875 1.1875 2.21875 1.1875q0.828125 0 1.6875 -0.421875q0.859375 -0.421875 1.328125 -1.046875l0.421875 0.359375q-0.671875 1.03125 -1.75 1.53125q-1.078125 0.484375 -2.109375 0.484375zm2.078125 -6.15625q0 -1.078125 -0.484375 -1.828125q-0.46875 -0.765625 -1.4375 -0.765625q-2.203125 0 -2.609375 2.59375l4.53125 0z" fill-rule="nonzero"></path><path fill="#000000" fill-opacity="0.0" d="m123.40157 34.78478l0 28.976376" fill-rule="evenodd"></path><path stroke="#000000" stroke-width="1.0" stroke-linejoin="round" stroke-linecap="butt" d="m123.40157 34.78478l0 22.976376" fill-rule="evenodd"></path><path fill="#000000" stroke="#000000" stroke-width="1.0" stroke-linecap="butt" d="m121.74984 57.761154l1.6517334 4.5380974l1.6517334 -4.5380974z" fill-rule="evenodd"></path><path fill="#000000" fill-opacity="0.0" d="m123.40157 189.01547l0 28.97638" fill-rule="evenodd"></path><path stroke="#000000" stroke-width="1.0" stroke-linejoin="round" stroke-linecap="butt" d="m123.40157 189.01549l0 22.976364" fill-rule="evenodd"></path><path fill="#000000" stroke="#000000" stroke-width="1.0" stroke-linecap="butt" d="m121.74984 211.99187l1.6517334 4.538086l1.6517334 -4.538086z" fill-rule="evenodd"></path></g></svg>

