<?xml version="1.0" standalone="yes"?>

<svg version="1.1" viewBox="0.0 0.0 683.1443569553805 651.3412073490814" fill="none" stroke="none" stroke-linecap="square" stroke-miterlimit="10" xmlns="http://www.w3.org/2000/svg" xmlns:xlink="http://www.w3.org/1999/xlink"><clipPath id="p.0"><path d="m0 0l683.14435 0l0 651.3412l-683.14435 0l0 -651.3412z" clip-rule="nonzero"></path></clipPath><g clip-path="url(#p.0)"><path fill="#000000" fill-opacity="0.0" d="m0 0l683.14435 0l0 651.3412l-683.14435 0z" fill-rule="evenodd"></path><path fill="#f6b26b" d="m8.795276 306.80316l0 0c0 -41.643158 33.758434 -75.40158 75.40158 -75.40158l0 0c19.997734 0 39.176422 7.9440613 53.316956 22.08461c14.140549 14.140518 22.08461 33.31923 22.08461 53.31697l0 0c0 41.643127 -33.75843 75.40155 -75.401566 75.40155l0 0c-41.643143 0 -75.40158 -33.758423 -75.40158 -75.40155z" fill-rule="evenodd"></path><path stroke="#bf9000" stroke-width="1.0" stroke-linejoin="round" stroke-linecap="butt" d="m8.795276 306.80316l0 0c0 -41.643158 33.758434 -75.40158 75.40158 -75.40158l0 0c19.997734 0 39.176422 7.9440613 53.316956 22.08461c14.140549 14.140518 22.08461 33.31923 22.08461 53.31697l0 0c0 41.643127 -33.75843 75.40155 -75.401566 75.40155l0 0c-41.643143 0 -75.40158 -33.758423 -75.40158 -75.40155z" fill-rule="evenodd"></path><path fill="#000000" d="m40.911137 313.11377q0.640625 -0.03125 0.921875 -0.296875q0.28125 -0.28125 0.3125 -0.65625q0.046875 -0.390625 0.046875 -1.34375l0 -8.0625q0 -0.78125 0.0625 -1.34375l-1.34375 0.078125l0 -0.828125l4.390625 -0.015625q3.515625 -0.015625 5.5625 1.640625q2.0625 1.65625 2.0625 4.921875q0 1.765625 -0.828125 3.265625q-0.8125 1.484375 -2.421875 2.375q-1.609375 0.875 -3.859375 0.875l-4.90625 0l0 -0.609375zm4.84375 -0.09375q1.5625 0 2.78125 -0.765625q1.21875 -0.765625 1.890625 -2.109375q0.671875 -1.34375 0.671875 -3.0q0 -2.734375 -1.5 -4.265625q-1.484375 -1.546875 -4.5 -1.546875q-0.640625 0 -0.921875 0.265625q-0.28125 0.265625 -0.328125 0.65625q-0.03125 0.375 -0.03125 1.3125l0 7.953125q0 0.96875 -0.0625 1.453125q0.65625 0.046875 2.0 0.046875zm13.4770355 1.0q-1.296875 0 -2.375 -0.609375q-1.0625 -0.609375 -1.6875 -1.6875q-0.625 -1.078125 -0.625 -2.4375q0 -1.453125 0.609375 -2.640625q0.625 -1.1875 1.6875 -1.859375q1.078125 -0.6875 2.390625 -0.6875q1.28125 0 2.359375 0.625q1.09375 0.625 1.71875 1.703125q0.625 1.078125 0.625 2.40625q0 1.421875 -0.625 2.625q-0.625 1.1875 -1.703125 1.875q-1.078125 0.6875 -2.375 0.6875zm0.140625 -0.75q1.359375 0 2.0 -1.109375q0.65625 -1.125 0.65625 -2.78125q0 -1.890625 -0.703125 -3.234375q-0.703125 -1.34375 -2.09375 -1.34375q-1.390625 0 -2.09375 1.140625q-0.6875 1.140625 -0.6875 2.796875q0 1.203125 0.328125 2.234375q0.328125 1.03125 0.984375 1.671875q0.65625 0.625 1.609375 0.625zm6.148281 -0.109375q0.53125 0 0.765625 -0.265625q0.234375 -0.265625 0.28125 -0.6875q0.046875 -0.421875 0.046875 -1.3125l0 -4.265625q0 -0.78125 0.078125 -1.203125l-1.328125 0.0625l0 -0.78125q1.09375 0 1.5 -0.109375q0.421875 -0.125 0.703125 -0.390625l0.546875 0q0.03125 0.28125 0.0625 0.984375q0.578125 -0.5 1.296875 -0.796875q0.734375 -0.296875 1.453125 -0.296875q0.90625 0 1.546875 0.328125q0.65625 0.328125 1.0 0.921875q0.671875 -0.546875 1.5 -0.890625q0.84375 -0.359375 1.609375 -0.359375q1.640625 0 2.390625 1.0q0.75 1.0 0.71875 3.171875l-0.015625 3.46875q0 0.84375 -0.078125 1.28125l1.171875 -0.0625l0 0.765625l-3.796875 0l0 -0.5625q0.53125 0 0.765625 -0.265625q0.234375 -0.265625 0.28125 -0.6875q0.046875 -0.421875 0.046875 -1.3125l0 -2.625q0 -1.59375 -0.5 -2.390625q-0.5 -0.796875 -1.59375 -0.796875q-0.578125 0 -1.171875 0.25q-0.578125 0.25 -1.03125 0.671875q0.1875 0.578125 0.1875 1.359375l-0.03125 4.375q0 0.84375 -0.078125 1.28125l1.171875 -0.0625l0 0.765625l-3.796875 0l0 -0.5625q0.546875 0 0.765625 -0.265625q0.234375 -0.265625 0.265625 -0.671875q0.046875 -0.40625 0.0625 -1.328125l0.03125 -2.625q0.015625 -1.625 -0.46875 -2.421875q-0.484375 -0.796875 -1.546875 -0.796875q-0.578125 0 -1.15625 0.25q-0.5625 0.234375 -0.984375 0.640625l0.03125 1.015625l0 4.78125q0 0.84375 -0.078125 1.28125l1.171875 -0.0625l0 0.765625l-3.796875 0l0 -0.5625zm19.28807 0.859375q-1.359375 0 -2.078125 -0.609375q-0.71875 -0.625 -0.71875 -1.609375q0 -1.078125 0.859375 -1.828125q0.875 -0.75 2.1875 -1.109375q1.3125 -0.359375 2.640625 -0.34375l0 -1.15625q0 -1.21875 -0.359375 -1.890625q-0.359375 -0.6875 -1.515625 -0.6875q-0.578125 0 -1.109375 0.25q-0.515625 0.234375 -0.75 0.71875q0.234375 0.265625 0.234375 0.71875q0 0.265625 -0.203125 0.53125q-0.203125 0.25 -0.59375 0.25q-0.390625 0 -0.625 -0.25q-0.21875 -0.265625 -0.21875 -0.671875q0 -0.609375 0.46875 -1.125q0.484375 -0.515625 1.328125 -0.8125q0.859375 -0.296875 1.90625 -0.296875q1.5625 0 2.3125 0.828125q0.75 0.828125 0.71875 2.625l-0.015625 4.1875q0 0.609375 -0.078125 1.28125l1.328125 -0.078125l0 0.78125l-2.65625 0q-0.0625 -0.28125 -0.140625 -1.0625q-1.359375 1.359375 -2.921875 1.359375zm0.421875 -1.0625q0.71875 0 1.296875 -0.265625q0.578125 -0.28125 1.171875 -0.828125q-0.015625 -0.28125 -0.015625 -0.953125l0.015625 -1.765625q-1.53125 0.0625 -2.734375 0.640625q-1.1875 0.5625 -1.1875 1.734375q0 0.6875 0.40625 1.0625q0.421875 0.375 1.046875 0.375zm8.439133 -10.59375q-0.390625 0 -0.703125 -0.328125q-0.296875 -0.328125 -0.296875 -0.78125q0 -0.4375 0.3125 -0.765625q0.3125 -0.34375 0.703125 -0.34375q0.421875 0 0.703125 0.328125q0.296875 0.328125 0.296875 0.78125q0 0.453125 -0.3125 0.78125q-0.296875 0.328125 -0.703125 0.328125zm-1.84375 10.796875q0.53125 0 0.765625 -0.265625q0.234375 -0.265625 0.28125 -0.6875q0.046875 -0.421875 0.046875 -1.3125l0 -4.265625q0 -0.53125 0.078125 -1.203125l-1.328125 0.0625l0 -0.78125q1.09375 0 1.5625 -0.125q0.484375 -0.125 0.75 -0.375l0.546875 0l0 7.53125q0 0.84375 -0.078125 1.28125l1.171875 -0.0625l0 0.765625l-3.796875 0l0 -0.5625zm5.242401 0q0.53125 0 0.765625 -0.265625q0.234375 -0.265625 0.265625 -0.671875q0.046875 -0.40625 0.0625 -1.328125l0.015625 -4.265625q0 -0.78125 0.078125 -1.203125l-1.328125 0.0625l0 -0.78125q1.109375 0 1.515625 -0.109375q0.40625 -0.125 0.6875 -0.390625l0.546875 0q0.03125 0.359375 0.0625 1.140625q0.640625 -0.5625 1.453125 -0.90625q0.8125 -0.34375 1.59375 -0.34375q1.625 0 2.359375 1.015625q0.75 1.015625 0.75 3.15625l0 3.46875q0 0.84375 -0.0625 1.28125l1.171875 -0.0625l0 0.765625l-3.8125 0l0 -0.5625q0.546875 0 0.78125 -0.265625q0.234375 -0.265625 0.28125 -0.6875q0.046875 -0.421875 0.046875 -1.3125l0 -2.625q-0.015625 -1.59375 -0.53125 -2.40625q-0.5 -0.8125 -1.578125 -0.8125q-0.671875 0 -1.34375 0.34375q-0.65625 0.328125 -1.078125 0.859375q0.015625 0.21875 0.015625 0.734375l-0.015625 4.75q0 0.84375 -0.078125 1.28125l1.171875 -0.0625l0 0.765625l-3.796875 0l0 -0.5625zm15.293442 -0.046875q0.46875 0 0.75 -0.21875q0.28125 -0.21875 0.453125 -0.5625q0.171875 -0.34375 0.421875 -1.03125l0.1875 -0.53125l3.84375 -10.453125l0.4375 0l4.171875 10.609375q0.203125 0.5 0.34375 1.09375q0.15625 0.578125 0.140625 0.953125l1.265625 -0.078125l0 0.828125l-4.28125 0l0 -0.609375q1.109375 -0.03125 1.109375 -0.90625q0 -0.34375 -0.1875 -0.875l-0.65625 -1.75l-4.84375 0.109375q-0.28125 0.765625 -0.65625 2.0q-0.1875 0.609375 -0.46875 1.28125l1.453125 -0.078125l0 0.828125l-3.484375 0l0 -0.609375zm7.734375 -4.21875l-1.3125 -3.5625l-0.84375 -2.296875l-0.046875 0l-0.78125 2.109375l-1.0 2.828125l-0.3125 0.921875l4.296875 0z" fill-rule="nonzero"></path><path fill="#9fc5e8" d="m239.9029 308.98425l0 0c0 -41.643127 33.758423 -75.40158 75.40158 -75.40158l0 0c19.997742 0 39.176422 7.9440765 53.316956 22.08461c14.140533 14.140549 22.084595 33.31923 22.084595 53.31697l0 0c0 41.643127 -33.758423 75.40158 -75.40155 75.40158l0 0c-41.643158 0 -75.40158 -33.758453 -75.40158 -75.40158z" fill-rule="evenodd"></path><path stroke="#6fa8dc" stroke-width="1.0" stroke-linejoin="round" stroke-linecap="butt" d="m239.9029 308.98425l0 0c0 -41.643127 33.758423 -75.40158 75.40158 -75.40158l0 0c19.997742 0 39.176422 7.9440765 53.316956 22.08461c14.140533 14.140549 22.084595 33.31923 22.084595 53.31697l0 0c0 41.643127 -33.758423 75.40158 -75.40155 75.40158l0 0c-41.643158 0 -75.40158 -33.758453 -75.40158 -75.40158z" fill-rule="evenodd"></path><path fill="#000000" d="m272.01874 315.29486q0.640625 -0.03125 0.921875 -0.296875q0.28125 -0.28125 0.3125 -0.65625q0.046875 -0.390625 0.046875 -1.34375l0 -8.0625q0 -0.78125 0.0625 -1.34375l-1.34375 0.078125l0 -0.828125l4.390625 -0.015625q3.515625 -0.015625 5.5625 1.640625q2.0625 1.65625 2.0625 4.921875q0 1.765625 -0.828125 3.265625q-0.8125 1.484375 -2.421875 2.375q-1.609375 0.875 -3.859375 0.875l-4.90625 0l0 -0.609375zm4.84375 -0.09375q1.5625 0 2.78125 -0.765625q1.21875 -0.765625 1.890625 -2.109375q0.671875 -1.34375 0.671875 -3.0q0 -2.734375 -1.5 -4.265625q-1.484375 -1.546875 -4.5 -1.546875q-0.640625 0 -0.921875 0.265625q-0.28125 0.265625 -0.328125 0.65625q-0.03125 0.375 -0.03125 1.3125l0 7.953125q0 0.96875 -0.0625 1.453125q0.65625 0.046875 2.0 0.046875zm13.477051 1.0q-1.296875 0 -2.375 -0.609375q-1.0625 -0.609375 -1.6875 -1.6875q-0.625 -1.078125 -0.625 -2.4375q0 -1.453125 0.609375 -2.640625q0.625 -1.1875 1.6875 -1.859375q1.078125 -0.6875 2.390625 -0.6875q1.28125 0 2.359375 0.625q1.09375 0.625 1.71875 1.703125q0.625 1.078125 0.625 2.40625q0 1.421875 -0.625 2.625q-0.625 1.1875 -1.703125 1.875q-1.078125 0.6875 -2.375 0.6875zm0.140625 -0.75q1.359375 0 2.0 -1.109375q0.65625 -1.125 0.65625 -2.78125q0 -1.890625 -0.703125 -3.234375q-0.703125 -1.34375 -2.09375 -1.34375q-1.390625 0 -2.09375 1.140625q-0.6875 1.140625 -0.6875 2.796875q0 1.203125 0.328125 2.234375q0.328125 1.03125 0.984375 1.671875q0.65625 0.625 1.609375 0.625zm6.148285 -0.109375q0.53125 0 0.765625 -0.265625q0.234375 -0.265625 0.28125 -0.6875q0.046875 -0.421875 0.046875 -1.3125l0 -4.265625q0 -0.78125 0.078125 -1.203125l-1.328125 0.0625l0 -0.78125q1.09375 0 1.5 -0.109375q0.421875 -0.125 0.703125 -0.390625l0.546875 0q0.03125 0.28125 0.0625 0.984375q0.578125 -0.5 1.296875 -0.796875q0.734375 -0.296875 1.453125 -0.296875q0.90625 0 1.546875 0.328125q0.65625 0.328125 1.0 0.921875q0.671875 -0.546875 1.5 -0.890625q0.84375 -0.359375 1.609375 -0.359375q1.640625 0 2.390625 1.0q0.75 1.0 0.71875 3.171875l-0.015625 3.46875q0 0.84375 -0.078125 1.28125l1.171875 -0.0625l0 0.765625l-3.796875 0l0 -0.5625q0.53125 0 0.765625 -0.265625q0.234375 -0.265625 0.28125 -0.6875q0.046875 -0.421875 0.046875 -1.3125l0 -2.625q0 -1.59375 -0.5 -2.390625q-0.5 -0.796875 -1.59375 -0.796875q-0.578125 0 -1.171875 0.25q-0.578125 0.25 -1.03125 0.671875q0.1875 0.578125 0.1875 1.359375l-0.03125 4.375q0 0.84375 -0.078125 1.28125l1.171875 -0.0625l0 0.765625l-3.796875 0l0 -0.5625q0.546875 0 0.765625 -0.265625q0.234375 -0.265625 0.265625 -0.671875q0.046875 -0.40625 0.0625 -1.328125l0.03125 -2.625q0.015625 -1.625 -0.46875 -2.421875q-0.484375 -0.796875 -1.546875 -0.796875q-0.578125 0 -1.15625 0.25q-0.5625 0.234375 -0.984375 0.640625l0.03125 1.015625l0 4.78125q0 0.84375 -0.078125 1.28125l1.171875 -0.0625l0 0.765625l-3.796875 0l0 -0.5625zm19.288055 0.859375q-1.359375 0 -2.078125 -0.609375q-0.71875 -0.625 -0.71875 -1.609375q0 -1.078125 0.859375 -1.828125q0.875 -0.75 2.1875 -1.109375q1.3125 -0.359375 2.640625 -0.34375l0 -1.15625q0 -1.21875 -0.359375 -1.890625q-0.359375 -0.6875 -1.515625 -0.6875q-0.578125 0 -1.109375 0.25q-0.515625 0.234375 -0.75 0.71875q0.234375 0.265625 0.234375 0.71875q0 0.265625 -0.203125 0.53125q-0.203125 0.25 -0.59375 0.25q-0.390625 0 -0.625 -0.25q-0.21875 -0.265625 -0.21875 -0.671875q0 -0.609375 0.46875 -1.125q0.484375 -0.515625 1.328125 -0.8125q0.859375 -0.296875 1.90625 -0.296875q1.5625 0 2.3125 0.828125q0.75 0.828125 0.71875 2.625l-0.015625 4.1875q0 0.609375 -0.078125 1.28125l1.328125 -0.078125l0 0.78125l-2.65625 0q-0.0625 -0.28125 -0.140625 -1.0625q-1.359375 1.359375 -2.921875 1.359375zm0.421875 -1.0625q0.71875 0 1.296875 -0.265625q0.578125 -0.28125 1.171875 -0.828125q-0.015625 -0.28125 -0.015625 -0.953125l0.015625 -1.765625q-1.53125 0.0625 -2.734375 0.640625q-1.1875 0.5625 -1.1875 1.734375q0 0.6875 0.40625 1.0625q0.421875 0.375 1.046875 0.375zm8.439148 -10.59375q-0.390625 0 -0.703125 -0.328125q-0.296875 -0.328125 -0.296875 -0.78125q0 -0.4375 0.3125 -0.765625q0.3125 -0.34375 0.703125 -0.34375q0.421875 0 0.703125 0.328125q0.296875 0.328125 0.296875 0.78125q0 0.453125 -0.3125 0.78125q-0.296875 0.328125 -0.703125 0.328125zm-1.84375 10.796875q0.53125 0 0.765625 -0.265625q0.234375 -0.265625 0.28125 -0.6875q0.046875 -0.421875 0.046875 -1.3125l0 -4.265625q0 -0.53125 0.078125 -1.203125l-1.328125 0.0625l0 -0.78125q1.09375 0 1.5625 -0.125q0.484375 -0.125 0.75 -0.375l0.546875 0l0 7.53125q0 0.84375 -0.078125 1.28125l1.171875 -0.0625l0 0.765625l-3.796875 0l0 -0.5625zm5.242401 0q0.53125 0 0.765625 -0.265625q0.234375 -0.265625 0.265625 -0.671875q0.046875 -0.40625 0.0625 -1.328125l0.015625 -4.265625q0 -0.78125 0.078125 -1.203125l-1.328125 0.0625l0 -0.78125q1.109375 0 1.515625 -0.109375q0.40625 -0.125 0.6875 -0.390625l0.546875 0q0.03125 0.359375 0.0625 1.140625q0.640625 -0.5625 1.453125 -0.90625q0.8125 -0.34375 1.59375 -0.34375q1.625 0 2.359375 1.015625q0.75 1.015625 0.75 3.15625l0 3.46875q0 0.84375 -0.0625 1.28125l1.171875 -0.0625l0 0.765625l-3.8125 0l0 -0.5625q0.546875 0 0.78125 -0.265625q0.234375 -0.265625 0.28125 -0.6875q0.046875 -0.421875 0.046875 -1.3125l0 -2.625q-0.015625 -1.59375 -0.53125 -2.40625q-0.5 -0.8125 -1.578125 -0.8125q-0.671875 0 -1.34375 0.34375q-0.65625 0.328125 -1.078125 0.859375q0.015625 0.21875 0.015625 0.734375l-0.015625 4.75q0 0.84375 -0.078125 1.28125l1.171875 -0.0625l0 0.765625l-3.796875 0l0 -0.5625zm16.434052 -0.046875q0.640625 -0.03125 0.921875 -0.296875q0.28125 -0.28125 0.3125 -0.6875q0.046875 -0.40625 0.046875 -1.40625l0 -7.84375q0 -1.0 0.0625 -1.46875l-1.34375 0.078125l0 -0.828125q2.71875 -0.03125 4.21875 -0.03125q2.1875 0 3.375 0.78125q1.1875 0.765625 1.1875 2.328125q0 1.015625 -0.796875 1.859375q-0.78125 0.84375 -2.28125 1.109375l0 0.03125q2.0 0 3.0625 0.921875q1.078125 0.90625 1.078125 2.40625q0 1.125 -0.578125 1.953125q-0.5625 0.828125 -1.5625 1.265625q-0.984375 0.4375 -2.265625 0.4375l-5.4375 0l0 -0.609375zm4.265625 -6.578125q1.46875 -0.015625 2.140625 -0.796875q0.671875 -0.796875 0.671875 -1.953125q0 -1.40625 -0.8125 -1.9375q-0.796875 -0.546875 -1.96875 -0.546875q-0.59375 0 -0.890625 0.171875q-0.296875 0.15625 -0.40625 0.53125q-0.09375 0.375 -0.09375 1.109375l0 3.46875l1.359375 -0.046875zm0.5625 6.484375q1.46875 0 2.328125 -0.734375q0.875 -0.75 0.875 -2.109375q0 -1.578125 -0.890625 -2.25q-0.875 -0.671875 -2.3125 -0.671875q-1.03125 0 -1.921875 0.046875l0 4.21875q0 0.96875 -0.0625 1.453125q0.359375 0.046875 1.34375 0.046875l0.640625 0z" fill-rule="nonzero"></path><path fill="#6aa84f" d="m123.685036 6.7375326l129.98425 0l0 115.46457l-129.98425 0z" fill-rule="evenodd"></path><path stroke="#38761d" stroke-width="1.0" stroke-linejoin="round" stroke-linecap="butt" d="m123.685036 6.7375326l129.98425 0l0 115.46457l-129.98425 0z" fill-rule="evenodd"></path><path fill="#000000" d="m150.96535 71.68669q-1.828125 0 -3.28125 -0.875q-1.4375 -0.875 -2.25 -2.390625q-0.8125 -1.515625 -0.8125 -3.359375q0 -1.828125 0.734375 -3.421875q0.734375 -1.609375 2.203125 -2.609375q1.46875 -1.0 3.53125 -1.0q2.0625 0 3.765625 1.140625l-0.09375 -1.015625l1.015625 0l0 4.328125l-0.671875 0q-0.1875 -1.734375 -1.234375 -2.703125q-1.03125 -0.984375 -2.640625 -0.984375q-1.328125 0 -2.421875 0.734375q-1.09375 0.734375 -1.734375 2.109375q-0.625 1.359375 -0.625 3.140625q0 1.71875 0.671875 3.078125q0.671875 1.34375 1.8125 2.109375q1.140625 0.75 2.515625 0.75q1.25 0 2.40625 -0.5625q1.15625 -0.5625 1.90625 -1.578125l0.484375 0.390625q-1.078125 1.5 -2.484375 2.109375q-1.40625 0.609375 -2.796875 0.609375zm11.290726 0q-1.296875 0 -2.375 -0.609375q-1.0625 -0.609375 -1.6875 -1.6875q-0.625 -1.078125 -0.625 -2.4375q0 -1.453125 0.609375 -2.640625q0.625 -1.1875 1.6875 -1.859375q1.078125 -0.6875 2.390625 -0.6875q1.28125 0 2.359375 0.625q1.09375 0.625 1.71875 1.703125q0.625 1.078125 0.625 2.40625q0 1.421875 -0.625 2.625q-0.625 1.1875 -1.703125 1.875q-1.078125 0.6875 -2.375 0.6875zm0.140625 -0.75q1.359375 0 2.0 -1.109375q0.65625 -1.125 0.65625 -2.78125q0 -1.890625 -0.703125 -3.234375q-0.703125 -1.34375 -2.09375 -1.34375q-1.390625 0 -2.09375 1.140625q-0.6875 1.140625 -0.6875 2.796875q0 1.203125 0.328125 2.234375q0.328125 1.03125 0.984375 1.671875q0.65625 0.625 1.609375 0.625zm6.148285 -0.109375q0.53125 0 0.765625 -0.265625q0.234375 -0.265625 0.265625 -0.671875q0.046875 -0.40625 0.0625 -1.328125l0.015625 -4.265625q0 -0.78125 0.078125 -1.203125l-1.328125 0.0625l0 -0.78125q1.109375 0 1.515625 -0.109375q0.40625 -0.125 0.6875 -0.390625l0.546875 0q0.03125 0.359375 0.0625 1.140625q0.640625 -0.5625 1.453125 -0.90625q0.8125 -0.34375 1.59375 -0.34375q1.625 0 2.359375 1.015625q0.75 1.015625 0.75 3.15625l0 3.46875q0 0.84375 -0.0625 1.28125l1.171875 -0.0625l0 0.765625l-3.8125 0l0 -0.5625q0.546875 0 0.78125 -0.265625q0.234375 -0.265625 0.28125 -0.6875q0.046875 -0.421875 0.046875 -1.3125l0 -2.625q-0.015625 -1.59375 -0.53125 -2.40625q-0.5 -0.8125 -1.578125 -0.8125q-0.671875 0 -1.34375 0.34375q-0.65625 0.328125 -1.078125 0.859375q0.015625 0.21875 0.015625 0.734375l-0.015625 4.75q0 0.84375 -0.078125 1.28125l1.171875 -0.0625l0 0.765625l-3.796875 0l0 -0.5625zm14.824341 0.859375q-2.5625 0 -2.53125 -3.4375l0.03125 -5.40625l-1.4375 0.015625l0 -0.796875q0.890625 -0.015625 1.515625 -0.8125q0.625 -0.796875 0.921875 -1.796875l0.640625 0l0 2.609375l3.140625 0l0 0.734375l-3.140625 0.03125q-0.015625 2.859375 -0.03125 3.96875q0 1.09375 0 1.21875q0 1.328125 0.3125 1.96875q0.3125 0.640625 1.09375 0.640625q0.484375 0 0.953125 -0.296875q0.484375 -0.296875 0.84375 -0.828125l0.5 0.421875q-0.71875 1.078125 -1.4375 1.421875q-0.703125 0.34375 -1.375 0.34375zm3.7199707 -0.859375q0.53125 0 0.765625 -0.265625q0.234375 -0.265625 0.28125 -0.6875q0.046875 -0.421875 0.046875 -1.3125l0 -4.265625q0 -0.78125 0.078125 -1.203125l-1.328125 0.046875l0 -0.765625l0.578125 0q0.703125 0 1.015625 -0.109375q0.328125 -0.125 0.609375 -0.390625l0.546875 0q0.0625 0.734375 0.078125 1.84375q0.46875 -0.765625 1.328125 -1.359375q0.875 -0.59375 1.8125 -0.59375q0.5625 0 0.9375 0.296875q0.375 0.296875 0.375 0.875q0 0.296875 -0.234375 0.59375q-0.234375 0.296875 -0.671875 0.296875q-0.40625 0 -0.671875 -0.296875q-0.25 -0.3125 -0.203125 -0.734375q-0.703125 -0.03125 -1.421875 0.53125q-0.71875 0.5625 -1.21875 1.5l0.015625 4.578125q0 0.84375 -0.078125 1.28125l1.171875 -0.0625l0 0.765625l-3.8125 0l0 -0.5625zm12.7031555 0.859375q-1.296875 0 -2.375 -0.609375q-1.0625 -0.609375 -1.6875 -1.6875q-0.625 -1.078125 -0.625 -2.4375q0 -1.453125 0.609375 -2.640625q0.625 -1.1875 1.6875 -1.859375q1.078125 -0.6875 2.390625 -0.6875q1.28125 0 2.359375 0.625q1.09375 0.625 1.71875 1.703125q0.625 1.078125 0.625 2.40625q0 1.421875 -0.625 2.625q-0.625 1.1875 -1.703125 1.875q-1.078125 0.6875 -2.375 0.6875zm0.140625 -0.75q1.359375 0 2.0 -1.109375q0.65625 -1.125 0.65625 -2.78125q0 -1.890625 -0.703125 -3.234375q-0.703125 -1.34375 -2.09375 -1.34375q-1.390625 0 -2.09375 1.140625q-0.6875 1.140625 -0.6875 2.796875q0 1.203125 0.328125 2.234375q0.328125 1.03125 0.984375 1.671875q0.65625 0.625 1.609375 0.625zm5.960785 -0.109375q0.53125 0 0.765625 -0.265625q0.234375 -0.265625 0.28125 -0.6875q0.046875 -0.421875 0.046875 -1.3125l0 -8.828125q0 -0.71875 0.0625 -1.21875l-1.328125 0.078125l0 -0.78125q1.109375 0 1.578125 -0.125q0.484375 -0.140625 0.75 -0.375l0.546875 0l0.015625 12.09375q0 0.734375 -0.09375 1.28125l1.171875 -0.0625l0 0.765625l-3.796875 0l0 -0.5625zm5.0745087 0q0.53125 0 0.765625 -0.265625q0.234375 -0.265625 0.28125 -0.6875q0.046875 -0.421875 0.046875 -1.3125l0 -8.828125q0 -0.71875 0.0625 -1.21875l-1.328125 0.078125l0 -0.78125q1.109375 0 1.578125 -0.125q0.484375 -0.140625 0.75 -0.375l0.546875 0l0.015625 12.09375q0 0.734375 -0.09375 1.28125l1.171875 -0.0625l0 0.765625l-3.796875 0l0 -0.5625zm9.762009 0.859375q-1.28125 0 -2.3125 -0.609375q-1.03125 -0.609375 -1.640625 -1.734375q-0.59375 -1.125 -0.59375 -2.59375q0 -1.3125 0.59375 -2.453125q0.609375 -1.15625 1.671875 -1.84375q1.078125 -0.6875 2.4375 -0.6875q1.0625 0 1.921875 0.46875q0.859375 0.46875 1.359375 1.390625q0.5 0.921875 0.5 2.265625l-6.5625 0.109375q-0.015625 2.234375 0.734375 3.484375q0.765625 1.25 2.34375 1.25q0.859375 0 1.765625 -0.4375q0.90625 -0.453125 1.390625 -1.109375l0.453125 0.375q-0.71875 1.078125 -1.84375 1.609375q-1.125 0.515625 -2.21875 0.515625zm2.1875 -6.46875q0 -1.125 -0.5 -1.921875q-0.5 -0.8125 -1.515625 -0.8125q-2.3125 0 -2.734375 2.734375l4.75 0zm3.4241943 5.609375q0.53125 0 0.765625 -0.265625q0.234375 -0.265625 0.28125 -0.6875q0.046875 -0.421875 0.046875 -1.3125l0 -4.265625q0 -0.78125 0.078125 -1.203125l-1.328125 0.046875l0 -0.765625l0.578125 0q0.703125 0 1.015625 -0.109375q0.328125 -0.125 0.609375 -0.390625l0.546875 0q0.0625 0.734375 0.078125 1.84375q0.46875 -0.765625 1.328125 -1.359375q0.875 -0.59375 1.8125 -0.59375q0.5625 0 0.9375 0.296875q0.375 0.296875 0.375 0.875q0 0.296875 -0.234375 0.59375q-0.234375 0.296875 -0.671875 0.296875q-0.40625 0 -0.671875 -0.296875q-0.25 -0.3125 -0.203125 -0.734375q-0.703125 -0.03125 -1.421875 0.53125q-0.71875 0.5625 -1.21875 1.5l0.015625 4.578125q0 0.84375 -0.078125 1.28125l1.171875 -0.0625l0 0.765625l-3.8125 0l0 -0.5625z" fill-rule="nonzero"></path><path fill="#000000" fill-opacity="0.0" d="m253.6693 64.46982c30.818893 0 61.637802 84.55118 61.637802 169.10236" fill-rule="evenodd"></path><path stroke="#000000" stroke-width="1.0" stroke-linejoin="round" stroke-linecap="butt" d="m253.6693 64.46982c15.409439 0 30.818893 21.137794 42.37599 52.84449c5.778534 15.85334 10.593994 34.348915 13.964813 54.165596c1.6853943 9.90834 3.0096436 20.146957 3.9125671 30.550735c0.45141602 5.201874 0.7975464 10.445023 1.0307922 15.708847c0.116607666 2.6318817 0.20501709 5.2689667 0.26428223 7.9086l0.037841797 1.9243164" fill-rule="evenodd"></path><path fill="#000000" stroke="#000000" stroke-width="1.0" stroke-linecap="butt" d="m313.6039 227.58658l1.6906433 4.523758l1.6127014 -4.552109z" fill-rule="evenodd"></path><path fill="#000000" fill-opacity="0.0" d="m84.19685 231.40158c0 -83.46457 19.748032 -166.92914 39.496063 -166.92914" fill-rule="evenodd"></path><path stroke="#000000" stroke-width="1.0" stroke-linejoin="round" stroke-linecap="butt" d="m84.230835 225.40167l0.023269653 -1.8223572c0.037963867 -2.6057281 0.09461975 -5.208893 0.16934967 -7.806961c0.14945984 -5.1961517 0.3712387 -10.371948 0.66051483 -15.506973c0.57855225 -10.27005 1.4271011 -20.37709 2.5070724 -30.158096c2.1599426 -19.562012 5.245575 -37.819885 8.948326 -53.46949c7.4055176 -31.29921 17.279533 -52.16535 27.15355 -52.16535" fill-rule="evenodd"></path><path fill="#000000" stroke="#000000" stroke-width="1.0" stroke-linecap="butt" d="m82.579124 225.39232l1.6260071 4.5473785l1.6774063 -4.5286713z" fill-rule="evenodd"></path><path fill="#b4a7d6" d="m239.9029 547.56696l0 0c0 -41.643158 33.758423 -75.40161 75.40158 -75.40161l0 0c19.997742 0 39.176422 7.944092 53.316956 22.084625c14.140533 14.140533 22.084595 33.319244 22.084595 53.316986l0 0c0 41.643127 -33.758423 75.40155 -75.40155 75.40155l0 0c-41.643158 0 -75.40158 -33.758423 -75.40158 -75.40155z" fill-rule="evenodd"></path><path stroke="#8e7cc3" stroke-width="1.0" stroke-linejoin="round" stroke-linecap="butt" d="m239.9029 547.56696l0 0c0 -41.643158 33.758423 -75.40161 75.40158 -75.40161l0 0c19.997742 0 39.176422 7.944092 53.316956 22.084625c14.140533 14.140533 22.084595 33.319244 22.084595 53.316986l0 0c0 41.643127 -33.758423 75.40155 -75.40155 75.40155l0 0c-41.643158 0 -75.40158 -33.758423 -75.40158 -75.40155z" fill-rule="evenodd"></path><path fill="#000000" d="m272.01874 553.87756q0.640625 -0.03125 0.921875 -0.296875q0.28125 -0.28125 0.3125 -0.65625q0.046875 -0.390625 0.046875 -1.34375l0 -8.0625q0 -0.78125 0.0625 -1.34375l-1.34375 0.078125l0 -0.828125l4.390625 -0.015625q3.515625 -0.015625 5.5625 1.640625q2.0625 1.65625 2.0625 4.921875q0 1.765625 -0.828125 3.265625q-0.8125 1.484375 -2.421875 2.375q-1.609375 0.875 -3.859375 0.875l-4.90625 0l0 -0.609375zm4.84375 -0.09375q1.5625 0 2.78125 -0.765625q1.21875 -0.765625 1.890625 -2.109375q0.671875 -1.34375 0.671875 -3.0q0 -2.734375 -1.5 -4.265625q-1.484375 -1.546875 -4.5 -1.546875q-0.640625 0 -0.921875 0.265625q-0.28125 0.265625 -0.328125 0.65625q-0.03125 0.375 -0.03125 1.3125l0 7.953125q0 0.96875 -0.0625 1.453125q0.65625 0.046875 2.0 0.046875zm13.477051 1.0q-1.296875 0 -2.375 -0.609375q-1.0625 -0.609375 -1.6875 -1.6875q-0.625 -1.078125 -0.625 -2.4375q0 -1.453125 0.609375 -2.640625q0.625 -1.1875 1.6875 -1.859375q1.078125 -0.6875 2.390625 -0.6875q1.28125 0 2.359375 0.625q1.09375 0.625 1.71875 1.703125q0.625 1.078125 0.625 2.40625q0 1.421875 -0.625 2.625q-0.625 1.1875 -1.703125 1.875q-1.078125 0.6875 -2.375 0.6875zm0.140625 -0.75q1.359375 0 2.0 -1.109375q0.65625 -1.125 0.65625 -2.78125q0 -1.890625 -0.703125 -3.234375q-0.703125 -1.34375 -2.09375 -1.34375q-1.390625 0 -2.09375 1.140625q-0.6875 1.140625 -0.6875 2.796875q0 1.203125 0.328125 2.234375q0.328125 1.03125 0.984375 1.671875q0.65625 0.625 1.609375 0.625zm6.148285 -0.109375q0.53125 0 0.765625 -0.265625q0.234375 -0.265625 0.28125 -0.6875q0.046875 -0.421875 0.046875 -1.3125l0 -4.265625q0 -0.78125 0.078125 -1.203125l-1.328125 0.0625l0 -0.78125q1.09375 0 1.5 -0.109375q0.421875 -0.125 0.703125 -0.390625l0.546875 0q0.03125 0.28125 0.0625 0.984375q0.578125 -0.5 1.296875 -0.796875q0.734375 -0.296875 1.453125 -0.296875q0.90625 0 1.546875 0.328125q0.65625 0.328125 1.0 0.921875q0.671875 -0.546875 1.5 -0.890625q0.84375 -0.359375 1.609375 -0.359375q1.640625 0 2.390625 1.0q0.75 1.0 0.71875 3.171875l-0.015625 3.46875q0 0.84375 -0.078125 1.28125l1.171875 -0.0625l0 0.765625l-3.796875 0l0 -0.5625q0.53125 0 0.765625 -0.265625q0.234375 -0.265625 0.28125 -0.6875q0.046875 -0.421875 0.046875 -1.3125l0 -2.625q0 -1.59375 -0.5 -2.390625q-0.5 -0.796875 -1.59375 -0.796875q-0.578125 0 -1.171875 0.25q-0.578125 0.25 -1.03125 0.671875q0.1875 0.578125 0.1875 1.359375l-0.03125 4.375q0 0.84375 -0.078125 1.28125l1.171875 -0.0625l0 0.765625l-3.796875 0l0 -0.5625q0.546875 0 0.765625 -0.265625q0.234375 -0.265625 0.265625 -0.671875q0.046875 -0.40625 0.0625 -1.328125l0.03125 -2.625q0.015625 -1.625 -0.46875 -2.421875q-0.484375 -0.796875 -1.546875 -0.796875q-0.578125 0 -1.15625 0.25q-0.5625 0.234375 -0.984375 0.640625l0.03125 1.015625l0 4.78125q0 0.84375 -0.078125 1.28125l1.171875 -0.0625l0 0.765625l-3.796875 0l0 -0.5625zm19.288055 0.859375q-1.359375 0 -2.078125 -0.609375q-0.71875 -0.625 -0.71875 -1.609375q0 -1.078125 0.859375 -1.828125q0.875 -0.75 2.1875 -1.109375q1.3125 -0.359375 2.640625 -0.34375l0 -1.15625q0 -1.21875 -0.359375 -1.890625q-0.359375 -0.6875 -1.515625 -0.6875q-0.578125 0 -1.109375 0.25q-0.515625 0.234375 -0.75 0.71875q0.234375 0.265625 0.234375 0.71875q0 0.265625 -0.203125 0.53125q-0.203125 0.25 -0.59375 0.25q-0.390625 0 -0.625 -0.25q-0.21875 -0.265625 -0.21875 -0.671875q0 -0.609375 0.46875 -1.125q0.484375 -0.515625 1.328125 -0.8125q0.859375 -0.296875 1.90625 -0.296875q1.5625 0 2.3125 0.828125q0.75 0.828125 0.71875 2.625l-0.015625 4.1875q0 0.609375 -0.078125 1.28125l1.328125 -0.078125l0 0.78125l-2.65625 0q-0.0625 -0.28125 -0.140625 -1.0625q-1.359375 1.359375 -2.921875 1.359375zm0.421875 -1.0625q0.71875 0 1.296875 -0.265625q0.578125 -0.28125 1.171875 -0.828125q-0.015625 -0.28125 -0.015625 -0.953125l0.015625 -1.765625q-1.53125 0.0625 -2.734375 0.640625q-1.1875 0.5625 -1.1875 1.734375q0 0.6875 0.40625 1.0625q0.421875 0.375 1.046875 0.375zm8.439148 -10.59375q-0.390625 0 -0.703125 -0.328125q-0.296875 -0.328125 -0.296875 -0.78125q0 -0.4375 0.3125 -0.765625q0.3125 -0.34375 0.703125 -0.34375q0.421875 0 0.703125 0.328125q0.296875 0.328125 0.296875 0.78125q0 0.453125 -0.3125 0.78125q-0.296875 0.328125 -0.703125 0.328125zm-1.84375 10.796875q0.53125 0 0.765625 -0.265625q0.234375 -0.265625 0.28125 -0.6875q0.046875 -0.421875 0.046875 -1.3125l0 -4.265625q0 -0.53125 0.078125 -1.203125l-1.328125 0.0625l0 -0.78125q1.09375 0 1.5625 -0.125q0.484375 -0.125 0.75 -0.375l0.546875 0l0 7.53125q0 0.84375 -0.078125 1.28125l1.171875 -0.0625l0 0.765625l-3.796875 0l0 -0.5625zm5.242401 0q0.53125 0 0.765625 -0.265625q0.234375 -0.265625 0.265625 -0.671875q0.046875 -0.40625 0.0625 -1.328125l0.015625 -4.265625q0 -0.78125 0.078125 -1.203125l-1.328125 0.0625l0 -0.78125q1.109375 0 1.515625 -0.109375q0.40625 -0.125 0.6875 -0.390625l0.546875 0q0.03125 0.359375 0.0625 1.140625q0.640625 -0.5625 1.453125 -0.90625q0.8125 -0.34375 1.59375 -0.34375q1.625 0 2.359375 1.015625q0.75 1.015625 0.75 3.15625l0 3.46875q0 0.84375 -0.0625 1.28125l1.171875 -0.0625l0 0.765625l-3.8125 0l0 -0.5625q0.546875 0 0.78125 -0.265625q0.234375 -0.265625 0.28125 -0.6875q0.046875 -0.421875 0.046875 -1.3125l0 -2.625q-0.015625 -1.59375 -0.53125 -2.40625q-0.5 -0.8125 -1.578125 -0.8125q-0.671875 0 -1.34375 0.34375q-0.65625 0.328125 -1.078125 0.859375q0.015625 0.21875 0.015625 0.734375l-0.015625 4.75q0 0.84375 -0.078125 1.28125l1.171875 -0.0625l0 0.765625l-3.796875 0l0 -0.5625zm22.605927 0.859375q-1.828125 0 -3.28125 -0.875q-1.4375 -0.875 -2.25 -2.390625q-0.8125 -1.515625 -0.8125 -3.359375q0 -1.828125 0.734375 -3.421875q0.734375 -1.609375 2.203125 -2.609375q1.46875 -1.0 3.53125 -1.0q2.0625 0 3.765625 1.140625l-0.09375 -1.015625l1.015625 0l0 4.328125l-0.671875 0q-0.1875 -1.734375 -1.234375 -2.703125q-1.03125 -0.984375 -2.640625 -0.984375q-1.328125 0 -2.421875 0.734375q-1.09375 0.734375 -1.734375 2.109375q-0.625 1.359375 -0.625 3.140625q0 1.71875 0.671875 3.078125q0.671875 1.34375 1.8125 2.109375q1.140625 0.75 2.515625 0.75q1.25 0 2.40625 -0.5625q1.15625 -0.5625 1.90625 -1.578125l0.484375 0.390625q-1.078125 1.5 -2.484375 2.109375q-1.40625 0.609375 -2.796875 0.609375z" fill-rule="nonzero"></path><path fill="#000000" fill-opacity="0.0" d="m315.30447 384.38583l0 87.77951" fill-rule="evenodd"></path><path stroke="#000000" stroke-width="1.0" stroke-linejoin="round" stroke-linecap="butt" d="m315.30447 384.38583l0 81.77951" fill-rule="evenodd"></path><path fill="#000000" stroke="#000000" stroke-width="1.0" stroke-linecap="butt" d="m313.65274 466.16534l1.6517334 4.5381165l1.6517334 -4.5381165z" fill-rule="evenodd"></path><path fill="#fff2cc" d="m451.35434 39.700787l207.3386 0l0 159.02362l-207.3386 0z" fill-rule="evenodd"></path><path stroke="#ffe599" stroke-width="1.0" stroke-linejoin="round" stroke-linecap="butt" d="m451.35434 39.700787l207.3386 0l0 159.02362l-207.3386 0z" fill-rule="evenodd"></path><path fill="#f1c232" d="m479.11023 105.699036l0 0c0 -2.9836884 5.6128845 -5.4024506 12.536743 -5.4024506c6.9238586 0 12.536743 2.4187622 12.536743 5.4024506l0 21.609802c0 2.9836884 -5.6128845 5.4024506 -12.536743 5.4024506c-6.9238586 0 -12.536743 -2.4187622 -12.536743 -5.4024506z" fill-rule="evenodd"></path><path fill="#000000" fill-opacity="0.0" d="m504.18372 105.699036l0 0c0 2.983696 -5.6128845 5.4024506 -12.536743 5.4024506c-6.9238586 0 -12.536743 -2.4187546 -12.536743 -5.4024506" fill-rule="evenodd"></path><path fill="#000000" fill-opacity="0.0" d="m479.11023 105.699036l0 0c0 -2.9836884 5.6128845 -5.4024506 12.536743 -5.4024506c6.9238586 0 12.536743 2.4187622 12.536743 5.4024506l0 21.609802c0 2.9836884 -5.6128845 5.4024506 -12.536743 5.4024506c-6.9238586 0 -12.536743 -2.4187622 -12.536743 -5.4024506z" fill-rule="evenodd"></path><path stroke="#bf9000" stroke-width="1.0" stroke-linejoin="round" stroke-linecap="butt" d="m504.18372 105.699036l0 0c0 2.983696 -5.6128845 5.4024506 -12.536743 5.4024506c-6.9238586 0 -12.536743 -2.4187546 -12.536743 -5.4024506" fill-rule="evenodd"></path><path stroke="#bf9000" stroke-width="1.0" stroke-linejoin="round" stroke-linecap="butt" d="m479.11023 105.699036l0 0c0 -2.9836884 5.6128845 -5.4024506 12.536743 -5.4024506c6.9238586 0 12.536743 2.4187622 12.536743 5.4024506l0 21.609802c0 2.9836884 -5.6128845 5.4024506 -12.536743 5.4024506c-6.9238586 0 -12.536743 -2.4187622 -12.536743 -5.4024506z" fill-rule="evenodd"></path><path fill="#f1c232" d="m520.7953 105.699036l0 0c0 -2.9836884 5.612854 -5.4024506 12.536743 -5.4024506c6.923828 0 12.536743 2.4187622 12.536743 5.4024506l0 21.609802c0 2.9836884 -5.612915 5.4024506 -12.536743 5.4024506c-6.923889 0 -12.536743 -2.4187622 -12.536743 -5.4024506z" fill-rule="evenodd"></path><path fill="#000000" fill-opacity="0.0" d="m545.8688 105.699036l0 0c0 2.983696 -5.612915 5.4024506 -12.536743 5.4024506c-6.923889 0 -12.536743 -2.4187546 -12.536743 -5.4024506" fill-rule="evenodd"></path><path fill="#000000" fill-opacity="0.0" d="m520.7953 105.699036l0 0c0 -2.9836884 5.612854 -5.4024506 12.536743 -5.4024506c6.923828 0 12.536743 2.4187622 12.536743 5.4024506l0 21.609802c0 2.9836884 -5.612915 5.4024506 -12.536743 5.4024506c-6.923889 0 -12.536743 -2.4187622 -12.536743 -5.4024506z" fill-rule="evenodd"></path><path stroke="#bf9000" stroke-width="1.0" stroke-linejoin="round" stroke-linecap="butt" d="m545.8688 105.699036l0 0c0 2.983696 -5.612915 5.4024506 -12.536743 5.4024506c-6.923889 0 -12.536743 -2.4187546 -12.536743 -5.4024506" fill-rule="evenodd"></path><path stroke="#bf9000" stroke-width="1.0" stroke-linejoin="round" stroke-linecap="butt" d="m520.7953 105.699036l0 0c0 -2.9836884 5.612854 -5.4024506 12.536743 -5.4024506c6.923828 0 12.536743 2.4187622 12.536743 5.4024506l0 21.609802c0 2.9836884 -5.612915 5.4024506 -12.536743 5.4024506c-6.923889 0 -12.536743 -2.4187622 -12.536743 -5.4024506z" fill-rule="evenodd"></path><path fill="#f1c232" d="m562.4803 105.699036l0 0c0 -2.9836884 5.612915 -5.4024506 12.536804 -5.4024506c6.923828 0 12.536743 2.4187622 12.536743 5.4024506l0 21.609802c0 2.9836884 -5.612915 5.4024506 -12.536743 5.4024506c-6.923889 0 -12.536804 -2.4187622 -12.536804 -5.4024506z" fill-rule="evenodd"></path><path fill="#000000" fill-opacity="0.0" d="m587.55383 105.699036l0 0c0 2.983696 -5.612915 5.4024506 -12.536743 5.4024506c-6.923889 0 -12.536804 -2.4187546 -12.536804 -5.4024506" fill-rule="evenodd"></path><path fill="#000000" fill-opacity="0.0" d="m562.4803 105.699036l0 0c0 -2.9836884 5.612915 -5.4024506 12.536804 -5.4024506c6.923828 0 12.536743 2.4187622 12.536743 5.4024506l0 21.609802c0 2.9836884 -5.612915 5.4024506 -12.536743 5.4024506c-6.923889 0 -12.536804 -2.4187622 -12.536804 -5.4024506z" fill-rule="evenodd"></path><path stroke="#bf9000" stroke-width="1.0" stroke-linejoin="round" stroke-linecap="butt" d="m587.55383 105.699036l0 0c0 2.983696 -5.612915 5.4024506 -12.536743 5.4024506c-6.923889 0 -12.536804 -2.4187546 -12.536804 -5.4024506" fill-rule="evenodd"></path><path stroke="#bf9000" stroke-width="1.0" stroke-linejoin="round" stroke-linecap="butt" d="m562.4803 105.699036l0 0c0 -2.9836884 5.612915 -5.4024506 12.536804 -5.4024506c6.923828 0 12.536743 2.4187622 12.536743 5.4024506l0 21.609802c0 2.9836884 -5.612915 5.4024506 -12.536743 5.4024506c-6.923889 0 -12.536804 -2.4187622 -12.536804 -5.4024506z" fill-rule="evenodd"></path><path fill="#f1c232" d="m604.16534 105.699036l0 0c0 -2.9836884 5.612915 -5.4024506 12.536743 -5.4024506c6.923889 0 12.536743 2.4187622 12.536743 5.4024506l0 21.609802c0 2.9836884 -5.612854 5.4024506 -12.536743 5.4024506c-6.923828 0 -12.536743 -2.4187622 -12.536743 -5.4024506z" fill-rule="evenodd"></path><path fill="#000000" fill-opacity="0.0" d="m629.23883 105.699036l0 0c0 2.983696 -5.612854 5.4024506 -12.536743 5.4024506c-6.923828 0 -12.536743 -2.4187546 -12.536743 -5.4024506" fill-rule="evenodd"></path><path fill="#000000" fill-opacity="0.0" d="m604.16534 105.699036l0 0c0 -2.9836884 5.612915 -5.4024506 12.536743 -5.4024506c6.923889 0 12.536743 2.4187622 12.536743 5.4024506l0 21.609802c0 2.9836884 -5.612854 5.4024506 -12.536743 5.4024506c-6.923828 0 -12.536743 -2.4187622 -12.536743 -5.4024506z" fill-rule="evenodd"></path><path stroke="#bf9000" stroke-width="1.0" stroke-linejoin="round" stroke-linecap="butt" d="m629.23883 105.699036l0 0c0 2.983696 -5.612854 5.4024506 -12.536743 5.4024506c-6.923828 0 -12.536743 -2.4187546 -12.536743 -5.4024506" fill-rule="evenodd"></path><path stroke="#bf9000" stroke-width="1.0" stroke-linejoin="round" stroke-linecap="butt" d="m604.16534 105.699036l0 0c0 -2.9836884 5.612915 -5.4024506 12.536743 -5.4024506c6.923889 0 12.536743 2.4187622 12.536743 5.4024506l0 21.609802c0 2.9836884 -5.612854 5.4024506 -12.536743 5.4024506c-6.923828 0 -12.536743 -2.4187622 -12.536743 -5.4024506z" fill-rule="evenodd"></path><path fill="#f1c232" d="m480.8071 152.88802l0 0c0 -2.9836884 5.6128845 -5.4024506 12.536743 -5.4024506c6.9238586 0 12.536743 2.4187622 12.536743 5.4024506l0 21.609802c0 2.9836884 -5.6128845 5.4024506 -12.536743 5.4024506c-6.9238586 0 -12.536743 -2.4187622 -12.536743 -5.4024506z" fill-rule="evenodd"></path><path fill="#000000" fill-opacity="0.0" d="m505.88058 152.88802l0 0c0 2.9836884 -5.6128845 5.4024506 -12.536743 5.4024506c-6.9238586 0 -12.536743 -2.4187622 -12.536743 -5.4024506" fill-rule="evenodd"></path><path fill="#000000" fill-opacity="0.0" d="m480.8071 152.88802l0 0c0 -2.9836884 5.6128845 -5.4024506 12.536743 -5.4024506c6.9238586 0 12.536743 2.4187622 12.536743 5.4024506l0 21.609802c0 2.9836884 -5.6128845 5.4024506 -12.536743 5.4024506c-6.9238586 0 -12.536743 -2.4187622 -12.536743 -5.4024506z" fill-rule="evenodd"></path><path stroke="#bf9000" stroke-width="1.0" stroke-linejoin="round" stroke-linecap="butt" d="m505.88058 152.88802l0 0c0 2.9836884 -5.6128845 5.4024506 -12.536743 5.4024506c-6.9238586 0 -12.536743 -2.4187622 -12.536743 -5.4024506" fill-rule="evenodd"></path><path stroke="#bf9000" stroke-width="1.0" stroke-linejoin="round" stroke-linecap="butt" d="m480.8071 152.88802l0 0c0 -2.9836884 5.6128845 -5.4024506 12.536743 -5.4024506c6.9238586 0 12.536743 2.4187622 12.536743 5.4024506l0 21.609802c0 2.9836884 -5.6128845 5.4024506 -12.536743 5.4024506c-6.9238586 0 -12.536743 -2.4187622 -12.536743 -5.4024506z" fill-rule="evenodd"></path><path fill="#f1c232" d="m522.4921 152.88802l0 0c0 -2.9836884 5.612915 -5.4024506 12.536743 -5.4024506c6.923828 0 12.536743 2.4187622 12.536743 5.4024506l0 21.609802c0 2.9836884 -5.612915 5.4024506 -12.536743 5.4024506c-6.923828 0 -12.536743 -2.4187622 -12.536743 -5.4024506z" fill-rule="evenodd"></path><path fill="#000000" fill-opacity="0.0" d="m547.5656 152.88802l0 0c0 2.9836884 -5.612915 5.4024506 -12.536743 5.4024506c-6.923828 0 -12.536743 -2.4187622 -12.536743 -5.4024506" fill-rule="evenodd"></path><path fill="#000000" fill-opacity="0.0" d="m522.4921 152.88802l0 0c0 -2.9836884 5.612915 -5.4024506 12.536743 -5.4024506c6.923828 0 12.536743 2.4187622 12.536743 5.4024506l0 21.609802c0 2.9836884 -5.612915 5.4024506 -12.536743 5.4024506c-6.923828 0 -12.536743 -2.4187622 -12.536743 -5.4024506z" fill-rule="evenodd"></path><path stroke="#bf9000" stroke-width="1.0" stroke-linejoin="round" stroke-linecap="butt" d="m547.5656 152.88802l0 0c0 2.9836884 -5.612915 5.4024506 -12.536743 5.4024506c-6.923828 0 -12.536743 -2.4187622 -12.536743 -5.4024506" fill-rule="evenodd"></path><path stroke="#bf9000" stroke-width="1.0" stroke-linejoin="round" stroke-linecap="butt" d="m522.4921 152.88802l0 0c0 -2.9836884 5.612915 -5.4024506 12.536743 -5.4024506c6.923828 0 12.536743 2.4187622 12.536743 5.4024506l0 21.609802c0 2.9836884 -5.612915 5.4024506 -12.536743 5.4024506c-6.923828 0 -12.536743 -2.4187622 -12.536743 -5.4024506z" fill-rule="evenodd"></path><path fill="#f1c232" d="m564.1772 152.88802l0 0c0 -2.9836884 5.612854 -5.4024506 12.536743 -5.4024506c6.923828 0 12.536743 2.4187622 12.536743 5.4024506l0 21.609802c0 2.9836884 -5.612915 5.4024506 -12.536743 5.4024506c-6.923889 0 -12.536743 -2.4187622 -12.536743 -5.4024506z" fill-rule="evenodd"></path><path fill="#000000" fill-opacity="0.0" d="m589.2507 152.88802l0 0c0 2.9836884 -5.612915 5.4024506 -12.536743 5.4024506c-6.923889 0 -12.536743 -2.4187622 -12.536743 -5.4024506" fill-rule="evenodd"></path><path fill="#000000" fill-opacity="0.0" d="m564.1772 152.88802l0 0c0 -2.9836884 5.612854 -5.4024506 12.536743 -5.4024506c6.923828 0 12.536743 2.4187622 12.536743 5.4024506l0 21.609802c0 2.9836884 -5.612915 5.4024506 -12.536743 5.4024506c-6.923889 0 -12.536743 -2.4187622 -12.536743 -5.4024506z" fill-rule="evenodd"></path><path stroke="#bf9000" stroke-width="1.0" stroke-linejoin="round" stroke-linecap="butt" d="m589.2507 152.88802l0 0c0 2.9836884 -5.612915 5.4024506 -12.536743 5.4024506c-6.923889 0 -12.536743 -2.4187622 -12.536743 -5.4024506" fill-rule="evenodd"></path><path stroke="#bf9000" stroke-width="1.0" stroke-linejoin="round" stroke-linecap="butt" d="m564.1772 152.88802l0 0c0 -2.9836884 5.612854 -5.4024506 12.536743 -5.4024506c6.923828 0 12.536743 2.4187622 12.536743 5.4024506l0 21.609802c0 2.9836884 -5.612915 5.4024506 -12.536743 5.4024506c-6.923889 0 -12.536743 -2.4187622 -12.536743 -5.4024506z" fill-rule="evenodd"></path><path fill="#f1c232" d="m605.8622 152.88802l0 0c0 -2.9836884 5.612915 -5.4024506 12.536743 -5.4024506c6.923889 0 12.536743 2.4187622 12.536743 5.4024506l0 21.609802c0 2.9836884 -5.612854 5.4024506 -12.536743 5.4024506c-6.923828 0 -12.536743 -2.4187622 -12.536743 -5.4024506z" fill-rule="evenodd"></path><path fill="#000000" fill-opacity="0.0" d="m630.93567 152.88802l0 0c0 2.9836884 -5.612854 5.4024506 -12.536743 5.4024506c-6.923828 0 -12.536743 -2.4187622 -12.536743 -5.4024506" fill-rule="evenodd"></path><path fill="#000000" fill-opacity="0.0" d="m605.8622 152.88802l0 0c0 -2.9836884 5.612915 -5.4024506 12.536743 -5.4024506c6.923889 0 12.536743 2.4187622 12.536743 5.4024506l0 21.609802c0 2.9836884 -5.612854 5.4024506 -12.536743 5.4024506c-6.923828 0 -12.536743 -2.4187622 -12.536743 -5.4024506z" fill-rule="evenodd"></path><path stroke="#bf9000" stroke-width="1.0" stroke-linejoin="round" stroke-linecap="butt" d="m630.93567 152.88802l0 0c0 2.9836884 -5.612854 5.4024506 -12.536743 5.4024506c-6.923828 0 -12.536743 -2.4187622 -12.536743 -5.4024506" fill-rule="evenodd"></path><path stroke="#bf9000" stroke-width="1.0" stroke-linejoin="round" stroke-linecap="butt" d="m605.8622 152.88802l0 0c0 -2.9836884 5.612915 -5.4024506 12.536743 -5.4024506c6.923889 0 12.536743 2.4187622 12.536743 5.4024506l0 21.609802c0 2.9836884 -5.612854 5.4024506 -12.536743 5.4024506c-6.923828 0 -12.536743 -2.4187622 -12.536743 -5.4024506z" fill-rule="evenodd"></path><path fill="#000000" fill-opacity="0.0" d="m457.6378 48.83727l194.77164 0l0 26.89764l-194.77164 0z" fill-rule="evenodd"></path><path fill="#000000" d="m467.66904 75.147896q0.640625 -0.03125 0.921875 -0.296875q0.28125 -0.28125 0.3125 -0.65625q0.046875 -0.390625 0.046875 -1.34375l0 -8.0625q0 -0.78125 0.0625 -1.3437538l-1.34375 0.078125l0 -0.828125q1.9375 -0.03125 2.921875 -0.03125q0.890625 0 1.34375 0.015625q2.625 0.03125 3.84375 0.890625q1.234375 0.8437538 1.234375 2.4531288q0.015625 1.28125 -0.765625 2.3125q-0.78125 1.015625 -2.71875 1.421875q0.3125 0.234375 0.5625 0.578125q0.265625 0.328125 0.71875 1.03125l1.265625 2.0q0.40625 0.65625 0.671875 1.0q0.28125 0.34375 0.65625 0.5625q0.390625 0.21875 0.953125 0.21875l0 0.609375l-2.359375 0q-0.5 -0.421875 -0.84375 -0.875q-0.34375 -0.46875 -0.8125 -1.203125l-1.25 -1.984375l-0.234375 -0.390625q-0.3125 -0.515625 -0.53125 -0.828125q-0.21875 -0.3125 -0.484375 -0.5625q-0.171875 0.015625 -0.515625 0.015625q-0.515625 0 -0.75 -0.015625l0 3.625q0 0.984375 -0.0625 1.46875l1.34375 -0.078125l0 0.828125l-4.1875 0l0 -0.609375zm3.71875 -5.921875q3.8125 0 3.8125 -3.0q0 -1.421875 -0.828125 -2.125q-0.8125 -0.7187538 -2.515625 -0.7187538q-0.640625 0 -0.921875 0.265625q-0.28125 0.265625 -0.328125 0.6406288q-0.03125 0.375 -0.03125 1.3125l0 3.59375q0.5625 0.03125 0.8125 0.03125zm12.2942505 6.828125q-1.28125 0 -2.3125 -0.609375q-1.03125 -0.609375 -1.640625 -1.734375q-0.59375 -1.125 -0.59375 -2.59375q0 -1.3125 0.59375 -2.453125q0.609375 -1.15625 1.671875 -1.84375q1.078125 -0.6875 2.4375 -0.6875q1.0625 0 1.921875 0.46875q0.859375 0.46875 1.359375 1.390625q0.5 0.921875 0.5 2.265625l-6.5625 0.109375q-0.015625 2.234375 0.734375 3.484375q0.765625 1.25 2.34375 1.25q0.859375 0 1.765625 -0.4375q0.90625 -0.453125 1.390625 -1.109375l0.453125 0.375q-0.71875 1.078125 -1.84375 1.609375q-1.125 0.515625 -2.21875 0.515625zm2.1875 -6.46875q0 -1.125 -0.5 -1.921875q-0.5 -0.8125 -1.515625 -0.8125q-2.3125 0 -2.734375 2.734375l4.75 0zm3.4241943 5.609375q0.53125 0 0.765625 -0.265625q0.234375 -0.265625 0.28125 -0.6875q0.046875 -0.421875 0.046875 -1.3125l0 -4.265625q0 -0.78125 0.078125 -1.203125l-1.328125 0.0625l0 -0.78125q1.09375 0 1.5 -0.109375q0.421875 -0.125 0.703125 -0.390625l0.546875 0q0.03125 0.28125 0.0625 0.984375q0.578125 -0.5 1.296875 -0.796875q0.734375 -0.296875 1.453125 -0.296875q0.90625 0 1.546875 0.328125q0.65625 0.328125 1.0 0.921875q0.671875 -0.546875 1.5 -0.890625q0.84375 -0.359375 1.609375 -0.359375q1.640625 0 2.390625 1.0q0.75 1.0 0.71875 3.171875l-0.015625 3.46875q0 0.84375 -0.078125 1.28125l1.171875 -0.0625l0 0.765625l-3.796875 0l0 -0.5625q0.53125 0 0.765625 -0.265625q0.234375 -0.265625 0.28125 -0.6875q0.046875 -0.421875 0.046875 -1.3125l0 -2.625q0 -1.59375 -0.5 -2.390625q-0.5 -0.796875 -1.59375 -0.796875q-0.578125 0 -1.171875 0.25q-0.578125 0.25 -1.03125 0.671875q0.1875 0.578125 0.1875 1.359375l-0.03125 4.375q0 0.84375 -0.078125 1.28125l1.171875 -0.0625l0 0.765625l-3.796875 0l0 -0.5625q0.546875 0 0.765625 -0.265625q0.234375 -0.265625 0.265625 -0.671875q0.046875 -0.40625 0.0625 -1.328125l0.03125 -2.625q0.015625 -1.625 -0.46875 -2.421875q-0.484375 -0.796875 -1.546875 -0.796875q-0.578125 0 -1.15625 0.25q-0.5625 0.234375 -0.984375 0.640625l0.03125 1.015625l0 4.78125q0 0.84375 -0.078125 1.28125l1.171875 -0.0625l0 0.765625l-3.796875 0l0 -0.5625zm21.30371 0.859375q-1.296875 0 -2.375 -0.609375q-1.0625 -0.609375 -1.6875 -1.6875q-0.625 -1.078125 -0.625 -2.4375q0 -1.453125 0.609375 -2.640625q0.625 -1.1875 1.6875 -1.859375q1.078125 -0.6875 2.390625 -0.6875q1.28125 0 2.3593445 0.625q1.09375 0.625 1.71875 1.703125q0.625 1.078125 0.625 2.40625q0 1.421875 -0.625 2.625q-0.625 1.1875 -1.703125 1.875q-1.0780945 0.6875 -2.3749695 0.6875zm0.140625 -0.75q1.3593445 0 1.9999695 -1.109375q0.65625 -1.125 0.65625 -2.78125q0 -1.890625 -0.703125 -3.234375q-0.7030945 -1.34375 -2.0937195 -1.34375q-1.390625 0 -2.09375 1.140625q-0.6875 1.140625 -0.6875 2.796875q0 1.203125 0.328125 2.234375q0.328125 1.03125 0.984375 1.671875q0.65625 0.625 1.609375 0.625zm9.648285 0.75q-2.5625 0 -2.53125 -3.4375l0.03125 -5.40625l-1.4375 0.015625l0 -0.796875q0.890625 -0.015625 1.515625 -0.8125q0.625 -0.796875 0.921875 -1.7968788l0.640625 0l0 2.6093788l3.140625 0l0 0.734375l-3.140625 0.03125q-0.015625 2.859375 -0.03125 3.96875q0 1.09375 0 1.21875q0 1.328125 0.3125 1.96875q0.3125 0.640625 1.09375 0.640625q0.484375 0 0.953125 -0.296875q0.484375 -0.296875 0.84375 -0.828125l0.5 0.421875q-0.71875 1.078125 -1.4375 1.421875q-0.703125 0.34375 -1.375 0.34375zm8.219971 0q-1.28125 0 -2.3125 -0.609375q-1.03125 -0.609375 -1.640625 -1.734375q-0.59375 -1.125 -0.59375 -2.59375q0 -1.3125 0.59375 -2.453125q0.609375 -1.15625 1.671875 -1.84375q1.078125 -0.6875 2.4375 -0.6875q1.0625 0 1.921875 0.46875q0.859375 0.46875 1.359375 1.390625q0.5 0.921875 0.5 2.265625l-6.5625 0.109375q-0.015625 2.234375 0.734375 3.484375q0.765625 1.25 2.34375 1.25q0.859375 0 1.765625 -0.4375q0.90625 -0.453125 1.390625 -1.109375l0.453125 0.375q-0.71875 1.078125 -1.84375 1.609375q-1.125 0.515625 -2.21875 0.515625zm2.1875 -6.46875q0 -1.125 -0.5 -1.921875q-0.5 -0.8125 -1.515625 -0.8125q-2.3125 0 -2.734375 2.734375l4.75 0zm8.533936 5.5625q0.640625 -0.03125 0.921875 -0.296875q0.28125 -0.28125 0.3125 -0.65625q0.046875 -0.390625 0.046875 -1.34375l0 -8.0625q0 -0.78125 0.0625 -1.3437538l-1.34375 0.078125l0 -0.828125l8.65625 0l0.09375 3.2656288l-0.625 0q0 -1.53125 -0.6875 -2.0781288q-0.6875 -0.5625 -1.890625 -0.53125l-1.359375 0.03125q-0.640625 0.03125 -0.921875 0.3125q-0.265625 0.265625 -0.3125 0.6718788q-0.046875 0.40625 -0.046875 1.3125l0 3.21875l3.25 0.015625l-0.140625 -1.625l0.828125 0l0 3.9375l-0.59375 0q0 -0.71875 -0.171875 -1.0625q-0.15625 -0.359375 -0.5 -0.484375q-0.328125 -0.140625 -0.921875 -0.140625q-0.40625 0 -0.625 0.03125l-1.125 0.046875l0 3.921875q0 0.984375 -0.0625 1.46875l1.90625 -0.078125l0 0.828125l-4.75 0l0 -0.609375zm11.864258 -10.75q-0.390625 0 -0.703125 -0.328125q-0.296875 -0.3281288 -0.296875 -0.7812538q0 -0.4375 0.3125 -0.765625q0.3125 -0.34375 0.703125 -0.34375q0.421875 0 0.703125 0.328125q0.296875 0.328125 0.296875 0.78125q0 0.453125 -0.3125 0.7812538q-0.296875 0.328125 -0.703125 0.328125zm-1.84375 10.796875q0.53125 0 0.765625 -0.265625q0.234375 -0.265625 0.28125 -0.6875q0.046875 -0.421875 0.046875 -1.3125l0 -4.265625q0 -0.53125 0.078125 -1.203125l-1.328125 0.0625l0 -0.78125q1.09375 0 1.5625 -0.125q0.484375 -0.125 0.75 -0.375l0.546875 0l0 7.53125q0 0.84375 -0.078125 1.28125l1.171875 -0.0625l0 0.765625l-3.796875 0l0 -0.5625zm5.0548706 0q0.53125 0 0.765625 -0.265625q0.234375 -0.265625 0.28125 -0.6875q0.046875 -0.421875 0.046875 -1.3125l0 -8.828125q0 -0.7187538 0.0625 -1.2187538l-1.328125 0.078125l0 -0.78125q1.109375 0 1.578125 -0.125q0.484375 -0.140625 0.75 -0.375l0.546875 0l0.015625 12.093754q0 0.734375 -0.09375 1.28125l1.171875 -0.0625l0 0.765625l-3.796875 0l0 -0.5625zm9.762024 0.859375q-1.28125 0 -2.3125 -0.609375q-1.03125 -0.609375 -1.640625 -1.734375q-0.59375 -1.125 -0.59375 -2.59375q0 -1.3125 0.59375 -2.453125q0.609375 -1.15625 1.671875 -1.84375q1.078125 -0.6875 2.4375 -0.6875q1.0625 0 1.921875 0.46875q0.859375 0.46875 1.359375 1.390625q0.5 0.921875 0.5 2.265625l-6.5625 0.109375q-0.015625 2.234375 0.734375 3.484375q0.765625 1.25 2.34375 1.25q0.859375 0 1.765625 -0.4375q0.90625 -0.453125 1.390625 -1.109375l0.453125 0.375q-0.71875 1.078125 -1.84375 1.609375q-1.125 0.515625 -2.21875 0.515625zm2.1875 -6.46875q0 -1.125 -0.5 -1.921875q-0.5 -0.8125 -1.515625 -0.8125q-2.3125 0 -2.734375 2.734375l4.75 0zm12.893311 6.46875q-0.875 0 -1.765625 -0.25q-0.875 -0.234375 -1.546875 -0.703125l0.09375 0.8125l-0.984375 0l-0.109375 -3.984375l0.734375 0q0.09375 1.609375 1.09375 2.484375q1.015625 0.859375 2.5625 0.859375q1.140625 0 1.90625 -0.625q0.78125 -0.625 0.78125 -1.703125q0 -0.8125 -0.4375 -1.375q-0.4375 -0.5625 -1.09375 -0.9375q-0.640625 -0.390625 -1.734375 -0.90625q-1.25 -0.59375 -1.984375 -1.03125q-0.734375 -0.453125 -1.265625 -1.1875q-0.515625 -0.75 -0.515625 -1.828125q0 -0.75 0.34375 -1.484375q0.34375 -0.7500038 1.1875 -1.2656288q0.84375 -0.53125 2.25 -0.53125q0.84375 0 1.6875 0.21875q0.84375 0.21875 1.5625 0.734375l-0.078125 -0.796875l0.953125 0l0 4.093754l-0.671875 0q-0.09375 -1.46875 -0.953125 -2.484375q-0.84375 -1.0156288 -2.375 -1.0156288q-1.109375 0 -1.75 0.625q-0.625 0.6250038 -0.625 1.5625038q0 0.734375 0.421875 1.28125q0.421875 0.546875 1.03125 0.90625q0.625 0.34375 1.75 0.859375q1.265625 0.578125 2.03125 1.046875q0.78125 0.46875 1.3125 1.234375q0.546875 0.75 0.546875 1.84375q0 1.046875 -0.515625 1.859375q-0.5 0.796875 -1.5 1.25q-0.984375 0.4375 -2.34375 0.4375zm7.437439 4.765625q-0.609375 0 -1.0 -0.3125q-0.390625 -0.296875 -0.390625 -0.828125q0 -0.359375 0.234375 -0.640625q0.234375 -0.265625 0.609375 -0.265625q0.375 0 0.546875 0.265625q0.171875 0.265625 0.171875 0.546875q0 0.171875 -0.015625 0.25q0.0625 0.046875 0.203125 0.046875q0.25 0 0.5 -0.1875q0.25 -0.1875 0.453125 -0.546875q0.4375 -0.703125 1.3125 -3.1875l-2.921875 -6.234375q-0.78125 -1.671875 -0.984375 -2.5625l-0.890625 0.03125l0 -0.765625l3.859375 0l0 0.5625l-0.078125 0q-0.875 0.046875 -0.875 0.75q0 0.453125 0.453125 1.453125l2.171875 4.671875q0.5625 -1.578125 1.609375 -4.671875q0.640625 -1.84375 0.921875 -2.078125l-1.296875 0.078125l0 -0.765625l2.9375 0l0 0.5625q-0.640625 0.234375 -0.984375 0.765625q-0.34375 0.53125 -0.75 1.65625l-2.34375 6.515625q-0.671875 1.875 -1.109375 2.828125q-0.4375 0.96875 -0.984375 1.515625q-0.546875 0.546875 -1.359375 0.546875zm12.24115 -4.765625q-0.875 0 -1.609375 -0.234375q-0.71875 -0.234375 -1.234375 -0.578125l0.0625 0.640625l-0.78125 0l-0.109375 -3.203125l0.578125 0q0.03125 0.765625 0.40625 1.359375q0.390625 0.59375 1.015625 0.953125q0.625 0.34375 1.34375 0.34375q0.796875 0 1.421875 -0.375q0.625 -0.390625 0.625 -1.109375q0 -0.515625 -0.3125 -0.875q-0.296875 -0.359375 -0.765625 -0.578125q-0.453125 -0.234375 -1.265625 -0.5625q-1.0 -0.375 -1.59375 -0.6875q-0.59375 -0.328125 -1.03125 -0.890625q-0.421875 -0.5625 -0.421875 -1.421875q0 -0.609375 0.296875 -1.21875q0.296875 -0.625 1.0 -1.046875q0.71875 -0.4375 1.890625 -0.4375q0.578125 0 1.1875 0.1875q0.609375 0.1875 1.125 0.609375l-0.03125 -0.703125l0.78125 0l0 3.265625l-0.59375 0q-0.0625 -1.078125 -0.671875 -1.875q-0.59375 -0.796875 -1.703125 -0.796875q-0.828125 0 -1.328125 0.421875q-0.5 0.421875 -0.5 1.0q0 0.53125 0.328125 0.90625q0.328125 0.375 0.8125 0.640625q0.484375 0.265625 1.3125 0.578125q0.96875 0.390625 1.5625 0.734375q0.59375 0.328125 1.015625 0.875q0.421875 0.546875 0.421875 1.34375q0 0.890625 -0.46875 1.515625q-0.453125 0.609375 -1.1875 0.921875q-0.734375 0.296875 -1.578125 0.296875zm8.325317 0q-2.5625 0 -2.53125 -3.4375l0.03125 -5.40625l-1.4375 0.015625l0 -0.796875q0.890625 -0.015625 1.515625 -0.8125q0.625 -0.796875 0.921875 -1.7968788l0.640625 0l0 2.6093788l3.140625 0l0 0.734375l-3.140625 0.03125q-0.015625 2.859375 -0.03125 3.96875q0 1.09375 0 1.21875q0 1.328125 0.3125 1.96875q0.3125 0.640625 1.09375 0.640625q0.484375 0 0.953125 -0.296875q0.484375 -0.296875 0.84375 -0.828125l0.5 0.421875q-0.71875 1.078125 -1.4375 1.421875q-0.703125 0.34375 -1.375 0.34375zm8.219971 0q-1.28125 0 -2.3125 -0.609375q-1.03125 -0.609375 -1.640625 -1.734375q-0.59375 -1.125 -0.59375 -2.59375q0 -1.3125 0.59375 -2.453125q0.609375 -1.15625 1.671875 -1.84375q1.078125 -0.6875 2.4375 -0.6875q1.0625 0 1.921875 0.46875q0.859375 0.46875 1.359375 1.390625q0.5 0.921875 0.5 2.265625l-6.5625 0.109375q-0.015625 2.234375 0.734375 3.484375q0.765625 1.25 2.34375 1.25q0.859375 0 1.765625 -0.4375q0.90625 -0.453125 1.390625 -1.109375l0.453125 0.375q-0.71875 1.078125 -1.84375 1.609375q-1.125 0.515625 -2.21875 0.515625zm2.1875 -6.46875q0 -1.125 -0.5 -1.921875q-0.5 -0.8125 -1.515625 -0.8125q-2.3125 0 -2.734375 2.734375l4.75 0zm3.4241943 5.609375q0.53125 0 0.765625 -0.265625q0.234375 -0.265625 0.28125 -0.6875q0.046875 -0.421875 0.046875 -1.3125l0 -4.265625q0 -0.78125 0.078125 -1.203125l-1.328125 0.0625l0 -0.78125q1.09375 0 1.5 -0.109375q0.421875 -0.125 0.703125 -0.390625l0.546875 0q0.03125 0.28125 0.0625 0.984375q0.578125 -0.5 1.296875 -0.796875q0.734375 -0.296875 1.453125 -0.296875q0.90625 0 1.546875 0.328125q0.65625 0.328125 1.0 0.921875q0.671875 -0.546875 1.5 -0.890625q0.84375 -0.359375 1.609375 -0.359375q1.640625 0 2.390625 1.0q0.75 1.0 0.71875 3.171875l-0.015625 3.46875q0 0.84375 -0.078125 1.28125l1.171875 -0.0625l0 0.765625l-3.796875 0l0 -0.5625q0.53125 0 0.765625 -0.265625q0.234375 -0.265625 0.28125 -0.6875q0.046875 -0.421875 0.046875 -1.3125l0 -2.625q0 -1.59375 -0.5 -2.390625q-0.5 -0.796875 -1.59375 -0.796875q-0.578125 0 -1.171875 0.25q-0.578125 0.25 -1.03125 0.671875q0.1875 0.578125 0.1875 1.359375l-0.03125 4.375q0 0.84375 -0.078125 1.28125l1.171875 -0.0625l0 0.765625l-3.796875 0l0 -0.5625q0.546875 0 0.765625 -0.265625q0.234375 -0.265625 0.265625 -0.671875q0.046875 -0.40625 0.0625 -1.328125l0.03125 -2.625q0.015625 -1.625 -0.46875 -2.421875q-0.484375 -0.796875 -1.546875 -0.796875q-0.578125 0 -1.15625 0.25q-0.5625 0.234375 -0.984375 0.640625l0.03125 1.015625l0 4.78125q0 0.84375 -0.078125 1.28125l1.171875 -0.0625l0 0.765625l-3.796875 0l0 -0.5625z" fill-rule="nonzero"></path><path fill="#000000" fill-opacity="0.0" d="m390.70602 547.56696c15.162018 0 22.741364 -107.08664 30.324036 -214.17325c7.5827026 -107.086624 15.168701 -214.17323 30.337402 -214.17323" fill-rule="evenodd"></path><path stroke="#000000" stroke-width="1.0" stroke-linejoin="round" stroke-linecap="butt" stroke-dasharray="4.0,3.0" d="m390.70602 547.56696c15.162048 0 22.741364 -107.08664 30.324036 -214.17325c3.7913513 -53.543304 7.5835266 -107.086624 12.323944 -147.2441c2.3702087 -20.07875 4.977478 -36.811035 7.9402466 -48.52362c1.4813843 -5.856308 3.0516357 -10.457687 4.725586 -13.594986c0.104644775 -0.19608307 0.20965576 -0.3864441 0.315094 -0.5710449c0.052703857 -0.092292786 0.105529785 -0.18314362 0.15841675 -0.27254486l0.15655518 -0.25959778" fill-rule="evenodd"></path><path fill="#000000" stroke="#000000" stroke-width="1.0" stroke-linecap="butt" d="m447.67047 124.22652l2.5475464 -4.102745l-4.588745 1.5053482z" fill-rule="evenodd"></path><path fill="#000000" fill-opacity="0.0" d="m84.19685 382.2047c0 12.49762 117.708664 47.928284 235.41731 24.99524c117.70868 -22.933075 235.41733 -104.22989 235.41733 -208.4598" fill-rule="evenodd"></path><path stroke="#000000" stroke-width="1.0" stroke-linejoin="round" stroke-linecap="butt" stroke-dasharray="4.0,3.0" d="m84.19685 382.2047c0 12.49762 117.708664 47.928284 235.41731 24.995209c58.85434 -11.466522 117.70868 -37.523987 161.84943 -73.74359c22.070374 -18.109772 40.46237 -38.76007 53.3367 -61.39731c6.437256 -11.3186035 11.494995 -23.133972 14.9435425 -35.376846c1.7242432 -6.1214447 3.0461426 -12.349762 3.9369507 -18.676315c0.4454956 -3.1632843 0.7831421 -6.3511047 1.0094604 -9.562408c0.05657959 -0.8028412 0.10620117 -1.6071167 0.14880371 -2.4128723c0.021240234 -0.4028778 0.04083252 -0.80610657 0.058654785 -1.2097168l0.0032348633 -0.0821228" fill-rule="evenodd"></path><path fill="#000000" stroke="#000000" stroke-width="1.0" stroke-linecap="butt" d="m556.55225 204.77469l-1.5525513 -4.572983l-1.7501221 4.5010834z" fill-rule="evenodd"></path><path fill="#000000" fill-opacity="0.0" d="m555.0236 39.700787c0 -12.499998 -57.298218 -24.983725 -101.25656 -24.999998c-43.958344 -0.016272545 -74.57687 12.434908 -101.25656 24.87795c-26.679688 12.443047 -49.420593 24.877956 -98.8412 24.877956" fill-rule="evenodd"></path><path stroke="#000000" stroke-width="1.0" stroke-linejoin="round" stroke-linecap="butt" stroke-dasharray="4.0,3.0" d="m555.0236 39.700787c0 -12.5 -57.298187 -24.983725 -101.25656 -24.999998c-43.958374 -0.016273499 -74.57684 12.434908 -101.25656 24.87795c-13.339844 6.2215233 -25.695007 12.441013 -40.89276 17.105122c-7.5989075 2.3320503 -15.908417 4.275261 -25.407013 5.635456c-4.7493286 0.6800995 -9.795868 1.2144394 -15.199493 1.578762c-2.7018433 0.18215942 -5.49292 0.3218155 -8.380768 0.4159317c-0.7219238 0.023521423 -1.4499512 0.044204712 -2.1841125 0.06199646l-0.77737427 0.017219543" fill-rule="evenodd"></path><path fill="#000000" stroke="#000000" stroke-width="1.0" stroke-linecap="butt" d="m259.6515 62.741592l-4.5203705 1.6996384l4.555313 1.6036377z" fill-rule="evenodd"></path></g></svg>

