<svg version="1.1" viewBox="0.0 0.0 699.7349081364829 460.8293963254593" fill="none" stroke="none" stroke-linecap="square" stroke-miterlimit="10" xmlns:xlink="http://www.w3.org/1999/xlink" xmlns="http://www.w3.org/2000/svg"><clipPath id="p.0"><path d="m0 0l699.7349 0l0 460.8294l-699.7349 0l0 -460.8294z" clip-rule="nonzero"/></clipPath><g clip-path="url(#p.0)"><path fill="#000000" fill-opacity="0.0" d="m0 0l699.7349 0l0 460.8294l-699.7349 0z" fill-rule="evenodd"/><path fill="#ffd966" d="m292.67715 185.03412l0 0c0 -25.47467 20.651306 -46.125977 46.126007 -46.125977l0 0c12.233368 0 23.965698 4.85968 32.615997 13.509979c8.650299 8.650299 13.509979 20.38263 13.509979 32.615997l0 0c0 25.474686 -20.651306 46.12599 -46.125977 46.12599l0 0c-25.4747 0 -46.126007 -20.651306 -46.126007 -46.12599z" fill-rule="evenodd"/><path stroke="#f1c232" stroke-width="1.0" stroke-linejoin="round" stroke-linecap="butt" d="m292.67715 185.03412l0 0c0 -25.47467 20.651306 -46.125977 46.126007 -46.125977l0 0c12.233368 0 23.965698 4.85968 32.615997 13.509979c8.650299 8.650299 13.509979 20.38263 13.509979 32.615997l0 0c0 25.474686 -20.651306 46.12599 -46.125977 46.12599l0 0c-25.4747 0 -46.126007 -20.651306 -46.126007 -46.12599z" fill-rule="evenodd"/><path fill="#000000" fill-opacity="0.0" d="m288.12598 161.09726l101.35434 0l0 47.87401l-101.35434 0z" fill-rule="evenodd"/><path fill="#000000" d="m329.6761 198.05614q0.9375 -0.03125 1.328125 -0.4375q0.40625 -0.390625 0.453125 -0.9375q0.0625 -0.546875 0.0625 -1.90625l0 -18.3125q0 -1.125 0.078125 -1.921875l-1.921875 0.109375l0 -1.171875l18.25 0l0 0.875q-0.921875 0.03125 -1.328125 0.4375q-0.390625 0.390625 -0.453125 0.9375q-0.046875 0.546875 -0.046875 1.90625l0 18.125q0 1.4375 -0.078125 2.109375l1.90625 -0.109375l0 1.171875l-5.984375 0l0 -0.875q0.921875 -0.03125 1.3125 -0.4375q0.40625 -0.390625 0.453125 -0.9375q0.0625 -0.546875 0.0625 -1.90625l0 -20.265625l-9.9375 0.140625l0 21.109375q0 1.4375 -0.078125 2.109375l1.921875 -0.109375l0 1.171875l-6.0 0l0 -0.875z" fill-rule="nonzero"/><path fill="#6fa8dc" d="m292.67584 291.4042l0 0c0 -25.47467 20.651306 -46.12599 46.126007 -46.12599l0 0c12.233368 0 23.965698 4.8596954 32.615997 13.5099945c8.650299 8.650299 13.509979 20.38263 13.509979 32.615997l0 0c0 25.47467 -20.651306 46.125977 -46.125977 46.125977l0 0c-25.4747 0 -46.126007 -20.651306 -46.126007 -46.125977z" fill-rule="evenodd"/><path stroke="#0b5394" stroke-width="1.0" stroke-linejoin="round" stroke-linecap="butt" d="m292.67584 291.4042l0 0c0 -25.47467 20.651306 -46.12599 46.126007 -46.12599l0 0c12.233368 0 23.965698 4.8596954 32.615997 13.5099945c8.650299 8.650299 13.509979 20.38263 13.509979 32.615997l0 0c0 25.47467 -20.651306 46.125977 -46.125977 46.125977l0 0c-25.4747 0 -46.126007 -20.651306 -46.126007 -46.125977z" fill-rule="evenodd"/><path fill="#000000" fill-opacity="0.0" d="m390.97638 271.55643l-104.346466 0l0 26.11023l104.346466 0z" fill-rule="evenodd"/><path fill="#000000" d="m311.6938 286.85144l3.6875 0q2.078125 0 3.0625 0.921875q1.0 0.90625 1.0 2.546875q0 0.640625 -0.28125 1.28125q-0.28125 0.640625 -0.796875 1.125q-0.5 0.484375 -1.15625 0.6875l2.734375 5.0625l-2.359375 0l-2.40625 -4.8125l-1.359375 0l0 4.8125l-2.125 0l0 -11.625zm3.8125 5.03125q0.890625 0 1.34375 -0.40625q0.453125 -0.421875 0.453125 -1.15625q0 -0.8125 -0.4375 -1.21875q-0.4375 -0.40625 -1.359375 -0.40625l-1.6875 0l0 3.1875l1.6875 0zm9.671875 6.890625q-1.25 0 -2.234375 -0.546875q-0.984375 -0.546875 -1.546875 -1.5625q-0.5625 -1.03125 -0.5625 -2.421875q0 -1.40625 0.53125 -2.46875q0.53125 -1.0625 1.46875 -1.625q0.9375 -0.578125 2.125 -0.578125q1.046875 0 1.890625 0.5q0.84375 0.484375 1.328125 1.453125q0.5 0.953125 0.5 2.3125q0 0.21875 -0.046875 0.609375l-0.015625 0.265625l-5.703125 0q0.125 1.1875 0.734375 1.796875q0.625 0.609375 1.46875 0.609375q0.59375 0 1.203125 -0.28125q0.609375 -0.28125 1.0 -0.78125l1.15625 1.15625q-1.3125 1.5625 -3.296875 1.5625zm1.40625 -5.59375q0 -0.546875 -0.21875 -1.015625q-0.203125 -0.46875 -0.609375 -0.734375q-0.390625 -0.28125 -0.90625 -0.28125q-0.765625 0 -1.265625 0.546875q-0.5 0.546875 -0.609375 1.484375l3.609375 0zm7.34375 -3.6875q1.71875 0 2.75 0.859375q1.046875 0.84375 1.046875 2.828125l0 5.296875l-2.0 0l0 -0.78125q-0.5 0.46875 -1.203125 0.75q-0.703125 0.265625 -1.515625 0.265625q-1.359375 0 -2.078125 -0.671875q-0.703125 -0.671875 -0.703125 -1.828125q0 -0.921875 0.578125 -1.578125q0.59375 -0.65625 1.703125 -1.0q1.109375 -0.34375 2.640625 -0.34375l0.640625 0q-0.09375 -1.140625 -0.5625 -1.625q-0.453125 -0.484375 -1.40625 -0.484375q-0.59375 0 -1.25 0.3125q-0.640625 0.3125 -1.1875 0.875l-1.0625 -1.375q0.8125 -0.734375 1.75 -1.109375q0.953125 -0.390625 1.859375 -0.390625zm-0.25 7.625q0.921875 0 1.453125 -0.578125q0.546875 -0.59375 0.65625 -1.859375l-0.421875 0q-1.59375 0 -2.34375 0.359375q-0.734375 0.34375 -0.734375 1.09375q0 0.5 0.359375 0.75q0.375 0.234375 1.03125 0.234375zm9.390625 1.640625q-1.03125 0 -1.875 -0.5q-0.84375 -0.515625 -1.34375 -1.53125q-0.484375 -1.015625 -0.484375 -2.46875q0 -1.421875 0.5 -2.484375q0.5 -1.0625 1.34375 -1.625q0.859375 -0.578125 1.84375 -0.578125q0.515625 0 1.078125 0.25q0.5625 0.25 0.9375 0.625l0 -4.5625l2.28125 0l0 0.21875q-0.109375 0.109375 -0.140625 0.25q-0.015625 0.125 0 0.421875l-0.046875 10.65625q0 0.3125 0.03125 0.5625q0.046875 0.234375 0.171875 0.484375l-2.03125 0q-0.125 -0.234375 -0.15625 -0.4375q-0.015625 -0.21875 -0.015625 -0.609375q-0.28125 0.65625 -0.875 1.0q-0.578125 0.328125 -1.21875 0.328125zm0.3125 -1.734375q1.703125 0 1.703125 -3.0q0 -1.265625 -0.359375 -2.0q-0.359375 -0.75 -1.296875 -0.75q-0.984375 0 -1.46875 0.828125q-0.484375 0.8125 -0.484375 2.125q0 0.96875 0.28125 1.609375q0.296875 0.625 0.71875 0.90625q0.4375 0.28125 0.90625 0.28125zm9.78125 1.75q-1.25 0 -2.234375 -0.546875q-0.984375 -0.546875 -1.546875 -1.5625q-0.5625 -1.03125 -0.5625 -2.421875q0 -1.40625 0.53125 -2.46875q0.53125 -1.0625 1.46875 -1.625q0.9375 -0.578125 2.125 -0.578125q1.046875 0 1.890625 0.5q0.84375 0.484375 1.328125 1.453125q0.5 0.953125 0.5 2.3125q0 0.21875 -0.046875 0.609375l-0.015625 0.265625l-5.703125 0q0.125 1.1875 0.734375 1.796875q0.625 0.609375 1.46875 0.609375q0.59375 0 1.203125 -0.28125q0.609375 -0.28125 1.0 -0.78125l1.15625 1.15625q-1.3125 1.5625 -3.296875 1.5625zm1.40625 -5.59375q0 -0.546875 -0.21875 -1.015625q-0.203125 -0.46875 -0.609375 -0.734375q-0.390625 -0.28125 -0.90625 -0.28125q-0.765625 0 -1.265625 0.546875q-0.5 0.546875 -0.609375 1.484375l3.609375 0zm10.703125 -0.765625l0 -0.015625q-0.359375 -0.5625 -0.765625 -0.796875q-0.390625 -0.25 -0.921875 -0.25q-0.671875 0 -1.21875 0.3125q-0.53125 0.3125 -0.84375 0.90625q-0.296875 0.578125 -0.296875 1.34375l0 4.5625l-2.109375 0l0 -8.703125l2.15625 0l0 1.25q0.34375 -0.6875 1.015625 -1.0625q0.671875 -0.390625 1.5 -0.390625q0.640625 0 1.28125 0.25q0.640625 0.234375 1.140625 0.71875l-0.9375 1.875zm-0.265625 0q0 0 0.015625 0q0.03125 0 0.09375 0.046875q0.0625 0.03125 0.109375 0.046875l-0.015625 0.03125l-0.1875 -0.09375l-0.015625 -0.03125zm0.265625 0q0.0625 0.09375 0.0625 0.125q0 0 -0.015625 0q-0.03125 0 -0.09375 -0.03125l0.046875 -0.09375z" fill-rule="nonzero"/><path fill="#000000" fill-opacity="0.0" d="m69.779526 356.6614l250.64568 0l0 39.62207l-250.64568 0z" fill-rule="evenodd"/><path fill="#000000" d="m82.685776 383.58142l0 -9.25l-2.0 0.59375l-0.5 -1.265625l3.15625 -1.703125l1.390625 0l0 11.625l-2.046875 0zm7.375 1.8125q1.25 -0.578125 2.140625 -1.5625q0.90625 -0.984375 1.375 -2.234375q0.484375 -1.25 0.484375 -2.609375q0 -2.078125 -1.015625 -3.703125q-1.0 -1.640625 -2.875 -2.59375l0.484375 -1.625q1.640625 0.6875 2.84375 1.90625q1.203125 1.203125 1.84375 2.75q0.65625 1.546875 0.65625 3.21875q0 1.6875 -0.671875 3.28125q-0.671875 1.578125 -1.90625 2.828125q-1.234375 1.25 -2.875 1.921875l-0.484375 -1.578125z" fill-rule="nonzero"/><path fill="#000000" d="m115.623276 375.92517q-0.171875 -0.015625 -0.484375 -0.015625q-0.890625 0 -1.484375 0.390625q0.3125 0.640625 0.3125 1.40625q0 0.84375 -0.375 1.53125q-0.359375 0.671875 -1.046875 1.0625q-0.671875 0.390625 -1.5625 0.390625q-0.71875 0 -1.328125 -0.265625q-0.328125 0.40625 -0.328125 0.78125q0 0.453125 0.5625 0.65625q0.5625 0.1875 2.046875 0.1875q1.8125 0 2.46875 0.5625q0.65625 0.546875 0.65625 1.609375q0 1.09375 -0.890625 1.828125q-0.890625 0.734375 -2.796875 0.734375q-1.828125 0 -2.875 -0.5625q-1.03125 -0.546875 -1.03125 -1.640625q0 -0.671875 0.375 -1.15625q0.375 -0.484375 0.953125 -0.765625q-0.609375 -0.40625 -0.609375 -1.125q0 -0.75 0.765625 -1.578125q-0.46875 -0.40625 -0.71875 -0.984375q-0.234375 -0.578125 -0.234375 -1.265625q0 -0.828125 0.359375 -1.5q0.359375 -0.6875 1.046875 -1.078125q0.6875 -0.390625 1.578125 -0.390625q1.359375 0 2.1875 0.875q0.4375 -0.40625 0.90625 -0.59375q0.484375 -0.203125 1.0625 -0.203125l0.3125 0.015625l0.171875 1.09375zm-4.640625 3.640625q0.796875 0 1.328125 -0.53125q0.53125 -0.546875 0.53125 -1.328125q0 -0.78125 -0.53125 -1.328125q-0.53125 -0.546875 -1.328125 -0.546875q-0.796875 0 -1.34375 0.546875q-0.53125 0.546875 -0.53125 1.328125q0 0.78125 0.53125 1.328125q0.546875 0.53125 1.34375 0.53125zm2.859375 4.859375q0 -0.453125 -0.171875 -0.703125q-0.15625 -0.25 -0.625 -0.375q-0.453125 -0.125 -1.390625 -0.125q-1.34375 0 -2.140625 -0.234375q-0.453125 0.296875 -0.640625 0.609375q-0.171875 0.3125 -0.171875 0.84375q0 0.640625 0.703125 0.984375q0.71875 0.359375 1.984375 0.359375q1.234375 0 1.84375 -0.375q0.609375 -0.359375 0.609375 -0.984375zm7.328125 -0.65625q-1.90625 0 -3.03125 -1.15625q-1.125 -1.15625 -1.125 -3.265625q0 -1.40625 0.515625 -2.421875q0.515625 -1.015625 1.40625 -1.546875q0.890625 -0.53125 1.984375 -0.53125q1.546875 0 2.5 1.03125q0.96875 1.03125 0.96875 3.015625q0 0.203125 -0.03125 0.625l-6.0625 0q0.078125 1.5625 0.875 2.375q0.796875 0.796875 2.03125 0.796875q1.34375 0 2.203125 -0.953125l0.75 0.71875q-1.078125 1.3125 -2.984375 1.3125zm1.859375 -5.296875q0 -1.203125 -0.609375 -1.890625q-0.59375 -0.703125 -1.59375 -0.703125q-0.921875 0 -1.625 0.65625q-0.6875 0.640625 -0.859375 1.9375l4.6875 0zm10.671875 4.328125q-1.234375 0.90625 -2.703125 0.90625q-1.421875 0 -2.015625 -0.84375q-0.578125 -0.859375 -0.578125 -2.8125q0 -0.3125 0.03125 -1.09375l0.171875 -2.796875l-1.875 0l0 -1.109375l1.953125 0l0.125 -2.265625l1.5 -0.25l0.1875 -0.015625l0.015625 0.109375q-0.125 0.1875 -0.203125 0.328125q-0.0625 0.125 -0.078125 0.40625l-0.203125 1.6875l2.828125 0l0 1.109375l-2.90625 0l-0.171875 2.890625q-0.03125 0.75 -0.03125 0.984375q0 1.5 0.34375 2.03125q0.34375 0.53125 1.109375 0.53125q0.5625 0 1.03125 -0.203125q0.46875 -0.21875 1.0625 -0.65625l0.40625 1.0625zm8.421875 4.03125q-1.53125 -0.71875 -2.6875 -1.953125q-1.15625 -1.21875 -1.78125 -2.765625q-0.625 -1.546875 -0.625 -3.203125q0 -1.640625 0.609375 -3.140625q0.609375 -1.515625 1.734375 -2.703125q1.140625 -1.1875 2.625 -1.890625l0.359375 1.15625q-1.828125 0.984375 -2.921875 2.78125q-1.09375 1.796875 -1.09375 3.859375q0 2.09375 1.125 3.921875q1.125 1.828125 3.0 2.8125l-0.34375 1.125zm2.71875 -3.25l3.171875 -5.9375l-3.109375 -5.703125l1.390625 0l2.453125 4.421875l2.40625 -4.421875l1.296875 0l-2.953125 5.6875l3.3125 5.953125l-1.484375 0l-2.5625 -4.609375l-2.5 4.609375l-1.421875 0zm11.640625 2.578125q0.515625 -0.484375 0.859375 -1.046875q0.359375 -0.5625 0.359375 -0.921875q0 -0.15625 -0.09375 -0.28125q-0.09375 -0.109375 -0.34375 -0.328125q-0.265625 -0.25 -0.390625 -0.40625q-0.125 -0.171875 -0.125 -0.421875q0 -0.453125 0.296875 -0.765625q0.3125 -0.328125 0.796875 -0.328125q0.5 0 0.875 0.4375q0.390625 0.4375 0.390625 1.109375q0 1.453125 -1.984375 3.515625l-0.640625 -0.5625zm20.546875 -2.375q-0.765625 0 -1.421875 -0.34375q-0.65625 -0.34375 -1.109375 -0.984375l-0.453125 1.125l-0.859375 0l0 -12.40625l1.53125 0l0 0.125q-0.125 0.125 -0.15625 0.25q-0.015625 0.125 -0.015625 0.453125l0 4.359375q0.40625 -0.6875 1.109375 -1.09375q0.703125 -0.421875 1.421875 -0.421875q1.609375 0 2.5625 1.125q0.953125 1.109375 0.953125 3.265625q0 1.453125 -0.515625 2.484375q-0.5 1.03125 -1.328125 1.546875q-0.8125 0.515625 -1.71875 0.515625zm-0.171875 -1.1875q1.0 0 1.671875 -0.796875q0.671875 -0.796875 0.671875 -2.484375q0 -1.640625 -0.625 -2.46875q-0.625 -0.84375 -1.6875 -0.84375q-1.046875 0 -1.703125 0.9375q-0.640625 0.9375 -0.640625 2.40625q0 3.25 2.3125 3.25zm6.0 0.984375l0 -1.078125l2.53125 0l0 -10.25l-2.421875 0l0 -1.078125l3.78125 0l0 11.328125l2.5 0l0 1.078125l-6.390625 0zm12.53125 0.15625q-1.140625 0 -2.046875 -0.5625q-0.890625 -0.5625 -1.390625 -1.5625q-0.5 -1.015625 -0.5 -2.296875q0 -1.296875 0.5 -2.296875q0.5 -1.015625 1.390625 -1.578125q0.90625 -0.578125 2.046875 -0.578125q1.125 0 2.015625 0.578125q0.90625 0.5625 1.40625 1.578125q0.5 1.0 0.5 2.296875q0 1.28125 -0.5 2.296875q-0.5 1.0 -1.40625 1.5625q-0.890625 0.5625 -2.015625 0.5625zm0 -1.125q0.71875 0 1.28125 -0.421875q0.578125 -0.4375 0.90625 -1.1875q0.328125 -0.765625 0.328125 -1.71875q0 -1.453125 -0.71875 -2.375q-0.703125 -0.921875 -1.796875 -0.921875q-1.109375 0 -1.828125 0.921875q-0.703125 0.921875 -0.703125 2.375q0 0.953125 0.328125 1.71875q0.328125 0.75 0.890625 1.1875q0.578125 0.421875 1.3125 0.421875zm10.046875 -0.03125q1.28125 0 2.21875 -1.046875l0.78125 0.90625q-1.25 1.34375 -3.078125 1.34375q-1.234375 0 -2.203125 -0.578125q-0.96875 -0.578125 -1.515625 -1.59375q-0.546875 -1.015625 -0.546875 -2.28125q0 -1.265625 0.546875 -2.265625q0.546875 -1.015625 1.515625 -1.59375q0.96875 -0.578125 2.1875 -0.578125q1.03125 0 1.859375 0.421875q0.84375 0.40625 1.375 1.15625l-0.84375 0.828125l-0.015625 0.015625q-0.546875 -0.71875 -1.125 -1.0q-0.5625 -0.296875 -1.390625 -0.296875q-0.734375 0 -1.359375 0.40625q-0.625 0.40625 -1.0 1.140625q-0.375 0.71875 -0.375 1.671875q0 0.953125 0.375 1.71875q0.390625 0.765625 1.0625 1.203125q0.6875 0.421875 1.53125 0.421875zm2.078125 -5.25q0 -0.109375 0.15625 0.015625l-0.0625 0.078125l-0.09375 -0.09375zm0.203125 -0.015625q0.09375 0.125 0.046875 0.09375q-0.046875 -0.046875 -0.09375 -0.0625l0.046875 -0.03125zm5.375 2.0l-1.125 1.03125l0 3.234375l-1.359375 0l0 -12.40625l1.53125 0l0 0.125q-0.109375 0.125 -0.140625 0.25q-0.03125 0.125 -0.03125 0.453125l0 6.96875l4.265625 -3.953125q0.46875 0.09375 1.0 0.09375l0.484375 0l-3.59375 3.375l4.1875 5.09375l-1.734375 0.078125l-3.484375 -4.34375zm6.453125 -2.765625l0 -1.140625l7.65625 0l0 1.140625l-7.65625 0zm0 2.921875l0 -1.140625l7.65625 0l0 1.140625l-7.65625 0zm12.359375 4.109375l0 -10.46875l-3.296875 0l0 -1.171875l8.0625 0l0 1.171875l-3.4375 0l0 10.46875l-1.328125 0zm13.40625 -6.75l0 0.015625q-0.546875 -0.5 -0.921875 -0.671875q-0.359375 -0.171875 -0.84375 -0.171875q-0.671875 0 -1.265625 0.34375q-0.59375 0.328125 -0.96875 1.015625q-0.375 0.671875 -0.375 1.703125l0 4.53125l-1.359375 0l0 -8.546875l1.40625 0l-0.046875 1.578125q0.359375 -0.84375 1.09375 -1.3125q0.734375 -0.46875 1.609375 -0.46875q1.375 0 2.265625 0.9375l-0.59375 1.046875zm0 0.015625q0.125 0.109375 0.0625 0.09375q-0.0625 -0.015625 -0.109375 -0.03125l0.046875 -0.0625zm-0.203125 0.0625q0 -0.0625 0.046875 -0.046875q0.0625 0 0.109375 0.046875l-0.03125 0.09375l-0.125 -0.078125l0 -0.015625zm5.703125 6.875q-1.34375 0 -2.15625 -1.0q-0.796875 -1.0 -0.78125 -2.96875l0.03125 -4.765625l1.296875 0l0 4.765625q0 1.53125 0.53125 2.21875q0.53125 0.671875 1.40625 0.671875q0.96875 0 1.625 -0.75q0.671875 -0.765625 0.671875 -2.203125l0 -4.703125l1.3125 0l0 7.203125q0 0.453125 0.015625 0.75q0.03125 0.28125 0.171875 0.578125l-1.296875 0q-0.125 -0.28125 -0.15625 -0.578125q-0.03125 -0.296875 -0.03125 -0.734375q-0.40625 0.71875 -1.109375 1.125q-0.6875 0.390625 -1.53125 0.390625zm10.281265 -0.015625q-1.90625 0 -3.03125 -1.15625q-1.125 -1.15625 -1.125 -3.265625q0 -1.40625 0.515625 -2.421875q0.515625 -1.015625 1.40625 -1.546875q0.890625 -0.53125 1.984375 -0.53125q1.546875 0 2.5 1.03125q0.96875 1.03125 0.96875 3.015625q0 0.203125 -0.03125 0.625l-6.0625 0q0.078125 1.5625 0.875 2.375q0.796875 0.796875 2.03125 0.796875q1.34375 0 2.203125 -0.953125l0.75 0.71875q-1.078125 1.3125 -2.984375 1.3125zm1.859375 -5.296875q0 -1.203125 -0.609375 -1.890625q-0.59375 -0.703125 -1.59375 -0.703125q-0.921875 0 -1.625 0.65625q-0.6875 0.640625 -0.859375 1.9375l4.6875 0zm4.515625 7.234375q1.890625 -0.984375 3.0 -2.8125q1.125 -1.828125 1.125 -3.921875q0 -2.0625 -1.09375 -3.859375q-1.09375 -1.796875 -2.921875 -2.78125l0.359375 -1.15625q1.484375 0.703125 2.609375 1.890625q1.140625 1.1875 1.75 2.703125q0.625 1.5 0.625 3.140625q0 1.65625 -0.625 3.203125q-0.625 1.546875 -1.78125 2.765625q-1.15625 1.234375 -2.6875 1.953125l-0.359375 -1.125z" fill-rule="nonzero"/><path fill="#000000" fill-opacity="0.0" d="m195.10236 356.6614c0 -4.782715 27.771652 -5.486725 55.54332 -9.56546c27.771652 -4.0787354 55.54329 -11.532227 55.54329 -23.064453" fill-rule="evenodd"/><path stroke="#000000" stroke-width="1.0" stroke-linejoin="round" stroke-linecap="butt" d="m195.10236 356.6614c0 -4.782715 27.771652 -5.4866943 55.54332 -9.56543c13.8858185 -2.0393982 27.771652 -4.922455 38.18602 -8.737183c5.207184 -1.9073792 9.546509 -4.0476685 12.584015 -6.431885c0.7593994 -0.59606934 1.4374084 -1.207367 2.0272827 -1.8340759c0.14746094 -0.15667725 0.2894287 -0.31430054 0.42578125 -0.4729309l0.034332275 -0.040893555" fill-rule="evenodd"/><path fill="#000000" stroke="#000000" stroke-width="1.0" stroke-linecap="butt" d="m305.43027 330.20828l0.20175171 -4.8251343l-3.256073 3.5665894z" fill-rule="evenodd"/><path fill="#000000" fill-opacity="0.0" d="m334.27298 138.30052c0 -15.346451 -14.126007 -23.019684 -28.251984 -30.69291c-14.125977 -7.673233 -28.251953 -15.346458 -28.251953 -30.692917" fill-rule="evenodd"/><path stroke="#000000" stroke-width="1.0" stroke-linejoin="round" stroke-linecap="butt" d="m334.27298 138.30052c0 -15.346451 -14.126007 -23.019684 -28.251984 -30.69291c-7.0629883 -3.8366165 -14.125977 -7.673233 -19.423218 -12.468994c-2.6486206 -2.3978882 -4.8558044 -5.0355606 -6.4008484 -8.032913c-0.386261 -0.7493439 -0.73114014 -1.5211563 -1.0311584 -2.3173294c-0.15002441 -0.39808655 -0.28884888 -0.80226135 -0.41601562 -1.2127609c-0.06359863 -0.20524597 -0.12426758 -0.41207886 -0.18197632 -0.6205139l-0.02432251 -0.09059143" fill-rule="evenodd"/><path fill="#000000" stroke="#000000" stroke-width="1.0" stroke-linecap="butt" d="m280.18137 82.65132l-2.2236633 -4.286949l-1.052185 4.7133255z" fill-rule="evenodd"/><path fill="#000000" fill-opacity="0.0" d="m403.4882 76.914696c0 15.346458 -14.125977 23.019684 -28.251984 30.692917c-14.125977 7.6732254 -28.251953 15.346458 -28.251953 30.69291" fill-rule="evenodd"/><path stroke="#000000" stroke-width="1.0" stroke-linejoin="round" stroke-linecap="butt" stroke-dasharray="4.0,3.0" d="m403.4882 76.914696c0 15.346458 -14.125977 23.019684 -28.251984 30.692917c-7.0629883 3.8366165 -14.125977 7.6732254 -19.423218 12.468994c-2.6486206 2.3978882 -4.8558044 5.0355606 -6.400818 8.032906c-0.386261 0.7493439 -0.73114014 1.521164 -1.031189 2.317337c-0.15002441 0.39808655 -0.28881836 0.80226135 -0.41601562 1.2127533c-0.063568115 0.20526123 -0.12423706 0.41207886 -0.1819458 0.6205139l-0.024353027 0.09059143" fill-rule="evenodd"/><path fill="#000000" stroke="#000000" stroke-width="1.0" stroke-linecap="butt" d="m346.12076 132.13753l1.052185 4.713318l2.2236328 -4.2869415z" fill-rule="evenodd"/><path fill="#000000" fill-opacity="0.0" d="m384.92914 185.03412c12.5 0 24.992126 26.590546 25.0 53.181107c0.007873535 26.59056 -12.468506 53.181107 -24.937012 53.181107" fill-rule="evenodd"/><path stroke="#000000" stroke-width="1.0" stroke-linejoin="round" stroke-linecap="butt" stroke-dasharray="4.0,3.0" d="m384.92914 185.03412c12.5 0 24.992126 26.590546 25.0 53.181107c0.0039367676 13.295273 -3.1131897 26.59056 -7.789856 36.561996c-2.3383484 4.9857483 -5.066559 9.140503 -7.989502 12.048859c-0.7307434 0.7270813 -1.4736023 1.3762512 -2.225647 1.9410706c-0.37597656 0.28237915 -0.75427246 0.54367065 -1.134491 0.78308105l-0.074035645 0.04550171" fill-rule="evenodd"/><path fill="#000000" stroke="#000000" stroke-width="1.0" stroke-linecap="butt" d="m390.21988 288.02014l-3.8332214 2.9374695l4.824585 0.2137146z" fill-rule="evenodd"/><path fill="#000000" fill-opacity="0.0" d="m292.67584 291.4042c-12.5 0 -25.007874 -26.590546 -25.0 -53.181107c0.007873535 -26.590546 12.531494 -53.181107 25.062988 -53.181107" fill-rule="evenodd"/><path stroke="#000000" stroke-width="1.0" stroke-linejoin="round" stroke-linecap="butt" d="m292.67584 291.4042c-12.5 0 -25.007874 -26.590546 -25.0 -53.181107c0.0039367676 -13.295273 3.1368103 -26.590546 7.835144 -36.56201c2.3491821 -4.985733 5.089691 -9.140503 8.026154 -12.048843c0.73410034 -0.72706604 1.4804688 -1.3762665 2.236023 -1.9410706c0.3777771 -0.28237915 0.757843 -0.54367065 1.1398315 -0.7830658l0.09790039 -0.05987549" fill-rule="evenodd"/><path fill="#000000" stroke="#000000" stroke-width="1.0" stroke-linecap="butt" d="m287.50262 188.40508l3.8406067 -2.9278564l-4.824066 -0.22581482z" fill-rule="evenodd"/><path fill="#000000" fill-opacity="0.0" d="m745.3989 213.62466l-379.27557 0l0 39.622055l379.27557 0z" fill-rule="evenodd"/><path fill="#000000" d="m431.49554 234.35716q0.796875 0.28125 1.359375 1.03125q0.5625 0.734375 0.5625 1.890625q0 1.015625 -0.46875 1.84375q-0.46875 0.828125 -1.359375 1.3125q-0.890625 0.46875 -2.09375 0.46875q-2.390625 0 -3.640625 -1.578125l0.875 -1.734375l0 0l0.015625 0.015625q0.40625 0.78125 1.0625 1.140625q0.671875 0.34375 1.703125 0.34375q0.859375 0 1.328125 -0.515625q0.484375 -0.515625 0.484375 -1.375q0 -0.9375 -0.53125 -1.390625q-0.515625 -0.46875 -1.765625 -0.46875q-0.4375 0 -0.96875 0.0625l0 -1.6875q0.140625 0 0.390625 0q1.4375 0 2.0 -0.453125q0.5625 -0.46875 0.5625 -1.296875q0 -0.671875 -0.40625 -1.09375q-0.390625 -0.421875 -1.109375 -0.421875q-0.625 0 -1.171875 0.21875q-0.53125 0.21875 -1.109375 0.75l-1.171875 -1.203125q0.671875 -0.78125 1.546875 -1.171875q0.890625 -0.390625 1.890625 -0.390625q1.0625 0 1.875 0.40625q0.828125 0.40625 1.28125 1.109375q0.46875 0.703125 0.46875 1.578125q0 0.9375 -0.484375 1.625q-0.46875 0.671875 -1.125 0.984375zm-4.765625 3.234375q-0.03125 -0.078125 -0.03125 -0.125q0 -0.015625 0.015625 -0.015625q0.015625 0 0.078125 0.03125l-0.0625 0.109375zm0.265625 -0.03125q0 0.015625 0 0.015625q-0.03125 0 -0.109375 -0.03125q-0.0625 -0.046875 -0.09375 -0.0625l0 -0.03125l0.203125 0.09375l0 0.015625zm8.25 -8.640625l3.515625 0q2.046875 0 3.046875 0.8125q1.015625 0.796875 1.015625 2.1875q0 0.703125 -0.390625 1.375q-0.375 0.65625 -1.015625 1.015625q0.53125 0.265625 0.953125 0.71875q0.4375 0.4375 0.671875 1.0q0.25 0.546875 0.25 1.09375q0 1.59375 -1.140625 2.515625q-1.140625 0.90625 -3.40625 0.90625l-3.5 0l0 -11.625zm3.359375 4.53125q1.125 0 1.625 -0.375q0.5 -0.390625 0.5 -1.046875q0 -0.359375 -0.21875 -0.671875q-0.21875 -0.328125 -0.65625 -0.515625q-0.4375 -0.1875 -1.0625 -0.1875l-1.46875 0l0 2.796875l1.28125 0zm0.34375 5.3125q1.046875 0 1.59375 -0.375q0.5625 -0.390625 0.5625 -1.3125q0 -0.875 -0.59375 -1.390625q-0.59375 -0.53125 -1.859375 -0.53125l-1.328125 0l0 3.609375l1.625 0zm6.828125 3.59375q1.25 -0.578125 2.140625 -1.5625q0.90625 -0.984375 1.375 -2.234375q0.484375 -1.25 0.484375 -2.609375q0 -2.078125 -1.015625 -3.703125q-1.0 -1.640625 -2.875 -2.59375l0.484375 -1.625q1.640625 0.6875 2.84375 1.90625q1.203125 1.203125 1.84375 2.75q0.65625 1.546875 0.65625 3.21875q0 1.6875 -0.671875 3.28125q-0.671875 1.578125 -1.90625 2.828125q-1.234375 1.25 -2.875 1.921875l-0.484375 -1.578125z" fill-rule="nonzero"/><path fill="#000000" d="m470.5893 230.18529l-0.015625 0.03125q-0.515625 -0.65625 -0.890625 -0.875q-0.359375 -0.234375 -1.015625 -0.234375q-0.875 0 -1.375 0.53125q-0.5 0.515625 -0.5 1.671875l0 0.703125l2.796875 0l0 1.0625l-2.796875 0l0 7.46875l-1.296875 0l0 -7.46875l-1.84375 0l0 -1.0625l1.84375 0l0 -0.703125q0 -1.640625 0.84375 -2.453125q0.859375 -0.828125 2.296875 -0.828125q0.828125 0 1.515625 0.296875q0.703125 0.296875 1.15625 0.875l-0.71875 0.984375zm-0.21875 0.0625q0 -0.0625 0.078125 -0.015625q0.078125 0.03125 0.09375 0.03125l-0.0625 0.078125l-0.109375 -0.078125l0 -0.015625zm0.203125 -0.03125q0.109375 0.140625 0.046875 0.09375q-0.0625 -0.046875 -0.078125 -0.046875l0.03125 -0.046875zm5.359375 10.53125q-1.34375 0 -2.15625 -1.0q-0.796875 -1.0 -0.78125 -2.96875l0.03125 -4.765625l1.296875 0l0 4.765625q0 1.53125 0.53125 2.21875q0.53125 0.671875 1.40625 0.671875q0.96875 0 1.625 -0.75q0.671875 -0.765625 0.671875 -2.203125l0 -4.703125l1.3125 0l0 7.203125q0 0.453125 0.015625 0.75q0.03125 0.28125 0.171875 0.578125l-1.296875 0q-0.125 -0.28125 -0.15625 -0.578125q-0.03125 -0.296875 -0.03125 -0.734375q-0.40625 0.71875 -1.109375 1.125q-0.6875 0.390625 -1.53125 0.390625zm6.671875 -0.203125l0 -1.078125l2.53125 0l0 -10.25l-2.421875 0l0 -1.078125l3.78125 0l0 11.328125l2.5 0l0 1.078125l-6.390625 0zm15.96875 -10.359375l-0.015625 0.03125q-0.515625 -0.65625 -0.890625 -0.875q-0.359375 -0.234375 -1.015625 -0.234375q-0.875 0 -1.375 0.53125q-0.5 0.515625 -0.5 1.671875l0 0.703125l2.796875 0l0 1.0625l-2.796875 0l0 7.46875l-1.296875 0l0 -7.46875l-1.84375 0l0 -1.0625l1.84375 0l0 -0.703125q0 -1.640625 0.84375 -2.453125q0.859375 -0.828125 2.296875 -0.828125q0.828125 0 1.515625 0.296875q0.703125 0.296875 1.15625 0.875l-0.71875 0.984375zm-0.21875 0.0625q0 -0.0625 0.078125 -0.015625q0.078125 0.03125 0.09375 0.03125l-0.0625 0.078125l-0.109375 -0.078125l0 -0.015625zm0.203125 -0.03125q0.109375 0.140625 0.046875 0.09375q-0.0625 -0.046875 -0.078125 -0.046875l0.03125 -0.046875zm3.09375 10.328125l0 -1.078125l2.1875 0l0 -6.359375l-2.0625 0l0 -1.09375l3.40625 0l0 7.453125l2.0 0l0 1.078125l-5.53125 0zm2.78125 -10.3125q-0.390625 0 -0.671875 -0.28125q-0.28125 -0.28125 -0.28125 -0.671875q0 -0.40625 0.265625 -0.6875q0.28125 -0.28125 0.6875 -0.28125q0.390625 0 0.671875 0.296875q0.296875 0.28125 0.296875 0.671875q0 0.390625 -0.296875 0.671875q-0.28125 0.28125 -0.671875 0.28125zm6.15625 10.3125l0 -1.078125l2.53125 0l0 -10.25l-2.421875 0l0 -1.078125l3.78125 0l0 11.328125l2.5 0l0 1.078125l-6.390625 0zm9.328125 0l0 -1.078125l2.53125 0l0 -10.25l-2.421875 0l0 -1.078125l3.78125 0l0 11.328125l2.5 0l0 1.078125l-6.390625 0zm8.515625 1.5l0 -1.140625l8.03125 0l0 1.140625l-8.03125 0zm16.625 -8.25l0 0.015625q-0.546875 -0.5 -0.921875 -0.671875q-0.359375 -0.171875 -0.84375 -0.171875q-0.671875 0 -1.265625 0.34375q-0.59375 0.328125 -0.96875 1.015625q-0.375 0.671875 -0.375 1.703125l0 4.53125l-1.359375 0l0 -8.546875l1.40625 0l-0.046875 1.578125q0.359375 -0.84375 1.09375 -1.3125q0.734375 -0.46875 1.609375 -0.46875q1.375 0 2.265625 0.9375l-0.59375 1.046875zm0 0.015625q0.125 0.109375 0.0625 0.09375q-0.0625 -0.015625 -0.109375 -0.03125l0.046875 -0.0625zm-0.203125 0.0625q0 -0.0625 0.046875 -0.046875q0.0625 0 0.109375 0.046875l-0.03125 0.09375l-0.125 -0.078125l0 -0.015625zm6.65625 6.859375q-1.90625 0 -3.03125 -1.15625q-1.125 -1.15625 -1.125 -3.265625q0 -1.40625 0.515625 -2.421875q0.515625 -1.015625 1.40625 -1.546875q0.890625 -0.53125 1.984375 -0.53125q1.546875 0 2.5 1.03125q0.96875 1.03125 0.96875 3.015625q0 0.203125 -0.03125 0.625l-6.0625 0q0.078125 1.5625 0.875 2.375q0.796875 0.796875 2.03125 0.796875q1.34375 0 2.203125 -0.953125l0.75 0.71875q-1.078125 1.3125 -2.984375 1.3125zm1.859375 -5.296875q0 -1.203125 -0.609375 -1.890625q-0.59375 -0.703125 -1.59375 -0.703125q-0.921875 0 -1.625 0.65625q-0.6875 0.640625 -0.859375 1.9375l4.6875 0zm3.515625 -3.421875l1.359375 0l0 1.6875q0.28125 -0.9375 0.96875 -1.40625q0.6875 -0.46875 1.625 -0.46875q0.96875 0 1.78125 0.5q0.8125 0.5 1.296875 1.484375q0.484375 0.984375 0.484375 2.40625q0 1.4375 -0.515625 2.46875q-0.5 1.03125 -1.328125 1.5625q-0.828125 0.515625 -1.765625 0.515625q-0.765625 0 -1.4375 -0.34375q-0.671875 -0.359375 -1.09375 -1.0l0 4.234375l-1.375 0l0 -11.640625zm3.6875 7.5625q1.03125 0 1.71875 -0.765625q0.703125 -0.78125 0.703125 -2.53125q0 -1.59375 -0.625 -2.4375q-0.609375 -0.859375 -1.734375 -0.859375q-1.0625 0 -1.734375 0.890625q-0.65625 0.890625 -0.65625 2.703125q0.03125 1.46875 0.640625 2.234375q0.625 0.765625 1.6875 0.765625zm5.984375 0.96875l0 -1.078125l2.53125 0l0 -10.25l-2.421875 0l0 -1.078125l3.78125 0l0 11.328125l2.5 0l0 1.078125l-6.390625 0zm12.40625 -8.71875q1.828125 0 2.78125 0.953125q0.96875 0.953125 0.96875 3.234375l0 4.53125l-1.453125 0l0 -1.3125q-0.78125 1.515625 -2.90625 1.515625q-1.421875 0 -2.21875 -0.640625q-0.796875 -0.640625 -0.796875 -1.703125q0 -0.90625 0.578125 -1.578125q0.578125 -0.671875 1.546875 -1.03125q0.984375 -0.359375 2.15625 -0.359375q1.0625 0 1.921875 0.109375q-0.109375 -1.4375 -0.75 -2.015625q-0.640625 -0.59375 -1.921875 -0.59375q-0.625 0 -1.21875 0.25q-0.578125 0.234375 -1.0625 0.703125l-0.65625 -0.859375q1.1875 -1.203125 3.03125 -1.203125zm-0.484375 7.890625q1.390625 0 2.1875 -0.796875q0.796875 -0.8125 0.875 -2.34375q-0.84375 -0.140625 -1.8125 -0.140625q-1.40625 0 -2.234375 0.46875q-0.828125 0.46875 -0.828125 1.421875q0 1.390625 1.8125 1.390625zm13.53125 -7.703125q-0.109375 0.765625 -0.34375 1.515625q-0.234375 0.75 -0.671875 1.984375l-2.125 6.0q-0.421875 1.203125 -1.109375 1.734375q-0.6875 0.546875 -1.640625 0.546875q-1.203125 0 -1.96875 -0.734375l0.578125 -0.90625l0.015625 -0.03125l0.03125 0.03125q0.296875 0.28125 0.625 0.40625q0.34375 0.125 0.78125 0.125q0.703125 0 1.109375 -0.484375q0.40625 -0.484375 0.796875 -1.59375l-3.484375 -8.59375l1.390625 0l2.65625 6.828125l1.125 -3.421875q0.40625 -1.296875 0.59375 -1.96875q0.203125 -0.6875 0.296875 -1.4375l1.34375 0zm-7.046875 10.0625q0 0.03125 -0.046875 0.03125l-0.140625 -0.03125l0.0625 -0.09375l0.125 0.078125l0 0.015625zm-0.21875 0.046875q-0.078125 -0.078125 -0.046875 -0.0625q0.046875 0.015625 0.078125 0.015625l-0.03125 0.046875zm15.703125 1.671875q-1.53125 -0.71875 -2.6875 -1.953125q-1.15625 -1.21875 -1.78125 -2.765625q-0.625 -1.546875 -0.625 -3.203125q0 -1.640625 0.609375 -3.140625q0.609375 -1.515625 1.734375 -2.703125q1.140625 -1.1875 2.625 -1.890625l0.359375 1.15625q-1.828125 0.984375 -2.921875 2.78125q-1.09375 1.796875 -1.09375 3.859375q0 2.09375 1.125 3.921875q1.125 1.828125 3.0 2.8125l-0.34375 1.125zm2.71875 -3.25l3.171875 -5.9375l-3.109375 -5.703125l1.390625 0l2.453125 4.421875l2.40625 -4.421875l1.296875 0l-2.953125 5.6875l3.3125 5.953125l-1.484375 0l-2.5625 -4.609375l-2.5 4.609375l-1.421875 0zm11.640625 2.578125q0.515625 -0.484375 0.859375 -1.046875q0.359375 -0.5625 0.359375 -0.921875q0 -0.15625 -0.09375 -0.28125q-0.09375 -0.109375 -0.34375 -0.328125q-0.265625 -0.25 -0.390625 -0.40625q-0.125 -0.171875 -0.125 -0.421875q0 -0.453125 0.296875 -0.765625q0.3125 -0.328125 0.796875 -0.328125q0.5 0 0.875 0.4375q0.390625 0.4375 0.390625 1.109375q0 1.453125 -1.984375 3.515625l-0.640625 -0.5625zm24.0625 -11.109375q-0.296875 1.515625 -1.25 3.734375l-2.0625 4.796875l-1.046875 0l-3.375 -8.53125l1.34375 0l2.625 6.6875l1.375 -3.15625q0.859375 -1.9375 1.125 -3.53125l1.265625 0zm5.390625 -0.1875q1.828125 0 2.78125 0.953125q0.96875 0.953125 0.96875 3.234375l0 4.53125l-1.453125 0l0 -1.3125q-0.78125 1.515625 -2.90625 1.515625q-1.421875 0 -2.21875 -0.640625q-0.796875 -0.640625 -0.796875 -1.703125q0 -0.90625 0.578125 -1.578125q0.578125 -0.671875 1.546875 -1.03125q0.984375 -0.359375 2.15625 -0.359375q1.0625 0 1.921875 0.109375q-0.109375 -1.4375 -0.75 -2.015625q-0.640625 -0.59375 -1.921875 -0.59375q-0.625 0 -1.21875 0.25q-0.578125 0.234375 -1.0625 0.703125l-0.65625 -0.859375q1.1875 -1.203125 3.03125 -1.203125zm-0.484375 7.890625q1.390625 0 2.1875 -0.796875q0.796875 -0.8125 0.875 -2.34375q-0.84375 -0.140625 -1.8125 -0.140625q-1.40625 0 -2.234375 0.46875q-0.828125 0.46875 -0.828125 1.421875q0 1.390625 1.8125 1.390625zm6.734375 0.828125l0 -1.078125l2.53125 0l0 -10.25l-2.421875 0l0 -1.078125l3.78125 0l0 11.328125l2.5 0l0 1.078125l-6.390625 0zm11.984375 0.203125q-1.34375 0 -2.15625 -1.0q-0.796875 -1.0 -0.78125 -2.96875l0.03125 -4.765625l1.296875 0l0 4.765625q0 1.53125 0.53125 2.21875q0.53125 0.671875 1.40625 0.671875q0.96875 0 1.625 -0.75q0.671875 -0.765625 0.671875 -2.203125l0 -4.703125l1.3125 0l0 7.203125q0 0.453125 0.015625 0.75q0.03125 0.28125 0.171875 0.578125l-1.296875 0q-0.125 -0.28125 -0.15625 -0.578125q-0.03125 -0.296875 -0.03125 -0.734375q-0.40625 0.71875 -1.109375 1.125q-0.6875 0.390625 -1.53125 0.390625zm10.28125 -0.015625q-1.90625 0 -3.03125 -1.15625q-1.125 -1.15625 -1.125 -3.265625q0 -1.40625 0.515625 -2.421875q0.515625 -1.015625 1.40625 -1.546875q0.890625 -0.53125 1.984375 -0.53125q1.546875 0 2.5 1.03125q0.96875 1.03125 0.96875 3.015625q0 0.203125 -0.03125 0.625l-6.0625 0q0.078125 1.5625 0.875 2.375q0.796875 0.796875 2.03125 0.796875q1.34375 0 2.203125 -0.953125l0.75 0.71875q-1.078125 1.3125 -2.984375 1.3125zm1.859375 -5.296875q0 -1.203125 -0.609375 -1.890625q-0.59375 -0.703125 -1.59375 -0.703125q-0.921875 0 -1.625 0.65625q-0.6875 0.640625 -0.859375 1.9375l4.6875 0zm4.515625 7.234375q1.890625 -0.984375 3.0 -2.8125q1.125 -1.828125 1.125 -3.921875q0 -2.0625 -1.09375 -3.859375q-1.09375 -1.796875 -2.921875 -2.78125l0.359375 -1.15625q1.484375 0.703125 2.609375 1.890625q1.140625 1.1875 1.75 2.703125q0.625 1.5 0.625 3.140625q0 1.65625 -0.625 3.203125q-0.625 1.546875 -1.78125 2.765625q-1.15625 1.234375 -2.6875 1.953125l-0.359375 -1.125z" fill-rule="nonzero"/><path fill="#000000" fill-opacity="0.0" d="m662.34515 98.67716l-293.41733 0l0 39.622047l293.41733 0z" fill-rule="evenodd"/><path fill="#000000" d="m391.37085 119.40966q0.796875 0.28125 1.359375 1.03125q0.5625 0.734375 0.5625 1.890625q0 1.015625 -0.46875 1.84375q-0.46875 0.828125 -1.359375 1.3125q-0.890625 0.46875 -2.09375 0.46875q-2.390625 0 -3.640625 -1.578125l0.875 -1.734375l0 0l0.015625 0.015625q0.40625 0.78125 1.0625 1.140625q0.671875 0.34375 1.703125 0.34375q0.859375 0 1.328125 -0.515625q0.484375 -0.515625 0.484375 -1.375q0 -0.9375 -0.53125 -1.390625q-0.515625 -0.46875 -1.765625 -0.46875q-0.4375 0 -0.96875 0.0625l0 -1.6875q0.140625 0 0.390625 0q1.4375 0 2.0 -0.453125q0.5625 -0.46875 0.5625 -1.296875q0 -0.671875 -0.40625 -1.09375q-0.390625 -0.421875 -1.109375 -0.421875q-0.625 0 -1.171875 0.21875q-0.53125 0.21875 -1.109375 0.75l-1.171875 -1.203125q0.671875 -0.78125 1.546875 -1.171875q0.890625 -0.390625 1.890625 -0.390625q1.0625 0 1.875 0.40625q0.828125 0.40625 1.28125 1.109375q0.46875 0.703125 0.46875 1.578125q0 0.9375 -0.484375 1.625q-0.46875 0.671875 -1.125 0.984375zm-4.765625 3.234375q-0.03125 -0.078125 -0.03125 -0.125q0 -0.015625 0.015625 -0.015625q0.015625 0 0.078125 0.03125l-0.0625 0.109375zm0.265625 -0.03125q0 0.015625 0 0.015625q-0.03125 0 -0.109375 -0.03125q-0.0625 -0.046875 -0.09375 -0.0625l0 -0.03125l0.203125 0.09375l0 0.015625zm14.484375 2.984375l-0.828125 -3.0l-2.984375 0l-0.84375 3.0l-2.140625 0l3.875 -11.625l1.21875 0l3.890625 11.625l-2.1875 0zm-3.390625 -4.453125l2.15625 0l-1.0625 -3.859375l-1.09375 3.859375zm7.6875 6.265625q1.25 -0.578125 2.140625 -1.5625q0.90625 -0.984375 1.375 -2.234375q0.484375 -1.25 0.484375 -2.609375q0 -2.078125 -1.015625 -3.703125q-1.0 -1.640625 -2.875 -2.59375l0.484375 -1.625q1.640625 0.6875 2.84375 1.90625q1.203125 1.203125 1.84375 2.75q0.65625 1.546875 0.65625 3.21875q0 1.6875 -0.671875 3.28125q-0.671875 1.578125 -1.90625 2.828125q-1.234375 1.2500076 -2.875 1.9218826l-0.484375 -1.5781326z" fill-rule="nonzero"/><path fill="#000000" d="m430.4646 115.237785l-0.015625 0.03125q-0.515625 -0.65625 -0.890625 -0.875q-0.359375 -0.234375 -1.015625 -0.234375q-0.875 0 -1.375 0.53125q-0.5 0.515625 -0.5 1.671875l0 0.703125l2.796875 0l0 1.0625l-2.796875 0l0 7.46875l-1.296875 0l0 -7.46875l-1.84375 0l0 -1.0625l1.84375 0l0 -0.703125q0 -1.640625 0.84375 -2.453125q0.859375 -0.828125 2.296875 -0.828125q0.828125 0 1.515625 0.296875q0.703125 0.296875 1.15625 0.875l-0.71875 0.984375zm-0.21875 0.0625q0 -0.0625 0.078125 -0.015625q0.078125 0.03125 0.09375 0.03125l-0.0625 0.078125l-0.109375 -0.078125l0 -0.015625zm0.203125 -0.03125q0.109375 0.140625 0.046875 0.09375q-0.0625 -0.046875 -0.078125 -0.046875l0.03125 -0.046875zm5.359375 10.53125q-1.34375 0 -2.15625 -1.0q-0.796875 -1.0 -0.78125 -2.96875l0.03125 -4.765625l1.296875 0l0 4.765625q0 1.53125 0.53125 2.21875q0.53125 0.671875 1.40625 0.671875q0.96875 0 1.625 -0.75q0.671875 -0.765625 0.671875 -2.203125l0 -4.703125l1.3125 0l0 7.203125q0 0.453125 0.015625 0.75q0.03125 0.28125 0.171875 0.578125l-1.296875 0q-0.125 -0.28125 -0.15625 -0.578125q-0.03125 -0.296875 -0.03125 -0.734375q-0.40625 0.71875 -1.109375 1.125q-0.6875 0.390625 -1.53125 0.390625zm6.671875 -0.203125l0 -1.078125l2.53125 0l0 -10.25l-2.421875 0l0 -1.078125l3.78125 0l0 11.328125l2.5 0l0 1.078125l-6.390625 0zm15.96875 -10.359375l-0.015625 0.03125q-0.515625 -0.65625 -0.890625 -0.875q-0.359375 -0.234375 -1.015625 -0.234375q-0.875 0 -1.375 0.53125q-0.5 0.515625 -0.5 1.671875l0 0.703125l2.796875 0l0 1.0625l-2.796875 0l0 7.46875l-1.296875 0l0 -7.46875l-1.84375 0l0 -1.0625l1.84375 0l0 -0.703125q0 -1.640625 0.84375 -2.453125q0.859375 -0.828125 2.296875 -0.828125q0.828125 0 1.515625 0.296875q0.703125 0.296875 1.15625 0.875l-0.71875 0.984375zm-0.21875 0.0625q0 -0.0625 0.078125 -0.015625q0.078125 0.03125 0.09375 0.03125l-0.0625 0.078125l-0.109375 -0.078125l0 -0.015625zm0.203125 -0.03125q0.109375 0.140625 0.046875 0.09375q-0.0625 -0.046875 -0.078125 -0.046875l0.03125 -0.046875zm3.09375 10.328125l0 -1.078125l2.1875 0l0 -6.359375l-2.0625 0l0 -1.09375l3.40625 0l0 7.453125l2.0 0l0 1.078125l-5.53125 0zm2.78125 -10.3125q-0.390625 0 -0.671875 -0.28125q-0.28125 -0.28125 -0.28125 -0.671875q0 -0.40625 0.265625 -0.6875q0.28125 -0.28125 0.6875 -0.28125q0.390625 0 0.671875 0.296875q0.296875 0.28125 0.296875 0.671875q0 0.390625 -0.296875 0.671875q-0.28125 0.28125 -0.671875 0.28125zm6.15625 10.3125l0 -1.078125l2.53125 0l0 -10.25l-2.421875 0l0 -1.078125l3.78125 0l0 11.328125l2.5 0l0 1.078125l-6.390625 0zm9.328125 0l0 -1.078125l2.53125 0l0 -10.25l-2.421875 0l0 -1.078125l3.78125 0l0 11.328125l2.5 0l0 1.078125l-6.390625 0zm8.515625 1.5l0 -1.140625l8.03125 0l0 1.140625l-8.03125 0zm16.625 -8.25l0 0.015625q-0.546875 -0.5 -0.921875 -0.671875q-0.359375 -0.171875 -0.84375 -0.171875q-0.671875 0 -1.265625 0.34375q-0.59375 0.328125 -0.96875 1.015625q-0.375 0.671875 -0.375 1.703125l0 4.53125l-1.359375 0l0 -8.546875l1.40625 0l-0.046875 1.578125q0.359375 -0.84375 1.09375 -1.3125q0.734375 -0.46875 1.609375 -0.46875q1.375 0 2.265625 0.9375l-0.59375 1.046875zm0 0.015625q0.125 0.109375 0.0625 0.09375q-0.0625 -0.015625 -0.109375 -0.03125l0.046875 -0.0625zm-0.203125 0.0625q0 -0.0625 0.046875 -0.046875q0.0625 0 0.109375 0.046875l-0.03125 0.09375l-0.125 -0.078125l0 -0.015625zm6.65625 6.859375q-1.90625 0 -3.03125 -1.15625q-1.125 -1.15625 -1.125 -3.265625q0 -1.40625 0.515625 -2.421875q0.515625 -1.015625 1.40625 -1.546875q0.890625 -0.53125 1.984375 -0.53125q1.546875 0 2.5 1.03125q0.96875 1.03125 0.96875 3.015625q0 0.203125 -0.03125 0.625l-6.0625 0q0.078125 1.5625 0.875 2.375q0.796875 0.796875 2.03125 0.796875q1.34375 0 2.203125 -0.953125l0.75 0.71875q-1.078125 1.3125 -2.984375 1.3125zm1.859375 -5.296875q0 -1.203125 -0.609375 -1.890625q-0.59375 -0.703125 -1.59375 -0.703125q-0.921875 0 -1.625 0.65625q-0.6875 0.640625 -0.859375 1.9375l4.6875 0zm3.515625 -3.421875l1.359375 0l0 1.6875q0.28125 -0.9375 0.96875 -1.40625q0.6875 -0.46875 1.625 -0.46875q0.96875 0 1.78125 0.5q0.8125 0.5 1.296875 1.484375q0.484375 0.984375 0.484375 2.40625q0 1.4375 -0.515625 2.46875q-0.5 1.03125 -1.328125 1.5625q-0.828125 0.515625 -1.765625 0.515625q-0.765625 0 -1.4375 -0.34375q-0.671875 -0.359375 -1.09375 -1.0l0 4.2343826l-1.375 0l0 -11.640633zm3.6875 7.5625q1.03125 0 1.71875 -0.765625q0.703125 -0.78125 0.703125 -2.53125q0 -1.59375 -0.625 -2.4375q-0.609375 -0.859375 -1.734375 -0.859375q-1.0625 0 -1.734375 0.890625q-0.65625 0.890625 -0.65625 2.703125q0.03125 1.46875 0.640625 2.234375q0.625 0.765625 1.6875 0.765625zm5.984375 0.96875l0 -1.078125l2.53125 0l0 -10.25l-2.421875 0l0 -1.078125l3.78125 0l0 11.328125l2.5 0l0 1.078125l-6.390625 0zm12.40625 -8.71875q1.828125 0 2.78125 0.953125q0.96875 0.953125 0.96875 3.234375l0 4.53125l-1.453125 0l0 -1.3125q-0.78125 1.515625 -2.90625 1.515625q-1.421875 0 -2.21875 -0.640625q-0.796875 -0.640625 -0.796875 -1.703125q0 -0.90625 0.578125 -1.578125q0.578125 -0.671875 1.546875 -1.03125q0.984375 -0.359375 2.15625 -0.359375q1.0625 0 1.921875 0.109375q-0.109375 -1.4375 -0.75 -2.015625q-0.640625 -0.59375 -1.921875 -0.59375q-0.625 0 -1.21875 0.25q-0.578125 0.234375 -1.0625 0.703125l-0.65625 -0.859375q1.1875 -1.203125 3.03125 -1.203125zm-0.484375 7.890625q1.390625 0 2.1875 -0.796875q0.796875 -0.8125 0.875 -2.34375q-0.84375 -0.140625 -1.8125 -0.140625q-1.40625 0 -2.234375 0.46875q-0.828125 0.46875 -0.828125 1.421875q0 1.390625 1.8125 1.390625zm13.53125 -7.703125q-0.109375 0.765625 -0.34375 1.515625q-0.234375 0.75 -0.671875 1.984375l-2.125 6.0q-0.421875 1.203125 -1.109375 1.7343826q-0.6875 0.546875 -1.640625 0.546875q-1.203125 0 -1.96875 -0.734375l0.578125 -0.9062576l0.015625 -0.03125l0.03125 0.03125q0.296875 0.28125 0.625 0.40625q0.34375 0.125 0.78125 0.125q0.703125 0 1.109375 -0.484375q0.40625 -0.484375 0.796875 -1.59375l-3.484375 -8.59375l1.390625 0l2.65625 6.828125l1.125 -3.421875q0.40625 -1.296875 0.59375 -1.96875q0.203125 -0.6875 0.296875 -1.4375l1.34375 0zm-7.046875 10.0625q0 0.03125 -0.046875 0.03125l-0.140625 -0.03125l0.0625 -0.09375l0.125 0.078125l0 0.015625zm-0.21875 0.046875q-0.078125 -0.078125 -0.046875 -0.0625q0.046875 0.015625 0.078125 0.015625l-0.03125 0.046875zm15.703125 1.6718826q-1.53125 -0.71875 -2.6875 -1.9531326q-1.15625 -1.21875 -1.78125 -2.765625q-0.625 -1.546875 -0.625 -3.203125q0 -1.640625 0.609375 -3.140625q0.609375 -1.515625 1.734375 -2.703125q1.140625 -1.1875 2.625 -1.890625l0.359375 1.15625q-1.828125 0.984375 -2.921875 2.78125q-1.09375 1.796875 -1.09375 3.859375q0 2.09375 1.125 3.921875q1.125 1.828125 3.0 2.8125l-0.34375 1.1250076zm2.71875 -3.2500076l3.171875 -5.9375l-3.109375 -5.703125l1.390625 0l2.453125 4.421875l2.40625 -4.421875l1.296875 0l-2.953125 5.6875l3.3125 5.953125l-1.484375 0l-2.5625 -4.609375l-2.5 4.609375l-1.421875 0zm11.640625 2.5781326q0.515625 -0.48438263 0.859375 -1.0468826q0.359375 -0.5625 0.359375 -0.921875q0 -0.15625 -0.09375 -0.28125q-0.09375 -0.109375 -0.34375 -0.328125q-0.265625 -0.25 -0.390625 -0.40625q-0.125 -0.171875 -0.125 -0.421875q0 -0.453125 0.296875 -0.765625q0.3125 -0.328125 0.796875 -0.328125q0.5 0 0.875 0.4375q0.390625 0.4375 0.390625 1.109375q0 1.453125 -1.984375 3.5156326l-0.640625 -0.5625zm24.0625 -11.109383q-0.296875 1.515625 -1.25 3.734375l-2.0625 4.796875l-1.046875 0l-3.375 -8.53125l1.34375 0l2.625 6.6875l1.375 -3.15625q0.859375 -1.9375 1.125 -3.53125l1.265625 0zm5.390625 -0.1875q1.828125 0 2.78125 0.953125q0.96875 0.953125 0.96875 3.234375l0 4.53125l-1.453125 0l0 -1.3125q-0.78125 1.515625 -2.90625 1.515625q-1.421875 0 -2.21875 -0.640625q-0.796875 -0.640625 -0.796875 -1.703125q0 -0.90625 0.578125 -1.578125q0.578125 -0.671875 1.546875 -1.03125q0.984375 -0.359375 2.15625 -0.359375q1.0625 0 1.921875 0.109375q-0.109375 -1.4375 -0.75 -2.015625q-0.640625 -0.59375 -1.921875 -0.59375q-0.625 0 -1.21875 0.25q-0.578125 0.234375 -1.0625 0.703125l-0.65625 -0.859375q1.1875 -1.203125 3.03125 -1.203125zm-0.484375 7.890625q1.390625 0 2.1875 -0.796875q0.796875 -0.8125 0.875 -2.34375q-0.84375 -0.140625 -1.8125 -0.140625q-1.40625 0 -2.234375 0.46875q-0.828125 0.46875 -0.828125 1.421875q0 1.390625 1.8125 1.390625zm6.734375 0.828125l0 -1.078125l2.53125 0l0 -10.25l-2.421875 0l0 -1.078125l3.78125 0l0 11.328125l2.5 0l0 1.078125l-6.390625 0zm11.984375 0.203125q-1.34375 0 -2.15625 -1.0q-0.796875 -1.0 -0.78125 -2.96875l0.03125 -4.765625l1.296875 0l0 4.765625q0 1.53125 0.53125 2.21875q0.53125 0.671875 1.40625 0.671875q0.96875 0 1.625 -0.75q0.671875 -0.765625 0.671875 -2.203125l0 -4.703125l1.3125 0l0 7.203125q0 0.453125 0.015625 0.75q0.03125 0.28125 0.171875 0.578125l-1.296875 0q-0.125 -0.28125 -0.15625 -0.578125q-0.03125 -0.296875 -0.03125 -0.734375q-0.40625 0.71875 -1.109375 1.125q-0.6875 0.390625 -1.53125 0.390625zm10.28125 -0.015625q-1.90625 0 -3.03125 -1.15625q-1.125 -1.15625 -1.125 -3.265625q0 -1.40625 0.515625 -2.421875q0.515625 -1.015625 1.40625 -1.546875q0.890625 -0.53125 1.984375 -0.53125q1.546875 0 2.5 1.03125q0.96875 1.03125 0.96875 3.015625q0 0.203125 -0.03125 0.625l-6.0625 0q0.078125 1.5625 0.875 2.375q0.796875 0.796875 2.03125 0.796875q1.34375 0 2.203125 -0.953125l0.75 0.71875q-1.078125 1.3125 -2.984375 1.3125zm1.859375 -5.296875q0 -1.203125 -0.609375 -1.890625q-0.59375 -0.703125 -1.59375 -0.703125q-0.921875 0 -1.625 0.65625q-0.6875 0.640625 -0.859375 1.9375l4.6875 0zm4.515625 7.234375q1.890625 -0.984375 3.0 -2.8125q1.125 -1.828125 1.125 -3.921875q0 -2.0625 -1.09375 -3.859375q-1.09375 -1.796875 -2.921875 -2.78125l0.359375 -1.15625q1.484375 0.703125 2.609375 1.890625q1.140625 1.1875 1.75 2.703125q0.625 1.5 0.625 3.140625q0 1.65625 -0.625 3.203125q-0.625 1.546875 -1.78125 2.765625q-1.15625 1.2343826 -2.6875 1.9531326l-0.359375 -1.1250076z" fill-rule="nonzero"/><path fill="#000000" fill-opacity="0.0" d="m384.92783 291.4042c15.83725 0 42.217987 33.80127 31.6745 64.93973c-10.543488 31.138428 -58.0112 59.614075 -110.75064 64.9397c-52.73944 5.3256226 -110.75064 -12.498779 -110.75064 -24.997528" fill-rule="evenodd"/><path stroke="#000000" stroke-width="1.0" stroke-linejoin="round" stroke-linecap="butt" stroke-dasharray="4.0,3.0" d="m384.92783 291.4042c15.837219 0 42.217957 33.80127 31.6745 64.9397c-10.543488 31.138458 -58.0112 59.614105 -110.75064 64.93973c-26.36972 2.6628113 -54.057373 -0.46185303 -75.1526 -5.814636c-10.547607 -2.6763306 -19.447128 -5.909729 -25.709717 -9.2552185c-1.5656586 -0.83636475 -2.966507 -1.6797485 -4.1871033 -2.5231628c-0.6102905 -0.4216919 -1.1755219 -0.8434143 -1.6937408 -1.2643127c-0.25912476 -0.2104187 -0.506485 -0.4206543 -0.74186707 -0.6305237l-0.3131714 -0.28634644" fill-rule="evenodd"/><path fill="#000000" stroke="#000000" stroke-width="1.0" stroke-linecap="butt" d="m199.49141 400.69666l-3.67099 -3.137909l0.7951355 4.7634277z" fill-rule="evenodd"/><path fill="#000000" fill-opacity="0.0" d="m606.70337 339.77823l-194.86612 0l0 56.503937l194.86612 0z" fill-rule="evenodd"/><path fill="#000000" d="m433.2703 359.9482l0 0.015625q-0.546875 -0.5 -0.921875 -0.671875q-0.359375 -0.171875 -0.84375 -0.171875q-0.671875 0 -1.265625 0.34375q-0.59375 0.328125 -0.96875 1.015625q-0.375 0.671875 -0.375 1.703125l0 4.53125l-1.359375 0l0 -8.546875l1.40625 0l-0.046875 1.578125q0.359375 -0.84375 1.09375 -1.3125q0.734375 -0.46875 1.609375 -0.46875q1.375 0 2.265625 0.9375l-0.59375 1.046875zm0 0.015625q0.125 0.109375 0.0625 0.09375q-0.0625 -0.015625 -0.109375 -0.03125l0.046875 -0.0625zm-0.203125 0.0625q0 -0.0625 0.046875 -0.046875q0.0625 0 0.109375 0.046875l-0.03125 0.09375l-0.125 -0.078125l0 -0.015625zm6.65625 6.859375q-1.90625 0 -3.03125 -1.15625q-1.125 -1.15625 -1.125 -3.265625q0 -1.40625 0.515625 -2.421875q0.515625 -1.015625 1.40625 -1.546875q0.890625 -0.53125 1.984375 -0.53125q1.546875 0 2.5 1.03125q0.96875 1.03125 0.96875 3.015625q0 0.203125 -0.03125 0.625l-6.0625 0q0.078125 1.5625 0.875 2.375q0.796875 0.796875 2.03125 0.796875q1.34375 0 2.203125 -0.953125l0.75 0.71875q-1.078125 1.3125 -2.984375 1.3125zm1.859375 -5.296875q0 -1.203125 -0.609375 -1.890625q-0.59375 -0.703125 -1.59375 -0.703125q-0.921875 0 -1.625 0.65625q-0.6875 0.640625 -0.859375 1.9375l4.6875 0zm10.671875 4.328125q-1.234375 0.90625 -2.703125 0.90625q-1.421875 0 -2.015625 -0.84375q-0.578125 -0.859375 -0.578125 -2.8125q0 -0.3125 0.03125 -1.09375l0.171875 -2.796875l-1.875 0l0 -1.109375l1.953125 0l0.125 -2.265625l1.5 -0.25l0.1875 -0.015625l0.015625 0.109375q-0.125 0.1875 -0.203125 0.328125q-0.0625 0.125 -0.078125 0.40625l-0.203125 1.6875l2.828125 0l0 1.109375l-2.90625 0l-0.171875 2.890625q-0.03125 0.75 -0.03125 0.984375q0 1.5 0.34375 2.03125q0.34375 0.53125 1.109375 0.53125q0.5625 0 1.03125 -0.203125q0.46875 -0.21875 1.0625 -0.65625l0.40625 1.0625zm5.171875 0.984375q-1.34375 0 -2.15625 -1.0q-0.796875 -1.0 -0.78125 -2.96875l0.03125 -4.765625l1.296875 0l0 4.765625q0 1.53125 0.53125 2.21875q0.53125 0.671875 1.40625 0.671875q0.96875 0 1.625 -0.75q0.671875 -0.765625 0.671875 -2.203125l0 -4.703125l1.3125 0l0 7.203125q0 0.453125 0.015625 0.75q0.03125 0.28125 0.171875 0.578125l-1.296875 0q-0.125 -0.28125 -0.15625 -0.578125q-0.03125 -0.296875 -0.03125 -0.734375q-0.40625 0.71875 -1.109375 1.125q-0.6875 0.390625 -1.53125 0.390625zm13.15625 -6.953125l0 0.015625q-0.546875 -0.5 -0.921875 -0.671875q-0.359375 -0.171875 -0.84375 -0.171875q-0.671875 0 -1.265625 0.34375q-0.59375 0.328125 -0.96875 1.015625q-0.375 0.671875 -0.375 1.703125l0 4.53125l-1.359375 0l0 -8.546875l1.40625 0l-0.046875 1.578125q0.359375 -0.84375 1.09375 -1.3125q0.734375 -0.46875 1.609375 -0.46875q1.375 0 2.265625 0.9375l-0.59375 1.046875zm0 0.015625q0.125 0.109375 0.0625 0.09375q-0.0625 -0.015625 -0.109375 -0.03125l0.046875 -0.0625zm-0.203125 0.0625q0 -0.0625 0.046875 -0.046875q0.0625 0 0.109375 0.046875l-0.03125 0.09375l-0.125 -0.078125l0 -0.015625zm2.921875 -1.859375l1.3125 0l0 1.515625q0.5 -0.78125 1.265625 -1.25q0.765625 -0.46875 1.625 -0.46875q1.125 0 1.8125 0.875q0.6875 0.859375 0.6875 2.6875l0 5.171875l-1.3125 0l0 -5.125q0 -1.28125 -0.4375 -1.859375q-0.421875 -0.578125 -1.125 -0.578125q-0.578125 0 -1.171875 0.34375q-0.578125 0.328125 -0.96875 0.9375q-0.375 0.609375 -0.375 1.375l0 4.90625l-1.3125 0l0 -8.53125zm25.796875 0q-0.296875 1.515625 -1.25 3.734375l-2.0625 4.796875l-1.046875 0l-3.375 -8.53125l1.34375 0l2.625 6.6875l1.375 -3.15625q0.859375 -1.9375 1.125 -3.53125l1.265625 0zm5.390625 -0.1875q1.828125 0 2.78125 0.953125q0.96875 0.953125 0.96875 3.234375l0 4.53125l-1.453125 0l0 -1.3125q-0.78125 1.515625 -2.90625 1.515625q-1.421875 0 -2.21875 -0.640625q-0.796875 -0.640625 -0.796875 -1.703125q0 -0.90625 0.578125 -1.578125q0.578125 -0.671875 1.546875 -1.03125q0.984375 -0.359375 2.15625 -0.359375q1.0625 0 1.921875 0.109375q-0.109375 -1.4375 -0.75 -2.015625q-0.640625 -0.59375 -1.921875 -0.59375q-0.625 0 -1.21875 0.25q-0.578125 0.234375 -1.0625 0.703125l-0.65625 -0.859375q1.1875 -1.203125 3.03125 -1.203125zm-0.484375 7.890625q1.390625 0 2.1875 -0.796875q0.796875 -0.8125 0.875 -2.34375q-0.84375 -0.140625 -1.8125 -0.140625q-1.40625 0 -2.234375 0.46875q-0.828125 0.46875 -0.828125 1.421875q0 1.390625 1.8125 1.390625zm6.734375 0.828125l0 -1.078125l2.5312805 0l0 -10.25l-2.4219055 0l0 -1.078125l3.7812805 0l0 11.328125l2.5 0l0 1.078125l-6.3906555 0zm11.9844055 0.203125q-1.34375 0 -2.15625 -1.0q-0.796875 -1.0 -0.78125 -2.96875l0.03125 -4.765625l1.296875 0l0 4.765625q0 1.53125 0.53125 2.21875q0.53125 0.671875 1.40625 0.671875q0.96875 0 1.625 -0.75q0.671875 -0.765625 0.671875 -2.203125l0 -4.703125l1.3125 0l0 7.203125q0 0.453125 0.015625 0.75q0.03125 0.28125 0.171875 0.578125l-1.296875 0q-0.125 -0.28125 -0.15625 -0.578125q-0.03125 -0.296875 -0.03125 -0.734375q-0.40625 0.71875 -1.109375 1.125q-0.6875 0.390625 -1.53125 0.390625zm10.28125 -0.015625q-1.90625 0 -3.03125 -1.15625q-1.125 -1.15625 -1.125 -3.265625q0 -1.40625 0.515625 -2.421875q0.515625 -1.015625 1.40625 -1.546875q0.890625 -0.53125 1.984375 -0.53125q1.546875 0 2.5 1.03125q0.96875 1.03125 0.96875 3.015625q0 0.203125 -0.03125 0.625l-6.0625 0q0.078125 1.5625 0.875 2.375q0.796875 0.796875 2.03125 0.796875q1.34375 0 2.203125 -0.953125l0.75 0.71875q-1.078125 1.3125 -2.984375 1.3125zm1.859375 -5.296875q0 -1.203125 -0.609375 -1.890625q-0.59375 -0.703125 -1.59375 -0.703125q-0.921875 0 -1.625 0.65625q-0.6875 0.640625 -0.859375 1.9375l4.6875 0zm19.828125 -5.25l-0.015625 0.03125q-0.515625 -0.65625 -0.890625 -0.875q-0.359375 -0.234375 -1.015625 -0.234375q-0.875 0 -1.375 0.53125q-0.5 0.515625 -0.5 1.671875l0 0.703125l2.796875 0l0 1.0625l-2.796875 0l0 7.46875l-1.296875 0l0 -7.46875l-1.84375 0l0 -1.0625l1.84375 0l0 -0.703125q0 -1.640625 0.84375 -2.453125q0.859375 -0.828125 2.296875 -0.828125q0.828125 0 1.515625 0.296875q0.703125 0.296875 1.15625 0.875l-0.71875 0.984375zm-0.21875 0.0625q0 -0.0625 0.078125 -0.015625q0.078125 0.03125 0.09375 0.03125l-0.0625 0.078125l-0.109375 -0.078125l0 -0.015625zm0.203125 -0.03125q0.109375 0.140625 0.046875 0.09375q-0.0625 -0.046875 -0.078125 -0.046875l0.03125 -0.046875zm5.90625 10.484375q-1.140625 0 -2.046875 -0.5625q-0.890625 -0.5625 -1.390625 -1.5625q-0.5 -1.015625 -0.5 -2.296875q0 -1.296875 0.5 -2.296875q0.5 -1.015625 1.390625 -1.578125q0.90625 -0.578125 2.046875 -0.578125q1.125 0 2.015625 0.578125q0.90625 0.5625 1.40625 1.578125q0.5 1.0 0.5 2.296875q0 1.28125 -0.5 2.296875q-0.5 1.0 -1.40625 1.5625q-0.890625 0.5625 -2.015625 0.5625zm0 -1.125q0.71875 0 1.28125 -0.421875q0.578125 -0.4375 0.90625 -1.1875q0.328125 -0.765625 0.328125 -1.71875q0 -1.453125 -0.71875 -2.375q-0.703125 -0.921875 -1.796875 -0.921875q-1.109375 0 -1.828125 0.921875q-0.703125 0.921875 -0.703125 2.375q0 0.953125 0.328125 1.71875q0.328125 0.75 0.890625 1.1875q0.578125 0.421875 1.3125 0.421875zm12.609375 -5.78125l0 0.015625q-0.546875 -0.5 -0.921875 -0.671875q-0.359375 -0.171875 -0.84375 -0.171875q-0.671875 0 -1.265625 0.34375q-0.59375 0.328125 -0.96875 1.015625q-0.375 0.671875 -0.375 1.703125l0 4.53125l-1.359375 0l0 -8.546875l1.40625 0l-0.046875 1.578125q0.359375 -0.84375 1.09375 -1.3125q0.734375 -0.46875 1.609375 -0.46875q1.375 0 2.265625 0.9375l-0.59375 1.046875zm0 0.015625q0.125 0.109375 0.0625 0.09375q-0.0625 -0.015625 -0.109375 -0.03125l0.046875 -0.0625zm-0.203125 0.0625q0 -0.0625 0.046875 -0.046875q0.0625 0 0.109375 0.046875l-0.03125 0.09375l-0.125 -0.078125l0 -0.015625zm11.671875 6.671875l3.171875 -5.9375l-3.109375 -5.703125l1.390625 0l2.453125 4.421875l2.40625 -4.421875l1.296875 0l-2.953125 5.6875l3.3125 5.953125l-1.484375 0l-2.5625 -4.609375l-2.5 4.609375l-1.421875 0z" fill-rule="nonzero"/><path fill="#000000" fill-opacity="0.0" d="m228.71095 213.62466l-222.3307 0l0 39.622055l222.3307 0z" fill-rule="evenodd"/><path fill="#000000" d="m20.662786 239.01341q2.25 -2.15625 3.234375 -3.1875q0.984375 -1.03125 1.484375 -1.921875q0.515625 -0.890625 0.515625 -1.8125q0 -0.734375 -0.46875 -1.171875q-0.453125 -0.4375 -1.234375 -0.4375q-0.46875 0 -0.90625 0.109375q-0.421875 0.109375 -0.71875 0.265625q-0.296875 0.15625 -0.359375 0.296875q-0.375 0.65625 -0.375 0.71875q0 0.015625 0.015625 0.015625q0.015625 -0.015625 0.046875 -0.046875q0.046875 -0.03125 0.078125 -0.03125q0.03125 -0.015625 0.03125 0.03125l-0.09375 0.1875l-0.140625 -0.078125l-1.390625 -1.046875q0.671875 -1.09375 1.65625 -1.671875q0.984375 -0.578125 2.1875 -0.578125q1.046875 0 1.875 0.4375q0.828125 0.4375 1.296875 1.21875q0.46875 0.765625 0.46875 1.765625q0 0.984375 -0.46875 1.90625q-0.46875 0.90625 -1.234375 1.765625q-0.765625 0.859375 -2.234375 2.328125l-0.75 0.734375l3.796875 0q0.296875 0 0.4375 -0.03125q0.15625 -0.03125 0.265625 -0.125l0.203125 0l0 1.890625l-7.21875 0l0 -1.53125zm15.250002 1.53125l-0.828125 -3.0l-2.984375 0l-0.8437519 3.0l-2.140625 0l3.875002 -11.625l1.21875 0l3.890625 11.625l-2.1875 0zm-3.390625 -4.453125l2.15625 0l-1.0625 -3.859375l-1.09375 3.859375zm7.6875 6.265625q1.25 -0.578125 2.140625 -1.5625q0.90625 -0.984375 1.375 -2.234375q0.484375 -1.25 0.484375 -2.609375q0 -2.078125 -1.015625 -3.703125q-1.0 -1.640625 -2.875 -2.59375l0.484375 -1.625q1.640625 0.6875 2.84375 1.90625q1.203125 1.203125 1.84375 2.75q0.65625 1.546875 0.65625 3.21875q0 1.6875 -0.671875 3.28125q-0.671875 1.578125 -1.90625 2.828125q-1.234375 1.25 -2.875 1.921875l-0.484375 -1.578125z" fill-rule="nonzero"/><path fill="#000000" d="m64.86591 233.79466l0 0.015625q-0.546875 -0.5 -0.921875 -0.671875q-0.359375 -0.171875 -0.84375 -0.171875q-0.671875 0 -1.265625 0.34375q-0.59375 0.328125 -0.96875 1.015625q-0.375 0.671875 -0.375 1.703125l0 4.53125l-1.359375 0l0 -8.546875l1.40625 0l-0.046875 1.578125q0.359375 -0.84375 1.09375 -1.3125q0.734375 -0.46875 1.609375 -0.46875q1.375 0 2.265625 0.9375l-0.59375 1.046875zm0 0.015625q0.125 0.109375 0.0625 0.09375q-0.0625 -0.015625 -0.109375 -0.03125l0.046875 -0.0625zm-0.203125 0.0625q0 -0.0625 0.046875 -0.046875q0.0625 0 0.109375 0.046875l-0.03125 0.09375l-0.125 -0.078125l0 -0.015625zm6.65625 6.859375q-1.90625 0 -3.03125 -1.15625q-1.125 -1.15625 -1.125 -3.265625q0 -1.40625 0.515625 -2.421875q0.515625 -1.015625 1.40625 -1.546875q0.890625 -0.53125 1.984375 -0.53125q1.546875 0 2.5 1.03125q0.96875 1.03125 0.96875 3.015625q0 0.203125 -0.03125 0.625l-6.0625 0q0.078125 1.5625 0.875 2.375q0.796875 0.796875 2.03125 0.796875q1.34375 0 2.203125 -0.953125l0.75 0.71875q-1.078125 1.3125 -2.984375 1.3125zm1.859375 -5.296875q0 -1.203125 -0.609375 -1.890625q-0.59375 -0.703125 -1.59375 -0.703125q-0.921875 0 -1.625 0.65625q-0.6875 0.640625 -0.859375 1.9375l4.6875 0zm9.296875 3.75q-0.390625 0.71875 -1.09375 1.140625q-0.6875 0.40625 -1.515625 0.40625q-0.96875 0 -1.78125 -0.5625q-0.796875 -0.578125 -1.265625 -1.59375q-0.46875 -1.015625 -0.46875 -2.328125q0 -1.359375 0.5 -2.375q0.515625 -1.015625 1.359375 -1.546875q0.859375 -0.53125 1.890625 -0.53125q0.875 0 1.484375 0.390625q0.625 0.375 0.96875 1.078125l0 -1.25l1.265625 0l0 11.640625l-1.34375 0l0 -4.46875zm-2.375 0.375q1.046875 0 1.6875 -0.859375q0.640625 -0.875 0.640625 -2.65625q0 -3.15625 -2.171875 -3.15625q-1.125 0 -1.84375 0.84375q-0.703125 0.84375 -0.703125 2.46875q0 1.546875 0.640625 2.453125q0.65625 0.90625 1.75 0.90625zm8.921875 1.1875q-1.34375 0 -2.15625 -1.0q-0.796875 -1.0 -0.78125 -2.96875l0.03125 -4.765625l1.296875 0l0 4.765625q0 1.53125 0.53125 2.21875q0.53125 0.671875 1.40625 0.671875q0.96875 0 1.625 -0.75q0.671875 -0.765625 0.671875 -2.203125l0 -4.703125l1.3125 0l0 7.203125q0 0.453125 0.015625 0.75q0.03125 0.28125 0.171875 0.578125l-1.296875 0q-0.125 -0.28125 -0.15625 -0.578125q-0.03125 -0.296875 -0.03125 -0.734375q-0.40625 0.71875 -1.109375 1.125q-0.6875 0.390625 -1.53125 0.390625zm10.28125 -0.015625q-1.90625 0 -3.03125 -1.15625q-1.125 -1.15625 -1.125 -3.265625q0 -1.40625 0.515625 -2.421875q0.515625 -1.015625 1.40625 -1.546875q0.890625 -0.53125 1.984375 -0.53125q1.546875 0 2.5 1.03125q0.96875 1.03125 0.96875 3.015625q0 0.203125 -0.03125 0.625l-6.0625 0q0.078125 1.5625 0.875 2.375q0.796875 0.796875 2.03125 0.796875q1.34375 0 2.203125 -0.953125l0.75 0.71875q-1.078125 1.3125 -2.984375 1.3125zm1.859375 -5.296875q0 -1.203125 -0.609375 -1.890625q-0.59375 -0.703125 -1.59375 -0.703125q-0.921875 0 -1.625 0.65625q-0.6875 0.640625 -0.859375 1.9375l4.6875 0zm7.671875 0.09375q1.609375 0.484375 2.265625 1.0625q0.65625 0.5625 0.65625 1.46875q0 1.15625 -0.90625 1.921875q-0.890625 0.75 -2.609375 0.75q-2.171875 0 -3.625 -1.34375l0.75 -1.265625l0.015625 -0.015625l0.015625 0.015625q0.578125 0.75 1.1875 1.125q0.625 0.359375 1.6875 0.359375q1.015625 0 1.59375 -0.359375q0.578125 -0.359375 0.578125 -1.0q0 -0.53125 -0.46875 -0.890625q-0.46875 -0.359375 -1.6875 -0.75q-3.203125 -0.90625 -3.203125 -2.640625q0 -1.0 0.8125 -1.578125q0.8125 -0.578125 2.328125 -0.578125q1.15625 0 1.9375 0.328125q0.796875 0.328125 1.453125 1.015625l-0.765625 0.9375l-0.015625 0.015625q-0.390625 -0.59375 -1.109375 -0.9375q-0.71875 -0.34375 -1.46875 -0.34375q-0.796875 0 -1.3125 0.28125q-0.515625 0.28125 -0.515625 0.78125q0 0.46875 0.515625 0.859375q0.53125 0.390625 1.890625 0.78125zm1.796875 -1.390625q0 -0.09375 0.140625 0.03125l-0.0625 0.0625l-0.078125 -0.09375zm0.203125 -0.03125q0.046875 0.078125 0.03125 0.09375q0 0.015625 -0.046875 0q-0.03125 -0.015625 -0.046875 -0.03125l0.0625 -0.0625zm-5.25 3.9375q0 0.078125 -0.171875 0l0.0625 -0.09375l0.109375 0.078125l0 0.015625zm-0.203125 0.0625q-0.0625 -0.09375 -0.046875 -0.09375q0.03125 0 0.078125 0.03125l-0.03125 0.0625zm15.78125 1.65625q-1.234375 0.90625 -2.703125 0.90625q-1.421875 0 -2.015625 -0.84375q-0.578125 -0.859375 -0.578125 -2.8125q0 -0.3125 0.03125 -1.09375l0.171875 -2.796875l-1.875 0l0 -1.109375l1.953125 0l0.125 -2.265625l1.5 -0.25l0.1875 -0.015625l0.015625 0.109375q-0.125 0.1875 -0.203125 0.328125q-0.0625 0.125 -0.078125 0.40625l-0.203125 1.6875l2.828125 0l0 1.109375l-2.90625 0l-0.171875 2.890625q-0.03125 0.75 -0.03125 0.984375q0 1.5 0.34375 2.03125q0.34375 0.53125 1.109375 0.53125q0.5625 0 1.03125 -0.203125q0.46875 -0.21875 1.0625 -0.65625l0.40625 1.0625zm1.703125 2.28125l0 -1.140625l8.031242 0l0 1.140625l-8.031242 0zm16.624992 -8.25l0 0.015625q-0.546875 -0.5 -0.921875 -0.671875q-0.359375 -0.171875 -0.84375 -0.171875q-0.671875 0 -1.265625 0.34375q-0.59375 0.328125 -0.96875 1.015625q-0.375 0.671875 -0.375 1.703125l0 4.53125l-1.359375 0l0 -8.546875l1.40625 0l-0.046875 1.578125q0.359375 -0.84375 1.09375 -1.3125q0.734375 -0.46875 1.609375 -0.46875q1.375 0 2.265625 0.9375l-0.59375 1.046875zm0 0.015625q0.125 0.109375 0.0625 0.09375q-0.0625 -0.015625 -0.109375 -0.03125l0.046875 -0.0625zm-0.203125 0.0625q0 -0.0625 0.046875 -0.046875q0.0625 0 0.109375 0.046875l-0.03125 0.09375l-0.125 -0.078125l0 -0.015625zm6.65625 6.859375q-1.90625 0 -3.03125 -1.15625q-1.125 -1.15625 -1.125 -3.265625q0 -1.40625 0.515625 -2.421875q0.515625 -1.015625 1.40625 -1.546875q0.890625 -0.53125 1.984375 -0.53125q1.546875 0 2.5 1.03125q0.96875 1.03125 0.96875 3.015625q0 0.203125 -0.03125 0.625l-6.0625 0q0.078125 1.5625 0.875 2.375q0.796875 0.796875 2.03125 0.796875q1.34375 0 2.203125 -0.953125l0.75 0.71875q-1.078125 1.3125 -2.984375 1.3125zm1.859375 -5.296875q0 -1.203125 -0.609375 -1.890625q-0.59375 -0.703125 -1.59375 -0.703125q-0.921875 0 -1.625 0.65625q-0.6875 0.640625 -0.859375 1.9375l4.6875 0zm3.515625 -3.421875l1.359375 0l0 1.6875q0.28125 -0.9375 0.96875 -1.40625q0.6875 -0.46875 1.625 -0.46875q0.96875 0 1.78125 0.5q0.8125 0.5 1.296875 1.484375q0.484375 0.984375 0.484375 2.40625q0 1.4375 -0.515625 2.46875q-0.5 1.03125 -1.328125 1.5625q-0.828125 0.515625 -1.765625 0.515625q-0.765625 0 -1.4375 -0.34375q-0.671875 -0.359375 -1.09375 -1.0l0 4.234375l-1.375 0l0 -11.640625zm3.6875 7.5625q1.03125 0 1.71875 -0.765625q0.703125 -0.78125 0.703125 -2.53125q0 -1.59375 -0.625 -2.4375q-0.609375 -0.859375 -1.734375 -0.859375q-1.0625 0 -1.734375 0.890625q-0.65625 0.890625 -0.65625 2.703125q0.03125 1.46875 0.640625 2.234375q0.625 0.765625 1.6875 0.765625zm5.984375 0.96875l0 -1.078125l2.53125 0l0 -10.25l-2.421875 0l0 -1.078125l3.78125 0l0 11.328125l2.5 0l0 1.078125l-6.390625 0zm12.40625 -8.71875q1.828125 0 2.78125 0.953125q0.96875 0.953125 0.96875 3.234375l0 4.53125l-1.453125 0l0 -1.3125q-0.78125 1.515625 -2.90625 1.515625q-1.421875 0 -2.21875 -0.640625q-0.796875 -0.640625 -0.796875 -1.703125q0 -0.90625 0.578125 -1.578125q0.578125 -0.671875 1.546875 -1.03125q0.984375 -0.359375 2.15625 -0.359375q1.0625 0 1.921875 0.109375q-0.109375 -1.4375 -0.75 -2.015625q-0.640625 -0.59375 -1.921875 -0.59375q-0.625 0 -1.21875 0.25q-0.578125 0.234375 -1.0625 0.703125l-0.65625 -0.859375q1.1875 -1.203125 3.03125 -1.203125zm-0.484375 7.890625q1.390625 0 2.1875 -0.796875q0.796875 -0.8125 0.875 -2.34375q-0.84375 -0.140625 -1.8125 -0.140625q-1.40625 0 -2.234375 0.46875q-0.828125 0.46875 -0.828125 1.421875q0 1.390625 1.8125 1.390625zm13.53125 -7.703125q-0.109375 0.765625 -0.34375 1.515625q-0.234375 0.75 -0.671875 1.984375l-2.125 6.0q-0.421875 1.203125 -1.109375 1.734375q-0.6875 0.546875 -1.640625 0.546875q-1.203125 0 -1.96875 -0.734375l0.578125 -0.90625l0.015625 -0.03125l0.03125 0.03125q0.296875 0.28125 0.625 0.40625q0.34375 0.125 0.78125 0.125q0.703125 0 1.109375 -0.484375q0.40625 -0.484375 0.796875 -1.59375l-3.484375 -8.59375l1.390625 0l2.65625 6.828125l1.125 -3.421875q0.40625 -1.296875 0.59375 -1.96875q0.203125 -0.6875 0.296875 -1.4375l1.34375 0zm-7.046875 10.0625q0 0.03125 -0.046875 0.03125l-0.140625 -0.03125l0.0625 -0.09375l0.125 0.078125l0 0.015625zm-0.21875 0.046875q-0.078125 -0.078125 -0.046875 -0.0625q0.046875 0.015625 0.078125 0.015625l-0.03125 0.046875zm15.703125 1.671875q-1.53125 -0.71875 -2.6875 -1.953125q-1.15625 -1.21875 -1.78125 -2.765625q-0.625 -1.546875 -0.625 -3.203125q0 -1.640625 0.609375 -3.140625q0.609375 -1.515625 1.734375 -2.703125q1.140625 -1.1875 2.625 -1.890625l0.359375 1.15625q-1.828125 0.984375 -2.921875 2.78125q-1.09375 1.796875 -1.09375 3.859375q0 2.09375 1.125 3.921875q1.125 1.828125 3.0 2.8125l-0.34375 1.125zm9.640625 -3.25l-1.171875 -3.390625l-3.75 0l-1.1875 3.390625l-1.28125 0l4.296875 -11.828125l0.140625 0l4.296875 11.828125l-1.34375 0zm-4.578125 -4.40625l3.0625 0l-1.53125 -4.4375l-1.53125 4.4375zm8.34375 6.53125q1.890625 -0.984375 3.0 -2.8125q1.125 -1.828125 1.125 -3.921875q0 -2.0625 -1.09375 -3.859375q-1.09375 -1.796875 -2.921875 -2.78125l0.359375 -1.15625q1.484375 0.703125 2.609375 1.890625q1.140625 1.1875 1.75 2.703125q0.625 1.5 0.625 3.140625q0 1.65625 -0.625 3.203125q-0.625 1.546875 -1.78125 2.765625q-1.15625 1.234375 -2.6875 1.953125l-0.359375 -1.125z" fill-rule="nonzero"/><path fill="#000000" fill-opacity="0.0" d="m294.27304 98.67716l-266.17325 0l0 39.622047l266.17325 0z" fill-rule="evenodd"/><path fill="#000000" d="m64.303604 124.06591q2.25 -2.15625 3.234375 -3.1875q0.984375 -1.03125 1.484375 -1.921875q0.515625 -0.890625 0.515625 -1.8125q0 -0.734375 -0.46875 -1.171875q-0.453125 -0.4375 -1.234375 -0.4375q-0.46875 0 -0.90625 0.109375q-0.421875 0.109375 -0.71875 0.265625q-0.296875 0.15625 -0.359375 0.296875q-0.375 0.65625 -0.375 0.71875q0 0.015625 0.015625 0.015625q0.015625 -0.015625 0.046875 -0.046875q0.046875 -0.03125 0.078125 -0.03125q0.03125 -0.015625 0.03125 0.03125l-0.09375 0.1875l-0.140625 -0.078125l-1.390625 -1.046875q0.671875 -1.09375 1.65625 -1.671875q0.984375 -0.578125 2.1875 -0.578125q1.046875 0 1.875 0.4375q0.828125 0.4375 1.296875 1.21875q0.46875 0.765625 0.46875 1.765625q0 0.984375 -0.46875 1.90625q-0.46875 0.90625 -1.234375 1.765625q-0.765625 0.859375 -2.234375 2.328125l-0.75 0.734375l3.796875 0q0.296875 0 0.4375 -0.03125q0.15625 -0.03125 0.265625 -0.125l0.203125 0l0 1.890625l-7.21875 0l0 -1.53125zm9.015625 -10.09375l3.515625 0q2.046875 0 3.046875 0.8125q1.015625 0.796875 1.015625 2.1875q0 0.703125 -0.390625 1.375q-0.375 0.65625 -1.015625 1.015625q0.53125 0.265625 0.953125 0.71875q0.4375 0.4375 0.671875 1.0q0.25 0.546875 0.25 1.09375q0 1.59375 -1.140625 2.515625q-1.140625 0.90625 -3.40625 0.90625l-3.5 0l0 -11.625zm3.359375 4.53125q1.125 0 1.625 -0.375q0.5 -0.390625 0.5 -1.046875q0 -0.359375 -0.21875 -0.671875q-0.21875 -0.328125 -0.65625 -0.515625q-0.4375 -0.1875 -1.0625 -0.1875l-1.46875 0l0 2.796875l1.28125 0zm0.34375 5.3125q1.046875 0 1.59375 -0.375q0.5625 -0.390625 0.5625 -1.3125q0 -0.875 -0.59375 -1.390625q-0.59375 -0.53125 -1.859375 -0.53125l-1.328125 0l0 3.609375l1.625 0zm6.828125 3.59375q1.25 -0.578125 2.140625 -1.5625q0.90625 -0.984375 1.375 -2.234375q0.484375 -1.25 0.484375 -2.609375q0 -2.078125 -1.015625 -3.703125q-1.0 -1.640625 -2.875 -2.59375l0.484375 -1.625q1.640625 0.6875 2.84375 1.90625q1.203125 1.203125 1.84375 2.75q0.65625 1.546875 0.65625 3.21875q0 1.6875 -0.671875 3.28125q-0.671875 1.578125 -1.90625 2.828125q-1.234375 1.2500076 -2.875 1.9218826l-0.484375 -1.5781326z" fill-rule="nonzero"/><path fill="#000000" d="m108.50673 118.84716l0 0.015625q-0.546875 -0.5 -0.921875 -0.671875q-0.359375 -0.171875 -0.84375 -0.171875q-0.671875 0 -1.265625 0.34375q-0.59375 0.328125 -0.96875 1.015625q-0.375 0.671875 -0.375 1.703125l0 4.53125l-1.359375 0l0 -8.546875l1.40625 0l-0.046875 1.578125q0.359375 -0.84375 1.09375 -1.3125q0.734375 -0.46875 1.609375 -0.46875q1.375 0 2.265625 0.9375l-0.59375 1.046875zm0 0.015625q0.125 0.109375 0.0625 0.09375q-0.0625 -0.015625 -0.109375 -0.03125l0.046875 -0.0625zm-0.203125 0.0625q0 -0.0625 0.046875 -0.046875q0.0625 0 0.109375 0.046875l-0.03125 0.09375l-0.125 -0.078125l0 -0.015625zm6.65625 6.859375q-1.90625 0 -3.03125 -1.15625q-1.125 -1.15625 -1.125 -3.265625q0 -1.40625 0.515625 -2.421875q0.515625 -1.015625 1.40625 -1.546875q0.890625 -0.53125 1.984375 -0.53125q1.546875 0 2.5 1.03125q0.96875 1.03125 0.96875 3.015625q0 0.203125 -0.03125 0.625l-6.0625 0q0.078125 1.5625 0.875 2.375q0.796875 0.796875 2.03125 0.796875q1.34375 0 2.203125 -0.953125l0.75 0.71875q-1.078125 1.3125 -2.984375 1.3125zm1.859375 -5.296875q0 -1.203125 -0.609375 -1.890625q-0.59375 -0.703125 -1.59375 -0.703125q-0.921875 0 -1.625 0.65625q-0.6875 0.640625 -0.859375 1.9375l4.6875 0zm9.296875 3.75q-0.390625 0.71875 -1.09375 1.140625q-0.6875 0.40625 -1.515625 0.40625q-0.96875 0 -1.78125 -0.5625q-0.796875 -0.578125 -1.265625 -1.59375q-0.46875 -1.015625 -0.46875 -2.328125q0 -1.359375 0.5 -2.375q0.515625 -1.015625 1.359375 -1.546875q0.859375 -0.53125 1.890625 -0.53125q0.875 0 1.484375 0.390625q0.625 0.375 0.96875 1.078125l0 -1.25l1.265625 0l0 11.640633l-1.34375 0l0 -4.4687576zm-2.375 0.375q1.046875 0 1.6875 -0.859375q0.640625 -0.875 0.640625 -2.65625q0 -3.15625 -2.171875 -3.15625q-1.125 0 -1.84375 0.84375q-0.703125 0.84375 -0.703125 2.46875q0 1.546875 0.640625 2.453125q0.65625 0.90625 1.75 0.90625zm8.921875 1.1875q-1.34375 0 -2.15625 -1.0q-0.796875 -1.0 -0.78125 -2.96875l0.03125 -4.765625l1.296875 0l0 4.765625q0 1.53125 0.53125 2.21875q0.53125 0.671875 1.40625 0.671875q0.96875 0 1.625 -0.75q0.671875 -0.765625 0.671875 -2.203125l0 -4.703125l1.3125 0l0 7.203125q0 0.453125 0.015625 0.75q0.03125 0.28125 0.171875 0.578125l-1.296875 0q-0.125 -0.28125 -0.15625 -0.578125q-0.03125 -0.296875 -0.03125 -0.734375q-0.40625 0.71875 -1.109375 1.125q-0.6875 0.390625 -1.53125 0.390625zm10.28125 -0.015625q-1.90625 0 -3.03125 -1.15625q-1.125 -1.15625 -1.125 -3.265625q0 -1.40625 0.515625 -2.421875q0.515625 -1.015625 1.40625 -1.546875q0.890625 -0.53125 1.984375 -0.53125q1.546875 0 2.5 1.03125q0.96875 1.03125 0.96875 3.015625q0 0.203125 -0.03125 0.625l-6.0625 0q0.078125 1.5625 0.875 2.375q0.796875 0.796875 2.03125 0.796875q1.34375 0 2.203125 -0.953125l0.75 0.71875q-1.078125 1.3125 -2.984375 1.3125zm1.859375 -5.296875q0 -1.203125 -0.609375 -1.890625q-0.59375 -0.703125 -1.59375 -0.703125q-0.921875 0 -1.625 0.65625q-0.6875 0.640625 -0.859375 1.9375l4.6875 0zm7.671875 0.09375q1.609375 0.484375 2.265625 1.0625q0.65625 0.5625 0.65625 1.46875q0 1.15625 -0.90625 1.921875q-0.890625 0.75 -2.609375 0.75q-2.171875 0 -3.625 -1.34375l0.75 -1.265625l0.015625 -0.015625l0.015625 0.015625q0.578125 0.75 1.1875 1.125q0.625 0.359375 1.6875 0.359375q1.015625 0 1.59375 -0.359375q0.578125 -0.359375 0.578125 -1.0q0 -0.53125 -0.46875 -0.890625q-0.46875 -0.359375 -1.6875 -0.75q-3.203125 -0.90625 -3.203125 -2.640625q0 -1.0 0.8125 -1.578125q0.8125 -0.578125 2.328125 -0.578125q1.15625 0 1.9375 0.328125q0.796875 0.328125 1.453125 1.015625l-0.765625 0.9375l-0.015625 0.015625q-0.390625 -0.59375 -1.109375 -0.9375q-0.71875 -0.34375 -1.46875 -0.34375q-0.796875 0 -1.3125 0.28125q-0.515625 0.28125 -0.515625 0.78125q0 0.46875 0.515625 0.859375q0.53125 0.390625 1.890625 0.78125zm1.796875 -1.390625q0 -0.09375 0.140625 0.03125l-0.0625 0.0625l-0.078125 -0.09375zm0.203125 -0.03125q0.046875 0.078125 0.03125 0.09375q0 0.015625 -0.046875 0q-0.03125 -0.015625 -0.046875 -0.03125l0.0625 -0.0625zm-5.25 3.9375q0 0.078125 -0.171875 0l0.0625 -0.09375l0.109375 0.078125l0 0.015625zm-0.203125 0.0625q-0.0625 -0.09375 -0.046875 -0.09375q0.03125 0 0.078125 0.03125l-0.03125 0.0625zm15.78125 1.65625q-1.234375 0.90625 -2.703125 0.90625q-1.421875 0 -2.015625 -0.84375q-0.578125 -0.859375 -0.578125 -2.8125q0 -0.3125 0.03125 -1.09375l0.171875 -2.796875l-1.875 0l0 -1.109375l1.953125 0l0.125 -2.265625l1.5 -0.25l0.1875 -0.015625l0.015625 0.109375q-0.125 0.1875 -0.203125 0.328125q-0.0625 0.125 -0.078125 0.40625l-0.203125 1.6875l2.828125 0l0 1.109375l-2.90625 0l-0.171875 2.890625q-0.03125 0.75 -0.03125 0.984375q0 1.5 0.34375 2.03125q0.34375 0.53125 1.109375 0.53125q0.5625 0 1.03125 -0.203125q0.46875 -0.21875 1.0625 -0.65625l0.40625 1.0625zm1.703125 2.28125l0 -1.140625l8.03125 0l0 1.140625l-8.03125 0zm16.625 -8.25l0 0.015625q-0.546875 -0.5 -0.921875 -0.671875q-0.359375 -0.171875 -0.84375 -0.171875q-0.671875 0 -1.265625 0.34375q-0.59375 0.328125 -0.96875 1.015625q-0.375 0.671875 -0.375 1.703125l0 4.53125l-1.359375 0l0 -8.546875l1.40625 0l-0.046875 1.578125q0.359375 -0.84375 1.09375 -1.3125q0.734375 -0.46875 1.609375 -0.46875q1.375 0 2.265625 0.9375l-0.59375 1.046875zm0 0.015625q0.125 0.109375 0.0625 0.09375q-0.0625 -0.015625 -0.109375 -0.03125l0.046875 -0.0625zm-0.203125 0.0625q0 -0.0625 0.046875 -0.046875q0.0625 0 0.109375 0.046875l-0.03125 0.09375l-0.125 -0.078125l0 -0.015625zm6.65625 6.859375q-1.90625 0 -3.03125 -1.15625q-1.125 -1.15625 -1.125 -3.265625q0 -1.40625 0.515625 -2.421875q0.515625 -1.015625 1.40625 -1.546875q0.890625 -0.53125 1.984375 -0.53125q1.546875 0 2.5 1.03125q0.96875 1.03125 0.96875 3.015625q0 0.203125 -0.03125 0.625l-6.0625 0q0.078125 1.5625 0.875 2.375q0.796875 0.796875 2.03125 0.796875q1.34375 0 2.203125 -0.953125l0.75 0.71875q-1.078125 1.3125 -2.984375 1.3125zm1.859375 -5.296875q0 -1.203125 -0.609375 -1.890625q-0.59375 -0.703125 -1.59375 -0.703125q-0.921875 0 -1.625 0.65625q-0.6875 0.640625 -0.859375 1.9375l4.6875 0zm3.515625 -3.421875l1.359375 0l0 1.6875q0.28125 -0.9375 0.96875 -1.40625q0.6875 -0.46875 1.625 -0.46875q0.96875 0 1.78125 0.5q0.8125 0.5 1.296875 1.484375q0.484375 0.984375 0.484375 2.40625q0 1.4375 -0.515625 2.46875q-0.5 1.03125 -1.328125 1.5625q-0.828125 0.515625 -1.765625 0.515625q-0.765625 0 -1.4375 -0.34375q-0.671875 -0.359375 -1.09375 -1.0l0 4.2343826l-1.375 0l0 -11.640633zm3.6875 7.5625q1.03125 0 1.71875 -0.765625q0.703125 -0.78125 0.703125 -2.53125q0 -1.59375 -0.625 -2.4375q-0.609375 -0.859375 -1.734375 -0.859375q-1.0625 0 -1.734375 0.890625q-0.65625 0.890625 -0.65625 2.703125q0.03125 1.46875 0.640625 2.234375q0.625 0.765625 1.6875 0.765625zm5.984375 0.96875l0 -1.078125l2.53125 0l0 -10.25l-2.421875 0l0 -1.078125l3.78125 0l0 11.328125l2.5 0l0 1.078125l-6.390625 0zm12.40625 -8.71875q1.828125 0 2.78125 0.953125q0.96875 0.953125 0.96875 3.234375l0 4.53125l-1.453125 0l0 -1.3125q-0.78125 1.515625 -2.90625 1.515625q-1.421875 0 -2.21875 -0.640625q-0.796875 -0.640625 -0.796875 -1.703125q0 -0.90625 0.578125 -1.578125q0.578125 -0.671875 1.546875 -1.03125q0.984375 -0.359375 2.15625 -0.359375q1.0625 0 1.921875 0.109375q-0.109375 -1.4375 -0.75 -2.015625q-0.640625 -0.59375 -1.921875 -0.59375q-0.625 0 -1.21875 0.25q-0.578125 0.234375 -1.0625 0.703125l-0.65625 -0.859375q1.1875 -1.203125 3.03125 -1.203125zm-0.484375 7.890625q1.390625 0 2.1875 -0.796875q0.796875 -0.8125 0.875 -2.34375q-0.84375 -0.140625 -1.8125 -0.140625q-1.40625 0 -2.234375 0.46875q-0.828125 0.46875 -0.828125 1.421875q0 1.390625 1.8125 1.390625zm13.53125 -7.703125q-0.109375 0.765625 -0.34375 1.515625q-0.234375 0.75 -0.671875 1.984375l-2.125 6.0q-0.421875 1.203125 -1.109375 1.7343826q-0.6875 0.546875 -1.640625 0.546875q-1.203125 0 -1.96875 -0.734375l0.578125 -0.9062576l0.015625 -0.03125l0.03125 0.03125q0.296875 0.28125 0.625 0.40625q0.34375 0.125 0.78125 0.125q0.703125 0 1.109375 -0.484375q0.40625 -0.484375 0.796875 -1.59375l-3.484375 -8.59375l1.390625 0l2.65625 6.828125l1.125 -3.421875q0.40625 -1.296875 0.59375 -1.96875q0.203125 -0.6875 0.296875 -1.4375l1.34375 0zm-7.046875 10.0625q0 0.03125 -0.046875 0.03125l-0.140625 -0.03125l0.0625 -0.09375l0.125 0.078125l0 0.015625zm-0.21875 0.046875q-0.078125 -0.078125 -0.046875 -0.0625q0.046875 0.015625 0.078125 0.015625l-0.03125 0.046875zm15.703125 1.6718826q-1.53125 -0.71875 -2.6875 -1.9531326q-1.15625 -1.21875 -1.78125 -2.765625q-0.625 -1.546875 -0.625 -3.203125q0 -1.640625 0.609375 -3.140625q0.609375 -1.515625 1.734375 -2.703125q1.140625 -1.1875 2.625 -1.890625l0.359375 1.15625q-1.828125 0.984375 -2.921875 2.78125q-1.09375 1.796875 -1.09375 3.859375q0 2.09375 1.125 3.921875q1.125 1.828125 3.0 2.8125l-0.34375 1.1250076zm2.71875 -3.2500076l3.171875 -5.9375l-3.109375 -5.703125l1.390625 0l2.453125 4.421875l2.40625 -4.421875l1.296875 0l-2.953125 5.6875l3.3125 5.953125l-1.484375 0l-2.5625 -4.609375l-2.5 4.609375l-1.421875 0zm10.6875 2.125q1.890625 -0.984375 3.0 -2.8125q1.1249847 -1.828125 1.1249847 -3.921875q0 -2.0625 -1.0937347 -3.859375q-1.09375 -1.796875 -2.921875 -2.78125l0.359375 -1.15625q1.484375 0.703125 2.609375 1.890625q1.1406097 1.1875 1.7499847 2.703125q0.625 1.5 0.625 3.140625q0 1.65625 -0.625 3.203125q-0.625 1.546875 -1.7812347 2.765625q-1.15625 1.2343826 -2.6875 1.9531326l-0.359375 -1.1250076z" fill-rule="nonzero"/><path fill="#000000" fill-opacity="0.0" d="m485.5105 26.947506l-293.41733 0l0 39.62205l293.41733 0z" fill-rule="evenodd"/><path fill="#000000" d="m329.29404 54.117504q-0.34375 0 -0.640625 -0.171875q-0.296875 -0.171875 -0.46875 -0.46875q-0.171875 -0.296875 -0.171875 -0.640625q0 -0.328125 0.171875 -0.609375q0.171875 -0.296875 0.46875 -0.46875q0.296875 -0.171875 0.640625 -0.171875q0.328125 0 0.609375 0.171875q0.296875 0.171875 0.46875 0.46875q0.171875 0.28125 0.171875 0.609375q0 0.34375 -0.171875 0.640625q-0.171875 0.296875 -0.46875 0.46875q-0.28125 0.171875 -0.609375 0.171875zm9.328125 0q-0.34375 0 -0.640625 -0.171875q-0.296875 -0.171875 -0.46875 -0.46875q-0.171875 -0.296875 -0.171875 -0.640625q0 -0.328125 0.171875 -0.609375q0.171875 -0.296875 0.46875 -0.46875q0.296875 -0.171875 0.640625 -0.171875q0.328125 0 0.609375 0.171875q0.296875 0.171875 0.46875 0.46875q0.171875 0.28125 0.171875 0.609375q0 0.34375 -0.171875 0.640625q-0.171875 0.296875 -0.46875 0.46875q-0.28125 0.171875 -0.609375 0.171875zm9.328125 0q-0.34375 0 -0.640625 -0.171875q-0.296875 -0.171875 -0.46875 -0.46875q-0.171875 -0.296875 -0.171875 -0.640625q0 -0.328125 0.171875 -0.609375q0.171875 -0.296875 0.46875 -0.46875q0.296875 -0.171875 0.640625 -0.171875q0.328125 0 0.609375 0.171875q0.296875 0.171875 0.46875 0.46875q0.171875 0.28125 0.171875 0.609375q0 0.34375 -0.171875 0.640625q-0.171875 0.296875 -0.46875 0.46875q-0.28125 0.171875 -0.609375 0.171875z" fill-rule="nonzero"/></g></svg>