<?xml version="1.0" standalone="yes"?>

<svg version="1.1" viewBox="0.0 0.0 1165.719160104987 229.9711286089239" fill="none" stroke="none" stroke-linecap="square" stroke-miterlimit="10" xmlns="http://www.w3.org/2000/svg" xmlns:xlink="http://www.w3.org/1999/xlink"><clipPath id="p.0"><path d="m0 0l1165.7191 0l0 229.97113l-1165.7191 0l0 -229.97113z" clip-rule="nonzero"></path></clipPath><g clip-path="url(#p.0)"><path fill="#000000" fill-opacity="0.0" d="m0 0l1165.7191 0l0 229.97113l-1165.7191 0z" fill-rule="evenodd"></path><path shape-rendering="crispEdges" fill="#b6d7a8" d="m8.047244 53.157482l160.76115 0l0 35.19685l-160.76115 0l0 -35.19685z" fill-rule="nonzero"></path><path shape-rendering="crispEdges" fill="#b6d7a8" d="m168.8084 53.157482l141.41994 0l0 35.19685l-141.41994 0l0 -35.19685z" fill-rule="nonzero"></path><path stroke="#9e9e9e" stroke-width="1.0" stroke-linecap="butt" d="m8.047244 52.658794l0 159.78477" fill-rule="nonzero"></path><path stroke="#9e9e9e" stroke-width="1.0" stroke-linecap="butt" d="m168.8084 52.658794l0 159.78477" fill-rule="nonzero"></path><path stroke="#9e9e9e" stroke-width="1.0" stroke-linecap="butt" d="m310.22833 52.658794l0 159.78477" fill-rule="nonzero"></path><path stroke="#9e9e9e" stroke-width="1.0" stroke-linecap="butt" d="m7.5485563 53.157482l303.17847 0" fill-rule="nonzero"></path><path stroke="#9e9e9e" stroke-width="1.0" stroke-linecap="butt" d="m7.5485563 88.35433l303.17847 0" fill-rule="nonzero"></path><path stroke="#9e9e9e" stroke-width="1.0" stroke-linecap="butt" d="m7.5485563 129.55118l303.17847 0" fill-rule="nonzero"></path><path stroke="#9e9e9e" stroke-width="1.0" stroke-linecap="butt" d="m7.5485563 170.74803l303.17847 0" fill-rule="nonzero"></path><path stroke="#9e9e9e" stroke-width="1.0" stroke-linecap="butt" d="m7.5485563 211.94489l303.17847 0" fill-rule="nonzero"></path><path fill="#000000" d="m22.34412 77.37936q-1.171875 -0.484375 -2.0625 -1.375q-0.875 -0.890625 -1.359375 -2.015625q-0.46875 -1.140625 -0.46875 -2.34375q0 -1.203125 0.453125 -2.296875q0.46875 -1.109375 1.328125 -1.96875q0.859375 -0.875 2.03125 -1.359375l0.34375 1.15625q-1.34375 0.6875 -2.0625 1.859375q-0.71875 1.15625 -0.71875 2.640625q0 0.96875 0.34375 1.859375q0.34375 0.890625 0.984375 1.59375q0.640625 0.703125 1.53125 1.125l-0.34375 1.125zm1.9453125 -10.71875l2.15625 0q1.0625 0 1.6875 0.28125q0.625 0.28125 1.078125 0.875q0.84375 1.15625 0.84375 3.046875q0 1.96875 -0.921875 3.03125q-0.90625 1.0625 -2.84375 1.0625l-2.0 0l0 -8.296875zm1.96875 7.125q1.15625 0 1.71875 -0.734375q0.578125 -0.734375 0.578125 -2.140625q0 -3.015625 -2.15625 -3.015625l-0.65625 0l0 5.890625l0.515625 0zm7.4609375 1.390625q-0.828125 0 -1.5 -0.421875q-0.671875 -0.421875 -1.0625 -1.171875q-0.390625 -0.765625 -0.390625 -1.734375q0 -0.90625 0.390625 -1.640625q0.390625 -0.75 1.0625 -1.171875q0.6875 -0.4375 1.5 -0.4375q0.8125 0 1.484375 0.4375q0.6875 0.421875 1.078125 1.171875q0.40625 0.734375 0.40625 1.640625q0 0.96875 -0.390625 1.734375q-0.390625 0.75 -1.078125 1.171875q-0.671875 0.421875 -1.5 0.421875zm0 -1.203125q0.4375 0 0.765625 -0.265625q0.328125 -0.265625 0.5 -0.734375q0.1875 -0.484375 0.1875 -1.125q0 -0.625 -0.1875 -1.09375q-0.171875 -0.46875 -0.5 -0.703125q-0.328125 -0.25 -0.765625 -0.25q-0.421875 0 -0.75 0.25q-0.3125 0.234375 -0.5 0.703125q-0.171875 0.46875 -0.171875 1.09375q0 0.640625 0.171875 1.125q0.171875 0.46875 0.484375 0.734375q0.328125 0.265625 0.765625 0.265625zm3.7421875 -5.3125l1.28125 0l0 0.390625q0.21875 -0.296875 0.5 -0.4375q0.296875 -0.140625 0.59375 -0.140625q0.328125 0 0.609375 0.171875q0.28125 0.171875 0.453125 0.5625q0.25 -0.375 0.53125 -0.546875q0.296875 -0.1875 0.734375 -0.1875q0.6875 0 0.96875 0.453125q0.28125 0.453125 0.28125 1.4375l0 4.59375l-1.390625 0l0 -4.34375q0 -0.53125 -0.09375 -0.75q-0.09375 -0.21875 -0.296875 -0.21875q-0.515625 0 -0.515625 1.21875l0 4.09375l-1.375 0l0 -4.28125q0 -0.59375 -0.109375 -0.8125q-0.09375 -0.21875 -0.28125 -0.21875q-0.265625 0 -0.40625 0.265625q-0.140625 0.25 -0.140625 0.921875l0 4.125l-1.34375 0l0 -6.296875zm9.4296875 -0.125q1.21875 0 1.953125 0.609375q0.75 0.609375 0.75 2.03125l0 3.78125l-1.421875 0l0 -0.5625q-0.359375 0.34375 -0.875 0.53125q-0.5 0.1875 -1.078125 0.1875q-0.96875 0 -1.484375 -0.46875q-0.5 -0.484375 -0.5 -1.296875q0 -0.671875 0.421875 -1.140625q0.421875 -0.46875 1.203125 -0.703125q0.796875 -0.25 1.890625 -0.25l0.46875 0q-0.078125 -0.8125 -0.40625 -1.15625q-0.328125 -0.359375 -1.0 -0.359375q-0.4375 0 -0.90625 0.234375q-0.453125 0.21875 -0.84375 0.625l-0.765625 -0.984375q0.59375 -0.53125 1.265625 -0.796875q0.671875 -0.28125 1.328125 -0.28125zm-0.1875 5.453125q0.65625 0 1.046875 -0.421875q0.390625 -0.421875 0.46875 -1.3125l-0.3125 0q-1.140625 0 -1.671875 0.25q-0.515625 0.234375 -0.515625 0.78125q0 0.359375 0.25 0.53125q0.265625 0.171875 0.734375 0.171875zm4.8515625 0.96875l0 -1.203125l1.5 0l0 -3.828125l-1.4375 0l0 -1.1875l2.921875 0l0 5.015625l1.359375 0l0 1.203125l-4.34375 0zm2.140625 -7.296875q-0.25 0 -0.46875 -0.125q-0.21875 -0.125 -0.34375 -0.328125q-0.109375 -0.203125 -0.109375 -0.4375q0 -0.375 0.25 -0.625q0.265625 -0.25 0.671875 -0.25q0.234375 0 0.453125 0.125q0.21875 0.109375 0.34375 0.3125q0.140625 0.203125 0.140625 0.4375q0 0.234375 -0.140625 0.4375q-0.125 0.203125 -0.34375 0.328125q-0.21875 0.125 -0.453125 0.125zm4.1328125 1.078125l1.5 0l0 0.640625q0.34375 -0.375 0.796875 -0.578125q0.453125 -0.203125 0.984375 -0.203125q0.890625 0 1.421875 0.625q0.53125 0.625 0.53125 1.953125l0 3.78125l-1.5 0l0 -3.765625q0 -0.703125 -0.265625 -1.03125q-0.25 -0.328125 -0.765625 -0.328125q-0.3125 0 -0.59375 0.125q-0.265625 0.125 -0.4375 0.390625q-0.171875 0.25 -0.171875 0.609375l0 4.0l-1.5 0l0 -6.21875zm6.8359337 6.21875l0 -1.234375l1.609375 0l0 -5.828125l-1.53125 0l0 -1.234375l4.640625 0l0 1.234375l-1.609375 0l0 5.84375l1.6875 0l0 1.21875l-4.796875 0zm6.4921875 -6.21875l1.5 0l0 0.640625q0.34375 -0.375 0.796875 -0.578125q0.453125 -0.203125 0.984375 -0.203125q0.890625 0 1.421875 0.625q0.53125 0.625 0.53125 1.953125l0 3.78125l-1.5 0l0 -3.765625q0 -0.703125 -0.265625 -1.03125q-0.25 -0.328125 -0.765625 -0.328125q-0.3125 0 -0.59375 0.125q-0.265625 0.125 -0.4375 0.390625q-0.171875 0.25 -0.171875 0.609375l0 4.0l-1.5 0l0 -6.21875zm8.9140625 6.421875q-0.734375 0 -1.34375 -0.359375q-0.609375 -0.359375 -0.96875 -1.078125q-0.34375 -0.734375 -0.34375 -1.78125q0 -1.015625 0.359375 -1.765625q0.375 -0.765625 0.96875 -1.171875q0.609375 -0.40625 1.328125 -0.40625q0.359375 0 0.75 0.1875q0.40625 0.171875 0.6875 0.4375l0 -3.265625l1.625 0l0 0.15625q-0.078125 0.078125 -0.09375 0.171875q-0.015625 0.09375 -0.015625 0.3125l-0.03125 7.609375q0 0.234375 0.03125 0.40625q0.03125 0.171875 0.125 0.34375l-1.453125 0q-0.09375 -0.171875 -0.109375 -0.3125q-0.015625 -0.15625 -0.015625 -0.4375q-0.203125 0.46875 -0.625 0.71875q-0.421875 0.234375 -0.875 0.234375zm0.21875 -1.25q1.21875 0 1.21875 -2.140625q0 -0.890625 -0.265625 -1.421875q-0.25 -0.53125 -0.90625 -0.53125q-0.703125 0 -1.0625 0.59375q-0.34375 0.578125 -0.34375 1.5q0 0.703125 0.203125 1.15625q0.203125 0.453125 0.515625 0.65625q0.3125 0.1875 0.640625 0.1875zm6.9921875 1.265625q-0.890625 0 -1.59375 -0.390625q-0.703125 -0.390625 -1.109375 -1.125q-0.390625 -0.734375 -0.390625 -1.734375q0 -1.0 0.375 -1.75q0.375 -0.765625 1.046875 -1.171875q0.671875 -0.40625 1.515625 -0.40625q0.75 0 1.34375 0.359375q0.609375 0.34375 0.953125 1.03125q0.359375 0.6875 0.359375 1.65625q0 0.15625 -0.03125 0.4375l-0.015625 0.1875l-4.078125 0q0.09375 0.84375 0.53125 1.28125q0.4375 0.4375 1.046875 0.4375q0.421875 0 0.859375 -0.203125q0.4375 -0.203125 0.71875 -0.5625l0.828125 0.828125q-0.9375 1.125 -2.359375 1.125zm1.0 -4.0q0 -0.390625 -0.15625 -0.71875q-0.140625 -0.34375 -0.421875 -0.53125q-0.28125 -0.203125 -0.65625 -0.203125q-0.546875 0 -0.90625 0.390625q-0.359375 0.390625 -0.421875 1.0625l2.5625 0zm2.3984375 3.78125l2.15625 -3.15625l-2.125 -3.0625l1.671875 0l1.28125 2.015625l1.203125 -2.015625l1.609375 0l-1.984375 3.015625l2.25 3.203125l-1.71875 0l-1.359375 -2.109375l-1.28125 2.109375l-1.703125 0zm8.3203125 1.578125q0.375 -0.359375 0.609375 -0.734375q0.25 -0.375 0.25 -0.578125q0 -0.0625 -0.0625 -0.125q-0.046875 -0.0625 -0.15625 -0.171875q-0.1875 -0.171875 -0.296875 -0.3125q-0.109375 -0.15625 -0.109375 -0.34375q0 -0.265625 0.109375 -0.46875q0.125 -0.21875 0.359375 -0.34375q0.234375 -0.125 0.53125 -0.125q0.28125 0 0.53125 0.15625q0.25 0.15625 0.40625 0.4375q0.15625 0.28125 0.15625 0.640625q0 0.515625 -0.390625 1.171875q-0.390625 0.65625 -1.1875 1.46875l-0.75 -0.671875zm15.296875 -6.390625q0.84375 0.40625 1.3125 0.78125q0.46875 0.375 0.65625 0.78125q0.203125 0.40625 0.203125 0.953125q0 0.671875 -0.3125 1.25q-0.296875 0.578125 -0.953125 0.9375q-0.65625 0.34375 -1.671875 0.34375q-1.625 0 -2.8125 -1.15625l0.640625 -1.125l0.015625 -0.015625l0.015625 0.015625q0.96875 1.0 2.265625 1.0q0.625 0 0.953125 -0.28125q0.34375 -0.296875 0.34375 -0.890625q0 -0.28125 -0.140625 -0.515625q-0.140625 -0.25 -0.5 -0.484375q-0.359375 -0.25 -0.984375 -0.515625q-1.15625 -0.515625 -1.6875 -1.140625q-0.515625 -0.625 -0.515625 -1.4375q0 -0.609375 0.328125 -1.109375q0.34375 -0.5 0.9375 -0.796875q0.59375 -0.296875 1.328125 -0.296875q0.828125 0 1.421875 0.28125q0.59375 0.265625 1.140625 0.828125l-0.75 1.046875l0 0.015625q0 0 0 0q0 -0.015625 0 -0.015625q-0.3125 -0.484375 -0.796875 -0.703125q-0.46875 -0.21875 -1.03125 -0.21875q-0.359375 0 -0.625 0.125q-0.265625 0.125 -0.40625 0.328125q-0.125 0.203125 -0.125 0.453125q0 0.296875 0.140625 0.53125q0.15625 0.21875 0.53125 0.453125q0.375 0.234375 1.078125 0.578125zm1.046875 -1.546875q0 -0.015625 0.015625 -0.015625q0.015625 0 0.046875 0.03125q0.046875 0.03125 0.078125 0.046875l-0.015625 0.03125l-0.125 -0.078125l0 -0.015625zm0.1875 0.015625q0.046875 0.0625 0.046875 0.09375q0 0 -0.015625 0q-0.015625 0 -0.078125 -0.046875l0.046875 -0.046875zm-3.96875 4.28125q0 0.015625 -0.015625 0.015625q-0.015625 0 -0.0625 -0.015625q-0.046875 -0.03125 -0.09375 -0.046875l0.03125 -0.046875l0.125 0.078125l0.015625 0.015625zm-0.1875 0q-0.0625 -0.046875 -0.0625 -0.078125q0 0 0 0q0 0 0.015625 0l0.0625 0.03125l-0.015625 0.046875zm6.4296875 -6.9375l1.609375 0l0 0.15625q-0.0625 0.078125 -0.09375 0.171875q-0.015625 0.09375 -0.015625 0.3125l0 2.78125q0.328125 -0.359375 0.765625 -0.5625q0.4375 -0.21875 0.875 -0.21875q1.0 0 1.546875 0.625q0.5625 0.625 0.5625 1.953125l0 3.78125l-1.515625 0l0 -3.765625q0 -0.6875 -0.25 -1.015625q-0.234375 -0.34375 -0.640625 -0.34375q-0.375 0 -0.6875 0.203125q-0.296875 0.1875 -0.484375 0.53125q-0.171875 0.34375 -0.171875 0.796875l0 3.59375l-1.5 0l0 -9.0zm9.0546875 2.578125q1.21875 0 1.953125 0.609375q0.75 0.609375 0.75 2.03125l0 3.78125l-1.421875 0l0 -0.5625q-0.359375 0.34375 -0.875 0.53125q-0.5 0.1875 -1.078125 0.1875q-0.96875 0 -1.484375 -0.46875q-0.5 -0.484375 -0.5 -1.296875q0 -0.671875 0.421875 -1.140625q0.421875 -0.46875 1.203125 -0.703125q0.796875 -0.25 1.890625 -0.25l0.46875 0q-0.078125 -0.8125 -0.40625 -1.15625q-0.328125 -0.359375 -1.0 -0.359375q-0.4375 0 -0.90625 0.234375q-0.453125 0.21875 -0.84375 0.625l-0.765625 -0.984375q0.59375 -0.53125 1.265625 -0.796875q0.671875 -0.28125 1.328125 -0.28125zm-0.1875 5.453125q0.65625 0 1.046875 -0.421875q0.390625 -0.421875 0.46875 -1.3125l-0.3125 0q-1.140625 0 -1.671875 0.25q-0.515625 0.234375 -0.515625 0.78125q0 0.359375 0.25 0.53125q0.265625 0.171875 0.734375 0.171875zm9.2421875 -3.359375l0 -0.015625q-0.25 -0.40625 -0.546875 -0.578125q-0.28125 -0.171875 -0.65625 -0.171875q-0.484375 0 -0.875 0.234375q-0.375 0.21875 -0.59375 0.640625q-0.21875 0.40625 -0.21875 0.96875l0 3.25l-1.5 0l0 -6.21875l1.53125 0l0 0.890625q0.25 -0.484375 0.71875 -0.75q0.484375 -0.28125 1.078125 -0.28125q0.46875 0 0.921875 0.171875q0.453125 0.171875 0.8125 0.515625l-0.671875 1.34375zm-0.1875 0q0 0 0.015625 0q0.015625 0 0.0625 0.03125q0.046875 0.015625 0.078125 0.03125l-0.015625 0.015625l-0.125 -0.0625l-0.015625 -0.015625zm0.1875 0q0.046875 0.0625 0.046875 0.078125q0 0.015625 -0.015625 0.015625q-0.015625 0 -0.0625 -0.03125l0.03125 -0.0625zm4.1328125 4.53125q-0.734375 0 -1.34375 -0.359375q-0.609375 -0.359375 -0.96875 -1.078125q-0.34375 -0.734375 -0.34375 -1.78125q0 -1.015625 0.359375 -1.765625q0.375 -0.765625 0.96875 -1.171875q0.609375 -0.40625 1.328125 -0.40625q0.359375 0 0.75 0.1875q0.40625 0.171875 0.6875 0.4375l0 -3.265625l1.625 0l0 0.15625q-0.078125 0.078125 -0.09375 0.171875q-0.015625 0.09375 -0.015625 0.3125l-0.03125 7.609375q0 0.234375 0.03125 0.40625q0.03125 0.171875 0.125 0.34375l-1.453125 0q-0.09375 -0.171875 -0.109375 -0.3125q-0.015625 -0.15625 -0.015625 -0.4375q-0.203125 0.46875 -0.625 0.71875q-0.421875 0.234375 -0.875 0.234375zm0.21875 -1.25q1.21875 0 1.21875 -2.140625q0 -0.890625 -0.265625 -1.421875q-0.25 -0.53125 -0.90625 -0.53125q-0.703125 0 -1.0625 0.59375q-0.34375 0.578125 -0.34375 1.5q0 0.703125 0.203125 1.15625q0.203125 0.453125 0.515625 0.65625q0.3125 0.1875 0.640625 0.1875zm4.8046875 2.34375q0.875 -0.421875 1.515625 -1.125q0.65625 -0.703125 0.984375 -1.59375q0.34375 -0.890625 0.34375 -1.859375q0 -1.484375 -0.71875 -2.640625q-0.71875 -1.171875 -2.046875 -1.859375l0.34375 -1.15625q1.15625 0.484375 2.015625 1.359375q0.875 0.859375 1.328125 1.96875q0.46875 1.09375 0.46875 2.296875q0 1.203125 -0.484375 2.34375q-0.484375 1.125 -1.359375 2.015625q-0.875 0.890625 -2.046875 1.375l-0.34375 -1.125z" fill-rule="nonzero"></path><path fill="#000000" d="m181.76152 70.14498q0.84375 0.40625 1.3125 0.78125q0.46875 0.375 0.65625 0.78125q0.203125 0.40625 0.203125 0.953125q0 0.671875 -0.3125 1.25q-0.296875 0.578125 -0.953125 0.9375q-0.65625 0.34375 -1.671875 0.34375q-1.625 0 -2.8125 -1.15625l0.640625 -1.125l0.015625 -0.015625l0.015625 0.015625q0.96875 1.0 2.265625 1.0q0.625 0 0.953125 -0.28125q0.34375 -0.296875 0.34375 -0.890625q0 -0.28125 -0.140625 -0.515625q-0.140625 -0.25 -0.5 -0.484375q-0.359375 -0.25 -0.984375 -0.515625q-1.15625 -0.515625 -1.6875 -1.140625q-0.515625 -0.625 -0.515625 -1.4375q0 -0.609375 0.328125 -1.109375q0.34375 -0.5 0.9375 -0.796875q0.59375 -0.296875 1.328125 -0.296875q0.828125 0 1.421875 0.28125q0.59375 0.265625 1.140625 0.828125l-0.75 1.046875l0 0.015625q0 0 0 0q0 -0.015625 0 -0.015625q-0.3125 -0.484375 -0.796875 -0.703125q-0.46875 -0.21875 -1.03125 -0.21875q-0.359375 0 -0.625 0.125q-0.265625 0.125 -0.40625 0.328125q-0.125 0.203125 -0.125 0.453125q0 0.296875 0.140625 0.53125q0.15625 0.21875 0.53125 0.453125q0.375 0.234375 1.078125 0.578125zm1.046875 -1.546875q0 -0.015625 0.015625 -0.015625q0.015625 0 0.046875 0.03125q0.046875 0.03125 0.078125 0.046875l-0.015625 0.03125l-0.125 -0.078125l0 -0.015625zm0.1875 0.015625q0.046875 0.0625 0.046875 0.09375q0 0 -0.015625 0q-0.015625 0 -0.078125 -0.046875l0.046875 -0.046875zm-3.96875 4.28125q0 0.015625 -0.015625 0.015625q-0.015625 0 -0.0625 -0.015625q-0.046875 -0.03125 -0.09375 -0.046875l0.03125 -0.046875l0.125 0.078125l0.015625 0.015625zm-0.1875 0q-0.0625 -0.046875 -0.0625 -0.078125q0 0 0 0q0 0 0.015625 0l0.0625 0.03125l-0.015625 0.046875zm6.4296875 -4.15625l1.5 0l0 0.640625q0.34375 -0.375 0.796875 -0.578125q0.453125 -0.203125 0.984375 -0.203125q0.890625 0 1.421875 0.625q0.53125 0.625 0.53125 1.953125l0 3.78125l-1.5 0l0 -3.765625q0 -0.703125 -0.265625 -1.03125q-0.25 -0.328125 -0.765625 -0.328125q-0.3125 0 -0.59375 0.125q-0.265625 0.125 -0.4375 0.390625q-0.171875 0.25 -0.171875 0.609375l0 4.0l-1.5 0l0 -6.21875zm9.0546875 -0.203125q1.21875 0 1.953125 0.609375q0.75 0.609375 0.75 2.03125l0 3.78125l-1.421875 0l0 -0.5625q-0.359375 0.34375 -0.875 0.53125q-0.5 0.1875 -1.078125 0.1875q-0.96875 0 -1.484375 -0.46875q-0.5 -0.484375 -0.5 -1.296875q0 -0.671875 0.421875 -1.140625q0.421875 -0.46875 1.203125 -0.703125q0.796875 -0.25 1.890625 -0.25l0.46875 0q-0.078125 -0.8125 -0.40625 -1.15625q-0.328125 -0.359375 -1.0 -0.359375q-0.4375 0 -0.90625 0.234375q-0.453125 0.21875 -0.84375 0.625l-0.765625 -0.984375q0.59375 -0.53125 1.265625 -0.796875q0.671875 -0.28125 1.328125 -0.28125zm-0.1875 5.453125q0.65625 0 1.046875 -0.421875q0.390625 -0.421875 0.46875 -1.3125l-0.3125 0q-1.140625 0 -1.671875 0.25q-0.515625 0.234375 -0.515625 0.78125q0 0.359375 0.25 0.53125q0.265625 0.171875 0.734375 0.171875zm4.3828125 -5.25l1.4375 0l0 0.765625q0.296875 -0.46875 0.6875 -0.6875q0.40625 -0.21875 0.921875 -0.21875q0.6875 0 1.265625 0.375q0.578125 0.375 0.921875 1.125q0.34375 0.734375 0.34375 1.78125q0 1.0625 -0.359375 1.796875q-0.34375 0.734375 -0.921875 1.109375q-0.578125 0.375 -1.234375 0.375q-0.5 0 -0.90625 -0.203125q-0.390625 -0.21875 -0.65625 -0.671875l0 2.890625l-1.484375 0l-0.015625 -8.4375zm2.71875 5.1875q0.375 0 0.6875 -0.21875q0.3125 -0.234375 0.484375 -0.703125q0.1875 -0.484375 0.1875 -1.203125q0 -0.890625 -0.3125 -1.421875q-0.296875 -0.546875 -0.953125 -0.546875q-0.6875 0 -1.0 0.578125q-0.3125 0.5625 -0.3125 1.515625q0 1.015625 0.328125 1.515625q0.328125 0.484375 0.890625 0.484375zm7.1640625 -2.6875q0.78125 0.234375 1.203125 0.484375q0.4375 0.234375 0.640625 0.5625q0.203125 0.328125 0.203125 0.828125q0 0.546875 -0.328125 1.015625q-0.3125 0.46875 -0.875 0.765625q-0.5625 0.28125 -1.25 0.28125q-0.9375 0 -1.640625 -0.25q-0.6875 -0.25 -1.265625 -0.8125l0.625 -1.09375l0 -0.015625l0.015625 0.015625q0.453125 0.5 0.984375 0.734375q0.53125 0.21875 1.296875 0.21875q1.0625 0 1.0625 -0.703125q0 -0.21875 -0.125 -0.375q-0.125 -0.15625 -0.421875 -0.28125q-0.28125 -0.140625 -0.78125 -0.28125q-1.078125 -0.28125 -1.671875 -0.703125q-0.59375 -0.421875 -0.59375 -1.171875q0 -0.546875 0.28125 -0.96875q0.296875 -0.421875 0.84375 -0.65625q0.546875 -0.234375 1.265625 -0.234375q0.734375 0 1.328125 0.234375q0.609375 0.234375 1.109375 0.734375l-0.75 1.046875l0 0.015625q-0.015625 0 -0.015625 0q0 -0.015625 0 -0.015625q-0.265625 -0.390625 -0.703125 -0.59375q-0.4375 -0.21875 -0.9375 -0.21875q-0.390625 0 -0.671875 0.140625q-0.265625 0.125 -0.265625 0.359375q0 0.21875 0.140625 0.375q0.15625 0.15625 0.453125 0.28125q0.296875 0.109375 0.84375 0.28125zm0.96875 -0.625q0 -0.015625 0.015625 -0.015625q0.015625 0 0.0625 0.03125q0.046875 0.03125 0.078125 0.046875l-0.03125 0.03125l-0.125 -0.078125l0 -0.015625zm0.1875 0.015625q0.046875 0.0625 0.046875 0.078125q0 0.015625 -0.03125 0q-0.03125 -0.015625 -0.046875 -0.03125l0.03125 -0.046875zm-3.65625 2.390625q0 0.015625 0 0.015625q-0.03125 0 -0.078125 -0.03125q-0.046875 -0.03125 -0.078125 -0.03125l0.03125 -0.046875l0.125 0.078125l0 0.015625zm-0.1875 -0.015625q-0.046875 -0.046875 -0.046875 -0.0625q0 0 0 0q0 -0.015625 0 -0.015625l0.078125 0.046875l-0.03125 0.03125zm6.2109375 -7.046875l1.609375 0l0 0.15625q-0.0625 0.078125 -0.09375 0.171875q-0.015625 0.09375 -0.015625 0.3125l0 2.78125q0.328125 -0.359375 0.765625 -0.5625q0.4375 -0.21875 0.875 -0.21875q1.0 0 1.546875 0.625q0.5625 0.625 0.5625 1.953125l0 3.78125l-1.515625 0l0 -3.765625q0 -0.6875 -0.25 -1.015625q-0.234375 -0.34375 -0.640625 -0.34375q-0.375 0 -0.6875 0.203125q-0.296875 0.1875 -0.484375 0.53125q-0.171875 0.34375 -0.171875 0.796875l0 3.59375l-1.5 0l0 -9.0zm9.2109375 9.21875q-0.828125 0 -1.5 -0.421875q-0.671875 -0.421875 -1.0625 -1.171875q-0.390625 -0.765625 -0.390625 -1.734375q0 -0.90625 0.390625 -1.640625q0.390625 -0.75 1.0625 -1.171875q0.6875 -0.4375 1.5 -0.4375q0.8125 0 1.484375 0.4375q0.6875 0.421875 1.078125 1.171875q0.40625 0.734375 0.40625 1.640625q0 0.96875 -0.390625 1.734375q-0.390625 0.75 -1.078125 1.171875q-0.671875 0.421875 -1.5 0.421875zm0 -1.203125q0.4375 0 0.765625 -0.265625q0.328125 -0.265625 0.5 -0.734375q0.1875 -0.484375 0.1875 -1.125q0 -0.625 -0.1875 -1.09375q-0.171875 -0.46875 -0.5 -0.703125q-0.328125 -0.25 -0.765625 -0.25q-0.421875 0 -0.75 0.25q-0.3125 0.234375 -0.5 0.703125q-0.171875 0.46875 -0.171875 1.09375q0 0.640625 0.171875 1.125q0.171875 0.46875 0.484375 0.734375q0.328125 0.265625 0.765625 0.265625zm9.3828125 0.421875q-0.484375 0.375 -1.015625 0.5625q-0.515625 0.1875 -1.125 0.1875q-0.96875 0 -1.484375 -0.5625q-0.515625 -0.578125 -0.515625 -1.984375q0 -0.359375 0.03125 -0.78125l0.109375 -1.875l-1.34375 0l0.03125 -1.203125l1.390625 0l0.078125 -1.453125l1.640625 -0.28125l0.03125 0.15625q-0.015625 0.015625 -0.0625 0.09375q-0.046875 0.0625 -0.09375 0.171875q-0.03125 0.09375 -0.03125 0.234375l-0.09375 1.078125l1.90625 0l-0.015625 1.203125l-1.921875 0l-0.140625 1.78125q-0.03125 0.453125 -0.03125 0.71875q0 0.828125 0.203125 1.15625q0.203125 0.328125 0.625 0.328125q0.40625 0 0.75 -0.15625q0.34375 -0.15625 0.765625 -0.515625l0.3125 1.140625zm8.234375 0.5625l0 -1.234375l1.609375 0l0 -5.828125l-1.53125 0l0 -1.234375l4.640625 0l0 1.234375l-1.609375 0l0 5.84375l1.6875 0l0 1.21875l-4.796875 0zm6.2734375 -8.296875l2.15625 0q1.0625 0 1.6875 0.28125q0.625 0.28125 1.078125 0.875q0.84375 1.15625 0.84375 3.046875q0 1.96875 -0.921875 3.03125q-0.90625 1.0625 -2.84375 1.0625l-2.0 0l0 -8.296875zm1.96875 7.125q1.15625 0 1.71875 -0.734375q0.578125 -0.734375 0.578125 -2.140625q0 -3.015625 -2.15625 -3.015625l-0.65625 0l0 5.890625l0.515625 0z" fill-rule="nonzero"></path><path fill="#000000" d="m24.422245 118.52433q-1.53125 -0.71875 -2.6875 -1.953125q-1.15625 -1.21875 -1.78125 -2.765625q-0.625 -1.546875 -0.625 -3.203125q0 -1.640625 0.609375 -3.140625q0.609375 -1.515625 1.734375 -2.703125q1.140625 -1.1875 2.625 -1.890625l0.359375 1.15625q-1.828125 0.984375 -2.921875 2.78125q-1.09375 1.796875 -1.09375 3.859375q0 2.09375 1.125 3.921875q1.125 1.828125 3.0 2.8125l-0.34375 1.125zm6.625 -14.953125q1.703125 0 2.640625 1.59375q0.953125 1.578125 0.953125 4.359375q0 2.859375 -0.9375 4.40625q-0.921875 1.546875 -2.65625 1.546875q-1.75 0 -2.6875 -1.546875q-0.921875 -1.546875 -0.921875 -4.40625q0 -2.78125 0.9375 -4.359375q0.953125 -1.59375 2.671875 -1.59375zm0 1.140625q-1.078125 0 -1.671875 1.296875q-0.59375 1.296875 -0.59375 3.515625q0 1.21875 0.171875 2.15625l3.953125 -5.125q-0.28125 -0.890625 -0.765625 -1.359375q-0.46875 -0.484375 -1.09375 -0.484375zm0 9.625q1.0625 0 1.65625 -1.25q0.59375 -1.25 0.59375 -3.5625q0 -1.078125 -0.125 -1.859375l-3.96875 5.03125q0.609375 1.640625 1.84375 1.640625zm7.734375 3.515625q0.515625 -0.484375 0.859375 -1.046875q0.359375 -0.5625 0.359375 -0.921875q0 -0.15625 -0.09375 -0.28125q-0.09375 -0.109375 -0.34375 -0.328125q-0.265625 -0.25 -0.390625 -0.40625q-0.125 -0.171875 -0.125 -0.421875q0 -0.453125 0.296875 -0.765625q0.3125 -0.328125 0.796875 -0.328125q0.5 0 0.875 0.4375q0.390625 0.4375 0.390625 1.109375q0 1.453125 -1.984375 3.515625l-0.640625 -0.5625zm20.25 -14.28125q1.703125 0 2.640625 1.59375q0.953125 1.578125 0.953125 4.359375q0 2.859375 -0.9375 4.40625q-0.921875 1.546875 -2.65625 1.546875q-1.75 0 -2.6875 -1.546875q-0.921875 -1.546875 -0.921875 -4.40625q0 -2.78125 0.9375 -4.359375q0.953125 -1.59375 2.671875 -1.59375zm0 1.140625q-1.078125 0 -1.671875 1.296875q-0.59375 1.296875 -0.59375 3.515625q0 1.21875 0.171875 2.15625l3.953125 -5.125q-0.28125 -0.890625 -0.765625 -1.359375q-0.46875 -0.484375 -1.09375 -0.484375zm0 9.625q1.0625 0 1.65625 -1.25q0.59375 -1.25 0.59375 -3.5625q0 -1.078125 -0.125 -1.859375l-3.96875 5.03125q0.609375 1.640625 1.84375 1.640625zm6.781246 3.0625q1.890625 -0.984375 3.0 -2.8125q1.125 -1.828125 1.125 -3.921875q0 -2.0625 -1.09375 -3.859375q-1.09375 -1.796875 -2.921875 -2.78125l0.359375 -1.15625q1.484375 0.703125 2.609375 1.890625q1.140625 1.1875 1.75 2.703125q0.625 1.5 0.625 3.140625q0 1.65625 -0.625 3.203125q-0.625 1.546875 -1.78125 2.765625q-1.15625 1.234375 -2.6875 1.953125l-0.359375 -1.125z" fill-rule="nonzero"></path><path fill="#000000" d="m183.5584 109.11808q1.015625 0.328125 1.609375 1.078125q0.609375 0.75 0.609375 1.890625q0 0.9375 -0.421875 1.71875q-0.40625 0.765625 -1.1875 1.21875q-0.78125 0.453125 -1.875 0.453125q-0.9375 0 -1.765625 -0.328125q-0.828125 -0.34375 -1.4375 -1.0l0.859375 -1.015625l0.03125 -0.03125l0.015625 0.03125q0.46875 0.59375 0.953125 0.90625q0.5 0.3125 1.28125 0.3125q1.078125 0 1.640625 -0.625q0.5625 -0.640625 0.5625 -1.703125q0 -1.15625 -0.703125 -1.734375q-0.703125 -0.578125 -1.96875 -0.578125q-0.1875 0 -0.59375 0.046875l0 -1.046875q1.65625 0 2.265625 -0.609375q0.609375 -0.625 0.609375 -1.6875q0 -0.78125 -0.46875 -1.25q-0.453125 -0.46875 -1.1875 -0.46875q-1.21875 0 -2.140625 0.859375l-0.78125 -0.78125q1.140625 -1.203125 2.890625 -1.203125q1.40625 0 2.21875 0.796875q0.8125 0.796875 0.8125 2.09375q0 0.953125 -0.46875 1.671875q-0.46875 0.703125 -1.359375 0.984375zm-3.375 3.953125q0 0.0625 -0.0625 0.046875q-0.0625 -0.015625 -0.109375 -0.046875l0.078125 -0.09375l0.09375 0.09375zm-0.203125 0.03125q-0.078125 -0.125 -0.03125 -0.078125q0.046875 0.03125 0.0625 0.046875l-0.03125 0.03125z" fill-rule="nonzero"></path><path fill="#000000" d="m24.422245 159.72118q-1.53125 -0.71875 -2.6875 -1.953125q-1.15625 -1.21875 -1.78125 -2.765625q-0.625 -1.546875 -0.625 -3.203125q0 -1.640625 0.609375 -3.140625q0.609375 -1.515625 1.734375 -2.703125q1.140625 -1.1875 2.625 -1.890625l0.359375 1.15625q-1.828125 0.984375 -2.921875 2.78125q-1.09375 1.796875 -1.09375 3.859375q0 2.09375 1.125 3.921875q1.125 1.828125 3.0 2.8125l-0.34375 1.125zm6.25 -3.25l0 -10.015625l-2.359375 0.6875l-0.296875 -0.734375l3.046875 -1.578125l0.90625 0l0 11.640625l-1.296875 0zm8.109375 2.578125q0.515625 -0.484375 0.859375 -1.046875q0.359375 -0.5625 0.359375 -0.921875q0 -0.15625 -0.09375 -0.28125q-0.09375 -0.109375 -0.34375 -0.328125q-0.265625 -0.25 -0.390625 -0.40625q-0.125 -0.171875 -0.125 -0.421875q0 -0.453125 0.296875 -0.765625q0.3125 -0.328125 0.796875 -0.328125q0.5 0 0.875 0.4375q0.390625 0.4375 0.390625 1.109375q0 1.453125 -1.984375 3.515625l-0.640625 -0.5625zm20.25 -14.28125q1.703125 0 2.640625 1.59375q0.953125 1.578125 0.953125 4.359375q0 2.859375 -0.9375 4.40625q-0.921875 1.546875 -2.65625 1.546875q-1.75 0 -2.6875 -1.546875q-0.921875 -1.546875 -0.921875 -4.40625q0 -2.78125 0.9375 -4.359375q0.953125 -1.59375 2.671875 -1.59375zm0 1.140625q-1.078125 0 -1.671875 1.296875q-0.59375 1.296875 -0.59375 3.515625q0 1.21875 0.171875 2.15625l3.953125 -5.125q-0.28125 -0.890625 -0.765625 -1.359375q-0.46875 -0.484375 -1.09375 -0.484375zm0 9.625q1.0625 0 1.65625 -1.25q0.59375 -1.25 0.59375 -3.5625q0 -1.078125 -0.125 -1.859375l-3.96875 5.03125q0.609375 1.640625 1.84375 1.640625zm6.781246 3.0625q1.890625 -0.984375 3.0 -2.8125q1.125 -1.828125 1.125 -3.921875q0 -2.0625 -1.09375 -3.859375q-1.09375 -1.796875 -2.921875 -2.78125l0.359375 -1.15625q1.484375 0.703125 2.609375 1.890625q1.140625 1.1875 1.75 2.703125q0.625 1.5 0.625 3.140625q0 1.65625 -0.625 3.203125q-0.625 1.546875 -1.78125 2.765625q-1.15625 1.234375 -2.6875 1.953125l-0.359375 -1.125z" fill-rule="nonzero"></path><path fill="#000000" d="m183.7459 156.47118l0 -2.859375l-5.046875 0l0 -0.953125l5.328125 -7.828125l1.09375 0l0 7.703125l1.5 0l0 1.109375l-1.5 0l0 2.828125l-1.375 0zm-3.53125 -3.953125l3.53125 0l0 -5.34375l-3.53125 5.34375z" fill-rule="nonzero"></path><path fill="#000000" d="m24.422245 200.91803q-1.53125 -0.71875 -2.6875 -1.953125q-1.15625 -1.21875 -1.78125 -2.765625q-0.625 -1.546875 -0.625 -3.203125q0 -1.640625 0.609375 -3.140625q0.609375 -1.515625 1.734375 -2.703125q1.140625 -1.1875 2.625 -1.890625l0.359375 1.15625q-1.828125 0.984375 -2.921875 2.78125q-1.09375 1.796875 -1.09375 3.859375q0 2.09375 1.125 3.921875q1.125 1.828125 3.0 2.8125l-0.34375 1.125zm3.3125 -4.296875l1.515625 -1.53125q1.515625 -1.5 2.265625 -2.359375q0.75 -0.859375 1.203125 -1.703125q0.453125 -0.859375 0.453125 -1.765625q0 -1.140625 -0.546875 -1.640625q-0.546875 -0.515625 -1.4375 -0.515625q-0.796875 0 -1.484375 0.359375q-0.671875 0.359375 -0.90625 0.78125q-0.109375 0.203125 -0.21875 0.421875q-0.109375 0.21875 -0.109375 0.25q0 0.015625 0.015625 0.015625q0.015625 0 0.0625 -0.015625q0.0625 -0.03125 0.078125 0.03125l-0.046875 0.125l-0.171875 -0.09375l-0.953125 -0.75q0.5625 -1.078125 1.53125 -1.671875q0.96875 -0.59375 2.1875 -0.59375q1.484375 0 2.40625 0.90625q0.9375 0.890625 0.9375 2.421875q0 1.0 -0.5 1.953125q-0.484375 0.953125 -1.234375 1.8125q-0.75 0.859375 -2.09375 2.1875l-1.265625 1.28125l4.328125 0q0.296875 0 0.4375 -0.03125q0.140625 -0.046875 0.25 -0.15625l0.125 0l0 1.328125l-6.828125 0l0 -1.046875zm11.046875 3.625q0.515625 -0.484375 0.859375 -1.046875q0.359375 -0.5625 0.359375 -0.921875q0 -0.15625 -0.09375 -0.28125q-0.09375 -0.109375 -0.34375 -0.328125q-0.265625 -0.25 -0.390625 -0.40625q-0.125 -0.171875 -0.125 -0.421875q0 -0.453125 0.296875 -0.765625q0.3125 -0.328125 0.796875 -0.328125q0.5 0 0.875 0.4375q0.390625 0.4375 0.390625 1.109375q0 1.453125 -1.984375 3.515625l-0.640625 -0.5625zm20.25 -14.28125q1.703125 0 2.640625 1.59375q0.953125 1.578125 0.953125 4.359375q0 2.859375 -0.9375 4.40625q-0.921875 1.546875 -2.65625 1.546875q-1.75 0 -2.6875 -1.546875q-0.921875 -1.546875 -0.921875 -4.40625q0 -2.78125 0.9375 -4.359375q0.953125 -1.59375 2.671875 -1.59375zm0 1.140625q-1.078125 0 -1.671875 1.296875q-0.59375 1.296875 -0.59375 3.515625q0 1.21875 0.171875 2.15625l3.953125 -5.125q-0.28125 -0.890625 -0.765625 -1.359375q-0.46875 -0.484375 -1.09375 -0.484375zm0 9.625q1.0625 0 1.65625 -1.25q0.59375 -1.25 0.59375 -3.5625q0 -1.078125 -0.125 -1.859375l-3.96875 5.03125q0.609375 1.640625 1.84375 1.640625zm6.781246 3.0625q1.890625 -0.984375 3.0 -2.8125q1.125 -1.828125 1.125 -3.921875q0 -2.0625 -1.09375 -3.859375q-1.09375 -1.796875 -2.921875 -2.78125l0.359375 -1.15625q1.484375 0.703125 2.609375 1.890625q1.140625 1.1875 1.75 2.703125q0.625 1.5 0.625 3.140625q0 1.65625 -0.625 3.203125q-0.625 1.546875 -1.78125 2.765625q-1.15625 1.234375 -2.6875 1.953125l-0.359375 -1.125z" fill-rule="nonzero"></path><path fill="#000000" d="m183.7459 197.66803l0 -2.859375l-5.046875 0l0 -0.953125l5.328125 -7.828125l1.09375 0l0 7.703125l1.5 0l0 1.109375l-1.5 0l0 2.828125l-1.375 0zm-3.53125 -3.953125l3.53125 0l0 -5.34375l-3.53125 5.34375z" fill-rule="nonzero"></path><path shape-rendering="crispEdges" fill="#b6d7a8" d="m848.2782 53.157482l160.76117 0l0 35.19685l-160.76117 0l0 -35.19685z" fill-rule="nonzero"></path><path shape-rendering="crispEdges" fill="#b6d7a8" d="m1009.03937 53.157482l141.41998 0l0 35.19685l-141.41998 0l0 -35.19685z" fill-rule="nonzero"></path><path stroke="#9e9e9e" stroke-width="1.0" stroke-linecap="butt" d="m848.2782 52.658794l0 159.78477" fill-rule="nonzero"></path><path stroke="#9e9e9e" stroke-width="1.0" stroke-linecap="butt" d="m1009.03937 52.658794l0 159.78477" fill-rule="nonzero"></path><path stroke="#9e9e9e" stroke-width="1.0" stroke-linecap="butt" d="m1150.4594 52.658794l0 159.78477" fill-rule="nonzero"></path><path stroke="#9e9e9e" stroke-width="1.0" stroke-linecap="butt" d="m847.77954 53.157482l303.17847 0" fill-rule="nonzero"></path><path stroke="#9e9e9e" stroke-width="1.0" stroke-linecap="butt" d="m847.77954 88.35433l303.17847 0" fill-rule="nonzero"></path><path stroke="#9e9e9e" stroke-width="1.0" stroke-linecap="butt" d="m847.77954 129.55118l303.17847 0" fill-rule="nonzero"></path><path stroke="#9e9e9e" stroke-width="1.0" stroke-linecap="butt" d="m847.77954 170.74803l303.17847 0" fill-rule="nonzero"></path><path stroke="#9e9e9e" stroke-width="1.0" stroke-linecap="butt" d="m847.77954 211.94489l303.17847 0" fill-rule="nonzero"></path><path fill="#000000" d="m862.5751 77.37936q-1.171875 -0.484375 -2.0625 -1.375q-0.875 -0.890625 -1.359375 -2.015625q-0.46875 -1.140625 -0.46875 -2.34375q0 -1.203125 0.453125 -2.296875q0.46875 -1.109375 1.328125 -1.96875q0.859375 -0.875 2.03125 -1.359375l0.34375 1.15625q-1.34375 0.6875 -2.0625 1.859375q-0.71875 1.15625 -0.71875 2.640625q0 0.96875 0.34375 1.859375q0.34375 0.890625 0.984375 1.59375q0.640625 0.703125 1.53125 1.125l-0.34375 1.125zm1.9453125 -10.71875l2.15625 0q1.0625 0 1.6875 0.28125q0.625 0.28125 1.078125 0.875q0.84375 1.15625 0.84375 3.046875q0 1.96875 -0.921875 3.03125q-0.90625 1.0625 -2.84375 1.0625l-2.0 0l0 -8.296875zm1.96875 7.125q1.15625 0 1.71875 -0.734375q0.578125 -0.734375 0.578125 -2.140625q0 -3.015625 -2.15625 -3.015625l-0.65625 0l0 5.890625l0.515625 0zm7.4609375 1.390625q-0.828125 0 -1.5 -0.421875q-0.671875 -0.421875 -1.0625 -1.171875q-0.390625 -0.765625 -0.390625 -1.734375q0 -0.90625 0.390625 -1.640625q0.390625 -0.75 1.0625 -1.171875q0.6875 -0.4375 1.5 -0.4375q0.8125 0 1.484375 0.4375q0.6875 0.421875 1.078125 1.171875q0.40625 0.734375 0.40625 1.640625q0 0.96875 -0.390625 1.734375q-0.390625 0.75 -1.078125 1.171875q-0.671875 0.421875 -1.5 0.421875zm0 -1.203125q0.4375 0 0.765625 -0.265625q0.328125 -0.265625 0.5 -0.734375q0.1875 -0.484375 0.1875 -1.125q0 -0.625 -0.1875 -1.09375q-0.171875 -0.46875 -0.5 -0.703125q-0.328125 -0.25 -0.765625 -0.25q-0.421875 0 -0.75 0.25q-0.3125 0.234375 -0.5 0.703125q-0.171875 0.46875 -0.171875 1.09375q0 0.640625 0.171875 1.125q0.171875 0.46875 0.484375 0.734375q0.328125 0.265625 0.765625 0.265625zm3.7421875 -5.3125l1.28125 0l0 0.390625q0.21875 -0.296875 0.5 -0.4375q0.296875 -0.140625 0.59375 -0.140625q0.328125 0 0.609375 0.171875q0.28125 0.171875 0.453125 0.5625q0.25 -0.375 0.53125 -0.546875q0.296875 -0.1875 0.734375 -0.1875q0.6875 0 0.96875 0.453125q0.28125 0.453125 0.28125 1.4375l0 4.59375l-1.390625 0l0 -4.34375q0 -0.53125 -0.09375 -0.75q-0.09375 -0.21875 -0.296875 -0.21875q-0.515625 0 -0.515625 1.21875l0 4.09375l-1.375 0l0 -4.28125q0 -0.59375 -0.109375 -0.8125q-0.09375 -0.21875 -0.28125 -0.21875q-0.265625 0 -0.40625 0.265625q-0.140625 0.25 -0.140625 0.921875l0 4.125l-1.34375 0l0 -6.296875zm9.4296875 -0.125q1.21875 0 1.953125 0.609375q0.75 0.609375 0.75 2.03125l0 3.78125l-1.421875 0l0 -0.5625q-0.359375 0.34375 -0.875 0.53125q-0.5 0.1875 -1.078125 0.1875q-0.96875 0 -1.484375 -0.46875q-0.5 -0.484375 -0.5 -1.296875q0 -0.671875 0.421875 -1.140625q0.421875 -0.46875 1.203125 -0.703125q0.796875 -0.25 1.890625 -0.25l0.46875 0q-0.078125 -0.8125 -0.40625 -1.15625q-0.328125 -0.359375 -1.0 -0.359375q-0.4375 0 -0.90625 0.234375q-0.453125 0.21875 -0.84375 0.625l-0.765625 -0.984375q0.59375 -0.53125 1.265625 -0.796875q0.671875 -0.28125 1.328125 -0.28125zm-0.1875 5.453125q0.65625 0 1.046875 -0.421875q0.390625 -0.421875 0.46875 -1.3125l-0.3125 0q-1.140625 0 -1.671875 0.25q-0.515625 0.234375 -0.515625 0.78125q0 0.359375 0.25 0.53125q0.265625 0.171875 0.734375 0.171875zm4.8515625 0.96875l0 -1.203125l1.5 0l0 -3.828125l-1.4375 0l0 -1.1875l2.921875 0l0 5.015625l1.359375 0l0 1.203125l-4.34375 0zm2.140625 -7.296875q-0.25 0 -0.46875 -0.125q-0.21875 -0.125 -0.34375 -0.328125q-0.109375 -0.203125 -0.109375 -0.4375q0 -0.375 0.25 -0.625q0.265625 -0.25 0.671875 -0.25q0.234375 0 0.453125 0.125q0.21875 0.109375 0.34375 0.3125q0.140625 0.203125 0.140625 0.4375q0 0.234375 -0.140625 0.4375q-0.125 0.203125 -0.34375 0.328125q-0.21875 0.125 -0.453125 0.125zm4.1328125 1.078125l1.5 0l0 0.640625q0.34375 -0.375 0.796875 -0.578125q0.453125 -0.203125 0.984375 -0.203125q0.890625 0 1.421875 0.625q0.53125 0.625 0.53125 1.953125l0 3.78125l-1.5 0l0 -3.765625q0 -0.703125 -0.265625 -1.03125q-0.25 -0.328125 -0.765625 -0.328125q-0.3125 0 -0.59375 0.125q-0.265625 0.125 -0.4375 0.390625q-0.171875 0.25 -0.171875 0.609375l0 4.0l-1.5 0l0 -6.21875zm6.8359375 6.21875l0 -1.234375l1.609375 0l0 -5.828125l-1.53125 0l0 -1.234375l4.640625 0l0 1.234375l-1.609375 0l0 5.84375l1.6875 0l0 1.21875l-4.796875 0zm6.4921875 -6.21875l1.5 0l0 0.640625q0.34375 -0.375 0.796875 -0.578125q0.453125 -0.203125 0.984375 -0.203125q0.890625 0 1.421875 0.625q0.53125 0.625 0.53125 1.953125l0 3.78125l-1.5 0l0 -3.765625q0 -0.703125 -0.265625 -1.03125q-0.25 -0.328125 -0.765625 -0.328125q-0.3125 0 -0.59375 0.125q-0.265625 0.125 -0.4375 0.390625q-0.171875 0.25 -0.171875 0.609375l0 4.0l-1.5 0l0 -6.21875zm8.9140625 6.421875q-0.734375 0 -1.34375 -0.359375q-0.609375 -0.359375 -0.96875 -1.078125q-0.34375 -0.734375 -0.34375 -1.78125q0 -1.015625 0.359375 -1.765625q0.375 -0.765625 0.96875 -1.171875q0.609375 -0.40625 1.328125 -0.40625q0.359375 0 0.75 0.1875q0.40625 0.171875 0.6875 0.4375l0 -3.265625l1.625 0l0 0.15625q-0.078125 0.078125 -0.09375 0.171875q-0.015625 0.09375 -0.015625 0.3125l-0.03125 7.609375q0 0.234375 0.03125 0.40625q0.03125 0.171875 0.125 0.34375l-1.453125 0q-0.09375 -0.171875 -0.109375 -0.3125q-0.015625 -0.15625 -0.015625 -0.4375q-0.203125 0.46875 -0.625 0.71875q-0.421875 0.234375 -0.875 0.234375zm0.21875 -1.25q1.21875 0 1.21875 -2.140625q0 -0.890625 -0.265625 -1.421875q-0.25 -0.53125 -0.90625 -0.53125q-0.703125 0 -1.0625 0.59375q-0.34375 0.578125 -0.34375 1.5q0 0.703125 0.203125 1.15625q0.203125 0.453125 0.515625 0.65625q0.3125 0.1875 0.640625 0.1875zm6.9921875 1.265625q-0.890625 0 -1.59375 -0.390625q-0.703125 -0.390625 -1.109375 -1.125q-0.390625 -0.734375 -0.390625 -1.734375q0 -1.0 0.375 -1.75q0.375 -0.765625 1.046875 -1.171875q0.671875 -0.40625 1.515625 -0.40625q0.75 0 1.34375 0.359375q0.609375 0.34375 0.953125 1.03125q0.359375 0.6875 0.359375 1.65625q0 0.15625 -0.03125 0.4375l-0.015625 0.1875l-4.078125 0q0.09375 0.84375 0.53125 1.28125q0.4375 0.4375 1.046875 0.4375q0.421875 0 0.859375 -0.203125q0.4375 -0.203125 0.71875 -0.5625l0.828125 0.828125q-0.9375 1.125 -2.359375 1.125zm1.0 -4.0q0 -0.390625 -0.15625 -0.71875q-0.140625 -0.34375 -0.421875 -0.53125q-0.28125 -0.203125 -0.65625 -0.203125q-0.546875 0 -0.90625 0.390625q-0.359375 0.390625 -0.421875 1.0625l2.5625 0zm2.3984375 3.78125l2.15625 -3.15625l-2.125 -3.0625l1.671875 0l1.28125 2.015625l1.203125 -2.015625l1.609375 0l-1.984375 3.015625l2.25 3.203125l-1.71875 0l-1.359375 -2.109375l-1.28125 2.109375l-1.703125 0zm8.3203125 1.578125q0.375 -0.359375 0.609375 -0.734375q0.25 -0.375 0.25 -0.578125q0 -0.0625 -0.0625 -0.125q-0.046875 -0.0625 -0.15625 -0.171875q-0.1875 -0.171875 -0.296875 -0.3125q-0.109375 -0.15625 -0.109375 -0.34375q0 -0.265625 0.109375 -0.46875q0.125 -0.21875 0.359375 -0.34375q0.234375 -0.125 0.53125 -0.125q0.28125 0 0.53125 0.15625q0.25 0.15625 0.40625 0.4375q0.15625 0.28125 0.15625 0.640625q0 0.515625 -0.390625 1.171875q-0.390625 0.65625 -1.1875 1.46875l-0.75 -0.671875zm15.296875 -6.390625q0.84375 0.40625 1.3125 0.78125q0.46875 0.375 0.65625 0.78125q0.203125 0.40625 0.203125 0.953125q0 0.671875 -0.3125 1.25q-0.296875 0.578125 -0.953125 0.9375q-0.65625 0.34375 -1.671875 0.34375q-1.625 0 -2.8125 -1.15625l0.640625 -1.125l0.015625 -0.015625l0.015625 0.015625q0.96875 1.0 2.265625 1.0q0.625 0 0.953125 -0.28125q0.34375 -0.296875 0.34375 -0.890625q0 -0.28125 -0.140625 -0.515625q-0.140625 -0.25 -0.5 -0.484375q-0.359375 -0.25 -0.984375 -0.515625q-1.15625 -0.515625 -1.6875 -1.140625q-0.515625 -0.625 -0.515625 -1.4375q0 -0.609375 0.328125 -1.109375q0.34375 -0.5 0.9375 -0.796875q0.59375 -0.296875 1.328125 -0.296875q0.828125 0 1.421875 0.28125q0.59375 0.265625 1.140625 0.828125l-0.75 1.046875l0 0.015625q0 0 0 0q0 -0.015625 0 -0.015625q-0.3125 -0.484375 -0.796875 -0.703125q-0.46875 -0.21875 -1.03125 -0.21875q-0.359375 0 -0.625 0.125q-0.265625 0.125 -0.40625 0.328125q-0.125 0.203125 -0.125 0.453125q0 0.296875 0.140625 0.53125q0.15625 0.21875 0.53125 0.453125q0.375 0.234375 1.078125 0.578125zm1.046875 -1.546875q0 -0.015625 0.015625 -0.015625q0.015625 0 0.046875 0.03125q0.046875 0.03125 0.078125 0.046875l-0.015625 0.03125l-0.125 -0.078125l0 -0.015625zm0.1875 0.015625q0.046875 0.0625 0.046875 0.09375q0 0 -0.015625 0q-0.015625 0 -0.078125 -0.046875l0.046875 -0.046875zm-3.96875 4.28125q0 0.015625 -0.015625 0.015625q-0.015625 0 -0.0625 -0.015625q-0.046875 -0.03125 -0.09375 -0.046875l0.03125 -0.046875l0.125 0.078125l0.015625 0.015625zm-0.1875 0q-0.0625 -0.046875 -0.0625 -0.078125q0 0 0 0q0 0 0.015625 0l0.0625 0.03125l-0.015625 0.046875zm6.4296875 -6.9375l1.609375 0l0 0.15625q-0.0625 0.078125 -0.09375 0.171875q-0.015625 0.09375 -0.015625 0.3125l0 2.78125q0.328125 -0.359375 0.765625 -0.5625q0.4375 -0.21875 0.875 -0.21875q1.0 0 1.546875 0.625q0.5625 0.625 0.5625 1.953125l0 3.78125l-1.515625 0l0 -3.765625q0 -0.6875 -0.25 -1.015625q-0.234375 -0.34375 -0.640625 -0.34375q-0.375 0 -0.6875 0.203125q-0.296875 0.1875 -0.484375 0.53125q-0.171875 0.34375 -0.171875 0.796875l0 3.59375l-1.5 0l0 -9.0zm9.0546875 2.578125q1.21875 0 1.953125 0.609375q0.75 0.609375 0.75 2.03125l0 3.78125l-1.421875 0l0 -0.5625q-0.359375 0.34375 -0.875 0.53125q-0.5 0.1875 -1.078125 0.1875q-0.96875 0 -1.484375 -0.46875q-0.5 -0.484375 -0.5 -1.296875q0 -0.671875 0.421875 -1.140625q0.421875 -0.46875 1.203125 -0.703125q0.796875 -0.25 1.890625 -0.25l0.46875 0q-0.078125 -0.8125 -0.40625 -1.15625q-0.328125 -0.359375 -1.0 -0.359375q-0.4375 0 -0.90625 0.234375q-0.453125 0.21875 -0.84375 0.625l-0.765625 -0.984375q0.59375 -0.53125 1.265625 -0.796875q0.671875 -0.28125 1.328125 -0.28125zm-0.1875 5.453125q0.65625 0 1.046875 -0.421875q0.390625 -0.421875 0.46875 -1.3125l-0.3125 0q-1.140625 0 -1.671875 0.25q-0.515625 0.234375 -0.515625 0.78125q0 0.359375 0.25 0.53125q0.265625 0.171875 0.734375 0.171875zm9.2421875 -3.359375l0 -0.015625q-0.25 -0.40625 -0.546875 -0.578125q-0.28125 -0.171875 -0.65625 -0.171875q-0.484375 0 -0.875 0.234375q-0.375 0.21875 -0.59375 0.640625q-0.21875 0.40625 -0.21875 0.96875l0 3.25l-1.5 0l0 -6.21875l1.53125 0l0 0.890625q0.25 -0.484375 0.71875 -0.75q0.484375 -0.28125 1.078125 -0.28125q0.46875 0 0.921875 0.171875q0.453125 0.171875 0.8125 0.515625l-0.671875 1.34375zm-0.1875 0q0 0 0.015625 0q0.015625 0 0.0625 0.03125q0.046875 0.015625 0.078125 0.03125l-0.015625 0.015625l-0.125 -0.0625l-0.015625 -0.015625zm0.1875 0q0.046875 0.0625 0.046875 0.078125q0 0.015625 -0.015625 0.015625q-0.015625 0 -0.0625 -0.03125l0.03125 -0.0625zm4.1328125 4.53125q-0.734375 0 -1.34375 -0.359375q-0.609375 -0.359375 -0.96875 -1.078125q-0.34375 -0.734375 -0.34375 -1.78125q0 -1.015625 0.359375 -1.765625q0.375 -0.765625 0.96875 -1.171875q0.609375 -0.40625 1.328125 -0.40625q0.359375 0 0.75 0.1875q0.40625 0.171875 0.6875 0.4375l0 -3.265625l1.625 0l0 0.15625q-0.078125 0.078125 -0.09375 0.171875q-0.015625 0.09375 -0.015625 0.3125l-0.03125 7.609375q0 0.234375 0.03125 0.40625q0.03125 0.171875 0.125 0.34375l-1.453125 0q-0.09375 -0.171875 -0.109375 -0.3125q-0.015625 -0.15625 -0.015625 -0.4375q-0.203125 0.46875 -0.625 0.71875q-0.421875 0.234375 -0.875 0.234375zm0.21875 -1.25q1.21875 0 1.21875 -2.140625q0 -0.890625 -0.265625 -1.421875q-0.25 -0.53125 -0.90625 -0.53125q-0.703125 0 -1.0625 0.59375q-0.34375 0.578125 -0.34375 1.5q0 0.703125 0.203125 1.15625q0.203125 0.453125 0.515625 0.65625q0.3125 0.1875 0.640625 0.1875zm4.8046875 2.34375q0.875 -0.421875 1.515625 -1.125q0.65625 -0.703125 0.984375 -1.59375q0.34375 -0.890625 0.34375 -1.859375q0 -1.484375 -0.71875 -2.640625q-0.71875 -1.171875 -2.046875 -1.859375l0.34375 -1.15625q1.15625 0.484375 2.015625 1.359375q0.875 0.859375 1.328125 1.96875q0.46875 1.09375 0.46875 2.296875q0 1.203125 -0.484375 2.34375q-0.484375 1.125 -1.359375 2.015625q-0.875 0.890625 -2.046875 1.375l-0.34375 -1.125z" fill-rule="nonzero"></path><path fill="#000000" d="m1021.9925 70.14498q0.84375 0.40625 1.3125 0.78125q0.46875 0.375 0.65625 0.78125q0.20318604 0.40625 0.20318604 0.953125q0 0.671875 -0.31256104 1.25q-0.296875 0.578125 -0.953125 0.9375q-0.65625 0.34375 -1.671875 0.34375q-1.625 0 -2.8125 -1.15625l0.640625 -1.125l0.015625 -0.015625l0.015625 0.015625q0.96875 1.0 2.265625 1.0q0.625 0 0.953125 -0.28125q0.34375 -0.296875 0.34375 -0.890625q0 -0.28125 -0.140625 -0.515625q-0.140625 -0.25 -0.5 -0.484375q-0.359375 -0.25 -0.984375 -0.515625q-1.15625 -0.515625 -1.6875 -1.140625q-0.515625 -0.625 -0.515625 -1.4375q0 -0.609375 0.328125 -1.109375q0.34375 -0.5 0.9375 -0.796875q0.59375 -0.296875 1.328125 -0.296875q0.828125 0 1.421875 0.28125q0.59375 0.265625 1.140625 0.828125l-0.75 1.046875l0 0.015625q0 0 0 0q0 -0.015625 0 -0.015625q-0.3125 -0.484375 -0.796875 -0.703125q-0.46875 -0.21875 -1.03125 -0.21875q-0.359375 0 -0.625 0.125q-0.265625 0.125 -0.40625 0.328125q-0.125 0.203125 -0.125 0.453125q0 0.296875 0.140625 0.53125q0.15625 0.21875 0.53125 0.453125q0.375 0.234375 1.078125 0.578125zm1.046875 -1.546875q0 -0.015625 0.015625 -0.015625q0.015625 0 0.046875 0.03125q0.046875 0.03125 0.078125 0.046875l-0.015625 0.03125l-0.125 -0.078125l0 -0.015625zm0.1875 0.015625q0.046875 0.0625 0.046875 0.09375q0 0 -0.015625 0q-0.015625 0 -0.078125 -0.046875l0.046875 -0.046875zm-3.96875 4.28125q0 0.015625 -0.015625 0.015625q-0.015625 0 -0.0625 -0.015625q-0.046875 -0.03125 -0.09375 -0.046875l0.03125 -0.046875l0.125 0.078125l0.015625 0.015625zm-0.1875 0q-0.0625 -0.046875 -0.0625 -0.078125q0 0 0 0q0 0 0.015625 0l0.0625 0.03125l-0.015625 0.046875zm6.4297485 -4.15625l1.5 0l0 0.640625q0.34375 -0.375 0.796875 -0.578125q0.453125 -0.203125 0.984375 -0.203125q0.890625 0 1.421875 0.625q0.53125 0.625 0.53125 1.953125l0 3.78125l-1.5 0l0 -3.765625q0 -0.703125 -0.265625 -1.03125q-0.25 -0.328125 -0.765625 -0.328125q-0.3125 0 -0.59375 0.125q-0.265625 0.125 -0.4375 0.390625q-0.171875 0.25 -0.171875 0.609375l0 4.0l-1.5 0l0 -6.21875zm9.0546875 -0.203125q1.21875 0 1.953125 0.609375q0.75 0.609375 0.75 2.03125l0 3.78125l-1.421875 0l0 -0.5625q-0.359375 0.34375 -0.875 0.53125q-0.5 0.1875 -1.078125 0.1875q-0.96875 0 -1.484375 -0.46875q-0.5 -0.484375 -0.5 -1.296875q0 -0.671875 0.421875 -1.140625q0.421875 -0.46875 1.203125 -0.703125q0.796875 -0.25 1.890625 -0.25l0.46875 0q-0.078125 -0.8125 -0.40625 -1.15625q-0.328125 -0.359375 -1.0 -0.359375q-0.4375 0 -0.90625 0.234375q-0.453125 0.21875 -0.84375 0.625l-0.765625 -0.984375q0.59375 -0.53125 1.265625 -0.796875q0.671875 -0.28125 1.328125 -0.28125zm-0.1875 5.453125q0.65625 0 1.046875 -0.421875q0.390625 -0.421875 0.46875 -1.3125l-0.3125 0q-1.140625 0 -1.671875 0.25q-0.515625 0.234375 -0.515625 0.78125q0 0.359375 0.25 0.53125q0.265625 0.171875 0.734375 0.171875zm4.3828125 -5.25l1.4375 0l0 0.765625q0.296875 -0.46875 0.6875 -0.6875q0.40625 -0.21875 0.921875 -0.21875q0.6875 0 1.265625 0.375q0.578125 0.375 0.921875 1.125q0.34375 0.734375 0.34375 1.78125q0 1.0625 -0.359375 1.796875q-0.34375 0.734375 -0.921875 1.109375q-0.578125 0.375 -1.234375 0.375q-0.5 0 -0.90625 -0.203125q-0.390625 -0.21875 -0.65625 -0.671875l0 2.890625l-1.484375 0l-0.015625 -8.4375zm2.71875 5.1875q0.375 0 0.6875 -0.21875q0.3125 -0.234375 0.484375 -0.703125q0.1875 -0.484375 0.1875 -1.203125q0 -0.890625 -0.3125 -1.421875q-0.296875 -0.546875 -0.953125 -0.546875q-0.6875 0 -1.0 0.578125q-0.3125 0.5625 -0.3125 1.515625q0 1.015625 0.328125 1.515625q0.328125 0.484375 0.890625 0.484375zm7.1640625 -2.6875q0.78125 0.234375 1.203125 0.484375q0.4375 0.234375 0.640625 0.5625q0.203125 0.328125 0.203125 0.828125q0 0.546875 -0.328125 1.015625q-0.3125 0.46875 -0.875 0.765625q-0.5625 0.28125 -1.25 0.28125q-0.9375 0 -1.640625 -0.25q-0.6875 -0.25 -1.265625 -0.8125l0.625 -1.09375l0 -0.015625l0.015625 0.015625q0.453125 0.5 0.984375 0.734375q0.53125 0.21875 1.296875 0.21875q1.0625 0 1.0625 -0.703125q0 -0.21875 -0.125 -0.375q-0.125 -0.15625 -0.421875 -0.28125q-0.28125 -0.140625 -0.78125 -0.28125q-1.078125 -0.28125 -1.671875 -0.703125q-0.59375 -0.421875 -0.59375 -1.171875q0 -0.546875 0.28125 -0.96875q0.296875 -0.421875 0.84375 -0.65625q0.546875 -0.234375 1.265625 -0.234375q0.734375 0 1.328125 0.234375q0.609375 0.234375 1.109375 0.734375l-0.75 1.046875l0 0.015625q-0.015625 0 -0.015625 0q0 -0.015625 0 -0.015625q-0.265625 -0.390625 -0.703125 -0.59375q-0.4375 -0.21875 -0.9375 -0.21875q-0.390625 0 -0.671875 0.140625q-0.265625 0.125 -0.265625 0.359375q0 0.21875 0.140625 0.375q0.15625 0.15625 0.453125 0.28125q0.296875 0.109375 0.84375 0.28125zm0.96875 -0.625q0 -0.015625 0.015625 -0.015625q0.015625 0 0.0625 0.03125q0.046875 0.03125 0.078125 0.046875l-0.03125 0.03125l-0.125 -0.078125l0 -0.015625zm0.1875 0.015625q0.046875 0.0625 0.046875 0.078125q0 0.015625 -0.03125 0q-0.03125 -0.015625 -0.046875 -0.03125l0.03125 -0.046875zm-3.65625 2.390625q0 0.015625 0 0.015625q-0.03125 0 -0.078125 -0.03125q-0.046875 -0.03125 -0.078125 -0.03125l0.03125 -0.046875l0.125 0.078125l0 0.015625zm-0.1875 -0.015625q-0.046875 -0.046875 -0.046875 -0.0625q0 0 0 0q0 -0.015625 0 -0.015625l0.078125 0.046875l-0.03125 0.03125zm6.2109375 -7.046875l1.609375 0l0 0.15625q-0.0625 0.078125 -0.09375 0.171875q-0.015625 0.09375 -0.015625 0.3125l0 2.78125q0.328125 -0.359375 0.765625 -0.5625q0.4375 -0.21875 0.875 -0.21875q1.0 0 1.546875 0.625q0.5625 0.625 0.5625 1.953125l0 3.78125l-1.515625 0l0 -3.765625q0 -0.6875 -0.25 -1.015625q-0.234375 -0.34375 -0.640625 -0.34375q-0.375 0 -0.6875 0.203125q-0.296875 0.1875 -0.484375 0.53125q-0.171875 0.34375 -0.171875 0.796875l0 3.59375l-1.5 0l0 -9.0zm9.2109375 9.21875q-0.828125 0 -1.5 -0.421875q-0.671875 -0.421875 -1.0625 -1.171875q-0.390625 -0.765625 -0.390625 -1.734375q0 -0.90625 0.390625 -1.640625q0.390625 -0.75 1.0625 -1.171875q0.6875 -0.4375 1.5 -0.4375q0.8125 0 1.484375 0.4375q0.6875 0.421875 1.078125 1.171875q0.40625 0.734375 0.40625 1.640625q0 0.96875 -0.390625 1.734375q-0.390625 0.75 -1.078125 1.171875q-0.671875 0.421875 -1.5 0.421875zm0 -1.203125q0.4375 0 0.765625 -0.265625q0.328125 -0.265625 0.5 -0.734375q0.1875 -0.484375 0.1875 -1.125q0 -0.625 -0.1875 -1.09375q-0.171875 -0.46875 -0.5 -0.703125q-0.328125 -0.25 -0.765625 -0.25q-0.421875 0 -0.75 0.25q-0.3125 0.234375 -0.5 0.703125q-0.171875 0.46875 -0.171875 1.09375q0 0.640625 0.171875 1.125q0.171875 0.46875 0.484375 0.734375q0.328125 0.265625 0.765625 0.265625zm9.3828125 0.421875q-0.484375 0.375 -1.015625 0.5625q-0.515625 0.1875 -1.125 0.1875q-0.96875 0 -1.484375 -0.5625q-0.515625 -0.578125 -0.515625 -1.984375q0 -0.359375 0.03125 -0.78125l0.109375 -1.875l-1.34375 0l0.03125 -1.203125l1.390625 0l0.078125 -1.453125l1.640625 -0.28125l0.03125 0.15625q-0.015625 0.015625 -0.0625 0.09375q-0.046875 0.0625 -0.09375 0.171875q-0.03125 0.09375 -0.03125 0.234375l-0.09375 1.078125l1.90625 0l-0.015625 1.203125l-1.921875 0l-0.140625 1.78125q-0.03125 0.453125 -0.03125 0.71875q0 0.828125 0.203125 1.15625q0.203125 0.328125 0.625 0.328125q0.40625 0 0.75 -0.15625q0.34375 -0.15625 0.765625 -0.515625l0.3125 1.140625zm8.234375 0.5625l0 -1.234375l1.609375 0l0 -5.828125l-1.53125 0l0 -1.234375l4.640625 0l0 1.234375l-1.609375 0l0 5.84375l1.6875 0l0 1.21875l-4.796875 0zm6.2734375 -8.296875l2.15625 0q1.0625 0 1.6875 0.28125q0.625 0.28125 1.078125 0.875q0.84375 1.15625 0.84375 3.046875q0 1.96875 -0.921875 3.03125q-0.90625 1.0625 -2.84375 1.0625l-2.0 0l0 -8.296875zm1.96875 7.125q1.15625 0 1.71875 -0.734375q0.578125 -0.734375 0.578125 -2.140625q0 -3.015625 -2.15625 -3.015625l-0.65625 0l0 5.890625l0.515625 0z" fill-rule="nonzero"></path><path fill="#000000" d="m864.6532 118.52433q-1.53125 -0.71875 -2.6875 -1.953125q-1.15625 -1.21875 -1.78125 -2.765625q-0.625 -1.546875 -0.625 -3.203125q0 -1.640625 0.609375 -3.140625q0.609375 -1.515625 1.734375 -2.703125q1.140625 -1.1875 2.625 -1.890625l0.359375 1.15625q-1.828125 0.984375 -2.921875 2.78125q-1.09375 1.796875 -1.09375 3.859375q0 2.09375 1.125 3.921875q1.125 1.828125 3.0 2.8125l-0.34375 1.125zm6.625 -14.953125q1.703125 0 2.640625 1.59375q0.953125 1.578125 0.953125 4.359375q0 2.859375 -0.9375 4.40625q-0.921875 1.546875 -2.65625 1.546875q-1.75 0 -2.6875 -1.546875q-0.921875 -1.546875 -0.921875 -4.40625q0 -2.78125 0.9375 -4.359375q0.953125 -1.59375 2.671875 -1.59375zm0 1.140625q-1.078125 0 -1.671875 1.296875q-0.59375 1.296875 -0.59375 3.515625q0 1.21875 0.171875 2.15625l3.953125 -5.125q-0.28125 -0.890625 -0.765625 -1.359375q-0.46875 -0.484375 -1.09375 -0.484375zm0 9.625q1.0625 0 1.65625 -1.25q0.59375 -1.25 0.59375 -3.5625q0 -1.078125 -0.125 -1.859375l-3.96875 5.03125q0.609375 1.640625 1.84375 1.640625zm7.734375 3.515625q0.515625 -0.484375 0.859375 -1.046875q0.359375 -0.5625 0.359375 -0.921875q0 -0.15625 -0.09375 -0.28125q-0.09375 -0.109375 -0.34375 -0.328125q-0.265625 -0.25 -0.390625 -0.40625q-0.125 -0.171875 -0.125 -0.421875q0 -0.453125 0.296875 -0.765625q0.3125 -0.328125 0.796875 -0.328125q0.5 0 0.875 0.4375q0.390625 0.4375 0.390625 1.109375q0 1.453125 -1.984375 3.515625l-0.640625 -0.5625zm20.25 -14.28125q1.703125 0 2.640625 1.59375q0.953125 1.578125 0.953125 4.359375q0 2.859375 -0.9375 4.40625q-0.921875 1.546875 -2.65625 1.546875q-1.75 0 -2.6875 -1.546875q-0.921875 -1.546875 -0.921875 -4.40625q0 -2.78125 0.9375 -4.359375q0.953125 -1.59375 2.671875 -1.59375zm0 1.140625q-1.078125 0 -1.671875 1.296875q-0.59375 1.296875 -0.59375 3.515625q0 1.21875 0.171875 2.15625l3.953125 -5.125q-0.28125 -0.890625 -0.765625 -1.359375q-0.46875 -0.484375 -1.09375 -0.484375zm0 9.625q1.0625 0 1.65625 -1.25q0.59375 -1.25 0.59375 -3.5625q0 -1.078125 -0.125 -1.859375l-3.96875 5.03125q0.609375 1.640625 1.84375 1.640625zm6.78125 3.0625q1.890625 -0.984375 3.0 -2.8125q1.125 -1.828125 1.125 -3.921875q0 -2.0625 -1.09375 -3.859375q-1.09375 -1.796875 -2.921875 -2.78125l0.359375 -1.15625q1.484375 0.703125 2.609375 1.890625q1.140625 1.1875 1.75 2.703125q0.625 1.5 0.625 3.140625q0 1.65625 -0.625 3.203125q-0.625 1.546875 -1.78125 2.765625q-1.15625 1.234375 -2.6875 1.953125l-0.359375 -1.125z" fill-rule="nonzero"></path><path fill="#000000" d="m1023.97687 115.27433l0 -2.859375l-5.046875 0l0 -0.953125l5.328186 -7.828125l1.09375 0l0 7.703125l1.5 0l0 1.109375l-1.5 0l0 2.828125l-1.375061 0zm-3.53125 -3.953125l3.53125 0l0 -5.34375l-3.53125 5.34375z" fill-rule="nonzero"></path><path fill="#000000" d="m864.6532 159.72118q-1.53125 -0.71875 -2.6875 -1.953125q-1.15625 -1.21875 -1.78125 -2.765625q-0.625 -1.546875 -0.625 -3.203125q0 -1.640625 0.609375 -3.140625q0.609375 -1.515625 1.734375 -2.703125q1.140625 -1.1875 2.625 -1.890625l0.359375 1.15625q-1.828125 0.984375 -2.921875 2.78125q-1.09375 1.796875 -1.09375 3.859375q0 2.09375 1.125 3.921875q1.125 1.828125 3.0 2.8125l-0.34375 1.125zm6.25 -3.25l0 -10.015625l-2.359375 0.6875l-0.296875 -0.734375l3.046875 -1.578125l0.90625 0l0 11.640625l-1.296875 0zm8.109375 2.578125q0.515625 -0.484375 0.859375 -1.046875q0.359375 -0.5625 0.359375 -0.921875q0 -0.15625 -0.09375 -0.28125q-0.09375 -0.109375 -0.34375 -0.328125q-0.265625 -0.25 -0.390625 -0.40625q-0.125 -0.171875 -0.125 -0.421875q0 -0.453125 0.296875 -0.765625q0.3125 -0.328125 0.796875 -0.328125q0.5 0 0.875 0.4375q0.390625 0.4375 0.390625 1.109375q0 1.453125 -1.984375 3.515625l-0.640625 -0.5625zm20.25 -14.28125q1.703125 0 2.640625 1.59375q0.953125 1.578125 0.953125 4.359375q0 2.859375 -0.9375 4.40625q-0.921875 1.546875 -2.65625 1.546875q-1.75 0 -2.6875 -1.546875q-0.921875 -1.546875 -0.921875 -4.40625q0 -2.78125 0.9375 -4.359375q0.953125 -1.59375 2.671875 -1.59375zm0 1.140625q-1.078125 0 -1.671875 1.296875q-0.59375 1.296875 -0.59375 3.515625q0 1.21875 0.171875 2.15625l3.953125 -5.125q-0.28125 -0.890625 -0.765625 -1.359375q-0.46875 -0.484375 -1.09375 -0.484375zm0 9.625q1.0625 0 1.65625 -1.25q0.59375 -1.25 0.59375 -3.5625q0 -1.078125 -0.125 -1.859375l-3.96875 5.03125q0.609375 1.640625 1.84375 1.640625zm6.78125 3.0625q1.890625 -0.984375 3.0 -2.8125q1.125 -1.828125 1.125 -3.921875q0 -2.0625 -1.09375 -3.859375q-1.09375 -1.796875 -2.921875 -2.78125l0.359375 -1.15625q1.484375 0.703125 2.609375 1.890625q1.140625 1.1875 1.75 2.703125q0.625 1.5 0.625 3.140625q0 1.65625 -0.625 3.203125q-0.625 1.546875 -1.78125 2.765625q-1.15625 1.234375 -2.6875 1.953125l-0.359375 -1.125z" fill-rule="nonzero"></path><path fill="#000000" d="m1023.97687 156.47118l0 -2.859375l-5.046875 0l0 -0.953125l5.328186 -7.828125l1.09375 0l0 7.703125l1.5 0l0 1.109375l-1.5 0l0 2.828125l-1.375061 0zm-3.53125 -3.953125l3.53125 0l0 -5.34375l-3.53125 5.34375z" fill-rule="nonzero"></path><path fill="#000000" d="m864.6532 200.91803q-1.53125 -0.71875 -2.6875 -1.953125q-1.15625 -1.21875 -1.78125 -2.765625q-0.625 -1.546875 -0.625 -3.203125q0 -1.640625 0.609375 -3.140625q0.609375 -1.515625 1.734375 -2.703125q1.140625 -1.1875 2.625 -1.890625l0.359375 1.15625q-1.828125 0.984375 -2.921875 2.78125q-1.09375 1.796875 -1.09375 3.859375q0 2.09375 1.125 3.921875q1.125 1.828125 3.0 2.8125l-0.34375 1.125zm3.3125 -4.296875l1.515625 -1.53125q1.515625 -1.5 2.265625 -2.359375q0.75 -0.859375 1.203125 -1.703125q0.453125 -0.859375 0.453125 -1.765625q0 -1.140625 -0.546875 -1.640625q-0.546875 -0.515625 -1.4375 -0.515625q-0.796875 0 -1.484375 0.359375q-0.671875 0.359375 -0.90625 0.78125q-0.109375 0.203125 -0.21875 0.421875q-0.109375 0.21875 -0.109375 0.25q0 0.015625 0.015625 0.015625q0.015625 0 0.0625 -0.015625q0.0625 -0.03125 0.078125 0.03125l-0.046875 0.125l-0.171875 -0.09375l-0.953125 -0.75q0.5625 -1.078125 1.53125 -1.671875q0.96875 -0.59375 2.1875 -0.59375q1.484375 0 2.40625 0.90625q0.9375 0.890625 0.9375 2.421875q0 1.0 -0.5 1.953125q-0.484375 0.953125 -1.234375 1.8125q-0.75 0.859375 -2.09375 2.1875l-1.265625 1.28125l4.328125 0q0.296875 0 0.4375 -0.03125q0.140625 -0.046875 0.25 -0.15625l0.125 0l0 1.328125l-6.828125 0l0 -1.046875zm11.046875 3.625q0.515625 -0.484375 0.859375 -1.046875q0.359375 -0.5625 0.359375 -0.921875q0 -0.15625 -0.09375 -0.28125q-0.09375 -0.109375 -0.34375 -0.328125q-0.265625 -0.25 -0.390625 -0.40625q-0.125 -0.171875 -0.125 -0.421875q0 -0.453125 0.296875 -0.765625q0.3125 -0.328125 0.796875 -0.328125q0.5 0 0.875 0.4375q0.390625 0.4375 0.390625 1.109375q0 1.453125 -1.984375 3.515625l-0.640625 -0.5625zm20.25 -14.28125q1.703125 0 2.640625 1.59375q0.953125 1.578125 0.953125 4.359375q0 2.859375 -0.9375 4.40625q-0.921875 1.546875 -2.65625 1.546875q-1.75 0 -2.6875 -1.546875q-0.921875 -1.546875 -0.921875 -4.40625q0 -2.78125 0.9375 -4.359375q0.953125 -1.59375 2.671875 -1.59375zm0 1.140625q-1.078125 0 -1.671875 1.296875q-0.59375 1.296875 -0.59375 3.515625q0 1.21875 0.171875 2.15625l3.953125 -5.125q-0.28125 -0.890625 -0.765625 -1.359375q-0.46875 -0.484375 -1.09375 -0.484375zm0 9.625q1.0625 0 1.65625 -1.25q0.59375 -1.25 0.59375 -3.5625q0 -1.078125 -0.125 -1.859375l-3.96875 5.03125q0.609375 1.640625 1.84375 1.640625zm6.78125 3.0625q1.890625 -0.984375 3.0 -2.8125q1.125 -1.828125 1.125 -3.921875q0 -2.0625 -1.09375 -3.859375q-1.09375 -1.796875 -2.921875 -2.78125l0.359375 -1.15625q1.484375 0.703125 2.609375 1.890625q1.140625 1.1875 1.75 2.703125q0.625 1.5 0.625 3.140625q0 1.65625 -0.625 3.203125q-0.625 1.546875 -1.78125 2.765625q-1.15625 1.234375 -2.6875 1.953125l-0.359375 -1.125z" fill-rule="nonzero"></path><path fill="#000000" d="m1023.97687 197.66803l0 -2.859375l-5.046875 0l0 -0.953125l5.328186 -7.828125l1.09375 0l0 7.703125l1.5 0l0 1.109375l-1.5 0l0 2.828125l-1.375061 0zm-3.53125 -3.953125l3.53125 0l0 -5.34375l-3.53125 5.34375z" fill-rule="nonzero"></path><path fill="#93c47d" d="m510.84253 65.097115l0 0c0 -32.04991 25.981567 -58.031498 58.031494 -58.031498l0 0c15.39093 0 30.151428 6.1140156 41.034485 16.997032c10.882996 10.883015 16.99701 25.643555 16.99701 41.034466l0 0c0 32.04991 -25.981567 58.031494 -58.031494 58.031494l0 0c-32.049927 0 -58.031494 -25.981583 -58.031494 -58.031494z" fill-rule="evenodd"></path><path stroke="#6aa84f" stroke-width="1.0" stroke-linejoin="round" stroke-linecap="butt" d="m510.84253 65.097115l0 0c0 -32.04991 25.981567 -58.031498 58.031494 -58.031498l0 0c15.39093 0 30.151428 6.1140156 41.034485 16.997032c10.882996 10.883015 16.99701 25.643555 16.99701 41.034466l0 0c0 32.04991 -25.981567 58.031494 -58.031494 58.031494l0 0c-32.049927 0 -58.031494 -25.981583 -58.031494 -58.031494z" fill-rule="evenodd"></path><path fill="#f1c232" d="m506.81104 166.24672l124.12598 0l0 45.70079l-124.12598 0z" fill-rule="evenodd"></path><path stroke="#bf9000" stroke-width="1.0" stroke-linejoin="round" stroke-linecap="butt" d="m506.81104 166.24672l124.12598 0l0 45.70079l-124.12598 0z" fill-rule="evenodd"></path><path fill="#000000" d="m531.1622 196.31398q-1.828125 0 -3.28125 -0.875q-1.4375 -0.875 -2.25 -2.390625q-0.8125 -1.515625 -0.8125 -3.359375q0 -1.828125 0.734375 -3.421875q0.734375 -1.609375 2.203125 -2.609375q1.46875 -1.0 3.53125 -1.0q2.0625 0 3.765625 1.140625l-0.09375 -1.015625l1.015625 0l0 4.328125l-0.671875 0q-0.1875 -1.734375 -1.234375 -2.703125q-1.03125 -0.984375 -2.640625 -0.984375q-1.328125 0 -2.421875 0.734375q-1.09375 0.734375 -1.734375 2.109375q-0.625 1.359375 -0.625 3.140625q0 1.71875 0.671875 3.078125q0.671875 1.34375 1.8125 2.109375q1.140625 0.75 2.515625 0.75q1.25 0 2.40625 -0.5625q1.15625 -0.5625 1.90625 -1.578125l0.484375 0.390625q-1.078125 1.5 -2.484375 2.109375q-1.40625 0.609375 -2.796875 0.609375zm11.2907715 0q-1.296875 0 -2.375 -0.609375q-1.0625 -0.609375 -1.6875 -1.6875q-0.625 -1.078125 -0.625 -2.4375q0 -1.453125 0.609375 -2.640625q0.625 -1.1875 1.6875 -1.859375q1.078125 -0.6875 2.390625 -0.6875q1.28125 0 2.359375 0.625q1.09375 0.625 1.71875 1.703125q0.625 1.078125 0.625 2.40625q0 1.421875 -0.625 2.625q-0.625 1.1875 -1.703125 1.875q-1.078125 0.6875 -2.375 0.6875zm0.140625 -0.75q1.359375 0 2.0 -1.109375q0.65625 -1.125 0.65625 -2.78125q0 -1.890625 -0.703125 -3.234375q-0.703125 -1.34375 -2.09375 -1.34375q-1.390625 0 -2.09375 1.140625q-0.6875 1.140625 -0.6875 2.796875q0 1.203125 0.328125 2.234375q0.328125 1.03125 0.984375 1.671875q0.65625 0.625 1.609375 0.625zm6.1482544 -0.109375q0.53125 0 0.765625 -0.265625q0.234375 -0.265625 0.265625 -0.671875q0.046875 -0.40625 0.0625 -1.328125l0.015625 -4.265625q0 -0.78125 0.078125 -1.203125l-1.328125 0.0625l0 -0.78125q1.109375 0 1.515625 -0.109375q0.40625 -0.125 0.6875 -0.390625l0.546875 0q0.03125 0.359375 0.0625 1.140625q0.640625 -0.5625 1.453125 -0.90625q0.8125 -0.34375 1.59375 -0.34375q1.625 0 2.359375 1.015625q0.75 1.015625 0.75 3.15625l0 3.46875q0 0.84375 -0.0625 1.28125l1.171875 -0.0625l0 0.765625l-3.8125 0l0 -0.5625q0.546875 0 0.78125 -0.265625q0.234375 -0.265625 0.28125 -0.6875q0.046875 -0.421875 0.046875 -1.3125l0 -2.625q-0.015625 -1.59375 -0.53125 -2.40625q-0.5 -0.8125 -1.578125 -0.8125q-0.671875 0 -1.34375 0.34375q-0.65625 0.328125 -1.078125 0.859375q0.015625 0.21875 0.015625 0.734375l-0.015625 4.75q0 0.84375 -0.078125 1.28125l1.171875 -0.0625l0 0.765625l-3.796875 0l0 -0.5625zm14.824341 0.859375q-2.5625 0 -2.53125 -3.4375l0.03125 -5.40625l-1.4375 0.015625l0 -0.796875q0.890625 -0.015625 1.515625 -0.8125q0.625 -0.796875 0.921875 -1.796875l0.640625 0l0 2.609375l3.140625 0l0 0.734375l-3.140625 0.03125q-0.015625 2.859375 -0.03125 3.96875q0 1.09375 0 1.21875q0 1.328125 0.3125 1.96875q0.3125 0.640625 1.09375 0.640625q0.484375 0 0.953125 -0.296875q0.484375 -0.296875 0.84375 -0.828125l0.5 0.421875q-0.71875 1.078125 -1.4375 1.421875q-0.703125 0.34375 -1.375 0.34375zm3.7199707 -0.859375q0.53125 0 0.765625 -0.265625q0.234375 -0.265625 0.28125 -0.6875q0.046875 -0.421875 0.046875 -1.3125l0 -4.265625q0 -0.78125 0.078125 -1.203125l-1.328125 0.046875l0 -0.765625l0.578125 0q0.703125 0 1.015625 -0.109375q0.328125 -0.125 0.609375 -0.390625l0.546875 0q0.0625 0.734375 0.078125 1.84375q0.46875 -0.765625 1.328125 -1.359375q0.875 -0.59375 1.8125 -0.59375q0.5625 0 0.9375 0.296875q0.375 0.296875 0.375 0.875q0 0.296875 -0.234375 0.59375q-0.234375 0.296875 -0.671875 0.296875q-0.40625 0 -0.671875 -0.296875q-0.25 -0.3125 -0.203125 -0.734375q-0.703125 -0.03125 -1.421875 0.53125q-0.71875 0.5625 -1.21875 1.5l0.015625 4.578125q0 0.84375 -0.078125 1.28125l1.171875 -0.0625l0 0.765625l-3.8125 0l0 -0.5625zm12.703186 0.859375q-1.296875 0 -2.375 -0.609375q-1.0625 -0.609375 -1.6875 -1.6875q-0.625 -1.078125 -0.625 -2.4375q0 -1.453125 0.609375 -2.640625q0.625 -1.1875 1.6875 -1.859375q1.078125 -0.6875 2.390625 -0.6875q1.28125 0 2.359375 0.625q1.09375 0.625 1.71875 1.703125q0.625 1.078125 0.625 2.40625q0 1.421875 -0.625 2.625q-0.625 1.1875 -1.703125 1.875q-1.078125 0.6875 -2.375 0.6875zm0.140625 -0.75q1.359375 0 2.0 -1.109375q0.65625 -1.125 0.65625 -2.78125q0 -1.890625 -0.703125 -3.234375q-0.703125 -1.34375 -2.09375 -1.34375q-1.390625 0 -2.09375 1.140625q-0.6875 1.140625 -0.6875 2.796875q0 1.203125 0.328125 2.234375q0.328125 1.03125 0.984375 1.671875q0.65625 0.625 1.609375 0.625zm5.9607544 -0.109375q0.53125 0 0.765625 -0.265625q0.234375 -0.265625 0.28125 -0.6875q0.046875 -0.421875 0.046875 -1.3125l0 -8.828125q0 -0.71875 0.0625 -1.21875l-1.328125 0.078125l0 -0.78125q1.109375 0 1.578125 -0.125q0.484375 -0.140625 0.75 -0.375l0.546875 0l0.015625 12.09375q0 0.734375 -0.09375 1.28125l1.171875 -0.0625l0 0.765625l-3.796875 0l0 -0.5625zm5.074524 0q0.53125 0 0.765625 -0.265625q0.234375 -0.265625 0.28125 -0.6875q0.046875 -0.421875 0.046875 -1.3125l0 -8.828125q0 -0.71875 0.0625 -1.21875l-1.328125 0.078125l0 -0.78125q1.109375 0 1.578125 -0.125q0.484375 -0.140625 0.75 -0.375l0.546875 0l0.015625 12.09375q0 0.734375 -0.09375 1.28125l1.171875 -0.0625l0 0.765625l-3.796875 0l0 -0.5625zm9.762024 0.859375q-1.28125 0 -2.3125 -0.609375q-1.03125 -0.609375 -1.640625 -1.734375q-0.59375 -1.125 -0.59375 -2.59375q0 -1.3125 0.59375 -2.453125q0.609375 -1.15625 1.671875 -1.84375q1.078125 -0.6875 2.4375 -0.6875q1.0625 0 1.921875 0.46875q0.859375 0.46875 1.359375 1.390625q0.5 0.921875 0.5 2.265625l-6.5625 0.109375q-0.015625 2.234375 0.734375 3.484375q0.765625 1.25 2.34375 1.25q0.859375 0 1.765625 -0.4375q0.90625 -0.453125 1.390625 -1.109375l0.453125 0.375q-0.71875 1.078125 -1.84375 1.609375q-1.125 0.515625 -2.21875 0.515625zm2.1875 -6.46875q0 -1.125 -0.5 -1.921875q-0.5 -0.8125 -1.515625 -0.8125q-2.3125 0 -2.734375 2.734375l4.75 0zm3.4241943 5.609375q0.53125 0 0.765625 -0.265625q0.234375 -0.265625 0.28125 -0.6875q0.046875 -0.421875 0.046875 -1.3125l0 -4.265625q0 -0.78125 0.078125 -1.203125l-1.328125 0.046875l0 -0.765625l0.578125 0q0.703125 0 1.015625 -0.109375q0.328125 -0.125 0.609375 -0.390625l0.546875 0q0.0625 0.734375 0.078125 1.84375q0.46875 -0.765625 1.328125 -1.359375q0.875 -0.59375 1.8125 -0.59375q0.5625 0 0.9375 0.296875q0.375 0.296875 0.375 0.875q0 0.296875 -0.234375 0.59375q-0.234375 0.296875 -0.671875 0.296875q-0.40625 0 -0.671875 -0.296875q-0.25 -0.3125 -0.203125 -0.734375q-0.703125 -0.03125 -1.421875 0.53125q-0.71875 0.5625 -1.21875 1.5l0.015625 4.578125q0 0.84375 -0.078125 1.28125l1.171875 -0.0625l0 0.765625l-3.8125 0l0 -0.5625z" fill-rule="nonzero"></path><path fill="#000000" fill-opacity="0.0" d="m510.84253 33.459316l116.06299 0l0 63.275593l-116.06299 0z" fill-rule="evenodd"></path><path fill="#000000" d="m563.1474 47.850567l3.203125 0q1.59375 0 2.375 0.78125q0.78125 0.78125 0.78125 2.03125q0 1.234375 -0.765625 2.0q-0.765625 0.75 -2.3125 0.75l-2.125 0l0 4.40625l-1.15625 0l0 -9.96875zm3.15625 4.578125q1.0625 0 1.546875 -0.453125q0.5 -0.453125 0.5 -1.28125q0 -0.78125 -0.515625 -1.28125q-0.5 -0.5 -1.515625 -0.5l-2.015625 0l0 3.515625l2.0 0z" fill-rule="nonzero"></path><path fill="#000000" d="m573.2256 60.95994q0.921875 0.265625 1.296875 0.59375q0.375 0.328125 0.375 0.84375q0 0.671875 -0.515625 1.109375q-0.515625 0.421875 -1.5 0.421875q-1.234375 0 -2.0625 -0.765625l0.421875 -0.734375l0.015625 0l0.015625 0q0.328125 0.4375 0.671875 0.65625q0.359375 0.203125 0.96875 0.203125q0.5625 0 0.890625 -0.203125q0.34375 -0.21875 0.34375 -0.578125q0 -0.3125 -0.265625 -0.515625q-0.265625 -0.203125 -0.96875 -0.421875q-1.828125 -0.515625 -1.828125 -1.515625q0 -0.5625 0.453125 -0.890625q0.46875 -0.328125 1.34375 -0.328125q0.65625 0 1.109375 0.1875q0.453125 0.1875 0.828125 0.578125l-0.4375 0.53125l-0.015625 0.015625q-0.21875 -0.34375 -0.640625 -0.53125q-0.40625 -0.203125 -0.828125 -0.203125q-0.453125 0 -0.75 0.15625q-0.296875 0.15625 -0.296875 0.453125q0 0.265625 0.296875 0.484375q0.296875 0.21875 1.078125 0.453125zm1.015625 -0.796875q0 -0.046875 0.09375 0.015625l-0.03125 0.03125l-0.0625 -0.046875zm0.125 -0.015625q0.03125 0.03125 0.015625 0.046875q0 0.015625 -0.015625 0q-0.015625 -0.015625 -0.03125 -0.015625l0.03125 -0.03125zm-3.0 2.25q0 0.03125 -0.09375 0l0.03125 -0.0625l0.0625 0.046875l0 0.015625zm-0.109375 0.03125q-0.03125 -0.0625 -0.03125 -0.0625q0.015625 0 0.046875 0.03125l-0.015625 0.03125z" fill-rule="nonzero"></path><path fill="#000000" d="m531.2334 79.741196q-1.40625 -0.59375 -2.46875 -1.671875q-1.0625 -1.0625 -1.640625 -2.421875q-0.5625 -1.375 -0.5625 -2.8125q0 -1.4375 0.546875 -2.75q0.5625 -1.328125 1.59375 -2.375q1.03125 -1.046875 2.4375 -1.625l0.40625 1.390625q-1.59375 0.8125 -2.46875 2.21875q-0.859375 1.390625 -0.859375 3.1875q0 1.15625 0.40625 2.234375q0.40625 1.0625 1.171875 1.90625q0.78125 0.859375 1.84375 1.359375l-0.40625 1.359375zm5.640625 -13.078125q1.09375 0 1.859375 0.625q0.78125 0.609375 1.1875 1.78125q0.40625 1.171875 0.40625 2.8125q0 1.640625 -0.40625 2.828125q-0.40625 1.171875 -1.1875 1.796875q-0.765625 0.625 -1.859375 0.625q-1.078125 0 -1.859375 -0.625q-0.765625 -0.625 -1.1875 -1.796875q-0.40625 -1.1875 -0.40625 -2.828125q0 -1.640625 0.40625 -2.8125q0.421875 -1.171875 1.1875 -1.78125q0.78125 -0.625 1.859375 -0.625zm0 1.4375q-0.546875 0 -0.9375 0.453125q-0.390625 0.4375 -0.59375 1.296875q-0.203125 0.84375 -0.203125 2.03125q0 0.609375 0.0625 1.203125l3.078125 -3.671875q-0.21875 -0.640625 -0.578125 -0.96875q-0.359375 -0.34375 -0.828125 -0.34375zm0 7.578125q0.546875 0 0.9375 -0.453125q0.390625 -0.453125 0.59375 -1.296875q0.21875 -0.859375 0.21875 -2.046875q0 -0.703125 -0.078125 -1.265625l-3.09375 3.6875q0.21875 0.671875 0.578125 1.03125q0.359375 0.34375 0.84375 0.34375zm6.390625 3.03125q0.4375 -0.421875 0.734375 -0.875q0.296875 -0.4375 0.296875 -0.6875q0 -0.078125 -0.0625 -0.15625q-0.0625 -0.078125 -0.203125 -0.21875q-0.234375 -0.203125 -0.375 -0.375q-0.125 -0.1875 -0.125 -0.40625q0 -0.3125 0.140625 -0.5625q0.15625 -0.265625 0.4375 -0.40625q0.28125 -0.15625 0.625 -0.15625q0.34375 0 0.640625 0.1875q0.3125 0.1875 0.484375 0.53125q0.1875 0.328125 0.1875 0.75q0 0.640625 -0.46875 1.421875q-0.46875 0.796875 -1.421875 1.765625l-0.890625 -0.8125zm17.609375 -12.046875q1.09375 0 1.859375 0.625q0.78125 0.609375 1.1875 1.78125q0.40625 1.171875 0.40625 2.8125q0 1.640625 -0.40625 2.828125q-0.40625 1.171875 -1.1875 1.796875q-0.765625 0.625 -1.859375 0.625q-1.078125 0 -1.859375 -0.625q-0.765625 -0.625 -1.1875 -1.796875q-0.40625 -1.1875 -0.40625 -2.828125q0 -1.640625 0.40625 -2.8125q0.421875 -1.171875 1.1875 -1.78125q0.78125 -0.625 1.859375 -0.625zm0 1.4375q-0.546875 0 -0.9375 0.453125q-0.390625 0.4375 -0.59375 1.296875q-0.203125 0.84375 -0.203125 2.03125q0 0.609375 0.0625 1.203125l3.078125 -3.671875q-0.21875 -0.640625 -0.578125 -0.96875q-0.359375 -0.34375 -0.828125 -0.34375zm0 7.578125q0.546875 0 0.9375 -0.453125q0.390625 -0.453125 0.59375 -1.296875q0.21875 -0.859375 0.21875 -2.046875q0 -0.703125 -0.078125 -1.265625l-3.09375 3.6875q0.21875 0.671875 0.578125 1.03125q0.359375 0.34375 0.84375 0.34375zm5.6875 2.703125q1.0625 -0.5 1.828125 -1.359375q0.78125 -0.84375 1.1875 -1.90625q0.40625 -1.078125 0.40625 -2.234375q0 -1.796875 -0.875 -3.1875q-0.859375 -1.40625 -2.453125 -2.21875l0.40625 -1.390625q1.40625 0.578125 2.4375 1.625q1.03125 1.046875 1.578125 2.375q0.5625 1.3125 0.5625 2.75q0 1.4375 -0.578125 2.8125q-0.5625 1.359375 -1.625 2.421875q-1.0625 1.078125 -2.46875 1.671875l-0.40625 -1.359375zm15.34375 -5.96875l0 -1.453125l6.0 0l0 1.453125l-6.0 0zm7.5625 3.78125l0 -1.71875l5.03125 -2.828125l-5.015625 -2.5625l0 -1.578125l6.984375 3.65625l0 0.9375l-7.0 4.09375zm19.765625 0.625l0 -2.46875l-3.8125 0l0 -1.125l4.328125 -6.375l1.28125 0l0 6.015625l1.328125 0l0 1.5l-1.328125 0l0 2.453125l-1.796875 0zm-1.953125 -3.90625l2.015625 0l0 -2.984375l-2.015625 2.984375z" fill-rule="nonzero"></path><path fill="#000000" fill-opacity="0.0" d="m568.874 123.12861l0 43.11811" fill-rule="evenodd"></path><path stroke="#000000" stroke-width="1.0" stroke-linejoin="round" stroke-linecap="butt" d="m568.874 123.12861l0 37.11811" fill-rule="evenodd"></path><path fill="#000000" stroke="#000000" stroke-width="1.0" stroke-linecap="butt" d="m567.2223 160.24672l1.6517334 4.538101l1.6517334 -4.538101z" fill-rule="evenodd"></path><path fill="#cfe2f3" d="m358.37534 122.25197l61.82675 0l0 -10.29921l20.59845 20.59842l-20.59845 20.598434l0 -10.299225l-61.82675 0z" fill-rule="evenodd"></path><path stroke="#3c78d8" stroke-width="1.0" stroke-linejoin="round" stroke-linecap="butt" d="m358.37534 122.25197l61.82675 0l0 -10.29921l20.59845 20.59842l-20.59845 20.598434l0 -10.299225l-61.82675 0z" fill-rule="evenodd"></path><path fill="#cfe2f3" d="m709.4199 122.25197l61.826782 0l0 -10.29921l20.59845 20.59842l-20.59845 20.598434l0 -10.299225l-61.826782 0z" fill-rule="evenodd"></path><path stroke="#3c78d8" stroke-width="1.0" stroke-linejoin="round" stroke-linecap="butt" d="m709.4199 122.25197l61.826782 0l0 -10.29921l20.59845 20.59842l-20.59845 20.598434l0 -10.299225l-61.826782 0z" fill-rule="evenodd"></path><path fill="#000000" fill-opacity="0.0" d="m914.61285 7.0656166l169.51178 0l0 37.669292l-169.51178 0z" fill-rule="evenodd"></path><path fill="#000000" d="m939.35315 28.96999q1.609375 0.484375 2.265625 1.0625q0.65625 0.5625 0.65625 1.46875q0 1.15625 -0.90625 1.921875q-0.890625 0.75 -2.609375 0.75q-2.171875 0 -3.625 -1.34375l0.75 -1.265625l0.015625 -0.015625l0.015625 0.015625q0.578125 0.75 1.1875 1.125q0.625 0.359375 1.6875 0.359375q1.015625 0 1.59375 -0.359375q0.578125 -0.359375 0.578125 -1.0q0 -0.53125 -0.46875 -0.890625q-0.46875 -0.359375 -1.6875 -0.75q-3.203125 -0.90625 -3.203125 -2.640625q0 -1.0 0.8125 -1.578125q0.8125 -0.578125 2.328125 -0.578125q1.15625 0 1.9375 0.328125q0.796875 0.328125 1.453125 1.015625l-0.765625 0.9375l-0.015625 0.015625q-0.390625 -0.59375 -1.109375 -0.9375q-0.71875 -0.34375 -1.46875 -0.34375q-0.796875 0 -1.3125 0.28125q-0.515625 0.28125 -0.515625 0.78125q0 0.46875 0.515625 0.859375q0.53125 0.390625 1.890625 0.78125zm1.796875 -1.390625q0 -0.09375 0.140625 0.03125l-0.0625 0.0625l-0.078125 -0.09375zm0.203125 -0.03125q0.046875 0.078125 0.03125 0.09375q0 0.015625 -0.046875 0q-0.03125 -0.015625 -0.046875 -0.03125l0.0625 -0.0625zm-5.25 3.9375q0 0.078125 -0.171875 0l0.0625 -0.09375l0.109375 0.078125l0 0.015625zm-0.203125 0.0625q-0.0625 -0.09375 -0.046875 -0.09375q0.03125 0 0.078125 0.03125l-0.03125 0.0625zm8.84375 -6.09375l1.3125 0l0 1.515625q0.5 -0.78125 1.265625 -1.25q0.765625 -0.46875 1.625 -0.46875q1.125 0 1.8125 0.875q0.6875 0.859375 0.6875 2.6875l0 5.171875l-1.3125 0l0 -5.125q0 -1.28125 -0.4375 -1.859375q-0.421875 -0.578125 -1.125 -0.578125q-0.578125 0 -1.171875 0.34375q-0.578125 0.328125 -0.96875 0.9375q-0.375 0.609375 -0.375 1.375l0 4.90625l-1.3125 0l0 -8.53125zm12.53125 -0.1875q1.828125 0 2.78125 0.953125q0.96875 0.953125 0.96875 3.234375l0 4.53125l-1.453125 0l0 -1.3125q-0.78125 1.515625 -2.90625 1.515625q-1.421875 0 -2.21875 -0.640625q-0.796875 -0.640625 -0.796875 -1.703125q0 -0.90625 0.578125 -1.578125q0.578125 -0.671875 1.546875 -1.03125q0.984375 -0.359375 2.15625 -0.359375q1.0625 0 1.921875 0.109375q-0.109375 -1.4375 -0.75 -2.015625q-0.640625 -0.59375 -1.921875 -0.59375q-0.625 0 -1.21875 0.25q-0.578125 0.234375 -1.0625 0.703125l-0.65625 -0.859375q1.1875 -1.203125 3.03125 -1.203125zm-0.484375 7.890625q1.390625 0 2.1875 -0.796875q0.796875 -0.8125 0.875 -2.34375q-0.84375 -0.140625 -1.8125 -0.140625q-1.40625 0 -2.234375 0.46875q-0.828125 0.46875 -0.828125 1.421875q0 1.390625 1.8125 1.390625zm6.390625 -7.703125l1.359375 0l0 1.6875q0.28125 -0.9375 0.96875 -1.40625q0.6875 -0.46875 1.625 -0.46875q0.96875 0 1.78125 0.5q0.8125 0.5 1.296875 1.484375q0.484375 0.984375 0.484375 2.40625q0 1.4375 -0.515625 2.46875q-0.5 1.03125 -1.328125 1.5625q-0.828125 0.515625 -1.765625 0.515625q-0.765625 0 -1.4375 -0.34375q-0.671875 -0.359375 -1.09375 -1.0l0 4.234375l-1.375 0l0 -11.640625zm3.6875 7.5625q1.03125 0 1.71875 -0.765625q0.703125 -0.78125 0.703125 -2.53125q0 -1.59375 -0.625 -2.4375q-0.609375 -0.859375 -1.734375 -0.859375q-1.0625 0 -1.734375 0.890625q-0.65625 0.890625 -0.65625 2.703125q0.03125 1.46875 0.640625 2.234375q0.625 0.765625 1.6875 0.765625zm9.796875 -4.046875q1.609375 0.484375 2.265625 1.0625q0.65625 0.5625 0.65625 1.46875q0 1.15625 -0.90625 1.921875q-0.890625 0.75 -2.609375 0.75q-2.171875 0 -3.625 -1.34375l0.75 -1.265625l0.015625 -0.015625l0.015625 0.015625q0.578125 0.75 1.1875 1.125q0.625 0.359375 1.6875 0.359375q1.015625 0 1.59375 -0.359375q0.578125 -0.359375 0.578125 -1.0q0 -0.53125 -0.46875 -0.890625q-0.46875 -0.359375 -1.6875 -0.75q-3.203125 -0.90625 -3.203125 -2.640625q0 -1.0 0.8125 -1.578125q0.8125 -0.578125 2.328125 -0.578125q1.15625 0 1.9375 0.328125q0.796875 0.328125 1.453125 1.015625l-0.765625 0.9375l-0.015625 0.015625q-0.390625 -0.59375 -1.109375 -0.9375q-0.71875 -0.34375 -1.46875 -0.34375q-0.796875 0 -1.3125 0.28125q-0.515625 0.28125 -0.515625 0.78125q0 0.46875 0.515625 0.859375q0.53125 0.390625 1.890625 0.78125zm1.796875 -1.390625q0 -0.09375 0.140625 0.03125l-0.0625 0.0625l-0.078125 -0.09375zm0.203125 -0.03125q0.046875 0.078125 0.03125 0.09375q0 0.015625 -0.046875 0q-0.03125 -0.015625 -0.046875 -0.03125l0.0625 -0.0625zm-5.25 3.9375q0 0.078125 -0.171875 0l0.0625 -0.09375l0.109375 0.078125l0 0.015625zm-0.203125 0.0625q-0.0625 -0.09375 -0.046875 -0.09375q0.03125 0 0.078125 0.03125l-0.03125 0.0625zm8.859375 -9.96875l1.46875 0l0 0.125q-0.109375 0.125 -0.140625 0.25q-0.015625 0.125 -0.015625 0.453125l0 4.5625q0.5 -0.78125 1.25 -1.25q0.765625 -0.46875 1.546875 -0.46875q1.203125 0 1.890625 0.859375q0.703125 0.859375 0.703125 2.703125l0 5.171875l-1.3125 0l0 -5.125q0 -1.28125 -0.4375 -1.859375q-0.421875 -0.578125 -1.125 -0.578125q-0.59375 0 -1.171875 0.328125q-0.578125 0.328125 -0.96875 0.9375q-0.375 0.609375 -0.375 1.390625l0 4.90625l-1.3125 0l0 -12.40625zm12.640625 12.5625q-1.140625 0 -2.046875 -0.5625q-0.890625 -0.5625 -1.390625 -1.5625q-0.5 -1.015625 -0.5 -2.296875q0 -1.296875 0.5 -2.296875q0.5 -1.015625 1.390625 -1.578125q0.90625 -0.578125 2.046875 -0.578125q1.125 0 2.015625 0.578125q0.90625 0.5625 1.40625 1.578125q0.5 1.0 0.5 2.296875q0 1.28125 -0.5 2.296875q-0.5 1.0 -1.40625 1.5625q-0.890625 0.5625 -2.015625 0.5625zm0 -1.125q0.71875 0 1.28125 -0.421875q0.578125 -0.4375 0.90625 -1.1875q0.328125 -0.765625 0.328125 -1.71875q0 -1.453125 -0.71875 -2.375q-0.703125 -0.921875 -1.796875 -0.921875q-1.109375 0 -1.828125 0.921875q-0.703125 0.921875 -0.703125 2.375q0 0.953125 0.328125 1.71875q0.328125 0.75 0.890625 1.1875q0.578125 0.421875 1.3125 0.421875zm12.9375 0.1875q-1.234375 0.90625 -2.703125 0.90625q-1.421875 0 -2.015625 -0.84375q-0.578125 -0.859375 -0.578125 -2.8125q0 -0.3125 0.03125 -1.09375l0.171875 -2.796875l-1.875 0l0 -1.109375l1.953125 0l0.125 -2.265625l1.5 -0.25l0.1875 -0.015625l0.015625 0.109375q-0.125 0.1875 -0.203125 0.328125q-0.0625 0.125 -0.078125 0.40625l-0.203125 1.6875l2.828125 0l0 1.109375l-2.90625 0l-0.171875 2.890625q-0.03125 0.75 -0.03125 0.984375q0 1.5 0.34375 2.03125q0.34375 0.53125 1.109375 0.53125q0.5625 0 1.03125 -0.203125q0.46875 -0.21875 1.0625 -0.65625l0.40625 1.0625zm1.703125 2.28125l0 -1.140625l8.03125 0l0 1.140625l-8.03125 0zm10.53125 -1.5l0 -1.078125l2.1875 0l0 -6.359375l-2.0625 0l0 -1.09375l3.40625 0l0 7.453125l2.0 0l0 1.078125l-5.53125 0zm2.78125 -10.3125q-0.390625 0 -0.671875 -0.28125q-0.28125 -0.28125 -0.28125 -0.671875q0 -0.40625 0.265625 -0.6875q0.28125 -0.28125 0.6875 -0.28125q0.390625 0 0.671875 0.296875q0.296875 0.28125 0.296875 0.671875q0 0.390625 -0.296875 0.671875q-0.28125 0.28125 -0.671875 0.28125zm9.046875 10.5q-0.90625 0 -1.71875 -0.515625q-0.796875 -0.515625 -1.296875 -1.53125q-0.5 -1.03125 -0.5 -2.484375q0 -1.484375 0.515625 -2.46875q0.53125 -0.984375 1.34375 -1.453125q0.828125 -0.484375 1.734375 -0.484375q0.859375 0 1.5 0.390625q0.640625 0.390625 0.984375 1.078125l0 -5.125l1.421875 0l0 0.125q-0.109375 0.125 -0.140625 0.25q-0.03125 0.125 -0.03125 0.453125l0.015625 10.25q0 0.453125 0.03125 0.75q0.03125 0.28125 0.15625 0.578125l-1.328125 0q-0.125 -0.296875 -0.15625 -0.578125q-0.03125 -0.296875 -0.03125 -0.75q-0.40625 0.71875 -1.046875 1.125q-0.640625 0.390625 -1.453125 0.390625zm0.21875 -1.171875q1.15625 0 1.6875 -0.90625q0.546875 -0.921875 0.546875 -2.421875q0 -1.515625 -0.59375 -2.421875q-0.578125 -0.921875 -1.765625 -0.921875q-1.109375 0 -1.71875 0.84375q-0.59375 0.828125 -0.59375 2.265625q0 1.640625 0.625 2.609375q0.625 0.953125 1.8125 0.953125zm9.1875 -4.765625q-0.421875 0 -0.765625 -0.3125q-0.328125 -0.3125 -0.328125 -0.75q0 -0.4375 0.328125 -0.75q0.328125 -0.328125 0.765625 -0.328125q0.453125 0 0.78125 0.328125q0.34375 0.3125 0.34375 0.75q0 0.4375 -0.34375 0.75q-0.328125 0.3125 -0.78125 0.3125zm0 5.953125q-0.46875 0 -0.78125 -0.296875q-0.3125 -0.3125 -0.3125 -0.765625q0 -0.453125 0.328125 -0.765625q0.328125 -0.3125 0.765625 -0.3125q0.453125 0 0.78125 0.3125q0.34375 0.3125 0.34375 0.765625q0 0.4375 -0.328125 0.75q-0.328125 0.3125 -0.796875 0.3125z" fill-rule="nonzero"></path><path fill="#000000" d="m1060.4156 33.985615l0 -2.875l-4.4375 0l0 -1.3125l5.03125 -7.4375l1.5 0l0 7.015625l1.5625 0l0 1.765625l-1.5625 0l0 2.84375l-2.09375 0zm-2.28125 -4.5625l2.34375 0l0 -3.46875l-2.34375 3.46875z" fill-rule="nonzero"></path><path fill="#000000" fill-opacity="0.0" d="m74.38058 7.0656166l169.51181 0l0 37.669292l-169.51181 0z" fill-rule="evenodd"></path><path fill="#000000" d="m99.12086 28.96999q1.609375 0.484375 2.265625 1.0625q0.65625 0.5625 0.65625 1.46875q0 1.15625 -0.90625 1.921875q-0.890625 0.75 -2.609375 0.75q-2.171875 0 -3.625 -1.34375l0.75 -1.265625l0.015625 -0.015625l0.015625 0.015625q0.578125 0.75 1.1875 1.125q0.625 0.359375 1.6875 0.359375q1.015625 0 1.59375 -0.359375q0.578125 -0.359375 0.578125 -1.0q0 -0.53125 -0.46875 -0.890625q-0.46875 -0.359375 -1.6875 -0.75q-3.203125 -0.90625 -3.203125 -2.640625q0 -1.0 0.8125 -1.578125q0.8125 -0.578125 2.328125 -0.578125q1.15625 0 1.9375 0.328125q0.796875 0.328125 1.453125 1.015625l-0.765625 0.9375l-0.015625 0.015625q-0.390625 -0.59375 -1.109375 -0.9375q-0.71875 -0.34375 -1.46875 -0.34375q-0.796875 0 -1.3125 0.28125q-0.515625 0.28125 -0.515625 0.78125q0 0.46875 0.515625 0.859375q0.53125 0.390625 1.890625 0.78125zm1.796875 -1.390625q0 -0.09375 0.140625 0.03125l-0.0625 0.0625l-0.078125 -0.09375zm0.203125 -0.03125q0.046875 0.078125 0.03125 0.09375q0 0.015625 -0.046875 0q-0.03125 -0.015625 -0.046875 -0.03125l0.0625 -0.0625zm-5.25 3.9375q0 0.078125 -0.171875 0l0.0625 -0.09375l0.109375 0.078125l0 0.015625zm-0.203125 0.0625q-0.0625 -0.09375 -0.046875 -0.09375q0.03125 0 0.078125 0.03125l-0.03125 0.0625zm8.84375 -6.09375l1.3125 0l0 1.515625q0.5 -0.78125 1.265625 -1.25q0.765625 -0.46875 1.625 -0.46875q1.125 0 1.8125 0.875q0.6875 0.859375 0.6875 2.6875l0 5.171875l-1.3125 0l0 -5.125q0 -1.28125 -0.4375 -1.859375q-0.421875 -0.578125 -1.125 -0.578125q-0.578125 0 -1.171875 0.34375q-0.578125 0.328125 -0.96875 0.9375q-0.375 0.609375 -0.375 1.375l0 4.90625l-1.3125 0l0 -8.53125zm12.53125 -0.1875q1.828125 0 2.78125 0.953125q0.96875 0.953125 0.96875 3.234375l0 4.53125l-1.453125 0l0 -1.3125q-0.78125 1.515625 -2.90625 1.515625q-1.421875 0 -2.21875 -0.640625q-0.796875 -0.640625 -0.796875 -1.703125q0 -0.90625 0.578125 -1.578125q0.578125 -0.671875 1.546875 -1.03125q0.984375 -0.359375 2.15625 -0.359375q1.0625 0 1.921875 0.109375q-0.109375 -1.4375 -0.75 -2.015625q-0.640625 -0.59375 -1.921875 -0.59375q-0.625 0 -1.21875 0.25q-0.578125 0.234375 -1.0625 0.703125l-0.65625 -0.859375q1.1875 -1.203125 3.03125 -1.203125zm-0.484375 7.890625q1.390625 0 2.1875 -0.796875q0.796875 -0.8125 0.875 -2.34375q-0.84375 -0.140625 -1.8125 -0.140625q-1.40625 0 -2.234375 0.46875q-0.828125 0.46875 -0.828125 1.421875q0 1.390625 1.8125 1.390625zm6.390625 -7.703125l1.359375 0l0 1.6875q0.28125 -0.9375 0.96875 -1.40625q0.6875 -0.46875 1.625 -0.46875q0.96875 0 1.7812576 0.5q0.8125 0.5 1.296875 1.484375q0.484375 0.984375 0.484375 2.40625q0 1.4375 -0.515625 2.46875q-0.5 1.03125 -1.328125 1.5625q-0.8281326 0.515625 -1.7656326 0.515625q-0.765625 0 -1.4375 -0.34375q-0.671875 -0.359375 -1.09375 -1.0l0 4.234375l-1.375 0l0 -11.640625zm3.6875 7.5625q1.03125 0 1.7187576 -0.765625q0.703125 -0.78125 0.703125 -2.53125q0 -1.59375 -0.625 -2.4375q-0.6093826 -0.859375 -1.7343826 -0.859375q-1.0625 0 -1.734375 0.890625q-0.65625 0.890625 -0.65625 2.703125q0.03125 1.46875 0.640625 2.234375q0.625 0.765625 1.6875 0.765625zm9.796883 -4.046875q1.609375 0.484375 2.265625 1.0625q0.65625 0.5625 0.65625 1.46875q0 1.15625 -0.90625 1.921875q-0.890625 0.75 -2.609375 0.75q-2.171875 0 -3.625 -1.34375l0.75 -1.265625l0.015625 -0.015625l0.015625 0.015625q0.578125 0.75 1.1875 1.125q0.625 0.359375 1.6875 0.359375q1.015625 0 1.59375 -0.359375q0.578125 -0.359375 0.578125 -1.0q0 -0.53125 -0.46875 -0.890625q-0.46875 -0.359375 -1.6875 -0.75q-3.203125 -0.90625 -3.203125 -2.640625q0 -1.0 0.8125 -1.578125q0.8125 -0.578125 2.328125 -0.578125q1.15625 0 1.9375 0.328125q0.796875 0.328125 1.453125 1.015625l-0.765625 0.9375l-0.015625 0.015625q-0.390625 -0.59375 -1.109375 -0.9375q-0.71875 -0.34375 -1.46875 -0.34375q-0.796875 0 -1.3125 0.28125q-0.515625 0.28125 -0.515625 0.78125q0 0.46875 0.515625 0.859375q0.53125 0.390625 1.890625 0.78125zm1.796875 -1.390625q0 -0.09375 0.140625 0.03125l-0.0625 0.0625l-0.078125 -0.09375zm0.203125 -0.03125q0.046875 0.078125 0.03125 0.09375q0 0.015625 -0.046875 0q-0.03125 -0.015625 -0.046875 -0.03125l0.0625 -0.0625zm-5.25 3.9375q0 0.078125 -0.171875 0l0.0625 -0.09375l0.109375 0.078125l0 0.015625zm-0.203125 0.0625q-0.0625 -0.09375 -0.046875 -0.09375q0.03125 0 0.078125 0.03125l-0.03125 0.0625zm8.859375 -9.96875l1.46875 0l0 0.125q-0.109375 0.125 -0.140625 0.25q-0.015625 0.125 -0.015625 0.453125l0 4.5625q0.5 -0.78125 1.25 -1.25q0.765625 -0.46875 1.546875 -0.46875q1.203125 0 1.890625 0.859375q0.703125 0.859375 0.703125 2.703125l0 5.171875l-1.3125 0l0 -5.125q0 -1.28125 -0.4375 -1.859375q-0.421875 -0.578125 -1.125 -0.578125q-0.59375 0 -1.171875 0.328125q-0.578125 0.328125 -0.96875 0.9375q-0.375 0.609375 -0.375 1.390625l0 4.90625l-1.3125 0l0 -12.40625zm12.640625 12.5625q-1.140625 0 -2.046875 -0.5625q-0.890625 -0.5625 -1.390625 -1.5625q-0.5 -1.015625 -0.5 -2.296875q0 -1.296875 0.5 -2.296875q0.5 -1.015625 1.390625 -1.578125q0.90625 -0.578125 2.046875 -0.578125q1.125 0 2.015625 0.578125q0.90625 0.5625 1.40625 1.578125q0.5 1.0 0.5 2.296875q0 1.28125 -0.5 2.296875q-0.5 1.0 -1.40625 1.5625q-0.890625 0.5625 -2.015625 0.5625zm0 -1.125q0.71875 0 1.28125 -0.421875q0.578125 -0.4375 0.90625 -1.1875q0.328125 -0.765625 0.328125 -1.71875q0 -1.453125 -0.71875 -2.375q-0.703125 -0.921875 -1.796875 -0.921875q-1.109375 0 -1.828125 0.921875q-0.703125 0.921875 -0.703125 2.375q0 0.953125 0.328125 1.71875q0.328125 0.75 0.890625 1.1875q0.578125 0.421875 1.3125 0.421875zm12.9375 0.1875q-1.234375 0.90625 -2.703125 0.90625q-1.421875 0 -2.015625 -0.84375q-0.578125 -0.859375 -0.578125 -2.8125q0 -0.3125 0.03125 -1.09375l0.171875 -2.796875l-1.875 0l0 -1.109375l1.953125 0l0.125 -2.265625l1.5 -0.25l0.1875 -0.015625l0.015625 0.109375q-0.125 0.1875 -0.203125 0.328125q-0.0625 0.125 -0.078125 0.40625l-0.203125 1.6875l2.828125 0l0 1.109375l-2.90625 0l-0.171875 2.890625q-0.03125 0.75 -0.03125 0.984375q0 1.5 0.34375 2.03125q0.34375 0.53125 1.109375 0.53125q0.5625 0 1.03125 -0.203125q0.46875 -0.21875 1.0625 -0.65625l0.40625 1.0625zm1.703125 2.28125l0 -1.140625l8.03125 0l0 1.140625l-8.03125 0zm10.53125 -1.5l0 -1.078125l2.1875 0l0 -6.359375l-2.0625 0l0 -1.09375l3.40625 0l0 7.453125l2.0 0l0 1.078125l-5.53125 0zm2.78125 -10.3125q-0.390625 0 -0.671875 -0.28125q-0.28125 -0.28125 -0.28125 -0.671875q0 -0.40625 0.265625 -0.6875q0.28125 -0.28125 0.6875 -0.28125q0.390625 0 0.671875 0.296875q0.296875 0.28125 0.296875 0.671875q0 0.390625 -0.296875 0.671875q-0.28125 0.28125 -0.671875 0.28125zm9.046875 10.5q-0.90625 0 -1.71875 -0.515625q-0.796875 -0.515625 -1.296875 -1.53125q-0.5 -1.03125 -0.5 -2.484375q0 -1.484375 0.515625 -2.46875q0.53125 -0.984375 1.34375 -1.453125q0.828125 -0.484375 1.734375 -0.484375q0.859375 0 1.5 0.390625q0.640625 0.390625 0.984375 1.078125l0 -5.125l1.421875 0l0 0.125q-0.109375 0.125 -0.140625 0.25q-0.03125 0.125 -0.03125 0.453125l0.015625 10.25q0 0.453125 0.03125 0.75q0.03125 0.28125 0.15625 0.578125l-1.328125 0q-0.125 -0.296875 -0.15625 -0.578125q-0.03125 -0.296875 -0.03125 -0.75q-0.40625 0.71875 -1.046875 1.125q-0.640625 0.390625 -1.453125 0.390625zm0.21875 -1.171875q1.15625 0 1.6875 -0.90625q0.546875 -0.921875 0.546875 -2.421875q0 -1.515625 -0.59375 -2.421875q-0.578125 -0.921875 -1.765625 -0.921875q-1.109375 0 -1.71875 0.84375q-0.59375 0.828125 -0.59375 2.265625q0 1.640625 0.625 2.609375q0.625 0.953125 1.8125 0.953125zm9.1875 -4.765625q-0.421875 0 -0.765625 -0.3125q-0.328125 -0.3125 -0.328125 -0.75q0 -0.4375 0.328125 -0.75q0.328125 -0.328125 0.765625 -0.328125q0.453125 0 0.78125 0.328125q0.34375 0.3125 0.34375 0.75q0 0.4375 -0.34375 0.75q-0.328125 0.3125 -0.78125 0.3125zm0 5.953125q-0.46875 0 -0.78125 -0.296875q-0.3125 -0.3125 -0.3125 -0.765625q0 -0.453125 0.328125 -0.765625q0.328125 -0.3125 0.765625 -0.3125q0.453125 0 0.78125 0.3125q0.34375 0.3125 0.34375 0.765625q0 0.4375 -0.328125 0.75q-0.328125 0.3125 -0.796875 0.3125z" fill-rule="nonzero"></path><path fill="#000000" d="m221.43336 27.798115q0.796875 0.28125 1.359375 1.03125q0.5625 0.734375 0.5625 1.890625q0 1.015625 -0.46875 1.84375q-0.46875 0.828125 -1.359375 1.3125q-0.890625 0.46875 -2.09375 0.46875q-2.390625 0 -3.640625 -1.578125l0.875 -1.734375l0 0l0.015625 0.015625q0.40625 0.78125 1.0625 1.140625q0.671875 0.34375 1.703125 0.34375q0.859375 0 1.328125 -0.515625q0.484375 -0.515625 0.484375 -1.375q0 -0.9375 -0.53125 -1.390625q-0.515625 -0.46875 -1.765625 -0.46875q-0.4375 0 -0.96875 0.0625l0 -1.6875q0.140625 0 0.390625 0q1.4375 0 2.0 -0.453125q0.5625 -0.46875 0.5625 -1.296875q0 -0.671875 -0.40625 -1.09375q-0.390625 -0.421875 -1.109375 -0.421875q-0.625 0 -1.171875 0.21875q-0.53125 0.21875 -1.109375 0.75l-1.171875 -1.203125q0.671875 -0.78125 1.546875 -1.171875q0.890625 -0.390625 1.890625 -0.390625q1.0625 0 1.875 0.40625q0.828125 0.40625 1.28125 1.109375q0.46875 0.703125 0.46875 1.578125q0 0.9375 -0.484375 1.625q-0.46875 0.671875 -1.125 0.984375zm-4.765625 3.234375q-0.03125 -0.078125 -0.03125 -0.125q0 -0.015625 0.015625 -0.015625q0.015625 0 0.078125 0.03125l-0.0625 0.109375zm0.265625 -0.03125q0 0.015625 0 0.015625q-0.03125 0 -0.109375 -0.03125q-0.0625 -0.046875 -0.09375 -0.0625l0 -0.03125l0.203125 0.09375l0 0.015625z" fill-rule="nonzero"></path></g></svg>

