<svg version="1.1" viewBox="0.0 0.0 371.70866141732284 385.0551181102362" fill="none" stroke="none" stroke-linecap="square" stroke-miterlimit="10" xmlns:xlink="http://www.w3.org/1999/xlink" xmlns="http://www.w3.org/2000/svg"><clipPath id="p.0"><path d="m0 0l371.70865 0l0 385.0551l-371.70865 0l0 -385.0551z" clip-rule="nonzero"/></clipPath><g clip-path="url(#p.0)"><path fill="#000000" fill-opacity="0.0" d="m0 0l371.70865 0l0 385.0551l-371.70865 0z" fill-rule="evenodd"/><path fill="#f6b26b" d="m53.377953 135.5853l0 0c0 -17.020805 13.798088 -30.818893 30.818901 -30.818893l0 0c8.173676 0 16.01258 3.2469864 21.792252 9.026649c5.779663 5.779663 9.026642 13.618568 9.026642 21.792244l0 0c0 17.020813 -13.798088 30.818909 -30.818893 30.818909l0 0c-17.020813 0 -30.818901 -13.798096 -30.818901 -30.818909z" fill-rule="evenodd"/><path stroke="#bf9000" stroke-width="1.0" stroke-linejoin="round" stroke-linecap="butt" d="m53.377953 135.5853l0 0c0 -17.020805 13.798088 -30.818893 30.818901 -30.818893l0 0c8.173676 0 16.01258 3.2469864 21.792252 9.026649c5.779663 5.779663 9.026642 13.618568 9.026642 21.792244l0 0c0 17.020813 -13.798088 30.818909 -30.818893 30.818909l0 0c-17.020813 0 -30.818901 -13.798096 -30.818901 -30.818909z" fill-rule="evenodd"/><path fill="#000000" d="m78.24807 141.89592q0.46875 0 0.75 -0.21875q0.28125 -0.21875 0.453125 -0.5625q0.171875 -0.34375 0.421875 -1.03125l0.1875 -0.53125l3.84375 -10.453125l0.4375 0l4.171875 10.609375q0.203125 0.5 0.34375 1.09375q0.15625 0.578125 0.140625 0.953125l1.265625 -0.078125l0 0.828125l-4.28125 0l0 -0.609375q1.109375 -0.03125 1.109375 -0.90625q0 -0.34375 -0.1875 -0.875l-0.65625 -1.75l-4.84375 0.109375q-0.28125 0.765625 -0.65625 2.0q-0.1875 0.609375 -0.46875 1.28125l1.453125 -0.078125l0 0.828125l-3.484375 0l0 -0.609375zm7.734375 -4.21875l-1.3125 -3.5625l-0.84375 -2.296875l-0.046875 0l-0.78125 2.109375l-1.0 2.828125l-0.3125 0.921875l4.296875 0z" fill-rule="nonzero"/><path fill="#9fc5e8" d="m273.95276 135.5853l0 0c0 -17.020805 13.798096 -30.818893 30.818909 -30.818893l0 0c8.173676 0 16.012573 3.2469864 21.792236 9.026649c5.779663 5.779663 9.026642 13.618568 9.026642 21.792244l0 0c0 17.020813 -13.798096 30.818909 -30.818878 30.818909l0 0c-17.020813 0 -30.818909 -13.798096 -30.818909 -30.818909z" fill-rule="evenodd"/><path stroke="#6fa8dc" stroke-width="1.0" stroke-linejoin="round" stroke-linecap="butt" d="m273.95276 135.5853l0 0c0 -17.020805 13.798096 -30.818893 30.818909 -30.818893l0 0c8.173676 0 16.012573 3.2469864 21.792236 9.026649c5.779663 5.779663 9.026642 13.618568 9.026642 21.792244l0 0c0 17.020813 -13.798096 30.818909 -30.818878 30.818909l0 0c-17.020813 0 -30.818909 -13.798096 -30.818909 -30.818909z" fill-rule="evenodd"/><path fill="#000000" d="m300.00082 141.89592q0.640625 -0.03125 0.921875 -0.296875q0.28125 -0.28125 0.3125 -0.6875q0.046875 -0.40625 0.046875 -1.40625l0 -7.84375q0 -1.0 0.0625 -1.46875l-1.34375 0.078125l0 -0.828125q2.71875 -0.03125 4.21875 -0.03125q2.1875 0 3.375 0.78125q1.1875 0.765625 1.1875 2.328125q0 1.015625 -0.796875 1.859375q-0.78125 0.84375 -2.28125 1.109375l0 0.03125q2.0 0 3.0625 0.921875q1.078125 0.90625 1.078125 2.40625q0 1.125 -0.578125 1.953125q-0.5625 0.828125 -1.5625 1.265625q-0.984375 0.4375 -2.265625 0.4375l-5.4375 0l0 -0.609375zm4.265625 -6.578125q1.46875 -0.015625 2.140625 -0.796875q0.671875 -0.796875 0.671875 -1.953125q0 -1.40625 -0.8125 -1.9375q-0.796875 -0.546875 -1.96875 -0.546875q-0.59375 0 -0.890625 0.171875q-0.296875 0.15625 -0.40625 0.53125q-0.09375 0.375 -0.09375 1.109375l0 3.46875l1.359375 -0.046875zm0.5625 6.484375q1.46875 0 2.328125 -0.734375q0.875 -0.75 0.875 -2.109375q0 -1.578125 -0.890625 -2.25q-0.875 -0.671875 -2.3125 -0.671875q-1.03125 0 -1.921875 0.046875l0 4.21875q0 0.96875 -0.0625 1.453125q0.359375 0.046875 1.34375 0.046875l0.640625 0z" fill-rule="nonzero"/><path fill="#6aa84f" d="m123.685036 6.7375326l129.98425 0l0 40.692913l-129.98425 0z" fill-rule="evenodd"/><path stroke="#38761d" stroke-width="1.0" stroke-linejoin="round" stroke-linecap="butt" d="m123.685036 6.7375326l129.98425 0l0 40.692913l-129.98425 0z" fill-rule="evenodd"/><path fill="#000000" d="m150.96535 34.30086q-1.828125 0 -3.28125 -0.875q-1.4375 -0.875 -2.25 -2.390623q-0.8125 -1.515625 -0.8125 -3.359375q0 -1.828125 0.734375 -3.421875q0.734375 -1.609375 2.203125 -2.609375q1.46875 -1.0 3.53125 -1.0q2.0625 0 3.765625 1.140625l-0.09375 -1.015625l1.015625 0l0 4.328125l-0.671875 0q-0.1875 -1.734375 -1.234375 -2.703125q-1.03125 -0.984375 -2.640625 -0.984375q-1.328125 0 -2.421875 0.734375q-1.09375 0.734375 -1.734375 2.109375q-0.625 1.359375 -0.625 3.140625q0 1.71875 0.671875 3.078125q0.671875 1.34375 1.8125 2.109373q1.140625 0.75 2.515625 0.75q1.25 0 2.40625 -0.5625q1.15625 -0.5625 1.90625 -1.5781231l0.484375 0.390625q-1.078125 1.4999981 -2.484375 2.109373q-1.40625 0.609375 -2.796875 0.609375zm11.290726 0q-1.296875 0 -2.375 -0.609375q-1.0625 -0.609375 -1.6875 -1.6875q-0.625 -1.0781231 -0.625 -2.437498q0 -1.453125 0.609375 -2.640625q0.625 -1.1875 1.6875 -1.859375q1.078125 -0.6875 2.390625 -0.6875q1.28125 0 2.359375 0.625q1.09375 0.625 1.71875 1.703125q0.625 1.078125 0.625 2.40625q0 1.421875 -0.625 2.625q-0.625 1.1874981 -1.703125 1.8749981q-1.078125 0.6875 -2.375 0.6875zm0.140625 -0.75q1.359375 0 2.0 -1.109375q0.65625 -1.1249981 0.65625 -2.781248q0 -1.890625 -0.703125 -3.234375q-0.703125 -1.34375 -2.09375 -1.34375q-1.390625 0 -2.09375 1.140625q-0.6875 1.140625 -0.6875 2.796875q0 1.203125 0.328125 2.234375q0.328125 1.0312481 0.984375 1.6718731q0.65625 0.625 1.609375 0.625zm6.148285 -0.109375q0.53125 0 0.765625 -0.265625q0.234375 -0.265625 0.265625 -0.671875q0.046875 -0.40625 0.0625 -1.3281231l0.015625 -4.265625q0 -0.78125 0.078125 -1.203125l-1.328125 0.0625l0 -0.78125q1.109375 0 1.515625 -0.109375q0.40625 -0.125 0.6875 -0.390625l0.546875 0q0.03125 0.359375 0.0625 1.140625q0.640625 -0.5625 1.453125 -0.90625q0.8125 -0.34375 1.59375 -0.34375q1.625 0 2.359375 1.015625q0.75 1.015625 0.75 3.15625l0 3.468748q0 0.84375 -0.0625 1.28125l1.171875 -0.0625l0 0.765625l-3.8125 0l0 -0.5625q0.546875 0 0.78125 -0.265625q0.234375 -0.265625 0.28125 -0.6875q0.046875 -0.421875 0.046875 -1.3124981l0 -2.625q-0.015625 -1.59375 -0.53125 -2.40625q-0.5 -0.8125 -1.578125 -0.8125q-0.671875 0 -1.34375 0.34375q-0.65625 0.328125 -1.078125 0.859375q0.015625 0.21875 0.015625 0.734375l-0.015625 4.749998q0 0.84375 -0.078125 1.28125l1.171875 -0.0625l0 0.765625l-3.796875 0l0 -0.5625zm14.824341 0.859375q-2.5625 0 -2.53125 -3.437498l0.03125 -5.40625l-1.4375 0.015625l0 -0.796875q0.890625 -0.015625 1.515625 -0.8125q0.625 -0.796875 0.921875 -1.796875l0.640625 0l0 2.609375l3.140625 0l0 0.734375l-3.140625 0.03125q-0.015625 2.859375 -0.03125 3.96875q0 1.09375 0 1.21875q0 1.328125 0.3125 1.9687481q0.3125 0.640625 1.09375 0.640625q0.484375 0 0.953125 -0.296875q0.484375 -0.296875 0.84375 -0.828125l0.5 0.421875q-0.71875 1.078125 -1.4375 1.421875q-0.703125 0.34375 -1.375 0.34375zm3.7199707 -0.859375q0.53125 0 0.765625 -0.265625q0.234375 -0.265625 0.28125 -0.6875q0.046875 -0.421875 0.046875 -1.3124981l0 -4.265625q0 -0.78125 0.078125 -1.203125l-1.328125 0.046875l0 -0.765625l0.578125 0q0.703125 0 1.015625 -0.109375q0.328125 -0.125 0.609375 -0.390625l0.546875 0q0.0625 0.734375 0.078125 1.84375q0.46875 -0.765625 1.328125 -1.359375q0.875 -0.59375 1.8125 -0.59375q0.5625 0 0.9375 0.296875q0.375 0.296875 0.375 0.875q0 0.296875 -0.234375 0.59375q-0.234375 0.296875 -0.671875 0.296875q-0.40625 0 -0.671875 -0.296875q-0.25 -0.3125 -0.203125 -0.734375q-0.703125 -0.03125 -1.421875 0.53125q-0.71875 0.5625 -1.21875 1.5l0.015625 4.578123q0 0.84375 -0.078125 1.28125l1.171875 -0.0625l0 0.765625l-3.8125 0l0 -0.5625zm12.7031555 0.859375q-1.296875 0 -2.375 -0.609375q-1.0625 -0.609375 -1.6875 -1.6875q-0.625 -1.0781231 -0.625 -2.437498q0 -1.453125 0.609375 -2.640625q0.625 -1.1875 1.6875 -1.859375q1.078125 -0.6875 2.390625 -0.6875q1.28125 0 2.359375 0.625q1.09375 0.625 1.71875 1.703125q0.625 1.078125 0.625 2.40625q0 1.421875 -0.625 2.625q-0.625 1.1874981 -1.703125 1.8749981q-1.078125 0.6875 -2.375 0.6875zm0.140625 -0.75q1.359375 0 2.0 -1.109375q0.65625 -1.1249981 0.65625 -2.781248q0 -1.890625 -0.703125 -3.234375q-0.703125 -1.34375 -2.09375 -1.34375q-1.390625 0 -2.09375 1.140625q-0.6875 1.140625 -0.6875 2.796875q0 1.203125 0.328125 2.234375q0.328125 1.0312481 0.984375 1.6718731q0.65625 0.625 1.609375 0.625zm5.960785 -0.109375q0.53125 0 0.765625 -0.265625q0.234375 -0.265625 0.28125 -0.6875q0.046875 -0.421875 0.046875 -1.3124981l0 -8.828125q0 -0.71875 0.0625 -1.21875l-1.328125 0.078125l0 -0.78125q1.109375 0 1.578125 -0.125q0.484375 -0.140625 0.75 -0.375l0.546875 0l0.015625 12.093748q0 0.734375 -0.09375 1.28125l1.171875 -0.0625l0 0.765625l-3.796875 0l0 -0.5625zm5.0745087 0q0.53125 0 0.765625 -0.265625q0.234375 -0.265625 0.28125 -0.6875q0.046875 -0.421875 0.046875 -1.3124981l0 -8.828125q0 -0.71875 0.0625 -1.21875l-1.328125 0.078125l0 -0.78125q1.109375 0 1.578125 -0.125q0.484375 -0.140625 0.75 -0.375l0.546875 0l0.015625 12.093748q0 0.734375 -0.09375 1.28125l1.171875 -0.0625l0 0.765625l-3.796875 0l0 -0.5625zm9.762009 0.859375q-1.28125 0 -2.3125 -0.609375q-1.03125 -0.609375 -1.640625 -1.7343731q-0.59375 -1.125 -0.59375 -2.59375q0 -1.3125 0.59375 -2.453125q0.609375 -1.15625 1.671875 -1.84375q1.078125 -0.6875 2.4375 -0.6875q1.0625 0 1.921875 0.46875q0.859375 0.46875 1.359375 1.390625q0.5 0.921875 0.5 2.265625l-6.5625 0.109375q-0.015625 2.234375 0.734375 3.484373q0.765625 1.25 2.34375 1.25q0.859375 0 1.765625 -0.4375q0.90625 -0.453125 1.390625 -1.1093731l0.453125 0.3749981q-0.71875 1.078125 -1.84375 1.609375q-1.125 0.515625 -2.21875 0.515625zm2.1875 -6.468748q0 -1.125 -0.5 -1.921875q-0.5 -0.8125 -1.515625 -0.8125q-2.3125 0 -2.734375 2.734375l4.75 0zm3.4241943 5.609373q0.53125 0 0.765625 -0.265625q0.234375 -0.265625 0.28125 -0.6875q0.046875 -0.421875 0.046875 -1.3124981l0 -4.265625q0 -0.78125 0.078125 -1.203125l-1.328125 0.046875l0 -0.765625l0.578125 0q0.703125 0 1.015625 -0.109375q0.328125 -0.125 0.609375 -0.390625l0.546875 0q0.0625 0.734375 0.078125 1.84375q0.46875 -0.765625 1.328125 -1.359375q0.875 -0.59375 1.8125 -0.59375q0.5625 0 0.9375 0.296875q0.375 0.296875 0.375 0.875q0 0.296875 -0.234375 0.59375q-0.234375 0.296875 -0.671875 0.296875q-0.40625 0 -0.671875 -0.296875q-0.25 -0.3125 -0.203125 -0.734375q-0.703125 -0.03125 -1.421875 0.53125q-0.71875 0.5625 -1.21875 1.5l0.015625 4.578123q0 0.84375 -0.078125 1.28125l1.171875 -0.0625l0 0.765625l-3.8125 0l0 -0.5625z" fill-rule="nonzero"/><path fill="#000000" fill-opacity="0.0" d="m253.6693 27.08399c25.559036 0 51.11812 38.83464 51.11812 77.66929" fill-rule="evenodd"/><path stroke="#000000" stroke-width="1.0" stroke-linejoin="round" stroke-linecap="butt" d="m253.6693 27.08399c12.779526 0 25.559036 9.708662 35.143692 24.271654c4.792328 7.281494 8.785919 15.776573 11.581451 24.87844c1.3977661 4.5509415 2.4960022 9.253571 3.2447815 14.032051c0.37442017 2.389244 0.6614685 4.797447 0.8548889 7.2151337c0.02420044 0.30220795 0.046905518 0.6045685 0.06814575 0.9070587l0.02407837 0.36832428" fill-rule="evenodd"/><path fill="#000000" stroke="#000000" stroke-width="1.0" stroke-linecap="butt" d="m302.93552 98.812004l1.802887 4.480194l1.4987183 -4.590904z" fill-rule="evenodd"/><path fill="#000000" fill-opacity="0.0" d="m84.19685 104.7664c0 -38.83465 19.748032 -77.66929 39.496063 -77.66929" fill-rule="evenodd"/><path stroke="#000000" stroke-width="1.0" stroke-linejoin="round" stroke-linecap="butt" d="m84.35229 98.76842l0.01851654 -0.36696625c0.016410828 -0.30249023 0.033966064 -0.60485077 0.05265045 -0.9070587c0.14945984 -2.4176788 0.3712387 -4.8258896 0.66051483 -7.2151337c0.57855225 -4.7784805 1.4271011 -9.48111 2.5070724 -14.032051c2.1599426 -9.101868 5.245575 -17.596947 8.948326 -24.87844c7.4055176 -14.562992 17.279533 -24.271654 27.15355 -24.271654" fill-rule="evenodd"/><path fill="#000000" stroke="#000000" stroke-width="1.0" stroke-linecap="butt" d="m82.7011 98.72563l1.5336151 4.579361l1.7687454 -4.493782z" fill-rule="evenodd"/><path fill="#000000" fill-opacity="0.0" d="m78.48688 339.70078l281.5118 0l0 40.692932l-281.5118 0z" fill-rule="evenodd"/><path fill="#000000" d="m90.815 364.0608l0 -8.96875l-2.828125 0l0 -1.015625l6.90625 0l0 1.015625l-2.9375 0l0 8.96875l-1.140625 0zm8.57814 -7.46875q1.5625 0 2.390625 0.8125q0.828125 0.8125 0.828125 2.765625l0 3.890625l-1.25 0l0 -1.125q-0.671875 1.296875 -2.5 1.296875q-1.21875 0 -1.90625 -0.546875q-0.6875 -0.546875 -0.6875 -1.46875q0 -0.765625 0.5 -1.34375q0.5 -0.578125 1.328125 -0.890625q0.84375 -0.3125 1.859375 -0.3125q0.90625 0 1.640625 0.109375q-0.09375 -1.234375 -0.65625 -1.734375q-0.546875 -0.515625 -1.625 -0.515625q-0.546875 0 -1.0625 0.21875q-0.5 0.203125 -0.90625 0.59375l-0.5625 -0.734375q1.015625 -1.015625 2.609375 -1.015625zm-0.421875 6.765625q1.1875 0 1.875 -0.6875q0.6875 -0.703125 0.75 -2.015625q-0.71875 -0.109375 -1.546875 -0.109375q-1.21875 0 -1.921875 0.40625q-0.703125 0.390625 -0.703125 1.203125q0 1.203125 1.546875 1.203125zm7.7031403 -2.953125l-0.96875 0.890625l0 2.765625l-1.15625 0l0 -10.640625l1.3125 0l0 0.109375q-0.109375 0.09375 -0.140625 0.21875q-0.015625 0.109375 -0.015625 0.375l0 5.984375l3.671875 -3.390625q0.390625 0.078125 0.84375 0.078125l0.421875 0l-3.078125 2.890625l3.578125 4.375l-1.484375 0.0625l-2.984375 -3.71875zm9.17189 3.8125q-1.640625 0 -2.609375 -0.984375q-0.96875 -1.0 -0.96875 -2.796875q0 -1.203125 0.453125 -2.078125q0.453125 -0.875 1.203125 -1.328125q0.765625 -0.453125 1.703125 -0.453125q1.328125 0 2.15625 0.875q0.828125 0.875 0.828125 2.59375q0 0.171875 -0.03125 0.53125l-5.203125 0q0.0625 1.34375 0.75 2.03125q0.6875 0.6875 1.75 0.6875q1.140625 0 1.875 -0.8125l0.640625 0.625q-0.921875 1.109375 -2.546875 1.109375zm1.59375 -4.546875q0 -1.015625 -0.53125 -1.609375q-0.515625 -0.609375 -1.359375 -0.609375q-0.796875 0 -1.390625 0.5625q-0.59375 0.5625 -0.734375 1.65625l4.015625 0zm6.8125153 -1.109375q1.421875 0.59375 1.96875 1.21875q0.546875 0.625 0.546875 1.5625q0 0.734375 -0.359375 1.390625q-0.359375 0.65625 -1.109375 1.078125q-0.75 0.40625 -1.859375 0.40625q-1.9375 0 -3.125 -1.265625l0.578125 -1.0l0 -0.015625q0.015625 0 0.015625 0.015625q0 0 0 0q0.4375 0.578125 1.109375 0.921875q0.6875 0.34375 1.578125 0.34375q0.875 0 1.46875 -0.5q0.59375 -0.5 0.59375 -1.21875q0 -0.46875 -0.1875 -0.765625q-0.171875 -0.3125 -0.65625 -0.609375q-0.484375 -0.3125 -1.4375 -0.734375q-1.46875 -0.578125 -2.109375 -1.3125q-0.625 -0.734375 -0.625 -1.640625q0 -1.125 0.8125 -1.796875q0.8125 -0.671875 2.21875 -0.671875q0.828125 0 1.53125 0.328125q0.71875 0.328125 1.234375 0.921875l-0.609375 0.828125l-0.03125 0.015625q-0.46875 -0.65625 -1.0 -0.90625q-0.515625 -0.265625 -1.296875 -0.265625q-0.765625 0 -1.25 0.4375q-0.46875 0.421875 -0.46875 1.015625q0 0.46875 0.203125 0.8125q0.203125 0.34375 0.734375 0.671875q0.53125 0.328125 1.53125 0.734375zm1.375 -2.46875q0 -0.046875 0.0625 -0.015625q0.0625 0.03125 0.078125 0.03125l-0.046875 0.0625l-0.09375 -0.0625l0 -0.015625zm0.171875 -0.03125q0.109375 0.125 0.046875 0.09375q-0.0625 -0.046875 -0.078125 -0.046875l0.03125 -0.046875zm-4.734375 5.828125q0 0.046875 -0.0625 0.015625q-0.0625 -0.03125 -0.078125 -0.03125l0.03125 -0.0625l0.109375 0.0625l0 0.015625zm-0.171875 0.046875q-0.09375 -0.125 0.03125 -0.0625l-0.03125 0.0625zm7.7500153 -5.1875l1.109375 0l0 1.296875q0.4375 -0.671875 1.09375 -1.0625q0.65625 -0.40625 1.390625 -0.40625q0.984375 0 1.5625 0.75q0.578125 0.734375 0.578125 2.296875l0 4.4375l-1.109375 0l0 -4.40625q0 -1.078125 -0.375 -1.578125q-0.359375 -0.5 -0.96875 -0.5q-0.5 0 -1.015625 0.296875q-0.5 0.28125 -0.828125 0.8125q-0.328125 0.515625 -0.328125 1.171875l0 4.203125l-1.109375 0l0 -7.3125zm10.750015 -0.15625q1.5625 0 2.390625 0.8125q0.828125 0.8125 0.828125 2.765625l0 3.890625l-1.25 0l0 -1.125q-0.671875 1.296875 -2.5 1.296875q-1.21875 0 -1.90625 -0.546875q-0.6875 -0.546875 -0.6875 -1.46875q0 -0.765625 0.5 -1.34375q0.5 -0.578125 1.328125 -0.890625q0.84375 -0.3125 1.859375 -0.3125q0.90625 0 1.640625 0.109375q-0.09375 -1.234375 -0.65625 -1.734375q-0.546875 -0.515625 -1.625 -0.515625q-0.546875 0 -1.0625 0.21875q-0.5 0.203125 -0.90625 0.59375l-0.5625 -0.734375q1.015625 -1.015625 2.609375 -1.015625zm-0.421875 6.765625q1.1875 0 1.875 -0.6875q0.6875 -0.703125 0.75 -2.015625q-0.71875 -0.109375 -1.546875 -0.109375q-1.21875 0 -1.921875 0.40625q-0.703125 0.390625 -0.703125 1.203125q0 1.203125 1.546875 1.203125zm5.4687653 -6.609375l1.171875 0l0 1.4375q0.25 -0.796875 0.828125 -1.1875q0.59375 -0.40625 1.40625 -0.40625q0.828125 0 1.515625 0.421875q0.703125 0.421875 1.109375 1.28125q0.421875 0.84375 0.421875 2.046875q0 1.234375 -0.4375 2.125q-0.421875 0.890625 -1.140625 1.34375q-0.703125 0.4375 -1.515625 0.4375q-0.65625 0 -1.234375 -0.296875q-0.5625 -0.3125 -0.9375 -0.84375l0 3.625l-1.1875 0l0 -9.984375zm3.171875 6.484375q0.890625 0 1.484375 -0.65625q0.59375 -0.671875 0.59375 -2.171875q0 -1.375 -0.53125 -2.09375q-0.515625 -0.734375 -1.5 -0.734375q-0.90625 0 -1.484375 0.765625q-0.5625 0.765625 -0.5625 2.3125q0.03125 1.265625 0.5625 1.921875q0.53125 0.65625 1.4375 0.65625zm8.406265 -3.46875q1.375 0.40625 1.9375 0.90625q0.578125 0.484375 0.578125 1.265625q0 0.984375 -0.78125 1.640625q-0.78125 0.640625 -2.25 0.640625q-1.859375 0 -3.109375 -1.140625l0.640625 -1.09375l0.015625 -0.015625l0.015625 0.015625q0.5 0.640625 1.03125 0.96875q0.53125 0.3125 1.4375 0.3125q0.859375 0 1.359375 -0.3125q0.5 -0.3125 0.5 -0.859375q0 -0.46875 -0.40625 -0.765625q-0.390625 -0.3125 -1.4375 -0.640625q-2.75 -0.78125 -2.75 -2.265625q0 -0.859375 0.6875 -1.34375q0.703125 -0.5 2.0 -0.5q0.984375 0 1.671875 0.28125q0.6875 0.28125 1.234375 0.859375l-0.65625 0.8125l-0.015625 0.015625q-0.328125 -0.515625 -0.953125 -0.8125q-0.609375 -0.296875 -1.25 -0.296875q-0.6875 0 -1.125 0.25q-0.4375 0.234375 -0.4375 0.65625q0 0.40625 0.4375 0.75q0.453125 0.328125 1.625 0.671875zm1.53125 -1.1875q0 -0.078125 0.125 0.015625l-0.046875 0.0625l-0.078125 -0.078125zm0.171875 -0.03125q0.046875 0.0625 0.03125 0.078125q0 0.015625 -0.03125 0q-0.03125 -0.015625 -0.046875 -0.03125l0.046875 -0.046875zm-4.484375 3.375q0 0.0625 -0.15625 0l0.046875 -0.078125l0.109375 0.0625l0 0.015625zm-0.1875 0.046875q-0.046875 -0.078125 -0.03125 -0.078125q0.015625 0 0.0625 0.03125l-0.03125 0.046875zm7.6093903 -8.546875l1.265625 0l0 0.109375q-0.09375 0.09375 -0.125 0.21875q-0.03125 0.109375 -0.03125 0.375l0 3.921875q0.4375 -0.671875 1.078125 -1.0625q0.65625 -0.40625 1.328125 -0.40625q1.046875 0 1.625 0.734375q0.59375 0.734375 0.59375 2.3125l0 4.4375l-1.109375 0l0 -4.40625q0 -1.078125 -0.375 -1.578125q-0.359375 -0.5 -0.96875 -0.5q-0.515625 0 -1.015625 0.28125q-0.5 0.28125 -0.828125 0.8125q-0.328125 0.515625 -0.328125 1.1875l0 4.203125l-1.109375 0l0 -10.640625zm10.82814 10.765625q-0.96875 0 -1.75 -0.46875q-0.765625 -0.484375 -1.203125 -1.34375q-0.421875 -0.875 -0.421875 -1.96875q0 -1.109375 0.421875 -1.96875q0.4375 -0.875 1.203125 -1.359375q0.78125 -0.484375 1.75 -0.484375q0.96875 0 1.734375 0.484375q0.78125 0.484375 1.203125 1.359375q0.4375 0.859375 0.4375 1.96875q0 1.09375 -0.4375 1.96875q-0.421875 0.859375 -1.203125 1.34375q-0.765625 0.46875 -1.734375 0.46875zm0 -0.953125q0.625 0 1.109375 -0.359375q0.484375 -0.375 0.765625 -1.015625q0.28125 -0.65625 0.28125 -1.484375q0 -1.234375 -0.609375 -2.03125q-0.609375 -0.796875 -1.546875 -0.796875q-0.9375 0 -1.546875 0.796875q-0.609375 0.796875 -0.609375 2.03125q0 0.828125 0.28125 1.484375q0.28125 0.640625 0.765625 1.015625q0.484375 0.359375 1.109375 0.359375zm11.10939 0.15625q-1.0625 0.78125 -2.328125 0.78125q-1.21875 0 -1.71875 -0.734375q-0.5 -0.734375 -0.5 -2.40625q0 -0.265625 0.03125 -0.9375l0.140625 -2.40625l-1.609375 0l0 -0.9375l1.671875 0l0.109375 -1.953125l1.28125 -0.203125l0.171875 -0.015625l0.015625 0.09375q-0.125 0.15625 -0.1875 0.265625q-0.046875 0.109375 -0.0625 0.359375l-0.171875 1.453125l2.4375 0l0 0.9375l-2.5 0l-0.140625 2.484375q-0.03125 0.640625 -0.03125 0.84375q0 1.28125 0.28125 1.75q0.296875 0.453125 0.953125 0.453125q0.484375 0 0.875 -0.171875q0.40625 -0.1875 0.921875 -0.5625l0.359375 0.90625zm14.8281555 3.21875q-1.21875 0 -1.96875 -0.25q-0.75 -0.234375 -1.109375 -0.84375q-0.359375 -0.609375 -0.3125 -1.703125l0.0625 -1.609375q0 -1.0 -0.359375 -1.390625q-0.34375 -0.390625 -1.078125 -0.390625l-0.328125 0l0 -0.90625l0.3125 0q0.75 0 1.109375 -0.40625q0.375 -0.40625 0.375 -1.296875l-0.03125 -1.15625q0 -2.78125 2.90625 -2.78125l1.015625 0l0 0.90625l-1.3125 0q-1.484375 0 -1.484375 1.703125l0.03125 1.109375q0 1.765625 -1.390625 2.375q1.359375 0.453125 1.359375 2.484375l-0.046875 1.34375q0 1.0625 0.453125 1.484375q0.46875 0.421875 1.5625 0.421875l0.8125 0l0 0.90625l-0.578125 0zm14.5937805 -6.84375q1.375 0.40625 1.9375 0.90625q0.578125 0.484375 0.578125 1.265625q0 0.984375 -0.78125 1.640625q-0.78125 0.640625 -2.25 0.640625q-1.859375 0 -3.109375 -1.140625l0.640625 -1.09375l0.015625 -0.015625l0.015625 0.015625q0.5 0.640625 1.03125 0.96875q0.53125 0.3125 1.4375 0.3125q0.859375 0 1.359375 -0.3125q0.5 -0.3125 0.5 -0.859375q0 -0.46875 -0.40625 -0.765625q-0.390625 -0.3125 -1.4375 -0.640625q-2.75 -0.78125 -2.75 -2.265625q0 -0.859375 0.6875 -1.34375q0.703125 -0.5 2.0 -0.5q0.984375 0 1.671875 0.28125q0.6875 0.28125 1.234375 0.859375l-0.65625 0.8125l-0.015625 0.015625q-0.328125 -0.515625 -0.953125 -0.8125q-0.609375 -0.296875 -1.25 -0.296875q-0.6875 0 -1.125 0.25q-0.4375 0.234375 -0.4375 0.65625q0 0.40625 0.4375 0.75q0.453125 0.328125 1.625 0.671875zm1.53125 -1.1875q0 -0.078125 0.125 0.015625l-0.046875 0.0625l-0.078125 -0.078125zm0.171875 -0.03125q0.046875 0.0625 0.03125 0.078125q0 0.015625 -0.03125 0q-0.03125 -0.015625 -0.046875 -0.03125l0.046875 -0.046875zm-4.484375 3.375q0 0.0625 -0.15625 0l0.046875 -0.078125l0.109375 0.0625l0 0.015625zm-0.1875 0.046875q-0.046875 -0.078125 -0.03125 -0.078125q0.015625 0 0.0625 0.03125l-0.03125 0.046875zm7.5937653 -5.21875l1.109375 0l0 1.296875q0.4375 -0.671875 1.09375 -1.0625q0.65625 -0.40625 1.390625 -0.40625q0.984375 0 1.5625 0.75q0.578125 0.734375 0.578125 2.296875l0 4.4375l-1.109375 0l0 -4.40625q0 -1.078125 -0.375 -1.578125q-0.359375 -0.5 -0.96875 -0.5q-0.5 0 -1.015625 0.296875q-0.5 0.28125 -0.828125 0.8125q-0.328125 0.515625 -0.328125 1.171875l0 4.203125l-1.109375 0l0 -7.3125zm10.750015 -0.15625q1.5625 0 2.390625 0.8125q0.828125 0.8125 0.828125 2.765625l0 3.890625l-1.25 0l0 -1.125q-0.671875 1.296875 -2.5 1.296875q-1.21875 0 -1.90625 -0.546875q-0.6875 -0.546875 -0.6875 -1.46875q0 -0.765625 0.5 -1.34375q0.5 -0.578125 1.328125 -0.890625q0.84375 -0.3125 1.859375 -0.3125q0.90625 0 1.640625 0.109375q-0.09375 -1.234375 -0.65625 -1.734375q-0.546875 -0.515625 -1.625 -0.515625q-0.546875 0 -1.0625 0.21875q-0.5 0.203125 -0.90625 0.59375l-0.5625 -0.734375q1.015625 -1.015625 2.609375 -1.015625zm-0.421875 6.765625q1.1875 0 1.875 -0.6875q0.6875 -0.703125 0.75 -2.015625q-0.71875 -0.109375 -1.546875 -0.109375q-1.21875 0 -1.921875 0.40625q-0.703125 0.390625 -0.703125 1.203125q0 1.203125 1.546875 1.203125zm5.4687653 -6.609375l1.171875 0l0 1.4375q0.25 -0.796875 0.828125 -1.1875q0.59375 -0.40625 1.40625 -0.40625q0.828125 0 1.515625 0.421875q0.703125 0.421875 1.109375 1.28125q0.421875 0.84375 0.421875 2.046875q0 1.234375 -0.4375 2.125q-0.421875 0.890625 -1.140625 1.34375q-0.703125 0.4375 -1.515625 0.4375q-0.65625 0 -1.234375 -0.296875q-0.5625 -0.3125 -0.9375 -0.84375l0 3.625l-1.1875 0l0 -9.984375zm3.171875 6.484375q0.890625 0 1.484375 -0.65625q0.59375 -0.671875 0.59375 -2.171875q0 -1.375 -0.53125 -2.09375q-0.515625 -0.734375 -1.5 -0.734375q-0.90625 0 -1.484375 0.765625q-0.5625 0.765625 -0.5625 2.3125q0.03125 1.265625 0.5625 1.921875q0.53125 0.65625 1.4375 0.65625zm8.406265 -3.46875q1.375 0.40625 1.9375 0.90625q0.578125 0.484375 0.578125 1.265625q0 0.984375 -0.78125 1.640625q-0.78125 0.640625 -2.25 0.640625q-1.859375 0 -3.109375 -1.140625l0.640625 -1.09375l0.015625 -0.015625l0.015625 0.015625q0.5 0.640625 1.03125 0.96875q0.53125 0.3125 1.4375 0.3125q0.859375 0 1.359375 -0.3125q0.5 -0.3125 0.5 -0.859375q0 -0.46875 -0.40625 -0.765625q-0.390625 -0.3125 -1.4375 -0.640625q-2.75 -0.78125 -2.75 -2.265625q0 -0.859375 0.6875 -1.34375q0.703125 -0.5 2.0 -0.5q0.984375 0 1.671875 0.28125q0.6875 0.28125 1.234375 0.859375l-0.65625 0.8125l-0.015625 0.015625q-0.328125 -0.515625 -0.953125 -0.8125q-0.609375 -0.296875 -1.25 -0.296875q-0.6875 0 -1.125 0.25q-0.4375 0.234375 -0.4375 0.65625q0 0.40625 0.4375 0.75q0.453125 0.328125 1.625 0.671875zm1.53125 -1.1875q0 -0.078125 0.125 0.015625l-0.046875 0.0625l-0.078125 -0.078125zm0.171875 -0.03125q0.046875 0.0625 0.03125 0.078125q0 0.015625 -0.03125 0q-0.03125 -0.015625 -0.046875 -0.03125l0.046875 -0.046875zm-4.484375 3.375q0 0.0625 -0.15625 0l0.046875 -0.078125l0.109375 0.0625l0 0.015625zm-0.1875 0.046875q-0.046875 -0.078125 -0.03125 -0.078125q0.015625 0 0.0625 0.03125l-0.03125 0.046875zm7.6093903 -8.546875l1.265625 0l0 0.109375q-0.09375 0.09375 -0.125 0.21875q-0.03125 0.109375 -0.03125 0.375l0 3.921875q0.4375 -0.671875 1.078125 -1.0625q0.65625 -0.40625 1.328125 -0.40625q1.046875 0 1.625 0.734375q0.59375 0.734375 0.59375 2.3125l0 4.4375l-1.109375 0l0 -4.40625q0 -1.078125 -0.375 -1.578125q-0.359375 -0.5 -0.96875 -0.5q-0.515625 0 -1.015625 0.28125q-0.5 0.28125 -0.828125 0.8125q-0.328125 0.515625 -0.328125 1.1875l0 4.203125l-1.109375 0l0 -10.640625zm10.828125 10.765625q-0.96875 0 -1.75 -0.46875q-0.765625 -0.484375 -1.203125 -1.34375q-0.421875 -0.875 -0.421875 -1.96875q0 -1.109375 0.421875 -1.96875q0.4375 -0.875 1.203125 -1.359375q0.78125 -0.484375 1.75 -0.484375q0.96875 0 1.734375 0.484375q0.78125 0.484375 1.203125 1.359375q0.4375 0.859375 0.4375 1.96875q0 1.09375 -0.4375 1.96875q-0.421875 0.859375 -1.203125 1.34375q-0.765625 0.46875 -1.734375 0.46875zm0 -0.953125q0.625 0 1.109375 -0.359375q0.484375 -0.375 0.765625 -1.015625q0.28125 -0.65625 0.28125 -1.484375q0 -1.234375 -0.609375 -2.03125q-0.609375 -0.796875 -1.546875 -0.796875q-0.9375 0 -1.546875 0.796875q-0.609375 0.796875 -0.609375 2.03125q0 0.828125 0.28125 1.484375q0.28125 0.640625 0.765625 1.015625q0.484375 0.359375 1.109375 0.359375zm11.1094055 0.15625q-1.0625 0.78125 -2.328125 0.78125q-1.21875 0 -1.71875 -0.734375q-0.5 -0.734375 -0.5 -2.40625q0 -0.265625 0.03125 -0.9375l0.140625 -2.40625l-1.609375 0l0 -0.9375l1.671875 0l0.109375 -1.953125l1.28125 -0.203125l0.171875 -0.015625l0.015625 0.09375q-0.125 0.15625 -0.1875 0.265625q-0.046875 0.109375 -0.0625 0.359375l-0.171875 1.453125l2.4375 0l0 0.9375l-2.5 0l-0.140625 2.484375q-0.03125 0.640625 -0.03125 0.84375q0 1.28125 0.28125 1.75q0.296875 0.453125 0.953125 0.453125q0.484375 0 0.875 -0.171875q0.40625 -0.1875 0.921875 -0.5625l0.359375 0.90625zm1.453125 1.953125l0 -0.984375l6.890625 0l0 0.984375l-6.890625 0zm9.0312805 -1.28125l0 -0.921875l1.875 0l0 -5.46875l-1.765625 0l0 -0.921875l2.921875 0l0 6.390625l1.71875 0l0 0.921875l-4.75 0zm2.390625 -8.84375q-0.328125 0 -0.578125 -0.234375q-0.234375 -0.25 -0.234375 -0.578125q0 -0.359375 0.234375 -0.59375q0.234375 -0.25 0.578125 -0.25q0.34375 0 0.578125 0.25q0.25 0.25 0.25 0.59375q0 0.328125 -0.25 0.578125q-0.234375 0.234375 -0.578125 0.234375zm7.765625 9.0q-0.796875 0 -1.484375 -0.4375q-0.6875 -0.4375 -1.125 -1.3125q-0.421875 -0.890625 -0.421875 -2.140625q0 -1.25 0.4375 -2.09375q0.453125 -0.859375 1.15625 -1.265625q0.71875 -0.40625 1.5 -0.40625q0.734375 0 1.28125 0.34375q0.546875 0.328125 0.84375 0.921875l0 -4.40625l1.21875 0l0 0.109375q-0.09375 0.09375 -0.125 0.21875q-0.015625 0.109375 -0.015625 0.375l0.015625 8.796875q0 0.390625 0.015625 0.640625q0.03125 0.25 0.140625 0.5l-1.140625 0q-0.109375 -0.25 -0.140625 -0.5q-0.015625 -0.25 -0.015625 -0.640625q-0.359375 0.609375 -0.90625 0.953125q-0.546875 0.34375 -1.234375 0.34375zm0.171875 -1.0q0.984375 0 1.453125 -0.78125q0.46875 -0.796875 0.46875 -2.078125q0 -1.28125 -0.515625 -2.0625q-0.5 -0.796875 -1.5 -0.796875q-0.96875 0 -1.484375 0.71875q-0.5 0.703125 -0.5 1.9375q0 1.40625 0.53125 2.234375q0.53125 0.828125 1.546875 0.828125zm7.8906555 -4.078125q-0.375 0 -0.671875 -0.265625q-0.28125 -0.28125 -0.28125 -0.65625q0 -0.375 0.28125 -0.640625q0.28125 -0.28125 0.671875 -0.28125q0.375 0 0.65625 0.28125q0.296875 0.265625 0.296875 0.640625q0 0.375 -0.296875 0.65625q-0.28125 0.265625 -0.65625 0.265625zm0 5.09375q-0.40625 0 -0.6875 -0.265625q-0.265625 -0.265625 -0.265625 -0.640625q0 -0.390625 0.28125 -0.65625q0.28125 -0.265625 0.671875 -0.265625q0.375 0 0.65625 0.265625q0.296875 0.265625 0.296875 0.65625q0 0.359375 -0.28125 0.640625q-0.28125 0.265625 -0.671875 0.265625zm15.8750305 -0.171875l0 -8.59375l-2.03125 0.59375l-0.25 -0.625l2.609375 -1.359375l0.78125 0l0 9.984375l-1.109375 0zm13.1875305 2.546875l0 -0.90625l0.828125 0q1.078125 0 1.546875 -0.421875q0.46875 -0.421875 0.46875 -1.484375l-0.0625 -1.34375q0 -2.03125 1.375 -2.484375q-1.40625 -0.609375 -1.40625 -2.375l0.03125 -1.109375q0 -1.703125 -1.484375 -1.703125l-1.3125 0l0 -0.90625l1.015625 0q2.90625 0 2.90625 2.78125l-0.03125 1.15625q0 0.890625 0.359375 1.296875q0.375 0.40625 1.125 0.40625l0.3125 0l0 0.90625l-0.328125 0q-0.734375 0 -1.09375 0.390625q-0.34375 0.390625 -0.34375 1.390625l0.0625 1.609375q0.046875 1.09375 -0.3125 1.703125q-0.359375 0.609375 -1.109375 0.84375q-0.75 0.25 -1.96875 0.25l-0.578125 0z" fill-rule="nonzero"/><path fill="#93c47d" d="m32.72441 49.934383l0 0c0 -12.619923 10.230469 -22.850393 22.850391 -22.850393l0 0c6.0603027 0 11.872387 2.407444 16.157673 6.692724c4.2852783 4.285282 6.6927185 10.097366 6.6927185 16.15767l0 0c0 12.619923 -10.230469 22.850391 -22.850391 22.850391l0 0c-12.619923 0 -22.850391 -10.230469 -22.850391 -22.850391z" fill-rule="evenodd"/><path stroke="#6aa84f" stroke-width="1.0" stroke-linejoin="round" stroke-linecap="butt" d="m32.72441 49.934383l0 0c0 -12.619923 10.230469 -22.850393 22.850391 -22.850393l0 0c6.0603027 0 11.872387 2.407444 16.157673 6.692724c4.2852783 4.285282 6.6927185 10.097366 6.6927185 16.15767l0 0c0 12.619923 -10.230469 22.850391 -22.850391 22.850391l0 0c-12.619923 0 -22.850391 -10.230469 -22.850391 -22.850391z" fill-rule="evenodd"/><path fill="#000000" d="m49.8482 45.825634l3.203125 0q1.59375 0 2.375 0.78125q0.78125 0.78125 0.78125 2.03125q0 1.234375 -0.765625 2.0q-0.765625 0.75 -2.3125 0.75l-2.125 0l0 4.40625l-1.15625 0l0 -9.96875zm3.15625 4.578125q1.0625 0 1.546875 -0.453125q0.5 -0.453125 0.5 -1.28125q0 -0.78125 -0.515625 -1.28125q-0.5 -0.5 -1.515625 -0.5l-2.015625 0l0 3.515625l2.0 0z" fill-rule="nonzero"/><path fill="#000000" d="m59.926342 58.93501q0.921875 0.265625 1.296875 0.59375q0.375 0.328125 0.375 0.84375q0 0.671875 -0.515625 1.109375q-0.515625 0.421875 -1.5 0.421875q-1.234375 0 -2.0625 -0.765625l0.421875 -0.734375l0.015625 0l0.015625 0q0.328125 0.4375 0.671875 0.65625q0.359375 0.203125 0.96875 0.203125q0.5625 0 0.890625 -0.203125q0.34375 -0.21875 0.34375 -0.578125q0 -0.3125 -0.265625 -0.515625q-0.265625 -0.203125 -0.96875 -0.421875q-1.828125 -0.515625 -1.828125 -1.515625q0 -0.5625 0.453125 -0.890625q0.46875 -0.328125 1.34375 -0.328125q0.65625 0 1.109375 0.1875q0.453125 0.1875 0.828125 0.578125l-0.4375 0.53125l-0.015625 0.015625q-0.21875 -0.34375 -0.640625 -0.53125q-0.40625 -0.203125 -0.828125 -0.203125q-0.453125 0 -0.75 0.15625q-0.296875 0.15625 -0.296875 0.453125q0 0.265625 0.296875 0.484375q0.296875 0.21875 1.078125 0.453125zm1.015625 -0.796875q0 -0.046875 0.09375 0.015625l-0.03125 0.03125l-0.0625 -0.046875zm0.125 -0.015625q0.03125 0.03125 0.015625 0.046875q0 0.015625 -0.015625 0q-0.015625 -0.015625 -0.03125 -0.015625l0.03125 -0.03125zm-3.0 2.25q0 0.03125 -0.09375 0l0.03125 -0.0625l0.0625 0.046875l0 0.015625zm-0.109375 0.03125q-0.03125 -0.0625 -0.03125 -0.0625q0.015625 0 0.046875 0.03125l-0.015625 0.03125z" fill-rule="nonzero"/><path fill="#93c47d" d="m309.7454 49.934383l0 0c0 -12.619923 10.230499 -22.850393 22.850403 -22.850393l0 0c6.0603027 0 11.872406 2.407444 16.157684 6.692724c4.2852783 4.285282 6.6927185 10.097366 6.6927185 16.15767l0 0c0 12.619923 -10.230469 22.850391 -22.850403 22.850391l0 0c-12.619904 0 -22.850403 -10.230469 -22.850403 -22.850391z" fill-rule="evenodd"/><path stroke="#6aa84f" stroke-width="1.0" stroke-linejoin="round" stroke-linecap="butt" d="m309.7454 49.934383l0 0c0 -12.619923 10.230499 -22.850393 22.850403 -22.850393l0 0c6.0603027 0 11.872406 2.407444 16.157684 6.692724c4.2852783 4.285282 6.6927185 10.097366 6.6927185 16.15767l0 0c0 12.619923 -10.230469 22.850391 -22.850403 22.850391l0 0c-12.619904 0 -22.850403 -10.230469 -22.850403 -22.850391z" fill-rule="evenodd"/><path fill="#000000" d="m326.8692 45.825634l3.203125 0q1.59375 0 2.375 0.78125q0.78125 0.78125 0.78125 2.03125q0 1.234375 -0.765625 2.0q-0.765625 0.75 -2.3125 0.75l-2.125 0l0 4.40625l-1.15625 0l0 -9.96875zm3.15625 4.578125q1.0625 0 1.546875 -0.453125q0.5 -0.453125 0.5 -1.28125q0 -0.78125 -0.515625 -1.28125q-0.5 -0.5 -1.515625 -0.5l-2.015625 0l0 3.515625l2.0 0z" fill-rule="nonzero"/><path fill="#000000" d="m336.94733 58.93501q0.921875 0.265625 1.296875 0.59375q0.375 0.328125 0.375 0.84375q0 0.671875 -0.515625 1.109375q-0.515625 0.421875 -1.5 0.421875q-1.234375 0 -2.0625 -0.765625l0.421875 -0.734375l0.015625 0l0.015625 0q0.328125 0.4375 0.671875 0.65625q0.359375 0.203125 0.96875 0.203125q0.5625 0 0.890625 -0.203125q0.34375 -0.21875 0.34375 -0.578125q0 -0.3125 -0.265625 -0.515625q-0.265625 -0.203125 -0.96875 -0.421875q-1.828125 -0.515625 -1.828125 -1.515625q0 -0.5625 0.453125 -0.890625q0.46875 -0.328125 1.34375 -0.328125q0.65625 0 1.109375 0.1875q0.453125 0.1875 0.828125 0.578125l-0.4375 0.53125l-0.015625 0.015625q-0.21875 -0.34375 -0.640625 -0.53125q-0.40625 -0.203125 -0.828125 -0.203125q-0.453125 0 -0.75 0.15625q-0.296875 0.15625 -0.296875 0.453125q0 0.265625 0.296875 0.484375q0.296875 0.21875 1.078125 0.453125zm1.015625 -0.796875q0 -0.046875 0.09375 0.015625l-0.03125 0.03125l-0.0625 -0.046875zm0.125 -0.015625q0.03125 0.03125 0.015625 0.046875q0 0.015625 -0.015625 0q-0.015625 -0.015625 -0.03125 -0.015625l0.03125 -0.03125zm-3.0 2.25q0 0.03125 -0.09375 0l0.03125 -0.0625l0.0625 0.046875l0 0.015625zm-0.109375 0.03125q-0.03125 -0.0625 -0.03125 -0.0625q0.015625 0 0.046875 0.03125l-0.015625 0.03125z" fill-rule="nonzero"/><path fill="#93c47d" d="m32.72441 360.04724l0 0c0 -12.619934 10.230469 -22.850403 22.850391 -22.850403l0 0c6.0603027 0 11.872387 2.4074707 16.157673 6.692749c4.2852783 4.2852783 6.6927185 10.097351 6.6927185 16.157654l0 0c0 12.619934 -10.230469 22.850403 -22.850391 22.850403l0 0c-12.619923 0 -22.850391 -10.230469 -22.850391 -22.850403z" fill-rule="evenodd"/><path stroke="#6aa84f" stroke-width="1.0" stroke-linejoin="round" stroke-linecap="butt" d="m32.72441 360.04724l0 0c0 -12.619934 10.230469 -22.850403 22.850391 -22.850403l0 0c6.0603027 0 11.872387 2.4074707 16.157673 6.692749c4.2852783 4.2852783 6.6927185 10.097351 6.6927185 16.157654l0 0c0 12.619934 -10.230469 22.850403 -22.850391 22.850403l0 0c-12.619923 0 -22.850391 -10.230469 -22.850391 -22.850403z" fill-rule="evenodd"/><path fill="#000000" d="m49.8482 355.9385l3.203125 0q1.59375 0 2.375 0.78125q0.78125 0.78125 0.78125 2.03125q0 1.234375 -0.765625 2.0q-0.765625 0.75 -2.3125 0.75l-2.125 0l0 4.40625l-1.15625 0l0 -9.96875zm3.15625 4.578125q1.0625 0 1.546875 -0.453125q0.5 -0.453125 0.5 -1.28125q0 -0.78125 -0.515625 -1.28125q-0.5 -0.5 -1.515625 -0.5l-2.015625 0l0 3.515625l2.0 0z" fill-rule="nonzero"/><path fill="#000000" d="m59.926342 369.04788q0.921875 0.265625 1.296875 0.59375q0.375 0.328125 0.375 0.84375q0 0.671875 -0.515625 1.109375q-0.515625 0.421875 -1.5 0.421875q-1.234375 0 -2.0625 -0.765625l0.421875 -0.734375l0.015625 0l0.015625 0q0.328125 0.4375 0.671875 0.65625q0.359375 0.203125 0.96875 0.203125q0.5625 0 0.890625 -0.203125q0.34375 -0.21875 0.34375 -0.578125q0 -0.3125 -0.265625 -0.515625q-0.265625 -0.203125 -0.96875 -0.421875q-1.828125 -0.515625 -1.828125 -1.515625q0 -0.5625 0.453125 -0.890625q0.46875 -0.328125 1.34375 -0.328125q0.65625 0 1.109375 0.1875q0.453125 0.1875 0.828125 0.578125l-0.4375 0.53125l-0.015625 0.015625q-0.21875 -0.34375 -0.640625 -0.53125q-0.40625 -0.203125 -0.828125 -0.203125q-0.453125 0 -0.75 0.15625q-0.296875 0.15625 -0.296875 0.453125q0 0.265625 0.296875 0.484375q0.296875 0.21875 1.078125 0.453125zm1.015625 -0.796875q0 -0.046875 0.09375 0.015625l-0.03125 0.03125l-0.0625 -0.046875zm0.125 -0.015625q0.03125 0.03125 0.015625 0.046875q0 0.015625 -0.015625 0q-0.015625 -0.015625 -0.03125 -0.015625l0.03125 -0.03125zm-3.0 2.25q0 0.03125 -0.09375 0l0.03125 -0.0625l0.0625 0.046875l0 0.015625zm-0.109375 0.03125q-0.03125 -0.0625 -0.03125 -0.0625q0.015625 0 0.046875 0.03125l-0.015625 0.03125z" fill-rule="nonzero"/><path fill="#b4a7d6" d="m53.377953 253.5328l0 0c0 -17.020798 13.798088 -30.818893 30.818901 -30.818893l0 0c8.173676 0 16.01258 3.2469788 21.792252 9.026642c5.779663 5.779663 9.026642 13.618576 9.026642 21.792252l0 0c0 17.020813 -13.798088 30.818909 -30.818893 30.818909l0 0c-17.020813 0 -30.818901 -13.798096 -30.818901 -30.818909z" fill-rule="evenodd"/><path stroke="#8e7cc3" stroke-width="1.0" stroke-linejoin="round" stroke-linecap="butt" d="m53.377953 253.5328l0 0c0 -17.020798 13.798088 -30.818893 30.818901 -30.818893l0 0c8.173676 0 16.01258 3.2469788 21.792252 9.026642c5.779663 5.779663 9.026642 13.618576 9.026642 21.792252l0 0c0 17.020813 -13.798088 30.818909 -30.818893 30.818909l0 0c-17.020813 0 -30.818901 -13.798096 -30.818901 -30.818909z" fill-rule="evenodd"/><path fill="#000000" d="m84.879616 260.7497q-1.828125 0 -3.28125 -0.875q-1.4375 -0.875 -2.25 -2.390625q-0.8125 -1.5156403 -0.8125 -3.3593903q0 -1.828125 0.734375 -3.421875q0.734375 -1.609375 2.203125 -2.609375q1.46875 -1.0 3.53125 -1.0q2.0625 0 3.765625 1.140625l-0.09375 -1.015625l1.015625 0l0 4.328125l-0.671875 0q-0.1875 -1.734375 -1.234375 -2.703125q-1.03125 -0.984375 -2.640625 -0.984375q-1.328125 0 -2.421875 0.734375q-1.09375 0.734375 -1.734375 2.109375q-0.625 1.359375 -0.625 3.140625q0 1.71875 0.671875 3.0781403q0.671875 1.34375 1.8125 2.109375q1.140625 0.75 2.515625 0.75q1.25 0 2.40625 -0.5625q1.15625 -0.5625 1.90625 -1.578125l0.484375 0.390625q-1.078125 1.5 -2.484375 2.109375q-1.40625 0.609375 -2.796875 0.609375z" fill-rule="nonzero"/><path fill="#000000" fill-opacity="0.0" d="m84.19685 166.4042l0 56.314957" fill-rule="evenodd"/><path stroke="#000000" stroke-width="1.0" stroke-linejoin="round" stroke-linecap="butt" d="m84.19685 166.4042l0 50.314957" fill-rule="evenodd"/><path fill="#000000" stroke="#000000" stroke-width="1.0" stroke-linecap="butt" d="m82.54512 216.71916l1.6517334 4.538101l1.6517258 -4.538101z" fill-rule="evenodd"/></g></svg>